<svg xmlns="http://www.w3.org/2000/svg" width="380" height="180" viewBox="0 0 380 180.00001"><g fill="#383840"><path d="M11.54 14.42h-1.2V7.6H2.2v6.82H1V.2h1.2v6.4h8.13V.2h1.2v14.22zM16.6 14.42h-1.2V.2h1.2v14.22zM30.72 12.73q-.62.9-1.96 1.4-1.33.5-2.98.5-1.67 0-2.97-.82-1.3-.8-2-2.24-.7-1.47-.7-3.36V6.4q0-2.97 1.5-4.67Q23.1 0 25.6 0q2.2 0 3.53 1.14 1.34 1.1 1.6 3.08h-1.2q-.27-1.56-1.3-2.36-1-.8-2.62-.8-2 0-3.15 1.4t-1.16 4v1.68q0 1.62.54 2.87.55 1.24 1.58 1.93 1.04.68 2.38.68 1.55 0 2.67-.5.72-.3 1.07-.73V8.7H25.7V7.66h5.02v5.06zM44.67 14.42h-1.2V7.6h-8.14v6.82h-1.2V.2h1.2v6.4h8.13V.2h1.2v14.22zM54.36 8.63v5.8h-1.2V.2H58q2.2 0 3.5 1.13 1.28 1.14 1.28 3.12 0 2-1.24 3.1-1.23 1.08-3.57 1.08h-3.6zm0-1.02H58q1.75 0 2.66-.8.92-.84.92-2.3 0-1.5-.92-2.36-.9-.88-2.58-.9h-3.72V7.6zM70.77 8.5h-4.13v5.92h-1.2V.2h4.6q2.28 0 3.56 1.1t1.28 3.1q0 1.36-.8 2.4t-2.15 1.45l3.56 6.04v.1h-1.3l-3.42-5.9zm-4.13-1.02h3.68q1.52 0 2.43-.86.92-.86.92-2.23 0-1.5-.96-2.35-.93-.83-2.66-.83h-3.4v6.25zM79.62 14.42h-1.2V.2h1.2v14.22zM93.98 8.08q0 1.97-.7 3.45-.66 1.48-1.92 2.28-1.26.83-2.9.83-2.5 0-4.04-1.78-1.53-1.8-1.53-4.82V6.56q0-1.94.66-3.44.7-1.5 1.96-2.3 1.26-.8 2.9-.8t2.9.78q1.25.8 1.93 2.23.7 1.45.7 3.35v1.7zm-1.2-1.54q0-2.57-1.17-4.02-1.14-1.46-3.16-1.46-2 0-3.17 1.47Q84.1 3.98 84.1 6.6v1.48q0 2.53 1.16 4.02 1.18 1.47 3.2 1.47 2.03 0 3.17-1.45 1.14-1.47 1.14-4.08v-1.5zM102.33 8.5H98.2v5.92H97V.2h4.6q2.28 0 3.56 1.1t1.28 3.1q0 1.36-.8 2.4t-2.15 1.45l3.54 6.04v.1h-1.28l-3.44-5.9zM98.2 7.48h3.68q1.5 0 2.43-.86.94-.86.94-2.23 0-1.5-.96-2.35-.95-.83-2.68-.83h-3.4v6.25zM111.18 14.42h-1.2V.2h1.2v14.22zM124.4 1.23h-4.86v13.2h-1.2V1.23h-4.87V.2h10.94v1.03zM131.04 7.96L135.38.2h1.4l-5.15 8.87v5.35h-1.2V9.07L125.3.2h1.43l4.3 7.76zM154.25 8.08q0 1.97-.68 3.45-.68 1.48-1.94 2.28-1.26.83-2.9.83-2.5 0-4.03-1.78-1.53-1.8-1.53-4.82V6.56q0-1.94.68-3.44.7-1.5 1.95-2.3 1.26-.8 2.9-.8t2.9.78q1.25.8 1.94 2.23t.7 3.35v1.7zm-1.2-1.54q0-2.57-1.16-4.02-1.2-1.46-3.2-1.46t-3.17 1.47q-1.17 1.45-1.17 4.07v1.48q0 2.53 1.17 4.02 1.17 1.47 3.18 1.47 2.05 0 3.2-1.45 1.14-1.47 1.14-4.08v-1.5zM162.6 8.5h-4.12v5.92h-1.2V.2h4.6q2.28 0 3.56 1.1t1.28 3.1q0 1.36-.8 2.4-.8 1.05-2.15 1.45l3.56 6.04v.1h-1.28l-3.45-5.9zm-4.12-1.02h3.68q1.5 0 2.43-.86.9-.86.9-2.23 0-1.5-.96-2.35-.95-.83-2.68-.83h-3.4v6.25zM170 14.42V.2h3.96q1.75 0 3.14.8 1.4.8 2.16 2.28.78 1.48.78 3.38v1.3q0 1.9-.77 3.38-.78 1.48-2.18 2.28-1.4.8-3.2.8H170zm1.2-13.2v12.2h2.7q2.23 0 3.6-1.5 1.35-1.5 1.35-4.03V6.62q0-2.45-1.34-3.93T174 1.24h-2.8zM190.93 7.6h-6.65v5.8h7.65v1.02h-8.85V.2h8.8v1.03h-7.6V6.6h6.65v1zM199.76 8.5h-4.13v5.92h-1.2V.2h4.6q2.28 0 3.56 1.1t1.26 3.1q0 1.36-.8 2.4t-2.15 1.45l3.57 6.04v.1h-1.28l-3.45-5.9zm-4.13-1.02h3.68q1.53 0 2.45-.86.92-.86.92-2.23 0-1.5-.96-2.35-.94-.83-2.67-.83h-3.4v6.25z"/></g><g fill="#929292"><path d="M9.9 55.43q-.23 2.02-1.46 3.1-1.22 1.07-3.26 1.07-1.43 0-2.53-.72-1.1-.7-1.68-2-.6-1.32-.6-3v-1.66q0-1.7.6-3.02t1.7-2.03q1.13-.72 2.6-.72 2.04 0 3.23 1.1 1.2 1.12 1.4 3.08H8.8q-.4-3.26-3.54-3.26-1.74 0-2.78 1.3-1.03 1.3-1.03 3.6v1.56q0 2.22 1 3.53 1 1.32 2.73 1.32 1.7 0 2.55-.8.87-.82 1.07-2.45h1.1zM13.33 51.52q.52-.85 1.33-1.32.8-.47 1.77-.47 1.53 0 2.27.87.75.86.76 2.58v6.24H18.4v-6.25q0-1.27-.53-1.9-.53-.62-1.7-.62-.97 0-1.73.6-.75.62-1.1 1.66v6.53H12.3v-13.5h1.02v5.6zM21.6 54.52q0-1.37.5-2.47.55-1.1 1.52-1.7.97-.62 2.2-.62 1.9 0 3.08 1.34 1.18 1.33 1.18 3.52v.2q0 1.4-.54 2.5-.53 1.1-1.5 1.7-.96.6-2.2.6-1.9 0-3.08-1.34-1.17-1.34-1.17-3.54v-.2zm1.04.3q0 1.7.88 2.8.9 1.1 2.32 1.1t2.3-1.1q.9-1.1.9-2.9v-.2q0-1.1-.4-2-.42-.9-1.15-1.4-.75-.5-1.7-.5-1.4 0-2.3 1.12-.87 1.1-.87 2.88v.2zM31.68 54.52q0-1.37.52-2.47.54-1.1 1.5-1.7.98-.62 2.2-.62 1.9 0 3.1 1.34 1.17 1.33 1.17 3.52v.2q0 1.4-.54 2.5-.53 1.1-1.5 1.7-.96.6-2.2.6-1.9 0-3.08-1.34-1.17-1.34-1.17-3.54v-.2zm1.05.3q0 1.7.88 2.8.9 1.1 2.34 1.1 1.42 0 2.3-1.1.9-1.1.9-2.9v-.2q0-1.1-.4-2-.42-.9-1.15-1.4-.74-.5-1.68-.5-1.4 0-2.28 1.12-.9 1.1-.9 2.88v.2zM48.04 57q0-.78-.63-1.25-.6-.48-1.87-.74-1.27-.25-1.97-.6t-1.04-.85q-.32-.5-.32-1.2 0-1.14.94-1.87.94-.74 2.4-.74 1.6 0 2.56.8.96.78.96 2.04H48q0-.83-.7-1.4-.7-.54-1.77-.54-1.04 0-1.67.47-.63.46-.63 1.2 0 .7.52 1.1.53.4 1.9.7 1.4.35 2.08.7.7.38 1.03.9.34.5.34 1.26 0 1.2-.98 1.93-.97.7-2.53.7-1.68 0-2.7-.8-1.05-.8-1.05-2.03h1.06q.07.92.78 1.44.7.5 1.9.5 1.1 0 1.76-.47.68-.48.68-1.22zM52.63 59.42h-1.06v-9.5h1.06v9.5zM51.4 47.16q0-.3.18-.5.2-.2.53-.2t.55.2q.2.2.2.5t-.2.5q-.2.2-.53.2t-.52-.2-.2-.5zM56.5 49.9l.03 1.64q.54-.88 1.34-1.34.8-.47 1.76-.47 1.53 0 2.28.87.77.86.78 2.58v6.24h-1.05v-6.25q0-1.27-.54-1.9-.54-.62-1.7-.62-1 0-1.74.6-.75.62-1.1 1.66v6.53H55.5v-9.5h1zM64.95 54.58q0-2.24 1-3.54.98-1.3 2.67-1.3 1.95 0 2.96 1.54l.05-1.37h1v9.34q0 1.83-1.04 2.9t-2.8 1.08q-1 0-1.9-.44-.9-.44-1.4-1.18l.57-.63q1.1 1.37 2.65 1.37 1.32 0 2.06-.78.73-.78.75-2.16v-1.2q-1 1.42-2.94 1.42-1.65 0-2.66-1.32t-1-3.56v-.14zm1.06.18q0 1.82.75 2.88.73 1.04 2.06 1.04 1.95 0 2.76-1.74v-4.42q-.37-.9-1.06-1.4-.7-.47-1.68-.47-1.33 0-2.07 1.04Q66 52.7 66 54.74zM80.8 51.52q.52-.85 1.33-1.32.8-.47 1.76-.47 1.5 0 2.26.87.75.86.75 2.58v6.24h-1.03v-6.25q0-1.27-.55-1.9-.52-.62-1.7-.62-.97 0-1.72.6-.74.62-1.1 1.66v6.53h-1.05v-13.5h1.05v5.6zM90.8 59.42h-1.05v-9.5h1.06v9.5zm-1.23-12.26q0-.3.2-.5t.52-.2.5.2q.2.2.2.5t-.2.5q-.2.2-.52.2t-.54-.2-.2-.5zM93.25 54.58q0-2.24 1-3.54.98-1.3 2.68-1.3 1.94 0 2.95 1.54l.05-1.37h1v9.34q0 1.83-1.04 2.9t-2.8 1.08q-1 0-1.9-.44-.9-.44-1.4-1.18l.57-.63q1.1 1.37 2.65 1.37 1.32 0 2.06-.78.73-.78.75-2.16v-1.2q-1 1.42-2.94 1.42-1.65 0-2.66-1.32t-1-3.56v-.14zm1.07.18q0 1.82.72 2.88.73 1.04 2.06 1.04 1.94 0 2.75-1.74v-4.42q-.37-.9-1.06-1.4-.7-.47-1.7-.47-1.32 0-2.06 1.04-.73 1.02-.73 3.05zM104.7 51.52q.53-.85 1.34-1.32.8-.47 1.76-.47 1.53 0 2.28.87.75.86.76 2.58v6.24h-1.05v-6.25q-.03-1.27-.57-1.9-.52-.62-1.7-.62-.97 0-1.72.6-.74.62-1.1 1.66v6.53h-1.05v-13.5h1.05v5.6zM125.58 54.76q0 2.23-1 3.54-.97 1.3-2.62 1.3-1.95 0-3-1.38v4.86h-1.04V49.9h.98l.05 1.36q1.03-1.53 2.98-1.53 1.7 0 2.67 1.3.98 1.3.98 3.58v.17zm-1.06-.18q0-1.82-.74-2.88t-2.1-1.05q-.95 0-1.65.46-.7.5-1.06 1.38v4.56q.38.82 1.08 1.25.7.42 1.66.42 1.35 0 2.1-1.05.73-1.06.73-3.07zM132.3 50.8q-.32-.05-.7-.05-1 0-1.67.55-.68.54-.97 1.6v6.52h-1.05v-9.5h1.05l.02 1.5q.84-1.7 2.68-1.7.44 0 .7.13l-.03.96zM135.14 59.42h-1.06v-9.5h1.06v9.5zm-1.24-12.26q0-.3.2-.5t.52-.2q.33 0 .53.2t.2.5-.2.5q-.2.2-.53.2t-.53-.2-.2-.5zM137.43 54.52q0-1.37.53-2.47t1.5-1.7q.97-.62 2.2-.62 1.9 0 3.08 1.34 1.18 1.33 1.18 3.52v.2q0 1.4-.54 2.5-.52 1.1-1.5 1.7-.96.6-2.2.6-1.9 0-3.07-1.34-1.16-1.34-1.16-3.54v-.2zm1.05.3q0 1.7.88 2.8.9 1.1 2.32 1.1 1.43 0 2.3-1.1.9-1.1.9-2.9v-.2q0-1.1-.4-2-.42-.9-1.14-1.4-.73-.5-1.67-.5-1.4 0-2.3 1.12-.9 1.1-.9 2.88v.2zM152.5 50.8q-.34-.05-.72-.05-1 0-1.67.55-.66.54-.95 1.6v6.52h-1.05v-9.5h1.02l.02 1.5q.84-1.7 2.68-1.7.44 0 .7.13l-.03.96zM155.32 59.42h-1.06v-9.5h1.06v9.5zm-1.24-12.26q0-.3.2-.5t.52-.2q.33 0 .53.2t.2.5-.2.5q-.2.2-.53.2t-.53-.2-.2-.5zM159.82 47.48v2.43h1.97v.88h-2v6.34q0 .8.3 1.2.3.37.95.37.26 0 .85-.1l.05.86q-.4.15-1.12.15-1.08 0-1.57-.62-.5-.63-.5-1.85v-6.35h-1.74v-.86h1.74V47.5h1.06zM167 57.9l2.78-8h1.13l-4.04 11.14-.2.5q-.8 1.72-2.43 1.72-.38 0-.8-.12l-.02-.87.56.05q.77 0 1.25-.4.5-.36.8-1.3l.5-1.28-3.6-9.43h1.16l2.95 8zM176.34 54.52q0-1.37.53-2.47t1.5-1.7q.97-.62 2.2-.62 1.9 0 3.08 1.34 1.18 1.33 1.18 3.52v.2q0 1.4-.54 2.5t-1.5 1.7q-.98.6-2.2.6-1.9 0-3.1-1.34-1.17-1.34-1.17-3.54v-.2zm1.05.3q0 1.7.86 2.8.9 1.1 2.32 1.1t2.3-1.1q.88-1.1.88-2.9v-.2q0-1.1-.4-2-.4-.9-1.13-1.4-.73-.5-1.67-.5-1.4 0-2.3 1.12-.9 1.1-.9 2.88v.2zM194.66 54.76q0 2.23-1 3.54-.97 1.3-2.62 1.3-1.95 0-3-1.38v4.86H187V49.9h.98l.05 1.36q1.03-1.53 2.98-1.53 1.73 0 2.7 1.3.97 1.3.97 3.58v.17zm-1.06-.18q0-1.82-.74-2.88t-2.1-1.05q-.95 0-1.65.46-.67.5-1.04 1.38v4.56q.38.82 1.08 1.25.7.42 1.66.42 1.32 0 2.06-1.05.74-1.06.74-3.07zM198.63 47.48v2.43h1.97v.88h-1.97v6.34q0 .8.28 1.2.3.37.98.37.26 0 .85-.1l.04.86q-.4.15-1.12.15-1.08 0-1.57-.62-.5-.63-.5-1.85v-6.35h-1.74v-.86h1.74V47.5h1.06zM203.98 59.42h-1.06v-9.5h1.06v9.5zm-1.24-12.26q0-.3.2-.5t.52-.2q.33 0 .53.2t.2.5-.2.5q-.2.2-.55.2-.33 0-.53-.2t-.2-.5zM206.26 54.52q0-1.37.53-2.47.5-1.1 1.5-1.7.95-.62 2.2-.62 1.9 0 3.06 1.34 1.18 1.33 1.18 3.52v.2q0 1.4-.54 2.5-.5 1.1-1.48 1.7-.97.6-2.2.6-1.9 0-3.08-1.34-1.18-1.34-1.18-3.54v-.2zm1.05.3q0 1.7.9 2.8.9 1.1 2.3 1.1 1.45 0 2.33-1.1.88-1.1.88-2.9v-.2q0-1.1-.4-2-.4-.9-1.12-1.4-.73-.5-1.67-.5-1.4 0-2.3 1.12-.9 1.1-.9 2.88v.2zM217.93 49.9l.03 1.64q.54-.88 1.34-1.34.8-.47 1.77-.47 1.53 0 2.27.87.75.86.76 2.58v6.24h-1.05v-6.25q0-1.27-.54-1.9-.5-.62-1.7-.62-.95 0-1.7.6-.76.62-1.1 1.66v6.53h-1.06v-9.5h1zM232.16 49.9l.03 1.56q.5-.86 1.3-1.3.8-.43 1.76-.43 2.25 0 2.86 1.85.5-.9 1.36-1.36.84-.5 1.87-.5 3.06 0 3.12 3.35v6.35h-1.06v-6.27q0-1.27-.55-1.9-.53-.6-1.76-.6-1.14.02-1.9.74-.8.7-.9 1.72v6.3h-1.05v-6.36q0-1.22-.58-1.82-.56-.6-1.74-.6-1 0-1.7.57t-1.06 1.7v6.5h-1.05v-9.5h1zM250.85 59.6q-1.2 0-2.2-.6-.97-.6-1.52-1.66-.54-1.08-.54-2.4v-.38q0-1.37.5-2.47.54-1.1 1.5-1.74.94-.64 2.05-.64 1.73 0 2.74 1.2 1 1.17 1 3.22v.6h-6.8v.2q0 1.6.94 2.7.94 1.06 2.34 1.06.84 0 1.48-.3.65-.3 1.18-.98l.66.5q-1.17 1.68-3.37 1.68zm-.2-8.97q-1.18 0-2 .87-.8.87-.98 2.34h5.7v-.12q-.04-1.37-.78-2.23-.76-.88-1.95-.88zM262.5 59.42q-.17-.45-.2-1.33-.57.7-1.43 1.1-.85.4-1.8.4-1.38 0-2.23-.78-.85-.76-.85-1.93 0-1.4 1.14-2.2 1.16-.8 3.22-.8h1.9v-1.1q0-1-.62-1.6-.63-.6-1.83-.6-1.1 0-1.8.57-.73.57-.73 1.36h-1.06q0-1.14 1.07-1.97 1.05-.84 2.6-.84 1.58 0 2.5.8.92.8.94 2.22v4.5q0 1.38.3 2.06v.12h-1.12zm-3.32-.76q1.06 0 1.9-.5.82-.52 1.2-1.37v-2.1h-1.88q-1.58 0-2.46.57-.9.55-.9 1.53 0 .8.6 1.34.6.52 1.54.52zM267.12 49.9l.03 1.64q.54-.88 1.34-1.34.8-.47 1.75-.47 1.53 0 2.27.87.75.86.76 2.58v6.24h-1.06v-6.25q0-1.27-.54-1.9-.53-.62-1.7-.62-.97 0-1.73.6-.75.62-1.1 1.66v6.53h-1.05v-9.5h1zM281.7 57q0-.78-.64-1.25-.63-.48-1.9-.74-1.26-.25-1.96-.6t-1.04-.85q-.33-.5-.33-1.2 0-1.14.94-1.87.94-.74 2.4-.74 1.6 0 2.55.8.97.78.97 2.04h-1.07q0-.83-.7-1.4-.7-.54-1.76-.54-1.04 0-1.67.47-.62.46-.62 1.2 0 .7.52 1.1.53.4 1.9.7 1.4.35 2.08.7.7.38 1.03.9.35.5.35 1.26 0 1.2-.97 1.93-.97.7-2.53.7-1.66 0-2.7-.8-1.03-.8-1.03-2.03h1.07q.05.92.76 1.44.72.5 1.9.5 1.1 0 1.77-.47.7-.48.7-1.22zM291.13 47.48v2.43h1.97v.88h-1.97v6.34q0 .8.28 1.2.3.37.98.37.26 0 .85-.1l.04.86q-.4.15-1.12.15-1.08 0-1.57-.62-.5-.63-.5-1.85v-6.35h-1.74v-.86h1.74V47.5h1.06zM296.34 51.52q.52-.85 1.33-1.32.8-.47 1.76-.47 1.53 0 2.28.87.77.86.77 2.58v6.24h-1.04v-6.25q0-1.27-.55-1.9-.52-.62-1.7-.62-.97 0-1.72.6-.75.62-1.1 1.66v6.53h-1.06v-13.5h1.04v5.6zM311.18 59.42q-.16-.45-.2-1.33-.56.7-1.42 1.1-.85.4-1.8.4-1.38 0-2.23-.78-.85-.76-.85-1.93 0-1.4 1.16-2.2 1.16-.8 3.22-.8h1.9v-1.1q0-1-.62-1.6-.63-.6-1.83-.6-1.1 0-1.8.57t-.72 1.36h-1.06q0-1.14 1.07-1.97 1.04-.84 2.6-.84 1.57 0 2.5.8.9.8.93 2.22v4.5q0 1.38.3 2.06v.12h-1.12zm-3.3-.76q1.05 0 1.88-.5.83-.52 1.2-1.37v-2.1h-1.87q-1.6 0-2.48.57-.9.55-.9 1.53 0 .8.6 1.34.6.52 1.54.52zM316.44 47.48v2.43h1.97v.88h-1.95v6.34q0 .8.28 1.2.3.37.96.37.25 0 .84-.1l.04.86q-.4.15-1.12.15-1.08 0-1.57-.62-.5-.63-.5-1.85v-6.35h-1.75v-.86h1.74V47.5h1.05zM328.02 57.9l2.78-8h1.13l-4.06 11.14-.2.5q-.8 1.72-2.43 1.72-.38 0-.8-.12l-.02-.87.55.05q.77 0 1.25-.4.48-.36.8-1.3l.48-1.28-3.6-9.43h1.17l2.95 8zM332.83 54.52q0-1.37.53-2.47t1.5-1.7q.97-.62 2.2-.62 1.9 0 3.08 1.34 1.18 1.33 1.18 3.52v.2q0 1.4-.54 2.5-.52 1.1-1.5 1.7-.96.6-2.2.6-1.9 0-3.07-1.34-1.16-1.34-1.16-3.54v-.2zm1.05.3q0 1.7.88 2.8.9 1.1 2.32 1.1 1.43 0 2.3-1.1.9-1.1.9-2.9v-.2q0-1.1-.4-2-.42-.9-1.14-1.4-.73-.5-1.67-.5-1.4 0-2.3 1.12-.9 1.1-.9 2.88v.2zM349.6 58.22q-.94 1.38-3.02 1.38-1.52 0-2.3-.88-.8-.9-.82-2.62v-6.2h1.04v6.07q0 2.7 2.2 2.7 2.3 0 2.9-1.88v-6.9h1.05v9.5h-1.02l-.02-1.2zM357.77 50.8q-.33-.05-.7-.05-1 0-1.68.55-.7.54-1 1.6v6.52h-1.04v-9.5h1.03v1.5q.85-1.7 2.7-1.7.43 0 .7.13l-.04.96zM0 79.52q0-1.37.53-2.47t1.5-1.7q.98-.62 2.2-.62 1.9 0 3.08 1.34 1.2 1.33 1.2 3.52v.2q0 1.4-.54 2.5-.52 1.1-1.5 1.7-.96.6-2.2.6-1.9 0-3.07-1.34Q0 81.93 0 79.74v-.22zm1.05.3q0 1.7.88 2.8.9 1.1 2.32 1.1 1.43 0 2.3-1.1.9-1.1.9-2.9v-.2q0-1.1-.4-2-.4-.9-1.14-1.4-.7-.5-1.65-.5-1.4 0-2.3 1.12-.9 1.1-.9 2.88v.2zM15.06 75.8q-.33-.05-.7-.05-1 0-1.68.55-.67.54-.96 1.6v6.52h-1.05v-9.5h1.03l.02 1.5q.83-1.7 2.68-1.7.44 0 .7.13l-.04.96zM16.12 79.58q0-2.22.98-3.53 1-1.32 2.7-1.32 1.92 0 2.93 1.52v-5.33h1.04v13.5h-.98l-.06-1.27q-1 1.45-2.97 1.45-1.65 0-2.66-1.32-1-1.33-1-3.58v-.12zm1.06.18q0 1.82.73 2.88.75 1.04 2.08 1.04 1.94 0 2.76-1.7V77.5q-.82-1.85-2.74-1.85-1.34 0-2.08 1.04-.74 1.02-.74 3.05zM30.24 84.6q-1.2 0-2.2-.6-.97-.6-1.5-1.66-.56-1.08-.56-2.4v-.38q0-1.37.53-2.47.55-1.1 1.5-1.74.95-.64 2.06-.64 1.73 0 2.74 1.2 1 1.17 1 3.22v.6h-6.77v.2q0 1.6.92 2.7.93 1.06 2.34 1.06.82 0 1.46-.3.65-.3 1.18-.98l.66.5q-1.15 1.68-3.36 1.68zm-.2-8.97q-1.18 0-2 .87-.8.87-.98 2.34h5.7v-.12q-.04-1.37-.78-2.23-.74-.88-1.93-.88zM40.27 75.8q-.33-.05-.7-.05-1 0-1.68.55-.7.54-1 1.6v6.52h-1.03v-9.5h1.02v1.5q.85-1.7 2.7-1.7.43 0 .7.13l-.04.96zM48.6 82.23l.15.82.2-.86 2.3-7.3h.9l2.25 7.22.25 1 .2-.92 1.95-7.3h1.1l-2.77 9.52h-.9l-2.44-7.54-.14-.52-.1.53-2.4 7.5h-.9l-2.77-9.5h1.07l2.02 7.3zM61.07 84.42H60v-9.5h1.07v9.5zm-1.24-12.26q0-.3.2-.5.18-.2.52-.2t.53.2q.2.2.2.5t-.2.5q-.2.2-.53.2t-.53-.2-.2-.5zM65.1 84.42h-1.05v-13.5h1.06v13.5zM69.15 84.42H68.1v-13.5h1.05v13.5zM75.83 79.52q0-1.37.53-2.47.54-1.1 1.5-1.7.98-.62 2.2-.62 1.9 0 3.08 1.34 1.18 1.33 1.18 3.52v.2q0 1.4-.53 2.5-.55 1.1-1.5 1.7-.98.6-2.2.6-1.9 0-3.1-1.34-1.18-1.34-1.18-3.54v-.2zm1.06.3q0 1.7.86 2.8.88 1.1 2.32 1.1 1.4 0 2.3-1.1.88-1.1.88-2.9v-.2q0-1.1-.4-2-.4-.9-1.14-1.4-.73-.5-1.67-.5-1.4 0-2.3 1.12-.88 1.1-.88 2.88v.2zM94.16 79.76q0 2.23-1 3.54-.97 1.3-2.63 1.3-2 0-3-1.48l-.05 1.3h-1v-13.5h1.06v5.37q1-1.58 2.97-1.58 1.7 0 2.68 1.3 1 1.28 1 3.57v.15zm-1.06-.18q0-1.88-.73-2.9-.73-1.03-2.05-1.03-1 0-1.72.5-.7.5-1.06 1.45v4.3q.8 1.78 2.8 1.78 1.3 0 2.02-1.03.74-1.02.74-3.07zM98.12 72.48v2.43h1.97v.88h-2v6.34q0 .8.28 1.2.3.37.96.37.26 0 .85-.1l.05.86q-.42.15-1.13.15-1.08 0-1.57-.62-.5-.63-.5-1.85v-6.35H95.3v-.86h1.76V72.5h1.05zM108.3 84.42q-.17-.45-.2-1.33-.57.7-1.43 1.1-.85.4-1.8.4-1.38 0-2.23-.78-.85-.76-.85-1.93 0-1.4 1.14-2.2 1.16-.8 3.22-.8h1.9v-1.1q0-1-.62-1.6-.63-.6-1.83-.6-1.1 0-1.8.57t-.73 1.36H102q0-1.14 1.07-1.97 1.05-.84 2.6-.84 1.58 0 2.5.8.92.8.94 2.22v4.5q0 1.38.3 2.06v.12h-1.12zm-3.32-.76q1.06 0 1.9-.5.82-.52 1.2-1.37v-2.1h-1.88q-1.58 0-2.46.57-.9.55-.9 1.53 0 .8.6 1.34.6.52 1.54.52zM113.1 84.42h-1.06v-9.5h1.06v9.5zm-1.24-12.26q0-.3.2-.5t.52-.2q.33 0 .53.2t.2.5-.2.5q-.2.2-.5.2-.34 0-.54-.2t-.2-.5zM116.97 74.9l.03 1.64q.54-.88 1.34-1.34.8-.47 1.77-.47 1.55 0 2.3.87.74.86.75 2.58v6.24h-1.05v-6.25q-.02-1.27-.55-1.9-.53-.62-1.7-.62-.97 0-1.73.6-.75.62-1.1 1.66v6.53h-1.05v-9.5h1zM131.28 76.52q.52-.85 1.33-1.32.8-.47 1.78-.47 1.53 0 2.28.87.75.86.76 2.58v6.24h-1.04v-6.25q0-1.27-.55-1.9-.5-.62-1.68-.62-.98 0-1.73.6-.76.62-1.12 1.66v6.53h-1.05v-13.5h1.05v5.6zM141.3 84.42h-1.07v-9.5h1.06v9.5zm-1.25-12.26q0-.3.2-.5t.52-.2.53.2q.2.2.2.5t-.2.5q-.2.2-.53.2t-.53-.2-.2-.5zM143.74 79.58q0-2.24.98-3.54 1-1.3 2.7-1.3 1.94 0 2.95 1.54l.05-1.37h.98v9.34q0 1.83-1.03 2.9t-2.78 1.08q-1 0-1.9-.44-.9-.44-1.43-1.18l.58-.63q1.12 1.37 2.66 1.37 1.33 0 2.06-.78.74-.78.77-2.16v-1.2q-1 1.42-2.94 1.42-1.67 0-2.67-1.32t-1-3.56v-.14zm1.06.18q0 1.82.73 2.88.73 1.04 2.06 1.04 1.92 0 2.73-1.74v-4.42q-.37-.9-1.06-1.4-.7-.47-1.67-.47-1.32 0-2.06 1.04-.74 1.02-.74 3.05zM155.2 76.52q.5-.85 1.32-1.32.8-.47 1.76-.47 1.53 0 2.28.87.75.86.76 2.58v6.24h-1.05v-6.25q0-1.27-.55-1.9-.52-.62-1.7-.62-.97 0-1.72.6-.75.62-1.1 1.66v6.53h-1.06v-13.5h1.05v5.6zM167.7 84.6q-1.2 0-2.2-.6-.96-.6-1.5-1.66-.55-1.08-.55-2.4v-.38q0-1.37.52-2.47.54-1.1 1.5-1.74.94-.64 2.05-.64 1.73 0 2.74 1.2 1.02 1.17 1.02 3.22v.6h-6.8v.2q0 1.6.93 2.7.96 1.06 2.36 1.06.85 0 1.5-.3.64-.3 1.17-.98l.66.5q-1.18 1.68-3.38 1.68zm-.18-8.97q-1.2 0-2 .87-.82.87-1 2.34h5.7v-.12q-.03-1.37-.77-2.23-.74-.88-1.93-.88zM177.73 75.8q-.33-.05-.7-.05-1 0-1.68.55-.68.54-.97 1.6v6.52h-1.05v-9.5h1.03l.02 1.5q.84-1.7 2.68-1.7.44 0 .7.13l-.03.96zM191.43 79.76q0 2.23-1 3.54-.97 1.3-2.62 1.3-1.93 0-2.97-1.38v4.86h-1.05V74.9h.98l.05 1.36q1.04-1.53 3-1.53 1.7 0 2.66 1.3.98 1.3.98 3.58v.17zm-1.06-.18q0-1.82-.74-2.88t-2.1-1.05q-.95 0-1.65.46-.7.5-1.06 1.38v4.56q.38.82 1.08 1.25.7.42 1.66.42 1.33 0 2.07-1.05.74-1.06.74-3.07zM198.16 75.8q-.33-.05-.7-.05-1 0-1.68.55-.68.54-.97 1.6v6.52h-1.03v-9.5h1.03v1.5q.85-1.7 2.7-1.7.43 0 .7.13l-.04.96zM201 84.42h-1.07v-9.5H201v9.5zm-1.25-12.26q0-.3.2-.5t.52-.2q.33 0 .53.2t.2.5-.2.5q-.2.2-.53.2t-.53-.2-.2-.5zM203.27 79.52q0-1.37.53-2.47t1.5-1.7q.97-.62 2.2-.62 1.9 0 3.08 1.34 1.18 1.33 1.18 3.52v.2q0 1.4-.54 2.5-.52 1.1-1.5 1.7-.96.6-2.2.6-1.9 0-3.07-1.34-1.18-1.34-1.18-3.54v-.2zm1.05.3q0 1.7.88 2.8.9 1.1 2.32 1.1 1.43 0 2.3-1.1.9-1.1.9-2.9v-.2q0-1.1-.4-2-.42-.9-1.14-1.4-.73-.5-1.67-.5-1.4 0-2.3 1.12-.87 1.1-.87 2.88v.2zM218.34 75.8q-.33-.05-.7-.05-1 0-1.68.55-.68.54-.97 1.6v6.52h-1.07v-9.5h1.03l.02 1.5q.83-1.7 2.67-1.7.44 0 .7.13l-.03.96zM221.17 84.42h-1.06v-9.5h1.08v9.5zm-1.24-12.26q0-.3.2-.5t.52-.2.53.2q.2.2.2.5t-.2.5q-.2.2-.53.2t-.53-.2-.2-.5zM225.67 72.48v2.43h1.97v.88h-1.97v6.34q0 .8.28 1.2.3.37.96.37.28 0 .87-.1l.04.86q-.4.15-1.1.15-1.1 0-1.58-.62-.5-.63-.5-1.85v-6.35h-1.73v-.86h1.73V72.5h1.07zM232.85 82.9l2.78-8h1.13l-4.06 11.14-.2.5q-.8 1.72-2.43 1.72-.38 0-.8-.12l-.02-.87.55.05q.77 0 1.25-.4.48-.36.8-1.3l.48-1.28-3.6-9.43h1.17l2.95 8zM242.2 79.52q0-1.37.52-2.47.53-1.1 1.5-1.7.97-.62 2.2-.62 1.9 0 3.08 1.34 1.18 1.33 1.18 3.52v.2q0 1.4-.54 2.5-.52 1.1-1.5 1.7-.96.6-2.2.6-1.9 0-3.07-1.34-1.18-1.34-1.18-3.54v-.2zm1.04.3q0 1.7.88 2.8.9 1.1 2.32 1.1 1.43 0 2.3-1.1.9-1.1.9-2.9v-.2q0-1.1-.4-2-.42-.9-1.14-1.4-.73-.5-1.67-.5-1.4 0-2.3 1.12-.9 1.1-.9 2.88v.2zM255.68 82.97l2.9-8.06h1.07l-3.54 9.53h-.83l-3.57-9.5h1.07l2.92 8.05zM264.95 84.6q-1.2 0-2.2-.6-.97-.6-1.52-1.66-.54-1.08-.54-2.4v-.38q0-1.37.5-2.47.54-1.1 1.5-1.74.94-.64 2.05-.64 1.73 0 2.74 1.2 1 1.17 1 3.22v.6h-6.8v.2q0 1.6.94 2.7.94 1.06 2.34 1.06.84 0 1.48-.3.65-.3 1.18-.98l.66.5q-1.17 1.68-3.37 1.68zm-.2-8.97q-1.18 0-2 .87-.8.87-.98 2.34h5.7v-.12q-.04-1.37-.78-2.23-.76-.88-1.95-.88zM274.98 75.8q-.33-.05-.7-.05-1 0-1.68.55-.68.54-.97 1.6v6.52h-1.05v-9.5h1.03l.04 1.5q.84-1.7 2.68-1.7.45 0 .7.13l-.02.96zM280.44 79.52q0-1.37.53-2.47t1.5-1.7q.97-.62 2.2-.62 1.9 0 3.08 1.34 1.18 1.33 1.18 3.52v.2q0 1.4-.54 2.5t-1.5 1.7q-.98.6-2.2.6-1.9 0-3.1-1.34-1.17-1.34-1.17-3.54v-.2zm1.05.3q0 1.7.86 2.8.9 1.1 2.32 1.1t2.3-1.1q.88-1.1.88-2.9v-.2q0-1.1-.4-2-.4-.9-1.13-1.4-.73-.5-1.67-.5-1.4 0-2.3 1.12-.9 1.1-.9 2.88v.2zM292.75 72.48v2.43h1.97v.88h-1.97v6.34q0 .8.28 1.2.3.37.96.37.24 0 .83-.1l.04.86q-.4.15-1.12.15-1.08 0-1.57-.62-.5-.63-.5-1.85v-6.35h-1.75v-.86h1.74V72.5h1.05zM297.96 76.52q.52-.85 1.33-1.32.8-.47 1.74-.47 1.53 0 2.28.87.75.86.76 2.58v6.24h-1.06v-6.25q0-1.27-.55-1.9-.53-.62-1.7-.62-.98 0-1.73.6-.75.62-1.1 1.66v6.53h-1.06v-13.5h1.06v5.6zM310.47 84.6q-1.2 0-2.2-.6-.97-.6-1.52-1.66-.54-1.08-.54-2.4v-.38q0-1.37.54-2.47t1.5-1.74q.94-.64 2.05-.64 1.72 0 2.73 1.2 1.02 1.17 1.02 3.22v.6h-6.8v.2q0 1.6.93 2.7.94 1.06 2.34 1.06.86 0 1.5-.3.65-.3 1.18-.98l.66.5q-1.17 1.68-3.37 1.68zm-.2-8.97q-1.18 0-2 .87-.8.87-.98 2.34h5.7v-.12q-.06-1.37-.8-2.23-.74-.88-1.93-.88zM320.5 75.8q-.33-.05-.7-.05-1 0-1.68.55-.68.54-.97 1.6v6.52h-1.05v-9.5h1.03l.02 1.5q.84-1.7 2.68-1.7.44 0 .7.13l-.03.96zM325.97 79.52q0-1.37.53-2.47t1.5-1.7q.97-.62 2.2-.62 1.9 0 3.08 1.34 1.18 1.33 1.18 3.52v.2q0 1.4-.54 2.5-.52 1.1-1.5 1.7-.96.6-2.2.6-1.9 0-3.07-1.34-1.18-1.34-1.18-3.54v-.2zm1.05.3q0 1.7.88 2.8.9 1.1 2.32 1.1 1.43 0 2.3-1.1.9-1.1.9-2.9v-.2q0-1.1-.4-2-.42-.9-1.14-1.4-.73-.5-1.67-.5-1.4 0-2.3 1.12-.87 1.1-.87 2.88v.2zM341.03 75.8q-.33-.05-.7-.05-1 0-1.68.55-.68.54-.97 1.6v6.52h-1.05v-9.5h1.03l.02 1.5q.84-1.7 2.68-1.7.44 0 .7.13l-.03.96zM342.1 79.58q0-2.22.97-3.53 1-1.32 2.7-1.32 1.92 0 2.93 1.52v-5.33h1.04v13.5h-.98l-.04-1.27q-1 1.45-2.97 1.45-1.65 0-2.66-1.32-1-1.33-1-3.58v-.12zm1.05.18q0 1.82.73 2.88.73 1.04 2.06 1.04 1.94 0 2.76-1.7V77.5q-.82-1.85-2.74-1.85-1.33 0-2.07 1.04-.76 1.02-.76 3.05zM356.2 84.6q-1.2 0-2.2-.6-.96-.6-1.5-1.66-.55-1.08-.55-2.4v-.38q0-1.37.52-2.47.54-1.1 1.5-1.74.94-.64 2.05-.64 1.73 0 2.74 1.2 1.02 1.17 1.02 3.22v.6h-6.8v.2q0 1.6.93 2.7.96 1.06 2.36 1.06.85 0 1.5-.3.64-.3 1.17-.98l.66.5q-1.18 1.68-3.38 1.68zm-.18-8.97q-1.2 0-2 .87-.82.87-1 2.34h5.7v-.12q-.03-1.37-.77-2.23-.74-.88-1.93-.88zM366.24 75.8q-.33-.05-.7-.05-1 0-1.68.55-.68.54-.97 1.6v6.52h-1.07v-9.5h1.03l.02 1.5q.83-1.7 2.67-1.7.44 0 .7.13l-.03.96zM373.6 82q0-.78-.64-1.25-.63-.48-1.9-.74-1.26-.25-1.96-.6t-1.04-.85q-.33-.5-.33-1.2 0-1.14.94-1.87.94-.74 2.4-.74 1.6 0 2.55.8.97.78.97 2.04h-1.07q0-.83-.7-1.4-.7-.54-1.76-.54-1.04 0-1.67.47-.62.46-.62 1.2 0 .7.52 1.1.53.4 1.9.7 1.4.35 2.08.7.7.38 1.03.9.35.5.35 1.26 0 1.2-.97 1.93-.97.7-2.53.7-1.66 0-2.7-.8-1.03-.8-1.03-2.03h1.07q.05.92.76 1.44.72.5 1.9.5 1.1 0 1.77-.47.7-.48.7-1.22zM376.9 83.8q0-.32.2-.53.2-.22.55-.22.35 0 .55.22.2.2.2.52 0 .3-.2.5t-.55.2q-.36 0-.56-.2-.2-.2-.2-.5zM2.14 109.42H1.06v-12.8h1.08v12.8zM7 97.48v2.43h1.96v.88H7v6.34q0 .8.28 1.2.3.37.96.37.26 0 .85-.1l.02.86q-.4.15-1.12.15-1.07 0-1.57-.62t-.5-1.85v-6.35H4.2v-.86h1.74V97.5H7zM17.83 107.23l.16.82.2-.86 2.3-7.3h.87l2.26 7.2.25 1 .2-.9 1.94-7.3h1.1l-2.78 9.5h-.9L21 101.88l-.1-.52-.13.53-2.4 7.52h-.9l-2.76-9.5h1.1l2 7.3zM30.3 109.42h-1.05v-9.5h1.05v9.5zm-1.24-12.26q0-.3.2-.5t.53-.2.5.2q.2.2.2.5t-.2.5q-.2.2-.52.2t-.54-.2-.2-.5zM34.35 109.42H33.3v-13.5h1.05v13.5zM38.4 109.42h-1.06v-13.5h1.05v13.5zM53.3 104.76q0 2.22-.98 3.53-.98 1.3-2.64 1.3-2 0-3-1.5l-.05 1.3h-1V95.9h1.06v5.38q1-1.57 2.95-1.57 1.7 0 2.66 1.3 1 1.3 1 3.58v.16zm-1.05-.18q0-1.9-.73-2.9-.73-1.03-2.05-1.03-1.02 0-1.72.5t-1.06 1.45v4.3q.77 1.78 2.77 1.78 1.3 0 2.03-1.03.75-1.03.75-3.07zM59.32 109.6q-1.22 0-2.2-.6-.98-.6-1.52-1.66-.55-1.07-.55-2.4v-.38q0-1.37.53-2.47.54-1.1 1.5-1.74.94-.63 2.04-.63 1.74 0 2.75 1.2 1.02 1.16 1.02 3.2v.6h-6.8v.2q0 1.62.9 2.7.94 1.07 2.35 1.07.84 0 1.5-.3.64-.3 1.16-.98l.67.5q-1.16 1.68-3.36 1.68zm-.2-8.96q-1.18 0-2 .87-.8.9-.98 2.35h5.7v-.1q-.04-1.38-.78-2.24-.74-.85-1.94-.85zM70.52 109.42h-1.05v-13.5h1.05v13.5zM74.57 109.42H73.5v-9.5h1.07v9.5zm-1.24-12.26q0-.3.2-.5.18-.2.52-.2t.53.2q.2.2.2.5t-.2.5q-.2.2-.53.2t-.53-.2-.2-.5zM83.13 107q0-.78-.64-1.26-.64-.47-1.9-.74-1.27-.27-1.97-.6-.7-.36-1.04-.86-.35-.5-.35-1.22 0-1.12.95-1.85.95-.74 2.4-.74 1.6 0 2.56.8.97.77.97 2.04h-1.06q0-.83-.7-1.4-.7-.54-1.76-.54-1 0-1.65.46-.62.44-.62 1.2 0 .7.52 1.1.53.37 1.9.7 1.4.32 2.08.7.7.36 1.03.9.33.5.33 1.24 0 1.2-.98 1.92-.96.72-2.53.72-1.67 0-2.7-.8-1.03-.82-1.03-2.05H78q.06.93.78 1.45.72.5 1.9.5 1.1 0 1.77-.48.68-.48.68-1.22zM88.17 97.48v2.43h1.97v.88h-1.97v6.34q0 .8.28 1.2.3.37.96.37.28 0 .87-.1l.05.86q-.4.15-1.12.15-1.08 0-1.57-.62-.48-.63-.48-1.85v-6.35H85.4v-.86h1.75V97.5h1.05zM96.02 109.6q-1.2 0-2.2-.6-.97-.6-1.52-1.66-.54-1.07-.54-2.4v-.38q0-1.37.53-2.47.5-1.1 1.46-1.74.95-.63 2.06-.63 1.73 0 2.74 1.2 1.02 1.16 1.02 3.2v.6h-6.8v.2q0 1.62.93 2.7.94 1.07 2.34 1.07.85 0 1.5-.3.64-.3 1.17-.98l.67.5Q98.2 109.6 96 109.6zm-.2-8.96q-1.18 0-2 .87-.8.9-.98 2.35h5.7v-.1q-.04-1.38-.78-2.24-.74-.85-1.93-.85zM101.23 104.58q0-2.2.98-3.52 1-1.32 2.7-1.32 1.94 0 2.95 1.52v-5.34h1.04v13.5h-1l-.03-1.26q-1 1.44-2.97 1.44-1.66 0-2.67-1.32-1-1.33-1-3.58v-.12zm1.06.18q0 1.82.7 2.88.74 1.04 2.07 1.04 1.94 0 2.76-1.7v-4.47q-.82-1.84-2.74-1.84-1.34 0-2.08 1.05-.74 1.04-.74 3.07zM122.07 109.42q-.16-.45-.2-1.33-.56.7-1.42 1.1-.85.4-1.8.4-1.38 0-2.23-.78-.85-.76-.85-1.93 0-1.4 1.16-2.2 1.16-.8 3.22-.8h1.9v-1.1q0-1-.62-1.6-.63-.6-1.83-.6-1.1 0-1.82.57t-.72 1.36h-1.06q0-1.14 1.06-1.97 1.05-.84 2.6-.84 1.58 0 2.5.8.92.8.94 2.22v4.5q0 1.38.3 2.06v.12h-1.13zm-3.3-.76q1.05 0 1.88-.5.83-.52 1.2-1.37v-2.1H120q-1.58 0-2.46.57-.9.55-.9 1.53 0 .8.6 1.34.6.52 1.54.52zM127.34 97.48v2.43h1.97v.88h-1.95v6.34q0 .8.28 1.2.3.37.96.37.25 0 .84-.1l.04.86q-.4.15-1.12.15-1.08 0-1.57-.62-.5-.63-.5-1.85v-6.35h-1.75v-.86h1.74V97.5h1.05zM137.53 97.48v2.43h1.97v.88h-1.97v6.34q0 .8.28 1.2.3.37.98.37.26 0 .85-.1l.04.86q-.4.15-1.12.15-1.08 0-1.57-.62-.5-.63-.5-1.85v-6.35h-1.74v-.86h1.74V97.5h1.06zM142.74 101.52q.52-.85 1.33-1.32.8-.46 1.76-.46 1.53 0 2.28.86.77.86.78 2.58v6.24h-1.05v-6.25q0-1.27-.55-1.9-.52-.62-1.7-.62-.97 0-1.72.62-.75.6-1.1 1.64v6.53h-1.06v-13.5h1.04v5.6zM155.26 109.6q-1.2 0-2.2-.6-.97-.6-1.52-1.66-.54-1.07-.54-2.4v-.38q0-1.37.52-2.47.54-1.1 1.5-1.74.94-.63 2.05-.63 1.73 0 2.74 1.2 1.04 1.16 1.04 3.2v.6h-6.8v.2q0 1.62.93 2.7.94 1.07 2.34 1.07.86 0 1.5-.3.65-.3 1.18-.98l.66.5q-1.17 1.68-3.37 1.68zm-.2-8.96q-1.18 0-2 .87-.8.9-.98 2.35h5.7v-.1q-.04-1.38-.78-2.24-.74-.85-1.93-.85zM166.92 97.48v2.43h1.97v.88h-2v6.34q0 .8.3 1.2.3.37.95.37.26 0 .85-.1l.05.86q-.4.15-1.12.15-1.08 0-1.57-.62-.5-.63-.5-1.85v-6.35h-1.74v-.86h1.74V97.5h1.06zM170.33 104.52q0-1.37.53-2.47t1.5-1.7q.97-.62 2.2-.62 1.9 0 3.08 1.34 1.18 1.32 1.18 3.52v.2q0 1.4-.54 2.5-.52 1.1-1.5 1.7-.96.6-2.2.6-1.9 0-3.07-1.35-1.16-1.33-1.16-3.53v-.2zm1.05.3q0 1.7.88 2.8.9 1.08 2.32 1.08 1.43 0 2.3-1.1.9-1.08.9-2.88v-.2q0-1.1-.4-2-.42-.9-1.14-1.4-.73-.5-1.67-.5-1.4 0-2.3 1.1-.9 1.1-.9 2.9v.2zM188.65 104.76q0 2.22-1 3.53-.97 1.3-2.62 1.3-1.95 0-3-1.4v4.86H181V99.9h.97l.05 1.35q1.03-1.52 2.98-1.52 1.7 0 2.67 1.3.98 1.3.98 3.58v.17zm-1.06-.18q0-1.82-.76-2.88-.75-1.05-2.1-1.05-.95 0-1.65.46-.7.5-1.07 1.38v4.56q.38.8 1.08 1.25.7.42 1.67.42 1.33 0 2.07-1.05.74-1.06.74-3.07zM194.8 104.52q0-1.37.53-2.47t1.5-1.7q.97-.62 2.2-.62 1.9 0 3.08 1.34 1.2 1.32 1.2 3.52v.2q0 1.4-.54 2.5-.52 1.1-1.5 1.7-.96.6-2.2.6-1.9 0-3.07-1.35-1.2-1.33-1.2-3.53v-.2zm1.05.3q0 1.7.88 2.8.9 1.08 2.32 1.08 1.43 0 2.3-1.1.9-1.08.9-2.88v-.2q0-1.1-.4-2-.42-.9-1.14-1.4-.7-.5-1.65-.5-1.4 0-2.3 1.1-.9 1.1-.9 2.9v.2zM206.23 109.42v-8.65h-1.57v-.86h1.57v-1.13q0-1.46.74-2.24.74-.78 2.07-.78.6 0 1.12.14l-.08.87q-.44-.1-.96-.1-.87 0-1.35.54-.5.55-.5 1.54v1.18h2.28v.87h-2.27v8.64h-1.05zM217.48 97.48v2.43h1.97v.88h-1.97v6.34q0 .8.28 1.2.3.37.96.37.26 0 .85-.1l.04.86q-.4.15-1.1.15-1.1 0-1.57-.62-.5-.63-.5-1.85v-6.35h-1.74v-.86h1.73V97.5h1.06zM222.7 101.52q.5-.85 1.32-1.32.8-.46 1.76-.46 1.53 0 2.28.86.75.86.76 2.58v6.24h-1.05v-6.25q0-1.27-.55-1.9-.52-.62-1.7-.62-.97 0-1.72.62-.75.6-1.1 1.64v6.53h-1.06v-13.5h1.05v5.6zM235.2 109.6q-1.2 0-2.2-.6-.96-.6-1.5-1.66-.55-1.07-.55-2.4v-.38q0-1.37.52-2.47.54-1.1 1.5-1.74.94-.63 2.05-.63 1.73 0 2.74 1.2 1.02 1.16 1.02 3.2v.6h-6.8v.2q0 1.62.93 2.7.96 1.07 2.36 1.07.85 0 1.5-.3.64-.3 1.17-.98l.66.5q-1.18 1.68-3.38 1.68zm-.18-8.96q-1.2 0-2 .87-.82.9-1 2.35h5.7v-.1q-.03-1.38-.77-2.24-.74-.85-1.93-.85zM244.8 104.58q0-2.23 1-3.53 1-1.3 2.7-1.3 1.93 0 2.93 1.46l.05-1.3h.98v13.2h-1.05v-4.85q-1.02 1.36-2.9 1.36-1.68 0-2.68-1.3t-1-3.57v-.14zm1.07.18q0 1.85.74 2.9.77 1.05 2.1 1.05 1.9 0 2.72-1.62v-4.66q-.4-.84-1.1-1.3-.68-.47-1.6-.47-1.33 0-2.08 1.06-.75 1.04-.75 3.07zM261.4 108.22q-.94 1.38-3.02 1.38-1.52 0-2.3-.88-.8-.9-.82-2.62v-6.2h1.04v6.07q0 2.72 2.2 2.72 2.3 0 2.9-1.9v-6.9h1.05v9.5h-1.02l-.02-1.2zM268.85 109.6q-1.2 0-2.2-.6-.97-.6-1.52-1.66-.54-1.07-.54-2.4v-.38q0-1.37.5-2.47.54-1.1 1.5-1.74.94-.63 2.05-.63 1.73 0 2.74 1.2 1 1.16 1 3.2v.6h-6.8v.2q0 1.62.94 2.7.94 1.07 2.34 1.07.84 0 1.48-.3.65-.3 1.18-.98l.66.5q-1.17 1.68-3.37 1.68zm-.2-8.96q-1.18 0-2 .87-.8.9-.98 2.35h5.7v-.1q-.04-1.38-.78-2.24-.76-.85-1.95-.85zM280.6 108.22q-.95 1.38-3.03 1.38-1.52 0-2.3-.88-.8-.9-.82-2.62v-6.2h1.04v6.07q0 2.72 2.2 2.72 2.27 0 2.87-1.9v-6.9h1.06v9.5h-1.02v-1.2zM288.04 109.6q-1.2 0-2.2-.6-.97-.6-1.52-1.66-.54-1.07-.54-2.4v-.38q0-1.37.52-2.47.54-1.1 1.5-1.74.94-.63 2.05-.63 1.73 0 2.74 1.2 1 1.16 1 3.2v.6h-6.8v.2q0 1.62.93 2.7.94 1.07 2.34 1.07.85 0 1.5-.3.64-.3 1.17-.98l.66.5q-1.16 1.68-3.36 1.68zm-.2-8.96q-1.18 0-2 .87-.8.9-.98 2.35h5.7v-.1q-.04-1.38-.78-2.24-.74-.85-1.93-.85zM297.5 104.52q0-1.37.52-2.47.53-1.1 1.5-1.7.97-.62 2.2-.62 1.9 0 3.08 1.34 1.18 1.32 1.18 3.52v.2q0 1.4-.54 2.5-.52 1.1-1.5 1.7-.96.6-2.2.6-1.9 0-3.07-1.35-1.18-1.33-1.18-3.53v-.2zm1.04.3q0 1.7.88 2.8.9 1.08 2.32 1.08 1.43 0 2.3-1.1.9-1.08.9-2.88v-.2q0-1.1-.4-2-.42-.9-1.14-1.4-.73-.5-1.67-.5-1.4 0-2.3 1.1-.9 1.1-.9 2.9v.2zM308.92 109.42v-8.65h-1.57v-.86h1.57v-1.13q0-1.46.74-2.24.74-.78 2.07-.78.6 0 1.12.14l-.08.87q-.44-.1-.96-.1-.85 0-1.33.54-.5.55-.5 1.54v1.18h2.28v.87h-2.27v8.64h-1.05zM317.95 104.52q0-1.37.53-2.47t1.5-1.7q.97-.62 2.2-.62 1.9 0 3.08 1.34 1.18 1.32 1.18 3.52v.2q0 1.4-.54 2.5-.52 1.1-1.5 1.7-.96.6-2.2.6-1.9 0-3.07-1.35-1.18-1.33-1.18-3.53v-.2zm1.05.3q0 1.7.88 2.8.9 1.08 2.32 1.08 1.43 0 2.3-1.1.9-1.08.9-2.88v-.2q0-1.1-.4-2-.42-.9-1.14-1.4-.73-.5-1.67-.5-1.43 0-2.3 1.1-.9 1.1-.9 2.9v.2zM334.74 108.22q-.95 1.38-3.03 1.38-1.5 0-2.3-.88-.8-.9-.8-2.62v-6.2h1.04v6.07q0 2.72 2.2 2.72 2.3 0 2.9-1.9v-6.9h1.05v9.5h-1.03l-.02-1.2zM342.9 100.8q-.33-.05-.7-.05-1 0-1.68.55-.68.55-.97 1.6v6.52h-1.05v-9.5h1.03l.02 1.5q.84-1.68 2.68-1.68.44 0 .7.1l-.03.97zM6.58 134.42q-.16-.45-.2-1.33-.55.7-1.4 1.1-.87.4-1.82.4-1.38 0-2.23-.78-.84-.76-.84-1.93 0-1.4 1.13-2.2 1.16-.8 3.22-.8h1.9v-1.1q0-1-.62-1.6-.62-.6-1.83-.6-1.1 0-1.8.57t-.73 1.36H.32q0-1.14 1.05-1.97 1.06-.84 2.6-.84 1.58 0 2.5.8.92.8.95 2.22v4.5q0 1.38.3 2.06v.12H6.57zm-3.3-.76q1.05 0 1.88-.5.83-.52 1.2-1.37v-2.1H4.5q-1.58 0-2.47.57-.9.55-.9 1.53 0 .8.6 1.34.6.52 1.55.52zM13.03 132.97l2.9-8.06H17l-3.54 9.53h-.86l-3.57-9.5h1.1l2.9 8.05zM24.58 134.42q-.16-.45-.2-1.33-.55.7-1.4 1.1-.87.4-1.82.4-1.38 0-2.23-.78-.84-.76-.84-1.93 0-1.4 1.13-2.2 1.16-.8 3.22-.8h1.9v-1.1q0-1-.62-1.6-.62-.6-1.83-.6-1.1 0-1.8.57t-.73 1.36h-1.05q0-1.14 1.05-1.97 1.06-.84 2.6-.84 1.58 0 2.5.8.92.8.95 2.22v4.5q0 1.38.3 2.06v.12h-1.14zm-3.3-.76q1.05 0 1.88-.5.83-.52 1.2-1.37v-2.1H22.5q-1.58 0-2.47.57-.9.55-.9 1.53 0 .8.6 1.34.6.52 1.55.52zM29.4 134.42h-1.06v-9.5h1.05v9.5zm-1.25-12.26q0-.3.2-.5t.52-.2.53.2q.2.2.2.5t-.2.5q-.2.2-.53.2t-.52-.2q-.2-.2-.2-.5zM33.43 134.42h-1.05v-13.5h1.05v13.5zM42.3 134.42q-.16-.45-.2-1.33-.55.7-1.42 1.1-.85.4-1.8.4-1.38 0-2.23-.78-.84-.76-.84-1.93 0-1.4 1.17-2.2 1.16-.8 3.22-.8h1.9v-1.1q0-1-.63-1.6-.63-.6-1.83-.6-1.1 0-1.82.57t-.7 1.36h-1.06q0-1.14 1.05-1.97 1.05-.84 2.6-.84 1.6 0 2.5.8.92.8.95 2.22v4.5q0 1.38.3 2.06v.12H42.3zm-3.3-.76q1.05 0 1.88-.5.83-.52 1.2-1.37v-2.1H40.2q-1.55 0-2.44.57-.9.55-.9 1.53 0 .8.6 1.34.6.52 1.55.52zM53.6 129.76q0 2.22-1 3.53-.98 1.3-2.64 1.3-2 0-3-1.5l-.05 1.3h-.97v-13.5h1.05v5.38q1-1.57 2.97-1.57 1.7 0 2.66 1.3 1 1.3 1 3.58v.16zm-1.07-.18q0-1.9-.73-2.9-.73-1.03-2.05-1.03-1 0-1.72.5-.7.5-1.06 1.45v4.3q.8 1.78 2.8 1.78 1.3 0 2.02-1.03t.72-3.07zM57.1 134.42h-1.06v-13.5h1.05v13.5zM63.64 134.6q-1.2 0-2.2-.6-.97-.6-1.52-1.66-.54-1.07-.54-2.4v-.38q0-1.37.53-2.47.55-1.1 1.5-1.74.95-.63 2.06-.63 1.73 0 2.74 1.2 1 1.16 1 3.2v.6h-6.77v.2q0 1.62.92 2.7.93 1.07 2.34 1.07.82 0 1.46-.3.65-.3 1.18-.98l.66.5q-1.15 1.68-3.36 1.68zm-.2-8.96q-1.18 0-2 .87-.8.9-.98 2.35h5.7v-.1q-.04-1.38-.78-2.24-.74-.85-1.93-.85zM73.1 129.52q0-1.37.52-2.47.53-1.1 1.5-1.7.98-.62 2.2-.62 1.9 0 3.08 1.34 1.18 1.32 1.18 3.52v.2q0 1.4-.54 2.5-.52 1.1-1.5 1.7-.96.6-2.2.6-1.9 0-3.07-1.35-1.18-1.33-1.18-3.53v-.2zm1.04.3q0 1.7.88 2.8.9 1.08 2.32 1.08 1.43 0 2.3-1.1.9-1.08.9-2.88v-.2q0-1.1-.4-2-.4-.9-1.14-1.4-.73-.5-1.67-.5-1.4 0-2.3 1.1-.9 1.1-.9 2.9v.2zM88.15 125.8q-.33-.05-.7-.05-1 0-1.68.55-.67.55-.96 1.6v6.52h-1.03v-9.5h1.03v1.5q.84-1.68 2.7-1.68.43 0 .68.1l-.03.97zM89.2 129.58q0-2.2 1-3.52 1-1.32 2.68-1.32 1.93 0 2.94 1.52v-5.34h1.04v13.5h-.98l-.04-1.26q-1 1.44-2.97 1.44-1.65 0-2.66-1.32-1-1.33-1-3.58v-.12zm1.07.18q0 1.82.73 2.88.73 1.04 2.06 1.04 1.94 0 2.76-1.7v-4.47q-.82-1.84-2.74-1.84-1.33 0-2.07 1.05-.72 1.04-.72 3.07zM103.33 134.6q-1.2 0-2.2-.6-.97-.6-1.52-1.66-.52-1.07-.52-2.4v-.38q0-1.37.52-2.47.53-1.1 1.48-1.74.95-.63 2.06-.63 1.73 0 2.74 1.2 1.02 1.16 1.02 3.2v.6h-6.8v.2q0 1.62.93 2.7.94 1.07 2.34 1.07.85 0 1.5-.3.64-.3 1.17-.98l.66.5q-1.17 1.68-3.37 1.68zm-.2-8.96q-1.18 0-2 .87-.8.9-.98 2.35h5.7v-.1q-.04-1.38-.78-2.24-.74-.85-1.93-.85zM113.36 125.8q-.33-.05-.7-.05-1 0-1.68.55-.68.55-.97 1.6v6.52h-1.03v-9.5H110v1.5q.85-1.68 2.7-1.68.43 0 .7.1l-.04.97zM120.7 132q0-.78-.62-1.26-.63-.47-1.9-.74-1.26-.27-1.96-.6-.7-.36-1.04-.86-.33-.5-.33-1.22 0-1.12.94-1.85.92-.74 2.4-.74 1.6 0 2.53.8.97.77.97 2.04h-1.04q0-.83-.7-1.4-.7-.54-1.76-.54-1.04 0-1.67.46-.63.44-.63 1.2 0 .7.52 1.1.53.37 1.9.7 1.4.32 2.08.7.7.36 1.03.9.33.5.33 1.24 0 1.2-.97 1.92-1 .72-2.55.72-1.66 0-2.7-.8-1.03-.82-1.03-2.05h1.06q.05.93.76 1.45.72.5 1.9.5 1.1 0 1.77-.48.7-.48.7-1.22zM124.02 133.8q0-.32.2-.53.2-.22.55-.22.35 0 .55.22.2.2.2.52 0 .3-.2.5t-.55.2q-.36 0-.56-.2-.17-.2-.17-.5z"/></g><g fill="#69bdf9"><path d="M320.57 165.85q.1-.97-.46-1.68-.54-.72-1.96-1.3-1.43-.56-2.1-1.1-.7-.57-1.03-1.3-.3-.7-.23-1.67.13-1.62 1.23-2.62t2.82-1.17l.34-1.94h1l-.34 1.98q1.5.22 2.24 1.36.75 1.12.6 3h-1.16q.13-1.5-.5-2.42-.62-.9-1.86-.93-1.3-.02-2.2.74-.9.74-1.03 1.97-.15 1.57 1.28 2.42.37.22 1.47.67 1.1.44 1.68.87 1.58 1.16 1.42 3.07-.13 1.63-1.26 2.64t-2.93 1.15l-.32 1.85h-1l.33-1.86q-1.13-.1-1.92-.67-.8-.57-1.15-1.5-.35-.94-.25-2.1h1.17q-.12 1.5.6 2.38.75.87 2.13.9 1.37 0 2.34-.76.96-.77 1.1-2zM336.13 159.56q-1.1 1.4-2.56 2.17-1.45.76-3 .7-1.66-.03-2.86-.98t-1.74-2.55q-.54-1.6-.37-3.5.2-2.14 1.2-3.9 1-1.8 2.6-2.77 1.55-.98 3.44-.95 2.52.06 3.96 1.76t1.53 4.76q.04 1.64-.4 4.35-.9 5.28-3.76 8.07-2.85 2.8-7.24 2.87h-.72l.2-1.54h.58q3.6-.06 5.86-2.15 2.27-2.1 3.3-6.35zm-5.26 1.36q1.67.06 3.16-.95 1.5-1.03 2.38-2.8.2-1.8.2-2.52 0-2.5-.97-3.9-1-1.4-2.85-1.46-1.42-.05-2.6.74-1.15.78-1.92 2.2-.76 1.42-.94 3.06-.15 1.5.22 2.8.38 1.28 1.23 2.05.86.74 2.12.77zM340.25 168.37q.04-.5.4-.86.4-.35.9-.37.53 0 .87.36.33.35.3.9-.04.5-.42.83-.37.32-.88.34-.5 0-.86-.33-.34-.33-.3-.86zM359.5 159.56q-1.1 1.4-2.55 2.17-1.45.76-3 .7-1.66-.03-2.86-.98t-1.78-2.55q-.54-1.6-.37-3.5.22-2.14 1.22-3.9 1-1.8 2.58-2.77 1.56-.98 3.45-.95 2.53.06 3.97 1.76 1.45 1.7 1.54 4.76.06 1.64-.4 4.35-.9 5.28-3.74 8.07-2.85 2.8-7.24 2.87h-.7l.17-1.54h.57q3.6-.06 5.86-2.15 2.28-2.1 3.3-6.35zm-5.25 1.36q1.67.06 3.16-.95 1.5-1.03 2.4-2.8.2-1.8.2-2.52 0-2.5-1-3.9t-2.84-1.46q-1.42-.05-2.6.74-1.15.78-1.92 2.2-.76 1.42-.94 3.06-.17 1.5.2 2.8.38 1.28 1.23 2.05.86.74 2.12.77zM375.8 159.56q-1.1 1.4-2.56 2.17-1.45.76-3 .7-1.66-.03-2.86-.98t-1.76-2.55q-.54-1.6-.37-3.5.22-2.14 1.22-3.9 1-1.8 2.58-2.77 1.56-.98 3.45-.95 2.52.06 3.96 1.76 1.45 1.7 1.54 4.76.04 1.64-.4 4.35-.9 5.28-3.76 8.07-2.85 2.8-7.24 2.87h-.72l.18-1.54h.58q3.6-.06 5.86-2.15 2.27-2.1 3.3-6.35zm-5.26 1.36q1.67.06 3.16-.95 1.5-1.03 2.38-2.8.2-1.8.2-2.52 0-2.5-1-3.9-.98-1.4-2.84-1.46-1.42-.05-2.6.74-1.15.78-1.92 2.2-.76 1.42-.94 3.06-.16 1.5.2 2.8.4 1.28 1.24 2.05.86.74 2.12.77z"/></g></svg>