<svg xmlns="http://www.w3.org/2000/svg" width="380" height="180" viewBox="0 0 380 180.00001"><g fill="#383840"><path d="M11 1.23H6.1v13.2H4.9V1.23H.06V.2H11v1.03zM23.53 8.08q0 1.97-.7 3.45-.66 1.48-1.92 2.28-1.24.83-2.9.83-2.5 0-4-1.78-1.55-1.8-1.55-4.82V6.56q0-1.94.7-3.44.68-1.5 1.94-2.3 1.25-.8 2.9-.8t2.9.78q1.24.8 1.92 2.23.7 1.45.73 3.35v1.7zm-1.2-1.54q0-2.57-1.17-4.02Q20 1.06 17.98 1.06q-1.98 0-3.16 1.47-1.18 1.45-1.18 4.07v1.48q0 2.53 1.18 4.02Q16 13.57 18 13.57q2.04 0 3.18-1.45 1.15-1.47 1.15-4.08v-1.5zM27.77 8.63v5.8h-1.2V.2h4.85q2.2 0 3.5 1.13 1.28 1.14 1.28 3.12 0 2-1.24 3.1-1.23 1.08-3.57 1.08h-3.63zm0-1.02h3.65q1.75 0 2.66-.8.92-.84.92-2.3 0-1.5-.92-2.36-.9-.88-2.58-.9h-3.73V7.6zM46.4 10.58l.43 2.2.54-2.1L50.45.2h1.1l3.03 10.48.53 2.13.5-2.2L58.14.2h1.23l-3.65 14.22h-1.15L51.36 3.3 51 1.9l-.35 1.4-3.3 11.12H46.2L42.55.2h1.23l2.6 10.38zM67 8.5h-4.13v5.92h-1.2V.2h4.6q2.3 0 3.57 1.1t1.28 3.1q0 1.36-.8 2.4t-2.15 1.45l3.55 6.04v.1h-1.28L67 8.5zm-4.13-1.02h3.68q1.52 0 2.44-.86.9-.86.9-2.23 0-1.5-.96-2.35-.96-.83-2.7-.83h-3.38v6.25zM75.85 14.42h-1.2V.2h1.2v14.22zM89.07 1.23H84.2v13.2H83V1.23h-4.86V.2h10.93v1.03zM99.23 7.6h-6.65v5.8h7.65v1.02h-8.85V.2h8.8v1.03h-7.6V6.6h6.65v1zM108.06 8.5h-4.13v5.92h-1.2V.2h4.6q2.3 0 3.57 1.1t1.27 3.1q0 1.36-.8 2.4t-2.14 1.45l3.55 6.04v.1h-1.28l-3.44-5.9zm-4.13-1.02h3.68q1.54 0 2.46-.86.9-.86.9-2.23 0-1.5-.94-2.35-.95-.83-2.68-.83h-3.4v6.25z"/></g><g fill="#929292"><path d="M9.84 47.55H5.46v11.87H4.38V47.55H0v-.93h9.84v.93zM10.2 54.52q0-1.37.54-2.47t1.5-1.7q.98-.62 2.2-.62 1.9 0 3.1 1.34 1.16 1.33 1.16 3.52v.2q0 1.4-.53 2.5t-1.5 1.7q-.96.6-2.2.6-1.9 0-3.08-1.34-1.2-1.34-1.2-3.54v-.2zm1.07.3q0 1.7.88 2.8.88 1.1 2.32 1.1 1.42 0 2.3-1.1.9-1.1.9-2.9v-.2q0-1.1-.42-2-.4-.9-1.13-1.4-.73-.5-1.67-.5-1.4 0-2.3 1.12-.88 1.1-.88 2.88v.2zM28.53 54.76q0 2.23-1 3.54-.97 1.3-2.62 1.3-1.93 0-2.97-1.38v4.86h-1.05V49.9h.98l.05 1.36q1.04-1.53 3-1.53 1.7 0 2.66 1.3.98 1.3.98 3.58v.17zm-1.06-.18q0-1.82-.74-2.88t-2.1-1.05q-.95 0-1.65.46-.7.5-1.06 1.38v4.56q.38.82 1.08 1.25.7.42 1.66.42 1.33 0 2.07-1.05.74-1.06.74-3.07zM37.54 57.23l.16.82.2-.86 2.3-7.3h.9l2.25 7.22.24 1 .2-.92 1.94-7.3h1.1l-2.78 9.52h-.9l-2.44-7.54-.12-.52-.1.53-2.4 7.5h-.9l-2.75-9.5h1.08l2 7.3zM53.23 50.8q-.34-.05-.7-.05-1 0-1.68.55-.68.54-.97 1.6v6.52h-1.05v-9.5h1.03l.02 1.5q.83-1.7 2.68-1.7.44 0 .7.13l-.03.96zM56.06 59.42H55v-9.5h1.06v9.5zm-1.24-12.26q0-.3.2-.5.18-.2.52-.2t.53.2q.2.2.2.5t-.2.5q-.2.2-.53.2t-.53-.2-.17-.5zM60.56 47.48v2.43h1.97v.88h-1.97v6.34q0 .8.28 1.2.3.37.96.37.26 0 .85-.1l.04.86q-.43.15-1.14.15-1.08 0-1.58-.62t-.5-1.85v-6.35h-1.75v-.86h1.75V47.5h1.06zM68.4 59.6q-1.2 0-2.2-.6-.97-.6-1.5-1.66-.56-1.08-.56-2.4v-.38q0-1.37.53-2.47.54-1.1 1.5-1.74.93-.64 2.04-.64 1.75 0 2.76 1.2 1.02 1.17 1.02 3.22v.6H65.2v.2q0 1.6.9 2.7.94 1.06 2.35 1.06.84 0 1.48-.3.65-.3 1.18-.98l.68.5Q70.6 59.6 68.4 59.6zm-.2-8.97q-1.17 0-2 .87-.8.87-.98 2.34h5.7v-.12q-.04-1.37-.77-2.23-.74-.88-1.94-.88zM78.43 50.8q-.33-.05-.7-.05-1 0-1.68.55-.67.54-.96 1.6v6.52h-1.07v-9.5h1.03l.02 1.5q.82-1.7 2.67-1.7.44 0 .7.13l-.04.96zM90.18 57q0-.78-.64-1.25-.62-.48-1.9-.74-1.25-.25-1.96-.6-.7-.35-1.03-.85-.34-.5-.34-1.2 0-1.14.96-1.87.94-.74 2.4-.74 1.6 0 2.56.8.98.78.98 2.04h-1.06q0-.83-.7-1.4-.7-.54-1.76-.54-1.03 0-1.67.47-.62.46-.62 1.2 0 .7.52 1.1.5.4 1.9.7 1.38.35 2.07.7.7.38 1.03.9.33.5.33 1.26 0 1.2-.97 1.93-.97.7-2.54.7-1.66 0-2.7-.8Q84 58 84 56.77h1.05q.06.92.78 1.44.72.5 1.9.5 1.1 0 1.77-.48.68-.48.68-1.22zM97.27 59.6q-1.2 0-2.2-.6-.97-.6-1.52-1.66-.54-1.08-.54-2.4v-.38q0-1.37.54-2.47t1.5-1.74q.94-.64 2.05-.64 1.72 0 2.73 1.2 1.02 1.17 1.02 3.22v.6h-6.8v.2q0 1.6.93 2.7.94 1.06 2.34 1.06.86 0 1.5-.3.65-.3 1.18-.98l.66.5Q99.5 59.6 97.3 59.6zm-.2-8.97q-1.18 0-2 .87-.8.87-.98 2.34h5.7v-.12q-.06-1.37-.8-2.23-.74-.88-1.93-.88zM107.3 50.8q-.34-.05-.72-.05-.98 0-1.67.55-.66.54-.95 1.6v6.52h-1.04v-9.5h1.04v1.5q.85-1.7 2.7-1.7.43 0 .7.13l-.04.96zM112.08 57.97l2.9-8.06h1.08l-3.54 9.53h-.86l-3.57-9.5h1.07l2.9 8.05zM118.95 59.42h-1.05v-9.5h1.05v9.5zm-1.24-12.26q0-.3.2-.5t.54-.2q.34 0 .53.2.2.2.2.5t-.2.5q-.2.2-.53.2t-.52-.2q-.2-.2-.2-.5zM125.33 58.7q1.1 0 1.84-.6.75-.63.8-1.62H129q-.05.87-.56 1.6-.5.7-1.33 1.1-.8.42-1.76.42-1.87 0-2.97-1.3t-1.1-3.5v-.32q0-1.4.5-2.5.5-1.07 1.4-1.66.93-.6 2.16-.6 1.57 0 2.58.95 1.03.93 1.1 2.45h-1q-.08-1.12-.8-1.8-.75-.7-1.87-.7-1.42 0-2.2 1.04-.8 1.03-.8 2.88v.3q0 1.83.8 2.85.78 1 2.2 1zM134.78 59.6q-1.2 0-2.2-.6-.97-.6-1.5-1.66-.56-1.08-.56-2.4v-.38q0-1.37.53-2.47t1.48-1.74q.95-.64 2.06-.64 1.7 0 2.72 1.2 1.02 1.17 1.02 3.22v.6h-6.78v.2q0 1.6.92 2.7.92 1.06 2.33 1.06.85 0 1.5-.3t1.2-.98l.64.5q-1.16 1.68-3.37 1.68zm-.2-8.97q-1.18 0-2 .87-.8.87-.98 2.34h5.7v-.12q-.04-1.37-.78-2.23-.74-.88-1.93-.88zM150.8 59.42q-.15-.45-.2-1.33-.54.7-1.4 1.1-.86.4-1.8.4-1.4 0-2.24-.78-.84-.76-.84-1.93 0-1.4 1.15-2.2 1.16-.8 3.22-.8h1.9v-1.1q0-1-.64-1.6-.62-.6-1.83-.6-1.1 0-1.82.57t-.7 1.36h-1.06q0-1.14 1.05-1.97 1.05-.84 2.6-.84 1.57 0 2.5.8.9.8.94 2.22v4.5q0 1.38.3 2.06v.12h-1.14zm-3.3-.76q1.06 0 1.9-.5.82-.52 1.2-1.37v-2.1h-1.88q-1.57 0-2.46.57-.9.55-.9 1.53 0 .8.6 1.34.6.52 1.55.52zM155.62 59.42h-1.05v-13.5h1.05v13.5zM159.66 59.42h-1.05v-13.5h1.07v13.5zM161.94 54.52q0-1.37.53-2.47.54-1.1 1.5-1.7.98-.62 2.2-.62 1.9 0 3.1 1.34 1.16 1.33 1.16 3.52v.2q0 1.4-.53 2.5t-1.5 1.7q-.96.6-2.2.6-1.9 0-3.08-1.34-1.18-1.34-1.18-3.54v-.2zm1.06.3q0 1.7.88 2.8.88 1.1 2.32 1.1 1.42 0 2.3-1.1.9-1.1.9-2.9v-.2q0-1.1-.42-2-.4-.9-1.13-1.4-.73-.5-1.67-.5-1.4 0-2.3 1.12-.88 1.1-.88 2.88v.2zM174.9 57.23l.15.82.2-.86 2.3-7.3h.9l2.25 7.22.25 1 .2-.92 1.95-7.3h1.1l-2.8 9.52h-.9l-2.43-7.54-.1-.52-.13.53-2.4 7.5h-.9l-2.75-9.5h1.06l2 7.3zM191.88 57q0-.78-.63-1.25-.62-.48-1.9-.74-1.26-.25-1.96-.6t-1.06-.85q-.33-.5-.33-1.2 0-1.14.95-1.87.94-.74 2.4-.74 1.6 0 2.56.8.97.78.97 2.04h-1.05q0-.83-.7-1.4-.7-.54-1.76-.54-1.04 0-1.67.47-.63.46-.63 1.2 0 .7.5 1.1.54.4 1.92.7 1.4.35 2.07.7.7.38 1.02.9.33.5.33 1.26 0 1.2-.98 1.93-.96.7-2.53.7-1.66 0-2.7-.8-1.03-.8-1.03-2.03h1.05q.06.92.77 1.44.72.5 1.9.5 1.1 0 1.78-.47.68-.48.68-1.22zM202.7 57.9l2.78-8h1.13l-4.04 11.14-.2.5q-.8 1.72-2.42 1.72-.38 0-.8-.12l-.02-.87.55.05q.78 0 1.25-.4.48-.36.82-1.3l.46-1.28-3.58-9.43h1.15l2.95 8zM207.5 54.52q0-1.37.54-2.47t1.5-1.7q.98-.62 2.2-.62 1.9 0 3.1 1.34Q216 52.4 216 54.6v.2q0 1.4-.53 2.5t-1.5 1.7q-.96.6-2.2.6-1.9 0-3.08-1.33-1.2-1.34-1.2-3.54v-.2zm1.07.3q0 1.7.88 2.8.88 1.1 2.32 1.1 1.42 0 2.3-1.1.9-1.1.9-2.9v-.2q0-1.1-.42-2-.4-.9-1.13-1.4-.73-.5-1.67-.5-1.4 0-2.3 1.12-.88 1.1-.88 2.88v.2zM224.3 58.22q-.96 1.38-3.04 1.38-1.52 0-2.3-.88-.8-.9-.82-2.62v-6.2h1.05v6.07q0 2.7 2.17 2.7 2.3 0 2.9-1.88v-6.9h1.05v9.5h-1.02v-1.2zM234.08 47.48v2.43h1.97v.88h-1.97v6.34q0 .8.28 1.2.3.37.96.37.27 0 .85-.1l.05.86q-.4.15-1.13.15-1.1 0-1.6-.62-.5-.63-.5-1.85v-6.35h-1.73v-.86h1.75V47.5h1.05zM237.5 54.52q0-1.37.53-2.47.54-1.1 1.5-1.7.98-.62 2.2-.62 1.9 0 3.1 1.34Q246 52.4 246 54.6v.2q0 1.4-.55 2.5-.53 1.1-1.5 1.7-.96.6-2.2.6-1.9 0-3.08-1.34-1.18-1.34-1.18-3.54v-.2zm1.06.3q0 1.7.88 2.8.88 1.1 2.32 1.1 1.42 0 2.3-1.1.9-1.1.9-2.9v-.2q0-1.1-.42-2-.4-.9-1.13-1.4-.7-.5-1.65-.5-1.4 0-2.3 1.12-.88 1.1-.88 2.88v.2zM254.84 57.23l.16.82.2-.86 2.3-7.3h.9l2.25 7.22.25 1 .2-.92 1.95-7.3h1.1l-2.8 9.52h-.88l-2.45-7.54-.1-.52-.13.53-2.4 7.5h-.9l-2.77-9.5h1.08l2 7.3zM265.55 54.52q0-1.37.53-2.47.54-1.1 1.5-1.7.98-.62 2.2-.62 1.9 0 3.1 1.34 1.16 1.33 1.16 3.52v.2q0 1.4-.53 2.5-.5 1.1-1.5 1.7-.94.6-2.2.6-1.87 0-3.06-1.34-1.18-1.34-1.18-3.54v-.2zm1.06.3q0 1.7.9 2.8.88 1.1 2.3 1.1 1.44 0 2.3-1.1.9-1.1.9-2.9v-.2q0-1.1-.4-2-.4-.9-1.13-1.4-.73-.5-1.67-.5-1.42 0-2.3 1.12-.9 1.1-.9 2.88v.2zM280.6 50.8q-.32-.05-.7-.05-.98 0-1.67.55-.68.54-.97 1.6v6.52h-1.04v-9.5h1.03v1.5q.85-1.7 2.7-1.7.43 0 .7.13l-.04.96zM284.53 54.63l-1.2 1.16v3.6h-1.06V45.9h1.06v8.65l1-1.07 3.63-3.6h1.33l-4.06 4.02 4.37 5.5h-1.24l-3.85-4.8zM297.76 57.23l.16.82.2-.86 2.3-7.3h.9l2.25 7.22.25 1 .2-.92 1.95-7.3h1.1l-2.8 9.52h-.88l-2.47-7.54-.1-.52-.13.53-2.4 7.5h-.88l-2.76-9.5h1.08l2 7.3zM310.23 59.42h-1.05v-9.5h1.05v9.5zM309 47.16q0-.3.2-.5.18-.2.5-.2.35 0 .54.2.2.2.2.5t-.2.5q-.2.2-.53.2-.3 0-.5-.2t-.2-.5zM314.73 47.48v2.43h1.97v.88h-1.97v6.34q0 .8.28 1.2.3.37.98.37.27 0 .85-.1l.05.86q-.4.15-1.13.15-1.08 0-1.57-.62-.5-.63-.5-1.85v-6.35h-1.74v-.86h1.75V47.5h1.04zM319.95 51.52q.52-.85 1.33-1.32.8-.47 1.77-.47 1.53 0 2.27.87.75.86.76 2.58v6.24h-1.05v-6.25q0-1.27-.54-1.9-.55-.62-1.7-.62-1 0-1.75.6-.75.62-1.1 1.66v6.53h-1.05v-13.5h1.05v5.6zM3.2 82.23l.15.82.2-.86 2.3-7.3h.9L9 82.13l.25 1 .2-.92 1.95-7.3h1.1l-2.8 9.5h-.9L6.36 76.9l-.1-.53-.13.53-2.4 7.52h-.9L.1 74.92h1.08l2 7.3zM18.88 75.8q-.33-.05-.7-.05-1 0-1.68.55-.68.54-.97 1.6v6.52h-1.05v-9.5h1.03l.04 1.5q.84-1.7 2.68-1.7.45 0 .7.13l-.02.96zM21.7 84.42h-1.05v-9.5h1.06v9.5zm-1.23-12.26q0-.3.2-.5t.52-.2.5.2q.2.2.2.5t-.2.5q-.2.2-.52.2t-.54-.2-.2-.5zM26.2 72.48v2.43h1.98v.88H26.2v6.34q0 .8.3 1.2.28.37.95.37.26 0 .85-.1l.04.86q-.4.15-1.12.15-1.08 0-1.57-.62-.5-.63-.5-1.85v-6.35H23.4v-.86h1.75V72.5h1.06zM34.06 84.6q-1.2 0-2.2-.6-.97-.6-1.52-1.66-.54-1.08-.54-2.4v-.38q0-1.37.52-2.47.54-1.1 1.5-1.74.94-.64 2.04-.64 1.74 0 2.75 1.2 1.04 1.17 1.04 3.22v.6h-6.8v.2q0 1.6.93 2.7.94 1.06 2.34 1.06.86 0 1.5-.3.65-.3 1.17-.98l.66.5q-1.16 1.68-3.36 1.68zm-.2-8.97q-1.18 0-2 .87-.8.87-.98 2.34h5.7v-.12q-.04-1.37-.78-2.23-.74-.88-1.94-.88zM44.1 75.8q-.35-.05-.73-.05-.98 0-1.67.55-.67.54-.96 1.6v6.52H39.7v-9.5h1.02l.02 1.5q.83-1.7 2.68-1.7.44 0 .7.13l-.03.96zM51.43 82q0-.78-.63-1.25-.62-.48-1.9-.74-1.25-.25-1.96-.6-.7-.35-1.03-.85-.32-.5-.32-1.2 0-1.14.94-1.87.95-.74 2.42-.74 1.6 0 2.55.8.96.78.96 2.04H51.4q0-.83-.7-1.4-.7-.54-1.76-.54-1.04 0-1.67.47-.62.46-.62 1.2 0 .7.5 1.1.54.4 1.92.7 1.4.35 2.08.7.7.38 1.02.9.34.5.34 1.26 0 1.2-1 1.93-.94.7-2.5.7-1.67 0-2.7-.8-1.03-.8-1.03-2.03h1.05q.07.92.78 1.44.72.5 1.9.5 1.1 0 1.78-.47.67-.48.67-1.22zM61.52 82.23l.15.82.2-.86 2.3-7.3h.9l2.25 7.22.25 1 .2-.92 1.95-7.3h1.1l-2.77 9.52h-.9l-2.44-7.54-.1-.52-.1.53-2.4 7.5h-.9l-2.77-9.5h1.08l2.03 7.3zM73.86 76.52q.5-.85 1.32-1.32.8-.47 1.77-.47 1.53 0 2.28.87.74.86.75 2.58v6.24h-1.04v-6.25q0-1.27-.55-1.9-.55-.62-1.7-.62-1 0-1.75.6-.74.62-1.1 1.66v6.53H72.8v-13.5h1.06v5.6zM82.1 79.52q0-1.37.53-2.47.54-1.1 1.5-1.7.98-.62 2.2-.62 1.9 0 3.1 1.34 1.17 1.33 1.17 3.52v.2q0 1.4-.54 2.5-.53 1.1-1.5 1.7-.96.6-2.2.6-1.9 0-3.08-1.34-1.17-1.34-1.17-3.54v-.2zm1.06.3q0 1.7.88 2.8.9 1.1 2.32 1.1t2.3-1.1q.9-1.1.9-2.9v-.2q0-1.1-.4-2-.42-.9-1.15-1.4-.7-.5-1.65-.5-1.4 0-2.3 1.12-.88 1.1-.88 2.88v.2zM98.22 76.52q.52-.85 1.33-1.32.8-.47 1.76-.47 1.55 0 2.3.87.75.86.75 2.58v6.24h-1.04v-6.25q0-1.27-.54-1.9-.52-.62-1.7-.62-.97 0-1.72.6-.75.62-1.1 1.66v6.53h-1.06v-13.5h1.05v5.6zM113.05 84.42q-.16-.45-.2-1.33-.55.7-1.4 1.1-.87.4-1.82.4-1.38 0-2.23-.78-.84-.76-.84-1.93 0-1.4 1.15-2.2 1.18-.8 3.24-.8h1.9v-1.1q0-1-.62-1.6-.6-.6-1.82-.6-1.1 0-1.82.57t-.72 1.36h-1.05q0-1.14 1.05-1.97 1.06-.84 2.6-.84 1.58 0 2.5.8.92.8.95 2.22v4.5q0 1.38.28 2.06v.12h-1.13zm-3.3-.76q1.05 0 1.88-.5.83-.52 1.2-1.37v-2.1h-1.87q-1.57 0-2.46.57-.9.55-.9 1.53 0 .8.6 1.34.6.52 1.55.52zM119.5 82.97l2.9-8.06h1.08l-3.55 9.53h-.86l-3.57-9.5h1.1l2.9 8.05zM128.77 84.6q-1.2 0-2.2-.6-.97-.6-1.5-1.66-.56-1.08-.56-2.4v-.38q0-1.37.55-2.47.53-1.1 1.48-1.74.95-.64 2.06-.64 1.72 0 2.73 1.2 1.02 1.17 1.02 3.22v.6h-6.78v.2q0 1.6.92 2.7.92 1.06 2.33 1.06.84 0 1.48-.3.66-.3 1.2-.98l.65.5q-1.16 1.68-3.37 1.68zm-.2-8.97q-1.18 0-2 .87-.8.87-.98 2.34h5.7v-.12q-.06-1.37-.8-2.23-.74-.88-1.93-.88zM140.43 72.48v2.43h1.97v.88h-1.97v6.34q0 .8.28 1.2.3.37.98.37.27 0 .85-.1l.05.86q-.4.15-1.13.15-1.08 0-1.57-.62-.5-.63-.5-1.85v-6.35h-1.74v-.86h1.75V72.5h1.04zM145.64 76.52q.52-.85 1.33-1.32.8-.47 1.77-.47 1.53 0 2.27.87.77.86.78 2.58v6.24h-1.05v-6.25q0-1.27-.54-1.9-.54-.62-1.7-.62-.98 0-1.74.6-.75.62-1.1 1.66v6.53h-1.05v-13.5h1.05v5.6zM158.16 84.6q-1.2 0-2.2-.6-.97-.6-1.5-1.66-.56-1.08-.56-2.4v-.38q0-1.37.53-2.47t1.48-1.74q.97-.64 2.08-.64 1.73 0 2.74 1.2 1.03 1.17 1.03 3.22v.6h-6.78v.2q0 1.6.92 2.7.92 1.06 2.33 1.06.85 0 1.5-.3.64-.3 1.17-.98l.66.5q-1.16 1.68-3.37 1.68zm-.2-8.97q-1.18 0-2 .87-.8.87-.98 2.34h5.7v-.12q-.04-1.37-.78-2.23-.74-.88-1.93-.88zM169.23 76.52q.52-.85 1.33-1.32.8-.47 1.77-.47 1.53 0 2.27.87.75.86.76 2.58v6.24h-1.05v-6.25q0-1.27-.52-1.9-.53-.62-1.7-.62-.97 0-1.73.6-.75.62-1.1 1.66v6.53h-1.05v-13.5h1.03v5.6zM179.24 84.42h-1.05v-9.5h1.03v9.5zM178 72.16q0-.3.2-.5t.52-.2q.34 0 .53.2.2.2.2.5t-.2.5q-.2.2-.53.2t-.52-.2-.2-.5zM181.68 79.58q0-2.24 1-3.54.98-1.3 2.68-1.3 1.94 0 2.95 1.54l.07-1.37h1v9.34q0 1.83-1.04 2.9t-2.8 1.08q-.98 0-1.9-.44-.88-.44-1.4-1.18l.6-.63q1.1 1.37 2.64 1.37 1.32 0 2.06-.78t.76-2.16v-1.2q-1 1.42-2.95 1.42-1.65 0-2.66-1.32t-1-3.56v-.14zm1.07.18q0 1.82.73 2.88.73 1.04 2.05 1.04 1.94 0 2.75-1.74v-4.42q-.37-.9-1.06-1.4-.7-.47-1.67-.47-1.33 0-2.07 1.04-.73 1.02-.73 3.05zM193.14 76.52q.52-.85 1.33-1.32.8-.47 1.77-.47 1.53 0 2.27.87.77.86.78 2.58v6.24h-1.05v-6.25q0-1.27-.54-1.9-.54-.62-1.7-.62-.98 0-1.74.6-.75.62-1.1 1.66v6.53h-1.05v-13.5h1.05v5.6zM205.65 84.6q-1.2 0-2.2-.6-.97-.6-1.5-1.66-.56-1.08-.56-2.4v-.38q0-1.37.5-2.47.54-1.1 1.5-1.74.94-.64 2.05-.64 1.73 0 2.74 1.2 1 1.17 1 3.22v.6h-6.77v.2q0 1.6.92 2.7.93 1.06 2.34 1.06.83 0 1.47-.3.65-.3 1.18-.98l.66.5q-1.15 1.68-3.36 1.68zm-.2-8.97q-1.18 0-2 .87-.8.87-.98 2.34h5.7v-.12q-.04-1.37-.78-2.23-.76-.88-1.95-.88zM216.98 82q0-.78-.63-1.25-.62-.48-1.9-.74-1.26-.25-1.96-.6t-1.06-.85q-.33-.5-.33-1.2 0-1.14.95-1.87.94-.74 2.4-.74 1.6 0 2.56.8.97.78.97 2.04h-1.05q0-.83-.7-1.4-.7-.54-1.76-.54-1.04 0-1.67.47-.63.46-.63 1.2 0 .7.5 1.1.54.4 1.92.7 1.4.35 2.07.7.7.38 1.02.9.33.5.33 1.26 0 1.2-.98 1.93-.96.7-2.53.7-1.66 0-2.7-.8-1.03-.8-1.03-2.03h1.05q.06.92.77 1.44.72.5 1.9.5 1.1 0 1.78-.47.68-.48.68-1.22zM222.03 72.48v2.43H224v.88h-1.97v6.34q0 .8.28 1.2.3.37.98.37.27 0 .85-.1l.05.86q-.4.15-1.13.15-1.08 0-1.57-.62-.5-.63-.5-1.85v-6.35h-1.74v-.86H221V72.5h1.04zM234.1 83.7q1.1 0 1.84-.6.75-.63.8-1.62h1.02q-.04.87-.55 1.6-.5.7-1.3 1.1-.84.42-1.8.42-1.86 0-2.96-1.3t-1.1-3.5v-.32q0-1.4.5-2.5t1.4-1.66q.93-.6 2.16-.6 1.56 0 2.57.95 1.02.93 1.1 2.45h-1.02q-.07-1.12-.8-1.8-.74-.7-1.86-.7-1.44 0-2.23 1.04-.78 1.03-.78 2.88v.3q0 1.83.77 2.85.8 1 2.22 1zM246 83.22q-.96 1.38-3.04 1.38-1.52 0-2.3-.88-.8-.9-.82-2.62v-6.2h1.05v6.07q0 2.7 2.17 2.7 2.3 0 2.9-1.88v-6.9h1.05v9.5H246v-1.2zM255.44 82q0-.78-.63-1.25-.6-.48-1.87-.74-1.27-.25-1.97-.6t-1.04-.85q-.32-.5-.32-1.2 0-1.14.94-1.87.94-.74 2.4-.74 1.6 0 2.56.8.96.78.96 2.04h-1.05q0-.83-.7-1.4-.7-.54-1.76-.54-1.04 0-1.67.47-.62.46-.62 1.2 0 .7.5 1.1.54.4 1.92.7 1.4.35 2.08.7.7.38 1.02.9.34.5.34 1.26 0 1.2-.97 1.93-.96.7-2.53.7-1.67 0-2.7-.8-1.04-.8-1.04-2.03h1.06q.06.92.77 1.44.7.5 1.9.5 1.1 0 1.76-.47.67-.48.67-1.22zM260.5 72.48v2.43h1.96v.88h-1.97v6.34q0 .8.26 1.2.3.37.96.37.27 0 .85-.1l.05.86q-.4.15-1.13.15-1.1 0-1.58-.62-.5-.63-.5-1.85v-6.35h-1.74v-.86h1.74V72.5h1.05zM263.9 79.52q0-1.37.53-2.47.54-1.1 1.5-1.7.98-.62 2.2-.62 1.9 0 3.1 1.34 1.16 1.33 1.16 3.52v.2q0 1.4-.55 2.5-.53 1.1-1.5 1.7-.96.6-2.2.6-1.9 0-3.08-1.34-1.18-1.34-1.18-3.54v-.2zm1.06.3q0 1.7.88 2.8.88 1.1 2.32 1.1 1.42 0 2.3-1.1.9-1.1.9-2.9v-.2q0-1.1-.42-2-.4-.9-1.13-1.4-.7-.5-1.65-.5-1.4 0-2.3 1.12-.88 1.1-.88 2.88v.2zM275.53 74.9l.04 1.56q.53-.86 1.32-1.3.77-.43 1.73-.43 2.25 0 2.86 1.85.5-.9 1.35-1.36.86-.5 1.88-.5 3.06 0 3.12 3.35v6.35h-1.05v-6.27q0-1.27-.54-1.9-.54-.6-1.76-.6-1.14.02-1.92.74-.78.7-.87 1.72v6.3h-1.03v-6.36q0-1.22-.58-1.82-.58-.6-1.75-.6-1 0-1.7.57-.72.57-1.06 1.7v6.5h-1.07v-9.5h1zM294.2 84.6q-1.2 0-2.18-.6-.98-.6-1.52-1.66-.55-1.08-.55-2.4v-.38q0-1.37.53-2.47t1.48-1.74q.95-.64 2.06-.64 1.73 0 2.74 1.2 1.02 1.17 1.02 3.22v.6H291v.2q0 1.6.92 2.7.93 1.06 2.34 1.06.84 0 1.48-.3.65-.3 1.18-.98l.66.5q-1.16 1.68-3.37 1.68zm-.18-8.97q-1.2 0-2 .87t-1 2.34h5.72v-.12q-.05-1.37-.8-2.23-.73-.88-1.92-.88zM304.24 75.8q-.33-.05-.7-.05-1 0-1.68.55-.68.54-.97 1.6v6.52h-1.06v-9.5h1.03v1.5q.85-1.7 2.7-1.7.43 0 .7.13l-.04.96zM311.6 82q0-.78-.64-1.25-.62-.48-1.9-.74-1.26-.25-1.96-.6t-1.04-.85q-.33-.5-.33-1.2 0-1.14.94-1.87.94-.74 2.4-.74 1.6 0 2.56.8.96.78.96 2.04h-1.07q0-.83-.7-1.4-.7-.54-1.76-.54-1.04 0-1.67.47-.6.46-.6 1.2 0 .7.5 1.1.53.4 1.9.7 1.4.35 2.1.7.68.38 1 .9.35.5.35 1.26 0 1.2-.98 1.93-.96.7-2.53.7-1.66 0-2.7-.8-1.03-.8-1.03-2.03h1.08q.06.92.77 1.44.72.5 1.9.5 1.1 0 1.78-.47.67-.48.67-1.22zM314.8 74.76l-.63-.46q.8-1.06.82-2.23v-1.15h1v.9q0 1.82-1.23 2.94zM327 75.8q-.34-.05-.72-.05-.98 0-1.67.55-.66.54-.95 1.6v6.52h-1.04v-9.5h1.04v1.5q.85-1.7 2.7-1.7.43 0 .7.13l-.04.96zM334.3 84.42q-.17-.45-.2-1.33-.56.7-1.42 1.1-.86.4-1.8.4-1.4 0-2.24-.78-.84-.76-.84-1.93 0-1.4 1.15-2.2 1.16-.8 3.22-.8h1.9v-1.1q0-1-.62-1.6-.62-.6-1.83-.6-1.1 0-1.82.57t-.72 1.36h-1.05q0-1.14 1.05-1.97 1.06-.84 2.6-.84 1.58 0 2.5.8.92.8.95 2.22v4.5q0 1.38.3 2.06v.12h-1.14zm-3.3-.76q1.04 0 1.87-.5.83-.52 1.2-1.37v-2.1h-1.87q-1.57 0-2.46.57-.9.55-.9 1.53 0 .8.6 1.34.6.52 1.55.52zM339.55 72.48v2.43h1.97v.88h-1.97v6.34q0 .8.28 1.2.3.37.96.37.25 0 .83-.1l.05.86q-.42.15-1.14.15-1.08 0-1.57-.62-.5-.63-.5-1.85v-6.35h-1.75v-.86h1.75V72.5h1.05zM344.9 84.42h-1.05v-9.5h1.05v9.5zm-1.24-12.26q0-.3.2-.5t.52-.2q.34 0 .53.2.2.2.2.5t-.2.5q-.17.2-.5.2-.34 0-.53-.2t-.2-.5zM348.76 74.9l.04 1.64q.53-.88 1.33-1.34.8-.47 1.77-.47 1.53 0 2.28.87.74.86.75 2.58v6.24h-1.04v-6.25q-.03-1.27-.57-1.9-.53-.62-1.7-.62-.97 0-1.73.6-.73.62-1.1 1.66v6.53h-1.04v-9.5h1zM357.22 79.58q0-2.24 1-3.54.98-1.3 2.68-1.3 1.94 0 2.95 1.54l.05-1.37h1v9.34q0 1.83-1.04 2.9t-2.8 1.08q-.98 0-1.9-.44-.88-.44-1.4-1.18l.6-.63q1.1 1.37 2.64 1.37 1.32 0 2.06-.78t.76-2.16v-1.2q-1 1.42-2.94 1.42-1.65 0-2.65-1.32t-1-3.56v-.14zm1.07.18q0 1.82.7 2.88.74 1.04 2.06 1.04 1.94 0 2.75-1.74v-4.42q-.36-.9-1.05-1.4-.7-.47-1.67-.47-1.34 0-2.08 1.04-.73 1.02-.73 3.05zM367.53 83.8q0-.32.2-.53.2-.22.55-.22t.55.22q.2.2.2.52 0 .3-.2.5t-.55.2-.55-.2q-.2-.2-.2-.5z"/></g><g fill="#69bdf9"><path d="M245.14 168.25q1.73.06 3.05-.95 1.3-1.03 1.75-2.76h1.66q-.43 2.36-2.3 3.8-1.87 1.45-4.25 1.4-1.92-.05-3.23-1.07-1.3-1-1.9-2.8-.56-1.78-.35-4.02l.06-.63q.17-1.54.74-3 .6-1.44 1.56-2.55.96-1.13 2.3-1.78 1.34-.67 3.03-.63 2.43.06 3.86 1.64 1.44 1.6 1.35 4h-1.65q.03-1.82-.96-2.95-.98-1.13-2.68-1.2-1.82-.05-3.2 1.07t-2.1 3.15q-.7 2.03-.67 4.32.06 2.35 1.07 3.62 1 1.26 2.84 1.32zM254.54 161.35q.27-2.3 1.4-4.2 1.15-1.92 2.85-2.92 1.7-1 3.7-.95 1.95.03 3.33 1.08 1.4 1.04 2.02 2.86.64 1.8.44 4l-.04.28q-.44 3.75-2.67 6.02-2.2 2.27-5.3 2.2-2.7-.05-4.3-1.97t-1.56-5.07l.05-.83.03-.5zm1.7.5q-.2 1.74.25 3.22.44 1.47 1.42 2.3.98.84 2.44.88 1.6.03 2.9-.8 1.3-.84 2.16-2.36.85-1.55 1.1-3.4l.04-.5q.26-2.8-.88-4.6-1.14-1.8-3.3-1.84-2.33-.07-4.05 1.82-1.7 1.86-2.08 4.98l-.03.27zM280.6 165.3q.24-2.03-2.46-2.94l-2.52-.75q-3.47-1.15-3.28-3.9.1-1.97 1.82-3.2 1.73-1.24 4.1-1.2 2.33.02 3.78 1.3 1.45 1.28 1.35 3.4h-1.75q.1-1.4-.9-2.3-.96-.9-2.57-.92-1.68 0-2.83.8-1.14.77-1.3 2.06-.2 1.9 2.33 2.65l1.83.52 1 .34q3.3 1.25 3.12 4.06-.12 1.9-1.65 3.14-1.53 1.2-3.94 1.36h-.6q-1.6-.02-2.9-.6-1.28-.6-1.97-1.67-.7-1.07-.6-2.46h1.74q0 1.5 1.03 2.36 1 .87 2.78.9 1.78 0 3-.8t1.4-2.15zM291.6 149.5l-.7 4.07h3.2l-.26 1.43h-3.18l-1.76 10.58-.03.9q0 1.6 1.47 1.65.45 0 1.42-.1l-.07 1.43q-.9.25-1.78.22-1.54-.03-2.24-1.07-.72-1.03-.53-3.03L288.9 155h-2.84l.26-1.42h2.8l.73-4.06h1.74zM310.82 158.58h6.3l-.3 1.64h-6.28l-1.23 7.06h-1.73l1.23-7.06h-6.2l.3-1.64h6.17l1.18-6.83H312l-1.18 6.83zM331.54 157.8l1.7.03q2.2 0 3.74-1.16 1.55-1.16 1.77-3.12.2-1.93-.8-3.07-.97-1.15-2.86-1.2-2.04-.03-3.45 1.17-1.4 1.2-1.76 3.22h-1.7q.32-2.6 2.26-4.26 1.97-1.64 4.7-1.6 2.63.05 4.1 1.7 1.46 1.6 1.22 4.12-.14 1.6-1.25 2.88-1.1 1.3-3.05 2.07 1.6.57 2.42 1.9.82 1.3.67 3.06-.24 2.8-2.25 4.54-2 1.73-4.9 1.67-2.73-.05-4.4-1.73-1.63-1.7-1.42-4.33h1.73q-.18 1.96.96 3.25 1.15 1.3 3.2 1.35 2.2.06 3.66-1.22t1.66-3.43q.18-1.87-.88-3t-3.22-1.25h-.3l-1.85-.03.24-1.5zM348.3 169.7q-1.72-.03-2.9-.9-1.2-.86-1.74-2.52-.54-1.67-.48-3.72l.1-1.58.63-4.16q.7-4.45 2.67-6.77 1.97-2.33 5.15-2.25 2.6.05 3.9 1.9 1.3 1.86 1.2 5.2-.03 1.04-.16 2.02l-.58 3.78q-.78 4.64-2.76 6.9-1.97 2.2-5 2.1zm6.8-16.16q-.3-4.16-3.48-4.26-2.37-.08-3.88 1.83-1.5 1.9-2.05 5.5l-.67 4.14q-.22 1.77-.13 3.15.13 2.1 1.02 3.2.9 1.1 2.48 1.15 2.2.1 3.7-1.65t2.1-5.24l.7-4.5q.3-1.78.2-3.32zM360.88 152.2q.22-1.92 1.5-3.2 1.32-1.3 3.12-1.23 1.68.06 2.66 1.3 1 1.25.87 3.13l-.1.98q-.22 2.06-1.53 3.34-1.3 1.26-3.06 1.2-1.66-.03-2.68-1.28-1-1.26-.88-3.12l.1-1.1zm1.32 1.15q-.1 1.4.5 2.24.6.82 1.7.85 1.2.03 2.05-.84.83-.85 1.04-2.3l.1-1.13q.1-1.4-.5-2.24-.6-.86-1.7-.9-1.17-.02-2.05.88-.87.9-1.04 2.4l-.1 1.04zm7.02 10.86q.22-1.9 1.5-3.16t3.1-1.25q1.7.05 2.7 1.3.97 1.23.84 3.1l-.1 1.14q-.22 1.94-1.54 3.2-1.3 1.27-3.06 1.2-1.68-.02-2.68-1.28-1-1.26-.86-3.12l.1-1.12zm1.3 1.17q-.1 1.38.5 2.24.6.86 1.7.9 1.2.02 2.04-.83.86-.86 1.06-2.33l.12-1.15q.1-1.43-.47-2.27-.57-.83-1.73-.86-1.23-.03-2.1.88-.84.9-1 2.37l-.12 1.06zm-7.53 2.27l-1.1-.77 12.98-16.57 1 .7-12.9 16.64z"/></g></svg>