<svg xmlns="http://www.w3.org/2000/svg" width="380" height="180" viewBox="0 0 380 180.00001"><g fill="#383840"><path d="M2.73 8.63v5.8h-1.2V.2h4.85q2.2 0 3.5 1.13 1.28 1.14 1.28 3.12 0 2-1.24 3.1Q8.7 8.62 6.35 8.62H2.73zm0-1.02h3.65q1.74 0 2.66-.8.92-.84.92-2.3 0-1.5-.92-2.36-.9-.88-2.6-.9h-3.7V7.6zM15.05 13.4h7.02v1.02h-8.23V.2h1.2v13.2zM32.26 10.44H25.8l-1.46 3.98h-1.26L28.46.2h1.14l5.38 14.22h-1.25l-1.47-3.98zm-6.1-1.03h5.72L29.02 1.7l-2.85 7.74zM47.23 12.73q-.63.9-1.97 1.4-1.32.5-2.98.5-1.67 0-2.96-.82-1.3-.8-2.02-2.24-.7-1.47-.72-3.36V6.4q0-2.97 1.5-4.67 1.5-1.72 4-1.72 2.2 0 3.54 1.14 1.34 1.1 1.6 3.08h-1.2q-.27-1.56-1.28-2.36-1-.8-2.64-.8-2 0-3.16 1.4t-1.16 4v1.68q0 1.62.55 2.87.56 1.24 1.58 1.93 1.06.68 2.4.68 1.55 0 2.66-.5.72-.3 1.07-.73V8.7h-3.8V7.66h5v5.06zM52.1 14.42h-1.2V.2h1.2v14.22zM63.82 10.44h-6.46l-1.46 3.98h-1.26L60.02.2h1.14l5.38 14.22H65.3l-1.48-3.98zm-6.1-1.03h5.72L60.6 1.7 57.72 9.4zM73.95 8.5h-4.13v5.92h-1.2V.2h4.6q2.3 0 3.57 1.1t1.26 3.1q0 1.36-.8 2.4T75.1 8.25l3.56 6.04v.1H77.4l-3.45-5.9zm-4.13-1.02h3.7q1.5 0 2.42-.86.92-.86.92-2.23 0-1.5-.96-2.35-.96-.83-2.7-.83h-3.38v6.25zM82.8 14.42h-1.2V.2h1.2v14.22zM94.7 10.92q0-1.18-.83-1.86-.83-.7-3.04-1.3-2.2-.63-3.22-1.37-1.43-1.05-1.43-2.73 0-1.63 1.34-2.65Q88.86 0 90.95 0q1.4 0 2.53.55 1.12.55 1.73 1.53.62.97.62 2.17h-1.2q0-1.45-1-2.33-1-.9-2.68-.9-1.63 0-2.6.74-.97.73-.97 1.9 0 1.08.87 1.77.87.68 2.8 1.2 1.9.52 2.9 1.1.97.55 1.47 1.33t.5 1.84q0 1.68-1.33 2.7-1.34 1.02-3.53 1.02-1.5 0-2.77-.54-1.25-.54-1.9-1.5-.65-.97-.65-2.22h1.2q0 1.5 1.14 2.37 1.12.87 3 .87 1.65 0 2.65-.73t1-1.95zM100.08.2l5.24 12.55L110.58.2h1.6v14.22H111v-6.2l.1-6.34-5.3 12.54h-.92L99.6 1.92l.1 6.27v6.2h-1.2V.2h1.58zM126 8.5h-4.14v5.92h-1.22V.2h4.62q2.28 0 3.56 1.1t1.28 3.1q0 1.36-.8 2.4t-2.15 1.45l3.55 6.04v.1h-1.28L126 8.5zm-4.14-1.02h3.68q1.5 0 2.43-.86.92-.86.92-2.23 0-1.5-.98-2.35-.96-.83-2.7-.83h-3.38v6.25zM141.22 7.6h-6.65v5.8h7.64v1.02h-8.83V.2h8.8v1.03h-7.6V6.6h6.66v1zM145.94 8.63v5.8h-1.2V.2h4.84q2.22 0 3.5 1.13 1.28 1.14 1.28 3.12 0 2-1.24 3.1-1.23 1.08-3.57 1.08h-3.6zm0-1.02h3.64q1.75 0 2.66-.8.92-.84.92-2.3 0-1.5-.92-2.36-.9-.88-2.58-.9h-3.72V7.6zM167.55 8.08q0 1.97-.7 3.45-.66 1.48-1.92 2.28-1.26.83-2.9.83-2.5 0-4.03-1.78-1.54-1.8-1.54-4.82V6.56q0-1.94.7-3.44.68-1.5 1.94-2.3 1.26-.8 2.9-.8t2.9.78q1.25.8 1.93 2.23.7 1.45.72 3.35v1.7zm-1.2-1.54q0-2.57-1.17-4.02-1.16-1.46-3.18-1.46-1.98 0-3.17 1.47-1.17 1.45-1.17 4.07v1.48q0 2.53 1.17 4.02 1.18 1.47 3.2 1.47 2.03 0 3.17-1.45 1.14-1.47 1.14-4.08v-1.5zM175.9 8.5h-4.12v5.92h-1.22V.2h4.62q2.28 0 3.56 1.1t1.28 3.1q0 1.36-.8 2.4t-2.15 1.45l3.55 6.04v.1h-1.28l-3.44-5.9zm-4.12-1.02h3.68q1.5 0 2.43-.86.9-.86.9-2.23 0-1.5-.96-2.35-.96-.83-2.7-.83h-3.37v6.25zM192.16 1.23h-4.88v13.2h-1.2V1.23h-4.86V.2h10.94v1.03z"/></g><g fill="#929292"><path d="M8.26 55.83h-5.8l-1.33 3.6H0l4.84-12.8h1.03l4.84 12.8H9.6l-1.34-3.6zM2.8 54.9h5.1l-2.57-6.96L2.8 54.9zM13.54 59.42h-1.06v-13.5h1.05v13.5zM15.82 54.52q0-1.37.53-2.47t1.5-1.7q.98-.62 2.2-.62 1.9 0 3.08 1.34 1.18 1.33 1.18 3.52v.2q0 1.4-.52 2.5t-1.5 1.7q-.96.6-2.2.6-1.9 0-3.07-1.34t-1.17-3.54v-.2zm1.05.3q0 1.7.88 2.8.9 1.1 2.32 1.1 1.43 0 2.3-1.1.9-1.1.9-2.9v-.2q0-1.1-.4-2-.4-.9-1.14-1.4-.73-.5-1.67-.5-1.4 0-2.3 1.12-.9 1.1-.9 2.88v.2zM27.5 49.9l.03 1.64q.53-.88 1.33-1.34.8-.47 1.77-.47 1.53 0 2.28.87.76.86.77 2.58v6.24h-1.04v-6.25q0-1.27-.55-1.9-.53-.62-1.7-.62-.97 0-1.73.6-.74.62-1.1 1.66v6.53H26.5v-9.5h1zM35.95 54.58q0-2.24.98-3.54 1-1.3 2.7-1.3 1.93 0 2.94 1.54l.06-1.37h.98v9.34q0 1.83-1 2.9t-2.8 1.08q-1 0-1.9-.44-.9-.44-1.4-1.18l.6-.63q1.1 1.37 2.64 1.37 1.3 0 2.05-.78.73-.78.76-2.16v-1.2q-1 1.42-2.95 1.42-1.64 0-2.64-1.32t-1-3.56v-.14zm1.06.18q0 1.82.75 2.88.73 1.04 2.06 1.04 1.95 0 2.76-1.74v-4.42q-.37-.9-1.07-1.4-.7-.47-1.68-.47-1.3 0-2.05 1.04-.74 1.02-.74 3.05zM53.02 57.23l.16.82.2-.86 2.3-7.3h.9l2.25 7.22.25 1 .2-.92 1.95-7.3h1.1l-2.78 9.52h-.9l-2.43-7.54-.12-.52-.1.53-2.4 7.5h-.9l-2.77-9.5H51l2.03 7.3zM65.5 59.42h-1.06v-9.5h1.06v9.5zm-1.24-12.26q0-.3.2-.5.18-.2.52-.2t.53.2q.2.2.2.5t-.2.5q-.2.2-.5.2t-.54-.2-.2-.5zM70 47.48v2.43h1.96v.88H70v6.34q0 .8.28 1.2.3.37.96.37.26 0 .85-.1l.02.86q-.4.15-1.12.15-1.07 0-1.57-.62t-.5-1.85v-6.35H67.2v-.86h1.74V47.5H70zM75.2 51.52q.53-.85 1.34-1.32.8-.47 1.76-.47 1.53 0 2.28.87.75.86.75 2.58v6.24H80.3v-6.25q-.02-1.27-.56-1.9-.52-.62-1.7-.62-.97 0-1.72.6-.75.62-1.1 1.66v6.53h-1.06v-13.5h1.05v5.6zM91.45 57.9l2.78-8h1.13L91.3 61.05l-.2.5q-.8 1.72-2.43 1.72-.38 0-.8-.12v-.87l.53.05q.77 0 1.25-.4.48-.36.82-1.3l.46-1.28-3.58-9.43h1.15l2.95 8zM96.26 54.52q0-1.37.52-2.47.54-1.1 1.5-1.7.98-.62 2.2-.62 1.9 0 3.1 1.34 1.17 1.33 1.17 3.52v.2q0 1.4-.54 2.5-.5 1.1-1.47 1.7-.97.6-2.2.6-1.9 0-3.1-1.34-1.16-1.34-1.16-3.54v-.2zm1.05.3q0 1.7.9 2.8.9 1.1 2.3 1.1 1.44 0 2.3-1.1.9-1.1.9-2.9v-.2q0-1.1-.4-2-.4-.9-1.13-1.4-.73-.5-1.67-.5-1.4 0-2.3 1.12-.9 1.1-.9 2.88v.2zM113.05 58.22q-.95 1.38-3.04 1.38-1.5 0-2.3-.88-.8-.9-.8-2.62v-6.2h1.05v6.07q0 2.7 2.2 2.7 2.28 0 2.9-1.88v-6.9h1.04v9.5h-1.03v-1.2zM121.2 50.8q-.34-.05-.72-.05-.98 0-1.67.55-.65.54-.94 1.6v6.52h-1.05v-9.5h1.04l.02 1.5q.83-1.7 2.68-1.7.44 0 .7.13l-.03.96zM126.67 54.52q0-1.37.52-2.47t1.5-1.7q.96-.62 2.2-.62 1.9 0 3.07 1.34 1.18 1.33 1.18 3.52v.2q0 1.4-.54 2.5-.52 1.1-1.5 1.7-.95.6-2.2.6-1.9 0-3.07-1.34t-1.17-3.54v-.2zm1.05.3q0 1.7.88 2.8.9 1.1 2.32 1.1t2.3-1.1q.9-1.1.9-2.9v-.2q0-1.1-.4-2-.42-.9-1.15-1.4-.73-.5-1.67-.5-1.4 0-2.3 1.12-.88 1.1-.88 2.88v.2zM141.74 50.8q-.34-.05-.72-.05-.98 0-1.67.55-.67.54-.96 1.6v6.52h-1.07v-9.5h1.03l.02 1.5q.82-1.7 2.67-1.7.44 0 .7.13l-.03.96zM142.8 54.58q0-2.22.97-3.53 1-1.32 2.7-1.32 1.9 0 2.93 1.52v-5.33h1.04v13.5h-.98l-.05-1.27q-1 1.45-2.95 1.45-1.64 0-2.65-1.32-1-1.33-1-3.58v-.12zm1.05.18q0 1.82.73 2.88.73 1.04 2.06 1.04 1.94 0 2.76-1.7V52.5q-.82-1.85-2.75-1.85-1.32 0-2.06 1.04-.76 1.02-.76 3.05zM156.9 59.6q-1.2 0-2.2-.6-.97-.6-1.5-1.66-.56-1.08-.56-2.4v-.38q0-1.37.53-2.47.54-1.1 1.5-1.74.94-.64 2.04-.64 1.75 0 2.76 1.2 1.02 1.17 1.02 3.22v.6h-6.78v.2q0 1.6.9 2.7.94 1.06 2.35 1.06.84 0 1.5-.3.64-.3 1.16-.98l.68.5q-1.16 1.68-3.36 1.68zm-.2-8.97q-1.17 0-2 .87-.8.87-.98 2.34h5.7v-.12q-.04-1.37-.77-2.23-.74-.88-1.94-.88zM166.94 50.8q-.34-.05-.72-.05-.98 0-1.67.55-.67.54-.96 1.6v6.52h-1.07v-9.5h1.03l.02 1.5q.82-1.7 2.67-1.7.44 0 .7.13l-.03.96zM167.3 61.8l-.64-.45q.8-1.07.83-2.22v-1.36h1v1.1q0 1.82-1.22 2.94zM178.36 57.9l2.77-8h1.14l-4.06 11.14-.2.5q-.8 1.72-2.4 1.72-.4 0-.8-.12l-.03-.87.55.05q.78 0 1.25-.4.5-.36.82-1.3l.46-1.28-3.6-9.43h1.16l2.96 8zM183.17 54.52q0-1.37.52-2.47t1.5-1.7q.96-.62 2.2-.62 1.9 0 3.07 1.34 1.18 1.33 1.18 3.52v.2q0 1.4-.54 2.5-.52 1.1-1.5 1.7-.95.6-2.2.6-1.9 0-3.07-1.34t-1.17-3.54v-.2zm1.05.3q0 1.7.88 2.8.9 1.1 2.32 1.1t2.3-1.1q.9-1.1.9-2.9v-.2q0-1.1-.4-2-.42-.9-1.15-1.4-.73-.5-1.67-.5-1.4 0-2.3 1.12-.88 1.1-.88 2.88v.2zM199.95 58.22q-.95 1.38-3.04 1.38-1.5 0-2.3-.88-.8-.9-.8-2.62v-6.2h1.05v6.07q0 2.7 2.2 2.7 2.28 0 2.9-1.88v-6.9H201v9.5h-1.03v-1.2zM210.4 57.23l.14.82.22-.86 2.28-7.3h.9l2.26 7.22.24 1 .2-.92 1.96-7.3h1.08l-2.78 9.52h-.9l-2.44-7.54-.1-.52-.12.53-2.4 7.5h-.9l-2.76-9.5h1.08l2 7.3zM222.86 59.42h-1.06v-9.5h1.06v9.5zm-1.24-12.26q0-.3.2-.5.18-.2.52-.2.33 0 .52.2.2.2.2.5t-.2.5q-.2.2-.52.2-.34 0-.53-.2t-.17-.5zM226.9 59.42h-1.06v-13.5h1.06v13.5zM230.95 59.42h-1.06v-13.5h1.04v13.5zM242.6 50.8q-.34-.05-.72-.05-.98 0-1.67.55-.65.54-.94 1.6v6.52h-1.05v-9.5h1.04l.02 1.5q.83-1.7 2.68-1.7.44 0 .7.13l-.03.96zM247.76 59.6q-1.22 0-2.2-.6-.98-.6-1.52-1.66-.55-1.08-.55-2.4v-.38q0-1.37.5-2.47.55-1.1 1.5-1.74.95-.64 2.05-.64 1.73 0 2.74 1.2 1 1.17 1 3.22v.6h-6.77v.2q0 1.6.92 2.7.93 1.06 2.34 1.06.83 0 1.5-.3.63-.3 1.15-.98l.66.5q-1.15 1.68-3.35 1.68zm-.2-8.97q-1.18 0-2 .87-.8.87-1 2.34h5.72v-.12q-.05-1.37-.78-2.23-.74-.88-1.94-.88zM256.9 58.7q1.1 0 1.84-.6.75-.63.8-1.62h1.02q-.04.87-.54 1.6-.5.7-1.34 1.1-.82.42-1.77.42-1.86 0-2.95-1.3-1.1-1.3-1.1-3.5v-.32q0-1.4.5-2.5t1.4-1.66q.93-.6 2.16-.6 1.57 0 2.58.95 1.02.93 1.1 2.45h-1.02q-.07-1.12-.8-1.8-.74-.7-1.85-.7-1.42 0-2.2 1.04-.8 1.03-.8 2.88v.3q0 1.83.8 2.85.8 1 2.22 1zM266.36 59.6q-1.22 0-2.2-.6-.98-.6-1.52-1.66-.55-1.08-.55-2.4v-.38q0-1.37.5-2.47.55-1.1 1.5-1.74.95-.64 2.05-.64 1.73 0 2.74 1.2 1 1.17 1 3.22v.6h-6.77v.2q0 1.6.92 2.7.93 1.06 2.34 1.06.83 0 1.5-.3.63-.3 1.15-.98l.66.5q-1.15 1.68-3.35 1.68zm-.2-8.97q-1.18 0-2 .87-.8.87-1 2.34h5.72v-.12q-.05-1.37-.78-2.23-.74-.88-1.94-.88zM273.17 59.42h-1.06v-9.5h1.08v9.5zm-1.24-12.26q0-.3.2-.5.18-.2.52-.2t.52.2q.2.2.2.5t-.2.5q-.2.2-.52.2t-.53-.2-.2-.5zM279 57.97l2.88-8.06h1.08l-3.54 9.53h-.85l-3.57-9.5h1.08l2.92 8.05zM288.26 59.6q-1.22 0-2.2-.6-.98-.6-1.52-1.66-.55-1.08-.55-2.4v-.38q0-1.37.5-2.47.55-1.1 1.5-1.74.95-.64 2.05-.64 1.73 0 2.74 1.2 1 1.17 1 3.22v.6h-6.77v.2q0 1.6.92 2.7.93 1.06 2.34 1.06.83 0 1.5-.3.63-.3 1.15-.98l.66.5q-1.15 1.68-3.35 1.68zm-.2-8.97q-1.18 0-2 .87-.8.87-1 2.34h5.72v-.12q-.05-1.37-.78-2.23-.74-.88-1.94-.88zM304.3 59.42q-.17-.45-.22-1.33-.55.7-1.4 1.1-.86.4-1.82.4-1.37 0-2.23-.78-.84-.76-.84-1.93 0-1.4 1.13-2.2 1.16-.8 3.23-.8h1.9v-1.1q0-1-.63-1.6-.62-.6-1.83-.6-1.08 0-1.8.57t-.73 1.36h-1.05q0-1.14 1.05-1.97 1.06-.84 2.6-.84 1.6 0 2.5.8.92.8.95 2.22v4.5q0 1.38.3 2.06v.12h-1.13zm-3.32-.76q1.06 0 1.88-.5.84-.52 1.22-1.37v-2.1h-1.9q-1.56 0-2.45.57-.88.55-.88 1.53 0 .8.58 1.34.6.52 1.55.52zM308.92 49.9l.03 1.64q.54-.88 1.34-1.34.8-.47 1.74-.47 1.53 0 2.28.87.75.86.76 2.58v6.24h-1.06v-6.25q0-1.27-.54-1.9-.53-.62-1.7-.62-.98 0-1.73.6-.75.62-1.1 1.66v6.53h-1.06v-9.5h1zM.53 79.52q0-1.37.52-2.47.54-1.1 1.5-1.7.98-.62 2.2-.62 1.9 0 3.1 1.34Q9 77.4 9 79.6v.2q0 1.4-.54 2.5-.53 1.1-1.5 1.7-.96.6-2.2.6-1.9 0-3.08-1.33Q.53 81.93.53 79.74v-.22zm1.05.3q0 1.7.88 2.8.9 1.1 2.32 1.1t2.3-1.1q.9-1.1.9-2.9v-.2q0-1.1-.4-2-.42-.9-1.15-1.4-.73-.5-1.67-.5-1.4 0-2.3 1.12-.88 1.1-.88 2.88v.2zM11.95 84.42v-8.65h-1.57v-.86h1.57v-1.13q0-1.46.74-2.24.73-.78 2.06-.78.6 0 1.1.14l-.07.87q-.45-.1-.97-.1-.87 0-1.35.54-.5.55-.5 1.54v1.18h2.28v.87H13v8.64h-1.05zM17.8 84.42v-8.65h-1.58v-.86h1.6v-.96q0-1.52.8-2.35.84-.85 2.34-.85 1.18 0 2.43.5l-.2.92q-1.07-.47-2.18-.47-2.17 0-2.17 2.25v.96h2.22v.88h-2.22v8.65H17.8zm6.16 0H22.9v-9.5h1.06v9.5zM30.36 83.7q1.1 0 1.83-.6.73-.63.8-1.62h1q-.04.87-.54 1.6-.5.7-1.34 1.1-.82.42-1.77.42-1.88 0-2.97-1.3-1.1-1.3-1.1-3.5v-.32q0-1.4.5-2.5t1.4-1.66q.92-.6 2.15-.6 1.56 0 2.57.95 1.02.93 1.1 2.45h-1q-.07-1.12-.8-1.8-.74-.7-1.85-.7-1.43 0-2.22 1.04-.78 1.03-.78 2.88v.3q0 1.83.78 2.85.8 1 2.23 1zM37.3 84.42h-1.05v-9.5h1.05v9.5zm-1.24-12.26q0-.3.2-.5t.52-.2.53.2q.2.2.2.5t-.2.5q-.17.2-.5.2t-.54-.2-.2-.5zM46.17 84.42q-.16-.45-.2-1.33-.56.7-1.42 1.1-.85.4-1.8.4-1.38 0-2.23-.78-.85-.76-.85-1.93 0-1.4 1.16-2.2 1.16-.8 3.22-.8h1.9v-1.1q0-1-.62-1.6-.63-.6-1.83-.6-1.1 0-1.82.57t-.72 1.36H39.9q0-1.14 1.06-1.97 1.05-.84 2.6-.84 1.58 0 2.5.8.92.8.94 2.22v4.5q0 1.38.3 2.06v.12h-1.13zm-3.3-.76q1.05 0 1.87-.5.84-.52 1.22-1.37v-2.1h-1.88q-1.58 0-2.46.57-.9.55-.9 1.53 0 .8.6 1.34.6.52 1.54.52zM50.98 84.42h-1.06v-13.5h1.06v13.5zM65.88 79.76q0 2.23-.98 3.54-1 1.3-2.64 1.3-1.95 0-3-1.38v4.86h-1.03V74.9h.97l.06 1.36q1.02-1.53 2.97-1.53 1.7 0 2.68 1.3 1 1.3 1 3.58v.17zm-1.05-.18q0-1.82-.75-2.88T62 75.65q-.97 0-1.66.46-.7.5-1.07 1.38v4.56q.38.82 1.08 1.25.7.42 1.66.42 1.35 0 2.1-1.05.74-1.06.74-3.07zM69.4 84.42h-1.06v-13.5h1.06v13.5zM78.27 84.42q-.16-.45-.2-1.33-.56.7-1.42 1.1-.85.4-1.8.4-1.38 0-2.24-.78-.82-.76-.82-1.93 0-1.4 1.15-2.2 1.16-.8 3.23-.8h1.9v-1.1q0-1-.63-1.6-.62-.6-1.83-.6-1.1 0-1.83.57t-.72 1.36H72q0-1.14 1.05-1.97 1.06-.84 2.6-.84 1.6 0 2.5.8.92.8.95 2.22v4.5q0 1.38.3 2.06v.12h-1.13zm-3.3-.76q1.05 0 1.87-.5.84-.52 1.22-1.37v-2.1h-1.9q-1.56 0-2.45.57-.86.55-.86 1.53 0 .8.58 1.34.6.52 1.56.52zM81.47 79.58q0-2.24 1-3.54.98-1.3 2.68-1.3 1.94 0 2.95 1.54l.05-1.37h1v9.34q0 1.83-1.04 2.9t-2.77 1.08q-1 0-1.9-.44-.9-.44-1.4-1.18l.58-.63q1.13 1.37 2.66 1.37 1.32 0 2.06-.78.75-.78.77-2.16v-1.2q-1 1.42-2.95 1.42-1.65 0-2.65-1.32t-1-3.56v-.14zm1.07.18q0 1.82.73 2.88.73 1.04 2.05 1.04 1.95 0 2.75-1.74v-4.42q-.36-.9-1.06-1.4-.67-.47-1.65-.47-1.33 0-2.06 1.04-.75 1.02-.75 3.05zM93.06 84.42H92v-9.5h1.06v9.5zm-1.24-12.26q0-.3.2-.5t.52-.2.53.2q.2.2.2.5t-.2.5q-.2.2-.53.2t-.53-.2-.17-.5zM101.93 84.42q-.16-.45-.2-1.33-.56.7-1.42 1.1-.83.4-1.8.4-1.36 0-2.22-.78-.84-.76-.84-1.93 0-1.4 1.15-2.2 1.15-.8 3.22-.8h1.92v-1.1q0-1-.64-1.6-.62-.6-1.83-.6-1.1 0-1.82.57t-.72 1.36H95.7q0-1.14 1.04-1.97 1.07-.84 2.6-.84 1.6 0 2.5.8.93.8.96 2.22v4.5q0 1.38.3 2.06v.12h-1.13zm-3.3-.76q1.05 0 1.87-.5.84-.52 1.22-1.37v-2.1h-1.9q-1.56 0-2.45.57-.9.55-.9 1.53 0 .8.6 1.34.6.52 1.55.52zM109.95 75.8q-.34-.05-.72-.05-.98 0-1.67.55-.67.54-.96 1.6v6.52h-1.05v-9.5h1.03l.02 1.5q.83-1.7 2.68-1.7.44 0 .7.13l-.03.96zM112.78 84.42h-1.06v-9.5h1.06v9.5zm-1.24-12.26q0-.3.2-.5.18-.2.52-.2.33 0 .52.2.2.2.2.5t-.2.5q-.2.2-.52.2-.34 0-.53-.2t-.2-.5zM121.35 82q0-.78-.64-1.25-.6-.48-1.87-.74-1.26-.25-1.97-.6-.7-.35-1.03-.85-.34-.5-.34-1.2 0-1.14.93-1.87.94-.74 2.4-.74 1.6 0 2.56.8.96.78.96 2.04h-1.06q0-.83-.7-1.4-.7-.54-1.77-.54-1.03 0-1.67.47-.62.46-.62 1.2 0 .7.52 1.1.52.4 1.9.7 1.4.35 2.08.7.7.38 1.03.9.33.5.33 1.26 0 1.2-.97 1.93-.97.7-2.54.7-1.68 0-2.7-.8-1.04-.8-1.04-2.03h1.05q.07.92.8 1.44.7.5 1.9.5 1.1 0 1.76-.47.68-.48.68-1.22zM125.7 74.9l.04 1.56q.53-.86 1.32-1.3.8-.43 1.76-.43 2.25 0 2.85 1.85.5-.9 1.37-1.36.85-.5 1.88-.5 3.06 0 3.12 3.35v6.35h-1.06v-6.27q0-1.27-.55-1.9-.54-.6-1.76-.6-1.13.02-1.92.74-.78.7-.87 1.72v6.3h-1.05v-6.36q0-1.22-.58-1.82-.56-.6-1.74-.6-.97 0-1.7.57-.7.57-1.04 1.7v6.5h-1.05v-9.5h1zM149.5 75.8q-.33-.05-.7-.05-1 0-1.68.55-.67.54-.96 1.6v6.52h-1.05v-9.5h1.05l.02 1.5q.83-1.7 2.68-1.7.44 0 .7.13l-.03.96zM154.66 84.6q-1.22 0-2.2-.6-.98-.6-1.52-1.66-.55-1.08-.55-2.4v-.38q0-1.37.5-2.47.55-1.1 1.5-1.74.95-.64 2.05-.64 1.73 0 2.74 1.2 1 1.17 1 3.22v.6h-6.77v.2q0 1.6.92 2.7.93 1.06 2.34 1.06.83 0 1.5-.3.63-.3 1.15-.98l.66.5q-1.15 1.68-3.35 1.68zm-.2-8.97q-1.18 0-2 .87-.8.87-1 2.34h5.72v-.12q-.05-1.37-.78-2.23-.74-.88-1.94-.88zM167.95 79.76q0 2.23-1 3.54-.97 1.3-2.63 1.3-1.95 0-2.98-1.38v4.86h-1.05V74.9h.96l.05 1.36q1.04-1.53 3-1.53 1.7 0 2.66 1.3.98 1.3.98 3.58v.17zm-1.06-.18q0-1.82-.77-2.88t-2.08-1.05q-.97 0-1.66.46-.7.5-1.07 1.38v4.56q.37.82 1.08 1.25.7.42 1.67.42 1.33 0 2.06-1.05.75-1.06.75-3.07zM169.7 79.52q0-1.37.52-2.47.54-1.1 1.5-1.7.98-.62 2.2-.62 1.9 0 3.1 1.34 1.17 1.33 1.17 3.52v.2q0 1.4-.56 2.5-.53 1.1-1.5 1.7-.96.6-2.2.6-1.9 0-3.08-1.34-1.17-1.34-1.17-3.54v-.2zm1.05.3q0 1.7.88 2.8.9 1.1 2.32 1.1t2.3-1.1q.9-1.1.9-2.9v-.2q0-1.1-.4-2-.42-.9-1.15-1.4-.73-.5-1.67-.5-1.4 0-2.3 1.12-.88 1.1-.88 2.88v.2zM184.77 75.8q-.34-.05-.72-.05-.98 0-1.67.55-.67.54-.96 1.6v6.52h-1.05v-9.5h1.03l.02 1.5q.83-1.7 2.68-1.7.44 0 .7.13l-.03.96zM188.5 72.48v2.43h1.97v.88h-1.96v6.34q0 .8.3 1.2.3.37.96.37.26 0 .85-.1l.05.86q-.4.15-1.12.15-1.08 0-1.58-.62t-.5-1.85v-6.35h-1.74v-.86h1.76V72.5h1.06zM199.35 82.23l.15.82.22-.86 2.28-7.3h.9l2.26 7.22.24 1 .2-.92 1.96-7.3h1.08l-2.78 9.52h-.9l-2.44-7.54-.1-.52-.12.53-2.4 7.5h-.9l-2.76-9.5h1.08l2 7.3zM211.7 76.52q.5-.85 1.3-1.32.82-.47 1.78-.47 1.53 0 2.28.87.74.86.75 2.58v6.24h-1.02v-6.25q0-1.27-.55-1.9-.53-.62-1.7-.62-.97 0-1.73.6-.75.62-1.1 1.66v6.53h-1.06v-13.5h1.05v5.6zM221.7 84.42h-1.06v-9.5h1.06v9.5zm-1.24-12.26q0-.3.2-.5.18-.2.52-.2t.52.2q.2.2.2.5t-.2.5q-.2.2-.52.2t-.53-.2-.2-.5zM228.08 83.7q1.1 0 1.83-.6.77-.63.83-1.62h1q-.03.87-.53 1.6-.5.7-1.35 1.1-.82.42-1.77.42-1.88 0-2.97-1.3-1.07-1.3-1.07-3.5v-.32q0-1.4.5-2.5.48-1.07 1.4-1.66.92-.6 2.15-.6 1.56 0 2.57.95 1.02.93 1.1 2.45h-1.02q-.07-1.12-.8-1.8-.74-.7-1.85-.7-1.43 0-2.22 1.04-.78 1.03-.78 2.88v.3q0 1.83.78 2.85.8 1 2.23 1zM234.9 76.52q.5-.85 1.3-1.32.82-.47 1.78-.47 1.53 0 2.28.87.74.86.75 2.58v6.24H240v-6.25q0-1.27-.55-1.9-.53-.62-1.7-.62-.97 0-1.73.6-.75.62-1.1 1.66v6.53h-1.06v-13.5h1.05v5.6zM251.63 83.7q1.1 0 1.83-.6.75-.63.8-1.62h1.02q-.04.87-.54 1.6-.5.7-1.34 1.1-.82.42-1.77.42-1.88 0-2.97-1.3-1.1-1.3-1.1-3.5v-.32q0-1.4.5-2.5t1.4-1.66q.93-.6 2.16-.6 1.56 0 2.57.95 1 .93 1.07 2.45h-1q-.08-1.12-.82-1.8-.73-.7-1.84-.7-1.42 0-2.2 1.04-.8 1.03-.8 2.88v.3q0 1.83.8 2.85.8 1 2.22 1zM256.82 79.52q0-1.37.52-2.47.54-1.1 1.5-1.7.98-.62 2.2-.62 1.9 0 3.1 1.34 1.17 1.33 1.17 3.52v.2q0 1.4-.52 2.5t-1.5 1.7q-.96.6-2.2.6-1.9 0-3.08-1.34-1.18-1.34-1.18-3.54v-.2zm1.05.3q0 1.7.88 2.8.9 1.1 2.32 1.1t2.3-1.1q.9-1.1.9-2.9v-.2q0-1.1-.4-2-.42-.9-1.15-1.4-.73-.5-1.67-.5-1.4 0-2.3 1.12-.88 1.1-.88 2.88v.2zM268.5 74.9l.02 1.64q.54-.88 1.34-1.34.8-.47 1.76-.47 1.53 0 2.28.87.75.86.76 2.58v6.24h-1.05v-6.25q0-1.27-.52-1.9-.53-.62-1.7-.62-.98 0-1.73.6-.75.62-1.1 1.66v6.53h-1.06v-9.5h1zM278 84.42v-8.65h-1.6v-.86h1.6v-.96q0-1.52.82-2.35.83-.85 2.33-.85 1.18 0 2.43.5l-.18.92q-1.07-.47-2.18-.47-2.17 0-2.17 2.25v.96h2.22v.88h-2.22v8.65H278zm6.15 0h-1.06v-9.5h1.04v9.5zM291.43 75.8q-.34-.05-.72-.05-.96 0-1.65.55-.67.54-.96 1.6v6.52h-1.06v-9.5h1.03l.02 1.5q.82-1.7 2.67-1.7.44 0 .7.13l-.03.96zM294.04 74.9l.03 1.56q.53-.86 1.32-1.3.77-.43 1.74-.43 2.25 0 2.85 1.85.5-.9 1.36-1.36.85-.5 1.88-.5 3.06 0 3.12 3.35v6.35h-1.06v-6.27q0-1.27-.54-1.9-.54-.6-1.76-.6-1.13.02-1.92.74-.78.7-.87 1.72v6.3h-1.03v-6.36q0-1.22-.58-1.82-.57-.6-1.75-.6-1 0-1.7.57-.72.57-1.06 1.7v6.5h-1.06v-9.5h1zM314.74 82q0-.78-.64-1.25-.62-.48-1.9-.74-1.25-.25-1.96-.6-.7-.35-1.03-.85-.32-.5-.32-1.2 0-1.14.94-1.87.95-.74 2.42-.74 1.6 0 2.55.8.96.78.96 2.04h-1.06q0-.83-.7-1.4-.7-.54-1.76-.54-1.03 0-1.67.47-.62.46-.62 1.2 0 .7.52 1.1.52.4 1.9.7 1.4.35 2.08.7.7.38 1.03.9.33.5.33 1.26 0 1.2-.97 1.93-.97.7-2.54.7-1.67 0-2.7-.8-1.03-.8-1.03-2.03h1.05q.07.92.8 1.44.7.5 1.88.5 1.1 0 1.78-.47.68-.48.68-1.22zM327.27 84.42h-1.06V72.9l-3.46 1.28v-.98l4.36-1.62h.17v12.84zM340.08 79.1q0 2.7-1 4.1-1 1.4-2.92 1.4-1.9 0-2.9-1.38-1.02-1.38-1.05-4v-2.3q0-2.7 1-4.08t2.95-1.4q1.9 0 2.9 1.35 1 1.32 1.04 3.93v2.35zm-1.06-2.3q0-2.2-.72-3.33-.7-1.13-2.16-1.13-1.43 0-2.15 1.1-.74 1.1-.75 3.25v2.5q0 2.2.73 3.34.74 1.16 2.16 1.16 1.4 0 2.12-1.13.73-1.13.74-3.32V76.8zM350.06 79.1q0 2.7-1 4.1-1 1.4-2.92 1.4-1.9 0-2.9-1.38-1.02-1.38-1.05-4v-2.3q0-2.7 1-4.08t2.9-1.4q1.9 0 2.9 1.35 1 1.32 1.05 3.93v2.35zM349 76.8q0-2.2-.72-3.33-.7-1.13-2.16-1.13-1.43 0-2.15 1.1t-.73 3.25v2.5q0 2.2.73 3.34.75 1.16 2.17 1.16 1.4 0 2.12-1.13.73-1.13.74-3.32V76.8zM352.08 74.08q0-1.14.7-1.9.7-.74 1.8-.74t1.8.75q.7.73.7 1.93v.62q0 1.13-.7 1.88t-1.78.75q-1.08 0-1.8-.75t-.72-1.95v-.62zm.85.68q0 .82.45 1.35.45.54 1.22.54.75 0 1.18-.52.45-.53.45-1.37v-.65q0-.8-.45-1.34-.46-.54-1.2-.54-.73 0-1.2.53-.45.53-.45 1.4v.63zm5.6 6.52q0-1.14.7-1.9.7-.73 1.78-.73t1.8.74q.74.72.74 1.93v.63q0 1.14-.7 1.9-.72.73-1.8.73t-1.8-.74q-.7-.75-.7-1.95v-.63zm.83.7q0 .8.45 1.34.48.53 1.24.53t1.2-.53q.45-.53.45-1.4v-.64q0-.84-.47-1.35-.45-.52-1.2-.52-.74 0-1.2.54-.46.52-.46 1.4v.64zm-4.43 1.38l-.66-.43 6.25-10 .66.42-6.25 10zM7.22 108.22q-.94 1.38-3.03 1.38-1.54 0-2.33-.88-.8-.9-.8-2.62v-6.2H2.1v6.07q0 2.72 2.2 2.72 2.28 0 2.9-1.9v-6.9h1.04v9.5h-1l-.02-1.2zM12 99.9l.02 1.64q.54-.88 1.34-1.34.8-.47 1.77-.47 1.52 0 2.27.87.75.86.76 2.58v6.24H17.1v-6.25q0-1.27-.53-1.9-.53-.62-1.7-.62-.97 0-1.73.6-.75.62-1.1 1.66v6.53H11v-9.5h1zM22.04 109.42H21v-9.5h1.04v9.5zM20.8 97.16q0-.3.2-.5t.52-.2.53.2q.2.2.2.5t-.2.5q-.2.2-.53.2t-.52-.2-.2-.5zM24.5 104.58q0-2.23.97-3.53 1-1.3 2.7-1.3 1.93 0 2.93 1.46l.06-1.3h.98v13.2H31.1v-4.85q-1.05 1.36-2.94 1.36-1.67 0-2.67-1.3t-1-3.57v-.14zm1.05.18q0 1.85.74 2.9.72 1.05 2.04 1.05 1.9 0 2.74-1.62v-4.66q-.4-.84-1.1-1.3-.7-.47-1.63-.47-1.33 0-2.07 1.06-.75 1.04-.75 3.07zM41.08 108.22q-.95 1.38-3.03 1.38-1.52 0-2.3-.88-.8-.9-.82-2.62v-6.2h1.04v6.07q0 2.72 2.2 2.72 2.3 0 2.9-1.9v-6.9h1.05v9.5H41.1l-.02-1.2zM48.52 109.6q-1.2 0-2.2-.6-.97-.6-1.5-1.66-.56-1.07-.56-2.4v-.38q0-1.37.53-2.47.5-1.1 1.46-1.74.95-.63 2.06-.63 1.73 0 2.74 1.2 1.02 1.16 1.02 3.2v.6h-6.8v.2q0 1.62.93 2.7.94 1.07 2.35 1.07.84 0 1.48-.3.65-.3 1.18-.98l.67.5q-1.17 1.68-3.38 1.68zm-.2-8.96q-1.18 0-2 .87-.8.9-.98 2.35h5.7v-.1q-.04-1.38-.78-2.24-.73-.85-1.93-.85zM55.16 99.9l.04 1.64q.53-.88 1.33-1.34.8-.47 1.77-.47 1.53 0 2.27.87.75.86.76 2.58v6.24h-1.05v-6.25q0-1.27-.54-1.9-.53-.62-1.7-.62-.97 0-1.73.6-.73.62-1.1 1.66v6.53h-1.03v-9.5h1zM67.72 109.6q-1.2 0-2.2-.6-.97-.6-1.52-1.66-.54-1.07-.54-2.4v-.38q0-1.37.52-2.47.54-1.1 1.5-1.74.94-.63 2.05-.63 1.73 0 2.74 1.2 1.02 1.16 1.02 3.2v.6h-6.8v.2q0 1.62.9 2.7.95 1.07 2.35 1.07.85 0 1.5-.3.64-.3 1.17-.98l.66.5q-1.18 1.68-3.38 1.68zm-.2-8.96q-1.18 0-2 .87-.8.9-.98 2.35h5.7v-.1q-.04-1.38-.78-2.24-.74-.85-1.93-.85zM79.05 107q0-.78-.63-1.26-.63-.47-1.9-.74-1.26-.27-1.96-.6-.7-.36-1.04-.86-.33-.5-.33-1.22 0-1.12.92-1.85.94-.74 2.4-.74 1.6 0 2.55.8.97.77.97 2.04H79q0-.83-.7-1.4-.7-.54-1.77-.54-1.03 0-1.67.46-.62.44-.62 1.2 0 .7.52 1.1.53.37 1.9.7 1.4.32 2.08.7.7.36 1.03.9.33.5.33 1.24 0 1.2-.97 1.92t-2.53.72q-1.67 0-2.7-.8-1.03-.82-1.03-2.05h1.05q.07.93.78 1.45.72.5 1.9.5 1.1 0 1.77-.48.68-.48.68-1.22zM88.15 107q0-.78-.63-1.26-.62-.47-1.9-.74-1.25-.27-1.96-.6-.7-.36-1.03-.86-.34-.5-.34-1.22 0-1.12.92-1.85.94-.74 2.4-.74 1.6 0 2.56.8.96.77.96 2.04H88.1q0-.83-.7-1.4-.7-.54-1.76-.54-1.04 0-1.67.46-.62.44-.62 1.2 0 .7.5 1.1.54.37 1.92.7 1.4.32 2.08.7.7.36 1.02.9.34.5.34 1.24 0 1.2-.96 1.92t-2.53.72q-1.65 0-2.7-.8-1-.82-1-2.05h1.04q.06.93.77 1.45.73.5 1.9.5 1.1 0 1.8-.48.66-.48.66-1.22zM95.38 104.52q0-1.37.53-2.47.55-1.1 1.5-1.7 1-.62 2.23-.62 1.9 0 3.07 1.34 1.17 1.32 1.17 3.52v.2q0 1.4-.54 2.5-.52 1.1-1.5 1.7-.96.6-2.2.6-1.9 0-3.07-1.35-1.18-1.33-1.18-3.53v-.2zm1.05.3q0 1.7.88 2.8.9 1.08 2.34 1.08 1.43 0 2.3-1.1.9-1.08.9-2.88v-.2q0-1.1-.4-2-.42-.9-1.14-1.4-.74-.5-1.68-.5-1.4 0-2.3 1.1-.9 1.1-.9 2.9v.2zM106.8 109.42v-8.65h-1.57v-.86h1.58v-1.13q0-1.46.75-2.24.75-.78 2.08-.78.6 0 1.1.14l-.06.87q-.44-.1-.96-.1-.86 0-1.35.54-.48.55-.48 1.54v1.18h2.27v.87h-2.27v8.64h-1.05zM119.44 107.9l2.77-8h1.16l-4.06 11.14-.22.5q-.8 1.72-2.42 1.72-.38 0-.8-.12l-.02-.87.55.05q.75 0 1.22-.38.5-.38.82-1.3l.47-1.3-3.6-9.43h1.17l2.96 8zM124.25 104.52q0-1.37.52-2.47.54-1.1 1.5-1.7.98-.62 2.2-.62 1.9 0 3.1 1.34 1.17 1.32 1.17 3.52v.2q0 1.4-.54 2.5-.53 1.1-1.5 1.7-.96.6-2.2.6-1.9 0-3.08-1.35-1.17-1.33-1.17-3.53v-.2zm1.05.3q0 1.7.88 2.8.9 1.08 2.32 1.08t2.3-1.1q.9-1.08.9-2.88v-.2q0-1.1-.4-2-.42-.9-1.15-1.4-.73-.5-1.67-.5-1.4 0-2.3 1.1-.88 1.1-.88 2.9v.2zM141.03 108.22q-.95 1.38-3.04 1.38-1.54 0-2.33-.88-.8-.9-.8-2.62v-6.2h1.04v6.07q0 2.72 2.2 2.72 2.3 0 2.9-1.9v-6.9h1.05v9.5h-1.02v-1.2zM149.2 100.8q-.35-.05-.73-.05-.98 0-1.67.55-.67.55-.96 1.6v6.52h-1.05v-9.5h1l.03 1.5q.83-1.68 2.68-1.68.45 0 .7.1l-.02.97zM162.88 104.76q0 2.22-1 3.53-.97 1.3-2.63 1.3-1.95 0-2.98-1.4v4.86h-1.05V99.9h.98l.05 1.35q1.03-1.52 2.98-1.52 1.7 0 2.67 1.3.98 1.3.98 3.58v.17zm-1.06-.18q0-1.82-.75-2.88t-2.08-1.05q-1 0-1.68.46-.7.5-1.06 1.38v4.56q.37.8 1.08 1.25.7.42 1.66.42 1.34 0 2.07-1.05.75-1.06.75-3.07zM171.22 109.42q-.16-.45-.2-1.33-.56.7-1.42 1.1-.85.4-1.8.4-1.38 0-2.24-.78-.84-.76-.84-1.93 0-1.4 1.15-2.2 1.16-.8 3.23-.8h1.9v-1.1q0-1-.63-1.6-.62-.6-1.83-.6-1.1 0-1.82.57t-.72 1.36h-1.05q0-1.14 1.05-1.97 1.06-.84 2.6-.84 1.6 0 2.5.8.92.8.95 2.22v4.5q0 1.38.3 2.06v.12h-1.13zm-3.3-.76q1.05 0 1.87-.5.82-.52 1.2-1.37v-2.1h-1.9q-1.56 0-2.45.57-.88.55-.88 1.53 0 .8.58 1.34.6.52 1.55.52zM182.5 104.76q0 2.22-1 3.53-.97 1.3-2.63 1.3-1.95 0-2.98-1.4v4.86h-1.07V99.9h.98l.06 1.35q1.03-1.52 2.98-1.52 1.7 0 2.67 1.3 1 1.3 1 3.58v.17zm-1.06-.18q0-1.82-.75-2.88t-2.1-1.05q-.97 0-1.66.46-.7.5-1.06 1.38v4.56q.36.8 1.07 1.25.7.42 1.66.42 1.34 0 2.07-1.05.74-1.06.74-3.07zM188.52 109.6q-1.22 0-2.2-.6-.98-.6-1.52-1.66-.55-1.07-.55-2.4v-.38q0-1.37.53-2.47.54-1.1 1.5-1.74.94-.63 2.04-.63 1.73 0 2.74 1.2 1.02 1.16 1.02 3.2v.6h-6.78v.2q0 1.62.92 2.7.93 1.07 2.34 1.07.84 0 1.5-.3.64-.3 1.16-.98l.66.5q-1.16 1.68-3.36 1.68zm-.2-8.96q-1.18 0-2 .87-.8.9-1 2.35h5.72v-.1q-.05-1.38-.78-2.24-.74-.85-1.94-.85zM198.55 100.8q-.34-.05-.72-.05-.98 0-1.67.55-.67.55-.96 1.6v6.52h-1.05v-9.5h1.03l.02 1.5q.83-1.68 2.68-1.68.44 0 .7.1l-.03.97zM199 108.8q0-.32.2-.53.2-.22.55-.22.35 0 .56.22.2.2.2.52 0 .3-.2.5t-.54.2q-.35 0-.55-.2-.2-.2-.2-.5z"/></g><g fill="#69bdf9"><path d="M304.8 165.85q.1-.97-.45-1.68-.56-.72-2-1.3-1.4-.56-2.1-1.1-.68-.57-1-1.3-.33-.7-.25-1.67.12-1.62 1.23-2.62 1.1-1 2.83-1.17l.34-1.94h1l-.35 1.98q1.5.22 2.25 1.36.74 1.12.6 3h-1.17q.14-1.5-.48-2.42-.63-.9-1.87-.93-1.3-.02-2.2.74-.9.74-1.03 1.97-.17 1.57 1.26 2.42.4.22 1.48.67 1.1.44 1.68.87 1.58 1.16 1.43 3.07-.14 1.63-1.27 2.64t-2.92 1.15l-.3 1.85h-1l.32-1.86q-1.12-.1-1.9-.67-.8-.57-1.16-1.5-.37-.94-.26-2.1h1.16q-.12 1.5.6 2.38.75.87 2.13.9 1.36 0 2.32-.76.98-.77 1.1-2zM315.86 169.42h-1.76l3.34-19.16-6.02 2.14.3-1.73 7.45-2.65h.33l-3.65 21.4zM335.87 162.55h3.22l-.28 1.48h-3.2l-.97 5.4h-1.74l.95-5.4h-9.68l.1-.98 12.13-14.96h1.97l-2.5 14.44zm-9.3 0h7.54l2.13-12-.9 1.2-8.76 10.8zM340.78 168.37q.04-.5.4-.86.4-.35.9-.37.53 0 .86.36.34.35.3.9-.03.5-.4.83-.38.32-.9.34-.5 0-.86-.33-.33-.33-.3-.86zM360.04 159.56q-1.12 1.4-2.57 2.17-1.45.76-3 .7-1.66-.03-2.86-.98t-1.73-2.55q-.55-1.6-.37-3.5.2-2.14 1.2-3.9 1.02-1.8 2.58-2.77 1.57-.98 3.46-.95 2.52.06 3.96 1.76 1.45 1.7 1.53 4.76.05 1.64-.4 4.35-.9 5.28-3.76 8.07-2.84 2.8-7.23 2.87h-.72l.17-1.54h.57q3.6-.06 5.86-2.15 2.27-2.1 3.3-6.35zm-5.26 1.36q1.67.06 3.16-.95 1.5-1.03 2.37-2.8.23-1.8.23-2.52 0-2.5-1-3.9-.98-1.4-2.84-1.46-1.43-.05-2.6.74-1.16.78-1.93 2.2-.77 1.42-.94 3.06-.16 1.5.2 2.8.38 1.28 1.23 2.05.87.74 2.13.77zM376.33 159.56q-1.12 1.4-2.57 2.17-1.45.76-3 .7-1.66-.03-2.86-.98t-1.75-2.55q-.55-1.6-.37-3.5.22-2.14 1.2-3.9 1.03-1.8 2.6-2.77 1.56-.98 3.45-.95 2.52.06 3.96 1.76t1.5 4.76q.06 1.64-.4 4.35-.9 5.28-3.75 8.07-2.84 2.8-7.23 2.87h-.72l.18-1.54h.6q3.6-.06 5.85-2.15 2.27-2.1 3.3-6.35zm-5.26 1.36q1.67.06 3.16-.95 1.5-1.03 2.37-2.8.2-1.8.2-2.52 0-2.5-1-3.9-.97-1.4-2.83-1.46-1.42-.05-2.6.74-1.15.78-1.92 2.2-.77 1.42-.94 3.06-.14 1.5.2 2.8.4 1.28 1.25 2.05.87.74 2.13.77z"/></g></svg>