<svg xmlns="http://www.w3.org/2000/svg" width="380" height="180" viewBox="0 0 380 180.00001"><g fill="#383840"><path d="M6.57 14.42H5.4V1.62l-3.88 1.4v-1.1L6.37.16h.2v14.28zM16.04 8.64h-4.68v-1h4.68v1zM19.62 8.63v5.8h-1.2V.2h4.85q2.2 0 3.5 1.13 1.28 1.14 1.28 3.12 0 2-1.24 3.1-1.2 1.08-3.55 1.08h-3.62zm0-1.02h3.65q1.74 0 2.66-.8.92-.84.92-2.3 0-1.5-.92-2.36-.9-.88-2.6-.9h-3.7V7.6zM37.07 10.44h-6.45l-1.47 3.98H27.9L33.26.2h1.15l5.4 14.22h-1.26l-1.48-3.98zM31 9.4h5.7l-2.86-7.73L31 9.4zM52.05 12.73q-.63.9-1.97 1.4-1.33.5-2.98.5-1.67 0-2.97-.82-1.3-.8-2-2.24-.72-1.47-.73-3.36V6.4q0-2.97 1.5-4.67Q44.4 0 46.9 0q2.2 0 3.54 1.13 1.34 1.1 1.6 3.08h-1.2q-.27-1.55-1.28-2.35-1-.8-2.64-.8-2 0-3.16 1.4-1.16 1.42-1.16 4v1.68q0 1.62.55 2.87.55 1.23 1.58 1.92 1.03.68 2.37.68 1.56 0 2.67-.5.72-.3 1.07-.74V8.7h-3.82V7.66h5.02v5.06zM63.3 7.6h-6.65v5.8h7.65v1.02h-8.85V.2h8.8v1.03h-7.6V6.6h6.65v1zM79.75 10.92q0-1.18-.83-1.86-.83-.7-3.04-1.3-2.2-.63-3.22-1.37-1.45-1.05-1.45-2.73 0-1.63 1.36-2.65T76 0q1.4 0 2.52.55t1.74 1.53q.6.97.6 2.17h-1.2q0-1.45-1-2.33-1-.9-2.67-.9-1.65 0-2.6.74-.98.73-.98 1.9 0 1.08.87 1.77.85.68 2.77 1.2 1.9.52 2.9 1.1.98.55 1.48 1.33t.5 1.84q0 1.68-1.35 2.7-1.32 1.02-3.52 1.02-1.5 0-2.77-.54-1.23-.54-1.9-1.5-.62-.97-.62-2.22h1.2q0 1.5 1.12 2.37 1.1.87 2.98.87 1.66 0 2.66-.73 1-.73 1-1.95zM93.33.2v9.7q0 1.44-.63 2.5-.63 1.07-1.77 1.65-1.13.57-2.6.57-2.25 0-3.6-1.23-1.36-1.25-1.4-3.4V.2h1.2v9.62q0 1.8 1 2.8 1.04.98 2.8.98t2.77-1q1.02-1 1.02-2.77V.2h1.2zM98.3.2l5.24 12.55L108.8.2h1.6v14.22h-1.2v-6.2l.1-6.34-5.3 12.54h-.92L97.8 1.92l.1 6.27v6.2h-1.2V.2h1.6zM115.6.2l5.24 12.55L126.1.2h1.6v14.22h-1.2v-6.2l.1-6.34-5.3 12.54h-.9l-5.3-12.5.1 6.27v6.2H114V.2h1.6zM139.18 10.44h-6.46l-1.46 3.98H130L135.38.2h1.15l5.38 14.22h-1.23l-1.48-3.98zm-6.1-1.03h5.72l-2.85-7.72-2.86 7.74zM149.32 8.5h-4.13v5.92h-1.23V.2h4.62q2.26 0 3.54 1.1t1.28 3.1q0 1.36-.8 2.4t-2.15 1.45l3.56 6.04v.1h-1.28l-3.44-5.9zm-4.13-1.02h3.66q1.5 0 2.43-.86.9-.86.9-2.23 0-1.5-.95-2.35-.95-.83-2.68-.83h-3.4v6.25zM160.4 7.96L164.76.2h1.4L161 9.07v5.35h-1.2V9.07L154.68.2h1.42l4.3 7.76z"/></g><g fill="#929292"><path d="M5.16 53.6l3.9-6.98h1.26L5.7 54.6v4.82H4.6V54.6L0 46.62h1.28l3.88 6.98zM10.8 54.52q0-1.37.54-2.47.53-1.1 1.5-1.7.98-.62 2.2-.62 1.9 0 3.08 1.34 1.18 1.33 1.18 3.52v.2q0 1.4-.54 2.5-.52 1.1-1.5 1.7-.96.6-2.2.6-1.9 0-3.07-1.34-1.2-1.34-1.2-3.54v-.2zm1.06.3q0 1.7.88 2.8.9 1.1 2.32 1.1 1.43 0 2.3-1.1.9-1.1.9-2.9v-.2q0-1.1-.4-2-.4-.9-1.14-1.4-.73-.5-1.67-.5-1.4 0-2.3 1.12-.9 1.1-.9 2.88v.2zM27.6 58.22q-.95 1.38-3.03 1.38-1.52 0-2.32-.88-.8-.9-.8-2.62v-6.2h1.04v6.07q0 2.7 2.2 2.7 2.26 0 2.87-1.88v-6.9h1.06v9.5H27.6v-1.2zM38.03 57.23l.16.82.2-.86 2.27-7.3h.9l2.26 7.22.25 1 .2-.92 1.94-7.3h1.1l-2.78 9.52h-.9l-2.44-7.54-.1-.52-.13.53-2.4 7.5h-.9l-2.76-9.5H36l2 7.3zM50.5 59.42h-1.05v-9.5h1.05v9.5zm-1.24-12.26q0-.3.2-.5t.52-.2.53.2q.2.2.2.5t-.2.5q-.17.2-.5.2t-.53-.2-.2-.5zM54.55 59.42H53.5v-13.5h1.04v13.5zM58.6 59.42h-1.07v-13.5h1.06v13.5zM65.43 54.58q0-2.24.98-3.54 1-1.3 2.7-1.3 1.95 0 2.96 1.54l.06-1.37h1v9.34q0 1.83-1.04 2.9t-2.78 1.08q-1 0-1.9-.44-.9-.44-1.42-1.18l.6-.63q1.1 1.37 2.65 1.37 1.32 0 2.06-.78t.76-2.16v-1.2q-1 1.42-2.95 1.42-1.64 0-2.64-1.32t-1-3.56v-.14zm1.06.18q0 1.82.7 2.88.74 1.04 2.07 1.04 1.94 0 2.75-1.74v-4.42q-.37-.9-1.07-1.4-.7-.47-1.67-.47-1.33 0-2.07 1.04-.73 1.02-.73 3.05zM79.52 59.6q-1.22 0-2.2-.6-.98-.6-1.52-1.66-.55-1.08-.55-2.4v-.38q0-1.37.53-2.47.54-1.1 1.5-1.74.93-.64 2.04-.64 1.73 0 2.74 1.2 1.02 1.17 1.02 3.22v.6H76.3v.2q0 1.6.92 2.7.93 1.06 2.34 1.06.84 0 1.48-.3.65-.3 1.18-.98l.66.5q-1.16 1.68-3.37 1.68zm-.2-8.97q-1.18 0-2 .87-.8.87-1 2.34h5.72v-.12q-.05-1.37-.78-2.23-.74-.88-1.94-.88zM86.78 47.48v2.43h1.97v.88h-1.97v6.34q0 .8.28 1.2.3.37.96.37.27 0 .85-.1l.05.86q-.4.15-1.13.15-1.1 0-1.6-.62-.5-.63-.5-1.85v-6.35H84v-.86h1.75V47.5h1.05zM101.35 59.42q-.16-.45-.2-1.33-.56.7-1.42 1.1-.85.4-1.8.4-1.38 0-2.23-.78-.85-.76-.85-1.93 0-1.4 1.16-2.2 1.18-.8 3.24-.8h1.9v-1.1q0-1-.62-1.6-.62-.6-1.82-.6-1.1 0-1.82.57t-.72 1.36H95.1q0-1.14 1.06-1.97 1.05-.84 2.6-.84 1.58 0 2.5.8.92.8.94 2.22v4.5q0 1.38.3 2.06v.12h-1.13zm-3.3-.76q1.05 0 1.88-.5.83-.52 1.2-1.37v-2.1h-1.87q-1.58 0-2.46.57-.9.55-.9 1.53 0 .8.6 1.34.6.52 1.54.52zM115.07 57q0-.78-.63-1.25-.63-.48-1.9-.74-1.26-.25-1.96-.6t-1.04-.85q-.33-.5-.33-1.2 0-1.14.96-1.87.94-.74 2.4-.74 1.6 0 2.55.8.98.78.98 2.04h-1.05q0-.83-.7-1.4-.7-.54-1.76-.54-1.04 0-1.67.47-.64.46-.64 1.2 0 .7.52 1.1.53.4 1.9.7 1.4.35 2.08.7.7.38 1.03.9.3.5.3 1.26 0 1.2-.96 1.93-.97.7-2.53.7-1.65 0-2.7-.8-1.02-.8-1.02-2.03h1.05q.06.92.77 1.44.72.5 1.9.5 1.1 0 1.77-.47.67-.48.67-1.22zM119.52 51.52q.52-.85 1.33-1.32.8-.47 1.76-.47 1.55 0 2.3.87.75.86.76 2.58v6.24h-1.05v-6.25q0-1.27-.54-1.9-.52-.62-1.7-.62-.97 0-1.72.6-.75.62-1.1 1.66v6.53h-1.06v-13.5h1.05v5.6zM127.78 54.52q0-1.37.53-2.47.55-1.1 1.5-1.7 1-.62 2.23-.62 1.9 0 3.07 1.34 1.17 1.33 1.17 3.52v.2q0 1.4-.54 2.5-.52 1.1-1.5 1.7-.96.6-2.2.6-1.9 0-3.07-1.34-1.18-1.34-1.18-3.54v-.2zm1.05.3q0 1.7.88 2.8.9 1.1 2.34 1.1 1.43 0 2.3-1.1.9-1.1.9-2.9v-.2q0-1.1-.4-2-.42-.9-1.14-1.4-.74-.5-1.68-.5-1.4 0-2.3 1.12-.9 1.1-.9 2.88v.2zM142.84 50.8q-.33-.05-.7-.05-1 0-1.68.55-.68.54-.97 1.6v6.52h-1.07v-9.5h1.03l.02 1.5q.83-1.7 2.67-1.7.44 0 .7.13l-.03.96zM146.58 47.48v2.43h1.97v.88h-1.97v6.34q0 .8.28 1.2.3.37.96.37.26 0 .85-.1l.04.86q-.4.15-1.1.15-1.1 0-1.57-.62-.5-.63-.5-1.85v-6.35h-1.74v-.86h1.73V47.5h1.06zM154.57 54.52q0-1.37.53-2.47t1.5-1.7q.97-.62 2.2-.62 1.9 0 3.08 1.34 1.18 1.33 1.18 3.52v.2q0 1.4-.54 2.5-.52 1.1-1.5 1.7-.96.6-2.2.6-1.9 0-3.07-1.34-1.18-1.34-1.18-3.54v-.2zm1.05.3q0 1.7.88 2.8.9 1.1 2.32 1.1 1.43 0 2.3-1.1.9-1.1.9-2.9v-.2q0-1.1-.4-2-.42-.9-1.14-1.4-.73-.5-1.67-.5-1.4 0-2.3 1.12-.87 1.1-.87 2.88v.2zM168.06 57.97l2.9-8.06h1.07l-3.55 9.53h-.85l-3.57-9.5h1.08l2.92 8.05zM177.32 59.6q-1.2 0-2.2-.6-.97-.6-1.52-1.66-.54-1.08-.54-2.4v-.38q0-1.37.52-2.47.54-1.1 1.5-1.74.94-.64 2.05-.64 1.73 0 2.74 1.2 1.02 1.17 1.02 3.22v.6h-6.8v.2q0 1.6.9 2.7.95 1.06 2.35 1.06.85 0 1.5-.3.64-.3 1.17-.98l.66.5q-1.18 1.68-3.38 1.68zm-.2-8.97q-1.18 0-2 .87-.8.87-.98 2.34h5.7v-.12q-.04-1.37-.78-2.23-.74-.88-1.93-.88zM187.35 50.8q-.33-.05-.7-.05-1 0-1.68.55-.68.54-.97 1.6v6.52h-1.05v-9.5h1.03l.02 1.5q.84-1.7 2.68-1.7.44 0 .7.13l-.03.96zM192.14 57.97l2.9-8.06h1.07l-3.53 9.53h-.85l-3.56-9.5h1.08l2.92 8.05zM199 59.42h-1.06v-9.5H199v9.5zm-1.24-12.26q0-.3.2-.5t.52-.2q.33 0 .53.2t.2.5-.2.5q-.2.2-.5.2-.34 0-.54-.2t-.2-.5zM205.55 59.6q-1.2 0-2.2-.6-.97-.6-1.52-1.66-.54-1.08-.54-2.4v-.38q0-1.37.5-2.47.54-1.1 1.5-1.74.94-.64 2.05-.64 1.73 0 2.74 1.2 1 1.17 1 3.22v.6h-6.8v.2q0 1.6.94 2.7.94 1.06 2.34 1.06.84 0 1.48-.3.65-.3 1.18-.98l.66.5q-1.17 1.68-3.37 1.68zm-.2-8.97q-1.18 0-2 .87-.8.87-.98 2.34h5.7v-.12q-.04-1.37-.78-2.23-.76-.88-1.95-.88zM213.46 57.23l.16.82.2-.86 2.3-7.3h.9l2.25 7.22.24 1 .23-.92 1.95-7.3h1.1l-2.8 9.52h-.9l-2.43-7.54-.12-.52-.1.53-2.4 7.5h-.9l-2.77-9.5h1.08l2.02 7.3zM228.57 54.52q0-1.37.53-2.47t1.5-1.7q.97-.62 2.2-.62 1.9 0 3.08 1.34 1.18 1.33 1.18 3.52v.2q0 1.4-.54 2.5-.52 1.1-1.5 1.7-.96.6-2.2.6-1.9 0-3.07-1.34-1.18-1.34-1.18-3.54v-.2zm1.05.3q0 1.7.88 2.8.9 1.1 2.32 1.1 1.43 0 2.3-1.1.9-1.1.9-2.9v-.2q0-1.1-.4-2-.42-.9-1.14-1.4-.73-.5-1.67-.5-1.4 0-2.3 1.12-.87 1.1-.87 2.88v.2zM240 59.42v-8.65h-1.57v-.86H240v-1.13q0-1.46.74-2.24.74-.78 2.07-.78.6 0 1.14.14l-.08.87q-.44-.1-.96-.1-.88 0-1.36.54-.5.55-.5 1.54v1.18h2.28v.87h-2.27v8.64H240zM251.25 47.48v2.43h1.97v.88h-1.97v6.34q0 .8.28 1.2.3.37.96.37.24 0 .83-.1l.04.86q-.4.15-1.12.15-1.08 0-1.57-.62-.5-.63-.5-1.85v-6.35h-1.75v-.86h1.74V47.5h1.05zM256.46 51.52q.52-.85 1.33-1.32.8-.47 1.74-.47 1.53 0 2.28.87.75.86.76 2.58v6.24h-1.06v-6.25q0-1.27-.55-1.9-.53-.62-1.7-.62-.98 0-1.73.6-.75.62-1.1 1.66v6.53h-1.06v-13.5h1.06v5.6zM268.97 59.6q-1.2 0-2.2-.6-.97-.6-1.52-1.66-.54-1.08-.54-2.4v-.38q0-1.37.54-2.47t1.5-1.74q.94-.64 2.05-.64 1.72 0 2.73 1.2 1.02 1.17 1.02 3.22v.6h-6.8v.2q0 1.6.93 2.7.94 1.06 2.34 1.06.86 0 1.5-.3.65-.3 1.18-.98l.66.5Q271.2 59.6 269 59.6zm-.2-8.97q-1.18 0-2 .87-.8.87-.98 2.34h5.7v-.12q-.06-1.37-.8-2.23-.74-.88-1.93-.88zM281.28 57.23l.16.82.2-.86 2.3-7.3h.9l2.25 7.22.22 1 .2-.92 1.96-7.3h1.08l-2.78 9.52h-.9l-2.44-7.54-.12-.52-.1.53-2.4 7.5h-.9l-2.77-9.5h1.08l2.02 7.3zM293.62 51.52q.52-.85 1.33-1.32.8-.47 1.76-.47 1.55 0 2.3.87.75.86.76 2.58v6.24h-1.05v-6.25q0-1.27-.54-1.9-.52-.62-1.7-.62-.97 0-1.72.6-.75.62-1.1 1.66v6.53h-1.06v-13.5h1.05v5.6zM301.87 54.52q0-1.37.53-2.47t1.5-1.7q.97-.62 2.2-.62 1.9 0 3.08 1.34 1.18 1.33 1.18 3.52v.2q0 1.4-.54 2.5-.52 1.1-1.5 1.7-.96.6-2.2.6-1.9 0-3.07-1.34-1.18-1.34-1.18-3.54v-.2zm1.05.3q0 1.7.88 2.8.9 1.1 2.32 1.1 1.43 0 2.3-1.1.9-1.1.9-2.9v-.2q0-1.1-.4-2-.42-.9-1.14-1.4-.73-.5-1.67-.5-1.4 0-2.3 1.12-.87 1.1-.87 2.88v.2zM313.72 59.42h-1.06v-13.5h1.06v13.5zM320.27 59.6q-1.2 0-2.2-.6-.97-.6-1.52-1.66-.54-1.08-.54-2.4v-.38q0-1.37.54-2.47t1.5-1.74q.94-.64 2.05-.64 1.72 0 2.73 1.2 1.02 1.17 1.02 3.22v.6h-6.8v.2q0 1.6.93 2.7.94 1.06 2.34 1.06.86 0 1.5-.3.65-.3 1.18-.98l.66.5q-1.17 1.68-3.37 1.68zm-.2-8.97q-1.18 0-2 .87-.8.87-.98 2.34h5.7v-.12q-.06-1.37-.8-2.23-.74-.88-1.93-.88zM337.94 54.76q0 2.23-1 3.54-.97 1.3-2.62 1.3-1.95 0-3-1.38v4.86h-1.04V49.9h.98l.05 1.36q1.05-1.53 3-1.53 1.7 0 2.67 1.3.98 1.3.98 3.58v.17zm-1.06-.18q0-1.82-.74-2.88t-2.1-1.05q-.95 0-1.65.46-.7.5-1.08 1.38v4.56q.38.82 1.08 1.25.7.42 1.67.42 1.33 0 2.07-1.05.74-1.06.74-3.07zM346.28 59.42q-.16-.45-.2-1.33-.56.7-1.42 1.1-.85.4-1.8.4-1.38 0-2.23-.78-.85-.76-.85-1.93 0-1.4 1.16-2.2 1.16-.8 3.22-.8h1.9v-1.1q0-1-.62-1.6-.63-.6-1.83-.6-1.1 0-1.8.57t-.72 1.36H340q0-1.14 1.07-1.97 1.05-.84 2.6-.84 1.58 0 2.5.8.92.8.94 2.22v4.5q0 1.38.3 2.06v.12h-1.1zm-3.3-.76q1.05 0 1.88-.5.83-.52 1.2-1.37v-2.1h-1.87q-1.6 0-2.48.57-.9.55-.9 1.53 0 .8.6 1.34.6.52 1.54.52zM357.56 54.76q0 2.23-1 3.54-.97 1.3-2.62 1.3-1.95 0-3-1.38v4.86h-1.04V49.9h.98l.05 1.36q1.03-1.53 2.98-1.53 1.73 0 2.7 1.3.97 1.3.97 3.58v.17zm-1.06-.18q0-1.82-.74-2.88t-2.1-1.05q-.95 0-1.65.46-.67.5-1.04 1.38v4.56q.38.82 1.08 1.25.7.42 1.66.42 1.32 0 2.06-1.05.74-1.06.74-3.07zM363.58 59.6q-1.2 0-2.2-.6-.97-.6-1.52-1.66-.54-1.08-.54-2.4v-.38q0-1.37.52-2.47.54-1.1 1.5-1.74.94-.64 2.05-.64 1.7 0 2.72 1.2 1.02 1.17 1.02 3.22v.6h-6.8v.2q0 1.6.93 2.7.94 1.06 2.34 1.06.86 0 1.5-.3.65-.3 1.18-.98l.65.5q-1.17 1.68-3.37 1.68zm-.2-8.97q-1.18 0-2 .87-.8.87-.98 2.34h5.7v-.12q-.04-1.37-.78-2.23-.74-.88-1.93-.88zM373.6 50.8q-.32-.05-.7-.05-1 0-1.67.55-.68.54-.97 1.6v6.52h-1.05v-9.5h1.05l.02 1.5q.84-1.7 2.68-1.7.44 0 .7.13l-.03.96zM2.34 84.42H1.28v-9.5h1.06v9.5zM1.1 72.16q0-.3.2-.5t.52-.2.53.2q.2.2.2.5t-.2.5q-.2.2-.53.2t-.53-.2-.2-.5zM6.2 74.9l.04 1.64q.54-.88 1.34-1.34.8-.47 1.76-.47 1.53 0 2.28.87.75.86.75 2.58v6.24h-1.04v-6.25q0-1.27-.55-1.9-.52-.62-1.7-.62-.97 0-1.72.6-.75.62-1.1 1.66v6.53H5.2v-9.5h1zM24.2 84.42h-1.05V72.9l-3.48 1.28v-.98l4.36-1.62h.17v12.84zM41.5 79.76q0 2.23-.98 3.54-1 1.3-2.64 1.3-1.95 0-3-1.38v4.86h-1.03V74.9h.97l.06 1.36q1.02-1.53 2.97-1.53 1.7 0 2.68 1.3.97 1.3.97 3.58v.17zm-1.05-.18q0-1.82-.75-2.88t-2.08-1.05q-.97 0-1.66.46-.7.5-1.07 1.38v4.56q.36.82 1.06 1.25.7.42 1.66.42 1.33 0 2.07-1.05.74-1.06.74-3.07zM49.84 84.42q-.16-.45-.2-1.33-.55.7-1.4 1.1-.87.4-1.82.4-1.38 0-2.23-.78-.86-.76-.86-1.93 0-1.4 1.15-2.2 1.15-.8 3.22-.8h1.9v-1.1q0-1-.63-1.6-.63-.6-1.84-.6-1.1 0-1.82.57t-.72 1.36h-1.05q0-1.14 1.05-1.97 1.06-.84 2.6-.84 1.58 0 2.5.8.92.8.95 2.22v4.5q0 1.38.3 2.06v.12h-1.14zm-3.3-.76q1.05 0 1.88-.5.83-.52 1.2-1.37v-2.1h-1.87q-1.57 0-2.46.57-.9.55-.9 1.53 0 .8.6 1.34.6.52 1.53.52zM53.05 79.58q0-2.24 1-3.54.98-1.3 2.67-1.3 1.95 0 2.96 1.54l.05-1.37h1v9.34q0 1.83-1.04 2.9t-2.8 1.08q-1 0-1.9-.44-.9-.44-1.4-1.18l.57-.63q1.1 1.37 2.65 1.37 1.32 0 2.06-.78.73-.78.75-2.16v-1.2q-1 1.42-2.94 1.42-1.65 0-2.66-1.32t-1-3.56v-.14zm1.06.18q0 1.82.75 2.88.73 1.04 2.06 1.04 1.95 0 2.76-1.74v-4.42q-.37-.9-1.06-1.4-.7-.47-1.68-.47-1.33 0-2.07 1.04-.74 1.02-.74 3.05zM67.14 84.6q-1.2 0-2.2-.6-.97-.6-1.52-1.66-.54-1.08-.54-2.4v-.38q0-1.37.52-2.47.54-1.1 1.5-1.74.94-.64 2.05-.64 1.73 0 2.74 1.2 1 1.17 1 3.22v.6h-6.8v.2q0 1.6.94 2.7.93 1.06 2.33 1.06.85 0 1.5-.3.64-.3 1.17-.98l.66.5q-1.15 1.68-3.36 1.68zm-.2-8.97q-1.18 0-2 .87-.8.87-.98 2.34h5.7v-.12q-.04-1.37-.78-2.23-.74-.88-1.93-.88zM77.03 79.25q0-1.9.5-3.72.48-1.8 1.43-3.3.95-1.5 2.04-2.15l.25.7q-.58.42-1.15 1.2-.57.8-1.02 1.9-.44 1.08-.73 2.45-.27 1.35-.27 3.07 0 1.84.4 3.53.44 1.7 1.17 3t1.6 1.94l-.25.68q-1.12-.67-2.07-2.16-.94-1.5-1.43-3.3-.47-1.8-.47-3.86zM90.75 84.42h-8.02v-.8l4.4-4.98q1.08-1.26 1.5-2.08.42-.8.42-1.6 0-1.2-.7-1.9-.72-.72-1.97-.72-1.3 0-2.1.83-.78.83-.78 2.14h-1.05q0-1.06.48-1.94.5-.9 1.4-1.4.9-.5 2.05-.5 1.76 0 2.74.92 1 .92 1 2.5 0 .9-.57 1.97Q89 77.9 87.6 79.5L84 83.53h6.73v.9zM93.43 77.86l.62-6.24h6.4v.98h-5.5l-.44 4.32q1.05-.7 2.43-.7 1.73 0 2.76 1.12 1.02 1.13 1.02 3 0 2.02-1 3.14T96.9 84.6q-1.67 0-2.7-.94t-1.2-2.6h1q.15 1.3.9 1.98.73.67 1.98.67 1.37 0 2.07-.85.7-.87.7-2.48 0-1.4-.78-2.3t-2.14-.88q-.74 0-1.3.2-.55.17-1.17.7l-.83-.23zM110.42 79.1q0 2.7-1 4.1-1 1.4-2.92 1.4-1.9 0-2.9-1.38-1.02-1.38-1.05-4v-2.3q0-2.7 1-4.08t2.93-1.4q1.9 0 2.9 1.35 1 1.32 1.04 3.93v2.35zm-1.06-2.3q0-2.2-.72-3.33-.7-1.13-2.16-1.13-1.42 0-2.14 1.1t-.74 3.25v2.5q0 2.2.74 3.34.74 1.16 2.16 1.16 1.4 0 2.13-1.13t.73-3.32V76.8zM119.52 82.23l.16.82.2-.86 2.3-7.3h.9l2.25 7.22.24 1 .2-.92 1.96-7.3h1.1l-2.8 9.52h-.9l-2.43-7.54-.12-.52-.1.53-2.4 7.5h-.9l-2.76-9.5h1.08l2.02 7.3zM130.24 79.52q0-1.37.53-2.47t1.5-1.7q.97-.62 2.2-.62 1.9 0 3.08 1.34 1.18 1.33 1.18 3.52v.2q0 1.4-.54 2.5t-1.5 1.7q-.98.6-2.2.6-1.9 0-3.1-1.34-1.17-1.34-1.17-3.54v-.2zm1.05.3q0 1.7.86 2.8.9 1.1 2.32 1.1t2.3-1.1q.88-1.1.88-2.9v-.2q0-1.1-.4-2-.4-.9-1.13-1.4-.73-.5-1.67-.5-1.4 0-2.3 1.12-.9 1.1-.9 2.88v.2zM145.3 75.8q-.33-.05-.7-.05-1 0-1.68.55-.68.54-.97 1.6v6.52h-1.05v-9.5h1.03l.02 1.5q.84-1.7 2.68-1.7.44 0 .7.13l-.03.96zM146.36 79.58q0-2.22.98-3.53 1-1.32 2.7-1.32 1.92 0 2.93 1.52v-5.33H154v13.5h-.97l-.04-1.27q-1.03 1.45-3 1.45-1.64 0-2.65-1.32-1-1.33-1-3.58v-.12zm1.06.18q0 1.82.73 2.88.73 1.04 2.06 1.04 1.96 0 2.78-1.7V77.5q-.82-1.85-2.74-1.85-1.33 0-2.07 1.04-.74 1.02-.74 3.05zM162.5 82q0-.78-.64-1.25-.63-.48-1.9-.74-1.26-.25-1.96-.6t-1.04-.85q-.33-.5-.33-1.2 0-1.14.94-1.87.94-.74 2.4-.74 1.6 0 2.55.8.97.78.97 2.04h-1.07q0-.83-.7-1.4-.7-.54-1.76-.54-1.04 0-1.67.47-.62.46-.62 1.2 0 .7.52 1.1.53.4 1.9.7 1.4.35 2.08.7.7.38 1.03.9.35.5.35 1.26 0 1.2-.97 1.93-.97.7-2.53.7-1.66 0-2.7-.8-1.03-.8-1.03-2.03h1.07q.05.92.76 1.44.72.5 1.9.5 1.1 0 1.77-.47.7-.48.7-1.22zM169.05 79.38q0 1.94-.48 3.73-.48 1.8-1.42 3.3-.94 1.5-2.07 2.16l-.26-.68q.86-.6 1.6-1.9.73-1.3 1.15-3 .42-1.73.42-3.74 0-1.82-.44-3.5-.42-1.7-1.17-3.03-.74-1.33-1.6-1.94l.27-.67q1.1.66 2.04 2.15.95 1.48 1.45 3.3.5 1.8.5 3.84zM179.85 84.6q-1.2 0-2.2-.6-.97-.6-1.52-1.66-.54-1.08-.54-2.4v-.38q0-1.37.5-2.47.54-1.1 1.5-1.74.94-.64 2.05-.64 1.73 0 2.74 1.2 1 1.17 1 3.22v.6h-6.8v.2q0 1.6.94 2.7.94 1.06 2.34 1.06.84 0 1.48-.3.65-.3 1.18-.98l.66.5q-1.17 1.68-3.37 1.68zm-.2-8.97q-1.18 0-2 .87-.8.87-.98 2.34h5.7v-.12q-.04-1.37-.78-2.23-.76-.88-1.95-.88zM186.44 74.9l.03 1.56q.53-.86 1.32-1.3.77-.43 1.74-.43 2.25 0 2.86 1.85.52-.9 1.37-1.36.85-.5 1.88-.5 3.06 0 3.12 3.35v6.35h-1.05v-6.27q0-1.27-.56-1.9-.53-.6-1.76-.6-1.13.02-1.9.74-.8.7-.88 1.72v6.3h-1.06v-6.36q0-1.22-.58-1.82-.56-.6-1.74-.6-1 0-1.7.57t-1.06 1.7v6.5h-1.05v-9.5h1zM209.1 79.76q0 2.23-1 3.54-.97 1.3-2.63 1.3-2 0-3-1.48l-.05 1.3h-.98v-13.5h1.04v5.37q1-1.58 2.98-1.58 1.68 0 2.66 1.3.98 1.28.98 3.57v.15zm-1.06-.18q0-1.88-.73-2.9-.7-1.03-2.03-1.03-1 0-1.72.5-.7.5-1.06 1.45v4.3q.8 1.78 2.8 1.78 1.3 0 2.02-1.03.74-1.02.74-3.07zM215.83 75.8q-.33-.05-.7-.05-1 0-1.68.55-.68.54-.97 1.6v6.52h-1.05v-9.5h1.03l.02 1.5q.84-1.7 2.68-1.7.44 0 .7.13l-.03.96zM223.13 84.42q-.16-.45-.2-1.33-.56.7-1.42 1.1-.83.4-1.8.4-1.36 0-2.2-.78-.86-.76-.86-1.93 0-1.4 1.16-2.2 1.15-.8 3.2-.8h1.92v-1.1q0-1-.63-1.6-.65-.6-1.85-.6-1.1 0-1.82.57t-.72 1.36h-1.05q0-1.14 1.06-1.97 1.06-.84 2.6-.84 1.6 0 2.5.8.93.8.95 2.22v4.5q0 1.38.3 2.06v.12h-1.13zm-3.3-.76q1.05 0 1.88-.5.85-.52 1.23-1.37v-2.1h-1.88q-1.58 0-2.46.57-.9.55-.9 1.53 0 .8.6 1.34.6.52 1.53.52zM230.27 83.7q1.1 0 1.84-.6.76-.63.8-1.62h1.04q-.05.87-.55 1.6-.5.7-1.35 1.1-.82.42-1.77.42-1.87 0-2.97-1.3t-1.1-3.5v-.32q0-1.4.5-2.5.5-1.07 1.4-1.66.94-.6 2.17-.6 1.56 0 2.58.95 1 .93 1.1 2.45h-1.03q-.06-1.12-.8-1.8-.72-.7-1.84-.7-1.42 0-2.2 1.04-.8 1.03-.8 2.88v.3q0 1.83.8 2.85.78 1 2.2 1zM237.22 84.42h-1.06v-9.5h1.06v9.5zm-1.24-12.26q0-.3.2-.5t.52-.2.53.2q.2.2.2.5t-.2.5q-.2.2-.53.2t-.53-.2-.2-.5zM241.08 74.9l.03 1.64q.56-.88 1.36-1.34.8-.47 1.77-.47 1.53 0 2.27.87.74.86.75 2.58v6.24h-1.05v-6.25q0-1.27-.54-1.9-.53-.62-1.7-.62-.97 0-1.73.6-.75.62-1.1 1.66v6.53h-1.05v-9.5h1zM249.54 79.58q0-2.24.98-3.54 1-1.3 2.7-1.3 1.94 0 2.95 1.54l.05-1.37h.98v9.34q0 1.83-1.03 2.9t-2.78 1.08q-1 0-1.9-.44-.9-.44-1.43-1.18l.58-.63q1.12 1.37 2.66 1.37 1.33 0 2.07-.78.73-.78.76-2.16v-1.2q-1 1.42-2.94 1.42-1.67 0-2.67-1.32t-1-3.56v-.14zm1.06.18q0 1.82.73 2.88.73 1.04 2.06 1.04 1.92 0 2.73-1.74v-4.42q-.37-.9-1.06-1.4-.7-.47-1.67-.47-1.32 0-2.06 1.04-.74 1.02-.74 3.05zM265.98 72.48v2.43h1.97v.88h-1.97v6.34q0 .8.28 1.2.3.37.96.37.26 0 .85-.1l.04.86q-.4.15-1.1.15-1.1 0-1.57-.62-.5-.63-.5-1.85v-6.35h-1.74v-.86h1.73V72.5H266zM271.2 76.52q.5-.85 1.32-1.32.8-.47 1.76-.47 1.53 0 2.28.87.75.86.76 2.58v6.24h-1.05v-6.25q0-1.27-.55-1.9-.52-.62-1.7-.62-.97 0-1.72.6-.75.62-1.1 1.66v6.53h-1.06v-13.5h1.05v5.6zM283.7 84.6q-1.2 0-2.2-.6-.97-.6-1.52-1.66-.54-1.08-.54-2.4v-.38q0-1.37.52-2.47.54-1.1 1.5-1.74.94-.64 2.05-.64 1.75 0 2.76 1.2 1.02 1.17 1.02 3.22v.6h-6.8v.2q0 1.6.93 2.7.95 1.06 2.35 1.06.85 0 1.5-.3.64-.3 1.17-.98l.67.5q-1.18 1.68-3.38 1.68zm-.2-8.97q-1.18 0-2 .87-.8.87-.98 2.34h5.7v-.12q-.04-1.37-.78-2.23-.74-.88-1.93-.88zM294.7 74.9l.02 1.56q.53-.86 1.32-1.3.8-.43 1.76-.43 2.25 0 2.86 1.85.5-.9 1.36-1.36.85-.5 1.88-.5 3.06 0 3.12 3.35v6.35h-1.05v-6.27q0-1.27-.56-1.9-.5-.6-1.74-.6-1.13.02-1.9.74-.8.7-.88 1.72v6.3h-1.06v-6.36q0-1.22-.57-1.82-.56-.6-1.74-.6-1 0-1.7.57t-1.06 1.7v6.5h-1.05v-9.5h1zM309.1 79.52q0-1.37.54-2.47.53-1.1 1.5-1.7.97-.62 2.2-.62 1.9 0 3.08 1.34 1.18 1.33 1.18 3.52v.2q0 1.4-.54 2.5-.52 1.1-1.5 1.7-.96.6-2.2.6-1.9 0-3.07-1.34-1.2-1.34-1.2-3.54v-.2zm1.06.3q0 1.7.88 2.8.9 1.1 2.32 1.1 1.43 0 2.3-1.1.9-1.1.9-2.9v-.2q0-1.1-.4-2-.42-.9-1.14-1.4-.73-.5-1.67-.5-1.4 0-2.3 1.12-.9 1.1-.9 2.88v.2zM325.48 82q0-.78-.63-1.25-.63-.48-1.9-.74-1.26-.25-1.96-.6t-1.06-.85q-.33-.5-.33-1.2 0-1.14.95-1.87.94-.74 2.4-.74 1.6 0 2.55.8.98.78.98 2.04h-1.05q0-.83-.7-1.4-.7-.54-1.76-.54-1.04 0-1.67.47-.63.46-.63 1.2 0 .7.52 1.1.5.4 1.9.7 1.4.35 2.06.7.7.38 1.03.9.32.5.32 1.26 0 1.2-.97 1.93-.97.7-2.53.7-1.66 0-2.7-.8-1.03-.8-1.03-2.03h1.05q.06.92.77 1.44.72.5 1.9.5 1.1 0 1.77-.47.67-.48.67-1.22zM330.52 72.48v2.43h1.97v.88h-2v6.34q0 .8.3 1.2.3.37.95.37.26 0 .85-.1l.05.86q-.4.15-1.12.15-1.08 0-1.57-.62-.5-.63-.5-1.85v-6.35h-1.74v-.86h1.74V72.5h1.06zM2.34 109.42H1.28v-9.5h1.06v9.5zM1.1 97.16q0-.3.2-.5t.52-.2.53.2q.2.2.2.5t-.2.5q-.2.2-.53.2t-.53-.2-.2-.5zM6.16 99.9l.04 1.56q.52-.86 1.3-1.3.8-.43 1.77-.43 2.25 0 2.86 1.85.5-.9 1.36-1.36.83-.5 1.86-.5 3.06 0 3.12 3.35v6.35h-1.06v-6.27q0-1.27-.56-1.9-.53-.6-1.75-.6-1.13.02-1.9.74-.78.7-.87 1.72v6.3H11.3v-6.36q-.02-1.22-.6-1.82-.56-.6-1.74-.6-1 0-1.7.57t-1.05 1.7v6.5H5.17v-9.5h1zM28.8 104.76q0 2.22-.97 3.53-1 1.3-2.64 1.3-1.97 0-3-1.4v4.86h-1.06V99.9h.98l.05 1.35q1.03-1.52 2.98-1.52 1.7 0 2.67 1.3.98 1.3.98 3.58v.17zm-1.04-.18q0-1.82-.75-2.88t-2.06-1.05q-.97 0-1.67.46-.7.5-1.06 1.38v4.56q.4.8 1.1 1.25.7.42 1.65.42 1.33 0 2.07-1.05.76-1.06.76-3.07zM30.57 104.52q0-1.37.53-2.47t1.5-1.7q.97-.62 2.2-.62 1.9 0 3.08 1.34 1.18 1.32 1.18 3.52v.2q0 1.4-.54 2.5-.53 1.1-1.5 1.7-.96.6-2.2.6-1.9 0-3.07-1.35-1.18-1.33-1.18-3.53v-.2zm1.05.3q0 1.7.88 2.8.9 1.08 2.32 1.08 1.43 0 2.3-1.1.9-1.08.9-2.88v-.2q0-1.1-.4-2-.42-.9-1.15-1.4-.73-.5-1.67-.5-1.4 0-2.3 1.1-.88 1.1-.88 2.9v.2zM45.63 100.8q-.33-.05-.7-.05-1 0-1.68.55-.68.55-.97 1.6v6.52h-1.04v-9.5h1.03v1.5q.85-1.68 2.7-1.68.43 0 .7.1l-.04.97zM49.38 97.48v2.43h1.97v.88h-1.97v6.34q0 .8.28 1.2.3.37.96.37.26 0 .85-.1l.04.86q-.4.15-1.1.15-1.1 0-1.6-.62-.47-.63-.47-1.85v-6.35h-1.75v-.86h1.75V97.5h1.06zM59.55 109.42q-.16-.45-.2-1.33-.56.7-1.42 1.1-.85.4-1.8.4-1.38 0-2.24-.78-.86-.76-.86-1.93 0-1.4 1.15-2.2 1.15-.8 3.22-.8h1.9v-1.1q0-1-.63-1.6-.63-.6-1.84-.6-1.1 0-1.82.57t-.72 1.36h-1.05q0-1.14 1.05-1.97 1.06-.84 2.6-.84 1.6 0 2.5.8.92.8.95 2.22v4.5q0 1.38.3 2.06v.12h-1.13zm-3.3-.76q1.05 0 1.87-.5.84-.52 1.22-1.37v-2.1h-1.9q-1.56 0-2.45.57-.9.55-.9 1.53 0 .8.6 1.34.6.52 1.53.52zM64.18 99.9l.03 1.64q.56-.88 1.36-1.34.8-.47 1.77-.47 1.52 0 2.27.87.74.86.75 2.58v6.24H69.3v-6.25q0-1.27-.54-1.9-.53-.62-1.7-.62-.97 0-1.73.6-.75.62-1.1 1.66v6.53h-1.05v-9.5h1zM74.7 97.48v2.43h1.96v.88H74.7v6.34q0 .8.27 1.2.3.37.96.37.26 0 .85-.1l.04.86q-.4.15-1.12.15-1.08 0-1.57-.62-.5-.63-.5-1.85v-6.35H71.9v-.86h1.73V97.5h1.06zM84.9 97.48l-.03 2.43h1.97v.88H84.9l-.02 6.34q0 .8.3 1.2.28.37.94.37.27 0 .86-.1l.04.86q-.4.15-1.12.15-1.1 0-1.58-.62-.5-.63-.5-1.85v-6.35H82.1v-.86h1.75V97.5h1.06zM90.1 101.52q.52-.85 1.32-1.32.8-.46 1.77-.46 1.5 0 2.26.86.74.86.75 2.58v6.24h-1.03v-6.25q0-1.27-.55-1.9-.53-.62-1.7-.62-.97 0-1.73.62-.75.6-1.1 1.64v6.53h-1.06v-13.5h1.05v5.6zM100.1 109.42h-1.05v-9.5h1.06v9.5zm-1.23-12.26q0-.3.2-.5.18-.2.52-.2t.5.2q.2.2.2.5t-.2.5q-.2.2-.52.2t-.54-.2-.2-.5zM103.98 99.9l.03 1.64q.56-.88 1.36-1.34.8-.47 1.77-.47 1.53 0 2.27.87.74.86.75 2.58v6.24h-1.05v-6.25q0-1.27-.54-1.9-.53-.62-1.7-.62-.97 0-1.73.6-.75.62-1.1 1.66v6.53h-1.05v-9.5h1zM112.43 104.58q0-2.23.98-3.53 1-1.3 2.7-1.3 1.96 0 2.97 1.53l.05-1.37h1v9.34q0 1.84-1.04 2.9t-2.78 1.08q-1 0-1.9-.44-.9-.44-1.4-1.18l.57-.63q1.12 1.37 2.66 1.37 1.33 0 2.06-.78.73-.77.76-2.15v-1.2q-1 1.4-2.94 1.4-1.67 0-2.67-1.3t-1-3.57v-.14zm1.06.18q0 1.82.7 2.88.74 1.04 2.07 1.04 1.94 0 2.75-1.74v-4.42q-.37-.9-1.06-1.4-.7-.47-1.67-.47-1.34 0-2.08 1.05-.74 1.03-.74 3.06zM128.53 107q0-.78-.63-1.26-.63-.47-1.9-.74-1.26-.27-1.96-.6-.7-.36-1.04-.86-.33-.5-.33-1.22 0-1.12.94-1.85.96-.74 2.43-.74 1.6 0 2.54.8.97.77.97 2.04h-1.05q0-.83-.7-1.4-.7-.54-1.77-.54-1.04 0-1.67.46-.63.44-.63 1.2 0 .7.52 1.1.53.37 1.9.7 1.4.32 2.08.7.7.36 1.03.9.33.5.33 1.24 0 1.2-.98 1.92-.96.72-2.52.72-1.66 0-2.7-.8-1.03-.82-1.03-2.05h1.06q.07.93.78 1.45.73.5 1.9.5 1.1 0 1.78-.48.68-.48.68-1.22zM137.3 99.9l.02 1.56q.53-.86 1.32-1.3.8-.43 1.76-.43 2.25 0 2.86 1.85.5-.9 1.36-1.36.85-.5 1.88-.5 3.06 0 3.12 3.35v6.35h-1.05v-6.27q0-1.27-.56-1.9-.5-.6-1.74-.6-1.13.02-1.9.74-.8.7-.88 1.72v6.3h-1.06v-6.36q0-1.22-.57-1.82-.56-.6-1.74-.6-1 0-1.7.57t-1.06 1.7v6.5h-1.05v-9.5h1zM155.98 109.6q-1.2 0-2.2-.6-.97-.6-1.52-1.66-.54-1.07-.54-2.4v-.38q0-1.37.52-2.47.54-1.1 1.5-1.74.94-.63 2.05-.63 1.7 0 2.72 1.2 1.02 1.16 1.02 3.2v.6h-6.8v.2q0 1.62.93 2.7.94 1.07 2.34 1.07.86 0 1.5-.3.65-.3 1.18-.98l.65.5q-1.17 1.68-3.37 1.68zm-.2-8.96q-1.18 0-2 .87-.8.9-.98 2.35h5.7v-.1q-.04-1.38-.78-2.24-.74-.85-1.93-.85zM162.62 99.9l.03 1.64q.54-.88 1.34-1.34.8-.47 1.75-.47 1.53 0 2.27.87.75.86.76 2.58v6.24h-1.06v-6.25q0-1.27-.54-1.9-.53-.62-1.7-.62-.97 0-1.73.6-.75.62-1.1 1.66v6.53h-1.05v-9.5h1zM173.13 97.48v2.43h1.97v.88h-1.97v6.34q0 .8.28 1.2.3.37.98.37.26 0 .85-.1l.04.86q-.4.15-1.12.15-1.08 0-1.57-.62-.5-.63-.5-1.85v-6.35h-1.74v-.86h1.74V97.5h1.06zM178.47 109.42h-1.06v-9.5h1.08v9.5zm-1.24-12.26q0-.3.2-.5t.52-.2q.33 0 .53.2t.2.5-.2.5q-.2.2-.53.2t-.53-.2-.2-.5zM180.76 104.52q0-1.37.53-2.47.5-1.1 1.5-1.7.95-.62 2.2-.62 1.9 0 3.06 1.34 1.18 1.32 1.18 3.52v.2q0 1.4-.54 2.5-.5 1.1-1.48 1.7-.97.6-2.2.6-1.9 0-3.08-1.35-1.18-1.33-1.18-3.53v-.2zm1.05.3q0 1.7.9 2.8.9 1.08 2.3 1.08 1.45 0 2.33-1.1.88-1.08.88-2.88v-.2q0-1.1-.4-2-.4-.9-1.12-1.4-.73-.5-1.67-.5-1.4 0-2.3 1.1-.9 1.1-.9 2.9v.2zM192.43 99.9l.03 1.64q.54-.88 1.34-1.34.8-.47 1.77-.47 1.53 0 2.27.87.75.86.76 2.58v6.24h-1.05v-6.25q0-1.27-.54-1.9-.5-.62-1.7-.62-.95 0-1.7.6-.76.62-1.1 1.66v6.53h-1.06v-9.5h1zM205 109.6q-1.22 0-2.2-.6-.98-.6-1.53-1.66-.54-1.07-.54-2.4v-.38q0-1.37.52-2.47.54-1.1 1.5-1.74.94-.63 2.05-.63 1.73 0 2.74 1.2 1.02 1.16 1.02 3.2v.6h-6.8v.2q0 1.62.93 2.7.92 1.07 2.32 1.07.85 0 1.5-.3.64-.3 1.17-.98l.65.5q-1.17 1.68-3.37 1.68zm-.2-8.96q-1.2 0-2 .87-.82.9-1 2.35h5.7v-.1q-.03-1.38-.77-2.24-.74-.85-1.93-.85zM210.2 104.58q0-2.2.98-3.52 1-1.32 2.7-1.32 1.92 0 2.93 1.52v-5.34h1.06v13.5h-.98l-.04-1.26q-1 1.44-2.97 1.44-1.65 0-2.66-1.32-1-1.33-1-3.58v-.12zm1.06.18q0 1.82.73 2.88.7 1.04 2.04 1.04 1.94 0 2.76-1.7v-4.47q-.8-1.84-2.73-1.84-1.33 0-2.07 1.05-.74 1.04-.74 3.07zM232.7 104.76q0 2.22-1 3.53-.98 1.3-2.64 1.3-2 0-3-1.5l-.05 1.3h-.97V95.9h1.05v5.38q1-1.57 2.97-1.57 1.7 0 2.66 1.3 1 1.3 1 3.58v.16zm-1.07-.18q0-1.9-.73-2.9-.72-1.03-2.05-1.03-1 0-1.72.5-.7.5-1.06 1.45v4.3q.8 1.78 2.8 1.78 1.3 0 2.03-1.03.73-1.03.73-3.07zM237.93 107.9l2.78-8h1.15l-4.06 11.14-.2.5q-.8 1.72-2.44 1.72-.38 0-.8-.12l-.02-.87.55.05q.76 0 1.24-.38t.8-1.3l.48-1.3-3.58-9.43H235l2.95 8zM250.87 107.9l2.78-8h1.13l-4.06 11.14-.2.5q-.8 1.72-2.43 1.72-.4 0-.83-.12v-.87l.54.05q.78 0 1.26-.38t.8-1.3l.48-1.3-3.6-9.43h1.17l2.96 8zM255.67 104.52q0-1.37.53-2.47t1.5-1.7q.97-.62 2.2-.62 1.9 0 3.08 1.34 1.18 1.32 1.18 3.52v.2q0 1.4-.54 2.5-.52 1.1-1.5 1.7-.96.6-2.2.6-1.9 0-3.07-1.35-1.18-1.33-1.18-3.53v-.2zm1.05.3q0 1.7.88 2.8.9 1.08 2.32 1.08 1.43 0 2.3-1.1.9-1.08.9-2.88v-.2q0-1.1-.4-2-.42-.9-1.14-1.4-.73-.5-1.67-.5-1.4 0-2.3 1.1-.87 1.1-.87 2.9v.2zM272.46 108.22q-.95 1.38-3.03 1.38-1.52 0-2.3-.88-.8-.9-.82-2.62v-6.2h1.06v6.07q0 2.72 2.2 2.72 2.3 0 2.9-1.9v-6.9h1.05v9.5h-1l-.03-1.2zM280.62 100.8q-.33-.05-.7-.05-1 0-1.68.55-.68.55-.97 1.6v6.52h-1.05v-9.5h1.03l.02 1.5q.84-1.68 2.68-1.68.44 0 .7.1l-.03.97zM288.94 107.23l.16.82.2-.86 2.3-7.3h.9l2.25 7.2.24 1 .2-.9 1.94-7.3h1.1l-2.78 9.5h-.9l-2.44-7.53-.1-.52-.13.53-2.4 7.52h-.9l-2.76-9.5h1.08l2 7.3zM304.63 100.8q-.33-.05-.7-.05-1 0-1.68.55-.68.55-.97 1.6v6.52h-1.05v-9.5h1.03l.02 1.5q.84-1.68 2.68-1.68.44 0 .7.1l-.03.97zM307.46 109.42h-1.06v-9.5h1.06v9.5zm-1.24-12.26q0-.3.2-.5t.52-.2q.33 0 .53.2t.2.5-.2.5q-.2.2-.53.2t-.53-.2-.17-.5zM311.96 97.48v2.43h1.97v.88h-1.97v6.34q0 .8.28 1.2.3.37.96.37.26 0 .85-.1l.04.86q-.43.15-1.14.15-1.08 0-1.57-.62-.5-.63-.5-1.85v-6.35h-1.75v-.86h1.74V97.5h1.05zM319.8 109.6q-1.2 0-2.2-.6-.96-.6-1.5-1.66-.55-1.07-.55-2.4v-.38q0-1.37.52-2.47.54-1.1 1.5-1.74.94-.63 2.05-.63 1.73 0 2.74 1.2 1.02 1.16 1.02 3.2v.6h-6.8v.2q0 1.62.93 2.7.96 1.07 2.36 1.07.85 0 1.5-.3.64-.3 1.17-.98l.66.5q-1.18 1.68-3.38 1.68zm-.18-8.96q-1.2 0-2 .87-.82.9-1 2.35h5.7v-.1q-.03-1.38-.77-2.24-.74-.85-1.93-.85zM329.84 100.8q-.33-.05-.7-.05-1 0-1.68.55-.68.55-.97 1.6v6.52h-1.07v-9.5h1.03l.02 1.5q.83-1.68 2.67-1.68.44 0 .7.1l-.03.97zM330.3 108.8q0-.32.2-.53.2-.22.55-.22.35 0 .55.22.2.2.2.52 0 .3-.2.5t-.55.2q-.36 0-.56-.2-.2-.2-.2-.5z"/></g><g fill="#69bdf9"><path d="M304.86 165.85q.1-.97-.46-1.68-.56-.72-1.98-1.3-1.43-.56-2.1-1.1-.7-.57-1.03-1.3-.34-.7-.26-1.67.13-1.62 1.23-2.62t2.83-1.17l.35-1.94h1l-.34 1.98q1.5.22 2.26 1.36.75 1.12.6 3h-1.16q.12-1.5-.5-2.42-.63-.9-1.87-.93-1.3-.02-2.2.74-.9.74-1.03 1.97-.17 1.57 1.26 2.42.37.22 1.47.67 1.1.44 1.68.87 1.6 1.16 1.44 3.07-.13 1.63-1.26 2.64t-2.92 1.15l-.32 1.85h-1l.33-1.86q-1.13-.1-1.92-.67-.8-.57-1.15-1.5-.37-.94-.27-2.1h1.17q-.13 1.5.6 2.38.74.87 2.12.9 1.37 0 2.34-.76.97-.77 1.1-2zM321.1 169.42h-13l.22-1.42 9.22-9.13q2.92-2.94 3.2-5.3.23-1.83-.73-3.03-.95-1.2-2.84-1.26-2.05-.06-3.55 1.3-1.47 1.35-1.85 3.65h-1.68q.35-2.84 2.33-4.66t4.8-1.8q2.66.07 4.1 1.65 1.47 1.57 1.22 4-.3 2.9-3.63 6.26l-8.4 8.26h10.83l-.26 1.5zM335.92 162.55h3.22l-.26 1.48h-3.2l-.96 5.4h-1.75l.94-5.4h-9.66l.12-.98 12.1-14.96h1.97l-2.5 14.44zm-9.3 0h7.54l2.1-12-.9 1.2-8.74 10.8zM340.83 168.37q.04-.5.4-.86.4-.35.9-.37.53 0 .87.36.33.35.3.9-.04.5-.42.83-.37.32-.88.34-.5 0-.86-.33-.34-.33-.3-.86zM360.1 159.56q-1.12 1.4-2.57 2.17-1.45.76-3 .7-1.66-.03-2.86-.98t-1.76-2.55q-.52-1.6-.35-3.5.22-2.14 1.22-3.9 1-1.8 2.58-2.77 1.56-.98 3.45-.95 2.5.06 3.95 1.76 1.45 1.7 1.54 4.76.02 1.64-.43 4.35-.9 5.28-3.75 8.07-2.85 2.8-7.24 2.87h-.73l.18-1.54h.58q3.6-.06 5.87-2.15 2.26-2.1 3.3-6.35zm-5.27 1.36q1.67.06 3.16-.95 1.5-1.03 2.36-2.8.2-1.8.2-2.52 0-2.5-1-3.9-.98-1.4-2.84-1.46-1.42-.05-2.6.74-1.15.78-1.92 2.2-.75 1.42-.93 3.06-.16 1.5.2 2.8.4 1.28 1.24 2.05.88.74 2.14.77zM376.38 159.56q-1.1 1.4-2.56 2.17-1.45.76-3 .7-1.66-.03-2.86-.98t-1.76-2.55q-.54-1.6-.37-3.5.22-2.14 1.22-3.9 1-1.8 2.58-2.77 1.56-.98 3.45-.95 2.52.06 3.96 1.76 1.45 1.7 1.54 4.76.04 1.64-.4 4.35-.9 5.28-3.76 8.07-2.85 2.8-7.24 2.87h-.72l.18-1.54h.58q3.6-.06 5.86-2.15 2.27-2.1 3.3-6.35zm-5.26 1.36q1.67.06 3.16-.95 1.5-1.03 2.38-2.8.2-1.8.2-2.52 0-2.5-1-3.9-.98-1.4-2.84-1.46-1.42-.05-2.6.74-1.15.78-1.92 2.2-.76 1.42-.94 3.06-.16 1.5.2 2.8.4 1.28 1.24 2.05.86.74 2.12.77z"/></g></svg>