<svg xmlns="http://www.w3.org/2000/svg" width="380" height="180" viewBox="0 0 380 180.00001"><g fill="#383840"><path d="M1.6 14.42V.2h3.96Q7.3.2 8.7 1q1.38.8 2.15 2.28.78 1.48.78 3.38v1.3q0 1.9-.77 3.38T8.7 13.62q-1.4.8-3.23.8H1.6zm1.2-13.2v12.2h2.68q2.25 0 3.6-1.5 1.36-1.5 1.36-4.03V6.62q0-2.45-1.33-3.93Q7.8 1.25 5.6 1.24H2.8zM25.18 8.08q0 1.97-.68 3.45-.68 1.48-1.94 2.28-1.26.83-2.9.83-2.5 0-4.03-1.78-1.53-1.8-1.53-4.82V6.56q0-1.94.68-3.44.7-1.5 1.95-2.3 1.26-.8 2.9-.8t2.9.78q1.25.8 1.94 2.23.68 1.45.7 3.35v1.7zm-1.2-1.54q0-2.57-1.16-4.02-1.17-1.46-3.2-1.46-1.97 0-3.15 1.47Q15.3 3.98 15.3 6.6v1.48q0 2.53 1.17 4.02 1.17 1.47 3.18 1.47 2.04 0 3.2-1.45 1.13-1.47 1.13-4.08v-1.5zM38.02.2v9.7q0 1.44-.63 2.5-.65 1.07-1.8 1.65-1.12.57-2.6.57-2.24 0-3.6-1.23-1.35-1.25-1.4-3.4V.2h1.2v9.62q0 1.8 1.02 2.8 1.02.98 2.78.98t2.78-1q1.03-1 1.03-2.77V.2h1.23zM41.4 14.42V.2h4.2q2.28 0 3.46.95 1.18.94 1.18 2.77 0 1.1-.6 1.93-.6.8-1.65 1.16 1.22.3 1.97 1.24.77.95.77 2.2 0 1.87-1.22 2.93t-3.38 1.06H41.4zm1.2-6.84v5.82h3.6q1.54 0 2.44-.78.9-.8.9-2.18 0-1.32-.86-2.08-.86-.78-2.4-.78h-3.7zm0-1h3.27q1.5-.03 2.33-.7.83-.7.83-2 0-1.35-.86-2-.85-.65-2.58-.65h-3v5.35zM54.87 13.4h7.02v1.02h-8.25V.2h1.2v13.2zM72.06 7.6H65.4v5.8h7.65v1.02H64.2V.2H73v1.03h-7.6V6.6h6.65v1zM90.52 10q-.24 2.23-1.6 3.42-1.37 1.2-3.63 1.2-1.6 0-2.83-.8-1.2-.8-1.87-2.23-.66-1.48-.66-3.34V6.42q0-1.9.66-3.36T82.5.8q1.25-.8 2.87-.8 2.3 0 3.6 1.25 1.34 1.23 1.55 3.4h-1.2q-.46-3.62-3.95-3.62-1.93 0-3.08 1.45-1.16 1.44-1.16 4V8.2q0 2.47 1.1 3.93 1.13 1.47 3.04 1.47 1.87 0 2.83-.9t1.2-2.7h1.22zM104 14.42h-1.2V7.6h-8.14v6.82h-1.2V.2h1.2v6.4h8.13V.2h1.2v14.22zM115.45 7.6h-6.65v5.8h7.65v1.02h-8.85V.2h8.8v1.03h-7.6V6.6h6.65v1zM129.04 10q-.25 2.23-1.6 3.42-1.37 1.2-3.64 1.2-1.58 0-2.8-.8-1.2-.8-1.87-2.23-.67-1.48-.68-3.34V6.42q0-1.9.67-3.36.66-1.46 1.9-2.25 1.25-.8 2.87-.8 2.27 0 3.6 1.26 1.3 1.23 1.53 3.4h-1.2q-.46-3.62-3.95-3.62-1.94 0-3.1 1.45-1.14 1.43-1.14 4v1.7q0 2.47 1.12 3.93 1.12 1.47 3.02 1.47t2.85-.9q.95-.9 1.18-2.7h1.2zM135.18 7.36l-2 1.97v5.1h-1.2V.2h1.2v7.67L140.46.2h1.52l-5.96 6.33 6.4 7.9h-1.45l-5.8-7.07z"/></g><g fill="#929292"><path d="M5.16 53.6l3.9-6.98h1.26L5.7 54.6v4.82H4.6V54.6L0 46.62h1.28l3.88 6.98zM10.8 54.52q0-1.37.54-2.47.53-1.1 1.5-1.7.98-.62 2.2-.62 1.9 0 3.08 1.34 1.18 1.33 1.18 3.52v.2q0 1.4-.54 2.5-.52 1.1-1.5 1.7-.96.6-2.2.6-1.9 0-3.07-1.34-1.2-1.34-1.2-3.54v-.2zm1.06.3q0 1.7.88 2.8.9 1.1 2.32 1.1 1.43 0 2.3-1.1.9-1.1.9-2.9v-.2q0-1.1-.4-2-.4-.9-1.14-1.4-.73-.5-1.67-.5-1.4 0-2.3 1.12-.9 1.1-.9 2.88v.2zM27.6 58.22q-.95 1.38-3.03 1.38-1.52 0-2.32-.88-.8-.9-.8-2.62v-6.2h1.04v6.07q0 2.7 2.2 2.7 2.26 0 2.87-1.88v-6.9h1.06v9.5H27.6v-1.2zM35.75 50.8q-.33-.05-.7-.05-1 0-1.68.55-.67.54-.96 1.6v6.52h-1.03v-9.5h1.03v1.5q.84-1.7 2.7-1.7.43 0 .68.13l-.03.96zM45.32 58.7q1.1 0 1.83-.6.75-.63.8-1.62h1.02q-.04.87-.54 1.6-.5.7-1.34 1.1-.84.42-1.8.42-1.87 0-2.96-1.3-1.1-1.3-1.1-3.5v-.32q0-1.4.5-2.5t1.4-1.66q.93-.6 2.16-.6 1.57 0 2.58.95 1.02.93 1.1 2.45h-1.02q-.07-1.12-.8-1.8-.74-.7-1.85-.7-1.4 0-2.2 1.04-.8 1.03-.8 2.88v.3q0 1.83.8 2.85.8 1 2.23 1zM50.5 54.52q0-1.37.53-2.47.54-1.1 1.5-1.7.98-.62 2.2-.62 1.9 0 3.08 1.34Q59 52.4 59 54.6v.2q0 1.4-.54 2.5-.53 1.1-1.5 1.7-.96.6-2.2.6-1.9 0-3.08-1.33-1.18-1.34-1.18-3.54v-.2zm1.06.3q0 1.7.88 2.8.88 1.1 2.32 1.1 1.42 0 2.3-1.1.9-1.1.9-2.9v-.2q0-1.1-.42-2-.4-.9-1.13-1.4-.7-.5-1.65-.5-1.4 0-2.3 1.12-.88 1.1-.88 2.88v.2zM62.13 49.9l.04 1.56q.52-.86 1.3-1.3.8-.43 1.77-.43 2.25 0 2.86 1.85.5-.9 1.36-1.36.85-.5 1.88-.5 3.06 0 3.12 3.35v6.35H73.4v-6.27q0-1.27-.55-1.9-.53-.6-1.76-.6-1.15.02-1.93.74-.78.7-.87 1.72v6.3h-1.05v-6.36q0-1.22-.58-1.82-.56-.6-1.74-.6-1 0-1.7.57t-1.06 1.7v6.5h-1.05v-9.5h1zM84.78 54.76q0 2.23-1 3.54-.97 1.3-2.62 1.3-1.95 0-3-1.38v4.86h-1.04V49.9h.98l.05 1.36q1.03-1.53 2.98-1.53 1.7 0 2.67 1.3.98 1.3.98 3.58v.17zm-1.06-.18q0-1.82-.74-2.88t-2.1-1.05q-.95 0-1.65.46-.7.5-1.06 1.38v4.56q.38.82 1.08 1.25.7.42 1.66.42 1.35 0 2.1-1.05.73-1.06.73-3.07zM88.3 59.42h-1.06v-13.5h1.06v13.5zM94.84 59.6q-1.2 0-2.2-.6-.97-.6-1.5-1.66-.56-1.08-.56-2.4v-.38q0-1.37.53-2.47.55-1.1 1.5-1.74.95-.64 2.06-.64 1.73 0 2.74 1.2 1 1.17 1 3.22v.6h-6.77v.2q0 1.6.92 2.7.93 1.06 2.34 1.06.82 0 1.46-.3.65-.3 1.18-.98l.66.5q-1.15 1.68-3.36 1.68zm-.2-8.97q-1.18 0-2 .87-.8.87-.98 2.34h5.7v-.12q-.04-1.37-.78-2.23-.74-.88-1.93-.88zM102.1 47.48v2.43h1.98v.88h-1.97v6.34q0 .8.3 1.2.3.37.96.37.26 0 .85-.1l.05.86q-.4.15-1.12.15-1.08 0-1.57-.62-.5-.63-.5-1.85v-6.35H99.3v-.86h1.75V47.5h1.06zM109.96 59.6q-1.2 0-2.2-.6-.97-.6-1.52-1.66-.54-1.08-.54-2.4v-.38q0-1.37.52-2.47.54-1.1 1.5-1.74.94-.64 2.05-.64 1.73 0 2.74 1.2 1.04 1.17 1.04 3.22v.6h-6.8v.2q0 1.6.93 2.7.94 1.06 2.34 1.06.86 0 1.5-.3.65-.3 1.18-.98l.66.5q-1.17 1.68-3.37 1.68zm-.2-8.97q-1.18 0-2 .87-.8.87-.98 2.34h5.7v-.12q-.04-1.37-.78-2.23-.74-.88-1.93-.88zM115.17 54.58q0-2.22.98-3.53 1-1.32 2.7-1.32 1.92 0 2.93 1.52v-5.33h1.04v13.5h-.98l-.04-1.27q-1 1.45-2.97 1.45-1.65 0-2.66-1.32-1-1.33-1-3.58v-.12zm1.06.18q0 1.82.73 2.88.73 1.04 2.06 1.04 1.94 0 2.76-1.7V52.5q-.82-1.85-2.74-1.85-1.33 0-2.07 1.04-.74 1.02-.74 3.05zM137.66 54.76q0 2.23-1 3.54-.97 1.3-2.62 1.3-1.95 0-3-1.38v4.86H130V49.9h.98l.05 1.36q1.03-1.53 2.98-1.53 1.73 0 2.7 1.3.97 1.3.97 3.58v.17zm-1.06-.18q0-1.82-.74-2.88t-2.1-1.05q-.95 0-1.65.46-.67.5-1.04 1.38v4.56q.38.82 1.08 1.25.7.42 1.66.42 1.32 0 2.06-1.05.74-1.06.74-3.07zM146 59.42q-.16-.45-.2-1.33-.56.7-1.42 1.1-.85.4-1.8.4-1.38 0-2.23-.78-.85-.76-.85-1.93 0-1.4 1.16-2.2 1.16-.8 3.22-.8h1.9v-1.1q0-1-.62-1.6-.63-.6-1.83-.6-1.1 0-1.82.57t-.7 1.36h-1.06q0-1.14 1.06-1.97 1.04-.84 2.58-.84 1.6 0 2.5.8.93.8.95 2.22v4.5q0 1.38.3 2.06v.12H146zm-3.3-.76q1.05 0 1.88-.5.83-.52 1.2-1.37v-2.1h-1.87q-1.56 0-2.44.57-.9.55-.9 1.53 0 .8.6 1.34.6.52 1.54.52zM157.27 54.76q0 2.23-1 3.54-.97 1.3-2.62 1.3-1.95 0-3-1.38v4.86h-1.04V49.9h1l.05 1.36q1.03-1.53 2.98-1.53 1.7 0 2.67 1.3t.97 3.58v.17zm-1.06-.18q0-1.82-.72-2.88t-2.1-1.05q-.95 0-1.65.46-.7.5-1.06 1.38v4.56q.38.82 1.08 1.25.7.42 1.66.42 1.34 0 2.08-1.05.74-1.06.74-3.07zM163.3 59.6q-1.22 0-2.2-.6-.98-.6-1.53-1.66-.54-1.08-.54-2.4v-.38q0-1.37.52-2.47.54-1.1 1.5-1.74.94-.64 2.05-.64 1.73 0 2.74 1.2 1.02 1.17 1.02 3.22v.6h-6.8v.2q0 1.6.93 2.7.92 1.06 2.32 1.06.85 0 1.5-.3.64-.3 1.17-.98l.65.5q-1.17 1.68-3.37 1.68zm-.2-8.97q-1.2 0-2 .87-.82.87-1 2.34h5.7v-.12q-.03-1.37-.77-2.23-.74-.88-1.93-.88zM173.32 50.8q-.33-.05-.7-.05-1 0-1.68.55-.68.54-.97 1.6v6.52h-1.05v-9.5h1.03l.02 1.5q.84-1.7 2.68-1.7.44 0 .7.13l-.03.96zM181.64 57.23l.16.82.2-.86 2.3-7.3h.9l2.25 7.22.24 1 .2-.92 1.94-7.3h1.1l-2.8 9.52h-.9l-2.43-7.54-.1-.52-.1.53-2.4 7.5h-.9l-2.77-9.5h1.08l2.03 7.3zM194.12 59.42h-1.06v-9.5h1.06v9.5zm-1.24-12.26q0-.3.2-.5t.52-.2q.33 0 .53.2t.2.5-.2.5q-.2.2-.53.2t-.53-.2-.2-.5zM198.16 59.42h-1.06v-13.5h1.06v13.5zM202.2 59.42h-1.06v-13.5h1.06v13.5zM217.12 54.76q0 2.23-1 3.54-.97 1.3-2.63 1.3-2 0-3.03-1.48l-.04 1.3h-.98v-13.5h1.04v5.37q1-1.58 2.97-1.58 1.68 0 2.66 1.3.98 1.28.98 3.57v.15zm-1.06-.18q0-1.88-.73-2.9-.72-1.03-2.05-1.03-1 0-1.72.5-.7.5-1.06 1.45v4.3q.8 1.78 2.8 1.78 1.3 0 2.03-1.03.73-1.02.73-3.07zM223.13 59.6q-1.2 0-2.2-.6-.97-.6-1.52-1.66-.52-1.08-.52-2.4v-.38q0-1.37.52-2.47.53-1.1 1.48-1.74.95-.64 2.06-.64 1.73 0 2.74 1.2 1.02 1.17 1.02 3.22v.6h-6.8v.2q0 1.6.93 2.7.94 1.06 2.34 1.06.85 0 1.5-.3.64-.3 1.17-.98l.66.5q-1.17 1.68-3.37 1.68zm-.2-8.97q-1.18 0-2 .87-.8.87-.98 2.34h5.7v-.12q-.04-1.37-.78-2.23-.74-.88-1.93-.88zM232.74 54.58q0-2.22.98-3.53 1-1.32 2.7-1.32 1.92 0 2.93 1.52v-5.33h1.04v13.5h-1l-.04-1.27q-1 1.45-2.97 1.45-1.66 0-2.67-1.32-1-1.33-1-3.58v-.12zm1.06.18q0 1.82.73 2.88.73 1.04 2.06 1.04 1.92 0 2.74-1.7V52.5q-.82-1.85-2.74-1.85-1.32 0-2.06 1.04-.74 1.02-.74 3.05zM242.6 54.52q0-1.37.53-2.47t1.5-1.7q.97-.62 2.2-.62 1.9 0 3.08 1.34 1.2 1.33 1.2 3.52v.2q0 1.4-.54 2.5-.52 1.1-1.5 1.7-.96.6-2.2.6-1.9 0-3.07-1.34-1.2-1.34-1.2-3.54v-.2zm1.05.3q0 1.7.88 2.8.9 1.1 2.32 1.1 1.43 0 2.3-1.1.9-1.1.9-2.9v-.2q0-1.1-.4-2-.42-.9-1.14-1.4-.7-.5-1.65-.5-1.4 0-2.3 1.12-.9 1.1-.9 2.88v.2zM259.38 58.22q-.95 1.38-3.03 1.38-1.52 0-2.3-.88-.8-.9-.82-2.62v-6.2h1.04v6.07q0 2.7 2.2 2.7 2.3 0 2.9-1.88v-6.9h1.05v9.5h-1.02l-.02-1.2zM270.8 54.76q0 2.23-1 3.54-.97 1.3-2.63 1.3-2 0-3-1.48l-.05 1.3h-.98v-13.5h1.04v5.37q1-1.58 2.98-1.58 1.68 0 2.66 1.3.98 1.28.98 3.57v.15zm-1.06-.18q0-1.88-.73-2.9-.7-1.03-2.03-1.03-1 0-1.72.5-.7.5-1.06 1.45v4.3q.8 1.78 2.8 1.78 1.3 0 2.02-1.03.74-1.02.74-3.07zM274.3 59.42h-1.05v-13.5h1.06v13.5zM280.86 59.6q-1.2 0-2.2-.6-.97-.6-1.52-1.66-.54-1.08-.54-2.4v-.38q0-1.37.52-2.47.54-1.1 1.5-1.74.94-.64 2.05-.64 1.73 0 2.74 1.2 1.04 1.17 1.04 3.22v.6h-6.8v.2q0 1.6.93 2.7.94 1.06 2.34 1.06.86 0 1.5-.3.65-.3 1.18-.98l.66.5q-1.17 1.68-3.37 1.68zm-.2-8.97q-1.18 0-2 .87-.8.87-.98 2.34h5.7v-.12q-.04-1.37-.78-2.23-.74-.88-1.93-.88zM294.4 58.7q1.1 0 1.84-.6.74-.63.8-1.62h1.02q-.05.87-.55 1.6-.5.7-1.32 1.1-.82.42-1.77.42-1.86 0-2.96-1.3t-1.1-3.5v-.32q0-1.4.5-2.5.5-1.07 1.4-1.66.93-.6 2.16-.6 1.55 0 2.57.95 1 .93 1.1 2.45h-1.03q-.07-1.12-.8-1.8-.73-.7-1.85-.7-1.44 0-2.23 1.04-.8 1.03-.8 2.88v.3q0 1.83.8 2.85.8 1 2.22 1zM301.2 51.52q.53-.85 1.34-1.32.8-.47 1.76-.47 1.53 0 2.28.87.75.86.76 2.58v6.24h-1.05v-6.25q-.03-1.27-.57-1.9-.52-.62-1.7-.62-.97 0-1.72.6-.74.62-1.1 1.66v6.53h-1.05v-13.5h1.05v5.6zM313.73 59.6q-1.2 0-2.2-.6-.97-.6-1.52-1.66-.52-1.08-.52-2.4v-.38q0-1.37.52-2.47.53-1.1 1.48-1.74.95-.64 2.06-.64 1.73 0 2.74 1.2 1.02 1.17 1.02 3.22v.6h-6.8v.2q0 1.6.93 2.7.94 1.06 2.34 1.06.85 0 1.5-.3.64-.3 1.17-.98l.66.5q-1.17 1.68-3.37 1.68zm-.2-8.97q-1.18 0-2 .87-.8.87-.98 2.34h5.7v-.12q-.04-1.37-.78-2.23-.74-.88-1.93-.88zM322.88 58.7q1.1 0 1.84-.6.74-.63.8-1.62h1.02q-.05.87-.55 1.6-.5.7-1.36 1.1-.82.42-1.77.42-1.87 0-2.97-1.3-1.08-1.3-1.08-3.5v-.32q0-1.4.5-2.5t1.4-1.66q.92-.6 2.15-.6 1.56 0 2.58.95 1 .93 1.1 2.45h-1.03q-.07-1.12-.8-1.8-.73-.7-1.85-.7-1.42 0-2.2 1.04-.8 1.03-.8 2.88v.3q0 1.83.8 2.85.78 1 2.2 1zM330.9 54.63l-1.2 1.16v3.6h-1.06V45.9h1.05v8.65l1-1.07 3.62-3.6h1.32l-4.03 4.02 4.4 5.5h-1.27l-3.85-4.8zM340.97 59.6q-1.2 0-2.2-.6-.97-.6-1.52-1.66-.54-1.08-.54-2.4v-.38q0-1.37.54-2.47t1.5-1.74q.94-.64 2.05-.64 1.72 0 2.73 1.2 1.02 1.17 1.02 3.22v.6h-6.8v.2q0 1.6.93 2.7.94 1.06 2.34 1.06.86 0 1.5-.3.65-.3 1.18-.98l.66.5Q343.2 59.6 341 59.6zm-.2-8.97q-1.18 0-2 .87-.8.87-.98 2.34h5.7v-.12q-.06-1.37-.8-2.23-.74-.88-1.93-.88zM346.18 54.58q0-2.22.98-3.53 1-1.32 2.7-1.32 1.92 0 2.93 1.52v-5.33h1.02v13.5h-.98l-.04-1.27q-1 1.45-2.96 1.45-1.65 0-2.66-1.32-1-1.33-1-3.58v-.12zm1.06.18q0 1.82.73 2.88.73 1.04 2.06 1.04 1.94 0 2.76-1.7V52.5q-.84-1.85-2.76-1.85-1.33 0-2.07 1.04-.74 1.02-.74 3.05zM368.68 54.76q0 2.23-1 3.54-.97 1.3-2.63 1.3-2 0-3-1.48l-.05 1.3h-.98v-13.5h1.04v5.37q1-1.58 2.98-1.58 1.68 0 2.66 1.3.98 1.28.98 3.57v.15zm-1.06-.18q0-1.88-.73-2.9-.74-1.03-2.07-1.03-1 0-1.72.5-.7.5-1.05 1.45v4.3q.8 1.78 2.8 1.78 1.3 0 2.03-1.03.72-1.02.72-3.07zM373.9 57.9l2.8-8h1.12l-4.06 11.14-.2.5q-.8 1.72-2.43 1.72-.38 0-.8-.12l-.02-.87.57.05q.77 0 1.25-.4.5-.36.82-1.3l.47-1.28-3.6-9.43h1.17l2.95 8zM.58 79.52q0-1.37.53-2.47.55-1.1 1.5-1.7 1-.62 2.23-.62 1.9 0 3.07 1.34 1.17 1.33 1.17 3.52v.2q0 1.4-.54 2.5Q8 83.4 7.03 84q-.96.6-2.2.6-1.9 0-3.07-1.33Q.58 81.93.58 79.74v-.22zm1.05.3q0 1.7.88 2.8.9 1.1 2.34 1.1 1.43 0 2.3-1.1.9-1.1.9-2.9v-.2q0-1.1-.4-2-.4-.9-1.14-1.4-.74-.5-1.68-.5-1.4 0-2.3 1.12-.9 1.1-.9 2.88v.2zM17.37 83.22q-.95 1.38-3.04 1.38-1.52 0-2.3-.88-.8-.9-.82-2.62v-6.2h1.07v6.07q0 2.7 2.2 2.7 2.28 0 2.9-1.88v-6.9h1.04v9.5h-1v-1.2zM25.52 75.8q-.33-.05-.7-.05-1 0-1.68.55-.68.54-.97 1.6v6.52h-1.04v-9.5h1.03v1.5q.85-1.7 2.7-1.7.43 0 .7.13l-.04.96zM41.24 78.72q0 1.82-.65 3.2-.66 1.34-1.86 2.03l2.33 2.03-.75.67-2.6-2.26q-.73.2-1.48.2-1.45 0-2.6-.73-1.13-.73-1.75-2.04-.64-1.33-.65-3.06v-1.44q0-1.74.62-3.1.62-1.34 1.76-2.06 1.13-.73 2.6-.73 1.5 0 2.62.72t1.75 2.06q.64 1.35.64 3.1v1.4zm-1.08-1.4q0-2.3-1.05-3.6t-2.85-1.32q-1.78 0-2.84 1.32-1.05 1.3-1.05 3.66v1.34q0 2.27 1.05 3.6 1.04 1.34 2.85 1.34 1.83 0 2.87-1.3t1.04-3.67V77.3zM49.9 83.22q-.96 1.38-3.05 1.38-1.52 0-2.3-.88-.8-.9-.82-2.62v-6.2h1.05v6.07q0 2.7 2.2 2.7 2.28 0 2.9-1.88v-6.9h1.04v9.5H49.9v-1.2zM59.65 84.42q-.16-.45-.2-1.33-.55.7-1.42 1.1-.85.4-1.8.4-1.38 0-2.23-.78-.84-.76-.84-1.93 0-1.4 1.15-2.2 1.18-.8 3.24-.8h1.9v-1.1q0-1-.62-1.6-.62-.6-1.82-.6-1.1 0-1.82.57t-.72 1.36H53.4q0-1.14 1.06-1.97 1.05-.84 2.6-.84 1.58 0 2.5.8.92.8.95 2.22v4.5q0 1.38.3 2.06v.12h-1.14zm-3.3-.76q1.05 0 1.88-.5.83-.52 1.2-1.37v-2.1h-1.87q-1.57 0-2.46.57-.9.55-.9 1.53 0 .8.6 1.34.6.52 1.55.52zM64.46 84.42H63.4v-13.5h1.06v13.5zM68.5 84.42h-1.05v-9.5h1.05v9.5zm-1.24-12.26q0-.3.2-.5t.52-.2.53.2q.2.2.2.5t-.2.5q-.17.2-.5.2t-.53-.2-.2-.5zM73 72.48v2.43h1.97v.88H73v6.34q0 .8.28 1.2.3.37.96.37.26 0 .85-.1l.03.86q-.42.15-1.13.15-1.07 0-1.56-.62-.5-.63-.5-1.85v-6.35H70.2v-.86h1.75V72.5H73zM80.18 82.9l2.78-8h1.13L80 86.04l-.2.5q-.8 1.72-2.42 1.72-.37 0-.8-.12v-.87l.53.05q.78 0 1.25-.4.48-.36.82-1.3l.46-1.28-3.58-9.43h1.15l2.95 8zM97.26 80.83h-5.8l-1.33 3.6H89l4.84-12.8h1.03l4.84 12.8h-1.1l-1.33-3.6zm-5.48-.92h5.14l-2.57-6.95-2.57 6.97zM107.05 82q0-.78-.63-1.25-.63-.48-1.9-.74-1.26-.25-1.96-.6t-1.04-.85q-.33-.5-.33-1.2 0-1.14.92-1.87.94-.74 2.4-.74 1.6 0 2.55.8.97.78.97 2.04H107q0-.83-.7-1.4-.7-.54-1.76-.54-1.04 0-1.67.47-.63.46-.63 1.2 0 .7.52 1.1.53.4 1.9.7 1.4.35 2.08.7.7.38 1.03.9.33.5.33 1.26 0 1.2-.97 1.93-.97.7-2.53.7-1.66 0-2.7-.8-1.03-.8-1.03-2.03h1.06q.06.92.77 1.44.72.5 1.9.5 1.1 0 1.77-.47.68-.48.68-1.22zM116.16 82q0-.78-.63-1.25-.63-.48-1.9-.74-1.26-.25-1.96-.6t-1.04-.85q-.33-.5-.33-1.2 0-1.14.94-1.87.94-.74 2.4-.74 1.6 0 2.55.8.95.78.95 2.04h-1.05q0-.83-.7-1.4-.7-.54-1.75-.54-1.04 0-1.67.47-.63.46-.63 1.2 0 .7.52 1.1.53.4 1.9.7 1.4.35 2.08.7.7.38 1.03.9.33.5.33 1.26 0 1.2-.95 1.93-.97.7-2.53.7-1.65 0-2.7-.8Q110 83 110 81.77h1.06q.06.92.77 1.44.73.5 1.9.5 1.1 0 1.78-.48.7-.48.7-1.22zM125.68 83.22q-.95 1.38-3.03 1.38-1.52 0-2.3-.88-.8-.9-.82-2.62v-6.2h1.04v6.07q0 2.7 2.2 2.7 2.3 0 2.9-1.88v-6.9h1.05v9.5h-1.02l-.02-1.2zM133.84 75.8q-.33-.05-.7-.05-1 0-1.68.55-.68.54-.97 1.6v6.52h-1.07v-9.5h1.03l.02 1.5q.83-1.7 2.67-1.7.44 0 .7.13l-.03.96zM141.14 84.42q-.16-.45-.2-1.33-.56.7-1.42 1.1-.85.4-1.8.4-1.38 0-2.23-.78-.87-.76-.87-1.93 0-1.4 1.16-2.2 1.15-.8 3.2-.8h1.9v-1.1q0-1-.6-1.6-.64-.6-1.84-.6-1.1 0-1.82.57t-.72 1.36h-1.06q0-1.14 1.06-1.97 1.05-.84 2.6-.84 1.58 0 2.5.8.92.8.94 2.22v4.5q0 1.38.3 2.06v.12h-1.13zm-3.3-.76q1.05 0 1.88-.5.83-.52 1.2-1.37v-2.1h-1.87q-1.58 0-2.46.57-.9.55-.9 1.53 0 .8.6 1.34.6.52 1.52.52zM145.78 74.9l.03 1.64q.56-.88 1.36-1.34.8-.47 1.77-.47 1.53 0 2.27.87.74.86.75 2.58v6.24h-1.05v-6.25q0-1.27-.54-1.9-.53-.62-1.7-.62-.97 0-1.73.6-.75.62-1.1 1.66v6.53h-1.05v-9.5h1zM158.17 83.7q1.1 0 1.84-.6.76-.63.8-1.62h1.04q-.05.87-.55 1.6-.5.7-1.35 1.1-.82.42-1.77.42-1.87 0-2.97-1.3t-1.1-3.5v-.32q0-1.4.5-2.5.5-1.07 1.4-1.66.94-.6 2.17-.6 1.56 0 2.58.95 1 .93 1.1 2.45h-1.03q-.06-1.12-.8-1.8-.72-.7-1.84-.7-1.42 0-2.2 1.04-.8 1.03-.8 2.88v.3q0 1.83.8 2.85.78 1 2.2 1zM167.62 84.6q-1.2 0-2.2-.6-.97-.6-1.52-1.66-.54-1.08-.54-2.4v-.38q0-1.37.52-2.47.54-1.1 1.5-1.74.94-.64 2.05-.64 1.73 0 2.74 1.2 1.02 1.17 1.02 3.22v.6h-6.8v.2q0 1.6.9 2.7.95 1.06 2.35 1.06.85 0 1.5-.3.64-.3 1.17-.98l.66.5q-1.18 1.68-3.38 1.68zm-.2-8.97q-1.18 0-2 .87-.8.87-.98 2.34h5.7v-.12q-.04-1.37-.78-2.23-.74-.88-1.93-.88zM177.22 79.58q0-2.22.98-3.53 1-1.32 2.7-1.32 1.92 0 2.93 1.52v-5.33h1.04v13.5h-.98l-.06-1.27q-1 1.45-2.97 1.45-1.65 0-2.66-1.32-1-1.33-1-3.58v-.12zm1.06.18q0 1.82.73 2.88.75 1.04 2.08 1.04 1.94 0 2.76-1.7V77.5q-.82-1.85-2.74-1.85-1.34 0-2.08 1.04-.74 1.02-.74 3.05zM191.35 84.6q-1.2 0-2.2-.6-.97-.6-1.52-1.66-.54-1.08-.54-2.4v-.38q0-1.37.5-2.47.54-1.1 1.5-1.74.94-.64 2.05-.64 1.73 0 2.74 1.2 1 1.17 1 3.22v.6h-6.8v.2q0 1.6.94 2.7.94 1.06 2.34 1.06.84 0 1.48-.3.65-.3 1.18-.98l.66.5q-1.17 1.68-3.37 1.68zm-.2-8.97q-1.18 0-2 .87-.8.87-.98 2.34h5.7v-.12q-.04-1.37-.78-2.23-.76-.88-1.95-.88zM204.63 79.76q0 2.23-1 3.54-.97 1.3-2.62 1.3-1.93 0-2.97-1.38v4.86h-1.05V74.9h.98l.05 1.36q1.04-1.53 3-1.53 1.7 0 2.66 1.3.98 1.3.98 3.58v.17zm-1.06-.18q0-1.82-.74-2.88t-2.1-1.05q-.95 0-1.65.46-.7.5-1.06 1.38v4.56q.38.82 1.08 1.25.7.42 1.66.42 1.33 0 2.07-1.05.74-1.06.74-3.07zM208.6 72.48v2.43h1.97v.88h-1.97v6.34q0 .8.28 1.2.3.37.96.37.26 0 .85-.1l.02.86q-.4.15-1.12.15-1.07 0-1.56-.62-.5-.63-.5-1.85v-6.35h-1.74v-.86h1.74V72.5h1.06zM212.67 83.8q0-.32.2-.53.2-.22.55-.22.35 0 .55.22.2.2.2.52 0 .3-.2.5t-.55.2q-.36 0-.56-.2-.2-.2-.2-.5zM223.08 72.48v2.43h1.97v.88h-1.97v6.34q0 .8.28 1.2.3.37.96.37.26 0 .85-.1l.04.86q-.4.15-1.1.15-1.1 0-1.57-.62-.5-.63-.5-1.85v-6.35h-1.74v-.86h1.73V72.5h1.06zM226.5 79.52q0-1.37.53-2.47t1.5-1.7q.97-.62 2.2-.62 1.9 0 3.08 1.34 1.2 1.33 1.2 3.52v.2q0 1.4-.54 2.5-.52 1.1-1.5 1.7-.96.6-2.2.6-1.9 0-3.07-1.34-1.2-1.34-1.2-3.54v-.2zm1.05.3q0 1.7.88 2.8.9 1.1 2.32 1.1 1.43 0 2.3-1.1.9-1.1.9-2.9v-.2q0-1.1-.4-2-.42-.9-1.14-1.4-.7-.5-1.65-.5-1.4 0-2.3 1.12-.9 1.1-.9 2.88v.2zM245.24 84.6q-1.2 0-2.2-.6-.97-.6-1.52-1.66-.54-1.08-.54-2.4v-.38q0-1.37.52-2.47.54-1.1 1.5-1.74.94-.64 2.05-.64 1.73 0 2.74 1.2 1 1.17 1 3.22v.6H242v.2q0 1.6.93 2.7.94 1.06 2.34 1.06.85 0 1.5-.3.64-.3 1.17-.98l.66.5q-1.16 1.68-3.36 1.68zm-.2-8.97q-1.18 0-2 .87-.8.87-.98 2.34h5.7v-.12q-.04-1.37-.78-2.23-.74-.88-1.93-.88zM251.88 74.9l.03 1.64q.56-.88 1.36-1.34.8-.47 1.77-.47 1.53 0 2.27.87.74.86.75 2.58v6.24H257v-6.25q0-1.27-.54-1.9-.53-.62-1.7-.62-.97 0-1.73.6-.75.62-1.1 1.66v6.53h-1.05v-9.5h1zM266.45 82q0-.78-.63-1.25-.63-.48-1.9-.74-1.26-.25-1.96-.6t-1.04-.85q-.33-.5-.33-1.2 0-1.14.92-1.87.94-.74 2.4-.74 1.6 0 2.55.8.97.78.97 2.04h-1.05q0-.83-.7-1.4-.7-.54-1.77-.54-1.04 0-1.67.47-.63.46-.63 1.2 0 .7.52 1.1.53.4 1.9.7 1.4.35 2.08.7.7.38 1.03.9.33.5.33 1.26 0 1.2-.98 1.93-.97.7-2.53.7-1.67 0-2.7-.8-1.04-.8-1.04-2.03h1.06q.06.92.77 1.44.7.5 1.9.5 1.1 0 1.76-.47.68-.48.68-1.22zM275.98 83.22q-.95 1.38-3.03 1.38-1.52 0-2.3-.88-.8-.9-.82-2.62v-6.2h1.04v6.07q0 2.7 2.2 2.7 2.3 0 2.9-1.88v-6.9H277v9.5h-1l-.02-1.2zM284.13 75.8q-.33-.05-.7-.05-1 0-1.68.55-.68.54-.97 1.6v6.52h-1.05v-9.5h1.03l.02 1.5q.84-1.7 2.68-1.7.44 0 .7.13l-.03.96zM289.3 84.6q-1.22 0-2.2-.6-.98-.6-1.53-1.66-.54-1.08-.54-2.4v-.38q0-1.37.52-2.47.54-1.1 1.5-1.74.94-.64 2.05-.64 1.73 0 2.74 1.2 1.02 1.17 1.02 3.22v.6h-6.8v.2q0 1.6.93 2.7.92 1.06 2.32 1.06.85 0 1.5-.3.64-.3 1.17-.98l.65.5q-1.17 1.68-3.37 1.68zm-.2-8.97q-1.2 0-2 .87-.82.87-1 2.34h5.7v-.12q-.03-1.37-.77-2.23-.74-.88-1.93-.88zM300.96 72.48v2.43h1.97v.88h-1.97v6.34q0 .8.28 1.2.3.37.96.37.26 0 .85-.1l.04.86q-.43.15-1.14.15-1.08 0-1.57-.62-.5-.63-.5-1.85v-6.35h-1.75v-.86h1.74V72.5h1.05zM306.17 76.52q.52-.85 1.33-1.32.8-.47 1.76-.47 1.53 0 2.28.87.75.86.76 2.58v6.24h-1.05v-6.25q0-1.27-.55-1.9-.52-.62-1.7-.62-.97 0-1.72.6-.75.62-1.1 1.66v6.53h-1.06v-13.5h1.05v5.6zM318.68 84.6q-1.2 0-2.2-.6-.97-.6-1.52-1.66-.54-1.08-.54-2.4v-.38q0-1.37.52-2.47.54-1.1 1.5-1.74.94-.64 2.05-.64 1.7 0 2.72 1.2 1.02 1.17 1.02 3.22v.6h-6.8v.2q0 1.6.93 2.7.94 1.06 2.34 1.06.86 0 1.5-.3.65-.3 1.18-.98l.65.5q-1.17 1.68-3.37 1.68zm-.2-8.97q-1.18 0-2 .87-.8.87-.98 2.34h5.7v-.12q-.04-1.37-.78-2.23-.74-.88-1.93-.88zM2.2 101.52q.52-.85 1.33-1.32.8-.46 1.77-.46 1.53 0 2.28.86.74.86.75 2.58v6.24H7.3v-6.25q-.02-1.27-.56-1.9-.53-.62-1.7-.62-.97 0-1.73.62-.72.6-1.1 1.64v6.53H1.18v-13.5H2.2v5.6zM12.22 109.42h-1.06v-9.5h1.06v9.5zm-1.24-12.26q0-.3.2-.5.18-.2.52-.2t.53.2q.2.2.2.5t-.2.5q-.2.2-.53.2t-.53-.2-.2-.5zM14.66 104.58q0-2.23.98-3.53 1-1.3 2.7-1.3 1.94 0 2.95 1.53l.03-1.37h.98v9.34q0 1.84-1 2.9t-2.8 1.08q-1 0-1.9-.44-.9-.44-1.4-1.18l.6-.63q1.1 1.37 2.63 1.37 1.32 0 2.06-.78.72-.77.75-2.15v-1.2q-1 1.4-2.94 1.4-1.65 0-2.65-1.3t-1-3.57v-.14zm1.06.18q0 1.82.73 2.88.73 1.04 2.06 1.04 1.96 0 2.77-1.74v-4.42q-.37-.9-1.06-1.4-.7-.47-1.66-.47-1.33 0-2.07 1.05-.74 1.03-.74 3.06zM26.1 101.52q.53-.85 1.34-1.32.8-.46 1.77-.46 1.55 0 2.3.86.74.86.75 2.58v6.24H31.2v-6.25q-.02-1.27-.55-1.9-.53-.62-1.7-.62-.97 0-1.73.62-.75.6-1.1 1.64v6.53h-1.05v-13.5h1.04v5.6zM38.63 109.6q-1.2 0-2.2-.6-.97-.6-1.52-1.66-.52-1.07-.52-2.4v-.38q0-1.37.52-2.47.53-1.1 1.48-1.74.95-.63 2.05-.63 1.74 0 2.75 1.2 1.02 1.16 1.02 3.2v.6h-6.8v.2q0 1.62.93 2.7.94 1.07 2.34 1.07.85 0 1.5-.3.64-.3 1.16-.98l.66.5q-1.18 1.68-3.38 1.68zm-.2-8.96q-1.18 0-2 .87-.8.9-.98 2.35h5.7v-.1q-.04-1.38-.78-2.24-.74-.85-1.94-.85zM49.96 107q0-.78-.64-1.26-.62-.47-1.9-.74-1.25-.27-1.95-.6-.7-.36-1.04-.86-.34-.5-.34-1.22 0-1.12.93-1.85.94-.74 2.4-.74 1.6 0 2.55.8.96.77.96 2.04H49.9q0-.83-.7-1.4-.7-.54-1.76-.54-1.03 0-1.67.46-.62.44-.62 1.2 0 .7.52 1.1.53.37 1.9.7 1.4.32 2.08.7.7.36 1.03.9.33.5.33 1.24 0 1.2-.95 1.92-.97.72-2.54.72-1.65 0-2.7-.8-1-.82-1-2.05h1.04q.06.93.78 1.45.73.5 1.9.5 1.1 0 1.78-.48.68-.48.68-1.22zM55 97.48v2.43h1.97v.88H55v6.34q0 .8.28 1.2.3.37.96.37.26 0 .85-.1l.03.86q-.42.15-1.13.15-1.07 0-1.56-.62-.5-.63-.5-1.85v-6.35H52.2v-.86h1.75V97.5H55zM63.14 104.58q0-2.23 1-3.53.98-1.3 2.7-1.3 1.92 0 2.92 1.46l.05-1.3h1v13.2h-1.05v-4.85q-1.04 1.36-2.93 1.36-1.66 0-2.66-1.3t-1-3.57v-.14zm1.06.18q0 1.85.74 2.9.75 1.05 2.07 1.05 1.9 0 2.75-1.62v-4.66q-.4-.84-1.1-1.3-.7-.47-1.6-.47-1.34 0-2.1 1.06-.74 1.04-.74 3.07zM79.73 108.22q-.95 1.38-3.03 1.38-1.52 0-2.3-.88-.8-.9-.82-2.62v-6.2h1.05v6.07q0 2.72 2.2 2.72 2.28 0 2.9-1.9v-6.9h1.04v9.5h-1.02l-.02-1.2zM89.5 109.42q-.16-.45-.2-1.33-.56.7-1.42 1.1-.85.4-1.8.4-1.38 0-2.23-.78-.85-.76-.85-1.93 0-1.4 1.16-2.2 1.16-.8 3.22-.8h1.9v-1.1q0-1-.62-1.6-.63-.6-1.83-.6-1.1 0-1.82.57t-.7 1.36h-1.06q0-1.14 1.06-1.97 1.04-.84 2.58-.84 1.6 0 2.5.8.93.8.95 2.22v4.5q0 1.38.3 2.06v.12H89.5zm-3.3-.76q1.05 0 1.88-.5.83-.52 1.2-1.37v-2.1H87.4q-1.56 0-2.44.57-.9.55-.9 1.53 0 .8.6 1.34.6.52 1.54.52zM94.3 109.42h-1.05v-13.5h1.06v13.5zM98.35 109.42H97.3v-9.5h1.05v9.5zM97.1 97.16q0-.3.2-.5t.53-.2.53.2q.2.2.2.5t-.2.5q-.2.2-.53.2t-.53-.2-.2-.5zM102.85 97.48v2.43h1.97v.88h-1.97v6.34q0 .8.28 1.2.3.37.96.37.24 0 .83-.1l.04.86q-.4.15-1.12.15-1.08 0-1.57-.62-.5-.63-.5-1.85v-6.35h-1.75v-.86h1.74V97.5h1.05zM110.03 107.9l2.78-8h1.15l-4.06 11.14-.2.5q-.8 1.72-2.44 1.72-.38 0-.8-.12l-.02-.87.55.05q.76 0 1.24-.38t.8-1.3l.48-1.3-3.58-9.43h1.16l2.95 8zM114.5 108.8q0-.32.2-.53.2-.22.56-.22.35 0 .55.22.2.2.2.52 0 .3-.2.5t-.53.2q-.36 0-.56-.2-.2-.2-.2-.5z"/></g><g fill="#69bdf9"><path d="M233.14 159.2h-9.67l-1.52 8.7h11.13l-.26 1.52H219.9l3.7-21.32h12.85l-.28 1.53h-11.04l-1.4 8.05h9.67l-.26 1.52zM242.62 159.97l5.14-6.4h2.17l-6.5 7.86 4.14 8h-1.93l-3.3-6.7-5.43 6.7h-2.12l6.76-8.17-3.96-7.7h1.93l3.13 6.4zM256.64 149.5l-.7 4.07h3.17l-.22 1.43h-3.18l-1.77 10.58-.03.9q0 1.6 1.46 1.65.46 0 1.43-.1l-.1 1.43q-.86.25-1.76.22-1.53-.03-2.24-1.07-.7-1.03-.5-3.03l1.74-10.56h-2.84l.27-1.42h2.8l.73-4.06h1.74zM269.68 155.05q-.57-.12-1.16-.13-1.67 0-3.06 1.02-1.4 1-1.86 2.58l-1.88 10.9H260l2.75-15.85h1.7l-.5 2.52q.85-1.43 2.07-2.16 1.23-.73 2.7-.7.5 0 1.2.2l-.24 1.6zM279.23 169.42q-.07-.56-.05-1.1l.14-1.1q-1.1 1.17-2.52 1.85-1.4.67-3.05.64-2 0-3.27-1.24-1.24-1.24-1.1-3.12.1-1.56 1.06-2.7.97-1.16 2.74-1.8 1.77-.64 3.97-.64h3.24l.24-1.8q.18-1.64-.7-2.62-.88-.98-2.6-1.04-1.72-.03-3 .87-1.3.9-1.6 2.35h-1.72q.3-2.08 2.13-3.4 1.85-1.3 4.37-1.28 2.45.06 3.76 1.48 1.33 1.42 1.08 3.7l-1.32 7.96-.12 1.3q-.04.8.12 1.55l-.03.18h-1.8zm-5.2-1.25q1.62.06 3.1-.76 1.47-.8 2.44-2.34l.6-3.5h-2.8q-2.67 0-4.35.94-1.7.93-1.86 2.7-.13 1.28.67 2.1.82.85 2.2.87zM298.48 168.25q1.73.06 3.05-.95 1.33-1.03 1.77-2.76h1.65q-.44 2.36-2.3 3.8-1.87 1.45-4.26 1.4-1.94-.05-3.24-1.07-1.3-1-1.9-2.8-.56-1.78-.36-4.02l.07-.63q.18-1.54.75-3 .58-1.44 1.55-2.55.97-1.13 2.3-1.78 1.35-.67 3.03-.63 2.43.06 3.87 1.64t1.35 4h-1.66q.03-1.82-.95-2.95-.96-1.13-2.66-1.2-1.82-.05-3.2 1.07t-2.1 3.15q-.7 2.03-.66 4.32.04 2.35 1.05 3.62 1 1.26 2.86 1.32zM311.37 156.25q2.28-3.03 5.4-2.97 2.27.05 3.3 1.6t.75 4.23l-1.73 10.33h-1.75l1.73-10.35q.08-.83.02-1.6-.25-2.6-2.85-2.7-1.53-.02-2.87.94-1.33.94-2.34 2.85l-1.88 10.87h-1.72l3.9-22.5h1.74l-1.73 9.33zM333.43 169.42q-.07-.56-.04-1.1l.1-1.1q-1.1 1.17-2.5 1.85-1.4.67-3.06.64-2 0-3.27-1.24-1.24-1.24-1.1-3.12.1-1.56 1.06-2.7.97-1.16 2.74-1.8 1.77-.64 3.97-.64h3.24l.25-1.8q.18-1.64-.7-2.62-.88-.98-2.6-1.04-1.72-.03-3 .87-1.3.9-1.6 2.35h-1.72q.3-2.08 2.14-3.4 1.85-1.3 4.37-1.28 2.46.06 3.77 1.48 1.33 1.42 1.08 3.7l-1.32 7.96-.12 1.3q-.03.8.13 1.55l-.03.18h-1.8zm-5.2-1.25q1.62.06 3.1-.76 1.47-.8 2.44-2.34l.6-3.5h-2.8q-2.67 0-4.35.94-1.7.93-1.86 2.7-.13 1.28.67 2.1.82.85 2.2.87zM349 155.05q-.56-.12-1.15-.13-1.67 0-3.06 1.02-1.4 1-1.88 2.58l-1.88 10.9h-1.72l2.75-15.85h1.7l-.5 2.52q.85-1.43 2.07-2.16 1.23-.73 2.7-.7.5 0 1.2.2l-.24 1.6zM356.9 153.26q1.4.04 2.58.67 1.17.63 1.85 1.92l.54-2.28h1.63l-2.67 15.57q-.28 2-1.26 3.5-.98 1.54-2.52 2.34-1.52.82-3.4.77-1.5-.03-2.85-.75-1.38-.73-2.22-2.04l1.1-1.02q1.5 2.27 3.93 2.33 2.2.05 3.64-1.32 1.46-1.37 1.84-3.72l.38-1.85q-2.1 2.42-5.08 2.33-2.23-.04-3.47-1.7-1.22-1.63-1.3-4.5-.07-2.6.9-5.16t2.6-3.84q1.7-1.3 3.8-1.24zm-5.46 8.5l-.1 1.36q-.03 2.4.85 3.72.86 1.3 2.57 1.36 1.46.06 2.74-.7 1.28-.73 2.2-2.2l1.25-7.4q-.4-1.42-1.38-2.24-.96-.83-2.5-.88-2.23-.07-3.7 1.73-1.47 1.8-1.94 5.27zM371.57 169.7q-1.9-.02-3.3-1.04-1.4-1.04-2.05-2.82-.64-1.78-.45-3.85l.04-.5q.23-2.2 1.33-4.2t2.78-3.02q1.7-1.07 3.6-1.03 1.78.03 3 .97 1.23.94 1.8 2.6.54 1.68.34 3.7l-.12 1.07h-10.96l-.04.35q-.22 1.6.23 3.06t1.48 2.33q1.05.85 2.5.88 1.4.05 2.53-.54 1.13-.58 2.08-1.56l1.04.84q-1.07 1.38-2.55 2.1-1.47.7-3.23.67zm1.84-14.93q-1.9-.07-3.4 1.35t-2.26 4h9.2l.04-.2q.27-2.1-.73-3.58-1-1.5-2.83-1.57z"/></g></svg>