<svg xmlns="http://www.w3.org/2000/svg" width="320" height="130" viewBox="0 0 320.00001 130"><g><g><g><path d="M94.4 11.08H89.2l-1.17 3.2h-1l4.3-11.4h.9l4.32 11.4h-1l-1.18-3.2zm-4.88-.82h4.56l-2.28-6.2-2.28 6.2z"/><path d="M106.2 10.72q-.2 1.8-1.28 2.75-1.08.96-2.9.96-1.26 0-2.24-.64-.97-.64-1.5-1.8-.53-1.16-.54-2.65V7.87q0-1.5.53-2.7t1.53-1.8q1-.63 2.3-.63 1.82 0 2.88 1 1.06.98 1.23 2.72h-.96q-.36-2.9-3.15-2.9-1.55 0-2.48 1.16-.9 1.15-.9 3.2V9.3q0 1.97.88 3.14.9 1.17 2.42 1.17 1.5 0 2.28-.7.76-.73.94-2.18h.97z"/><path d="M114.7 11.08h-5.16l-1.17 3.2h-1l4.3-11.4h.9l4.3 11.4h-1l-1.17-3.2zm-4.87-.82h4.57l-2.28-6.2-2.3 6.2z"/><path d="M118.56 14.27V2.9h3.18q1.4 0 2.5.64 1.12.63 1.74 1.82.62 1.18.62 2.7V9.1q0 1.53-.62 2.7t-1.74 1.83q-1.12.64-2.57.64h-3.1zm.96-10.55v9.74h2.16q1.8 0 2.88-1.2 1.1-1.2 1.1-3.22v-1q0-1.96-1.08-3.14t-2.82-1.18h-2.24z"/><path d="M135.3 8.82H130v4.64h6.1v.8h-7.07V2.9h7.04v.82H130V8h5.3v.82z"/><path d="M139.4 2.9l4.2 10.03 4.2-10.04h1.28v11.37h-.96V9.32l.08-5.08-4.23 10.03h-.74l-4.22-10 .1 5.02v4.97h-.98V2.9h1.28z"/><path d="M153.14 14.27h-.96V2.9h.96v11.37z"/><path d="M164.27 10.72q-.2 1.8-1.3 2.75-1.07.96-2.9.96-1.25 0-2.23-.64-.97-.64-1.5-1.8-.53-1.16-.54-2.65V7.87q0-1.5.53-2.7t1.53-1.8q1-.63 2.3-.63 1.82 0 2.88 1 1.06.98 1.23 2.72h-.97q-.36-2.9-3.14-2.9-1.55 0-2.47 1.16-.93 1.15-.93 3.2V9.3q0 1.97.9 3.14.9 1.17 2.4 1.17 1.52 0 2.3-.7.75-.73.93-2.18h.97z"/><path d="M172.63 11.2l.35 1.77.43-1.7 2.48-8.37h.87l2.44 8.38.4 1.7.38-1.78 2.06-8.3h.98l-2.9 11.37h-.94l-2.57-8.9-.28-1.12-.28 1.12-2.64 8.9h-.93l-2.9-11.37h.98l2.08 8.3z"/><path d="M189.12 9.54h-3.3v4.73h-.97V2.9h3.7q1.82 0 2.84.88 1 .88 1 2.47 0 1.1-.63 1.93-.64.83-1.72 1.15l2.85 4.84v.1h-1.03l-2.75-4.73zm-3.3-.82h2.94q1.22 0 1.95-.7.74-.68.74-1.77 0-1.2-.76-1.87-.77-.66-2.15-.66h-2.7v5z"/><path d="M196.2 14.27h-.96V2.9h.96v11.37z"/><path d="M206.78 3.72h-3.9v10.55h-.96V3.72h-3.9V2.9h8.76v.82z"/><path d="M209.8 14.27h-.96V2.9h.96v11.37z"/><path d="M221.34 14.27h-.96l-6.54-9.73v9.73h-.97V2.9h.97l6.55 9.74V2.9h.94v11.37z"/><path d="M232.46 12.92q-.5.7-1.57 1.1-1.07.4-2.4.4-1.33 0-2.37-.63t-1.6-1.83q-.58-1.17-.6-2.68V7.84q0-2.37 1.2-3.74 1.2-1.36 3.22-1.36 1.76 0 2.83.9t1.27 2.46h-.96q-.22-1.25-1.03-1.9-.8-.64-2.1-.64-1.6 0-2.54 1.13-.93 1.12-.93 3.2v1.33q0 1.3.44 2.3.45 1 1.27 1.54.84.54 1.9.54 1.25 0 2.14-.38.58-.25.86-.6V9.68h-3.06v-.8h4.02v4.04z"/></g><g fill="#929292"><path d="M11.5 41.58l.3 1.55.38-1.48 2.16-7.33h.76l2.14 7.33.36 1.5.33-1.57 1.8-7.26h.86l-2.56 9.95h-.8l-2.26-7.8-.25-.97-.25.98-2.3 7.8h-.82L8.82 34.3h.86l1.82 7.26z"/><path d="M24.66 44.4q-.94 0-1.7-.46-.77-.46-1.2-1.3-.42-.82-.42-1.86v-.3q0-1.06.4-1.9.43-.87 1.17-1.35.75-.5 1.6-.5 1.36 0 2.14.93.8.92.8 2.5v.47h-5.28v.15q0 1.26.72 2.1.72.84 1.8.84.67 0 1.17-.24.5-.24.92-.77l.5.4q-.9 1.3-2.6 1.3zm-.15-6.97q-.9 0-1.55.68-.63.7-.76 1.83h4.42v-.1q-.03-1.06-.6-1.73-.58-.67-1.5-.67z"/><path d="M32 40.46q0-1.06.42-1.92.42-.85 1.17-1.33.75-.46 1.7-.46 1.48 0 2.4 1.04.9 1.03.9 2.74v.17q0 1.06-.4 1.92-.4.86-1.17 1.32-.75.47-1.7.47-1.48 0-2.4-1.03-.92-1.03-.92-2.74v-.17zm.83.23q0 1.3.68 2.17.7.85 1.82.85 1.1 0 1.8-.85.68-.86.68-2.25v-.16q0-.85-.3-1.55-.33-.7-.9-1.08-.56-.4-1.3-.4-1.1 0-1.78.88-.7.85-.7 2.24v.15z"/><path d="M40.9 44.27v-6.73h-1.22v-.67h1.22v-.9q0-1.13.57-1.74.6-.6 1.62-.6.45 0 .86.1l-.07.7q-.35-.1-.75-.1-.68 0-1.05.44-.38.4-.38 1.2v.9h1.76v.67h-1.76v6.73h-.82z"/><path d="M45.55 44.27v-6.73h-1.22v-.67h1.22v-.9q0-1.13.57-1.74.6-.6 1.62-.6.46 0 .87.1l-.06.7q-.34-.1-.74-.1-.68 0-1.05.44-.38.4-.38 1.2v.9h1.76v.67h-1.76v6.73h-.82z"/><path d="M52.3 44.4q-.93 0-1.7-.46-.76-.46-1.18-1.3-.43-.82-.43-1.86v-.3q0-1.06.4-1.9.42-.87 1.16-1.35.74-.5 1.6-.5 1.35 0 2.13.93.8.92.8 2.5v.47h-5.3v.15q0 1.26.73 2.1.72.84 1.8.84.67 0 1.17-.24.5-.24.92-.77l.5.4q-.9 1.3-2.6 1.3zm-.14-6.97q-.92 0-1.56.68-.63.7-.76 1.83h4.43v-.1q-.03-1.06-.6-1.73-.58-.67-1.5-.67z"/><path d="M60.1 37.57q-.25-.05-.55-.05-.76 0-1.3.43-.52.43-.75 1.24v5.07h-.8v-7.4h.8v1.18q.65-1.3 2.1-1.3.33 0 .53.08l-.02.74z"/><path d="M66.58 42.57l.12.63.17-.67 1.77-5.66h.7l1.76 5.62.2.77.15-.72 1.5-5.68h.86l-2.14 7.4h-.7l-1.9-5.86-.1-.4-.08.4-1.86 5.87h-.7l-2.15-7.4H65l1.58 5.7z"/><path d="M76.28 44.27h-.82v-7.4h.82v7.4zm-.96-9.54q0-.23.15-.4.15-.15.4-.15.27 0 .42.16.14.16.14.4t-.15.38q-.16.16-.42.16t-.4-.16-.16-.4z"/><path d="M78.18 40.5q0-1.72.77-2.74.77-1.02 2.1-1.02 1.48 0 2.27 1.18v-4.15h.8v10.5h-.75l-.04-.98q-.78 1.1-2.3 1.1-1.28 0-2.07-1.02-.78-1.03-.78-2.78v-.1zm.83.15q0 1.4.57 2.23.57.82 1.6.82 1.5 0 2.15-1.34V38.9q-.64-1.45-2.13-1.45-1.04 0-1.62.8-.57.82-.57 2.4z"/><path d="M89.17 44.4q-.95 0-1.7-.46-.77-.46-1.2-1.3-.42-.82-.42-1.86v-.3q0-1.06.4-1.9.43-.87 1.17-1.35.73-.5 1.6-.5 1.34 0 2.13.93.8.92.8 2.5v.47h-5.3v.15q0 1.26.73 2.1.73.84 1.82.84.66 0 1.16-.24.5-.24.9-.77l.52.4q-.9 1.3-2.6 1.3zm-.15-6.97q-.93 0-1.56.68-.63.7-.77 1.83h4.43v-.1q-.04-1.06-.6-1.73-.58-.67-1.5-.67z"/><path d="M99.7 43.72q.85 0 1.43-.48.58-.5.63-1.25h.78q-.03.66-.42 1.22-.4.56-1.04.87-.64.3-1.38.3-1.46 0-2.3-1-.86-1.02-.86-2.73v-.24q0-1.1.38-1.94.4-.85 1.1-1.3.72-.46 1.67-.46 1.2 0 2 .72.8.73.84 1.9h-.78q-.06-.86-.63-1.4-.57-.53-1.44-.53-1.1 0-1.73.8-.6.8-.6 2.25v.23q0 1.43.6 2.22.62.8 1.73.8z"/><path d="M105 38.12q.4-.66 1.03-1.02t1.37-.36q1.2 0 1.77.67.6.68.6 2.02v4.85h-.82V39.4q0-.98-.42-1.47-.4-.48-1.32-.48-.75 0-1.34.48-.58.47-.86 1.27v5.07h-.82v-10.5h.82v4.35z"/><path d="M111.42 40.46q0-1.06.4-1.92.42-.85 1.18-1.33.75-.46 1.7-.46 1.5 0 2.4 1.04.92 1.03.92 2.74v.17q0 1.06-.42 1.92-.4.86-1.16 1.32-.75.47-1.7.47-1.48 0-2.4-1.03-.92-1.03-.92-2.74v-.17zm.82.23q0 1.3.68 2.17.7.85 1.8.85t1.8-.85q.7-.86.7-2.25v-.16q0-.85-.33-1.55-.32-.7-.9-1.08-.56-.4-1.3-.4-1.08 0-1.77.88-.7.85-.7 2.24v.15z"/><path d="M120.63 44.27h-.82v-7.4h.83v7.4zm-.96-9.54q0-.23.15-.4.15-.15.4-.15t.42.16q.16.16.16.4t-.16.38q-.15.16-.4.16-.27 0-.42-.16-.15-.15-.15-.4z"/><path d="M125.6 43.72q.85 0 1.42-.48.58-.5.63-1.25h.8q-.05.66-.44 1.22-.38.56-1.03.87-.64.3-1.38.3-1.46 0-2.32-1-.84-1.02-.84-2.73v-.24q0-1.1.38-1.94.38-.85 1.1-1.3.7-.46 1.67-.46 1.2 0 2 .72.78.73.84 1.9h-.8q-.04-.86-.62-1.4-.56-.53-1.43-.53-1.12 0-1.74.8-.6.8-.6 2.25v.23q0 1.43.6 2.22.62.8 1.73.8z"/><path d="M132.94 44.4q-.94 0-1.7-.46t-1.2-1.3q-.4-.82-.4-1.86v-.3q0-1.06.4-1.9.4-.87 1.15-1.35.73-.5 1.6-.5 1.34 0 2.13.93.8.92.8 2.5v.47h-5.3v.15q0 1.26.73 2.1.72.84 1.82.84.65 0 1.15-.24.5-.24.92-.77l.5.4q-.9 1.3-2.6 1.3zm-.15-6.97q-.93 0-1.57.68-.62.7-.76 1.83h4.43v-.1q-.03-1.06-.6-1.73-.58-.67-1.5-.67z"/><path d="M140.3 40.46q0-1.06.4-1.92.42-.85 1.17-1.33.76-.46 1.72-.46 1.46 0 2.38 1.04.92 1.03.92 2.74v.17q0 1.06-.42 1.92-.4.86-1.16 1.32-.76.47-1.72.47-1.47 0-2.4-1.03-.9-1.03-.9-2.74v-.17zm.8.23q0 1.3.7 2.17.7.85 1.8.85t1.8-.85q.68-.86.68-2.25v-.16q0-.85-.3-1.55-.33-.7-.9-1.08-.56-.4-1.3-.4-1.1 0-1.78.88-.7.85-.7 2.24v.15z"/><path d="M149.18 44.27v-6.73h-1.23v-.67h1.23v-.9q0-1.13.57-1.74.58-.6 1.62-.6.46 0 .86.1l-.06.7q-.34-.1-.74-.1-.68 0-1.06.44-.37.4-.37 1.2v.9h1.76v.67H150v6.73h-.82z"/><path d="M161.1 42.4q0-.62-.5-1-.5-.36-1.48-.56-.98-.2-1.53-.48-.55-.27-.8-.66-.27-.4-.27-.95 0-.87.73-1.44.73-.56 1.87-.56 1.24 0 1.98.6.77.62.77 1.6h-.82q0-.64-.55-1.08-.54-.43-1.37-.43-.8 0-1.3.37-.48.35-.48.93 0 .55.4.86.4.3 1.48.54 1.08.25 1.62.54.54.3.8.7.26.4.26.97 0 .94-.75 1.5t-1.97.56q-1.3 0-2.1-.62t-.8-1.58h.82q.05.72.6 1.12.56.4 1.48.4.85 0 1.38-.38.53-.38.53-.95z"/><path d="M168.5 43.33q-.74 1.08-2.36 1.08-1.18 0-1.8-.68-.6-.7-.63-2.03v-4.83h.83v4.7q0 2.13 1.7 2.13 1.78 0 2.25-1.47v-5.36h.82v7.4h-.8v-.94z"/><path d="M177.38 40.65q0 1.73-.77 2.75-.75 1-2.05 1-1.54 0-2.33-1.14l-.04 1h-.76v-10.5h.8v4.2q.8-1.22 2.32-1.22 1.3 0 2.07 1 .78 1 .78 2.78v.13zm-.82-.15q0-1.46-.57-2.25-.58-.8-1.6-.8-.8 0-1.34.4-.55.37-.83 1.12v3.33q.6 1.4 2.17 1.4 1.02 0 1.58-.8.58-.8.58-2.4z"/><path d="M180.07 36.87v8.28q0 1.03-.5 1.57-.48.54-1.44.54-.37 0-.72-.13l.02-.68q.3.1.62.1 1.22 0 1.22-1.4v-8.28h.8zm-.4-2.7q.26 0 .4.17.16.16.16.4t-.15.38-.4.16q-.27 0-.42-.16-.15-.15-.15-.4t.16-.38q.15-.16.4-.16z"/><path d="M185.25 44.4q-.94 0-1.7-.46-.77-.46-1.2-1.3-.4-.82-.4-1.86v-.3q0-1.06.4-1.9.4-.87 1.15-1.35.74-.5 1.6-.5 1.35 0 2.13.93.8.92.8 2.5v.47h-5.28v.15q0 1.26.72 2.1.72.84 1.82.84.64 0 1.14-.24.5-.24.92-.77l.5.4q-.9 1.3-2.6 1.3zm-.15-6.97q-.92 0-1.56.68-.63.7-.76 1.83h4.43v-.1q-.02-1.06-.6-1.73-.57-.67-1.5-.67z"/><path d="M192.37 43.72q.85 0 1.43-.48.58-.5.63-1.25h.78q-.02.66-.4 1.22-.4.56-1.05.87-.64.3-1.38.3-1.46 0-2.3-1-.86-1.02-.86-2.73v-.24q0-1.1.4-1.94.38-.85 1.1-1.3.7-.46 1.66-.46 1.22 0 2 .72.8.73.85 1.9h-.77q-.06-.86-.63-1.4-.57-.53-1.44-.53-1.1 0-1.72.8-.6.8-.6 2.25v.24q0 1.4.6 2.2.6.8 1.73.8z"/><path d="M198.12 34.98v1.9h1.54v.66h-1.54v4.93q0 .62.22.92.23.3.75.3.2 0 .65-.08l.04.67q-.34.1-.9.1-.83 0-1.2-.48-.4-.5-.4-1.44v-4.94h-1.36v-.67h1.36v-1.9h.82z"/><path d="M205.8 42.4q0-.62-.5-1-.48-.36-1.47-.56-.98-.2-1.53-.48-.54-.27-.8-.66-.27-.4-.27-.95 0-.87.74-1.44.73-.56 1.87-.56 1.24 0 1.98.6.75.62.75 1.6h-.82q0-.64-.54-1.08-.53-.43-1.36-.43-.8 0-1.3.37-.5.35-.5.93 0 .55.42.86.4.3 1.48.54 1.08.25 1.6.54.55.3.8.7t.27.97q0 .94-.74 1.5-.76.56-1.97.56-1.3 0-2.1-.62t-.8-1.58h.8q.06.72.6 1.12.57.4 1.5.4.84 0 1.37-.38.52-.38.52-.95z"/><path d="M216.53 44.27q-.12-.35-.15-1.03-.43.56-1.1.87-.67.3-1.4.3-1.08 0-1.74-.6-.66-.58-.66-1.5 0-1.07.9-1.7.9-.63 2.5-.63h1.5v-.84q0-.8-.5-1.24-.5-.47-1.43-.47-.85 0-1.4.43-.57.44-.57 1.06h-.82q0-.9.82-1.53.82-.66 2.02-.66 1.23 0 1.94.62.72.6.74 1.72v3.5q0 1.07.23 1.6v.1h-.87zm-2.57-.6q.82 0 1.47-.38.65-.4.94-1.07V40.6h-1.46q-1.22 0-1.9.45-.7.43-.7 1.2 0 .6.46 1.02.46.4 1.2.4z"/><path d="M220.13 36.87l.03 1.27q.42-.68 1.04-1.04.62-.36 1.38-.36 1.18 0 1.77.67.58.68.58 2.02v4.85h-.8V39.4q-.02-.98-.43-1.47-.4-.48-1.32-.48-.76 0-1.35.48-.58.47-.86 1.27v5.07h-.8v-7.4h.77z"/><path d="M226.7 40.5q0-1.72.78-2.74.77-1.02 2.1-1.02 1.5 0 2.27 1.18v-4.15h.82v10.5h-.77l-.03-.98q-.8 1.1-2.3 1.1-1.3 0-2.08-1.02-.8-1.03-.8-2.78v-.1zm.84.15q0 1.4.57 2.23.57.82 1.6.82 1.52 0 2.15-1.34V38.9q-.63-1.45-2.13-1.45-1.03 0-1.6.8-.58.82-.58 2.4z"/><path d="M244.2 40.65q0 1.73-.77 2.75-.76 1-2.05 1-1.52 0-2.32-1.06v3.77h-.82V36.88h.76l.04 1.05q.8-1.18 2.32-1.18 1.33 0 2.08 1 .76 1 .76 2.8v.1zm-.82-.15q0-1.4-.58-2.23-.58-.82-1.62-.82-.76 0-1.3.36-.54.37-.82 1.06v3.55q.3.65.84.98t1.3.34q1.02 0 1.6-.82.58-.83.58-2.4z"/><path d="M250.7 44.27q-.14-.35-.17-1.03-.43.56-1.1.87-.67.3-1.4.3-1.08 0-1.74-.6-.67-.58-.67-1.5 0-1.07.9-1.7.9-.63 2.5-.63h1.5v-.84q0-.8-.5-1.24-.5-.47-1.42-.47-.85 0-1.4.43-.57.44-.57 1.06h-.82q0-.9.83-1.53.82-.66 2.02-.66 1.24 0 1.95.62.7.6.73 1.72v3.5q0 1.07.23 1.6v.1h-.88zm-2.6-.6q.84 0 1.48-.38.65-.4.94-1.07V40.6h-1.46q-1.23 0-1.92.45-.7.43-.7 1.2 0 .6.47 1.02.48.4 1.2.4z"/><path d="M259.46 40.65q0 1.73-.77 2.75-.78 1-2.06 1-1.52 0-2.32-1.06v3.77h-.82V36.88h.76l.04 1.05q.8-1.18 2.32-1.18 1.33 0 2.08 1 .76 1 .76 2.8v.1zm-.82-.15q0-1.4-.6-2.23-.57-.82-1.6-.82-.76 0-1.3.36-.54.37-.82 1.06v3.55q.3.65.84.98.54.34 1.3.34 1.02 0 1.6-.82.58-.83.58-2.4z"/><path d="M264.14 44.4q-.94 0-1.7-.46-.77-.46-1.2-1.3-.42-.82-.42-1.86v-.3q0-1.06.4-1.9.43-.87 1.17-1.35.73-.5 1.6-.5 1.34 0 2.12.93.8.92.8 2.5v.47h-5.28v.15q0 1.26.72 2.1.72.84 1.8.84.67 0 1.17-.24.5-.24.92-.77l.5.4q-.9 1.3-2.6 1.3zm-.15-6.97q-.93 0-1.57.68-.63.7-.76 1.83h4.43v-.1q-.03-1.06-.6-1.73-.58-.67-1.5-.67z"/><path d="M271.94 37.57q-.26-.05-.55-.05-.78 0-1.3.43-.54.43-.76 1.24v5.07h-.82v-7.4h.8l.02 1.18q.64-1.3 2.08-1.3.34 0 .54.08l-.02.74z"/><path d="M277.9 34.98v1.9h1.54v.66h-1.53v4.93q0 .62.23.92.22.3.74.3.2 0 .67-.08l.03.67q-.32.1-.87.1-.84 0-1.23-.48-.38-.5-.38-1.44v-4.94h-1.37v-.67h1.36v-1.9h.8z"/><path d="M283.5 43.1l2.16-6.23h.88l-3.16 8.66-.16.38q-.6 1.36-1.88 1.36-.3 0-.63-.1v-.68l.43.05q.6 0 .97-.3t.63-1.02l.37-1-2.8-7.33h.9l2.3 6.22z"/><path d="M293.74 40.65q0 1.73-.77 2.75-.76 1-2.05 1-1.5 0-2.32-1.06v3.77h-.8V36.88h.74l.05 1.05q.8-1.18 2.3-1.18 1.33 0 2.08 1 .76 1 .76 2.8v.1zm-.82-.15q0-1.4-.58-2.23-.58-.82-1.62-.82-.75 0-1.3.36-.53.37-.82 1.06v3.55q.3.65.84.98.55.34 1.3.34 1.02 0 1.6-.82.58-.83.58-2.4z"/><path d="M298.43 44.4q-.94 0-1.7-.46-.77-.46-1.2-1.3-.42-.82-.42-1.86v-.3q0-1.06.42-1.9.42-.87 1.16-1.35.74-.5 1.6-.5 1.35 0 2.13.93.8.92.8 2.5v.47h-5.27v.15q0 1.26.72 2.1.72.84 1.8.84.67 0 1.17-.24.5-.24.92-.77l.5.4q-.9 1.3-2.6 1.3zm-.15-6.97q-.92 0-1.56.68-.63.7-.76 1.83h4.43v-.1q-.04-1.06-.62-1.73-.57-.67-1.5-.67z"/><path d="M307.24 42.4q0-.62-.5-1-.48-.36-1.46-.56-1-.2-1.53-.48-.54-.27-.8-.66-.27-.4-.27-.95 0-.87.73-1.44.74-.56 1.88-.56 1.24 0 2 .6.74.62.74 1.6h-.82q0-.64-.55-1.08-.54-.43-1.37-.43-.8 0-1.3.37-.48.35-.48.93 0 .55.4.86.4.3 1.5.54 1.07.25 1.6.54.54.3.8.7.26.4.26.97 0 .94-.76 1.5-.75.56-1.97.56-1.3 0-2.1-.62t-.8-1.58h.82q.05.72.6 1.12.57.4 1.48.4.86 0 1.38-.38.54-.38.54-.95z"/><path d="M309.82 43.78q0-.24.15-.4.16-.18.43-.18t.43.17q.16.17.16.4t-.17.4q-.16.15-.43.15t-.43-.15q-.15-.15-.15-.4z"/><path d="M14.64 61.58l.3 1.55.38-1.48 2.16-7.33h.76l2.14 7.33.36 1.5.33-1.57 1.8-7.26h.86l-2.55 9.95h-.8l-2.26-7.8-.25-.97-.25.98-2.3 7.8h-.82l-2.54-9.96h.86l1.82 7.26z"/><path d="M27.8 64.4q-.93 0-1.7-.46-.76-.46-1.18-1.3-.43-.82-.43-1.86v-.3q0-1.06.4-1.9.42-.87 1.16-1.35.74-.5 1.6-.5 1.35 0 2.13.93.8.92.8 2.5v.47h-5.3v.15q0 1.26.73 2.1.72.84 1.8.84.67 0 1.17-.24.5-.24.92-.77l.5.4q-.9 1.3-2.6 1.3zm-.14-6.97q-.92 0-1.56.68-.63.7-.76 1.83h4.43v-.1q-.03-1.06-.6-1.73-.58-.67-1.5-.67z"/><path d="M38.34 63.72q.85 0 1.43-.48.58-.5.63-1.25h.78q-.03.66-.42 1.22-.4.56-1.04.87-.64.3-1.38.3-1.46 0-2.3-1-.86-1.02-.86-2.73v-.24q0-1.1.38-1.94.4-.85 1.1-1.3.72-.46 1.67-.46 1.22 0 2 .72.8.73.85 1.9h-.78q-.06-.86-.63-1.4-.57-.53-1.44-.53-1.1 0-1.72.8-.6.8-.6 2.25v.23q0 1.43.6 2.22.63.8 1.74.8z"/><path d="M47.5 64.27q-.13-.35-.17-1.03-.43.56-1.1.87-.66.3-1.4.3-1.07 0-1.74-.6-.66-.58-.66-1.5 0-1.07.9-1.7.9-.63 2.5-.63h1.5v-.84q0-.8-.5-1.24-.5-.47-1.43-.47-.84 0-1.4.43-.56.44-.56 1.06h-.82q0-.9.82-1.53.82-.66 2-.66 1.25 0 1.96.62.72.6.74 1.72v3.5q0 1.07.22 1.6v.1h-.87zm-2.58-.6q.82 0 1.46-.38.65-.4.95-1.07V60.6h-1.47q-1.22 0-1.9.45-.7.43-.7 1.2 0 .6.46 1.02.46.4 1.2.4z"/><path d="M51.1 56.87l.03 1.27q.4-.68 1.04-1.04.62-.36 1.37-.36 1.2 0 1.77.67.6.68.6 2.02v4.85h-.8V59.4q-.02-.98-.44-1.47-.4-.48-1.32-.48-.76 0-1.34.48-.6.47-.87 1.27v5.07h-.8v-7.4h.77z"/><path d="M67.37 60.65q0 1.73-.77 2.75-.77 1-2.05 1-1.52 0-2.32-1.06v3.77h-.82V56.88h.77l.04 1.05q.8-1.18 2.33-1.18 1.33 0 2.08 1 .77 1 .77 2.8v.1zm-.82-.15q0-1.4-.6-2.23-.57-.82-1.6-.82-.76 0-1.3.36-.54.37-.82 1.06v3.55q.3.65.84.98t1.3.34q1.02 0 1.6-.82.58-.83.58-2.4z"/><path d="M72.6 57.57q-.26-.05-.55-.05-.77 0-1.3.43T70 59.2v5.07h-.82v-7.4h.8l.02 1.18q.65-1.3 2.08-1.3.34 0 .54.08l-.02.74z"/><path d="M73.3 60.46q0-1.06.4-1.92.43-.85 1.18-1.33.76-.46 1.7-.46 1.5 0 2.4 1.04.92 1.03.92 2.74v.17q0 1.06-.4 1.92-.42.86-1.18 1.32-.75.47-1.7.47-1.48 0-2.4-1.03-.92-1.03-.92-2.74v-.17zm.82.23q0 1.3.68 2.17.7.85 1.8.85 1.12 0 1.8-.85.7-.86.7-2.25v-.16q0-.85-.32-1.55-.32-.7-.9-1.08-.55-.4-1.3-.4-1.08 0-1.77.88-.68.85-.68 2.24v.15z"/><path d="M81.27 60.5q0-1.72.77-2.74.77-1.02 2.1-1.02 1.48 0 2.27 1.18v-4.15h.82v10.5h-.76l-.04-.98q-.78 1.1-2.3 1.1-1.28 0-2.07-1.02-.78-1.03-.78-2.78v-.1zm.83.15q0 1.4.56 2.23.57.82 1.6.82 1.5 0 2.15-1.34V58.9q-.63-1.45-2.12-1.45-1.03 0-1.6.8-.58.82-.58 2.4z"/><path d="M94.15 63.33q-.74 1.08-2.36 1.08-1.2 0-1.8-.68-.62-.7-.64-2.03v-4.83h.82v4.7q0 2.13 1.7 2.13 1.78 0 2.26-1.47v-5.36h.82v7.4h-.8v-.94z"/><path d="M99.8 63.72q.86 0 1.44-.48.58-.5.63-1.25h.78q-.03.66-.42 1.22-.4.56-1.04.87-.65.3-1.4.3-1.45 0-2.3-1-.85-1.02-.85-2.73v-.24q0-1.1.38-1.94.4-.85 1.1-1.3.72-.46 1.67-.46 1.22 0 2 .72.8.73.85 1.9h-.78q-.06-.86-.63-1.4-.57-.53-1.44-.53-1.1 0-1.72.8-.6.8-.6 2.25v.23q0 1.43.6 2.22.6.8 1.73.8z"/><path d="M107.16 64.4q-.95 0-1.7-.46-.77-.46-1.2-1.3-.42-.82-.42-1.86v-.3q0-1.06.4-1.9.43-.87 1.17-1.35.75-.5 1.6-.5 1.35 0 2.14.93.8.92.8 2.5v.47h-5.28v.15q0 1.26.7 2.1.74.84 1.83.84.65 0 1.15-.24.5-.24.9-.77l.53.4q-.9 1.3-2.62 1.3zm-.15-6.97q-.92 0-1.55.68-.63.7-.77 1.83h4.44v-.1q-.03-1.06-.6-1.73-.58-.67-1.5-.67z"/><path d="M119.63 64.27q-.13-.35-.16-1.03-.43.56-1.1.87-.66.3-1.4.3-1.08 0-1.74-.6-.65-.58-.65-1.5 0-1.07.9-1.7.9-.63 2.5-.63h1.48v-.84q0-.8-.5-1.24-.47-.47-1.4-.47-.87 0-1.43.43-.56.44-.56 1.06h-.82q0-.9.82-1.53.82-.66 2.02-.66 1.23 0 1.94.62.72.6.74 1.72v3.5q0 1.07.22 1.6v.1h-.87zm-2.57-.6q.82 0 1.46-.38.65-.4.94-1.07V60.6H118q-1.22 0-1.9.45-.7.43-.7 1.2 0 .6.45 1.02.47.4 1.2.4z"/><path d="M123.23 56.87l.03 1.27q.4-.68 1.04-1.04.62-.36 1.37-.36 1.2 0 1.77.67.58.68.6 2.02v4.85h-.83V59.4q0-.98-.4-1.47-.42-.48-1.33-.48-.76 0-1.35.48-.58.47-.86 1.27v5.07h-.8v-7.4h.77z"/><path d="M132.48 63.1l2.16-6.23h.88l-3.16 8.66-.16.38q-.6 1.36-1.88 1.36-.3 0-.63-.1l-.02-.68.43.05q.6 0 .98-.3.37-.3.63-1.02l.37-1-2.78-7.33h.88l2.3 6.22z"/><path d="M138.05 54.98v1.9h1.53v.66h-1.53v4.93q0 .62.22.92.22.3.74.3.22 0 .68-.08l.03.67q-.3.1-.86.1-.84 0-1.23-.48-.37-.5-.37-1.44v-4.94h-1.36v-.67h1.36v-1.9h.82z"/><path d="M142.1 58.12q.4-.66 1.04-1.02.62-.36 1.37-.36 1.2 0 1.78.67.58.68.6 2.02v4.85h-.83V59.4q0-.98-.42-1.47-.4-.48-1.32-.48-.75 0-1.34.48-.58.47-.86 1.27v5.07h-.8v-10.5h.8v4.35z"/><path d="M149.9 64.27h-.83v-7.4h.82v7.4zm-.97-9.54q0-.23.15-.4.15-.15.4-.15.27 0 .42.16.15.16.15.4t-.15.38q-.15.16-.4.16t-.42-.16-.15-.4z"/><path d="M152.9 56.87l.02 1.27q.42-.68 1.04-1.04.63-.36 1.38-.36 1.2 0 1.77.67.6.68.6 2.02v4.85h-.82V59.4q0-.98-.42-1.47-.4-.48-1.32-.48-.76 0-1.35.48-.6.47-.87 1.27v5.07h-.8v-7.4h.77z"/><path d="M159.47 60.5q0-1.73.77-2.75.77-1 2.1-1 1.5 0 2.3 1.2l.03-1.08h.76v7.25q0 1.43-.8 2.26-.8.84-2.16.84-.77 0-1.48-.35-.7-.34-1.1-.92l.45-.5q.87 1.08 2.06 1.08 1.04 0 1.6-.6.6-.6.6-1.7v-.92q-.78 1.1-2.28 1.1-1.3 0-2.07-1.02t-.78-2.77v-.1zm.83.15q0 1.4.57 2.23.57.82 1.6.82 1.5 0 2.14-1.36V58.9q-.28-.7-.82-1.08-.54-.37-1.3-.37-1.03 0-1.6.8-.58.82-.58 2.4z"/><path d="M171.57 64.27v-6.73h-1.22v-.67h1.22v-.9q0-1.13.58-1.74.58-.6 1.6-.6.48 0 .88.1l-.06.7q-.34-.1-.75-.1-.67 0-1.05.44-.38.4-.38 1.2v.9h1.76v.67h-1.77v6.73h-.83z"/><path d="M179.05 57.57q-.26-.05-.55-.05-.77 0-1.3.43t-.75 1.24v5.07h-.82v-7.4h.8l.02 1.18q.65-1.3 2.08-1.3.34 0 .54.08l-.02.74z"/><path d="M179.75 60.46q0-1.06.4-1.92.43-.85 1.18-1.33.76-.46 1.7-.46 1.5 0 2.4 1.04.92 1.03.92 2.74v.17q0 1.06-.4 1.92-.42.86-1.18 1.32-.75.47-1.7.47-1.48 0-2.4-1.03-.92-1.03-.92-2.74v-.17zm.82.23q0 1.3.68 2.17.7.85 1.8.85t1.8-.85q.7-.86.7-2.25v-.16q0-.85-.33-1.55-.3-.7-.88-1.08-.56-.4-1.3-.4-1.1 0-1.78.88-.7.85-.7 2.24v.15z"/><path d="M188.8 56.87l.02 1.2q.4-.66 1.03-1 .6-.33 1.36-.33 1.76 0 2.23 1.43.4-.7 1.06-1.06.66-.36 1.46-.36 2.38 0 2.42 2.6v4.93h-.82V59.4q0-1-.43-1.47-.4-.48-1.36-.48-.9 0-1.5.57-.6.56-.67 1.36v4.9h-.82v-4.95q0-.95-.45-1.4-.44-.48-1.36-.48-.77 0-1.32.44-.56.43-.82 1.3v5.07H188v-7.4h.8z"/><path d="M208.55 64.27q-.12-.35-.16-1.03-.44.56-1.1.87-.67.3-1.42.3-1.06 0-1.73-.6-.65-.58-.65-1.5 0-1.07.9-1.7.9-.63 2.5-.63h1.48v-.84q0-.8-.5-1.24-.47-.47-1.4-.47-.86 0-1.42.43-.56.44-.56 1.06h-.83q0-.9.83-1.53.82-.66 2-.66 1.25 0 1.96.62.72.6.74 1.72v3.5q0 1.07.22 1.6v.1h-.87zm-2.57-.6q.82 0 1.46-.38.65-.4.94-1.07V60.6h-1.46q-1.22 0-1.9.45-.7.43-.7 1.2 0 .6.46 1.02.46.4 1.2.4z"/><path d="M219.22 62.4q0-.62-.5-1-.48-.36-1.46-.56-1-.2-1.53-.48-.54-.27-.8-.66-.27-.4-.27-.95 0-.87.73-1.44.72-.56 1.86-.56 1.24 0 2 .6.74.62.74 1.6h-.82q0-.64-.55-1.08-.54-.43-1.37-.43-.8 0-1.3.37-.48.35-.48.93 0 .55.4.86.4.3 1.5.54 1.07.25 1.6.54.54.3.8.7.26.4.26.97 0 .94-.76 1.5-.75.56-1.97.56-1.28 0-2.1-.62-.8-.62-.8-1.58h.83q.05.72.6 1.12.57.4 1.48.4.87 0 1.4-.38.52-.38.52-.95z"/><path d="M222.8 64.27h-.83v-7.4h.82v7.4zm-.98-9.54q0-.23.15-.4.15-.15.4-.15t.42.16q.15.16.15.4t-.16.38q-.16.16-.42.16t-.4-.16q-.16-.15-.16-.4z"/><path d="M225.76 56.87l.03 1.2q.4-.66 1-1 .63-.33 1.38-.33 1.75 0 2.22 1.43.4-.7 1.06-1.06.67-.36 1.47-.36 2.37 0 2.42 2.6v4.93h-.82V59.4q0-1-.43-1.47-.42-.48-1.37-.48-.88 0-1.5.57-.6.56-.66 1.36v4.9h-.82v-4.95q0-.95-.45-1.4-.44-.48-1.36-.48-.77 0-1.32.44-.56.43-.82 1.3v5.07h-.82v-7.4h.78z"/><path d="M243.38 60.65q0 1.73-.77 2.75-.75 1-2.04 1-1.52 0-2.32-1.06v3.77h-.82V56.88h.76l.04 1.05q.8-1.18 2.32-1.18 1.33 0 2.08 1 .76 1 .76 2.8v.1zm-.82-.15q0-1.4-.58-2.23-.58-.82-1.62-.82-.76 0-1.3.36-.54.37-.82 1.06v3.55q.3.65.84.98.55.34 1.3.34 1.02 0 1.6-.82.58-.83.58-2.4z"/><path d="M246.1 64.27h-.8v-10.5h.8v10.5z"/><path d="M251.2 64.4q-.94 0-1.7-.46t-1.2-1.3q-.4-.82-.4-1.86v-.3q0-1.06.4-1.9.42-.87 1.16-1.35.73-.5 1.6-.5 1.34 0 2.13.93.78.92.78 2.5v.47h-5.28v.15q0 1.26.72 2.1.73.84 1.82.84.66 0 1.15-.24.5-.24.9-.77l.52.4q-.9 1.3-2.6 1.3zm-.15-6.97q-.92 0-1.55.68-.63.7-.77 1.83h4.44v-.1q-.04-1.06-.6-1.73-.6-.67-1.52-.67z"/><path d="M261.87 64.4q-.94 0-1.7-.46-.77-.46-1.2-1.3-.42-.82-.42-1.86v-.3q0-1.06.4-1.9.43-.87 1.17-1.35.74-.5 1.6-.5 1.35 0 2.13.93.8.92.8 2.5v.47h-5.28v.15q0 1.26.72 2.1.7.84 1.8.84.66 0 1.16-.24.5-.24.92-.77l.5.4q-.9 1.3-2.6 1.3zm-.15-6.97q-.92 0-1.56.68-.63.7-.76 1.83h4.43v-.1q-.03-1.06-.6-1.73-.58-.67-1.5-.67z"/><path d="M270.68 62.4q0-.62-.5-1-.48-.36-1.46-.56-1-.2-1.53-.48-.55-.27-.82-.66-.26-.4-.26-.95 0-.87.73-1.44.73-.56 1.87-.56 1.24 0 2 .6.74.62.74 1.6h-.82q0-.64-.55-1.08-.55-.43-1.38-.43-.8 0-1.3.37-.48.35-.48.93 0 .55.4.86.4.3 1.5.54 1.07.25 1.6.54.54.3.8.7.26.4.26.97 0 .94-.76 1.5-.75.56-1.97.56-1.3 0-2.1-.62t-.8-1.58h.82q.04.72.6 1.12.56.4 1.47.4.86 0 1.38-.38.53-.38.53-.95z"/><path d="M277.76 62.4q0-.62-.5-1-.48-.36-1.46-.56-1-.2-1.53-.48-.54-.27-.8-.66-.27-.4-.27-.95 0-.87.73-1.44.73-.56 1.87-.56 1.24 0 2 .6.74.62.74 1.6h-.82q0-.64-.55-1.08-.54-.43-1.37-.43-.8 0-1.3.37-.48.35-.48.93 0 .55.4.86.4.3 1.5.54 1.07.25 1.6.54.54.3.8.7.26.4.26.97 0 .94-.76 1.5-.75.56-1.97.56-1.3 0-2.1-.62t-.8-1.58h.82q.05.72.6 1.12.57.4 1.48.4.86 0 1.38-.38.53-.38.53-.95z"/><path d="M285.08 64.27q-.12-.35-.16-1.03-.43.56-1.1.87-.66.3-1.4.3-1.07 0-1.74-.6-.65-.58-.65-1.5 0-1.07.9-1.7.9-.63 2.5-.63h1.5v-.84q0-.8-.5-1.24-.5-.47-1.43-.47-.85 0-1.4.43-.57.44-.57 1.06h-.82q0-.9.83-1.53.82-.66 2-.66 1.25 0 1.96.62.7.6.73 1.72v3.5q0 1.07.22 1.6v.1h-.87zm-2.57-.6q.83 0 1.47-.38.65-.4.95-1.07V60.6h-1.47q-1.22 0-1.9.45-.7.43-.7 1.2 0 .6.46 1.02.47.4 1.2.4z"/><path d="M290.14 63.1l2.16-6.23h.88l-3.16 8.66-.16.38q-.6 1.36-1.88 1.36-.3 0-.63-.1v-.68l.42.05q.6 0 .97-.3t.63-1.02l.37-1-2.8-7.33h.9l2.3 6.22z"/><path d="M299.13 54.98v1.9h1.53v.66h-1.53v4.93q0 .62.22.92.22.3.74.3.2 0 .66-.08l.03.67q-.33.1-.88.1-.84 0-1.23-.48-.4-.5-.4-1.44v-4.94h-1.35v-.67h1.36v-1.9h.83z"/><path d="M301.78 60.46q0-1.06.4-1.92.43-.85 1.18-1.33.76-.46 1.7-.46 1.5 0 2.4 1.04.92 1.03.92 2.74v.17q0 1.06-.4 1.92-.42.86-1.18 1.32-.75.47-1.7.47-1.48 0-2.4-1.03-.92-1.03-.92-2.74v-.17zm.82.23q0 1.3.68 2.17.7.85 1.8.85 1.12 0 1.8-.85.7-.86.7-2.25v-.16q0-.85-.32-1.55-.32-.7-.9-1.08-.55-.4-1.3-.4-1.08 0-1.77.88-.7.85-.7 2.24v.15z"/><path d="M20.84 80.5q0-1.72.77-2.74.78-1.02 2.1-1.02 1.5 0 2.28 1.18v-4.15h.8v10.5h-.75L26 83.3q-.8 1.1-2.32 1.1-1.27 0-2.06-1.02-.78-1.03-.78-2.78v-.1zm.83.15q0 1.4.56 2.23.57.82 1.6.82 1.5 0 2.15-1.34V78.9q-.64-1.45-2.13-1.45-1.03 0-1.6.8-.58.82-.58 2.4z"/><path d="M29.88 84.27h-.82v-7.4h.82v7.4zm-.96-9.54q0-.23.15-.4.15-.15.4-.15.27 0 .42.16.14.16.14.4t-.15.38q-.16.16-.42.16t-.4-.16-.16-.4z"/><path d="M36.54 82.4q0-.62-.5-1-.48-.36-1.46-.56-1-.2-1.53-.48-.54-.27-.8-.66-.27-.4-.27-.95 0-.87.73-1.44.74-.56 1.88-.56 1.24 0 2 .6.74.62.74 1.6h-.82q0-.64-.55-1.08-.54-.43-1.37-.43-.8 0-1.3.37-.48.35-.48.93 0 .55.4.86.4.3 1.5.54 1.07.25 1.6.54.54.3.8.7.26.4.26.97 0 .94-.76 1.5-.75.56-1.97.56-1.3 0-2.1-.62t-.8-1.58h.82q.05.72.6 1.12.57.4 1.48.4.86 0 1.38-.38.54-.38.54-.95z"/><path d="M43.62 82.4q0-.62-.5-1-.48-.36-1.46-.56-1-.2-1.53-.48-.54-.27-.8-.66-.27-.4-.27-.95 0-.87.73-1.44.72-.56 1.86-.56 1.24 0 2 .6.74.62.74 1.6h-.82q0-.64-.55-1.08-.54-.43-1.37-.43-.8 0-1.3.37-.48.35-.48.93 0 .55.4.86.4.3 1.5.54 1.07.25 1.6.54.54.3.8.7.26.4.26.97 0 .94-.76 1.5-.75.56-1.97.56-1.28 0-2.1-.62-.8-.62-.8-1.58h.83q.05.72.6 1.12.57.4 1.48.4.87 0 1.4-.38.52-.38.52-.95z"/><path d="M49.13 84.4q-.94 0-1.7-.46-.77-.46-1.2-1.3-.42-.82-.42-1.86v-.3q0-1.06.42-1.9.42-.87 1.16-1.35.74-.5 1.6-.5 1.35 0 2.13.93.8.92.8 2.5v.47h-5.27v.15q0 1.26.72 2.1.72.84 1.8.84.67 0 1.17-.24.5-.24.92-.77l.5.4q-.9 1.3-2.6 1.3zm-.15-6.97q-.92 0-1.56.68-.63.7-.76 1.83h4.43v-.1q-.04-1.06-.62-1.73-.57-.67-1.5-.67z"/><path d="M56.93 77.57q-.26-.05-.55-.05-.77 0-1.3.43t-.75 1.24v5.07h-.82v-7.4h.8l.03 1.18q.64-1.3 2.08-1.3.35 0 .55.08l-.02.74z"/><path d="M59.85 74.98v1.9h1.53v.66h-1.53v4.93q0 .62.2.92.24.3.76.3.2 0 .67-.08l.04.67q-.3.1-.87.1-.84 0-1.22-.48-.37-.5-.37-1.44v-4.94h-1.36v-.67h1.36v-1.9h.82z"/><path d="M67.76 84.27q-.13-.35-.16-1.03-.43.56-1.1.87-.66.3-1.4.3-1.08 0-1.74-.6-.66-.58-.66-1.5 0-1.07.9-1.7.9-.63 2.5-.63h1.5v-.84q0-.8-.5-1.24-.5-.47-1.42-.47-.86 0-1.42.43-.56.44-.56 1.06h-.82q0-.9.82-1.53.82-.66 2.02-.66 1.24 0 1.95.62.7.6.74 1.72v3.5q0 1.07.23 1.6v.1h-.87zm-2.57-.6q.8 0 1.45-.38.65-.4.94-1.07V80.6h-1.47q-1.22 0-1.92.45-.68.43-.68 1.2 0 .6.46 1.02.47.4 1.2.4z"/><path d="M71.85 74.98v1.9h1.53v.66h-1.53v4.93q0 .62.22.92.22.3.74.3.22 0 .68-.08l.03.67q-.3.1-.86.1-.84 0-1.23-.48-.37-.5-.37-1.44v-4.94h-1.36v-.67h1.36v-1.9h.82z"/><path d="M76 84.27h-.8v-7.4h.8v7.4zm-.96-9.54q0-.23.15-.4.14-.15.4-.15t.4.16q.17.16.17.4t-.16.38q-.14.16-.4.16t-.4-.16q-.16-.15-.16-.4z"/><path d="M77.78 80.46q0-1.06.4-1.92.43-.85 1.18-1.33.76-.46 1.72-.46 1.48 0 2.4 1.04.9 1.03.9 2.74v.17q0 1.06-.4 1.92-.42.86-1.17 1.32-.74.47-1.7.47-1.48 0-2.4-1.03-.92-1.03-.92-2.74v-.17zm.82.23q0 1.3.7 2.17.68.85 1.8.85 1.1 0 1.78-.85.7-.86.7-2.25v-.16q0-.85-.32-1.55-.3-.7-.88-1.08-.57-.4-1.3-.4-1.1 0-1.8.88-.68.85-.68 2.24v.15z"/><path d="M86.86 76.87l.03 1.27q.4-.68 1.03-1.04.62-.36 1.37-.36 1.2 0 1.77.67.58.68.6 2.02v4.85h-.82V79.4q0-.98-.43-1.47-.4-.48-1.32-.48-.75 0-1.34.48-.58.47-.86 1.27v5.07h-.82v-7.4h.78z"/><path d="M93.7 83.78q0-.24.14-.4.16-.18.43-.18.28 0 .43.17.16.17.16.4t-.16.4q-.15.15-.43.15-.27 0-.43-.15-.15-.15-.15-.4z"/><path d="M108.12 84.27h-.84l-5.72-8.52v8.52h-.85v-9.95h.86l5.73 8.52v-8.52h.82v9.95z"/><path d="M110.02 80.46q0-1.06.4-1.92.43-.85 1.18-1.33.76-.46 1.72-.46 1.47 0 2.4 1.04.9 1.03.9 2.74v.17q0 1.06-.4 1.92-.42.86-1.17 1.32-.76.47-1.72.47-1.47 0-2.4-1.03-.9-1.03-.9-2.74v-.17zm.82.23q0 1.3.7 2.17.68.85 1.8.85 1.1 0 1.78-.85.7-.86.7-2.25v-.16q0-.85-.32-1.55-.32-.7-.88-1.08-.57-.4-1.3-.4-1.1 0-1.8.88-.68.85-.68 2.24v.15z"/><path d="M122.48 76.87l.03 1.2q.42-.66 1.04-1 .6-.33 1.36-.33 1.75 0 2.23 1.43.4-.7 1.06-1.06.65-.36 1.45-.36 2.38 0 2.42 2.6v4.93h-.82V79.4q0-1-.43-1.47-.4-.48-1.36-.48-.9 0-1.5.57-.6.56-.67 1.36v4.9h-.83v-4.95q0-.95-.45-1.4-.44-.48-1.36-.48-.77 0-1.32.44-.56.43-.82 1.3v5.07h-.82v-7.4h.78z"/><path d="M138.82 84.27q-.12-.35-.16-1.03-.43.56-1.1.87-.66.3-1.4.3-1.07 0-1.73-.6-.66-.58-.66-1.5 0-1.07.9-1.7.9-.63 2.5-.63h1.5v-.84q0-.8-.5-1.24-.5-.47-1.43-.47-.85 0-1.4.43-.57.44-.57 1.06h-.82q0-.9.82-1.53.82-.66 2-.66 1.25 0 1.96.62.72.6.74 1.72v3.5q0 1.07.23 1.6v.1h-.88zm-2.57-.6q.82 0 1.46-.38.66-.4.96-1.07V80.6h-1.46q-1.23 0-1.92.45-.7.43-.7 1.2 0 .6.47 1.02.46.4 1.2.4z"/><path d="M142.92 74.98v1.9h1.53v.66h-1.53v4.93q0 .62.22.92.22.3.74.3.2 0 .66-.08l.04.67q-.32.1-.88.1-.84 0-1.22-.48-.38-.5-.38-1.44v-4.94h-1.36v-.67h1.36v-1.9h.82z"/><path d="M147.43 74.98v1.9h1.53v.66h-1.53v4.93q0 .62.22.92.22.3.74.3.2 0 .65-.08l.04.67q-.33.1-.9.1-.83 0-1.2-.48-.4-.5-.4-1.44v-4.94h-1.35v-.67h1.36v-1.9h.83z"/><path d="M153.53 84.4q-.94 0-1.7-.46t-1.2-1.3q-.4-.82-.4-1.86v-.3q0-1.06.4-1.9.4-.87 1.15-1.35.74-.5 1.6-.5 1.35 0 2.14.93.8.92.8 2.5v.47H151v.15q0 1.26.73 2.1.72.84 1.82.84.65 0 1.15-.24.5-.24.92-.77l.5.4q-.9 1.3-2.6 1.3zm-.15-6.97q-.92 0-1.56.68-.62.7-.76 1.83h4.43v-.1q-.04-1.06-.6-1.73-.6-.67-1.52-.67z"/><path d="M161.33 77.57q-.26-.05-.55-.05-.77 0-1.3.43t-.75 1.24v5.07h-.82v-7.4h.8l.03 1.18q.65-1.3 2.08-1.3.36 0 .55.08l-.02.74z"/><path d="M166.85 78.12q.4-.66 1.03-1.02t1.38-.36q1.18 0 1.77.67.58.68.58 2.02v4.85h-.8V79.4q0-.98-.42-1.47-.4-.48-1.32-.48-.76 0-1.35.48-.57.47-.85 1.27v5.07h-.8v-10.5h.8v4.35z"/><path d="M173.27 80.46q0-1.06.4-1.92.43-.85 1.18-1.33.76-.46 1.7-.46 1.5 0 2.4 1.04.92 1.03.92 2.74v.17q0 1.06-.42 1.92-.4.86-1.16 1.32-.76.47-1.72.47-1.47 0-2.4-1.03-.9-1.03-.9-2.74v-.17zm.82.23q0 1.3.67 2.17.7.85 1.8.85t1.8-.85q.7-.86.7-2.25v-.16q0-.85-.33-1.55-.3-.7-.88-1.08-.57-.4-1.3-.4-1.1 0-1.78.88-.7.85-.7 2.24v.15z"/><path d="M183.34 82.57l.12.63.17-.67 1.77-5.66h.7l1.76 5.62.2.77.15-.72 1.52-5.68h.85l-2.15 7.4h-.7l-1.9-5.86-.1-.4-.08.4-1.86 5.87h-.7l-2.15-7.4h.84l1.57 5.7z"/><path d="M198.27 83.72q.86 0 1.43-.48.58-.5.63-1.25h.8q-.05.66-.44 1.22-.4.56-1.05.87-.64.3-1.38.3-1.45 0-2.3-1-.85-1.02-.85-2.73v-.24q0-1.1.38-1.94.38-.85 1.1-1.3.7-.46 1.67-.46 1.2 0 2 .72.8.73.85 1.9h-.8q-.04-.86-.62-1.4-.56-.53-1.43-.53-1.1 0-1.73.8-.6.8-.6 2.25v.23q0 1.43.6 2.22.62.8 1.73.8z"/><path d="M202.3 80.46q0-1.06.42-1.92.4-.85 1.17-1.33.74-.46 1.7-.46 1.48 0 2.4 1.04.9 1.03.9 2.74v.17q0 1.06-.4 1.92-.42.86-1.17 1.32-.75.47-1.7.47-1.48 0-2.4-1.03-.92-1.03-.92-2.74v-.17zm.83.23q0 1.3.68 2.17.7.85 1.82.85 1.1 0 1.8-.85.68-.86.68-2.25v-.16q0-.85-.32-1.55-.3-.7-.88-1.08-.57-.4-1.3-.4-1.1 0-1.78.88-.7.85-.7 2.24v.15z"/><path d="M211.35 76.87l.03 1.2q.4-.66 1.02-1 .62-.33 1.37-.33 1.75 0 2.22 1.43.4-.7 1.05-1.06.67-.36 1.47-.36 2.37 0 2.42 2.6v4.93h-.82V79.4q0-1-.43-1.47-.43-.48-1.38-.48-.88 0-1.5.57-.6.56-.66 1.36v4.9h-.82v-4.95q0-.95-.45-1.4-.45-.48-1.37-.48-.77 0-1.32.44-.55.43-.8 1.3v5.07h-.83v-7.4h.78z"/><path d="M228.97 80.65q0 1.73-.77 2.74-.76 1-2.05 1-1.52 0-2.32-1.06v3.77H223V76.88h.77l.04 1.05q.8-1.18 2.33-1.18 1.33 0 2.08 1 .77 1 .77 2.8v.1zm-.82-.15q0-1.4-.58-2.23-.58-.82-1.62-.82-.76 0-1.3.36-.54.37-.82 1.06v3.55q.3.65.84.98t1.3.34q1.02 0 1.6-.82.58-.83.58-2.4z"/><path d="M231.7 84.27h-.82v-10.5h.82v10.5z"/><path d="M234.85 84.27h-.82v-7.4h.82v7.4zm-.97-9.54q0-.23.15-.4.15-.15.4-.15t.42.16q.16.16.16.4t-.15.38q-.15.16-.4.16t-.42-.16-.15-.4z"/><path d="M239.8 83.72q.86 0 1.44-.48.58-.5.63-1.25h.78q-.03.66-.42 1.22-.4.56-1.04.87-.65.3-1.4.3-1.45 0-2.3-1-.85-1.02-.85-2.73v-.24q0-1.1.38-1.94.4-.85 1.1-1.3.72-.46 1.67-.46 1.22 0 2 .72.8.73.85 1.9h-.78q-.06-.86-.63-1.4-.57-.53-1.44-.53-1.1 0-1.72.8-.6.8-.6 2.25v.23q0 1.43.6 2.22.6.8 1.73.8z"/><path d="M248.96 84.27q-.12-.35-.15-1.03-.42.56-1.1.87-.66.3-1.4.3-1.07 0-1.73-.6-.66-.58-.66-1.5 0-1.07.9-1.7.9-.63 2.52-.63h1.48v-.84q0-.8-.5-1.24-.48-.47-1.42-.47-.85 0-1.4.43-.57.44-.57 1.06h-.8q0-.9.8-1.53.83-.66 2.03-.66 1.23 0 1.94.62.72.6.74 1.72v3.5q0 1.07.24 1.6v.1h-.88zm-2.57-.6q.8 0 1.46-.38.65-.4.94-1.07V80.6h-1.46q-1.23 0-1.92.45-.7.43-.7 1.2 0 .6.47 1.02.45.4 1.2.4z"/><path d="M253.06 74.98v1.9h1.53v.66h-1.54v4.93q0 .62.22.92.22.3.74.3.2 0 .66-.08l.04.67q-.32.1-.88.1-.84 0-1.22-.48-.38-.5-.38-1.44v-4.94h-1.36v-.67h1.36v-1.9h.82z"/><path d="M259.16 84.4q-.94 0-1.7-.46-.77-.46-1.2-1.3-.4-.82-.4-1.86v-.3q0-1.06.4-1.9.4-.87 1.15-1.35.75-.5 1.6-.5 1.36 0 2.14.93.8.92.8 2.5v.47h-5.28v.15q0 1.26.72 2.1.72.84 1.82.84.65 0 1.15-.24.5-.24.92-.77l.5.4q-.9 1.3-2.6 1.3zm-.15-6.97q-.9 0-1.55.68-.63.7-.76 1.83h4.42v-.1q-.03-1.06-.6-1.73-.58-.67-1.5-.67z"/><path d="M263.22 80.5q0-1.72.77-2.74.76-1.02 2.08-1.02 1.5 0 2.28 1.18v-4.15h.8v10.5h-.75l-.03-.98q-.78 1.1-2.3 1.1-1.28 0-2.07-1.02-.78-1.03-.78-2.78v-.1zm.83.15q0 1.4.56 2.23.58.82 1.6.82 1.52 0 2.16-1.34V78.9q-.64-1.45-2.13-1.45-1.03 0-1.6.8-.58.82-.58 2.4z"/><path d="M277.1 83.1l2.16-6.23h.88l-3.16 8.66-.16.38q-.6 1.36-1.88 1.36-.3 0-.63-.1v-.68l.43.05q.6 0 .97-.3t.63-1.02l.37-1-2.8-7.33h.9l2.3 6.22z"/><path d="M280.84 80.46q0-1.06.4-1.92.43-.85 1.18-1.33.76-.46 1.7-.46 1.5 0 2.4 1.04.92 1.03.92 2.74v.17q0 1.06-.4 1.92-.42.86-1.18 1.32-.75.47-1.7.47-1.48 0-2.4-1.03-.92-1.03-.92-2.74v-.17zm.82.23q0 1.3.68 2.17.7.85 1.8.85 1.12 0 1.8-.85.7-.86.7-2.25v-.16q0-.85-.32-1.55-.32-.7-.9-1.08-.55-.4-1.3-.4-1.08 0-1.77.88-.7.85-.7 2.24v.15z"/><path d="M293.9 83.33q-.74 1.08-2.36 1.08-1.18 0-1.8-.68-.6-.7-.63-2.03v-4.83h.83v4.7q0 2.13 1.7 2.13 1.78 0 2.26-1.47v-5.36h.8v7.4h-.8v-.94z"/><path d="M300.24 77.57q-.26-.05-.55-.05-.78 0-1.3.43-.54.43-.76 1.24v5.07h-.82v-7.4h.8l.02 1.18q.64-1.3 2.08-1.3.34 0 .54.08l-.02.74z"/><path d="M14.7 104.27q-.1-.35-.15-1.03-.43.56-1.1.87-.66.3-1.4.3-1.07 0-1.74-.6-.64-.58-.64-1.5 0-1.07.9-1.7.9-.63 2.5-.63h1.5v-.84q0-.8-.5-1.24-.5-.47-1.43-.47-.85 0-1.4.43-.57.44-.57 1.06h-.82q0-.9.82-1.53.82-.66 2-.66 1.25 0 1.96.62.72.6.74 1.72v3.5q0 1.07.22 1.6v.1h-.87zm-2.56-.6q.82 0 1.46-.38.65-.4.95-1.07v-1.63h-1.47q-1.22 0-1.9.45-.7.43-.7 1.2 0 .6.46 1.02.46.4 1.2.4z"/><path d="M21.96 102.4q0-.62-.5-1-.48-.36-1.46-.56-1-.2-1.53-.48-.54-.27-.8-.66-.27-.4-.27-.95 0-.87.73-1.44.73-.56 1.87-.56 1.24 0 2 .6.74.62.74 1.6h-.82q0-.64-.55-1.08-.54-.43-1.37-.43-.8 0-1.3.37-.48.35-.48.93 0 .55.4.86.4.3 1.5.54 1.07.25 1.6.54.54.3.8.7.26.4.26.97 0 .94-.76 1.5-.75.56-1.97.56-1.3 0-2.1-.62t-.8-1.58h.82q.05.72.6 1.12.57.4 1.48.4.86 0 1.38-.38.53-.38.53-.95z"/><path d="M29.04 102.4q0-.62-.5-1-.48-.36-1.46-.56-1-.2-1.53-.48-.54-.27-.8-.66-.27-.4-.27-.95 0-.87.73-1.44.74-.56 1.88-.56 1.24 0 2 .6.74.62.74 1.6H29q0-.64-.55-1.08-.54-.43-1.37-.43-.8 0-1.3.37-.48.35-.48.93 0 .55.4.86.4.3 1.5.54 1.07.25 1.6.54.54.3.8.7.26.4.26.97 0 .94-.76 1.5-.75.56-1.97.56-1.3 0-2.1-.62t-.8-1.58h.82q.05.72.6 1.12.57.4 1.48.4.86 0 1.38-.38.54-.38.54-.95z"/><path d="M32.6 104.27h-.8v-7.4h.8v7.4zm-.95-9.54q0-.23.15-.4.15-.15.4-.15.27 0 .42.16.15.16.15.4t-.15.38q-.15.16-.4.16-.27 0-.42-.16-.15-.15-.15-.4z"/><path d="M34.5 100.5q0-1.74.78-2.75.77-1.02 2.1-1.02 1.5 0 2.28 1.2l.05-1.06h.77v7.25q0 1.42-.8 2.26-.8.83-2.17.83-.77 0-1.47-.34t-1.1-.9l.45-.5q.87 1.06 2.07 1.06 1.02 0 1.6-.6.57-.6.6-1.68v-.93q-.8 1.1-2.3 1.1-1.28 0-2.06-1.02-.8-1.03-.8-2.77v-.1zm.84.14q0 1.42.56 2.24.57.8 1.6.8 1.5 0 2.14-1.34V98.9q-.28-.7-.82-1.08-.54-.38-1.3-.38-1.03 0-1.6.82-.58.8-.58 2.38z"/><path d="M43.4 96.87l.02 1.27q.4-.68 1.04-1.04.62-.36 1.37-.36 1.2 0 1.77.67.58.68.6 2.02v4.85h-.82V99.4q0-.98-.43-1.47-.4-.48-1.32-.48-.76 0-1.34.48-.6.47-.88 1.27v5.07h-.8v-7.4h.77z"/><path d="M51.03 96.87l.03 1.2q.4-.66 1.02-1 .62-.33 1.37-.33 1.75 0 2.22 1.43.4-.7 1.06-1.06.66-.36 1.46-.36 2.37 0 2.42 2.6v4.93h-.82V99.4q0-1-.43-1.47-.42-.48-1.37-.48-.88 0-1.5.57-.6.56-.66 1.36v4.9h-.82v-4.95q0-.95-.46-1.4-.43-.48-1.35-.48-.76 0-1.32.44-.55.43-.82 1.3v5.07h-.82v-7.4h.8z"/><path d="M65.57 104.4q-.95 0-1.7-.45-.77-.47-1.2-1.3-.42-.83-.42-1.86v-.3q0-1.07.4-1.93.43-.85 1.17-1.34.74-.5 1.6-.5 1.34 0 2.13.93.8.92.8 2.5v.47h-5.28v.16q0 1.24.7 2.1.74.82 1.83.82.66 0 1.16-.24.5-.24.9-.77l.53.4q-.92 1.3-2.63 1.3zm-.15-6.96q-.93 0-1.56.67-.63.7-.77 1.83h4.43v-.1q-.03-1.05-.6-1.72-.58-.66-1.5-.66z"/><path d="M70.73 96.87l.03 1.27q.4-.68 1.04-1.04.62-.36 1.37-.36 1.2 0 1.77.67.58.68.6 2.02v4.85h-.83V99.4q0-.98-.4-1.47-.42-.48-1.33-.48-.76 0-1.35.48-.58.47-.86 1.27v5.07h-.8v-7.4h.77z"/><path d="M78.9 94.98v1.9h1.54v.66H78.9v4.93q0 .62.22.92.23.3.75.3.2 0 .66-.08l.04.67q-.33.1-.88.1-.85 0-1.23-.48-.4-.5-.4-1.44v-4.94h-1.35v-.67h1.36v-1.9h.83z"/><path d="M86.48 104.27h-.82v-7.4h.82v7.4zm-.96-9.54q0-.23.15-.4.15-.15.4-.15t.42.16q.14.16.14.4t-.15.38q-.16.16-.42.16t-.4-.16q-.16-.15-.16-.4z"/><path d="M93.14 102.4q0-.62-.5-1-.48-.36-1.46-.56-1-.2-1.54-.48-.54-.27-.8-.66-.26-.4-.26-.95 0-.87.73-1.44.74-.56 1.88-.56 1.24 0 1.98.6.76.62.76 1.6h-.82q0-.64-.55-1.08-.54-.43-1.37-.43-.8 0-1.3.37-.48.35-.48.93 0 .55.4.86.4.3 1.48.54 1.08.25 1.62.54.54.3.8.7t.26.97q0 .94-.76 1.5-.75.56-1.97.56-1.3 0-2.1-.62t-.8-1.58h.82q.05.72.6 1.12.56.4 1.48.4.85 0 1.38-.38.54-.38.54-.95z"/><path d="M98.76 100.46q0-1.07.4-1.92.42-.86 1.18-1.33.75-.47 1.7-.47 1.5 0 2.4 1.04.92 1.04.92 2.74v.2q0 1.06-.42 1.92-.4.85-1.16 1.32-.75.46-1.7.46-1.48 0-2.4-1.03-.92-1.04-.92-2.75v-.16zm.82.23q0 1.3.68 2.17.7.84 1.8.84t1.8-.83q.7-.86.7-2.25v-.16q0-.85-.33-1.55-.3-.7-.88-1.08-.57-.4-1.3-.4-1.1 0-1.78.87-.7.85-.7 2.24v.15z"/><path d="M110.47 97.57q-.26-.05-.55-.05-.77 0-1.3.43t-.75 1.24v5.07h-.8v-7.4h.78l.02 1.18q.65-1.3 2.08-1.3.35 0 .54.08l-.03.74z"/><path d="M116.95 102.57l.12.64.16-.66 1.78-5.66h.7l1.77 5.6.2.8.14-.73 1.53-5.67h.85l-2.15 7.4h-.7l-1.9-5.87-.1-.4-.08.4-1.87 5.87h-.7l-2.14-7.4h.84l1.57 5.7z"/><path d="M126.55 98.12q.4-.66 1.03-1.02t1.37-.36q1.2 0 1.77.67.58.68.6 2.02v4.85h-.82V99.4q0-.98-.43-1.47-.4-.48-1.32-.48-.76 0-1.34.48-.57.47-.86 1.27v5.07h-.8v-10.5h.8v4.35z"/><path d="M138.08 104.27q-.12-.35-.15-1.03-.43.56-1.1.87-.67.3-1.4.3-1.08 0-1.74-.6-.67-.58-.67-1.5 0-1.07.9-1.7.9-.63 2.5-.63h1.5v-.84q0-.8-.5-1.24-.5-.47-1.42-.47-.85 0-1.4.43-.57.44-.57 1.06h-.82q0-.9.83-1.53.82-.66 2.02-.66 1.23 0 1.95.62.7.6.73 1.72v3.5q0 1.07.23 1.6v.1h-.88zm-2.57-.6q.83 0 1.48-.38.65-.4.94-1.07v-1.63h-1.46q-1.23 0-1.92.45-.7.43-.7 1.2 0 .6.47 1.02.48.4 1.2.4z"/><path d="M142.18 94.98v1.9h1.53v.66h-1.52v4.93q0 .62.22.92.22.3.74.3.2 0 .66-.08l.04.67q-.32.1-.88.1-.84 0-1.22-.48-.38-.5-.38-1.44v-4.94H140v-.67h1.36v-1.9h.82z"/><path d="M150.1 94.98v1.9h1.54v.66h-1.53v4.93q0 .62.23.92.22.3.74.3.2 0 .67-.08l.03.67q-.32.1-.88.1-.85 0-1.23-.48-.38-.5-.38-1.44v-4.94h-1.37v-.67h1.36v-1.9h.8z"/><path d="M152.76 100.46q0-1.07.4-1.92.43-.86 1.18-1.33.76-.47 1.72-.47 1.47 0 2.4 1.04.9 1.04.9 2.74v.2q0 1.06-.4 1.92-.42.85-1.18 1.32-.75.46-1.7.46-1.48 0-2.4-1.03-.92-1.04-.92-2.75v-.16zm.82.23q0 1.3.68 2.17.7.84 1.8.84 1.12 0 1.8-.83.7-.86.7-2.25v-.16q0-.85-.32-1.55-.32-.7-.9-1.08-.55-.4-1.28-.4-1.1 0-1.8.87-.68.85-.68 2.24v.15z"/><path d="M167 100.65q0 1.73-.76 2.75-.76 1-2.05 1-1.53 0-2.33-1.06v3.78h-.82V96.88h.76l.05 1.04q.8-1.18 2.32-1.18 1.33 0 2.08 1 .76 1 .76 2.8v.1zm-.8-.15q0-1.42-.6-2.24-.58-.82-1.6-.82-.77 0-1.3.37-.55.37-.83 1.06v3.55q.3.64.84.98.55.33 1.3.33 1.03 0 1.6-.8.6-.84.6-2.4z"/><path d="M169.74 104.27h-.82v-7.4h.82v7.4zm-.96-9.54q0-.23.15-.4.15-.15.4-.15t.42.16q.16.16.16.4t-.15.38q-.15.16-.4.16t-.42-.16-.15-.4z"/><path d="M174.7 103.72q.86 0 1.43-.48.58-.48.63-1.25h.8q-.05.67-.44 1.23-.4.55-1.04.87-.64.3-1.38.3-1.45 0-2.3-1-.85-1-.85-2.72v-.25q0-1.1.38-1.93.38-.84 1.1-1.3.7-.46 1.67-.46 1.2 0 2 .73.8.72.85 1.9h-.8q-.04-.87-.62-1.4-.56-.53-1.43-.53-1.1 0-1.73.8-.6.8-.6 2.24v.24q0 1.4.6 2.2.62.8 1.73.8z"/><path d="M184.95 103.1l2.16-6.23h.9l-3.17 8.65-.16.4q-.6 1.33-1.88 1.33-.3 0-.64-.1v-.67l.42.04q.6 0 .97-.3.38-.3.64-1.02l.35-1-2.8-7.33h.9l2.3 6.22z"/><path d="M188.7 100.46q0-1.07.4-1.92.42-.86 1.17-1.33.76-.47 1.7-.47 1.5 0 2.4 1.04.92 1.04.92 2.74v.2q0 1.06-.42 1.92-.4.85-1.17 1.32-.74.46-1.7.46-1.47 0-2.4-1.03-.9-1.04-.9-2.75v-.16zm.8.23q0 1.3.7 2.17.68.84 1.8.84 1.1 0 1.8-.83.68-.86.68-2.25v-.16q0-.85-.3-1.55-.33-.7-.9-1.08-.56-.4-1.3-.4-1.1 0-1.78.87-.7.85-.7 2.24v.15z"/><path d="M201.75 103.33q-.74 1.07-2.36 1.07-1.2 0-1.8-.68-.62-.7-.64-2.04v-4.8h.82v4.7q0 2.1 1.7 2.1 1.78 0 2.25-1.46v-5.35h.82v7.4h-.8v-.94z"/><path d="M208.9 98.12q.4-.66 1.04-1.02.63-.36 1.37-.36 1.2 0 1.78.67.58.68.6 2.02v4.85h-.82V99.4q0-.98-.43-1.47-.4-.48-1.32-.48-.75 0-1.33.48-.6.47-.87 1.27v5.07h-.8v-10.5h.8v4.35z"/><path d="M220.44 104.27q-.12-.35-.15-1.03-.44.56-1.1.87-.68.3-1.42.3-1.07 0-1.73-.6-.66-.58-.66-1.5 0-1.07.9-1.7.9-.63 2.5-.63h1.48v-.84q0-.8-.5-1.24-.48-.47-1.42-.47-.85 0-1.4.43-.57.44-.57 1.06h-.83q0-.9.82-1.53.8-.66 2-.66 1.24 0 1.95.62.72.6.74 1.72v3.5q0 1.07.22 1.6v.1h-.88zm-2.57-.6q.82 0 1.47-.38.65-.4.94-1.07v-1.63h-1.46q-1.23 0-1.92.45-.7.43-.7 1.2 0 .6.47 1.02.46.4 1.2.4z"/><path d="M225.46 103.14l2.25-6.27h.85l-2.76 7.4h-.67l-2.78-7.4h.84l2.26 6.27z"/><path d="M232.67 104.4q-.95 0-1.7-.45-.77-.47-1.2-1.3-.42-.83-.42-1.86v-.3q0-1.07.4-1.93.43-.85 1.17-1.34.73-.5 1.6-.5 1.34 0 2.13.93.8.92.8 2.5v.47h-5.3v.16q0 1.24.73 2.1.73.82 1.82.82.66 0 1.16-.24.5-.24.9-.77l.52.4q-.9 1.3-2.6 1.3zm-.15-6.96q-.93 0-1.56.67-.63.7-.77 1.83h4.43v-.1q-.04-1.05-.6-1.72-.58-.66-1.5-.66z"/><path d="M241.74 94.98v1.9h1.53v.66h-1.53v4.93q0 .62.22.92.22.3.74.3.2 0 .66-.08l.04.67q-.32.1-.88.1-.84 0-1.22-.48-.38-.5-.38-1.44v-4.94h-1.36v-.67h1.36v-1.9h.82z"/><path d="M244.4 100.46q0-1.07.4-1.92.42-.86 1.17-1.33.76-.47 1.7-.47 1.5 0 2.4 1.04.92 1.04.92 2.74v.2q0 1.06-.42 1.92-.4.85-1.17 1.32-.74.46-1.7.46-1.47 0-2.4-1.03-.9-1.04-.9-2.75v-.16zm.8.23q0 1.3.7 2.17.68.84 1.8.84 1.1 0 1.8-.83.68-.86.68-2.25v-.16q0-.85-.32-1.55-.3-.7-.88-1.08-.56-.4-1.3-.4-1.1 0-1.78.87-.7.85-.7 2.24v.15z"/><path d="M257.88 102.57l.12.64.16-.66 1.78-5.66h.7l1.76 5.6.2.8.14-.73 1.52-5.67h.85l-2.14 7.4h-.7l-1.9-5.87-.1-.4-.08.4-1.88 5.87h-.7l-2.14-7.4h.84l1.57 5.7z"/><path d="M270.08 97.57q-.26-.05-.55-.05-.77 0-1.3.43t-.75 1.24v5.07h-.82v-7.4h.8l.02 1.18q.64-1.3 2.08-1.3.34 0 .54.08l-.02.74z"/><path d="M272.28 104.27h-.82v-7.4h.82v7.4zm-.96-9.54q0-.23.15-.4.15-.15.4-.15t.42.16q.14.16.14.4t-.15.38q-.16.16-.42.16t-.4-.16-.16-.4z"/><path d="M275.78 94.98v1.9h1.53v.66h-1.52v4.93q0 .62.22.92.22.3.74.3.2 0 .67-.08l.04.67q-.32.1-.87.1-.84 0-1.23-.48-.38-.5-.38-1.44v-4.94h-1.36v-.67h1.36v-1.9h.82z"/><path d="M281.88 104.4q-.94 0-1.7-.45-.77-.47-1.2-1.3-.42-.83-.42-1.86v-.3q0-1.07.4-1.93.43-.85 1.17-1.34.74-.5 1.6-.5 1.35 0 2.13.93.8.92.8 2.5v.47h-5.28v.16q0 1.24.72 2.1.72.82 1.8.82.67 0 1.17-.24.5-.24.92-.77l.5.4q-.9 1.3-2.62 1.3zm-.15-6.96q-.92 0-1.56.67-.63.7-.76 1.83h4.44v-.1q-.03-1.05-.6-1.72-.58-.66-1.5-.66z"/><path d="M289.23 100.46q0-1.07.4-1.92.43-.86 1.18-1.33.77-.47 1.72-.47 1.48 0 2.4 1.04.9 1.04.9 2.74v.2q0 1.06-.4 1.92-.4.85-1.17 1.32-.75.46-1.7.46-1.48 0-2.4-1.03-.92-1.04-.92-2.75v-.16zm.82.23q0 1.3.68 2.17.7.84 1.8.84 1.12 0 1.8-.83.7-.86.7-2.25v-.16q0-.85-.32-1.55-.3-.7-.88-1.08-.56-.4-1.3-.4-1.1 0-1.78.87-.7.85-.7 2.24v.15z"/><path d="M298.3 96.87l.04 1.27q.4-.68 1.04-1.04.62-.36 1.37-.36 1.2 0 1.77.67.58.68.6 2.02v4.85h-.82V99.4q0-.98-.43-1.47-.4-.48-1.32-.48-.76 0-1.34.48-.58.47-.86 1.27v5.07h-.8v-7.4h.77z"/><path d="M311.18 100.22h-3.27v-.7h3.28v.7z"/><path d="M102.75 120.5q0-1.74.76-2.75.8-1.02 2.12-1.02 1.5 0 2.28 1.14l.04-1h.76v10.24h-.82v-3.75q-.8 1.05-2.27 1.05-1.3 0-2.07-1.02t-.78-2.77v-.1zm.83.14q0 1.44.57 2.26.58.8 1.6.8 1.48 0 2.13-1.27v-3.62q-.3-.65-.85-1-.54-.37-1.26-.37-1.03 0-1.6.82-.6.8-.6 2.4z"/><path d="M115.66 123.33q-.74 1.07-2.36 1.07-1.2 0-1.8-.68-.62-.7-.63-2.04v-4.8h.8v4.7q0 2.1 1.72 2.1 1.77 0 2.24-1.46v-5.35h.82v7.4h-.8v-.94z"/><path d="M123.25 124.27q-.12-.35-.16-1.03-.44.56-1.1.87-.67.3-1.42.3-1.06 0-1.73-.6-.65-.58-.65-1.5 0-1.07.9-1.7.9-.63 2.5-.63h1.5v-.84q0-.8-.5-1.24-.5-.47-1.43-.47-.85 0-1.4.43-.57.44-.57 1.06h-.82q0-.9.82-1.53.82-.66 2-.66 1.25 0 1.96.62.72.6.74 1.72v3.5q0 1.07.22 1.6v.1h-.87zm-2.57-.6q.82 0 1.46-.38.65-.4.95-1.07v-1.63h-1.48q-1.22 0-1.9.45-.7.43-.7 1.2 0 .6.46 1.02.46.4 1.2.4z"/><path d="M127 124.27h-.83v-10.5h.82v10.5z"/><path d="M130.13 124.27h-.82v-7.4h.83v7.4zm-.96-9.54q0-.23.15-.4.15-.15.4-.15t.42.16q.16.16.16.4t-.16.38q-.15.16-.4.16-.27 0-.42-.16-.15-.15-.15-.4z"/><path d="M133.63 114.98v1.9h1.54v.66h-1.54v4.93q0 .62.22.92.23.3.75.3.2 0 .66-.08l.04.67q-.33.1-.88.1-.84 0-1.22-.48-.4-.5-.4-1.44v-4.94h-1.35v-.67h1.36v-1.9h.83z"/><path d="M139.22 123.1l2.16-6.23h.88l-3.16 8.65-.16.4q-.6 1.33-1.88 1.33-.3 0-.63-.1v-.67l.42.04q.6 0 .97-.3t.63-1.02l.36-1-2.77-7.33h.9l2.3 6.22z"/><path d="M146.6 120.5q0-1.74.77-2.75.78-1.02 2.1-1.02 1.5 0 2.3 1.2l.03-1.06h.77v7.25q0 1.42-.8 2.26-.8.83-2.17.83-.77 0-1.47-.34t-1.1-.9l.45-.5q.87 1.06 2.07 1.06 1.02 0 1.6-.6.57-.6.6-1.68v-.93q-.8 1.1-2.3 1.1-1.28 0-2.06-1.02t-.8-2.77v-.1zm.84.14q0 1.42.56 2.24.57.8 1.6.8 1.5 0 2.14-1.34v-3.44q-.3-.7-.83-1.08-.53-.38-1.28-.38-1.04 0-1.6.82-.58.8-.58 2.38z"/><path d="M159.46 123.33q-.74 1.07-2.36 1.07-1.18 0-1.8-.68-.6-.7-.63-2.04v-4.8h.82v4.7q0 2.1 1.7 2.1 1.77 0 2.25-1.46v-5.35h.82v7.4h-.8v-.94z"/><path d="M167.05 124.27q-.12-.35-.15-1.03-.43.56-1.1.87-.67.3-1.4.3-1.08 0-1.74-.6-.66-.58-.66-1.5 0-1.07.9-1.7.9-.63 2.5-.63h1.5v-.84q0-.8-.5-1.24-.5-.47-1.42-.47-.86 0-1.42.43-.56.44-.56 1.06h-.82q0-.9.82-1.53.82-.66 2.02-.66 1.23 0 1.95.62.7.6.73 1.72v3.5q0 1.07.23 1.6v.1h-.88zm-2.57-.6q.82 0 1.47-.38.65-.4.94-1.07v-1.63h-1.47q-1.23 0-1.92.45-.68.43-.68 1.2 0 .6.46 1.02.47.4 1.2.4z"/><path d="M173.3 117.57q-.26-.05-.56-.05-.76 0-1.3.43-.52.43-.75 1.24v5.07h-.82v-7.4h.8v1.18q.66-1.3 2.1-1.3.34 0 .54.07l-.02.75z"/><path d="M178.98 124.27q-.13-.35-.16-1.03-.43.56-1.1.87-.66.3-1.4.3-1.08 0-1.74-.6-.66-.58-.66-1.5 0-1.07.9-1.7.9-.63 2.5-.63h1.5v-.84q0-.8-.5-1.24-.5-.47-1.42-.47-.86 0-1.42.43-.56.44-.56 1.06h-.82q0-.9.82-1.53.82-.66 2.02-.66 1.24 0 1.95.62.7.6.73 1.72v3.5q0 1.07.22 1.6v.1h-.87zm-2.57-.6q.83 0 1.47-.38.65-.4.94-1.07v-1.63h-1.45q-1.22 0-1.92.45-.7.43-.7 1.2 0 .6.47 1.02.47.4 1.2.4z"/><path d="M182.58 116.87l.03 1.26q.42-.68 1.05-1.03.62-.37 1.37-.37 1.2 0 1.77.67.57.67.58 2v4.87h-.82v-4.86q0-1-.42-1.47-.4-.5-1.32-.5-.76 0-1.35.5-.58.46-.86 1.27v5.07h-.8v-7.4h.78z"/><path d="M190.75 114.98v1.9h1.54v.66h-1.55v4.93q0 .62.22.92.23.3.75.3.2 0 .66-.08l.04.67q-.33.1-.88.1-.84 0-1.22-.48-.4-.5-.4-1.44v-4.94h-1.35v-.67h1.36v-1.9h.83z"/><path d="M196.86 124.4q-.94 0-1.7-.45-.77-.47-1.2-1.3-.42-.83-.42-1.86v-.3q0-1.07.4-1.93.43-.85 1.17-1.34.75-.5 1.6-.5 1.36 0 2.14.93.8.92.8 2.5v.47h-5.28v.16q0 1.24.7 2.1.74.82 1.83.82.65 0 1.15-.24.5-.24.9-.77l.53.4q-.9 1.3-2.62 1.3zm-.15-6.96q-.9 0-1.55.67-.63.7-.77 1.83h4.44v-.1q-.03-1.05-.6-1.72-.58-.66-1.5-.66z"/><path d="M204.1 124.4q-.94 0-1.7-.45-.76-.47-1.2-1.3-.4-.83-.4-1.86v-.3q0-1.07.4-1.93.42-.85 1.16-1.34.73-.5 1.6-.5 1.34 0 2.13.93.78.92.78 2.5v.47h-5.28v.16q0 1.24.72 2.1.73.82 1.82.82.66 0 1.15-.24.5-.24.9-.77l.52.4q-.9 1.3-2.6 1.3zm-.15-6.96q-.92 0-1.55.67-.63.7-.77 1.83h4.44v-.1q-.04-1.05-.6-1.72-.6-.66-1.52-.66z"/><path d="M208.16 120.5q0-1.72.76-2.74.78-1.03 2.1-1.03 1.5 0 2.28 1.2v-4.16h.8v10.5h-.75l-.04-1q-.77 1.13-2.3 1.13-1.28 0-2.06-1.02-.78-1.03-.78-2.78v-.1zm.83.14q0 1.42.55 2.24.57.8 1.6.8 1.5 0 2.15-1.32v-3.47q-.64-1.46-2.13-1.46-1.04 0-1.6.82-.58.8-.58 2.38z"/><path d="M216.2 123.78q0-.24.16-.4.15-.17.43-.17.26 0 .42.18.15.16.15.4t-.15.4q-.16.15-.43.15-.3 0-.44-.15-.16-.16-.16-.4z"/></g></g></g></svg>