<svg xmlns="http://www.w3.org/2000/svg" width="320" height="130" viewBox="0 0 320.00001 130"><g><g><g><path d="M80.05 9.04h-5.3v5.3h-.97V2.98h7.05v.83h-6.1v4.42h5.32v.82z"/><path d="M91.2 9.28q0 1.57-.56 2.76-.54 1.2-1.54 1.83-1 .64-2.33.64-2 0-3.22-1.42-1.23-1.43-1.23-3.85V8.06q0-1.55.55-2.75t1.56-1.83q1-.65 2.32-.65 1.3 0 2.3.63 1.02.63 1.57 1.8.55 1.15.57 2.67v1.36zm-.97-1.23q0-2.06-.93-3.22-.93-1.17-2.55-1.17-1.58 0-2.53 1.17-.94 1.17-.94 3.26v1.18q0 2.02.94 3.2.94 1.2 2.55 1.2 1.63 0 2.54-1.17.93-1.17.93-3.25v-1.2z"/><path d="M97.88 9.62h-3.3v4.73h-.98V2.98h3.7q1.82 0 2.84.88 1.03.88 1.03 2.47 0 1.1-.64 1.93-.64.83-1.72 1.15l2.85 4.85v.1h-1.02l-2.75-4.73zm-3.3-.82h2.94q1.2 0 1.94-.7.74-.68.74-1.77 0-1.2-.77-1.87-.76-.66-2.15-.66h-2.7v5z"/><path d="M105.06 2.98l4.2 10.03 4.2-10.03h1.28v11.38h-.96V9.4l.08-5.08-4.23 10.03h-.74l-4.23-10 .08 5.02v4.98h-.97V2.97h1.28z"/><path d="M123.92 11.16h-5.16l-1.17 3.2h-1.02l4.3-11.4h.92l4.3 11.4h-1l-1.18-3.2zm-4.86-.82h4.56l-2.28-6.2-2.28 6.2z"/><path d="M134.5 3.8h-3.9v10.55h-.96V3.8h-3.9v-.83h8.76v.83z"/><path d="M144.2 3.8h-3.9v10.55h-.97V3.8h-3.9v-.83h8.76v.83z"/><path d="M147.2 14.35h-.95V2.97h.96v11.38z"/><path d="M158.75 14.35h-.96l-6.55-9.73v9.73h-.97V2.97h.97l6.55 9.75V2.97h.95v11.38z"/><path d="M169.87 13q-.5.7-1.57 1.1-1.06.4-2.38.4-1.34 0-2.38-.63-1.04-.64-1.6-1.82t-.6-2.68V7.93q0-2.37 1.2-3.74 1.2-1.38 3.22-1.38 1.76 0 2.83.9 1.06.9 1.26 2.46h-.96q-.2-1.25-1.02-1.9-.8-.64-2.1-.64-1.6 0-2.54 1.13-.93 1.13-.93 3.2V9.3q0 1.3.45 2.3.45 1 1.27 1.55.83.54 1.9.54 1.24 0 2.13-.4.58-.25.86-.6V9.77h-3.05v-.82h4.02V13z"/><path d="M178.22 8.15q-.68-.82-1-1.46-.3-.66-.3-1.3 0-1.2.7-1.9.73-.68 1.92-.68 1.1 0 1.76.63.67.63.67 1.6 0 1.12-1.3 2.2l-1.25.98 3.13 3.64q.7-1.15.7-2.6h.88q0 1.93-1 3.27l1.55 1.8h-1.12l-1-1.13q-.6.62-1.42.96-.8.35-1.7.35-1.63 0-2.58-.82-.95-.84-.95-2.23 0-.83.5-1.56.48-.75 1.7-1.68l.12-.07zm1.22 5.57q.7 0 1.38-.3.67-.3 1.2-.86l-3.18-3.7-.1-.1-.37.27q-1.53 1.25-1.53 2.42 0 1.02.7 1.65.7.62 1.9.62zm-1.58-8.35q0 .96 1.06 2.25l1.02-.78q.5-.36.82-.8.32-.42.32-1 0-.6-.42-1-.42-.42-1.13-.42-.76 0-1.22.5-.44.48-.44 1.25z"/><path d="M196.53 8.9h-5.32v4.64h6.13v.8h-7.08V3h7.04v.82h-6.1v4.28h5.33v.82z"/><path d="M199.35 14.35V2.97h3.18q1.4 0 2.5.65 1.1.63 1.73 1.82.63 1.18.63 2.7V9.2q0 1.5-.63 2.7t-1.74 1.8q-1.12.65-2.57.65h-3.1zm.96-10.55v9.74h2.16q1.8 0 2.9-1.2 1.07-1.2 1.07-3.22v-1q0-1.96-1.07-3.14t-2.82-1.18h-2.23z"/><path d="M211 14.35h-.97V2.97h.96v11.38z"/><path d="M221.56 3.8h-3.9v10.55h-.95V3.8h-3.88v-.83h8.75v.83z"/><path d="M224.58 14.35h-.96V2.97h.96v11.38z"/><path d="M236.13 14.35h-.96l-6.54-9.73v9.73h-.97V2.97h.97l6.54 9.75V2.97h.96v11.38z"/><path d="M247.25 13q-.5.7-1.58 1.1-1.06.4-2.38.4-1.34 0-2.38-.63t-1.6-1.82q-.58-1.17-.6-2.68V7.93q0-2.37 1.2-3.74 1.2-1.38 3.22-1.38 1.75 0 2.82.9 1.07.9 1.28 2.46h-.96q-.2-1.25-1.03-1.9-.8-.64-2.1-.64-1.6 0-2.53 1.13-.93 1.13-.93 3.2V9.3q0 1.3.43 2.3.44 1 1.26 1.55.82.54 1.9.54 1.23 0 2.12-.4.58-.25.86-.6V9.76h-3.05v-.8h4V13z"/></g><g fill="#929292"><path d="M25.1 39.58h-4.66v4.06h5.36v.7h-6.2V34.4h6.16v.72h-5.32v3.75h4.66v.7z"/><path d="M26.9 40.58q0-1.72.78-2.74.77-1.02 2.1-1.02 1.48 0 2.27 1.18v-4.15h.8v10.5h-.75l-.04-.98q-.78 1.12-2.3 1.12-1.28 0-2.07-1.04-.8-1.03-.8-2.78v-.1zm.84.15q0 1.4.56 2.23.57.82 1.6.82 1.5 0 2.15-1.34v-3.47q-.64-1.44-2.13-1.44-1.03 0-1.6.8-.58.82-.58 2.4z"/><path d="M35.94 44.35h-.82v-7.4h.82v7.4zm-.96-9.54q0-.22.15-.38t.4-.16q.27 0 .42.16.15.16.15.4t-.15.38q-.15.16-.4.16-.27 0-.42-.16t-.15-.4z"/><path d="M39.44 35.06v1.9h1.53v.66h-1.53v4.93q0 .62.22.92.22.3.74.3.2 0 .67-.07l.03.67q-.32.12-.87.12-.84 0-1.23-.5-.38-.5-.38-1.44v-4.94h-1.36v-.67h1.36v-1.9h.82z"/><path d="M43.6 44.35h-.82v-7.4h.82v7.4zm-.96-9.54q0-.22.15-.38.14-.16.4-.16t.4.16q.16.16.16.4t-.15.38q-.14.16-.4.16t-.4-.16-.16-.4z"/><path d="M46.6 36.95l.04 1.27q.4-.68 1.04-1.04.62-.36 1.37-.36 1.2 0 1.77.67.58.66.6 2v4.85h-.82V39.5q0-1-.43-1.5-.4-.47-1.32-.47-.76 0-1.34.48-.58.48-.86 1.28v5.07h-.8v-7.4h.77z"/><path d="M53.18 40.58q0-1.73.77-2.75.77-1 2.1-1 1.5 0 2.28 1.2l.05-1.08h.76v7.25q0 1.43-.8 2.26-.8.84-2.17.84-.77 0-1.47-.35-.7-.34-1.1-.92l.45-.5q.87 1.08 2.07 1.08 1.02 0 1.6-.6.57-.6.6-1.68v-.93q-.8 1.1-2.3 1.1-1.28 0-2.06-1.04-.78-1.02-.78-2.77v-.12zm.83.15q0 1.4.57 2.23.57.82 1.6.82 1.5 0 2.14-1.36v-3.44q-.27-.7-.8-1.08-.55-.37-1.3-.37-1.04 0-1.62.8-.57.82-.57 2.4z"/><path d="M69.36 44.35q-.12-.35-.15-1.03-.42.56-1.1.87-.66.3-1.4.3-1.07 0-1.73-.6-.66-.6-.66-1.5 0-1.1.9-1.72.9-.63 2.52-.63h1.48v-.84q0-.78-.5-1.23-.48-.46-1.4-.46-.87 0-1.43.44-.56.44-.56 1.06h-.8q0-.9.8-1.53.83-.65 2.03-.65 1.24 0 1.95.62.7.6.73 1.72v3.5q0 1.07.24 1.6v.1h-.88zm-2.57-.6q.82 0 1.46-.38.65-.4.94-1.06V40.7h-1.46q-1.23 0-1.92.45-.7.43-.7 1.2 0 .6.47 1.02.46.4 1.2.4z"/><path d="M72.97 36.95l.02 1.27q.4-.68 1.03-1.04t1.38-.36q1.2 0 1.78.67.58.66.6 2v4.85h-.83V39.5q0-1-.42-1.5-.4-.47-1.32-.47-.75 0-1.34.48-.58.48-.86 1.28v5.07h-.8v-7.4h.77z"/><path d="M79.54 40.58q0-1.72.77-2.74.78-1.02 2.1-1.02 1.5 0 2.28 1.18v-4.15h.82v10.5h-.77l-.03-.98q-.8 1.12-2.3 1.12-1.3 0-2.08-1.04-.78-1.03-.78-2.78v-.1zm.83.15q0 1.4.57 2.23.57.82 1.6.82 1.5 0 2.14-1.34v-3.47q-.63-1.44-2.13-1.44-1.03 0-1.6.8-.58.82-.58 2.4z"/><path d="M91.67 44.35v-6.73h-1.22v-.67h1.22v-.9q0-1.13.57-1.74.6-.6 1.62-.6.46 0 .87.12l-.07.7q-.34-.1-.74-.1-.68 0-1.05.43-.38.4-.38 1.2v.9h1.75v.67H92.5v6.73h-.83z"/><path d="M95.28 40.54q0-1.06.4-1.92.43-.85 1.18-1.33.76-.48 1.7-.48 1.5 0 2.4 1.04.92 1.03.92 2.74v.17q0 1.07-.4 1.93-.42.86-1.18 1.32-.75.47-1.7.47-1.48 0-2.4-1.05-.92-1.03-.92-2.74v-.16zm.82.23q0 1.32.68 2.18.7.85 1.8.85 1.12 0 1.8-.85.7-.86.7-2.25v-.16q0-.85-.32-1.55-.32-.7-.9-1.1-.55-.4-1.3-.4-1.08 0-1.77.88-.7.85-.7 2.24v.15z"/><path d="M107 37.65q-.26-.05-.56-.05-.76 0-1.3.43-.52.43-.75 1.24v5.08h-.82v-7.4h.8v1.18q.66-1.3 2.1-1.3.34 0 .54.08l-.02.75z"/><path d="M109.03 36.95l.02 1.2q.4-.66 1.03-1 .6-.33 1.37-.33 1.75 0 2.22 1.43.4-.7 1.06-1.06.66-.38 1.46-.38 2.37 0 2.42 2.6v4.93h-.82v-4.87q0-1-.43-1.47-.42-.47-1.37-.47-.88 0-1.5.57-.6.56-.67 1.36v4.9H113V39.4q0-.94-.44-1.4-.44-.47-1.35-.47-.76 0-1.32.44-.55.44-.82 1.3v5.08h-.82v-7.4h.8z"/><path d="M125.36 44.35q-.12-.35-.15-1.03-.42.56-1.1.87-.66.3-1.4.3-1.07 0-1.73-.6-.66-.6-.66-1.5 0-1.1.9-1.72.9-.63 2.52-.63h1.48v-.84q0-.78-.5-1.23-.48-.46-1.4-.46-.87 0-1.43.44-.56.44-.56 1.06h-.8q0-.9.8-1.53.83-.65 2.03-.65 1.24 0 1.95.62.7.6.73 1.72v3.5q0 1.07.24 1.6v.1h-.88zm-2.57-.6q.82 0 1.46-.38.65-.4.94-1.06V40.7h-1.46q-1.23 0-1.92.45-.7.43-.7 1.2 0 .6.47 1.02.46.4 1.2.4z"/><path d="M129.46 35.06v1.9H131v.66h-1.54v4.93q0 .62.22.92.22.3.74.3.2 0 .67-.07l.02.67q-.32.12-.87.12-.84 0-1.23-.5-.38-.5-.38-1.44v-4.94h-1.36v-.67h1.36v-1.9h.82z"/><path d="M133.97 35.06v1.9h1.53v.66h-1.53v4.93q0 .62.22.92.22.3.73.3.2 0 .67-.07l.03.67q-.32.12-.87.12-.84 0-1.23-.5-.38-.5-.38-1.44v-4.94h-1.36v-.67h1.35v-1.9h.82z"/><path d="M138.13 44.35h-.82v-7.4h.83v7.4zm-.97-9.54q0-.22.15-.38.16-.16.42-.16t.4.16q.17.16.17.4t-.17.38q-.15.16-.4.16t-.42-.16-.14-.4z"/><path d="M141.13 36.95l.03 1.27q.42-.68 1.04-1.04.62-.36 1.38-.36 1.18 0 1.77.67.58.66.58 2v4.85h-.8V39.5q-.02-1-.43-1.5-.4-.47-1.32-.47-.76 0-1.35.48-.58.48-.86 1.28v5.07h-.8v-7.4h.77z"/><path d="M147.7 40.58q0-1.73.78-2.75.77-1 2.1-1 1.5 0 2.3 1.2l.03-1.08h.77v7.25q0 1.43-.8 2.26-.8.84-2.16.84-.77 0-1.47-.35-.7-.34-1.1-.92l.46-.5q.85 1.08 2.05 1.08 1.03 0 1.6-.6.57-.6.6-1.68v-.93q-.8 1.1-2.3 1.1-1.28 0-2.06-1.04t-.8-2.77v-.12zm.84.15q0 1.4.57 2.23.57.82 1.6.82 1.52 0 2.14-1.36v-3.44q-.28-.7-.82-1.08-.54-.37-1.3-.37-1.03 0-1.6.8-.58.82-.58 2.4z"/><path d="M163.9 44.35q-.13-.35-.17-1.03-.43.56-1.1.87-.66.3-1.4.3-1.07 0-1.73-.6-.66-.6-.66-1.5 0-1.1.9-1.72.9-.63 2.5-.63h1.5v-.84q0-.78-.5-1.23-.5-.46-1.43-.46-.84 0-1.4.45-.56.43-.56 1.05h-.82q0-.9.82-1.53.82-.65 2.02-.65 1.23 0 1.94.62.72.6.74 1.72v3.5q0 1.08.23 1.6v.1h-.88zm-2.58-.6q.82 0 1.46-.38.65-.4.95-1.06V40.7h-1.46q-1.23 0-1.92.45-.7.43-.7 1.2 0 .6.47 1.02.46.4 1.2.4z"/><path d="M170.13 37.65q-.26-.05-.55-.05-.77 0-1.3.43t-.75 1.24v5.08h-.8v-7.4h.78l.03 1.18q.65-1.3 2.08-1.3.36 0 .55.08l-.02.75z"/><path d="M174.15 44.5q-.95 0-1.7-.48-.77-.46-1.2-1.3-.42-.82-.42-1.86v-.3q0-1.06.4-1.9.43-.87 1.17-1.35.73-.48 1.6-.48 1.34 0 2.13.92.8.92.8 2.5v.47h-5.3v.16q0 1.26.73 2.1.73.84 1.82.84.66 0 1.16-.24.5-.24.9-.77l.52.38q-.9 1.3-2.6 1.3zm-.15-7q-.93 0-1.56.7-.63.67-.77 1.8h4.44v-.08q-.03-1.07-.6-1.74-.57-.67-1.5-.67z"/><path d="M184.8 44.5q-.93 0-1.7-.48-.76-.46-1.18-1.3-.43-.82-.43-1.86v-.3q0-1.06.4-1.9.42-.87 1.16-1.35.74-.48 1.6-.48 1.35 0 2.13.92.8.92.8 2.5v.47h-5.3v.16q0 1.26.73 2.1.72.84 1.8.84.67 0 1.17-.24.5-.24.92-.77l.5.38q-.9 1.3-2.6 1.3zm-.14-7q-.92 0-1.56.7-.63.67-.76 1.8h4.43v-.08q-.03-1.07-.6-1.74-.58-.67-1.5-.67z"/><path d="M193.62 42.47q0-.6-.5-.98-.48-.38-1.46-.58-.98-.2-1.53-.48-.54-.27-.8-.66-.27-.4-.27-.95 0-.87.73-1.44.73-.58 1.87-.58 1.23 0 1.98.6.75.62.75 1.6h-.82q0-.64-.55-1.08-.54-.43-1.36-.43-.8 0-1.3.38-.5.35-.5.93 0 .56.42.87.4.3 1.47.55 1.08.25 1.6.54.55.3.8.7.27.4.27.97 0 .94-.76 1.5-.75.56-1.97.56-1.28 0-2.08-.64-.8-.62-.8-1.58h.82q.04.72.6 1.12.56.4 1.47.4.87 0 1.4-.38.52-.38.52-.95z"/><path d="M200.7 42.47q0-.6-.5-.98-.47-.38-1.46-.58-.98-.2-1.53-.48-.53-.27-.8-.66-.26-.4-.26-.95 0-.87.74-1.44.73-.58 1.87-.58 1.24 0 1.98.6.75.62.75 1.6h-.82q0-.64-.54-1.08-.54-.43-1.37-.43-.8 0-1.3.38-.5.35-.5.93 0 .56.42.87.4.3 1.48.55 1.08.25 1.6.54.55.3.8.7t.27.97q0 .94-.75 1.5-.76.56-1.97.56-1.3 0-2.1-.64-.8-.62-.8-1.58h.82q.05.72.6 1.12.56.4 1.48.4.85 0 1.38-.38.52-.38.52-.95z"/><path d="M206.22 44.5q-.94 0-1.7-.48-.77-.46-1.2-1.3-.42-.82-.42-1.86v-.3q0-1.06.4-1.9.43-.87 1.17-1.35.74-.48 1.6-.48 1.35 0 2.13.92.8.92.8 2.5v.47h-5.28v.16q0 1.26.72 2.1.72.84 1.8.84.67 0 1.17-.24.52-.24.93-.77l.5.38q-.9 1.3-2.6 1.3zm-.15-7q-.92 0-1.56.7-.62.67-.75 1.8h4.43v-.08q-.03-1.07-.6-1.74-.58-.67-1.5-.67z"/><path d="M211.38 36.95l.03 1.27q.43-.68 1.05-1.04.62-.36 1.37-.36 1.2 0 1.77.67.57.66.58 2v4.85h-.8V39.5q-.02-1-.44-1.5-.4-.47-1.32-.47-.76 0-1.34.48-.58.48-.86 1.28v5.07h-.82v-7.4h.78z"/><path d="M219.56 35.06v1.9h1.53v.66h-1.54v4.93q0 .62.22.92.22.3.74.3.2 0 .66-.07l.04.67q-.32.12-.88.12-.84 0-1.22-.5t-.38-1.44v-4.94h-1.36v-.67h1.36v-1.9h.82z"/><path d="M223.7 44.35h-.8v-7.4h.8v7.4zm-.95-9.54q0-.22.15-.38t.4-.16.42.16q.16.16.16.4t-.16.38q-.15.16-.4.16-.27 0-.42-.16-.15-.15-.15-.4z"/><path d="M230.6 44.35q-.1-.35-.15-1.03-.43.56-1.1.87-.66.3-1.4.3-1.07 0-1.73-.6-.66-.6-.66-1.5 0-1.1.9-1.72.9-.63 2.5-.63h1.5v-.84q0-.78-.5-1.23-.5-.46-1.43-.46-.85 0-1.4.44-.57.44-.57 1.06h-.82q0-.9.82-1.53.82-.65 2-.65 1.25 0 1.96.62.72.6.74 1.72v3.5q0 1.07.23 1.6v.1h-.9zm-2.56-.6q.82 0 1.46-.38.65-.4.95-1.06V40.7h-1.47q-1.22 0-1.9.45-.7.43-.7 1.2 0 .6.46 1.02.46.4 1.2.4z"/><path d="M234.35 44.35h-.82v-10.5h.82v10.5z"/><path d="M245.94 40.73q0 1.73-.76 2.75-.77 1-2.05 1-1.52 0-2.33-1.06v3.77h-.8V36.94h.75l.04 1.05q.8-1.18 2.3-1.18 1.33 0 2.1 1 .74 1 .74 2.8v.1zm-.82-.15q0-1.4-.58-2.23-.58-.82-1.62-.82-.75 0-1.3.36-.53.35-.82 1.04v3.55q.3.63.84.96.55.34 1.3.34 1.03 0 1.6-.82.58-.83.58-2.4z"/><path d="M252.43 44.35q-.12-.35-.16-1.03-.43.56-1.1.87-.66.3-1.4.3-1.07 0-1.73-.6-.66-.6-.66-1.5 0-1.1.9-1.72.9-.63 2.5-.63h1.5v-.84q0-.78-.5-1.23-.5-.46-1.43-.46-.85 0-1.4.44-.57.44-.57 1.06h-.82q0-.9.82-1.53.82-.65 2-.65 1.25 0 1.96.62.72.6.74 1.72v3.5q0 1.07.23 1.6v.1h-.87zm-2.57-.6q.82 0 1.46-.38.65-.4.95-1.06V40.7h-1.47q-1.22 0-1.9.45-.7.43-.7 1.2 0 .6.46 1.02.46.4 1.2.4z"/><path d="M258.67 37.65q-.26-.05-.55-.05-.77 0-1.3.43t-.75 1.24v5.08h-.82v-7.4h.8l.02 1.18q.65-1.3 2.08-1.3.34 0 .54.08l-.03.75z"/><path d="M261.58 35.06v1.9h1.53v.66h-1.52v4.93q0 .62.22.92.22.3.74.3.2 0 .67-.07l.04.67q-.32.12-.87.12-.84 0-1.23-.5-.38-.5-.38-1.44v-4.94h-1.36v-.67h1.36v-1.9h.82z"/><path d="M267.8 40.54q0-1.06.4-1.92.42-.85 1.17-1.33.76-.48 1.7-.48 1.5 0 2.4 1.04.92 1.03.92 2.74v.17q0 1.07-.42 1.93-.4.86-1.17 1.32-.74.47-1.7.47-1.47 0-2.4-1.05-.9-1.03-.9-2.74v-.16zm.8.23q0 1.32.7 2.18.68.85 1.8.85 1.1 0 1.8-.85.68-.86.68-2.25v-.16q0-.85-.3-1.55-.33-.7-.9-1.1-.56-.4-1.3-.4-1.1 0-1.78.88-.7.85-.7 2.24v.15z"/><path d="M276.68 44.35v-6.73h-1.22v-.67h1.22v-.9q0-1.13.57-1.74.6-.6 1.62-.6.46 0 .87.12l-.07.7q-.34-.1-.74-.1-.68 0-1.05.43-.38.4-.38 1.2v.9h1.76v.67h-1.76v6.73h-.82z"/><path d="M285.43 35.06v1.9h1.53v.66h-1.53v4.93q0 .62.22.92.22.3.74.3.2 0 .66-.07l.03.67q-.33.12-.88.12-.84 0-1.23-.5-.4-.5-.4-1.44v-4.94h-1.35v-.67h1.36v-1.9h.83z"/><path d="M289.48 38.2q.4-.66 1.03-1.02.64-.36 1.4-.36 1.18 0 1.76.67.58.66.58 2v4.85h-.8V39.5q-.02-1-.43-1.5-.4-.47-1.3-.47-.77 0-1.36.48-.58.48-.86 1.28v5.07h-.8v-10.5h.8v4.35z"/><path d="M299.22 44.5q-.94 0-1.7-.48-.77-.46-1.2-1.3-.42-.82-.42-1.86v-.3q0-1.06.4-1.9.43-.87 1.17-1.35.74-.48 1.6-.48 1.35 0 2.13.92.8.92.8 2.5v.47h-5.28v.16q0 1.26.72 2.1.72.84 1.8.84.67 0 1.17-.24.52-.24.93-.77l.5.38q-.9 1.3-2.6 1.3zm-.15-7q-.92 0-1.56.7-.62.67-.75 1.8h4.43v-.08q-.03-1.07-.6-1.74-.58-.67-1.5-.67z"/><path d="M15.47 62.65l.12.63.16-.67 1.77-5.65h.7L20 62.57l.18.78.16-.72 1.5-5.68h.86l-2.15 7.4h-.7l-1.9-5.87-.1-.4-.08.4-1.86 5.87h-.7l-2.14-7.4h.84l1.57 5.7z"/><path d="M27.67 57.65q-.26-.05-.55-.05-.77 0-1.3.43t-.75 1.24v5.08h-.82v-7.4h.8l.02 1.18q.64-1.3 2.08-1.3.34 0 .54.08l-.03.75z"/><path d="M29.87 64.35h-.82v-7.4h.82v7.4zm-.96-9.54q0-.22.16-.38.15-.16.4-.16.27 0 .42.16.15.16.15.4t-.15.38q-.15.16-.4.16-.27 0-.42-.16t-.15-.4z"/><path d="M33.37 55.06v1.9h1.53v.66h-1.53v4.93q0 .62.22.92.2.3.73.3.2 0 .67-.07l.03.67q-.32.12-.87.12-.84 0-1.23-.5-.38-.5-.38-1.44v-4.94H31.2v-.67h1.35v-1.9h.82z"/><path d="M37.53 64.35h-.82v-7.4h.83v7.4zm-.96-9.54q0-.22.15-.38t.4-.16q.27 0 .42.16.15.16.15.4t-.16.38q-.15.16-.4.16-.27 0-.42-.16t-.15-.4z"/><path d="M40.54 56.95l.03 1.27q.4-.68 1.04-1.04.63-.36 1.38-.36 1.2 0 1.77.67.58.66.6 2v4.85h-.82V59.5q0-1-.43-1.5-.4-.47-1.32-.47-.76 0-1.34.48-.6.48-.87 1.28v5.07h-.8v-7.4h.77z"/><path d="M47.1 60.58q0-1.73.78-2.75.77-1 2.1-1 1.5 0 2.28 1.2l.05-1.08h.77v7.25q0 1.43-.8 2.26-.8.84-2.17.84-.77 0-1.47-.35-.7-.34-1.1-.92l.45-.5q.87 1.08 2.07 1.08 1.02 0 1.6-.6.57-.6.6-1.68v-.93q-.8 1.1-2.3 1.1-1.28 0-2.06-1.04-.8-1.02-.8-2.77v-.12zm.84.15q0 1.4.56 2.23.57.82 1.6.82 1.5 0 2.14-1.36v-3.44q-.28-.7-.82-1.08-.54-.37-1.3-.37-1.03 0-1.6.8-.58.82-.58 2.4z"/><path d="M64.57 60.73q0 1.73-.76 2.75-.76 1-2.04 1-1.52 0-2.33-1.06v3.77h-.8V56.94h.75l.04 1.05q.8-1.18 2.32-1.18 1.32 0 2.07 1 .77 1 .77 2.8v.1zm-.82-.15q0-1.4-.58-2.23-.58-.82-1.62-.82-.75 0-1.3.36-.53.35-.82 1.04v3.55q.3.63.84.96t1.3.34q1.03 0 1.6-.82.58-.83.58-2.4z"/><path d="M69.8 57.65q-.25-.05-.54-.05-.77 0-1.3.43t-.76 1.24v5.08h-.8v-7.4h.8v1.18q.65-1.3 2.1-1.3.33 0 .53.08l-.02.75z"/><path d="M70.5 60.54q0-1.06.42-1.92.4-.85 1.17-1.33.74-.48 1.7-.48 1.48 0 2.4 1.04.9 1.03.9 2.74v.17q0 1.07-.4 1.93-.42.86-1.17 1.32-.75.47-1.72.47-1.46 0-2.38-1.05-.9-1.03-.9-2.74v-.16zm.83.23q0 1.32.68 2.18.7.85 1.8.85 1.12 0 1.8-.85.7-.86.7-2.25v-.16q0-.85-.32-1.55-.3-.7-.88-1.1-.57-.4-1.3-.4-1.1 0-1.78.88-.7.85-.7 2.24v.15z"/><path d="M81.54 63.8q.85 0 1.43-.48.58-.5.63-1.25h.78q-.03.67-.42 1.23-.4.56-1.04.87-.64.32-1.38.32-1.46 0-2.3-1.03-.86-1-.86-2.72v-.24q0-1.1.38-1.93.4-.84 1.1-1.3.72-.45 1.67-.45 1.22 0 2 .72.8.73.85 1.9h-.78q-.06-.86-.63-1.4-.57-.53-1.44-.53-1.1 0-1.72.8-.6.8-.6 2.26v.23q0 1.4.6 2.2.63.8 1.74.8z"/><path d="M88.9 64.5q-.96 0-1.72-.48-.76-.46-1.18-1.3-.43-.82-.43-1.86v-.3q0-1.06.4-1.9.43-.87 1.17-1.35.74-.48 1.6-.48 1.34 0 2.13.92.8.92.8 2.5v.47h-5.28v.16q0 1.26.7 2.1.73.84 1.82.84.66 0 1.16-.24.5-.24.9-.77l.53.38q-.9 1.3-2.6 1.3zm-.16-7q-.93 0-1.56.7-.63.67-.77 1.8h4.45v-.08q-.03-1.07-.6-1.74-.58-.67-1.5-.67z"/><path d="M97.7 62.47q0-.6-.5-.98-.48-.38-1.46-.58-1-.2-1.53-.48-.53-.27-.8-.66-.26-.4-.26-.95 0-.87.73-1.44.73-.58 1.87-.58 1.24 0 2 .6.74.62.74 1.6h-.82q0-.64-.55-1.08-.53-.43-1.36-.43-.8 0-1.3.38-.48.35-.48.93 0 .56.4.87.4.3 1.5.55 1.07.25 1.6.54.54.3.8.7t.26.97q0 .94-.76 1.5-.75.56-1.97.56-1.3 0-2.1-.64-.8-.62-.8-1.58h.8q.06.72.62 1.12.56.4 1.47.4.85 0 1.37-.38.53-.38.53-.95z"/><path d="M104.78 62.47q0-.6-.5-.98-.48-.38-1.46-.58-.98-.2-1.53-.48-.55-.27-.82-.66-.26-.4-.26-.95 0-.87.73-1.44.74-.58 1.88-.58 1.23 0 1.98.6.76.62.76 1.6h-.82q0-.64-.55-1.08-.55-.43-1.37-.43-.8 0-1.3.38-.5.35-.5.93 0 .56.42.87.4.3 1.48.55 1.08.25 1.6.54.55.3.8.7t.27.97q0 .94-.76 1.5-.75.56-1.97.56-1.3 0-2.1-.64-.8-.62-.8-1.58h.83q.04.72.6 1.12.56.4 1.47.4.86 0 1.4-.38.5-.38.5-.95z"/><path d="M107.36 63.86q0-.24.15-.4.17-.18.44-.18t.43.17q.16.17.16.4t-.16.4q-.16.15-.43.15t-.43-.15q-.14-.15-.14-.4z"/><path d="M120.86 55.12h-3.4v9.23h-.85v-9.23h-3.4v-.72h7.66v.72z"/><path d="M123.1 58.2q.4-.66 1.03-1.02t1.37-.36q1.2 0 1.77.67.58.66.6 2v4.85h-.82V59.5q0-1-.43-1.5-.4-.47-1.32-.47-.76 0-1.34.48-.58.48-.87 1.28v5.07h-.82v-10.5h.8v4.35z"/><path d="M132.83 64.5q-.94 0-1.7-.48-.77-.46-1.2-1.3-.42-.82-.42-1.86v-.3q0-1.06.42-1.9.42-.87 1.16-1.35.74-.48 1.6-.48 1.35 0 2.13.92.8.92.8 2.5v.47h-5.27v.16q0 1.26.72 2.1.72.84 1.8.84.67 0 1.17-.24.5-.24.92-.77l.5.38q-.9 1.3-2.6 1.3zm-.15-7q-.92 0-1.56.7-.63.67-.76 1.8h4.43v-.08q-.04-1.07-.62-1.74-.57-.67-1.5-.67z"/><path d="M140.63 57.65q-.26-.05-.55-.05-.77 0-1.3.43t-.76 1.24v5.08h-.8v-7.4h.8v1.18q.65-1.3 2.1-1.3.33 0 .53.08l-.02.75z"/><path d="M144.64 64.5q-.94 0-1.7-.48-.77-.46-1.2-1.3-.4-.82-.4-1.86v-.3q0-1.06.4-1.9.4-.87 1.15-1.35.73-.48 1.6-.48 1.34 0 2.12.92.8.92.8 2.5v.47h-5.28v.16q0 1.26.72 2.1.72.84 1.82.84.65 0 1.15-.24.5-.24.92-.77l.5.38q-.9 1.3-2.6 1.3zm-.15-7q-.93 0-1.57.7-.63.67-.76 1.8h4.43v-.08q-.03-1.07-.6-1.74-.58-.67-1.5-.67z"/><path d="M149.6 64.35v-6.73h-1.2v-.67h1.2v-.9q0-1.13.6-1.74.57-.6 1.6-.6.46 0 .87.12l-.06.7q-.34-.1-.74-.1-.68 0-1.05.43-.37.4-.37 1.2v.9h1.77v.67h-1.77v6.73h-.82z"/><path d="M153.22 60.54q0-1.06.4-1.92.43-.85 1.18-1.33.76-.48 1.72-.48 1.47 0 2.4 1.04.9 1.03.9 2.74v.17q0 1.07-.4 1.93-.42.86-1.17 1.32-.76.47-1.72.47-1.47 0-2.4-1.05-.9-1.03-.9-2.74v-.16zm.82.23q0 1.32.7 2.18.68.85 1.8.85 1.1 0 1.78-.85.7-.86.7-2.25v-.16q0-.85-.32-1.55-.32-.7-.9-1.1-.55-.4-1.28-.4-1.1 0-1.8.88-.68.85-.68 2.24v.15z"/><path d="M164.94 57.65q-.26-.05-.56-.05-.76 0-1.3.43-.52.43-.75 1.24v5.08h-.8v-7.4h.8v1.18q.65-1.3 2.1-1.3.33 0 .53.08l-.02.75z"/><path d="M168.95 64.5q-.94 0-1.7-.48-.77-.46-1.2-1.3-.4-.82-.4-1.86v-.3q0-1.06.4-1.9.4-.87 1.15-1.35.74-.48 1.6-.48 1.35 0 2.13.92.8.92.8 2.5v.47h-5.28v.16q0 1.26.72 2.1.72.84 1.82.84.64 0 1.14-.24.5-.24.92-.77l.5.38q-.9 1.3-2.6 1.3zm-.15-7q-.92 0-1.56.7-.63.67-.76 1.8h4.43v-.08q-.02-1.07-.6-1.74t-1.5-.67z"/><path d="M176.3 60.54q0-1.06.4-1.92.43-.85 1.18-1.33.76-.48 1.7-.48 1.5 0 2.4 1.04.92 1.03.92 2.74v.17q0 1.07-.4 1.93-.42.86-1.18 1.32-.75.47-1.7.47-1.48 0-2.4-1.05-.92-1.03-.92-2.74v-.16zm.82.23q0 1.32.68 2.18.7.85 1.8.85 1.12 0 1.8-.85.7-.86.7-2.25v-.16q0-.85-.33-1.55-.3-.7-.88-1.1-.57-.4-1.3-.4-1.1 0-1.8.88-.68.85-.68 2.24v.15z"/><path d="M189.36 63.4q-.74 1.1-2.36 1.1-1.18 0-1.8-.7-.62-.7-.63-2.03v-4.82h.8v4.7q0 2.13 1.72 2.13 1.77 0 2.24-1.47v-5.35h.82v7.4h-.8v-.94z"/><path d="M195.7 57.65q-.26-.05-.55-.05-.77 0-1.3.43t-.75 1.24v5.08h-.82v-7.4h.8l.02 1.18q.64-1.3 2.08-1.3.34 0 .54.08l-.02.75z"/><path d="M203.27 64.5q-.95 0-1.7-.48-.77-.46-1.2-1.3-.42-.82-.42-1.86v-.3q0-1.06.4-1.9.43-.87 1.17-1.35.74-.48 1.6-.48 1.34 0 2.13.92.8.92.8 2.5v.47h-5.28v.16q0 1.26.7 2.1.74.84 1.83.84.66 0 1.16-.24.5-.24.9-.77l.53.38q-.92 1.3-2.63 1.3zm-.15-7q-.93 0-1.56.7-.63.67-.77 1.8h4.43v-.08q-.04-1.07-.6-1.74-.58-.67-1.5-.67z"/><path d="M209.97 59.95l2-3h.97l-2.5 3.63 2.6 3.77h-.95l-2.12-3.13-2.1 3.13h-.97l2.62-3.77-2.5-3.63h.96l2 3z"/><path d="M220.4 60.73q0 1.73-.76 2.75-.77 1-2.05 1-1.53 0-2.34-1.06v3.77h-.8V56.94h.75l.05 1.05q.8-1.18 2.32-1.18 1.32 0 2.08 1 .75 1 .75 2.8v.1zm-.82-.15q0-1.4-.58-2.23-.58-.82-1.62-.82-.75 0-1.3.36-.53.35-.82 1.04v3.55q.3.63.85.96t1.3.34q1.03 0 1.6-.82.58-.83.58-2.4z"/><path d="M225.1 64.5q-.96 0-1.72-.48-.76-.46-1.18-1.3-.43-.82-.43-1.86v-.3q0-1.06.4-1.9.43-.87 1.17-1.35.74-.48 1.6-.48 1.34 0 2.13.92.8.92.8 2.5v.47h-5.28v.16q0 1.26.7 2.1.73.84 1.82.84.66 0 1.16-.24.5-.24.9-.77l.53.38q-.9 1.3-2.6 1.3zm-.16-7q-.93 0-1.56.7-.63.67-.77 1.8h4.45v-.08q-.03-1.07-.6-1.74-.58-.67-1.5-.67z"/><path d="M232.9 57.65q-.27-.05-.57-.05-.76 0-1.3.43-.52.43-.75 1.24v5.08h-.8v-7.4h.8v1.18q.65-1.3 2.1-1.3.33 0 .53.08v.75z"/><path d="M235.8 55.06v1.9h1.53v.66h-1.53v4.93q0 .62.22.92.22.3.74.3.2 0 .67-.07l.03.67q-.32.12-.87.12-.86 0-1.24-.5t-.38-1.44v-4.94h-1.36v-.67h1.36v-1.9h.82z"/><path d="M243.47 62.47q0-.6-.5-.98-.48-.38-1.46-.58-.98-.2-1.52-.48-.54-.27-.8-.66-.27-.4-.27-.95 0-.87.74-1.44.73-.58 1.87-.58 1.25 0 2 .6.75.62.75 1.6h-.82q0-.64-.55-1.08-.54-.43-1.37-.43-.8 0-1.28.38-.5.35-.5.93 0 .56.4.87.42.3 1.5.55 1.08.25 1.6.54.55.3.8.7t.27.97q0 .94-.77 1.5-.75.56-1.97.56-1.3 0-2.1-.64-.8-.62-.8-1.58h.82q.05.72.6 1.12.57.4 1.48.4.86 0 1.38-.38.53-.38.53-.95z"/><path d="M255.5 60.73q0 1.73-.78 2.75-.76 1-2.05 1-1.52 0-2.32-1.06v3.77h-.82V56.94h.76l.03 1.05q.8-1.18 2.32-1.18 1.33 0 2.08 1 .76 1 .76 2.8v.1zm-.83-.15q0-1.4-.58-2.23-.6-.82-1.63-.82-.76 0-1.3.36-.54.35-.82 1.04v3.55q.3.63.84.96t1.28.34q1.03 0 1.6-.82.6-.83.6-2.4z"/><path d="M260.72 57.65q-.26-.05-.55-.05-.77 0-1.3.43t-.75 1.24v5.08h-.82v-7.4h.8l.02 1.18q.64-1.3 2.08-1.3.34 0 .54.08l-.02.75z"/><path d="M261.42 60.54q0-1.06.4-1.92.43-.85 1.18-1.33.76-.48 1.7-.48 1.5 0 2.4 1.04.92 1.03.92 2.74v.17q0 1.07-.4 1.93-.42.86-1.18 1.32-.75.47-1.7.47-1.48 0-2.4-1.05-.92-1.03-.92-2.74v-.16zm.82.23q0 1.32.68 2.18.7.85 1.8.85 1.12 0 1.8-.85.7-.86.7-2.25v-.16q0-.85-.32-1.55-.32-.7-.9-1.1-.55-.4-1.3-.4-1.08 0-1.77.88-.7.85-.7 2.24v.15z"/><path d="M269.27 60.54q0-1.06.4-1.92.43-.85 1.18-1.33.76-.48 1.7-.48 1.5 0 2.4 1.04.92 1.03.92 2.74v.17q0 1.07-.4 1.93-.42.86-1.18 1.32-.76.47-1.72.47-1.47 0-2.4-1.05-.9-1.03-.9-2.74v-.16zm.82.23q0 1.32.67 2.18.7.85 1.8.85 1.12 0 1.8-.85.7-.86.7-2.25v-.16q0-.85-.32-1.55-.32-.7-.9-1.1-.55-.4-1.3-.4-1.08 0-1.77.88-.7.85-.7 2.24v.15z"/><path d="M278.15 64.35v-6.73h-1.22v-.67h1.22v-.9q0-1.13.57-1.74.6-.6 1.62-.6.46 0 .87.12l-.06.7q-.34-.1-.74-.1-.68 0-1.05.43-.38.4-.38 1.2v.9h1.76v.67h-1.76v6.73h-.82z"/><path d="M285.63 57.65q-.26-.05-.55-.05-.77 0-1.3.43t-.75 1.24v5.08h-.82v-7.4h.8l.03 1.18q.64-1.3 2.08-1.3.35 0 .55.08l-.02.75z"/><path d="M289.65 64.5q-.94 0-1.7-.48-.77-.46-1.2-1.3-.42-.82-.42-1.86v-.3q0-1.06.4-1.9.43-.87 1.17-1.35.74-.48 1.6-.48 1.35 0 2.13.92.8.92.8 2.5v.47h-5.28v.16q0 1.26.72 2.1.72.84 1.8.84.67 0 1.17-.24.5-.24.92-.77l.5.38q-.9 1.3-2.6 1.3zm-.15-7q-.92 0-1.56.7-.63.67-.76 1.8h4.43v-.08q-.02-1.07-.6-1.74-.57-.67-1.5-.67z"/><path d="M298.7 64.35q-.12-.35-.16-1.03-.43.56-1.1.87-.66.3-1.4.3-1.07 0-1.74-.6-.65-.6-.65-1.5 0-1.1.9-1.72.9-.63 2.5-.63h1.5v-.84q0-.78-.5-1.23-.5-.46-1.43-.46-.85 0-1.4.44-.57.44-.57 1.06h-.82q0-.9.82-1.53.82-.65 2-.65 1.25 0 1.96.62.73.6.75 1.72v3.5q0 1.07.22 1.6v.1h-.87zm-2.57-.6q.82 0 1.46-.38.64-.4.94-1.06V60.7h-1.47q-1.22 0-1.9.45-.7.43-.7 1.2 0 .6.46 1.02.46.4 1.2.4z"/><path d="M301.2 60.58q0-1.72.76-2.74.77-1.02 2.1-1.02 1.48 0 2.27 1.18v-4.15h.8v10.5h-.75l-.04-.98q-.78 1.12-2.3 1.12-1.28 0-2.07-1.04-.78-1.03-.78-2.78v-.1zm.82.15q0 1.4.56 2.23.57.82 1.6.82 1.5 0 2.15-1.34v-3.47q-.64-1.44-2.13-1.44-1.03 0-1.6.8-.58.82-.58 2.4z"/><path d="M11.96 83.17l2.16-6.22H15l-3.16 8.66-.16.4q-.6 1.34-1.88 1.34-.3 0-.63-.1v-.68l.42.05q.6 0 .96-.3.37-.3.63-1l.36-1-2.8-7.35h.9l2.3 6.22z"/><path d="M15.7 80.54q0-1.06.4-1.92.43-.85 1.18-1.33.76-.48 1.7-.48 1.5 0 2.4 1.04.92 1.03.92 2.74v.17q0 1.07-.4 1.93-.42.86-1.18 1.32-.75.47-1.7.47-1.48 0-2.4-1.05-.92-1.03-.92-2.74v-.16zm.82.23q0 1.32.68 2.18.7.85 1.8.85 1.12 0 1.8-.85.7-.86.7-2.25v-.16q0-.85-.32-1.55-.32-.7-.9-1.1-.55-.4-1.3-.4-1.08 0-1.77.88-.68.85-.68 2.24v.15z"/><path d="M28.75 83.4q-.74 1.1-2.36 1.1-1.2 0-1.8-.7-.62-.7-.64-2.03v-4.82h.82v4.7q0 2.13 1.7 2.13 1.78 0 2.26-1.47v-5.35h.82v7.4h-.8v-.94z"/><path d="M35.1 77.65q-.26-.05-.55-.05-.77 0-1.3.43t-.75 1.24v5.08h-.82v-7.4h.8l.02 1.18q.64-1.3 2.08-1.3.34 0 .54.08l-.02.75z"/><path d="M45.75 80.73q0 1.73-.77 2.74-.76 1.02-2.05 1.02-1.5 0-2.32-1.08v3.77h-.8V76.94h.75L40.6 78q.8-1.18 2.3-1.18 1.34 0 2.1 1 .75 1 .75 2.8v.1zm-.82-.15q0-1.4-.58-2.23-.58-.82-1.62-.82-.75 0-1.3.36t-.82 1.04v3.55q.3.63.85.96.55.34 1.3.34 1.02 0 1.6-.82.58-.83.58-2.4z"/><path d="M52.23 84.35q-.12-.35-.16-1.03-.43.56-1.1.87-.66.3-1.4.3-1.07 0-1.74-.6-.65-.6-.65-1.5 0-1.1.9-1.72.9-.63 2.5-.63h1.5v-.84q0-.78-.5-1.23-.5-.46-1.43-.46-.85 0-1.4.44-.57.44-.57 1.06h-.82q0-.9.82-1.53.82-.65 2-.65 1.25 0 1.96.62.72.6.74 1.72v3.5q0 1.07.22 1.6v.1h-.87zm-2.57-.6q.82 0 1.46-.38.65-.4.95-1.06V80.7H50.6q-1.22 0-1.9.45-.7.43-.7 1.2 0 .6.46 1.02.46.4 1.2.4z"/><path d="M61 80.73q0 1.73-.76 2.74-.77 1.02-2.05 1.02-1.53 0-2.34-1.08v3.77h-.8V76.94h.75l.05 1.05q.8-1.18 2.32-1.18 1.32 0 2.08 1 .75 1 .75 2.8v.1zm-.82-.15q0-1.4-.58-2.23-.58-.82-1.62-.82-.75 0-1.3.36-.53.35-.82 1.04v3.55q.3.63.84.96.55.34 1.3.34 1.03 0 1.6-.82.58-.83.58-2.4z"/><path d="M65.7 84.5q-.96 0-1.72-.48-.76-.46-1.18-1.3-.43-.82-.43-1.86v-.3q0-1.06.4-1.9.43-.87 1.17-1.35.74-.48 1.6-.48 1.34 0 2.13.92.8.92.8 2.5v.47h-5.28v.16q0 1.26.7 2.1.73.84 1.82.84.66 0 1.16-.24.5-.24.9-.77l.53.38q-.9 1.3-2.6 1.3zm-.16-7q-.93 0-1.56.7-.63.67-.77 1.8h4.45v-.08q-.04-1.07-.6-1.74-.58-.67-1.5-.67z"/><path d="M73.5 77.65q-.27-.05-.57-.05-.76 0-1.3.43-.52.43-.75 1.24v5.08h-.8v-7.4h.8v1.18q.65-1.3 2.1-1.3.33 0 .53.08v.75z"/><path d="M82.86 84.35q-.12-.35-.16-1.03-.43.56-1.1.87-.66.3-1.4.3-1.07 0-1.74-.6-.65-.6-.65-1.5 0-1.1.9-1.72.9-.63 2.5-.63h1.5v-.84q0-.78-.5-1.23-.48-.46-1.42-.46-.85 0-1.4.44-.57.44-.57 1.06H78q0-.9.83-1.53.83-.65 2.02-.65 1.24 0 1.95.62.72.6.74 1.72v3.5q0 1.07.23 1.6v.1h-.87zm-2.57-.6q.8 0 1.45-.38.65-.4.94-1.06V80.7h-1.47q-1.22 0-1.9.45-.7.43-.7 1.2 0 .6.46 1.02.45.4 1.2.4z"/><path d="M86.46 76.95l.03 1.27q.4-.68 1.03-1.04.62-.36 1.37-.36 1.2 0 1.77.67.58.66.6 2v4.85h-.82V79.5q0-1-.43-1.5-.4-.47-1.32-.47-.76 0-1.34.48-.58.48-.86 1.28v5.07h-.82v-7.4h.78z"/><path d="M93.04 80.58q0-1.72.76-2.74.78-1.02 2.1-1.02 1.5 0 2.28 1.18v-4.15h.8v10.5h-.75l-.04-.98q-.8 1.12-2.32 1.12-1.28 0-2.06-1.04-.78-1.03-.78-2.78v-.1zm.83.15q0 1.4.56 2.23.57.82 1.6.82 1.5 0 2.15-1.34v-3.47q-.64-1.44-2.13-1.44-1.04 0-1.6.8-.58.82-.58 2.4z"/><path d="M105.16 84.35v-6.73h-1.22v-.67h1.22v-.9q0-1.13.58-1.74.58-.6 1.6-.6.48 0 .88.12l-.06.7q-.34-.1-.75-.1-.66 0-1.04.43-.37.4-.37 1.2v.9h1.75v.67H106v6.73h-.83z"/><path d="M108.77 80.54q0-1.06.4-1.92.43-.85 1.18-1.33.76-.48 1.72-.48 1.48 0 2.4 1.04.9 1.03.9 2.74v.17q0 1.07-.4 1.93-.42.86-1.17 1.32-.75.47-1.72.47-1.47 0-2.4-1.05-.9-1.03-.9-2.74v-.16zm.82.23q0 1.32.68 2.18.7.85 1.8.85t1.8-.85q.68-.86.68-2.25v-.16q0-.85-.3-1.55-.32-.7-.9-1.1-.56-.4-1.3-.4-1.08 0-1.78.88-.7.85-.7 2.24v.15z"/><path d="M120.5 77.65q-.27-.05-.56-.05-.77 0-1.3.43t-.75 1.24v5.08h-.83v-7.4h.8l.02 1.18q.64-1.3 2.07-1.3.34 0 .54.08v.75z"/><path d="M122.52 76.95l.03 1.2q.4-.66 1.02-1 .62-.33 1.37-.33 1.75 0 2.22 1.43.4-.7 1.06-1.06.67-.38 1.47-.38 2.36 0 2.4 2.6v4.93h-.8v-4.87q-.02-1-.44-1.47t-1.37-.47q-.9 0-1.5.57-.6.56-.67 1.36v4.9h-.82V79.4q0-.94-.44-1.4-.44-.47-1.36-.47-.77 0-1.32.44-.56.44-.82 1.3v5.08h-.82v-7.4h.78z"/><path d="M138.86 84.35q-.12-.35-.16-1.03-.43.56-1.1.87-.66.3-1.4.3-1.07 0-1.74-.6-.65-.6-.65-1.5 0-1.1.9-1.72.9-.63 2.5-.63h1.5v-.84q0-.78-.5-1.23-.48-.46-1.42-.46-.85 0-1.4.44-.57.44-.57 1.06H134q0-.9.83-1.53.83-.65 2.02-.65 1.24 0 1.95.62.72.6.74 1.72v3.5q0 1.07.23 1.6v.1h-.87zm-2.57-.6q.8 0 1.45-.38.65-.4.94-1.06V80.7h-1.47q-1.22 0-1.9.45-.7.43-.7 1.2 0 .6.46 1.02.45.4 1.2.4z"/><path d="M142.95 75.06v1.9h1.54v.66h-1.55v4.93q0 .62.22.92.23.3.75.3.2 0 .66-.07l.04.67q-.33.12-.88.12-.84 0-1.22-.5-.4-.5-.4-1.44v-4.94h-1.35v-.67h1.36v-1.9h.82z"/><path d="M150.53 84.35h-.82v-7.4h.83v7.4zm-.97-9.54q0-.22.15-.38.16-.16.42-.16t.4.16q.17.16.17.4t-.17.38q-.15.16-.4.16t-.42-.16-.14-.4z"/><path d="M154.03 75.06v1.9h1.53v.66h-1.53v4.93q0 .62.22.92.22.3.74.3.2 0 .65-.07l.04.67q-.33.12-.9.12-.83 0-1.2-.5-.4-.5-.4-1.44v-4.94h-1.35v-.67h1.36v-1.9h.83z"/><path d="M165.35 84.35q-.12-.35-.15-1.03-.43.56-1.1.87-.67.3-1.4.3-1.08 0-1.74-.6-.66-.6-.66-1.5 0-1.1.9-1.72.9-.63 2.5-.63h1.5v-.84q0-.78-.5-1.23-.5-.46-1.42-.46-.86 0-1.42.44-.56.44-.56 1.06h-.82q0-.9.82-1.53.82-.65 2.02-.65 1.24 0 1.95.62.7.6.73 1.72v3.5q0 1.07.23 1.6v.1h-.88zm-2.57-.6q.83 0 1.47-.38.65-.4.94-1.06V80.7h-1.47q-1.23 0-1.92.45-.68.43-.68 1.2 0 .6.46 1.02.47.4 1.2.4z"/><path d="M170.9 83.8q.87 0 1.44-.48.58-.5.63-1.25h.8q-.05.67-.44 1.23-.4.56-1.04.87-.65.32-1.4.32-1.44 0-2.3-1.03-.85-1-.85-2.72v-.24q0-1.1.4-1.93.37-.84 1.08-1.3.72-.45 1.68-.45 1.22 0 2 .72.8.73.86 1.9h-.8q-.04-.86-.62-1.4-.57-.53-1.43-.53-1.1 0-1.72.8-.6.8-.6 2.26v.23q0 1.4.6 2.2.62.8 1.73.8z"/><path d="M178.13 83.8q.86 0 1.43-.48.58-.5.63-1.25h.77q-.03.67-.42 1.23-.4.56-1.04.87-.63.32-1.37.32-1.46 0-2.3-1.03-.86-1-.86-2.72v-.24q0-1.1.4-1.93.37-.84 1.08-1.3.72-.45 1.67-.45 1.22 0 2 .72.8.73.85 1.9h-.78q-.07-.86-.64-1.4-.57-.53-1.44-.53-1.1 0-1.72.8-.6.8-.6 2.26v.23q0 1.4.6 2.2.62.8 1.73.8z"/><path d="M182.16 80.54q0-1.06.42-1.92.4-.85 1.16-1.33.76-.48 1.72-.48 1.48 0 2.4 1.04.9 1.03.9 2.74v.17q0 1.07-.4 1.93-.42.86-1.17 1.32-.76.47-1.73.47-1.47 0-2.4-1.05-.9-1.03-.9-2.74v-.16zm.83.23q0 1.32.67 2.18.7.85 1.8.85t1.8-.85q.7-.86.7-2.25v-.16q0-.85-.33-1.55-.3-.7-.88-1.1-.57-.4-1.3-.4-1.1 0-1.78.88-.7.85-.7 2.24v.15z"/><path d="M193.88 77.65q-.26-.05-.55-.05-.77 0-1.3.43t-.75 1.24v5.08h-.82v-7.4h.8l.02 1.18q.65-1.3 2.08-1.3.34 0 .54.08l-.02.75z"/><path d="M194.7 80.58q0-1.72.77-2.74.77-1.02 2.1-1.02 1.5 0 2.27 1.18v-4.15h.82v10.5h-.77l-.04-.98q-.8 1.12-2.3 1.12-1.3 0-2.08-1.04-.78-1.03-.78-2.78v-.1zm.83.15q0 1.4.57 2.23.56.82 1.6.82 1.5 0 2.14-1.34v-3.47q-.63-1.44-2.13-1.44-1.02 0-1.6.8-.57.82-.57 2.4z"/><path d="M203.74 84.35h-.82v-7.4h.82v7.4zm-.96-9.54q0-.22.15-.38t.4-.16q.27 0 .42.16.15.16.15.4t-.15.38q-.15.16-.4.16t-.42-.16-.15-.4z"/><path d="M206.75 76.95l.02 1.27q.42-.68 1.04-1.04.64-.36 1.4-.36 1.18 0 1.76.67.58.66.6 2v4.85h-.83V79.5q0-1-.42-1.5-.4-.47-1.3-.47-.77 0-1.36.48-.58.48-.86 1.28v5.07h-.8v-7.4h.77z"/><path d="M213.32 80.58q0-1.73.77-2.75.76-1 2.08-1 1.5 0 2.3 1.2l.04-1.08h.76v7.25q0 1.43-.8 2.26-.8.84-2.16.84-.78 0-1.48-.35-.7-.34-1.1-.92l.46-.5q.87 1.08 2.06 1.08 1.03 0 1.6-.6.58-.6.6-1.68v-.93q-.8 1.1-2.3 1.1-1.28 0-2.06-1.04t-.78-2.77v-.12zm.83.15q0 1.4.57 2.23.56.82 1.6.82 1.5 0 2.14-1.36v-3.44q-.3-.7-.83-1.08-.54-.37-1.3-.37-1.03 0-1.6.8-.58.82-.58 2.4z"/><path d="M226.1 75.06v1.9h1.54v.66h-1.53v4.93q0 .62.22.92.23.3.75.3.2 0 .66-.07l.04.67q-.32.12-.88.12-.85 0-1.23-.5t-.38-1.44v-4.94h-1.37v-.67h1.36v-1.9h.8z"/><path d="M228.76 80.54q0-1.06.4-1.92.43-.85 1.18-1.33.76-.48 1.7-.48 1.5 0 2.4 1.04.92 1.03.92 2.74v.17q0 1.07-.42 1.93-.4.86-1.16 1.32-.75.47-1.7.47-1.48 0-2.4-1.05-.92-1.03-.92-2.74v-.16zm.82.23q0 1.32.68 2.18.7.85 1.8.85t1.8-.85q.7-.86.7-2.25v-.16q0-.85-.33-1.55-.3-.7-.88-1.1-.57-.4-1.3-.4-1.1 0-1.78.88-.7.85-.7 2.24v.15z"/><path d="M241.75 75.06v1.9h1.53v.66h-1.53v4.93q0 .62.22.92.22.3.74.3.22 0 .67-.07l.04.67q-.3.12-.87.12-.84 0-1.22-.5-.37-.5-.37-1.44v-4.94h-1.36v-.67h1.36v-1.9h.82z"/><path d="M245.8 78.2q.4-.66 1.03-1.02t1.38-.36q1.2 0 1.78.67.58.66.58 2v4.85h-.8V79.5q-.02-1-.43-1.5-.4-.47-1.32-.47-.75 0-1.34.48-.58.48-.86 1.28v5.07h-.8v-10.5h.8v4.35z"/><path d="M255.53 84.5q-.94 0-1.7-.48-.76-.46-1.2-1.3-.4-.82-.4-1.86v-.3q0-1.06.4-1.9.42-.87 1.16-1.35.72-.48 1.58-.48 1.35 0 2.14.92.8.92.8 2.5v.47H253v.16q0 1.26.73 2.1.73.84 1.82.84.66 0 1.15-.24.5-.24.92-.77l.5.38q-.9 1.3-2.6 1.3zm-.15-7q-.92 0-1.55.7-.63.67-.77 1.8h4.44v-.08q-.04-1.07-.6-1.74-.6-.67-1.52-.67z"/><path d="M266.75 77.65q-.26-.05-.55-.05-.77 0-1.3.43t-.75 1.24v5.08h-.82v-7.4h.8l.02 1.18q.64-1.3 2.08-1.3.34 0 .54.08l-.02.75z"/><path d="M270.77 84.5q-.94 0-1.7-.48-.77-.46-1.2-1.3-.42-.82-.42-1.86v-.3q0-1.06.4-1.9.43-.87 1.17-1.35.74-.48 1.6-.48 1.35 0 2.13.92.8.92.8 2.5v.47h-5.28v.16q0 1.26.72 2.1.7.84 1.8.84.66 0 1.16-.24.5-.24.92-.77l.5.38q-.9 1.3-2.6 1.3zm-.15-7q-.92 0-1.56.7-.63.67-.76 1.8h4.43v-.08q-.03-1.07-.6-1.74-.58-.67-1.5-.67z"/><path d="M274.82 80.58q0-1.73.77-2.75.76-1 2.1-1 1.5 0 2.27 1.13l.04-1h.77v10.23h-.82v-3.77q-.8 1.06-2.27 1.06-1.3 0-2.08-1.04-.78-1.02-.78-2.77v-.12zm.83.15q0 1.43.57 2.25.58.82 1.6.82 1.48 0 2.13-1.28V78.9q-.3-.67-.85-1.02-.54-.37-1.26-.37-1.03 0-1.6.83-.6.82-.6 2.4z"/><path d="M287.73 83.4q-.74 1.1-2.36 1.1-1.18 0-1.8-.7-.62-.7-.63-2.03v-4.82h.82v4.7q0 2.13 1.7 2.13 1.78 0 2.26-1.47v-5.35h.82v7.4h-.8v-.94z"/><path d="M291.57 84.35h-.82v-7.4h.82v7.4zm-.96-9.54q0-.22.16-.38.15-.16.4-.16.27 0 .42.16.15.16.15.4t-.15.38q-.15.16-.4.16-.27 0-.42-.16t-.15-.4z"/><path d="M297.2 77.65q-.25-.05-.54-.05-.77 0-1.3.43t-.75 1.24v5.08h-.8v-7.4h.8v1.18q.65-1.3 2.1-1.3.33 0 .53.08l-.02.75z"/><path d="M301.23 84.5q-.94 0-1.7-.48-.77-.46-1.2-1.3-.42-.82-.42-1.86v-.3q0-1.06.42-1.9.42-.87 1.16-1.35.74-.48 1.6-.48 1.35 0 2.13.92.8.92.8 2.5v.47h-5.27v.16q0 1.26.72 2.1.72.84 1.8.84.67 0 1.17-.24.5-.24.92-.77l.5.38q-.9 1.3-2.6 1.3zm-.15-7q-.92 0-1.56.7-.63.67-.76 1.8h4.43v-.08q-.04-1.07-.62-1.74-.57-.67-1.5-.67z"/><path d="M305.28 80.58q0-1.72.77-2.74.77-1.02 2.1-1.02 1.48 0 2.27 1.18v-4.15h.8v10.5h-.75l-.04-.98q-.78 1.12-2.3 1.12-1.28 0-2.07-1.04-.78-1.03-.78-2.78v-.1zm.83.15q0 1.4.57 2.23.57.82 1.6.82 1.5 0 2.15-1.34v-3.47q-.64-1.44-2.13-1.44-1.04 0-1.62.8-.57.82-.57 2.4z"/><path d="M25.2 102.47q0-.6-.48-.98-.5-.38-1.47-.58-1-.2-1.53-.48-.54-.27-.8-.66-.27-.4-.27-.95 0-.87.73-1.44.73-.58 1.87-.58 1.24 0 2 .6.74.62.74 1.6h-.83q0-.64-.55-1.08-.54-.43-1.37-.43-.8 0-1.3.38-.48.35-.48.93 0 .56.4.87.4.3 1.5.55 1.07.25 1.6.54.54.3.8.7.26.4.26.97 0 .94-.76 1.5-.75.56-1.97.56-1.3 0-2.1-.64-.8-.62-.8-1.58h.82q.05.72.6 1.12.57.4 1.48.4.86 0 1.38-.38.53-.38.53-.95z"/><path d="M29.14 95.06v1.9h1.53v.66h-1.53v4.93q0 .62.22.92.22.3.74.3.2 0 .67-.07l.03.67q-.32.12-.87.12-.84 0-1.23-.5-.38-.5-.38-1.44v-4.94h-1.36v-.67h1.36v-1.9h.82z"/><path d="M34.72 103.17l2.16-6.22h.88l-3.16 8.65-.16.4q-.6 1.33-1.88 1.33-.3 0-.63-.1v-.67l.42.04q.6 0 .97-.3t.63-1.02l.37-1-2.8-7.33h.9l2.3 6.22z"/><path d="M39.94 104.35h-.82v-10.5h.82v10.5z"/><path d="M45.03 104.5q-.94 0-1.7-.47-.77-.47-1.2-1.3-.42-.83-.42-1.86v-.3q0-1.06.42-1.92.42-.85 1.16-1.34.74-.48 1.6-.48 1.35 0 2.13.92.8.92.8 2.5v.47h-5.27v.17q0 1.25.72 2.1.72.83 1.8.83.67 0 1.17-.24.5-.24.92-.77l.5.38q-.9 1.3-2.6 1.3zm-.15-6.98q-.92 0-1.56.67-.63.67-.76 1.8H47v-.08q-.04-1.06-.62-1.73-.57-.68-1.5-.68z"/><path d="M52.5 100.58q0-1.74.77-2.75.77-1.02 2.1-1.02 1.5 0 2.28 1.22l.05-1.07h.76v7.25q0 1.42-.8 2.26-.8.83-2.17.83-.78 0-1.48-.36-.7-.34-1.1-.9l.45-.5q.87 1.06 2.07 1.06 1.02 0 1.6-.6.57-.6.6-1.68v-.93q-.8 1.08-2.3 1.08-1.28 0-2.06-1.02-.78-1.03-.78-2.77v-.12zm.83.14q0 1.42.56 2.24.56.8 1.6.8 1.5 0 2.13-1.34v-3.44q-.28-.7-.82-1.08-.53-.38-1.3-.38-1.02 0-1.6.82-.57.8-.57 2.38z"/><path d="M65.35 103.4q-.74 1.08-2.36 1.08-1.2 0-1.8-.68-.62-.7-.63-2.04v-4.8h.8v4.7q0 2.1 1.72 2.1 1.77 0 2.24-1.46v-5.35h.82v7.4h-.8v-.94z"/><path d="M69.2 104.35h-.83v-7.4h.82v7.4zm-.97-9.54q0-.22.15-.38t.4-.16.42.16q.16.16.16.4t-.16.38q-.15.16-.4.16t-.42-.16-.15-.4z"/><path d="M71.1 100.58q0-1.72.76-2.74.77-1.03 2.1-1.03 1.5 0 2.27 1.2v-4.15h.82v10.5h-.77l-.03-1q-.8 1.13-2.3 1.13-1.3 0-2.08-1.02-.78-1.03-.78-2.78v-.1zm.82.14q0 1.42.57 2.24.56.8 1.6.8 1.5 0 2.13-1.32v-3.47q-.63-1.45-2.13-1.45-1.03 0-1.6.82-.58.8-.58 2.38z"/><path d="M82.08 104.5q-.94 0-1.7-.47-.77-.47-1.2-1.3-.42-.83-.42-1.86v-.3q0-1.06.4-1.92.43-.85 1.17-1.34.74-.48 1.6-.48 1.35 0 2.13.92.8.92.8 2.5v.47h-5.28v.17q0 1.25.72 2.1.72.83 1.8.83.67 0 1.17-.24.5-.24.92-.77l.5.38q-.9 1.3-2.62 1.3zm-.15-6.98q-.92 0-1.56.67-.63.67-.76 1.8h4.44v-.08q-.03-1.06-.6-1.73-.58-.68-1.5-.68z"/><path d="M86.4 103.86q0-.24.14-.4.15-.17.43-.17.27 0 .43.16.15.16.15.4t-.15.4q-.16.15-.43.15-.28 0-.43-.14-.15-.16-.15-.4z"/><path d="M96.33 99.82l3.04-5.43h.97l-3.6 6.2v3.75h-.84v-3.75l-3.6-6.2h1l3.03 5.42z"/><path d="M100.72 100.54q0-1.07.4-1.92.43-.86 1.18-1.33.76-.5 1.72-.5 1.47 0 2.4 1.05.9 1.04.9 2.74v.17q0 1.07-.4 1.93-.42.85-1.17 1.32-.76.46-1.72.46-1.47 0-2.4-1.03-.9-1.04-.9-2.75v-.16zm.82.23q0 1.32.68 2.18.7.84 1.8.84 1.12 0 1.8-.85.7-.86.7-2.25v-.16q0-.85-.32-1.55-.32-.72-.9-1.1-.55-.4-1.28-.4-1.1 0-1.8.87-.68.86-.68 2.25v.15z"/><path d="M113.78 103.4q-.74 1.08-2.36 1.08-1.18 0-1.8-.68-.6-.7-.63-2.04v-4.8h.8v4.7q0 2.1 1.72 2.1 1.77 0 2.24-1.46v-5.35h.82v7.4h-.8v-.94z"/><path d="M124.8 104.35q-.13-.35-.17-1.03-.43.56-1.1.87-.66.3-1.4.3-1.07 0-1.73-.6-.66-.6-.66-1.5 0-1.1.9-1.72.9-.63 2.5-.63h1.5v-.84q0-.78-.5-1.23-.5-.46-1.43-.46-.84 0-1.4.44-.56.44-.56 1.06h-.82q0-.9.82-1.53.82-.65 2-.65 1.25 0 1.96.62.72.6.74 1.72v3.5q0 1.07.23 1.6v.1h-.88zm-2.58-.6q.82 0 1.46-.38.65-.4.95-1.06v-1.62h-1.47q-1.22 0-1.9.45-.7.43-.7 1.2 0 .6.46 1.02.46.4 1.2.4z"/><path d="M128.53 104.35h-.82v-10.5h.83v10.5z"/><path d="M132.53 102.65l.12.64.17-.68 1.77-5.66h.7l1.75 5.6.2.8.15-.73 1.5-5.67h.86l-2.15 7.4h-.7l-1.9-5.87-.08-.42-.1.4-1.85 5.87h-.7l-2.15-7.4h.84l1.57 5.7z"/><path d="M145.98 104.35q-.12-.35-.16-1.03-.43.56-1.1.87-.66.3-1.4.3-1.07 0-1.73-.6-.67-.6-.67-1.5 0-1.1.9-1.72.9-.63 2.5-.63h1.5v-.84q0-.78-.5-1.23-.5-.46-1.43-.46-.85 0-1.4.44-.57.44-.57 1.06h-.82q0-.9.83-1.53.82-.65 2-.65 1.25 0 1.96.62.7.6.73 1.72v3.5q0 1.07.23 1.6v.1h-.88zm-2.57-.6q.83 0 1.47-.38.65-.4.95-1.06v-1.62h-1.46q-1.23 0-1.92.45-.7.43-.7 1.2 0 .6.47 1.02.47.4 1.2.4z"/><path d="M151.04 103.17l2.16-6.22h.88l-3.16 8.65-.16.4q-.6 1.33-1.88 1.33-.3 0-.63-.1v-.67l.42.04q.6 0 .97-.3.38-.3.64-1.02l.36-1-2.8-7.33h.9l2.3 6.22z"/><path d="M159.77 102.47q0-.6-.5-.98-.48-.38-1.46-.58-.98-.2-1.52-.48-.54-.27-.8-.66-.27-.4-.27-.95 0-.87.74-1.44.73-.58 1.88-.58 1.23 0 1.98.6.75.62.75 1.6h-.82q0-.64-.55-1.08-.54-.43-1.37-.43-.8 0-1.28.38-.5.35-.5.93 0 .56.4.87.42.3 1.5.55 1.08.25 1.6.54.55.3.8.7.27.4.27.97 0 .94-.77 1.5-.75.56-1.97.56-1.3 0-2.1-.64-.8-.62-.8-1.58h.82q.05.72.6 1.12.57.4 1.48.4.86 0 1.38-.38.53-.38.53-.95z"/><path d="M165.5 100.58q0-1.74.78-2.75.77-1.02 2.1-1.02 1.5 0 2.3 1.22l.03-1.07h.77v7.25q0 1.42-.8 2.26-.8.83-2.16.83-.77 0-1.47-.36-.7-.34-1.1-.9l.46-.5q.86 1.06 2.05 1.06 1.03 0 1.6-.6.58-.6.6-1.68v-.93q-.8 1.08-2.3 1.08-1.28 0-2.06-1.02t-.8-2.77v-.12zm.84.14q0 1.42.57 2.24.57.8 1.6.8 1.52 0 2.15-1.34v-3.44q-.3-.7-.83-1.08-.54-.38-1.3-.38-1.03 0-1.6.82-.58.8-.58 2.38z"/><path d="M176.47 104.5q-.94 0-1.7-.47-.77-.47-1.2-1.3-.42-.83-.42-1.86v-.3q0-1.06.4-1.92.43-.85 1.17-1.34.74-.48 1.6-.48 1.35 0 2.13.92.8.92.8 2.5v.47h-5.28v.17q0 1.25.72 2.1.7.83 1.8.83.66 0 1.16-.24.5-.24.92-.77l.5.38q-.9 1.3-2.6 1.3zm-.15-6.98q-.92 0-1.56.67-.63.67-.76 1.8h4.43v-.08q-.03-1.06-.6-1.73-.58-.68-1.5-.68z"/><path d="M182.12 95.06v1.9h1.54v.66h-1.54v4.93q0 .62.22.92.23.3.75.3.2 0 .65-.07l.04.67q-.34.12-.9.12-.83 0-1.2-.5-.4-.5-.4-1.44v-4.94h-1.36v-.67h1.36v-1.9h.82z"/><path d="M191.13 103.17l2.16-6.22h.87L191 105.6l-.15.4q-.6 1.33-1.88 1.33-.3 0-.63-.1v-.67l.42.04q.6 0 .97-.3t.63-1.02l.36-1-2.8-7.33h.9l2.3 6.22z"/><path d="M194.87 100.54q0-1.07.4-1.92.42-.86 1.18-1.33.75-.5 1.7-.5 1.5 0 2.4 1.05.92 1.04.92 2.74v.17q0 1.07-.42 1.93-.4.85-1.16 1.32-.76.46-1.73.46-1.47 0-2.4-1.03-.9-1.04-.9-2.75v-.16zm.82.23q0 1.32.67 2.18.7.84 1.8.84t1.8-.85q.7-.86.7-2.25v-.16q0-.85-.33-1.55-.3-.72-.88-1.1-.57-.4-1.3-.4-1.1 0-1.78.87-.7.86-.7 2.25v.15z"/><path d="M207.92 103.4q-.74 1.08-2.36 1.08-1.18 0-1.8-.68-.6-.7-.62-2.04v-4.8h.8v4.7q0 2.1 1.72 2.1 1.78 0 2.25-1.46v-5.35h.83v7.4h-.8v-.94z"/><path d="M214.27 97.65q-.26-.05-.56-.05-.75 0-1.3.43-.5.43-.74 1.24v5.08h-.8v-7.4h.8v1.18q.65-1.3 2.1-1.3.33 0 .53.08l-.03.75z"/><path d="M220.24 95.06v1.9h1.53v.66h-1.53v4.93q0 .62.22.92.23.3.74.3.2 0 .67-.07l.03.67q-.32.12-.87.12-.84 0-1.23-.5-.38-.5-.38-1.44v-4.94h-1.36v-.67h1.36v-1.9h.82z"/><path d="M228.15 104.35q-.12-.35-.16-1.03-.44.56-1.1.87-.67.3-1.42.3-1.06 0-1.73-.6-.65-.6-.65-1.5 0-1.1.9-1.72.9-.63 2.5-.63h1.5v-.84q0-.78-.5-1.23-.5-.46-1.43-.46-.85 0-1.4.44-.57.44-.57 1.06h-.82q0-.9.82-1.53.82-.65 2-.65 1.25 0 1.96.62.72.6.74 1.72v3.5q0 1.07.22 1.6v.1h-.87zm-2.57-.6q.82 0 1.46-.38.65-.4.95-1.06v-1.62h-1.48q-1.22 0-1.9.45-.7.43-.7 1.2 0 .6.46 1.02.46.4 1.2.4z"/><path d="M235.4 102.47q0-.6-.5-.98-.47-.38-1.46-.58-.98-.2-1.53-.48-.53-.27-.8-.66-.26-.4-.26-.95 0-.87.73-1.44.74-.58 1.88-.58 1.24 0 1.98.6.75.62.75 1.6h-.82q0-.64-.54-1.08-.54-.43-1.37-.43-.8 0-1.3.38-.5.35-.5.93 0 .56.42.87.4.3 1.48.55 1.08.25 1.6.54.55.3.8.7.27.4.27.97 0 .94-.76 1.5-.75.56-1.96.56-1.3 0-2.1-.64-.8-.62-.8-1.58h.82q.05.72.6 1.12.56.4 1.48.4.85 0 1.38-.38.52-.38.52-.95z"/><path d="M239.8 100.62l-.92.9v2.83h-.82v-10.5h.82v6.72l.77-.84 2.83-2.78h1.03l-3.13 3.12 3.4 4.28h-.96l-3-3.73z"/><path d="M249.15 98.2q.4-.66 1.03-1.02t1.38-.36q1.2 0 1.77.67.58.66.58 2v4.85h-.8V99.5q0-1-.42-1.5-.4-.47-1.32-.47-.76 0-1.35.48-.57.48-.85 1.28v5.07h-.8v-10.5h.8v4.35z"/><path d="M255.57 100.54q0-1.07.4-1.92.43-.86 1.18-1.33.76-.5 1.7-.5 1.5 0 2.4 1.05.92 1.04.92 2.74v.17q0 1.07-.4 1.93-.42.85-1.18 1.32-.76.46-1.72.46-1.47 0-2.4-1.03-.9-1.04-.9-2.75v-.16zm.82.23q0 1.32.67 2.18.7.84 1.8.84 1.12 0 1.8-.85.7-.86.7-2.25v-.16q0-.85-.33-1.55-.3-.72-.88-1.1-.56-.4-1.3-.4-1.1 0-1.78.87-.7.86-.7 2.25v.15z"/><path d="M264.65 96.95l.03 1.27q.4-.68 1.04-1.04.62-.36 1.37-.36 1.18 0 1.76.67.58.66.6 2v4.85h-.82V99.5q0-1-.43-1.5-.4-.47-1.3-.47-.77 0-1.35.48-.6.48-.87 1.28v5.07h-.8v-7.4h.77z"/><path d="M274.42 104.5q-.94 0-1.7-.47-.77-.47-1.2-1.3-.42-.83-.42-1.86v-.3q0-1.06.4-1.92.43-.85 1.17-1.34.74-.48 1.6-.48 1.35 0 2.13.92.8.92.8 2.5v.47h-5.28v.17q0 1.25.72 2.1.72.83 1.8.83.67 0 1.17-.24.52-.24.93-.77l.5.38q-.9 1.3-2.6 1.3zm-.15-6.98q-.92 0-1.56.67-.62.67-.75 1.8h4.43v-.08q-.03-1.06-.6-1.73-.58-.68-1.5-.68z"/><path d="M278.47 100.58q0-1.72.77-2.74.77-1.03 2.1-1.03 1.48 0 2.27 1.2v-4.15h.82v10.5h-.76l-.04-1q-.78 1.13-2.3 1.13-1.28 0-2.07-1.02-.78-1.03-.78-2.78v-.1zm.83.14q0 1.42.56 2.24.57.8 1.6.8 1.5 0 2.15-1.32v-3.47q-.63-1.45-2.12-1.45-1.03 0-1.6.82-.58.8-.58 2.38z"/><path d="M291.28 95.06v1.9h1.53v.66h-1.52v4.93q0 .62.22.92.22.3.74.3.2 0 .67-.07l.04.67q-.32.12-.87.12-.84 0-1.23-.5-.38-.5-.38-1.44v-4.94h-1.36v-.67h1.36v-1.9h.82z"/><path d="M293.93 100.54q0-1.07.4-1.92.43-.86 1.18-1.33.77-.5 1.72-.5 1.48 0 2.4 1.05.9 1.04.9 2.74v.17q0 1.07-.4 1.93-.4.85-1.17 1.32-.75.46-1.7.46-1.48 0-2.4-1.03-.92-1.04-.92-2.75v-.16zm.82.23q0 1.32.68 2.18.7.84 1.8.84 1.12 0 1.8-.85.7-.86.7-2.25v-.16q0-.85-.32-1.55-.3-.72-.88-1.1-.56-.4-1.3-.4-1.1 0-1.78.87-.7.86-.7 2.25v.15z"/><path d="M134.9 120.73q0 1.73-.78 2.75-.76 1-2.05 1-1.52 0-2.32-1.06v3.78h-.82v-10.24h.76l.03 1.04q.8-1.18 2.32-1.18 1.33 0 2.08 1 .76 1 .76 2.8v.1zm-.83-.14q0-1.43-.58-2.25-.6-.82-1.63-.82-.76 0-1.3.36t-.82 1.05v3.54q.3.63.84.96t1.28.34q1.03 0 1.6-.82.6-.83.6-2.4z"/><path d="M139.57 124.5q-.94 0-1.7-.47-.77-.47-1.2-1.3-.42-.83-.42-1.86v-.3q0-1.06.4-1.92.43-.85 1.17-1.34.74-.48 1.6-.48 1.35 0 2.13.92.8.92.8 2.5v.47h-5.28v.17q0 1.25.72 2.1.7.83 1.8.83.66 0 1.16-.24.5-.24.92-.77l.5.38q-.9 1.3-2.6 1.3zm-.15-6.98q-.92 0-1.56.67-.63.67-.76 1.8h4.43v-.08q-.03-1.06-.6-1.73-.58-.68-1.5-.68z"/><path d="M147.37 117.65q-.26-.05-.55-.05-.77 0-1.3.43t-.75 1.24v5.08h-.82v-7.4h.8l.02 1.18q.64-1.3 2.08-1.3.34 0 .54.07l-.03.75z"/><path d="M149.35 124.35v-6.73h-1.22v-.67h1.22v-.9q0-1.13.58-1.74.58-.6 1.6-.6.47 0 .88.12l-.05.7q-.35-.1-.75-.1-.68 0-1.05.43-.38.4-.38 1.2v.9h1.77v.67h-1.77v6.73h-.82z"/><path d="M156.1 124.5q-.93 0-1.7-.47-.75-.47-1.18-1.3-.42-.83-.42-1.86v-.3q0-1.06.4-1.92.42-.85 1.16-1.34.74-.48 1.6-.48 1.35 0 2.14.92.8.92.8 2.5v.47h-5.3v.17q0 1.25.73 2.1.72.83 1.82.83.65 0 1.15-.24.5-.24.92-.77l.5.38q-.9 1.3-2.6 1.3zm-.14-6.98q-.92 0-1.56.67-.63.67-.76 1.8h4.43v-.08q-.03-1.06-.6-1.73-.58-.68-1.5-.68z"/><path d="M163.23 123.8q.85 0 1.43-.48t.63-1.25h.77q-.03.68-.42 1.24-.4.56-1.04.88-.63.3-1.37.3-1.46 0-2.3-1-.86-1-.86-2.72v-.25q0-1.08.38-1.92.4-.84 1.1-1.3.72-.46 1.67-.46 1.22 0 2 .73.8.72.85 1.9h-.78q-.07-.87-.64-1.4-.57-.53-1.44-.53-1.1 0-1.72.8-.6.8-.6 2.24v.24q0 1.4.6 2.2.6.8 1.73.8z"/><path d="M168.98 115.06v1.9h1.54v.66h-1.54v4.93q0 .62.22.92.23.3.75.3.2 0 .66-.07l.05.67q-.33.12-.88.12-.84 0-1.22-.5-.4-.5-.4-1.44v-4.94h-1.35v-.67h1.36v-1.9h.82z"/><path d="M173.14 124.35h-.82v-7.4h.82v7.4zm-.96-9.54q0-.22.15-.38t.4-.16q.27 0 .42.16.16.16.16.4t-.15.38q-.15.16-.4.16t-.42-.16q-.15-.15-.15-.4z"/><path d="M174.92 120.54q0-1.07.4-1.92.43-.86 1.18-1.33.76-.5 1.7-.5 1.5 0 2.4 1.05.92 1.04.92 2.74v.17q0 1.07-.4 1.93-.42.85-1.18 1.32-.75.46-1.7.46-1.48 0-2.4-1.03-.92-1.04-.92-2.75v-.16zm.82.23q0 1.32.68 2.18.7.84 1.8.84t1.8-.85q.7-.86.7-2.25v-.16q0-.85-.33-1.55-.32-.72-.9-1.1-.55-.4-1.3-.4-1.08 0-1.77.87-.7.86-.7 2.25v.15z"/><path d="M184 116.95l.02 1.26q.42-.67 1.04-1.02.63-.37 1.38-.37 1.2 0 1.77.68.6.67.6 2v4.87h-.82v-4.86q0-1-.42-1.5-.4-.48-1.32-.48-.76 0-1.35.48-.6.47-.87 1.28v5.07h-.8v-7.4h.77z"/><path d="M191.78 121.58h-.76l-.04-7.18h.84l-.04 7.18zm-.9 2.3q0-.24.15-.4.15-.16.4-.16.27 0 .42.16.16.16.16.4 0 .22-.15.37t-.4.15-.42-.15q-.15-.15-.15-.38z"/></g></g></g></svg>