<svg xmlns="http://www.w3.org/2000/svg" width="320" height="130" viewBox="0 0 320.00001 130"><g><g><g><path d="M89.12 9.64v4.63h-.96V2.9h3.87q1.77 0 2.8.9 1.03.9 1.03 2.5t-1 2.47q-.98.87-2.85.87h-2.88zm0-.82h2.9q1.4 0 2.14-.66.74-.66.74-1.85 0-1.17-.74-1.87-.72-.7-2.07-.7H89.1v5.1z"/><path d="M98.97 13.46h5.62v.8H98V2.9h.97v10.56z"/><path d="M112.73 11.08h-5.16l-1.17 3.2h-1l4.3-11.4h.9l4.3 11.4h-1l-1.17-3.2zm-4.86-.82h4.56l-2.28-6.2-2.28 6.2z"/><path d="M124.7 12.92q-.5.7-1.56 1.1-1.06.4-2.38.4-1.34 0-2.38-.63t-1.6-1.83q-.58-1.17-.6-2.68V7.84q0-2.37 1.2-3.74 1.2-1.36 3.22-1.36 1.76 0 2.83.9t1.27 2.46h-.96q-.2-1.25-1.02-1.9-.8-.64-2.1-.64-1.6 0-2.53 1.13-.94 1.12-.94 3.2v1.33q0 1.3.43 2.3.44 1 1.26 1.54.83.54 1.9.54 1.24 0 2.13-.38.57-.25.85-.6V9.68h-3.06v-.8h4v4.04z"/><path d="M128.6 14.27h-.95V2.9h.96v11.37z"/><path d="M137.98 11.08h-5.16l-1.17 3.2h-1l4.3-11.4h.9l4.3 11.4h-1l-1.17-3.2zm-4.86-.82h4.56l-2.28-6.2-2.28 6.2z"/><path d="M146.1 9.54h-3.3v4.73h-.98V2.9h3.7q1.8 0 2.84.88 1.02.88 1.02 2.47 0 1.1-.64 1.93-.64.83-1.72 1.15l2.85 4.84v.1h-1.03l-2.75-4.73zm-3.3-.82h2.93q1.2 0 1.95-.7.73-.68.73-1.77 0-1.2-.75-1.87-.77-.66-2.15-.66h-2.7v5z"/><path d="M153.17 14.27h-.96V2.9h.97v11.37z"/><path d="M162.7 11.47q0-.94-.68-1.5-.66-.54-2.43-1.04T157 7.85q-1.14-.83-1.14-2.17 0-1.3 1.07-2.12 1.08-.82 2.75-.82 1.13 0 2.02.44.9.43 1.4 1.2t.48 1.76h-.96q0-1.17-.8-1.87-.8-.7-2.14-.7-1.3 0-2.08.57-.77.58-.77 1.52 0 .87.7 1.4.7.56 2.22.98 1.53.42 2.32.87.8.46 1.2 1.08.38.63.38 1.48 0 1.34-1.07 2.15-1.07.83-2.83.83-1.2 0-2.2-.43-1-.43-1.54-1.2-.5-.78-.5-1.78h.96q0 1.2.9 1.9t2.4.7q1.32 0 2.12-.6.8-.58.8-1.55z"/><path d="M167 2.9l4.2 10.03 4.2-10.04h1.28v11.37h-.96V9.32l.08-5.08-4.24 10.03h-.74l-4.22-10 .08 5.02v4.97h-.96V2.9H167z"/><path d="M191.52 10.72q-.2 1.8-1.3 2.75-1.07.96-2.9.96-1.25 0-2.23-.64t-1.5-1.8q-.54-1.16-.55-2.65V7.87q0-1.5.53-2.7t1.53-1.8q1-.63 2.3-.63 1.83 0 2.9 1 1.05.98 1.22 2.72h-.97q-.36-2.9-3.14-2.9-1.54 0-2.46 1.16-.92 1.15-.92 3.2V9.3q0 1.97.9 3.14.9 1.17 2.4 1.17 1.52 0 2.3-.7.75-.73.93-2.18h.97z"/><path d="M202.3 14.27h-.97V8.82h-6.5v5.45h-.96V2.9h.96V8h6.5V2.9h.97v11.37z"/><path d="M211.47 8.82h-5.32v4.64h6.1v.8h-7.06V2.9h7.03v.82h-6.08V8h5.32v.82z"/><path d="M222.34 10.72q-.2 1.8-1.3 2.75-1.08.96-2.9.96-1.26 0-2.23-.64-.96-.64-1.5-1.8-.53-1.16-.53-2.65V7.87q0-1.5.53-2.7t1.52-1.8q1-.63 2.3-.63 1.83 0 2.88 1 1.06.98 1.23 2.72h-.96q-.36-2.9-3.15-2.9-1.55 0-2.47 1.16-.9 1.15-.9 3.2V9.3q0 1.97.88 3.14.9 1.17 2.42 1.17 1.5 0 2.27-.7.77-.73.95-2.18h.97z"/><path d="M227.25 8.62l-1.6 1.58v4.07h-.96V2.9h.95v6.13l5.83-6.13h1.2l-4.76 5.06 5.13 6.3h-1.17l-4.63-5.64z"/></g><g fill="#929292"><path d="M28.5 34.32v6.8q0 1-.43 1.74-.44.75-1.24 1.15-.8.4-1.83.4-1.57 0-2.52-.85-.94-.86-.98-2.38v-6.85h.84v6.73q0 1.26.7 1.96.73.7 1.96.7t1.94-.7q.72-.7.72-1.94v-6.74h.85z"/><path d="M31.46 36.87l.03 1.27q.4-.68 1.03-1.04.62-.36 1.37-.36 1.2 0 1.77.67.58.68.6 2.02v4.85h-.82V39.4q0-.98-.43-1.47-.4-.48-1.32-.48-.76 0-1.34.48-.6.47-.87 1.27v5.07h-.82v-7.4h.78z"/><path d="M39.28 44.27h-.82v-7.4h.82v7.4zm-.96-9.54q0-.23.15-.4.15-.15.4-.15t.42.16q.14.16.14.4t-.15.38q-.16.16-.42.16t-.4-.16-.16-.4z"/><path d="M41.18 40.5q0-1.73.77-2.75.77-1 2.1-1 1.5 0 2.28 1.13l.04-1h.76V47.1h-.82v-3.75q-.8 1.06-2.26 1.06-1.3 0-2.08-1.02t-.78-2.77v-.1zm.83.15q0 1.43.58 2.25.58.82 1.6.82 1.48 0 2.13-1.28V38.8q-.3-.65-.84-1-.54-.37-1.26-.37-1.03 0-1.6.82-.6.82-.6 2.4z"/><path d="M54.1 43.33q-.75 1.08-2.37 1.08-1.18 0-1.8-.68-.6-.7-.63-2.03v-4.83h.82v4.7q0 2.13 1.7 2.13 1.78 0 2.26-1.47v-5.36h.82v7.4h-.8v-.94z"/><path d="M59.88 44.4q-.95 0-1.7-.46-.77-.46-1.2-1.3-.42-.82-.42-1.86v-.3q0-1.06.4-1.9.43-.87 1.17-1.35.74-.5 1.6-.5 1.34 0 2.13.93.8.92.8 2.5v.47h-5.28v.15q0 1.26.7 2.1.74.84 1.83.84.67 0 1.17-.24.5-.24.9-.77l.53.4q-.9 1.3-2.62 1.3zm-.15-6.97q-.93 0-1.56.68-.63.7-.77 1.83h4.44v-.1q-.04-1.06-.6-1.73-.58-.67-1.5-.67z"/><path d="M70.4 43.72q.87 0 1.44-.48.58-.5.63-1.25h.78q-.03.66-.42 1.22-.4.56-1.04.87-.65.3-1.4.3-1.45 0-2.3-1-.85-1.02-.85-2.73v-.24q0-1.1.4-1.94.37-.85 1.08-1.3.72-.46 1.67-.46 1.22 0 2 .72.8.73.85 1.9h-.78q-.06-.86-.63-1.4-.57-.53-1.44-.53-1.1 0-1.72.8-.6.8-.6 2.25v.23q0 1.43.6 2.22.62.8 1.73.8z"/><path d="M74.44 40.46q0-1.06.4-1.92.43-.85 1.18-1.33.76-.46 1.72-.46 1.48 0 2.4 1.04.9 1.03.9 2.74v.17q0 1.06-.4 1.92-.42.86-1.17 1.32-.75.47-1.72.47-1.47 0-2.4-1.03-.9-1.03-.9-2.74v-.17zm.82.23q0 1.3.7 2.17.68.85 1.8.85 1.1 0 1.78-.85.7-.86.7-2.25v-.16q0-.85-.32-1.55-.3-.7-.88-1.08-.57-.4-1.3-.4-1.1 0-1.8.88-.68.85-.68 2.24v.15z"/><path d="M83.52 36.87l.03 1.27q.42-.68 1.04-1.04.6-.36 1.36-.36 1.2 0 1.77.67.58.68.6 2.02v4.85h-.82V39.4q0-.98-.42-1.47-.4-.48-1.32-.48-.75 0-1.34.48-.58.47-.86 1.27v5.07h-.82v-7.4h.78z"/><path d="M91.7 34.98v1.9h1.53v.66H91.7v4.93q0 .62.22.92.22.3.74.3.2 0 .66-.08l.04.67q-.32.1-.88.1-.84 0-1.22-.48-.38-.5-.38-1.44v-4.94h-1.36v-.67h1.36v-1.9h.82z"/><path d="M97.8 44.4q-.94 0-1.7-.46-.77-.46-1.2-1.3-.4-.82-.4-1.86v-.3q0-1.06.4-1.9.4-.87 1.15-1.35.74-.5 1.6-.5 1.35 0 2.13.93.8.92.8 2.5v.47H95.3v.15q0 1.26.72 2.1.72.84 1.82.84.65 0 1.15-.24.5-.24.9-.77l.52.4q-.9 1.3-2.62 1.3zm-.15-6.97q-.92 0-1.56.68-.64.7-.77 1.83h4.43v-.1q-.03-1.06-.6-1.73-.58-.67-1.5-.67z"/><path d="M102.96 36.87l.03 1.27q.4-.7 1.03-1.04.62-.36 1.37-.36 1.2 0 1.77.67.6.68.6 2.02v4.85h-.82V39.4q0-.98-.42-1.47-.4-.48-1.32-.48-.75 0-1.34.48-.58.47-.86 1.27v5.07h-.82v-7.4h.78z"/><path d="M111.14 34.98v1.9h1.53v.66h-1.53v4.93q0 .62.22.92.22.3.74.3.2 0 .67-.08l.03.67q-.32.1-.87.1-.85 0-1.23-.48-.38-.5-.38-1.44v-4.94h-1.36v-.67h1.36v-1.9h.82z"/><path d="M118.7 44.27h-.8v-7.4h.8v7.4zm-.95-9.54q0-.23.15-.4.15-.15.4-.15t.42.16q.16.16.16.4t-.16.38q-.15.16-.4.16-.27 0-.42-.16-.15-.15-.15-.4z"/><path d="M125.37 42.4q0-.62-.5-1-.48-.36-1.46-.56-.97-.2-1.52-.48-.54-.27-.8-.66-.27-.4-.27-.95 0-.87.74-1.44.74-.56 1.88-.56 1.23 0 1.98.6.75.62.75 1.6h-.82q0-.64-.55-1.08-.54-.43-1.36-.43-.8 0-1.3.37-.5.35-.5.93 0 .55.42.86.4.3 1.48.54 1.08.25 1.6.54.55.3.8.7t.27.97q0 .94-.77 1.5-.75.56-1.97.56-1.3 0-2.1-.62t-.8-1.58h.83q.03.72.6 1.12.55.4 1.46.4.86 0 1.4-.38.5-.38.5-.95z"/><path d="M136.1 44.27q-.1-.35-.15-1.03-.43.56-1.1.87-.66.3-1.4.3-1.07 0-1.73-.6-.66-.58-.66-1.5 0-1.07.9-1.7.9-.63 2.5-.63h1.5v-.84q0-.8-.5-1.24-.5-.47-1.43-.47-.85 0-1.4.43-.57.44-.57 1.06h-.82q0-.9.82-1.53.82-.66 2-.66 1.25 0 1.96.62.72.6.74 1.72v3.5q0 1.07.23 1.6v.1h-.9zm-2.56-.6q.82 0 1.46-.38.65-.4.95-1.07V40.6h-1.47q-1.22 0-1.9.45-.7.43-.7 1.2 0 .6.46 1.02.46.4 1.2.4z"/><path d="M148.3 40.65q0 1.73-.77 2.75-.76 1-2.05 1-1.5 0-2.32-1.06v3.77h-.8V36.88h.74l.05 1.05q.8-1.18 2.3-1.18 1.34 0 2.1 1 .75 1 .75 2.8v.1zm-.82-.15q0-1.4-.58-2.23-.58-.82-1.62-.82-.75 0-1.3.36-.53.37-.82 1.06v3.55q.3.65.84.98.55.34 1.3.34 1.02 0 1.6-.82.58-.83.58-2.4z"/><path d="M153.54 37.57q-.26-.05-.56-.05-.76 0-1.3.43-.52.43-.75 1.24v5.07h-.8v-7.4h.8v1.18q.65-1.3 2.1-1.3.33 0 .53.08l-.02.74z"/><path d="M155.74 44.27h-.82v-7.4h.82v7.4zm-.97-9.54q0-.23.15-.4.15-.15.4-.15t.42.16q.16.16.16.4t-.16.38q-.15.16-.4.16t-.42-.16-.15-.4z"/><path d="M157.5 40.46q0-1.06.42-1.92.42-.85 1.17-1.33.75-.46 1.7-.46 1.5 0 2.4 1.04.92 1.03.92 2.74v.17q0 1.06-.42 1.92-.4.86-1.16 1.32-.75.47-1.72.47-1.47 0-2.4-1.03-.9-1.03-.9-2.74v-.17zm.83.23q0 1.3.7 2.17.68.85 1.8.85 1.1 0 1.78-.85.7-.86.7-2.25v-.16q0-.85-.3-1.55-.32-.7-.9-1.08-.56-.4-1.3-.4-1.08 0-1.77.87-.7.85-.7 2.24v.15z"/><path d="M169.23 37.57q-.26-.05-.55-.05-.77 0-1.3.43t-.75 1.24v5.07h-.82v-7.4h.8l.03 1.18q.65-1.3 2.08-1.3.35 0 .55.08l-.02.74z"/><path d="M171.43 44.27h-.82v-7.4h.83v7.4zm-.96-9.54q0-.23.15-.4.15-.15.4-.15t.42.16q.16.16.16.4t-.16.38q-.15.16-.4.16-.27 0-.42-.16-.15-.15-.15-.4z"/><path d="M174.93 34.98v1.9h1.53v.66h-1.53v4.93q0 .62.22.92.23.3.75.3.2 0 .66-.08l.03.67q-.33.1-.88.1-.84 0-1.23-.48-.4-.5-.4-1.44v-4.94h-1.35v-.67h1.36v-1.9h.83z"/><path d="M180.52 43.1l2.16-6.23h.88l-3.16 8.66-.16.38q-.6 1.36-1.88 1.36-.3 0-.63-.1v-.68l.42.05q.6 0 .97-.3t.63-1.02l.36-1-2.78-7.33h.9l2.3 6.22z"/><path d="M188.82 44.27v-6.73h-1.22v-.67h1.22v-.9q0-1.13.58-1.74.58-.6 1.6-.6.48 0 .88.1l-.06.7q-.34-.1-.75-.1-.67 0-1.05.44-.38.4-.38 1.2v.9h1.77v.67h-1.76v6.73h-.82z"/><path d="M192.43 40.46q0-1.06.4-1.92.43-.85 1.18-1.33.77-.46 1.73-.46 1.47 0 2.4 1.04.9 1.03.9 2.74v.17q0 1.06-.4 1.92-.42.86-1.17 1.32-.76.47-1.72.47-1.47 0-2.4-1.03-.9-1.03-.9-2.74v-.17zm.82.23q0 1.3.7 2.17.68.85 1.8.85 1.1 0 1.78-.85.7-.86.7-2.25v-.16q0-.85-.32-1.55-.3-.7-.87-1.08-.57-.4-1.3-.4-1.1 0-1.8.88-.68.85-.68 2.24v.15z"/><path d="M204.15 37.57q-.26-.05-.55-.05-.77 0-1.3.43t-.76 1.24v5.07h-.8v-7.4h.8v1.18q.65-1.3 2.1-1.3.33 0 .53.08l-.02.74z"/><path d="M213.6 43.33q-.73 1.08-2.35 1.08-1.18 0-1.8-.68-.6-.7-.63-2.03v-4.83h.82v4.7q0 2.13 1.7 2.13 1.78 0 2.26-1.47v-5.36h.82v7.4h-.8v-.94z"/><path d="M220.97 42.4q0-.62-.5-1-.48-.36-1.47-.56-.98-.2-1.53-.48-.54-.27-.8-.66-.26-.4-.26-.95 0-.87.74-1.44.73-.56 1.87-.56 1.25 0 2 .6.75.62.75 1.6h-.83q0-.64-.54-1.08-.54-.43-1.37-.43-.8 0-1.3.37-.47.35-.47.93 0 .55.4.86.4.3 1.48.54 1.1.25 1.63.54.54.3.8.7t.26.97q0 .94-.77 1.5-.75.56-1.97.56-1.3 0-2.1-.62t-.8-1.58h.82q.05.72.6 1.12.56.4 1.48.4.85 0 1.38-.38.53-.38.53-.95z"/><path d="M223.54 43.78q0-.24.15-.4.15-.18.42-.18.28 0 .43.17.16.17.16.4t-.15.4q-.15.15-.43.15-.27 0-.43-.15-.16-.15-.16-.4z"/><path d="M232.4 41.58l.3 1.55.4-1.48 2.15-7.33h.75l2.14 7.33.37 1.5.33-1.57 1.8-7.26h.86l-2.56 9.95h-.8l-2.26-7.78-.25-1-.25 1-2.3 7.77h-.8l-2.56-9.95h.86l1.82 7.26z"/><path d="M245.57 44.4q-.95 0-1.7-.46-.77-.46-1.2-1.3-.42-.82-.42-1.86v-.3q0-1.06.4-1.9.43-.87 1.17-1.35.74-.5 1.6-.5 1.34 0 2.13.93.8.92.8 2.5v.47h-5.28v.15q0 1.26.7 2.1.74.84 1.83.84.66 0 1.16-.24.5-.24.9-.77l.53.4q-.92 1.3-2.63 1.3zm-.15-6.97q-.93 0-1.56.68-.63.7-.77 1.83h4.43v-.1q-.03-1.06-.6-1.73-.58-.67-1.5-.67z"/><path d="M255.14 42.57l.12.63.17-.67 1.77-5.66h.7l1.76 5.62.2.77.15-.72 1.52-5.68h.85l-2.16 7.4h-.7l-1.9-5.86-.08-.4-.1.4-1.85 5.87h-.7l-2.15-7.4h.84l1.57 5.7z"/><path d="M267.34 37.57q-.26-.05-.55-.05-.78 0-1.3.43-.54.43-.76 1.24v5.07h-.82v-7.4h.8l.02 1.18q.64-1.3 2.08-1.3.34 0 .54.08l-.02.74z"/><path d="M269.54 44.27h-.82v-7.4h.82v7.4zm-.96-9.54q0-.23.15-.4.15-.15.4-.15.27 0 .42.16.15.16.15.4t-.15.38q-.15.16-.4.16-.27 0-.42-.16t-.15-.4z"/><path d="M273.04 34.98v1.9h1.53v.66h-1.53v4.93q0 .62.22.92.22.3.74.3.2 0 .67-.08l.03.67q-.32.1-.87.1-.84 0-1.23-.48-.38-.5-.38-1.44v-4.94h-1.36v-.67h1.36v-1.9h.82z"/><path d="M279.15 44.4q-.94 0-1.7-.46-.77-.46-1.2-1.3-.42-.82-.42-1.86v-.3q0-1.06.4-1.9.43-.87 1.17-1.35.74-.5 1.6-.5 1.35 0 2.13.93.8.92.8 2.5v.47h-5.28v.15q0 1.26.72 2.1.72.84 1.8.84.67 0 1.17-.24.5-.24.92-.77l.5.4q-.9 1.3-2.6 1.3zm-.15-6.97q-.92 0-1.56.68-.63.7-.76 1.83h4.43v-.1q-.02-1.06-.6-1.73-.57-.67-1.5-.67z"/><path d="M291.6 44.27q-.1-.35-.15-1.03-.43.56-1.1.87-.66.3-1.4.3-1.07 0-1.74-.6-.64-.58-.64-1.5 0-1.07.9-1.7.9-.63 2.5-.63h1.5v-.84q0-.8-.5-1.24-.5-.47-1.43-.47-.85 0-1.4.43-.57.44-.57 1.06h-.82q0-.9.82-1.53.82-.66 2-.66 1.25 0 1.96.62.72.6.74 1.72v3.5q0 1.07.22 1.6v.1h-.87zm-2.56-.6q.82 0 1.46-.38.65-.4.95-1.07V40.6h-1.47q-1.22 0-1.9.45-.7.43-.7 1.2 0 .6.46 1.02.46.4 1.2.4z"/><path d="M295.35 44.27h-.82v-10.5h.82v10.5z"/><path d="M298.5 44.27h-.82v-10.5h.82v10.5z"/><path d="M28.96 60.65q0 1.73-.77 2.75-.77 1-2.06 1-1.5 0-2.32-1.06v3.77h-.8V56.88h.74l.05 1.05q.8-1.18 2.32-1.18 1.33 0 2.08 1 .76 1 .76 2.8v.1zm-.82-.15q0-1.4-.58-2.23-.58-.82-1.62-.82-.75 0-1.3.36-.53.37-.82 1.06v3.55q.3.65.84.98.55.34 1.3.34 1.02 0 1.6-.82.58-.83.58-2.4z"/><path d="M35.45 64.27q-.12-.35-.16-1.03-.44.56-1.1.87-.67.3-1.42.3-1.06 0-1.73-.6-.65-.58-.65-1.5 0-1.07.9-1.7.9-.63 2.5-.63h1.5v-.84q0-.8-.5-1.24-.5-.47-1.43-.47-.85 0-1.4.43-.57.44-.57 1.06h-.82q0-.9.82-1.53.82-.66 2-.66 1.25 0 1.96.62.72.6.74 1.72v3.5q0 1.07.22 1.6v.1h-.87zm-2.57-.6q.82 0 1.46-.38.65-.4.95-1.07V60.6H33.8q-1.22 0-1.9.45-.7.43-.7 1.2 0 .6.46 1.02.46.4 1.2.4z"/><path d="M44.22 60.65q0 1.73-.77 2.75-.76 1-2.05 1-1.5 0-2.32-1.06v3.77h-.8V56.88H39l.05 1.05q.8-1.18 2.3-1.18 1.34 0 2.1 1 .75 1 .75 2.8v.1zm-.82-.15q0-1.4-.58-2.23-.58-.82-1.62-.82-.75 0-1.3.36-.53.37-.82 1.06v3.55q.3.65.84.98.55.34 1.3.34 1.02 0 1.6-.82.58-.83.58-2.4z"/><path d="M48.9 64.4q-.94 0-1.7-.46-.77-.46-1.2-1.3-.42-.82-.42-1.86v-.3q0-1.06.4-1.9.43-.87 1.17-1.35.74-.5 1.6-.5 1.35 0 2.13.93.8.92.8 2.5v.47H46.4v.15q0 1.26.72 2.1.72.84 1.8.84.67 0 1.17-.24.5-.24.9-.77l.52.4q-.9 1.3-2.62 1.3zm-.15-6.97q-.92 0-1.56.68-.64.7-.77 1.83h4.43v-.1q-.03-1.06-.6-1.73-.58-.67-1.5-.67z"/><path d="M56.7 57.57q-.26-.05-.55-.05-.77 0-1.3.43t-.75 1.24v5.07h-.82v-7.4h.8l.02 1.18q.64-1.3 2.08-1.3.34 0 .54.08l-.02.74z"/><path d="M62.4 62.4q0-.62-.48-1-.48-.36-1.47-.56-.98-.2-1.53-.48-.54-.27-.8-.66-.27-.4-.27-.95 0-.87.73-1.44.74-.56 1.88-.56 1.24 0 1.98.6.75.62.75 1.6h-.83q0-.64-.54-1.08-.54-.43-1.37-.43-.8 0-1.3.37-.5.35-.5.93 0 .55.42.86.4.3 1.48.54 1.08.25 1.6.54.55.3.8.7.27.4.27.97 0 .94-.76 1.5-.75.56-1.96.56-1.3 0-2.1-.62t-.8-1.58h.83q.05.72.6 1.12.56.4 1.48.4.86 0 1.4-.38.5-.38.5-.95z"/><path d="M69.07 64.27v-6.73h-1.22v-.67h1.22v-.9q0-1.13.58-1.74.58-.6 1.6-.6.47 0 .88.1l-.06.7q-.35-.1-.75-.1-.68 0-1.05.44-.38.4-.38 1.2v.9h1.76v.67H69.9v6.73h-.83z"/><path d="M76.55 57.57q-.26-.05-.55-.05-.77 0-1.3.43t-.75 1.24v5.07h-.82v-7.4h.8l.02 1.18q.64-1.3 2.08-1.3.34 0 .54.08l-.02.74z"/><path d="M77.25 60.46q0-1.06.4-1.92.42-.85 1.18-1.33.75-.46 1.7-.46 1.5 0 2.4 1.04.92 1.03.92 2.74v.17q0 1.06-.42 1.92-.4.86-1.16 1.32-.75.47-1.7.47-1.48 0-2.4-1.03-.92-1.03-.92-2.74v-.17zm.82.23q0 1.3.68 2.17.7.85 1.8.85t1.8-.85q.7-.86.7-2.25v-.16q0-.85-.33-1.55-.3-.7-.88-1.08-.57-.4-1.3-.4-1.1 0-1.78.88-.7.85-.7 2.24v.15z"/><path d="M86.3 56.87l.02 1.2q.4-.66 1.02-1 .62-.33 1.37-.33 1.76 0 2.23 1.43.4-.7 1.06-1.06.66-.36 1.46-.36 2.37 0 2.42 2.6v4.93h-.82V59.4q0-1-.43-1.47-.42-.48-1.37-.48-.88 0-1.5.57-.6.56-.66 1.36v4.9h-.82v-4.95q0-.95-.45-1.4-.44-.48-1.36-.48-.77 0-1.32.44-.56.43-.82 1.3v5.07h-.82v-7.4h.8z"/><path d="M105.8 62.4q0-.62-.5-1-.47-.36-1.45-.56-1-.2-1.54-.48-.53-.27-.8-.66-.25-.4-.25-.95 0-.87.73-1.44.73-.56 1.87-.56 1.24 0 1.98.6.76.62.76 1.6h-.83q0-.64-.55-1.08-.54-.43-1.37-.43-.8 0-1.3.37-.48.35-.48.93 0 .55.4.86.4.3 1.48.54 1.08.25 1.62.54.54.3.8.7t.26.97q0 .94-.76 1.5-.75.56-1.97.56-1.3 0-2.1-.62t-.8-1.58h.82q.05.72.6 1.12.56.4 1.48.4.85 0 1.38-.38.53-.38.53-.95z"/><path d="M111.2 63.72q.85 0 1.42-.48.58-.5.63-1.25h.8q-.05.66-.44 1.22-.38.56-1.03.87-.64.3-1.38.3-1.46 0-2.32-1-.84-1.02-.84-2.73v-.24q0-1.1.38-1.94.38-.85 1.1-1.3.7-.46 1.67-.46 1.2 0 2 .72.78.73.84 1.9h-.8q-.04-.86-.62-1.4-.56-.53-1.43-.53-1.12 0-1.74.8-.6.8-.6 2.25v.23q0 1.43.6 2.22.62.8 1.73.8z"/><path d="M119.1 57.57q-.26-.05-.56-.05-.76 0-1.3.43-.52.43-.75 1.24v5.07h-.82v-7.4h.8v1.18q.66-1.3 2.1-1.3.34 0 .54.08l-.02.74z"/><path d="M124.78 64.27q-.13-.35-.16-1.03-.43.56-1.1.87-.66.3-1.4.3-1.08 0-1.74-.6-.65-.58-.65-1.5 0-1.07.9-1.7.9-.63 2.5-.63h1.48v-.84q0-.8-.48-1.24-.48-.47-1.42-.47-.86 0-1.42.43-.56.44-.56 1.06h-.82q0-.9.82-1.53.82-.66 2.02-.66 1.24 0 1.95.62.7.6.73 1.72v3.5q0 1.07.22 1.6v.1h-.87zm-2.57-.6q.83 0 1.47-.38.65-.4.94-1.07V60.6h-1.45q-1.22 0-1.9.45-.7.43-.7 1.2 0 .6.45 1.02.47.4 1.2.4z"/><path d="M128.87 54.98v1.9h1.53v.66h-1.53v4.93q0 .62.22.92.22.3.74.3.2 0 .66-.08l.03.67q-.32.1-.87.1-.84 0-1.23-.48-.38-.5-.38-1.44v-4.94h-1.36v-.67h1.35v-1.9h.82z"/><path d="M134.85 63.72q.85 0 1.42-.48.6-.5.63-1.25h.8q-.04.66-.43 1.22-.4.56-1.04.87-.65.3-1.38.3-1.46 0-2.3-1-.86-1.02-.86-2.73v-.24q0-1.1.37-1.94.38-.85 1.1-1.3.7-.46 1.67-.46 1.22 0 2 .72.8.73.85 1.9h-.8q-.05-.86-.63-1.4-.56-.53-1.43-.53-1.1 0-1.72.8-.6.8-.6 2.25v.23q0 1.43.6 2.22.6.8 1.73.8z"/><path d="M140.14 58.12q.4-.66 1.04-1.02.63-.36 1.37-.36 1.2 0 1.77.67.58.68.6 2.02v4.85h-.82V59.4q0-.98-.43-1.47-.4-.48-1.32-.48-.76 0-1.34.48-.58.47-.86 1.27v5.07h-.8v-10.5h.8v4.35z"/><path d="M155.1 64.27q-.12-.35-.16-1.03-.43.56-1.1.87-.66.3-1.4.3-1.07 0-1.73-.6-.65-.58-.65-1.5 0-1.07.9-1.7.9-.63 2.5-.63h1.5v-.84q0-.8-.5-1.24-.5-.47-1.43-.47-.85 0-1.4.43-.57.44-.57 1.06h-.82q0-.9.82-1.53.82-.66 2-.66 1.25 0 1.96.62.73.6.75 1.72v3.5q0 1.07.23 1.6v.1h-.88zm-2.57-.6q.82 0 1.46-.38.64-.4.94-1.07V60.6h-1.47q-1.22 0-1.9.45-.7.43-.7 1.2 0 .6.46 1.02.46.4 1.2.4z"/><path d="M158.7 56.87l.03 1.27q.42-.68 1.04-1.04.62-.36 1.37-.36 1.2 0 1.77.67.6.68.6 2.02v4.85h-.8V59.4q-.02-.98-.43-1.47-.4-.48-1.32-.48-.76 0-1.35.48-.58.47-.86 1.27v5.07h-.82v-7.4h.78z"/><path d="M165.28 60.5q0-1.72.77-2.74.77-1.02 2.1-1.02 1.48 0 2.27 1.18v-4.15h.8v10.5h-.75l-.04-.98q-.78 1.1-2.3 1.1-1.28 0-2.07-1.02-.78-1.03-.78-2.78v-.1zm.83.15q0 1.4.57 2.23.57.82 1.6.82 1.5 0 2.15-1.34V58.9q-.64-1.45-2.13-1.45-1.04 0-1.62.8-.57.82-.57 2.4z"/><path d="M181.5 64.27q-.14-.35-.17-1.03-.43.56-1.1.87-.66.3-1.4.3-1.07 0-1.74-.6-.66-.58-.66-1.5 0-1.07.9-1.7.9-.63 2.5-.63h1.48v-.84q0-.8-.5-1.24-.47-.47-1.4-.47-.86 0-1.43.43-.57.44-.57 1.06h-.82q0-.9.83-1.53.82-.66 2.02-.66 1.24 0 1.95.62.72.6.74 1.72v3.5q0 1.07.22 1.6v.1h-.87zm-2.58-.6q.82 0 1.46-.38.65-.4.94-1.07V60.6h-1.46q-1.22 0-1.9.45-.7.43-.7 1.2 0 .6.45 1.02.48.4 1.22.4z"/><path d="M183.98 60.5q0-1.72.77-2.74.77-1.02 2.1-1.02 1.5 0 2.27 1.18v-4.15h.82v10.5h-.77l-.03-.98q-.8 1.1-2.3 1.1-1.3 0-2.08-1.02-.78-1.03-.78-2.78v-.1zm.83.15q0 1.4.58 2.23.56.82 1.6.82 1.5 0 2.14-1.34V58.9q-.63-1.45-2.13-1.45-1.04 0-1.62.8-.57.82-.57 2.4z"/><path d="M191.78 60.5q0-1.72.76-2.74.77-1.02 2.1-1.02 1.5 0 2.28 1.18v-4.15h.8v10.5h-.76l-.03-.98q-.8 1.1-2.3 1.1-1.3 0-2.07-1.02-.78-1.03-.78-2.78v-.1zm.82.15q0 1.4.57 2.23.57.82 1.6.82 1.5 0 2.15-1.34V58.9q-.64-1.45-2.14-1.45-1.03 0-1.6.8-.58.82-.58 2.4z"/><path d="M200.8 64.27h-.8v-7.4h.8v7.4zm-.95-9.54q0-.23.15-.4.15-.15.4-.15.27 0 .42.16.16.16.16.4t-.16.38q-.15.16-.4.16t-.42-.16-.15-.4z"/><path d="M204.3 54.98v1.9h1.54v.66h-1.53v4.93q0 .62.23.92.23.3.75.3.2 0 .66-.08l.03.67q-.32.1-.87.1-.84 0-1.22-.48-.4-.5-.4-1.44v-4.94h-1.35v-.67h1.36v-1.9h.8z"/><path d="M208.47 64.27h-.82v-7.4h.82v7.4zm-.96-9.54q0-.23.16-.4.15-.15.4-.15.27 0 .42.16.15.16.15.4t-.15.38q-.15.16-.4.16t-.42-.16-.15-.4z"/><path d="M210.25 60.46q0-1.06.4-1.92.42-.85 1.18-1.33.75-.46 1.7-.46 1.5 0 2.4 1.04.92 1.03.92 2.74v.17q0 1.06-.42 1.92-.4.86-1.16 1.32-.75.47-1.7.47-1.48 0-2.4-1.03-.92-1.03-.92-2.74v-.17zm.82.23q0 1.3.68 2.17.7.85 1.8.85t1.8-.85q.7-.86.7-2.25v-.16q0-.85-.33-1.55-.3-.7-.88-1.08-.57-.4-1.3-.4-1.1 0-1.78.88-.7.85-.7 2.24v.15z"/><path d="M219.32 56.87l.03 1.27q.42-.68 1.04-1.04.6-.36 1.37-.36 1.18 0 1.77.67.58.68.58 2.02v4.85h-.8V59.4q-.02-.98-.43-1.47-.42-.48-1.33-.48-.76 0-1.35.48-.58.47-.86 1.27v5.07h-.8v-7.4h.77z"/><path d="M230.9 64.27q-.13-.35-.16-1.03-.43.56-1.1.87-.66.3-1.4.3-1.07 0-1.74-.6-.65-.58-.65-1.5 0-1.07.9-1.7.9-.63 2.5-.63h1.48v-.84q0-.8-.5-1.24-.47-.47-1.4-.47-.86 0-1.43.43-.56.44-.56 1.06h-.82q0-.9.82-1.53.82-.66 2.02-.66 1.24 0 1.95.62.73.6.75 1.72v3.5q0 1.07.22 1.6v.1h-.87zm-2.57-.6q.82 0 1.46-.38.64-.4.93-1.07V60.6h-1.46q-1.22 0-1.9.45-.7.43-.7 1.2 0 .6.45 1.02.47.4 1.2.4z"/><path d="M234.64 64.27h-.82v-10.5h.82v10.5z"/><path d="M237.78 64.27h-.82v-10.5h.82v10.5z"/><path d="M242.36 63.1l2.16-6.23h.88l-3.16 8.66-.17.38q-.6 1.36-1.88 1.36-.3 0-.63-.1v-.68l.4.05q.6 0 .98-.3t.64-1.02l.35-1-2.8-7.33h.9l2.3 6.22z"/><path d="M249.75 60.5q0-1.72.76-2.74.78-1.02 2.1-1.02 1.5 0 2.3 1.18v-4.15h.8v10.5h-.77l-.03-.98q-.8 1.1-2.3 1.1-1.3 0-2.08-1.02-.77-1.03-.77-2.78v-.1zm.82.15q0 1.4.57 2.23.57.82 1.6.82 1.5 0 2.15-1.34V58.9q-.65-1.45-2.15-1.45-1.03 0-1.6.8-.58.82-.58 2.4z"/><path d="M257.42 60.46q0-1.06.4-1.92.42-.85 1.17-1.33.75-.46 1.7-.46 1.5 0 2.4 1.04.92 1.03.92 2.74v.17q0 1.06-.42 1.92-.4.86-1.16 1.32-.75.47-1.72.47-1.47 0-2.4-1.03-.9-1.03-.9-2.74v-.17zm.82.23q0 1.3.68 2.17.7.85 1.8.85t1.8-.85q.7-.86.7-2.25v-.16q0-.85-.33-1.55-.32-.7-.9-1.08-.56-.4-1.3-.4-1.08 0-1.77.88-.7.85-.7 2.24v.15z"/><path d="M268.8 60.5q0-1.72.77-2.74.77-1.02 2.1-1.02 1.48 0 2.27 1.18v-4.15h.8v10.5H274l-.05-.98q-.78 1.1-2.3 1.1-1.28 0-2.07-1.02-.78-1.03-.78-2.78v-.1zm.83.15q0 1.4.56 2.23.56.82 1.6.82 1.5 0 2.14-1.34V58.9q-.64-1.45-2.13-1.45-1.02 0-1.6.8-.57.82-.57 2.4z"/><path d="M279.8 64.4q-.95 0-1.72-.46-.76-.46-1.18-1.3-.43-.82-.43-1.86v-.3q0-1.06.4-1.9.43-.87 1.17-1.35.74-.5 1.6-.5 1.35 0 2.13.93.8.92.8 2.5v.47h-5.28v.15q0 1.26.7 2.1.73.84 1.82.84.66 0 1.16-.24.5-.24.92-.77l.5.4q-.9 1.3-2.6 1.3zm-.16-6.97q-.92 0-1.56.68-.63.7-.76 1.83h4.43v-.1q-.03-1.06-.6-1.73-.58-.67-1.5-.67z"/><path d="M287.03 64.4q-.94 0-1.7-.46-.77-.46-1.2-1.3-.42-.82-.42-1.86v-.3q0-1.06.42-1.9.42-.87 1.16-1.35.74-.5 1.6-.5 1.35 0 2.13.93.8.92.8 2.5v.47h-5.27v.15q0 1.26.72 2.1.72.84 1.8.84.67 0 1.17-.24.5-.24.92-.77l.5.4q-.9 1.3-2.6 1.3zm-.15-6.97q-.92 0-1.56.68-.63.7-.76 1.83H289v-.1q-.04-1.06-.62-1.73-.57-.67-1.5-.67z"/><path d="M297.36 60.65q0 1.73-.77 2.75-.77 1-2.06 1-1.5 0-2.32-1.06v3.77h-.8V56.88h.74l.05 1.05q.8-1.18 2.32-1.18 1.33 0 2.08 1 .76 1 .76 2.8v.1zm-.82-.15q0-1.4-.58-2.23-.58-.82-1.62-.82-.75 0-1.3.36-.53.37-.82 1.06v3.55q.3.65.84.98.55.34 1.3.34 1.02 0 1.6-.82.58-.83.58-2.4z"/><path d="M29.74 80.65q0 1.73-.77 2.74-.76 1-2.05 1-1.5 0-2.32-1.06v3.77h-.8V76.88h.74l.05 1.05q.8-1.18 2.3-1.18 1.33 0 2.08 1 .76 1 .76 2.8v.1zm-.82-.15q0-1.4-.58-2.23-.58-.82-1.62-.82-.75 0-1.3.36-.53.37-.82 1.06v3.55q.3.65.84.98.55.34 1.3.34 1.02 0 1.6-.82.58-.83.58-2.4z"/><path d="M32.47 84.27h-.82v-10.5h.82v10.5z"/><path d="M39.37 84.27q-.12-.35-.16-1.03-.42.56-1.1.87-.65.3-1.4.3-1.06 0-1.73-.6-.65-.58-.65-1.5 0-1.07.9-1.7.9-.63 2.5-.63h1.5v-.84q0-.8-.5-1.24-.5-.47-1.43-.47-.86 0-1.42.43-.56.44-.56 1.06h-.82q0-.9.82-1.53.82-.66 2-.66 1.25 0 1.96.62.72.6.74 1.72v3.5q0 1.07.22 1.6v.1h-.87zm-2.57-.6q.82 0 1.46-.38.65-.4.95-1.07V80.6h-1.46q-1.22 0-1.9.45-.7.43-.7 1.2 0 .6.46 1.02.46.4 1.2.4z"/><path d="M41.86 80.5q0-1.73.77-2.75.77-1 2.1-1 1.5 0 2.28 1.2l.06-1.08h.76v7.25q0 1.43-.8 2.26-.8.84-2.17.84-.77 0-1.47-.35-.7-.34-1.1-.92l.45-.5q.87 1.08 2.07 1.08 1.02 0 1.6-.6.57-.6.6-1.7v-.92q-.8 1.1-2.3 1.1-1.28 0-2.06-1.02t-.78-2.77v-.1zm.83.15q0 1.4.55 2.23.57.82 1.6.82 1.5 0 2.14-1.36V78.9q-.3-.7-.83-1.08-.54-.37-1.3-.37-1.03 0-1.6.8-.58.82-.58 2.4z"/><path d="M50.87 84.27h-.82v-7.4h.82v7.4zm-.96-9.54q0-.23.16-.4.15-.15.4-.15t.42.16q.15.16.15.4t-.15.38q-.15.16-.4.16t-.42-.16-.15-.4z"/><path d="M57.77 84.27q-.12-.35-.16-1.03-.42.56-1.1.87-.65.3-1.4.3-1.06 0-1.73-.6-.65-.58-.65-1.5 0-1.07.9-1.7.9-.63 2.5-.63h1.5v-.84q0-.8-.5-1.24-.5-.47-1.43-.47-.86 0-1.42.43-.56.44-.56 1.06h-.82q0-.9.82-1.53.82-.66 2-.66 1.25 0 1.96.62.72.6.74 1.72v3.5q0 1.07.22 1.6v.1h-.87zm-2.57-.6q.82 0 1.46-.38.65-.4.95-1.07V80.6h-1.46q-1.22 0-1.9.45-.7.43-.7 1.2 0 .6.46 1.02.46.4 1.2.4z"/><path d="M64 77.57q-.25-.05-.54-.05-.77 0-1.3.43t-.75 1.24v5.07h-.8v-7.4h.8v1.18q.66-1.3 2.1-1.3.33 0 .53.08l-.02.74z"/><path d="M66.2 84.27h-.8v-7.4h.8v7.4zm-.95-9.54q0-.23.15-.4.15-.15.4-.15t.42.16q.16.16.16.4t-.16.38q-.15.16-.4.16-.27 0-.42-.16-.15-.15-.15-.4z"/><path d="M72.87 82.4q0-.62-.5-1-.48-.36-1.46-.56-.97-.2-1.52-.48-.54-.27-.8-.66-.27-.4-.27-.95 0-.87.74-1.44.74-.56 1.88-.56 1.23 0 1.98.6.75.62.75 1.6h-.82q0-.64-.55-1.08-.54-.43-1.36-.43-.8 0-1.3.37-.5.35-.5.93 0 .55.42.86.4.3 1.48.54 1.08.25 1.6.54.55.3.8.7t.27.97q0 .94-.77 1.5-.75.56-1.97.56-1.3 0-2.1-.62t-.8-1.58h.83q.03.72.6 1.12.55.4 1.46.4.86 0 1.4-.38.5-.38.5-.95z"/><path d="M76.27 76.87l.03 1.2q.4-.66 1.02-1 .62-.33 1.37-.33 1.74 0 2.2 1.43.4-.7 1.07-1.06.66-.36 1.46-.36 2.38 0 2.43 2.6v4.93h-.82V79.4q0-1-.43-1.47-.4-.48-1.36-.48-.88 0-1.5.57-.6.56-.67 1.36v4.9h-.82v-4.95q0-.95-.45-1.4-.43-.48-1.35-.48-.77 0-1.33.44-.55.43-.82 1.3v5.07h-.82v-7.4h.8z"/><path d="M94.1 83.72q.85 0 1.42-.48.58-.5.63-1.25h.78q-.03.66-.42 1.22-.38.56-1.03.87-.64.3-1.38.3-1.47 0-2.32-1-.85-1.02-.85-2.73v-.24q0-1.1.4-1.94.37-.85 1.08-1.3.73-.46 1.68-.46 1.22 0 2 .72.8.73.85 1.9h-.78q-.06-.86-.63-1.4-.57-.53-1.44-.53-1.1 0-1.72.8-.6.8-.6 2.25v.23q0 1.43.6 2.22.62.8 1.73.8z"/><path d="M99.4 78.12q.4-.66 1.02-1.02.63-.36 1.37-.36 1.18 0 1.76.67.6.68.6 2.02v4.85h-.82V79.4q0-.98-.42-1.47-.4-.48-1.32-.48-.76 0-1.35.48-.58.47-.86 1.27v5.07h-.83v-10.5h.82v4.35z"/><path d="M109.12 84.4q-.94 0-1.7-.46t-1.2-1.3q-.4-.82-.4-1.86v-.3q0-1.06.4-1.9.4-.87 1.15-1.35.74-.5 1.6-.5 1.35 0 2.14.93.8.92.8 2.5v.47h-5.28v.15q0 1.26.72 2.1.72.84 1.82.84.65 0 1.15-.24.52-.24.93-.77l.5.4q-.9 1.3-2.6 1.3zm-.15-6.97q-.92 0-1.56.68-.6.7-.75 1.83h4.43v-.1q-.03-1.06-.6-1.73-.58-.67-1.5-.67z"/><path d="M116.24 83.72q.85 0 1.43-.48.58-.5.63-1.25h.78q-.03.66-.42 1.22-.4.56-1.04.87-.64.3-1.38.3-1.46 0-2.3-1-.86-1.02-.86-2.73v-.24q0-1.1.38-1.94.4-.85 1.1-1.3.72-.46 1.67-.46 1.22 0 2 .72.8.73.85 1.9h-.78q-.06-.86-.63-1.4-.57-.53-1.44-.53-1.1 0-1.72.8-.6.8-.6 2.25v.23q0 1.43.6 2.22.62.8 1.74.8z"/><path d="M122.48 80.54l-.94.9v2.83h-.82v-10.5h.82v6.72l.78-.84 2.83-2.8h1.03L123.04 80l3.4 4.27h-.97l-3-3.73z"/><path d="M132.78 82.57l.12.63.16-.67 1.78-5.66h.7l1.75 5.62.18.77.16-.72 1.52-5.68h.85l-2.15 7.4h-.7l-1.9-5.87-.08-.4-.1.4-1.86 5.87h-.68l-2.15-7.4h.84l1.58 5.7z"/><path d="M142.47 84.27h-.82v-7.4h.82v7.4zm-.96-9.54q0-.23.16-.4.15-.15.4-.15t.42.16q.16.16.16.4t-.16.38q-.15.16-.4.16-.27 0-.42-.16-.15-.15-.15-.4z"/><path d="M145.97 74.98v1.9h1.54v.66H146v4.93q0 .62.2.92.24.3.76.3.2 0 .66-.08l.04.67q-.33.1-.88.1-.84 0-1.22-.48-.38-.5-.38-1.44v-4.94h-1.36v-.67h1.36v-1.9h.82z"/><path d="M150.03 78.12q.4-.66 1.03-1.02t1.38-.36q1.18 0 1.77.67.6.68.6 2.02v4.85h-.82V79.4q0-.98-.42-1.47-.4-.48-1.32-.48-.76 0-1.35.48-.6.47-.87 1.27v5.07h-.8v-10.5h.8v4.35z"/><path d="M164.75 82.4q0-.62-.5-1-.48-.36-1.47-.56-.98-.2-1.53-.48-.54-.27-.8-.66-.26-.4-.26-.95 0-.87.72-1.44.73-.56 1.87-.56 1.23 0 1.97.6.76.62.76 1.6h-.82q0-.64-.54-1.08-.54-.43-1.37-.43-.8 0-1.3.37-.5.35-.5.93 0 .55.4.86.42.3 1.5.54 1.07.25 1.6.54.55.3.8.7.27.4.27.97 0 .94-.76 1.5-.74.56-1.96.56-1.3 0-2.1-.62t-.8-1.58h.82q.05.72.6 1.12.56.4 1.48.4.85 0 1.38-.38.53-.38.53-.95z"/><path d="M173.35 80.65q0 1.73-.77 2.74-.76 1-2.05 1-1.52 0-2.32-1.06v3.77h-.8V76.88h.75l.04 1.05q.8-1.18 2.3-1.18 1.34 0 2.1 1 .75 1 .75 2.8v.1zm-.82-.15q0-1.4-.6-2.23-.57-.82-1.6-.82-.76 0-1.3.36-.54.37-.82 1.06v3.55q.3.65.85.98.54.34 1.3.34 1.02 0 1.6-.82.58-.83.58-2.4z"/><path d="M178.03 84.4q-.94 0-1.7-.46-.77-.46-1.2-1.3-.42-.82-.42-1.86v-.3q0-1.06.42-1.9.42-.87 1.16-1.35.74-.5 1.6-.5 1.35 0 2.13.93.8.92.8 2.5v.47h-5.27v.15q0 1.26.7 2.1.74.84 1.83.84.66 0 1.16-.24.5-.24.9-.77l.53.4q-.9 1.3-2.62 1.3zm-.15-6.97q-.92 0-1.56.68-.63.7-.77 1.83H180v-.1q-.04-1.06-.62-1.73-.57-.67-1.5-.67z"/><path d="M185.15 83.72q.85 0 1.42-.48.58-.5.63-1.25h.8q-.05.66-.44 1.22-.38.56-1.03.87-.65.3-1.4.3-1.44 0-2.3-1-.84-1.02-.84-2.73v-.24q0-1.1.37-1.94.38-.85 1.1-1.3.7-.46 1.67-.46 1.2 0 2 .72.8.73.85 1.9h-.8q-.05-.86-.63-1.4-.56-.53-1.43-.53-1.1 0-1.72.8-.6.8-.6 2.25v.23q0 1.43.6 2.22.6.8 1.72.8z"/><path d="M190.55 84.27h-.82v-7.4h.82v7.4zm-.97-9.54q0-.23.15-.4.15-.15.4-.15.27 0 .42.16.16.16.16.4t-.15.38q-.15.16-.4.16t-.42-.16-.15-.4z"/><path d="M197.44 84.27q-.12-.35-.15-1.03-.44.56-1.1.87-.68.3-1.42.3-1.07 0-1.73-.6-.66-.58-.66-1.5 0-1.07.9-1.7.9-.63 2.5-.63h1.48v-.84q0-.8-.5-1.24-.48-.47-1.42-.47-.85 0-1.4.43-.57.44-.57 1.06h-.83q0-.9.82-1.53.8-.66 2-.66 1.24 0 1.95.62.72.6.74 1.72v3.5q0 1.07.22 1.6v.1h-.88zm-2.57-.6q.82 0 1.47-.38.65-.4.94-1.07V80.6h-1.46q-1.23 0-1.92.45-.7.43-.7 1.2 0 .6.47 1.02.46.4 1.2.4z"/><path d="M201.18 84.27h-.82v-10.5h.82v10.5z"/><path d="M211.26 82.4q0-.62-.5-1-.48-.36-1.46-.56-1-.2-1.53-.48-.54-.27-.8-.66-.27-.4-.27-.95 0-.87.73-1.44.73-.56 1.87-.56 1.24 0 2 .6.74.62.74 1.6h-.82q0-.64-.55-1.08-.54-.43-1.37-.43-.8 0-1.3.37-.48.35-.48.93 0 .55.4.86.4.3 1.5.54 1.07.25 1.6.54.54.3.8.7.26.4.26.97 0 .94-.76 1.5-.75.56-1.97.56-1.3 0-2.1-.62t-.8-1.58h.82q.05.72.6 1.12.57.4 1.48.4.86 0 1.38-.38.53-.38.53-.95z"/><path d="M213.46 80.46q0-1.06.4-1.92.43-.85 1.18-1.33.76-.46 1.7-.46 1.5 0 2.4 1.04.92 1.03.92 2.74v.17q0 1.06-.4 1.92-.42.86-1.18 1.32-.75.47-1.7.47-1.48 0-2.4-1.03-.92-1.03-.92-2.74v-.17zm.82.23q0 1.3.68 2.17.7.85 1.8.85 1.12 0 1.8-.85.7-.86.7-2.25v-.16q0-.85-.32-1.55-.32-.7-.9-1.08-.55-.4-1.3-.4-1.08 0-1.77.88-.7.85-.7 2.24v.15z"/><path d="M222.35 84.27v-6.73h-1.23v-.67h1.23v-.9q0-1.13.57-1.74.58-.6 1.6-.6.48 0 .88.1l-.06.7q-.34-.1-.74-.1-.68 0-1.06.44-.37.4-.37 1.2v.9h1.76v.67h-1.76v6.73h-.82z"/><path d="M227.68 74.98v1.9h1.53v.66h-1.52v4.93q0 .62.22.92.22.3.74.3.2 0 .66-.08l.04.67q-.32.1-.88.1-.84 0-1.22-.48-.38-.5-.38-1.44v-4.94h-1.36v-.67h1.36v-1.9h.82z"/><path d="M232.7 82.57l.1.63.18-.67 1.77-5.66h.7l1.76 5.62.2.77.16-.72 1.5-5.68h.86l-2.15 7.4h-.7l-1.9-5.86-.1-.4-.08.4-1.87 5.87h-.7l-2.15-7.4h.84l1.57 5.7z"/><path d="M246.14 84.27q-.12-.35-.16-1.03-.43.56-1.1.87-.66.3-1.4.3-1.07 0-1.73-.6-.66-.58-.66-1.5 0-1.07.9-1.7.9-.63 2.5-.63h1.48v-.84q0-.8-.5-1.24-.48-.47-1.42-.47-.85 0-1.4.43-.57.44-.57 1.06h-.83q0-.9.82-1.53.8-.66 2-.66 1.24 0 1.95.62.72.6.74 1.72v3.5q0 1.07.22 1.6v.1h-.88zm-2.57-.6q.82 0 1.46-.38.65-.4.95-1.07V80.6h-1.46q-1.23 0-1.92.45-.7.43-.7 1.2 0 .6.47 1.02.46.4 1.2.4z"/><path d="M252.38 77.57q-.26-.05-.55-.05-.77 0-1.3.43-.52.43-.75 1.24v5.07h-.8v-7.4h.8v1.18q.65-1.3 2.08-1.3.35 0 .54.08l-.02.74z"/><path d="M256.4 84.4q-.95 0-1.7-.46-.77-.46-1.2-1.3-.42-.82-.42-1.86v-.3q0-1.06.4-1.9.43-.87 1.17-1.35.73-.5 1.6-.5 1.34 0 2.13.93.8.92.8 2.5v.47h-5.3v.15q0 1.26.73 2.1.74.84 1.83.84.66 0 1.16-.24.5-.24.9-.77l.5.4q-.9 1.3-2.6 1.3zm-.15-6.97q-.93 0-1.56.68-.64.7-.78 1.83h4.44v-.1q-.04-1.06-.6-1.73-.58-.67-1.5-.67z"/><path d="M260.7 83.78q0-.24.15-.4.16-.18.43-.18t.43.17q.17.17.17.4t-.16.4q-.15.15-.42.15t-.43-.15q-.15-.15-.15-.4z"/><path d="M273.36 81.82q0-.82-.58-1.3-.58-.5-2.13-.92-1.54-.44-2.25-.95-1-.72-1-1.9 0-1.14.92-1.85.95-.72 2.4-.72 1 0 1.78.38.78.4 1.22 1.07t.43 1.52h-.85q0-1-.7-1.63-.7-.62-1.87-.62-1.14 0-1.82.5-.67.52-.67 1.34 0 .76.6 1.23.62.48 1.96.85 1.33.36 2.02.76.7.4 1.04.94.35.54.35 1.3 0 1.17-.94 1.88-.93.7-2.47.7-1.06 0-1.94-.37-.88-.37-1.34-1.05-.45-.68-.45-1.55h.84q0 1.05.8 1.66.78.6 2.1.6 1.15 0 1.86-.52t.7-1.36z"/><path d="M280.57 83.33q-.74 1.08-2.36 1.08-1.17 0-1.8-.68-.6-.7-.62-2.03v-4.83h.82v4.7q0 2.13 1.7 2.13 1.78 0 2.26-1.47v-5.36h.82v7.4h-.8v-.94z"/><path d="M286.24 83.72q.85 0 1.43-.48.58-.5.63-1.25h.78q-.03.66-.42 1.22-.4.56-1.04.87-.64.3-1.38.3-1.46 0-2.3-1-.86-1.02-.86-2.73v-.24q0-1.1.38-1.94.4-.85 1.1-1.3.72-.46 1.67-.46 1.22 0 2 .72.8.73.85 1.9h-.78q-.06-.86-.63-1.4-.57-.53-1.44-.53-1.1 0-1.72.8-.6.8-.6 2.25v.23q0 1.43.6 2.22.63.8 1.74.8z"/><path d="M291.53 78.12q.4-.66 1.03-1.02t1.38-.36q1.2 0 1.77.67.6.68.6 2.02v4.85h-.82V79.4q0-.98-.42-1.47-.4-.48-1.32-.48-.76 0-1.35.48-.6.47-.87 1.27v5.07h-.8v-10.5h.8v4.35z"/><path d="M33.8 100.65q0 1.73-.76 2.75-.76 1-2.05 1-1.52 0-2.33-1.06v3.78h-.8V96.88h.74l.06 1.04q.8-1.18 2.3-1.18 1.34 0 2.1 1 .75 1 .75 2.8v.1zm-.8-.14q0-1.4-.6-2.23-.57-.82-1.6-.82-.76 0-1.3.36t-.83 1.07v3.54q.3.65.84.98.56.34 1.3.34 1.03 0 1.6-.82.6-.83.6-2.4z"/><path d="M39.05 97.57q-.26-.05-.55-.05-.77 0-1.3.43t-.75 1.24v5.07h-.82v-7.4h.8l.02 1.18q.64-1.3 2.08-1.3.34 0 .54.08l-.02.74z"/><path d="M39.74 100.46q0-1.07.4-1.92.43-.86 1.18-1.33.76-.47 1.7-.47 1.5 0 2.4 1.04.92 1.04.92 2.74v.2q0 1.06-.4 1.92-.42.85-1.18 1.32-.75.46-1.7.46-1.48 0-2.4-1.03-.92-1.04-.92-2.75v-.16zm.82.23q0 1.3.68 2.17.7.84 1.8.84 1.12 0 1.8-.83.7-.86.7-2.25v-.16q0-.85-.32-1.55-.32-.7-.9-1.08-.55-.4-1.3-.4-1.08 0-1.77.87-.7.85-.7 2.24v.15z"/><path d="M50.78 103.72q.85 0 1.43-.48.6-.48.64-1.25h.78q-.03.67-.42 1.23-.4.55-1.04.87-.64.3-1.38.3-1.46 0-2.3-1-.86-1-.86-2.72v-.25q0-1.1.38-1.93.4-.84 1.1-1.3.72-.46 1.67-.46 1.22 0 2 .73.8.72.85 1.9h-.78q-.06-.87-.63-1.4-.56-.53-1.43-.53-1.1 0-1.72.8-.6.8-.6 2.24v.24q0 1.4.6 2.2.62.8 1.73.8z"/><path d="M58.13 104.4q-.94 0-1.7-.45-.77-.47-1.2-1.3-.42-.83-.42-1.86v-.3q0-1.07.42-1.93.42-.85 1.16-1.34.74-.5 1.6-.5 1.35 0 2.13.93.8.92.8 2.5v.47h-5.27v.16q0 1.24.72 2.1.72.82 1.8.82.67 0 1.17-.24.5-.24.92-.77l.5.4q-.9 1.3-2.6 1.3zm-.15-6.96q-.92 0-1.56.67-.63.7-.76 1.83h4.43v-.1q-.04-1.05-.62-1.72-.57-.66-1.5-.66z"/><path d="M62.18 100.5q0-1.72.77-2.74.77-1.03 2.1-1.03 1.48 0 2.27 1.2v-4.16h.8v10.5h-.75l-.04-1q-.78 1.13-2.3 1.13-1.28 0-2.07-1.02-.78-1.03-.78-2.78v-.1zm.83.14q0 1.42.57 2.24.57.8 1.6.8 1.5 0 2.15-1.32V98.9q-.64-1.46-2.13-1.46-1.04 0-1.62.82-.57.8-.57 2.38z"/><path d="M75.06 103.33q-.74 1.07-2.36 1.07-1.18 0-1.8-.68-.6-.7-.63-2.04v-4.8h.82v4.7q0 2.1 1.7 2.1 1.77 0 2.25-1.46v-5.35h.82v7.4h-.8v-.94z"/><path d="M81.4 97.57q-.26-.05-.55-.05-.77 0-1.3.43t-.75 1.24v5.07H78v-7.4h.78l.02 1.18q.65-1.3 2.08-1.3.35 0 .54.08l-.02.74z"/><path d="M85.42 104.4q-.95 0-1.7-.45-.77-.47-1.2-1.3-.42-.83-.42-1.86v-.3q0-1.07.4-1.93.43-.85 1.17-1.34.73-.5 1.6-.5 1.34 0 2.13.93.8.92.8 2.5v.47h-5.3v.16q0 1.24.73 2.1.73.82 1.82.82.66 0 1.16-.24.5-.24.92-.77l.5.4q-.9 1.3-2.6 1.3zm-.15-6.96q-.93 0-1.56.67-.62.7-.76 1.83h4.44v-.1q-.04-1.05-.6-1.72-.58-.66-1.5-.66z"/><path d="M96.08 104.4q-.94 0-1.7-.45-.77-.47-1.2-1.3-.42-.83-.42-1.86v-.3q0-1.07.4-1.93.43-.85 1.17-1.34.74-.5 1.6-.5 1.35 0 2.13.93.8.92.8 2.5v.47h-5.28v.16q0 1.24.72 2.1.72.82 1.8.82.67 0 1.17-.24.5-.24.92-.77l.5.4q-.9 1.3-2.62 1.3zm-.15-6.96q-.92 0-1.56.67-.63.7-.76 1.83h4.44v-.1q-.03-1.05-.6-1.72-.58-.66-1.5-.66z"/><path d="M101.24 96.87l.03 1.27q.42-.68 1.04-1.04.63-.36 1.38-.36 1.2 0 1.77.67.58.68.6 2.02v4.85h-.82V99.4q0-.98-.43-1.47-.4-.48-1.32-.48-.76 0-1.34.48-.58.47-.86 1.27v5.07h-.82v-7.4h.78z"/><path d="M112.58 102.4q0-.62-.5-1-.48-.36-1.47-.56-.97-.2-1.52-.48-.54-.27-.8-.66-.26-.4-.26-.95 0-.87.73-1.44.73-.56 1.87-.56 1.24 0 1.98.6.75.62.75 1.6h-.82q0-.64-.54-1.08-.55-.43-1.38-.43-.8 0-1.3.37-.48.35-.48.93 0 .55.4.86.4.3 1.48.54 1.08.25 1.62.54.54.3.8.7t.26.97q0 .94-.76 1.5t-1.97.56q-1.3 0-2.1-.62t-.8-1.58h.82q.04.72.6 1.12.55.4 1.47.4.85 0 1.38-.38.53-.38.53-.95z"/><path d="M119.98 103.33q-.73 1.07-2.35 1.07-1.2 0-1.8-.68-.62-.7-.63-2.04v-4.8h.8v4.7q0 2.1 1.72 2.1 1.78 0 2.25-1.46v-5.35h.82v7.4h-.8l-.02-.94z"/><path d="M126.33 97.57q-.26-.05-.55-.05-.77 0-1.3.43t-.76 1.24v5.07h-.8v-7.4h.8v1.18q.65-1.3 2.1-1.3.33 0 .53.08l-.02.74z"/><path d="M130.34 104.4q-.94 0-1.7-.45-.77-.47-1.2-1.3-.4-.83-.4-1.86v-.3q0-1.07.4-1.93.4-.85 1.15-1.34.73-.5 1.6-.5 1.34 0 2.12.93.8.92.8 2.5v.47h-5.28v.16q0 1.24.72 2.1.72.82 1.82.82.65 0 1.15-.24.5-.24.92-.77l.5.4q-.9 1.3-2.6 1.3zm-.15-6.96q-.93 0-1.57.67-.63.7-.76 1.83h4.43v-.1q-.03-1.05-.6-1.72-.58-.66-1.5-.66z"/><path d="M139.15 102.4q0-.62-.5-1-.47-.36-1.46-.56-1-.2-1.54-.48-.54-.27-.8-.66-.27-.4-.27-.95 0-.87.72-1.44.74-.56 1.88-.56 1.24 0 1.98.6.75.62.75 1.6h-.82q0-.64-.53-1.08-.54-.43-1.37-.43-.8 0-1.3.37-.5.35-.5.93 0 .55.42.86.4.3 1.48.54 1.08.25 1.6.54.55.3.8.7t.27.97q0 .94-.76 1.5-.74.56-1.95.56-1.3 0-2.1-.62t-.8-1.58h.82q.05.72.6 1.12.56.4 1.48.4.85 0 1.38-.38.52-.38.52-.95z"/><path d="M147.96 103.72q.85 0 1.43-.48.57-.48.62-1.25h.78q-.03.67-.42 1.23-.4.55-1.04.87-.64.3-1.38.3-1.46 0-2.3-1-.86-1-.86-2.72v-.25q0-1.1.38-1.93.4-.84 1.1-1.3.7-.46 1.67-.46 1.22 0 2 .73.8.72.85 1.9h-.78q-.06-.87-.63-1.4-.58-.53-1.45-.53-1.1 0-1.72.8-.6.8-.6 2.24v.24q0 1.4.6 2.2.6.8 1.73.8z"/><path d="M152 100.46q0-1.07.4-1.92.42-.86 1.17-1.33.76-.47 1.72-.47 1.46 0 2.38 1.04.9 1.04.9 2.74v.2q0 1.06-.4 1.92-.4.85-1.16 1.32-.76.46-1.72.46-1.47 0-2.4-1.03-.9-1.04-.9-2.75v-.16zm.8.23q0 1.3.7 2.17.7.84 1.8.84t1.8-.83q.68-.86.68-2.25v-.16q0-.85-.3-1.55-.33-.7-.9-1.08-.56-.4-1.3-.4-1.1 0-1.78.87-.7.85-.7 2.24v.15z"/><path d="M161.07 96.87l.03 1.27q.4-.68 1.04-1.04.62-.36 1.37-.36 1.2 0 1.78.67.58.68.6 2.02v4.85h-.83V99.4q0-.98-.42-1.47-.4-.48-1.32-.48-.75 0-1.34.48-.58.47-.86 1.27v5.07h-.8v-7.4h.77z"/><path d="M169.24 94.98v1.9h1.54v.66h-1.54v4.93q0 .62.22.92.23.3.75.3.2 0 .67-.08l.04.67q-.32.1-.87.1-.84 0-1.22-.48-.38-.5-.38-1.44v-4.94h-1.36v-.67h1.36v-1.9h.82z"/><path d="M175.35 104.4q-.94 0-1.7-.45-.77-.47-1.2-1.3-.42-.83-.42-1.86v-.3q0-1.07.4-1.93.43-.85 1.17-1.34.74-.5 1.6-.5 1.35 0 2.13.93.8.92.8 2.5v.47h-5.28v.16q0 1.24.7 2.1.74.82 1.83.82.66 0 1.16-.24.5-.24.9-.77l.53.4q-.9 1.3-2.62 1.3zm-.15-6.96q-.92 0-1.56.67-.63.7-.77 1.83h4.44v-.1q-.02-1.05-.6-1.72-.57-.66-1.5-.66z"/><path d="M180.5 96.87l.04 1.27q.4-.68 1.04-1.04.62-.36 1.37-.36 1.2 0 1.77.67.58.68.6 2.02v4.85h-.82V99.4q0-.98-.43-1.47-.4-.48-1.32-.48-.76 0-1.34.48-.58.47-.86 1.27v5.07h-.8v-7.4h.77z"/><path d="M188.7 94.98v1.9h1.52v.66h-1.53v4.93q0 .62.2.92.23.3.75.3.2 0 .66-.08l.05.67q-.32.1-.88.1-.84 0-1.22-.48-.38-.5-.38-1.44v-4.94h-1.36v-.67h1.37v-1.9h.82z"/><path d="M200.1 103.33q-.74 1.07-2.36 1.07-1.18 0-1.8-.68-.6-.7-.62-2.04v-4.8h.8v4.7q0 2.1 1.72 2.1 1.78 0 2.25-1.46v-5.35h.8v7.4h-.78l-.02-.94z"/><path d="M203.8 96.87l.03 1.27q.42-.68 1.04-1.04.63-.36 1.38-.36 1.2 0 1.77.67.58.68.6 2.02v4.85h-.83V99.4q0-.98-.43-1.47-.4-.48-1.32-.48-.76 0-1.35.48-.58.47-.86 1.27v5.07h-.8v-7.4h.77z"/><path d="M211.63 104.27h-.82v-7.4h.83v7.4zm-.97-9.54q0-.23.15-.4.16-.15.42-.15t.4.16q.17.16.17.4t-.17.38q-.15.16-.4.16t-.42-.16-.14-.4z"/><path d="M213.53 100.5q0-1.74.76-2.75.77-1.02 2.1-1.02 1.5 0 2.28 1.14l.04-1h.76v10.24h-.82v-3.75q-.8 1.05-2.27 1.05-1.3 0-2.1-1.02t-.77-2.77v-.1zm.83.14q0 1.44.57 2.26.58.8 1.6.8 1.48 0 2.13-1.27V98.8q-.3-.65-.85-1-.53-.37-1.25-.37-1.03 0-1.6.82-.6.8-.6 2.4z"/><path d="M226.43 103.33q-.73 1.07-2.35 1.07-1.2 0-1.8-.68-.62-.7-.63-2.04v-4.8h.8v4.7q0 2.1 1.72 2.1 1.78 0 2.25-1.46v-5.35h.82v7.4h-.8v-.94z"/><path d="M232.22 104.4q-.94 0-1.7-.45-.76-.47-1.2-1.3-.4-.83-.4-1.86v-.3q0-1.07.4-1.93.42-.85 1.15-1.34.74-.5 1.6-.5 1.35 0 2.14.93.8.92.8 2.5v.47h-5.28v.16q0 1.24.72 2.1.72.82 1.82.82.65 0 1.15-.24.52-.24.93-.77l.5.4q-.9 1.3-2.6 1.3zm-.15-6.96q-.92 0-1.55.67-.63.7-.77 1.83h4.44v-.1q-.05-1.05-.62-1.72-.58-.66-1.5-.66z"/><path d="M237.38 96.87l.03 1.27q.43-.68 1.05-1.04.62-.36 1.38-.36 1.18 0 1.77.67.58.68.58 2.02v4.85h-.8V99.4q-.02-.98-.43-1.47-.4-.48-1.32-.48-.76 0-1.35.48-.58.47-.86 1.27v5.07h-.8v-7.4h.77z"/><path d="M247.15 104.4q-.94 0-1.7-.45-.76-.47-1.2-1.3-.4-.83-.4-1.86v-.3q0-1.07.4-1.93.42-.85 1.15-1.34.74-.5 1.6-.5 1.35 0 2.14.93.8.92.8 2.5v.47h-5.3v.16q0 1.24.73 2.1.72.82 1.82.82.64 0 1.14-.24.5-.24.92-.77l.5.4q-.9 1.3-2.6 1.3zm-.15-6.96q-.92 0-1.55.67-.63.7-.77 1.83h4.44v-.1q-.04-1.05-.6-1.72-.6-.66-1.52-.66z"/><path d="M255.97 102.4q0-.62-.5-1-.48-.36-1.47-.56-.98-.2-1.53-.48-.54-.27-.8-.66-.26-.4-.26-.95 0-.87.74-1.44.73-.56 1.87-.56 1.25 0 2 .6.75.62.75 1.6h-.83q0-.64-.54-1.08-.54-.43-1.37-.43-.8 0-1.3.37-.47.35-.47.93 0 .55.4.86.4.3 1.48.54 1.1.25 1.63.54.54.3.8.7t.26.97q0 .94-.77 1.5-.75.56-1.97.56-1.3 0-2.1-.62t-.8-1.58h.82q.05.72.6 1.12.56.4 1.48.4.85 0 1.38-.38.53-.38.53-.95z"/><path d="M263.05 102.4q0-.62-.5-1-.48-.36-1.46-.56-1-.2-1.54-.48-.54-.27-.8-.66-.27-.4-.27-.95 0-.87.72-1.44.73-.56 1.87-.56 1.23 0 1.98.6.75.62.75 1.6H263q0-.64-.54-1.08-.54-.43-1.37-.43-.8 0-1.3.37-.5.35-.5.93 0 .55.4.86.42.3 1.5.54 1.08.25 1.6.54.55.3.8.7.27.4.27.97 0 .94-.76 1.5-.74.56-1.96.56-1.3 0-2.1-.62t-.8-1.58h.82q.05.72.6 1.12.57.4 1.48.4.86 0 1.38-.38.53-.38.53-.95z"/><path d="M265.62 103.78q0-.24.15-.4.16-.17.43-.17t.43.18q.16.16.16.4t-.17.4q-.16.15-.43.15t-.43-.15q-.15-.16-.15-.4z"/><path d="M280 99.83q0 1.37-.48 2.4-.47 1.05-1.35 1.6-.88.57-2.04.57-1.74 0-2.82-1.24-1.06-1.25-1.06-3.37v-1.04q0-1.36.48-2.4.5-1.06 1.37-1.62.87-.56 2.02-.56t2.02.55q.88.55 1.36 1.57.48 1 .5 2.34v1.2zm-.84-1.08q0-1.8-.8-2.82-.83-1.02-2.24-1.02-1.4 0-2.22 1.04-.82 1.02-.82 2.85v1.03q0 1.77.82 2.8.82 1.04 2.23 1.04 1.43 0 2.23-1.02t.8-2.85v-1.05z"/><path d="M286.7 103.33q-.74 1.07-2.36 1.07-1.18 0-1.8-.68-.6-.7-.63-2.04v-4.8h.83v4.7q0 2.1 1.7 2.1 1.78 0 2.26-1.46v-5.35h.8v7.4h-.8v-.94z"/><path d="M293.04 97.57q-.26-.05-.55-.05-.78 0-1.3.43-.54.43-.76 1.24v5.07h-.82v-7.4h.8l.02 1.18q.64-1.3 2.08-1.3.34 0 .54.08l-.02.74z"/><path d="M54.84 123.72q.85 0 1.43-.48t.63-1.25h.78q-.03.67-.42 1.23-.4.55-1.04.87-.64.3-1.38.3-1.46 0-2.3-1-.86-1-.86-2.72v-.25q0-1.1.38-1.93.4-.84 1.1-1.3.72-.46 1.67-.46 1.22 0 2 .73.8.72.85 1.9h-.78q-.06-.87-.63-1.4-.57-.53-1.44-.53-1.1 0-1.72.8-.6.8-.6 2.24v.24q0 1.4.6 2.2.63.8 1.74.8z"/><path d="M60.24 124.27h-.82v-10.5h.82v10.5z"/><path d="M63.38 124.27h-.82v-7.4h.82v7.4zm-.96-9.54q0-.23.15-.4.15-.15.4-.15t.42.16q.15.16.15.4t-.16.38q-.16.16-.42.16t-.4-.16q-.16-.15-.16-.4z"/><path d="M68.48 124.4q-.95 0-1.7-.45-.77-.47-1.2-1.3-.42-.83-.42-1.86v-.3q0-1.07.4-1.93.43-.85 1.17-1.34.73-.5 1.6-.5 1.34 0 2.13.93.8.92.8 2.5v.47h-5.3v.16q0 1.24.73 2.1.72.82 1.8.82.67 0 1.17-.24.5-.24.9-.77l.52.4q-.9 1.3-2.62 1.3zm-.15-6.96q-.93 0-1.56.67-.63.7-.77 1.83h4.44v-.1q-.04-1.05-.6-1.72-.58-.66-1.5-.66z"/><path d="M73.64 116.87l.02 1.26q.42-.68 1.04-1.03.63-.37 1.38-.37 1.2 0 1.77.67.58.67.6 2v4.87h-.83v-4.86q0-1-.42-1.47-.4-.5-1.32-.5-.76 0-1.35.5-.58.46-.86 1.27v5.07h-.8v-7.4h.77z"/><path d="M81.8 114.98v1.9h1.54v.66H81.8v4.93q0 .62.23.92.23.3.75.3.2 0 .66-.08l.03.67q-.32.1-.87.1-.84 0-1.22-.48-.4-.5-.4-1.44v-4.94h-1.35v-.67H81v-1.9h.8z"/><path d="M89.48 122.4q0-.62-.5-1-.47-.36-1.46-.56-.98-.2-1.53-.48-.55-.27-.82-.66-.26-.4-.26-.95 0-.87.73-1.44.74-.56 1.88-.56 1.24 0 1.98.6.76.62.76 1.6h-.82q0-.64-.54-1.08-.54-.43-1.37-.43-.8 0-1.3.37-.5.35-.5.93 0 .55.42.86.4.3 1.48.54 1.08.25 1.6.54.55.3.8.7.27.4.27.97 0 .94-.76 1.5-.75.56-1.96.56-1.3 0-2.1-.62t-.8-1.58h.82q.05.72.6 1.12.56.4 1.48.4.85 0 1.38-.38.52-.38.52-.95z"/><path d="M95.22 120.5q0-1.74.77-2.75.76-1.02 2.08-1.02 1.5 0 2.3 1.2l.04-1.06h.77v7.25q0 1.42-.8 2.26-.8.83-2.18.83-.77 0-1.48-.34-.7-.34-1.1-.9l.46-.5q.87 1.06 2.06 1.06 1.03 0 1.6-.6.58-.6.6-1.68v-.93q-.8 1.1-2.3 1.1-1.28 0-2.06-1.02t-.78-2.77v-.1zm.83.14q0 1.42.57 2.24.57.8 1.6.8 1.5 0 2.14-1.34v-3.44q-.3-.7-.83-1.08-.54-.38-1.3-.38-1.03 0-1.6.82-.58.8-.58 2.38z"/><path d="M106.18 124.4q-.94 0-1.7-.45-.76-.47-1.2-1.3-.4-.83-.4-1.86v-.3q0-1.07.4-1.93.4-.85 1.15-1.34.74-.5 1.6-.5 1.35 0 2.14.93.8.92.8 2.5v.47h-5.3v.16q0 1.24.73 2.1.72.82 1.82.82.65 0 1.15-.24.5-.24.92-.77l.5.4q-.9 1.3-2.62 1.3zm-.15-6.96q-.92 0-1.56.67-.62.7-.76 1.83h4.44v-.1q-.03-1.05-.6-1.72-.58-.66-1.5-.66z"/><path d="M111.84 114.98v1.9h1.53v.66h-1.53v4.93q0 .62.22.92.22.3.74.3.2 0 .66-.08l.04.67q-.32.1-.88.1-.84 0-1.22-.48-.38-.5-.38-1.44v-4.94h-1.36v-.67h1.36v-1.9h.82z"/><path d="M118.04 120.46q0-1.07.4-1.92.43-.86 1.18-1.33.76-.47 1.72-.47 1.48 0 2.4 1.04.9 1.04.9 2.74v.2q0 1.06-.4 1.92-.42.85-1.17 1.32-.75.46-1.72.46-1.47 0-2.4-1.03-.9-1.04-.9-2.75v-.16zm.82.23q0 1.3.7 2.17.68.84 1.8.84 1.1 0 1.78-.83.7-.86.7-2.25v-.16q0-.85-.32-1.55-.3-.7-.88-1.08-.57-.4-1.3-.4-1.1 0-1.8.87-.68.85-.68 2.24v.15z"/><path d="M127.12 116.87l.03 1.26q.42-.68 1.04-1.03.6-.37 1.36-.37 1.2 0 1.77.67.58.67.6 2v4.87h-.82v-4.86q0-1-.42-1.47-.4-.5-1.32-.5-.75 0-1.34.5-.58.46-.86 1.27v5.07h-.82v-7.4h.78z"/><path d="M134.94 124.27h-.82v-10.5h.82v10.5z"/><path d="M139.5 123.1l2.18-6.23h.88l-3.16 8.65-.17.4q-.6 1.33-1.88 1.33-.3 0-.62-.1v-.67l.4.04q.6 0 .98-.3.4-.3.65-1.02l.36-1-2.78-7.33h.9l2.3 6.22z"/><path d="M150.9 124.27h-.8v-8.97l-2.72 1v-.76l3.4-1.26h.13v10z"/><path d="M160.87 120.12q0 2.1-.77 3.2t-2.28 1.1q-1.47 0-2.26-1.08-.8-1.07-.8-3.12v-1.78q0-2.1.77-3.18t2.28-1.08q1.48 0 2.26 1.05.78 1.03.8 3.06v1.82zm-.82-1.78q0-1.7-.56-2.6-.56-.86-1.7-.86-1.1 0-1.66.85-.56.86-.57 2.52v1.96q0 1.7.57 2.6.58.92 1.68.92t1.66-.9q.56-.87.57-2.57v-1.9z"/><path d="M168.64 120.12q0 2.1-.78 3.2-.77 1.1-2.27 1.1t-2.28-1.08q-.78-1.07-.8-3.12v-1.78q0-2.1.78-3.18t2.27-1.08q1.48 0 2.26 1.05.78 1.03.8 3.06v1.82zm-.82-1.78q0-1.7-.56-2.6-.56-.86-1.7-.86-1.1 0-1.65.85-.55.86-.57 2.52v1.96q0 1.7.58 2.6.6.92 1.7.92 1.08 0 1.64-.9.57-.87.58-2.57v-1.9z"/><path d="M170.2 116.23q0-.9.56-1.47.55-.6 1.4-.6.84 0 1.4.6.55.58.55 1.5v.5q0 .87-.54 1.46-.54.58-1.4.58-.83 0-1.4-.57-.55-.58-.55-1.52v-.47zm.67.53q0 .63.35 1.04.36.4.95.4.58 0 .92-.4.34-.4.34-1.07v-.5q0-.64-.35-1.05-.37-.4-.94-.4t-.93.4q-.36.4-.36 1.1v.48zm4.35 5.07q0-.9.55-1.47.55-.58 1.4-.58.83 0 1.4.58.55.57.55 1.52v.48q0 .9-.56 1.47-.54.58-1.4.58t-1.4-.56q-.54-.58-.54-1.5v-.5zm.66.53q0 .64.34 1.05.36.42.95.42.6 0 .93-.4.35-.42.35-1.1v-.5q0-.65-.35-1.04-.35-.4-.94-.4-.57 0-.93.4t-.35 1.08v.5zm-3.45 1.08l-.5-.33 4.85-7.77.5.33-4.85 7.78z"/><path d="M183.83 120.46q0-1.07.4-1.92.43-.86 1.18-1.33.77-.47 1.73-.47 1.47 0 2.4 1.04.9 1.04.9 2.74v.2q0 1.06-.4 1.92-.42.85-1.17 1.32-.75.46-1.72.46-1.47 0-2.4-1.03-.9-1.04-.9-2.75v-.16zm.82.23q0 1.3.7 2.17.68.84 1.8.84 1.1 0 1.78-.83.7-.86.7-2.25v-.16q0-.85-.32-1.55-.3-.7-.87-1.08-.57-.4-1.3-.4-1.1 0-1.8.87-.68.85-.68 2.24v.15z"/><path d="M195.55 117.57q-.26-.05-.55-.05-.77 0-1.3.43t-.75 1.24v5.07h-.82v-7.4h.8l.02 1.18q.64-1.3 2.08-1.3.34 0 .54.07l-.02.75z"/><path d="M197.75 124.27h-.82v-7.4h.82v7.4zm-.96-9.54q0-.23.14-.4.15-.15.4-.15.27 0 .42.16.16.16.16.4t-.16.38q-.15.16-.4.16t-.42-.16q-.15-.15-.15-.4z"/><path d="M199.65 120.5q0-1.74.77-2.75.77-1.02 2.1-1.02 1.5 0 2.3 1.2l.03-1.06h.76v7.25q0 1.42-.8 2.26-.8.83-2.15.83-.78 0-1.48-.34t-1.1-.9l.46-.5q.86 1.06 2.06 1.06 1.02 0 1.6-.6.56-.6.58-1.68v-.93q-.78 1.1-2.3 1.1-1.27 0-2.05-1.02t-.78-2.77v-.1zm.83.14q0 1.42.57 2.24.56.8 1.6.8 1.5 0 2.13-1.34v-3.44q-.28-.7-.82-1.08-.54-.38-1.3-.38-1.03 0-1.6.82-.58.8-.58 2.38z"/><path d="M208.66 124.27h-.82v-7.4h.82v7.4zm-.96-9.54q0-.23.15-.4.15-.15.4-.15t.42.16q.16.16.16.4t-.16.38q-.15.16-.4.16t-.42-.16q-.15-.15-.15-.4z"/><path d="M211.67 116.87l.03 1.26q.4-.68 1.04-1.03.62-.37 1.37-.37 1.2 0 1.78.67.58.67.6 2v4.87h-.83v-4.86q0-1-.42-1.47-.4-.5-1.32-.5-.75 0-1.34.5-.58.46-.86 1.27v5.07h-.8v-7.4h.77z"/><path d="M223.24 124.27q-.12-.35-.16-1.03-.43.56-1.1.87-.66.3-1.4.3-1.07 0-1.73-.6-.66-.58-.66-1.5 0-1.07.9-1.7.9-.63 2.5-.63h1.48v-.84q0-.8-.5-1.24-.48-.47-1.42-.47-.85 0-1.4.43-.57.44-.57 1.06h-.83q0-.9.82-1.53.8-.66 2-.66 1.24 0 1.95.62.72.6.74 1.72v3.5q0 1.07.22 1.6v.1h-.88zm-2.57-.6q.82 0 1.46-.38.65-.4.95-1.07v-1.63h-1.46q-1.23 0-1.92.45-.7.43-.7 1.2 0 .6.47 1.02.46.4 1.2.4z"/><path d="M226.98 124.27h-.82v-10.5h.82v10.5z"/><path d="M238.57 120.65q0 1.73-.76 2.75-.76 1-2.04 1-1.52 0-2.33-1.06v3.78h-.8v-10.24h.75l.04 1.04q.8-1.18 2.32-1.18 1.32 0 2.08 1 .75 1 .75 2.8v.1zm-.82-.14q0-1.4-.58-2.23-.58-.82-1.62-.82-.75 0-1.3.36-.53.38-.82 1.07v3.54q.3.65.85.98t1.3.34q1.02 0 1.6-.82.57-.83.57-2.4z"/><path d="M245.06 124.27q-.12-.35-.16-1.03-.43.56-1.1.87-.66.3-1.4.3-1.07 0-1.73-.6-.66-.58-.66-1.5 0-1.07.9-1.7.9-.63 2.5-.63h1.5v-.84q0-.8-.5-1.24-.48-.47-1.42-.47-.85 0-1.4.43-.57.44-.57 1.06h-.8q0-.9.8-1.53.83-.66 2.02-.66 1.24 0 1.95.62.72.6.74 1.72v3.5q0 1.07.24 1.6v.1h-.88zm-2.57-.6q.8 0 1.45-.38.65-.4.95-1.07v-1.63h-1.46q-1.23 0-1.92.45-.7.43-.7 1.2 0 .6.47 1.02.45.4 1.2.4z"/><path d="M253.83 120.65q0 1.73-.76 2.75-.77 1-2.05 1-1.52 0-2.33-1.06v3.78h-.82v-10.24h.76l.04 1.04q.8-1.18 2.32-1.18 1.32 0 2.07 1 .76 1 .76 2.8v.1zm-.82-.14q0-1.4-.57-2.23-.58-.82-1.62-.82-.74 0-1.28.36-.54.38-.83 1.07v3.54q.3.65.83.98.55.34 1.3.34 1.03 0 1.6-.82.58-.83.58-2.4z"/><path d="M258.5 124.4q-.93 0-1.7-.45-.75-.47-1.18-1.3-.42-.83-.42-1.86v-.3q0-1.07.4-1.93.43-.85 1.17-1.34.73-.5 1.6-.5 1.34 0 2.13.93.8.92.8 2.5v.47H256v.16q0 1.24.73 2.1.73.82 1.82.82.66 0 1.15-.24.5-.24.92-.77l.5.4q-.9 1.3-2.6 1.3zm-.14-6.96q-.92 0-1.55.67-.62.7-.76 1.83h4.44v-.1q-.04-1.05-.6-1.72-.6-.66-1.52-.66z"/><path d="M266.32 117.57q-.26-.05-.55-.05-.77 0-1.3.43t-.75 1.24v5.07h-.82v-7.4h.8l.02 1.18q.64-1.3 2.08-1.3.34 0 .54.07l-.02.75z"/><path d="M266.68 123.78q0-.24.15-.4.16-.17.43-.17t.43.18q.15.16.15.4t-.16.4q-.17.15-.44.15t-.43-.15q-.15-.16-.15-.4z"/></g></g></g></svg>