<svg xmlns="http://www.w3.org/2000/svg" width="320" height="120" viewBox="0 0 320.00001 120"><g><g fill="#666"><g><path d="M9.23 7.6H2.58v5.8h7.65v1.02H1.38V.2h8.8v1.03h-7.6V6.6h6.65v1z"/><path d="M20.8 10.92q0-1.18-.84-1.86-.83-.7-3.03-1.3-2.2-.63-3.23-1.37-1.44-1.04-1.44-2.72 0-1.63 1.34-2.65T17.03 0q1.42 0 2.53.55 1.13.55 1.74 1.53.62.97.62 2.17h-1.2q0-1.45-1-2.33-1-.9-2.7-.9-1.62 0-2.58.74-.97.73-.97 1.9 0 1.08.87 1.77.87.68 2.78 1.2 1.92.52 2.9 1.1 1 .55 1.5 1.33t.5 1.84q0 1.68-1.36 2.7-1.34 1.02-3.54 1.02-1.5 0-2.76-.54-1.25-.54-1.9-1.5-.65-.97-.65-2.22H13q0 1.5 1.13 2.37 1.13.87 3 .87 1.65 0 2.66-.73 1-.73 1-1.95z"/><path d="M32.63 10.92q0-1.18-.83-1.86-.83-.7-3.04-1.3-2.2-.63-3.22-1.37-1.44-1.04-1.44-2.72 0-1.63 1.33-2.65Q26.78 0 28.87 0q1.42 0 2.53.55 1.12.55 1.74 1.53.6.97.6 2.17h-1.2q0-1.45-1-2.33-1-.9-2.67-.9-1.63 0-2.6.74-.96.73-.96 1.9 0 1.08.88 1.77.86.68 2.78 1.2 1.9.52 2.9 1.1 1 .55 1.48 1.33.5.78.5 1.84 0 1.68-1.35 2.7-1.34 1.02-3.54 1.02-1.5 0-2.77-.54-1.26-.54-1.9-1.5-.65-.97-.65-2.22h1.2q0 1.5 1.12 2.37 1.12.87 3 .87 1.65 0 2.65-.73t1-1.95z"/><path d="M44.1 10.44h-6.46l-1.47 3.98h-1.25L40.3.2h1.14l5.38 14.22h-1.25l-1.48-3.98zM38 9.4h5.7l-2.84-7.73L38 9.4z"/><path d="M52.2 7.96L56.53.2h1.38L52.8 9.07v5.35h-1.22V9.07L46.46.2h1.42l4.3 7.76z"/></g><g><path d="M2.68 46.73l.3 1.55.38-1.48 2.16-7.33h.76l2.14 7.33.36 1.5.33-1.57 1.8-7.26h.87l-2.55 9.95h-.8l-2.26-7.78-.25-1-.24 1-2.3 7.78h-.82L0 39.47h.86l1.82 7.26z"/><path d="M16.48 42.72q-.26-.05-.55-.05-.77 0-1.3.43t-.75 1.24v5.08h-.82v-7.4h.8l.02 1.18q.65-1.3 2.08-1.3.34 0 .54.08l-.02.74z"/><path d="M18.68 49.42h-.82v-7.4h.82v7.4zm-.96-9.54q0-.23.15-.4.15-.15.4-.15t.42.16q.15.15.15.38t-.16.4q-.16.15-.42.15t-.4-.16-.16-.4z"/><path d="M22.18 40.13v1.9h1.53v.66H22.2v4.92q0 .62.22.92.23.3.75.3.2 0 .66-.07l.04.67q-.32.12-.87.12-.84 0-1.22-.5-.4-.48-.4-1.43V42.7H20V42h1.36v-1.9h.82z"/><path d="M26.34 49.42h-.82v-7.4h.82v7.4zm-.96-9.54q0-.23.15-.4.15-.15.4-.15t.42.16q.15.15.15.38t-.15.4q-.15.15-.4.15t-.42-.16-.15-.4z"/><path d="M29.35 42.02l.02 1.27q.42-.7 1.04-1.05.64-.36 1.4-.36 1.18 0 1.76.66.58.67.6 2v4.86h-.83v-4.86q0-1-.42-1.48-.4-.48-1.3-.48-.77 0-1.36.48-.58.47-.86 1.27v5.07h-.8v-7.4h.77z"/><path d="M35.92 45.65q0-1.73.77-2.75.76-1 2.08-1 1.5 0 2.3 1.2l.04-1.08h.76v7.25q0 1.43-.8 2.26-.8.84-2.16.84-.78 0-1.48-.35-.7-.34-1.1-.92l.46-.5q.87 1.08 2.06 1.08 1.03 0 1.6-.6.58-.6.6-1.7v-.92q-.8 1.1-2.3 1.1-1.28 0-2.06-1.03t-.78-2.77v-.1zm.83.15q0 1.4.57 2.23.56.82 1.6.82 1.5 0 2.14-1.36v-3.45q-.3-.7-.83-1.08-.54-.37-1.3-.37-1.03 0-1.6.8-.58.82-.58 2.4z"/><path d="M50.17 48.87q.85 0 1.43-.48.58-.5.63-1.26H53q-.02.67-.4 1.23-.4.56-1.05.87-.64.32-1.38.32-1.46 0-2.3-1.02-.86-1-.86-2.72v-.24q0-1.1.4-1.94.38-.84 1.1-1.3.7-.45 1.66-.45 1.22 0 2 .7.8.74.85 1.92h-.77q-.06-.87-.63-1.4-.57-.54-1.44-.54-1.1 0-1.72.8-.6.8-.6 2.25v.23q0 1.42.6 2.2.6.8 1.73.8z"/><path d="M59.32 49.42q-.12-.35-.16-1.03-.43.55-1.1.86-.66.3-1.4.3-1.07 0-1.73-.6-.66-.6-.66-1.5 0-1.08.9-1.7.9-.64 2.5-.64h1.5v-.84q0-.8-.5-1.24-.5-.46-1.43-.46-.85 0-1.4.43-.57.45-.57 1.07h-.82q0-.9.82-1.53.82-.65 2-.65 1.25 0 1.96.6.72.62.74 1.73v3.5q0 1.07.23 1.6v.1h-.88zm-2.57-.6q.82 0 1.46-.38.66-.4.96-1.06v-1.63H57.7q-1.23 0-1.92.45-.7.43-.7 1.2 0 .6.47 1.02.46.4 1.2.4z"/><path d="M62.92 42.02l.03 1.27q.42-.7 1.04-1.05.6-.36 1.37-.36 1.18 0 1.77.66.58.67.58 2v4.86h-.8v-4.86q-.02-1-.43-1.48-.42-.48-1.33-.48-.76 0-1.35.48-.58.47-.86 1.27v5.07h-.8v-7.4h.77z"/><path d="M79.2 45.8q0 1.73-.76 2.75-.77 1-2.06 1-1.55 0-2.34-1.14L74 49.43h-.76v-10.5h.8v4.18q.8-1.2 2.32-1.2 1.32 0 2.08 1t.76 2.77v.13zm-.82-.15q0-1.46-.57-2.25-.55-.8-1.6-.8-.77 0-1.32.4-.55.37-.83 1.12v3.33q.62 1.4 2.18 1.4 1 0 1.58-.8.58-.8.58-2.4z"/><path d="M83.88 49.56q-.95 0-1.7-.47-.77-.47-1.2-1.3-.42-.83-.42-1.87v-.3q0-1.06.4-1.9.43-.87 1.17-1.35.74-.5 1.6-.5 1.34 0 2.13.93.8.93.8 2.52v.46h-5.28v.15q0 1.26.7 2.1.74.84 1.83.84.67 0 1.17-.24.5-.24.9-.77l.53.4q-.9 1.3-2.62 1.3zm-.15-6.98q-.93 0-1.56.68t-.77 1.82h4.44v-.1q-.04-1.06-.6-1.73-.58-.67-1.5-.67z"/><path d="M96.35 49.42q-.13-.35-.16-1.03-.44.55-1.1.86-.67.3-1.42.3-1.07 0-1.73-.6-.66-.6-.66-1.5 0-1.08.9-1.7.9-.64 2.5-.64h1.48v-.84q0-.8-.5-1.24-.48-.46-1.4-.46-.87 0-1.43.43-.56.45-.56 1.07h-.83q0-.9.82-1.53.8-.65 2-.65 1.25 0 1.96.6.7.62.74 1.73v3.5q0 1.07.22 1.6v.1h-.87zm-2.57-.6q.82 0 1.46-.38.65-.4.94-1.06v-1.63h-1.46q-1.22 0-1.92.45-.7.43-.7 1.2 0 .6.47 1.02.47.4 1.2.4z"/><path d="M103.33 42.02l.03 1.2q.4-.66 1.03-1 .6-.33 1.35-.33 1.75 0 2.22 1.42.4-.7 1.06-1.06.67-.37 1.47-.37 2.38 0 2.42 2.58v4.94h-.82v-4.87q0-1-.43-1.47-.4-.48-1.36-.48-.88 0-1.48.57-.6.56-.68 1.36v4.9h-.82v-4.95q0-.95-.45-1.4-.44-.48-1.36-.48-.76 0-1.3.44-.57.44-.83 1.3v5.08h-.82v-7.4h.78z"/><path d="M115.9 49.42h-.8v-7.4h.8v7.4zm-.95-9.54q0-.23.15-.4.15-.15.4-.15.27 0 .42.16.16.15.16.38t-.16.4q-.15.15-.4.15-.27 0-.42-.16t-.15-.4z"/><path d="M118.92 42.02l.03 1.27q.42-.7 1.04-1.05.6-.36 1.36-.36 1.2 0 1.77.66.58.67.6 2v4.86h-.82v-4.86q0-1-.42-1.48-.4-.48-1.3-.48-.77 0-1.36.48-.58.47-.86 1.27v5.07h-.82v-7.4h.78z"/><path d="M125.5 45.65q0-1.72.77-2.74.77-1 2.1-1 1.5 0 2.27 1.17v-4.15h.82v10.5h-.77l-.04-.98q-.8 1.12-2.3 1.12-1.3 0-2.08-1.03t-.78-2.78v-.1zm.83.15q0 1.4.57 2.23.56.82 1.6.82 1.5 0 2.14-1.34v-3.46q-.63-1.44-2.13-1.44-1.02 0-1.6.8-.57.82-.57 2.4z"/><path d="M136.16 45.37h-3.27v-.7h3.26v.7z"/><path d="M138.42 42.02l.03 1.27q.42-.7 1.04-1.05.6-.36 1.36-.36 1.2 0 1.77.66.58.67.6 2v4.86h-.82v-4.86q0-1-.42-1.48-.4-.48-1.3-.48-.77 0-1.36.48-.58.47-.86 1.27v5.07h-.82v-7.4h.78z"/><path d="M150.08 48.48q-.74 1.08-2.36 1.08-1.18 0-1.8-.7-.6-.68-.62-2.02v-4.82h.8v4.7q0 2.13 1.72 2.13 1.78 0 2.25-1.47v-5.36h.82v7.4h-.8l-.02-.94z"/><path d="M153.75 42.02l.03 1.2q.4-.66 1.03-1 .62-.33 1.37-.33 1.75 0 2.22 1.42.4-.7 1.05-1.06.67-.37 1.47-.37 2.38 0 2.42 2.58v4.94h-.82v-4.87q0-1-.43-1.47-.42-.48-1.37-.48-.9 0-1.5.57-.6.56-.67 1.36v4.9h-.82v-4.95q0-.95-.45-1.4-.45-.48-1.37-.48-.77 0-1.32.44t-.8 1.3v5.08h-.83v-7.4h.78z"/><path d="M171.37 45.8q0 1.73-.76 2.75-.76 1-2.05 1-1.55 0-2.34-1.14l-.02 1.02h-.76v-10.5h.8v4.18q.8-1.2 2.32-1.2 1.3 0 2.07 1 .78 1 .78 2.77v.13zm-.82-.15q0-1.46-.56-2.25-.58-.8-1.6-.8-.8 0-1.35.4-.54.37-.82 1.12v3.33q.6 1.4 2.17 1.4 1 0 1.58-.8.57-.8.57-2.4z"/><path d="M174.1 49.42h-.82v-7.4h.82v7.4zm-.96-9.54q0-.23.15-.4.14-.15.4-.15t.4.16q.17.15.17.38t-.16.4q-.14.15-.4.15t-.4-.16-.16-.4z"/><path d="M177.1 42.02l.04 1.27q.42-.7 1.04-1.05.62-.36 1.37-.36 1.2 0 1.77.66.58.67.6 2v4.86h-.82v-4.86q0-1-.43-1.48-.4-.48-1.3-.48-.77 0-1.36.48-.57.47-.85 1.27v5.07h-.82v-7.4h.78z"/><path d="M183.7 45.65q0-1.73.76-2.75.77-1 2.1-1 1.5 0 2.3 1.2l.03-1.08h.75v7.25q0 1.43-.8 2.26-.8.84-2.16.84-.8 0-1.5-.35-.7-.34-1.1-.92l.47-.5q.87 1.08 2.06 1.08 1.03 0 1.6-.6.58-.6.6-1.7v-.92q-.8 1.1-2.3 1.1-1.28 0-2.06-1.03-.78-1.02-.78-2.77v-.1zm.82.15q0 1.4.57 2.23.55.82 1.6.82 1.5 0 2.13-1.36v-3.45q-.3-.7-.83-1.08-.54-.37-1.3-.37-1.03 0-1.6.8-.58.82-.58 2.4z"/><path d="M196.47 40.13v1.9H198v.66h-1.53v4.92q0 .62.22.92.22.3.74.3.2 0 .66-.07l.03.67q-.32.12-.87.12-.84 0-1.22-.5-.4-.48-.4-1.43V42.7h-1.35V42h1.35v-1.9h.82z"/><path d="M204.38 49.42q-.12-.35-.15-1.03-.43.55-1.1.86-.67.3-1.4.3-1.08 0-1.74-.6-.67-.6-.67-1.5 0-1.08.9-1.7.9-.64 2.5-.64h1.5v-.84q0-.8-.5-1.24-.5-.46-1.43-.46-.85 0-1.4.43-.57.45-.57 1.07h-.82q0-.9.83-1.53.82-.65 2.02-.65 1.23 0 1.94.6.7.62.73 1.73v3.5q0 1.07.23 1.6v.1h-.88zm-2.57-.6q.83 0 1.48-.38.65-.4.94-1.06v-1.63h-1.46q-1.23 0-1.92.45-.7.43-.7 1.2 0 .6.47 1.02.47.4 1.2.4z"/><path d="M211.63 47.54q0-.6-.5-.98-.47-.37-1.46-.57-.98-.22-1.53-.5-.54-.26-.8-.65-.27-.4-.27-.95 0-.87.73-1.44.74-.57 1.88-.57 1.24 0 1.98.6.75.6.75 1.6h-.8q0-.65-.55-1.1-.54-.42-1.37-.42-.8 0-1.3.37-.5.35-.5.93 0 .55.42.86.4.3 1.48.55 1.08.24 1.6.53.55.3.8.7.27.4.27.97 0 .94-.76 1.5t-1.97.56q-1.3 0-2.1-.63-.8-.62-.8-1.58h.82q.05.72.6 1.12.56.4 1.48.4.85 0 1.38-.38.53-.4.53-.96z"/><path d="M216.04 45.7l-.93.9v2.82h-.8v-10.5h.8v6.72l.78-.83 2.83-2.78h1.04l-3.14 3.12 3.4 4.28h-.96l-3-3.73z"/><path d="M221.07 48.93q0-.24.15-.4.16-.18.43-.18.28 0 .43.17.16.17.16.4t-.16.4q-.15.15-.43.15-.27 0-.43-.15-.15-.15-.15-.4z"/><path d="M233.57 44.77h-4.64v4.65h-.84v-9.95h6.16v.72h-5.33v3.85h4.64v.72z"/><path d="M235.2 45.6q0-1.05.4-1.9.42-.86 1.17-1.34.76-.47 1.72-.47 1.46 0 2.38 1.03.92 1.03.92 2.74v.17q0 1.07-.42 1.93-.4.86-1.16 1.32-.75.46-1.72.46-1.47 0-2.4-1.04-.9-1.03-.9-2.74v-.17zm.8.24q0 1.32.7 2.18.7.85 1.8.85t1.8-.85q.68-.86.68-2.25v-.16q0-.84-.3-1.54-.33-.7-.9-1.1-.56-.38-1.3-.38-1.1 0-1.78.87-.7.85-.7 2.24v.14z"/><path d="M246.9 42.72q-.26-.05-.55-.05-.77 0-1.3.43t-.75 1.24v5.08h-.8v-7.4h.78l.02 1.18q.65-1.3 2.08-1.3.35 0 .54.08l-.02.74z"/><path d="M254.47 49.56q-.94 0-1.7-.47t-1.2-1.3q-.4-.83-.4-1.87v-.3q0-1.06.4-1.9.4-.87 1.15-1.35.74-.5 1.6-.5 1.35 0 2.14.93.8.93.8 2.52v.46h-5.3v.15q0 1.26.73 2.1.7.84 1.8.84.66 0 1.16-.24.5-.24.92-.77l.5.4q-.9 1.3-2.6 1.3zm-.15-6.98q-.92 0-1.56.68-.62.68-.76 1.82h4.43v-.1q-.03-1.06-.6-1.73-.58-.67-1.5-.67z"/><path d="M262.27 42.72q-.26-.05-.55-.05-.77 0-1.3.43t-.75 1.24v5.08h-.8v-7.4h.78l.02 1.18q.65-1.3 2.08-1.3.35 0 .54.08l-.03.74z"/><path d="M266.97 42.72q-.26-.05-.55-.05-.77 0-1.3.43t-.75 1.24v5.08h-.8v-7.4h.78l.02 1.18q.65-1.3 2.08-1.3.35 0 .54.08l-.03.74z"/><path d="M267.67 45.6q0-1.05.4-1.9.43-.86 1.18-1.34.76-.47 1.72-.47 1.47 0 2.4 1.03.9 1.03.9 2.74v.17q0 1.07-.4 1.93-.42.86-1.17 1.32-.75.46-1.72.46-1.47 0-2.4-1.04-.9-1.03-.9-2.74v-.17zm.82.24q0 1.32.68 2.18.7.85 1.8.85t1.8-.85q.68-.86.68-2.25v-.16q0-.84-.3-1.54-.33-.7-.9-1.1-.56-.38-1.3-.38-1.1 0-1.78.87-.7.85-.7 2.24v.14z"/><path d="M279.4 42.72q-.27-.05-.56-.05-.77 0-1.3.43t-.75 1.24v5.08h-.82v-7.4h.8v1.18q.66-1.3 2.1-1.3.34 0 .53.08v.74z"/><path d="M283.22 45.37h-3.27v-.7h3.27v.7z"/><path d="M285.28 49.42V42.7h-1.22V42h1.22v-.9q0-1.13.58-1.74.58-.6 1.6-.6.48 0 .88.1l-.06.7q-.34-.1-.75-.1-.67 0-1.05.44-.38.4-.38 1.2v.9h1.77v.67h-1.77v6.72h-.82z"/><path d="M292.76 42.72q-.26-.05-.55-.05-.76 0-1.3.43-.52.43-.74 1.24v5.08h-.8v-7.4h.78l.02 1.18q.65-1.3 2.08-1.3.35 0 .54.08l-.02.74z"/><path d="M296.77 49.56q-.94 0-1.7-.47t-1.2-1.3q-.4-.83-.4-1.87v-.3q0-1.06.4-1.9.4-.87 1.15-1.35.74-.5 1.6-.5 1.35 0 2.14.93.8.93.8 2.52v.46h-5.3v.15q0 1.26.73 2.1.7.84 1.8.84.66 0 1.16-.24.5-.24.92-.77l.5.4q-.9 1.3-2.6 1.3zm-.15-6.98q-.92 0-1.56.68-.62.68-.76 1.82h4.43v-.1q-.03-1.06-.6-1.73-.58-.67-1.5-.67z"/><path d="M304.02 49.56q-.94 0-1.7-.47t-1.2-1.3q-.4-.83-.4-1.87v-.3q0-1.06.4-1.9.4-.87 1.15-1.35.74-.5 1.6-.5 1.35 0 2.14.93.8.93.8 2.52v.46h-5.28v.15q0 1.26.72 2.1.72.84 1.82.84.65 0 1.15-.24.52-.24.93-.77l.5.4q-.9 1.3-2.6 1.3zm-.15-6.98q-.92 0-1.56.68-.6.68-.75 1.82h4.43v-.1q-.03-1.06-.6-1.73-.58-.67-1.5-.67z"/><path d="M3.5 69.56q-.93 0-1.7-.47-.75-.47-1.18-1.3-.42-.83-.42-1.87v-.3q0-1.06.4-1.9.43-.87 1.16-1.35.74-.5 1.6-.5 1.35 0 2.14.93.8.93.8 2.52v.46H1v.15q0 1.26.73 2.1.72.84 1.82.84.65 0 1.15-.24.5-.24.92-.77l.5.4q-.9 1.3-2.6 1.3zm-.14-6.98q-.92 0-1.56.68-.62.68-.76 1.82h4.44v-.1q-.04-1.06-.6-1.73t-1.52-.67z"/><path d="M12.33 67.54q0-.6-.5-.98-.48-.37-1.47-.57-.98-.22-1.53-.5-.54-.26-.8-.65-.26-.4-.26-.95 0-.87.73-1.44t1.87-.57q1.24 0 1.98.6.75.6.75 1.6h-.82q0-.65-.54-1.1-.54-.42-1.37-.42-.8 0-1.3.37-.48.35-.48.93 0 .55.4.86.4.3 1.47.55 1.08.24 1.62.53.53.3.8.7.25.4.25.97 0 .94-.76 1.5-.77.56-1.98.56-1.3 0-2.1-.63-.8-.62-.8-1.58h.82q.05.72.6 1.12.56.4 1.48.4.85 0 1.38-.38.53-.4.53-.96z"/><path d="M19.4 67.54q0-.6-.5-.98-.47-.37-1.45-.57-1-.22-1.54-.5-.53-.26-.8-.65-.25-.4-.25-.95 0-.87.73-1.44t1.87-.57q1.24 0 1.98.6.76.6.76 1.6h-.83q0-.65-.55-1.1-.54-.42-1.37-.42-.8 0-1.3.37-.48.35-.48.93 0 .55.4.86.4.3 1.48.55 1.08.24 1.62.53.54.3.8.7t.26.97q0 .94-.76 1.5-.75.56-1.97.56-1.3 0-2.1-.63-.8-.62-.8-1.58h.82q.05.72.6 1.12.56.4 1.48.4.85 0 1.38-.38.53-.4.53-.96z"/><path d="M26.73 69.42q-.12-.35-.16-1.03-.43.55-1.1.86-.66.3-1.4.3-1.07 0-1.74-.6-.65-.6-.65-1.5 0-1.08.9-1.7.9-.64 2.5-.64h1.48v-.84q0-.8-.5-1.24-.47-.46-1.4-.46-.86 0-1.42.43-.56.45-.56 1.07h-.83q0-.9.83-1.53.82-.65 2-.65 1.25 0 1.96.6.72.62.74 1.73v3.5q0 1.07.22 1.6v.1h-.87zm-2.57-.6q.82 0 1.46-.38.65-.4.94-1.06v-1.63H25.1q-1.22 0-1.9.45-.7.43-.7 1.2 0 .6.46 1.02.46.4 1.2.4z"/><path d="M31.8 68.24l2.15-6.22h.88l-3.16 8.66-.16.38q-.6 1.35-1.87 1.35-.3 0-.63-.1v-.67l.42.05q.6 0 .97-.3.36-.3.62-1.02l.36-1-2.8-7.34h.9l2.3 6.22z"/><path d="M40.52 67.54q0-.6-.5-.98-.48-.37-1.46-.57-1-.22-1.54-.5-.54-.26-.8-.65-.26-.4-.26-.95 0-.87.73-1.44.72-.57 1.86-.57 1.24 0 1.98.6.76.6.76 1.6h-.82q0-.65-.55-1.1-.54-.42-1.37-.42-.8 0-1.3.37-.48.35-.48.93 0 .55.4.86.4.3 1.48.55 1.08.24 1.62.53.54.3.8.7t.26.97q0 .94-.76 1.5-.75.56-1.97.56-1.28 0-2.1-.63-.8-.62-.8-1.58h.83q.05.72.6 1.12.56.4 1.48.4.86 0 1.4-.38.52-.4.52-.96z"/><path d="M43 71.28l-.5-.36q.63-.83.66-1.73v-1.07h.8V69q0 1.4-.96 2.28z"/><path d="M50.08 63.27q.4-.66 1.03-1.02.64-.36 1.4-.36 1.18 0 1.76.66.58.67.58 2v4.86h-.8v-4.86q-.02-1-.43-1.48-.4-.48-1.3-.48-.77 0-1.36.48-.58.47-.86 1.27v5.07h-.8v-10.5h.8v4.35z"/><path d="M57.87 69.42h-.82v-7.4h.82v7.4zm-.97-9.54q0-.23.15-.4.15-.15.4-.15.27 0 .42.16.16.15.16.38t-.16.4q-.15.15-.4.15t-.42-.16-.15-.4z"/><path d="M63.5 62.72q-.25-.05-.54-.05-.77 0-1.3.43t-.75 1.24v5.08h-.8v-7.4h.8v1.18q.66-1.3 2.1-1.3.34 0 .53.08l-.02.74z"/><path d="M67.52 69.56q-.94 0-1.7-.47t-1.2-1.3q-.4-.83-.4-1.87v-.3q0-1.06.4-1.9.42-.87 1.16-1.35.73-.5 1.6-.5 1.34 0 2.13.93.8.93.8 2.52v.46h-5.28v.15q0 1.26.72 2.1.73.84 1.82.84.66 0 1.15-.24.52-.24.93-.77l.5.4q-.9 1.3-2.6 1.3zm-.15-6.98q-.92 0-1.55.68t-.77 1.82h4.44v-.1q-.05-1.06-.62-1.73-.58-.67-1.5-.67z"/><path d="M74.87 65.6q0-1.05.4-1.9.43-.86 1.18-1.34.76-.47 1.72-.47 1.48 0 2.4 1.03.9 1.03.9 2.74v.17q0 1.07-.4 1.93-.42.86-1.17 1.32-.75.46-1.72.46-1.47 0-2.4-1.04-.9-1.03-.9-2.74v-.17zm.82.24q0 1.32.68 2.18.7.85 1.8.85t1.8-.85q.68-.86.68-2.25v-.16q0-.84-.3-1.54-.32-.7-.9-1.1-.56-.38-1.3-.38-1.08 0-1.78.87-.7.85-.7 2.24v.14z"/><path d="M83.95 62.02l.03 1.27q.42-.7 1.04-1.05.62-.36 1.37-.36 1.18 0 1.76.66.58.67.6 2v4.86h-.82v-4.86q0-1-.43-1.48-.4-.48-1.3-.48-.76 0-1.35.48-.58.47-.86 1.27v5.07h-.83v-7.4h.78z"/><path d="M93.72 69.56q-.94 0-1.7-.47-.77-.47-1.2-1.3-.4-.83-.4-1.87v-.3q0-1.06.4-1.9.4-.87 1.15-1.35.74-.5 1.6-.5 1.35 0 2.13.93.8.93.8 2.52v.46h-5.28v.15q0 1.26.72 2.1.72.84 1.82.84.65 0 1.15-.24.52-.24.93-.77l.5.4q-.9 1.3-2.6 1.3zm-.15-6.98q-.92 0-1.56.68-.62.68-.75 1.82h4.43v-.1q-.03-1.06-.6-1.73-.58-.67-1.5-.67z"/><path d="M101.07 65.6q0-1.05.4-1.9.43-.86 1.18-1.34.76-.47 1.72-.47 1.47 0 2.4 1.03.9 1.03.9 2.74v.17q0 1.07-.4 1.93-.42.86-1.17 1.32-.75.46-1.72.46-1.47 0-2.4-1.04-.9-1.03-.9-2.74v-.17zm.82.24q0 1.32.68 2.18.7.85 1.8.85t1.8-.85q.68-.86.68-2.25v-.16q0-.84-.3-1.54-.33-.7-.9-1.1-.56-.38-1.3-.38-1.1 0-1.78.87-.7.85-.7 2.24v.14z"/><path d="M109.95 69.42V62.7h-1.22V62h1.22v-.9q0-1.13.58-1.74.58-.6 1.6-.6.48 0 .88.1l-.05.7q-.34-.1-.75-.1-.67 0-1.05.44-.38.4-.38 1.2v.9h1.77v.67h-1.77v6.72h-.82z"/><path d="M116.98 65.6q0-1.05.4-1.9.43-.86 1.18-1.34.76-.47 1.72-.47 1.47 0 2.4 1.03.9 1.03.9 2.74v.17q0 1.07-.4 1.93-.42.86-1.17 1.32-.74.46-1.7.46-1.48 0-2.4-1.04-.92-1.03-.92-2.74v-.17zm.82.24q0 1.32.7 2.18.68.85 1.8.85 1.1 0 1.78-.85.7-.86.7-2.25v-.16q0-.84-.32-1.54-.32-.7-.88-1.1-.57-.38-1.3-.38-1.1 0-1.8.87-.68.85-.68 2.24v.14z"/><path d="M130.04 68.48q-.74 1.08-2.36 1.08-1.18 0-1.8-.7-.6-.68-.62-2.02v-4.82h.8v4.7q0 2.13 1.72 2.13 1.78 0 2.25-1.47v-5.36h.82v7.4h-.8v-.94z"/><path d="M136.38 62.72q-.26-.05-.55-.05-.77 0-1.3.43t-.75 1.24v5.08h-.8v-7.4h.78l.02 1.18q.65-1.3 2.08-1.3.35 0 .54.08l-.02.74z"/><path d="M143.95 69.56q-.94 0-1.7-.47t-1.2-1.3q-.4-.83-.4-1.87v-.3q0-1.06.4-1.9.4-.87 1.15-1.35.74-.5 1.6-.5 1.35 0 2.14.93.8.93.8 2.52v.46h-5.3v.15q0 1.26.73 2.1.72.84 1.82.84.64 0 1.14-.24.5-.24.92-.77l.5.4q-.9 1.3-2.6 1.3zm-.15-6.98q-.92 0-1.56.68-.62.68-.76 1.82h4.43v-.1q-.02-1.06-.6-1.73-.57-.67-1.5-.67z"/><path d="M150.65 65.02l2-3h.97l-2.5 3.63 2.6 3.77h-.95l-2.1-3.13-2.1 3.12h-.97l2.6-3.77-2.5-3.63h.96l2 3z"/><path d="M161.1 65.8q0 1.73-.77 2.75-.77 1-2.05 1-1.52 0-2.33-1.06v3.76h-.8V62.02h.75l.04 1.05q.8-1.18 2.32-1.18 1.32 0 2.07 1 .76 1 .76 2.78v.12zm-.83-.15q0-1.4-.58-2.23-.6-.82-1.63-.82-.75 0-1.3.36-.53.36-.82 1.05v3.56q.3.64.84.97.54.34 1.3.34 1.02 0 1.6-.82.57-.83.57-2.4z"/><path d="M165.77 69.56q-.94 0-1.7-.47t-1.2-1.3q-.4-.83-.4-1.87v-.3q0-1.06.4-1.9.4-.87 1.15-1.35.74-.5 1.6-.5 1.35 0 2.14.93.8.93.8 2.52v.46h-5.3v.15q0 1.26.73 2.1.7.84 1.8.84.66 0 1.16-.24.5-.24.92-.77l.5.4q-.9 1.3-2.6 1.3zm-.15-6.98q-.92 0-1.56.68-.62.68-.76 1.82h4.43v-.1q-.03-1.06-.6-1.73-.58-.67-1.5-.67z"/><path d="M173.57 62.72q-.26-.05-.55-.05-.77 0-1.3.43t-.75 1.24v5.08h-.8v-7.4h.78l.02 1.18q.65-1.3 2.08-1.3.35 0 .54.08l-.03.74z"/><path d="M176.48 60.13v1.9H178v.66h-1.52v4.92q0 .62.22.92.23.3.75.3.2 0 .66-.07l.04.67q-.32.12-.87.12-.84 0-1.22-.5-.4-.48-.4-1.43V62.7h-1.35V62h1.36v-1.9h.82z"/><path d="M184.15 67.54q0-.6-.5-.98-.47-.37-1.46-.57-1-.22-1.54-.5-.54-.26-.8-.65-.27-.4-.27-.95 0-.87.72-1.44.74-.57 1.88-.57 1.24 0 1.98.6.75.6.75 1.6h-.82q0-.65-.53-1.1-.54-.42-1.37-.42-.8 0-1.3.37-.5.35-.5.93 0 .55.42.86.4.3 1.48.55 1.08.24 1.6.53.55.3.8.7.27.4.27.97 0 .94-.76 1.5-.74.56-1.95.56-1.3 0-2.1-.63-.8-.62-.8-1.58h.82q.05.72.6 1.12.56.4 1.48.4.85 0 1.38-.38.52-.4.52-.96z"/><path d="M186.73 68.93q0-.24.15-.4.16-.18.43-.18.3 0 .44.17.16.17.16.4t-.16.4q-.15.15-.43.15-.26 0-.42-.15-.15-.15-.15-.4z"/><path d="M197.08 60.19l-3.4-.02v9.24h-.85v-9.24h-3.4v-.7h7.65v.7z"/><path d="M199.32 63.27q.4-.66 1.04-1.02.62-.36 1.37-.36 1.2 0 1.77.66.58.67.6 2v4.86h-.83v-4.86q0-1-.42-1.48-.4-.48-1.32-.48-.76 0-1.35.48-.58.47-.86 1.27v5.07h-.8v-10.5h.8v4.35z"/><path d="M209.05 69.56q-.94 0-1.7-.47t-1.2-1.3q-.4-.83-.4-1.87v-.3q0-1.06.4-1.9.4-.87 1.15-1.35.74-.5 1.6-.5 1.35 0 2.14.93.8.93.8 2.52v.46h-5.3v.15q0 1.26.73 2.1.72.84 1.82.84.64 0 1.14-.24.5-.24.92-.77l.5.4q-.9 1.3-2.6 1.3zm-.15-6.98q-.92 0-1.56.68-.62.68-.76 1.82H211v-.1q-.02-1.06-.6-1.73-.57-.67-1.5-.67z"/><path d="M215.7 68.24l2.16-6.22h.9l-3.17 8.66-.18.38q-.6 1.35-1.88 1.35-.3 0-.63-.1v-.67l.43.05q.6 0 .97-.3.38-.3.64-1.02l.36-1-2.8-7.34h.9l2.3 6.22z"/><path d="M225.2 67.72l.12.63.16-.67 1.78-5.66h.7l1.75 5.62.2.78.16-.72 1.52-5.68h.85l-2.16 7.4h-.7l-1.9-5.86-.1-.4-.08.4-1.88 5.86h-.7l-2.14-7.4h.84l1.56 5.7z"/><path d="M234.9 69.42h-.83v-7.4h.82v7.4zm-.97-9.54q0-.23.15-.4.15-.15.4-.15t.42.16q.16.15.16.38t-.16.4q-.15.15-.4.15t-.42-.16-.15-.4z"/><path d="M238.03 69.42h-.82v-10.5h.83v10.5z"/><path d="M241.18 69.42h-.82v-10.5h.82v10.5z"/><path d="M248.6 67.72l.12.63.16-.67 1.78-5.66h.7l1.75 5.62.2.78.16-.72 1.52-5.68h.85l-2.16 7.4h-.7l-1.9-5.86-.1-.4-.08.4-1.87 5.86h-.7l-2.14-7.4h.83l1.56 5.7z"/><path d="M260.8 62.72q-.27-.05-.56-.05-.77 0-1.3.43t-.75 1.24v5.08h-.82v-7.4h.8v1.18q.66-1.3 2.1-1.3.34 0 .53.08v.74z"/><path d="M263 69.42h-.82v-7.4h.82v7.4zm-.96-9.54q0-.23.15-.4.14-.15.4-.15t.4.16q.17.15.17.38t-.16.4q-.14.15-.4.15t-.4-.16-.16-.4z"/><path d="M266.5 60.13v1.9h1.53v.66h-1.53v4.92q0 .62.22.92.23.3.75.3.2 0 .66-.07l.03.67q-.32.12-.87.12-.85 0-1.23-.5-.4-.48-.4-1.43V62.7h-1.35V62h1.36v-1.9h.82z"/><path d="M272.6 69.56q-.94 0-1.7-.47t-1.2-1.3q-.4-.83-.4-1.87v-.3q0-1.06.4-1.9.4-.87 1.15-1.35.74-.5 1.6-.5 1.35 0 2.14.93.78.93.78 2.52v.46h-5.28v.15q0 1.26.72 2.1.72.84 1.82.84.65 0 1.15-.24.5-.24.9-.77l.52.4q-.9 1.3-2.62 1.3zm-.15-6.98q-.92 0-1.56.68-.63.68-.77 1.82h4.43v-.1q-.03-1.06-.6-1.73-.58-.67-1.5-.67z"/><path d="M285.07 69.42q-.12-.35-.15-1.03-.43.55-1.1.86-.67.3-1.4.3-1.08 0-1.74-.6-.66-.6-.66-1.5 0-1.08.9-1.7.9-.64 2.5-.64h1.5v-.84q0-.8-.5-1.24-.5-.46-1.43-.46-.86 0-1.42.43-.56.45-.56 1.07h-.82q0-.9.82-1.53.82-.65 2.02-.65 1.23 0 1.94.6.72.62.74 1.73v3.5q0 1.07.23 1.6v.1h-.88zm-2.57-.6q.82 0 1.47-.38.65-.4.94-1.06v-1.63h-1.45q-1.23 0-1.92.45-.7.43-.7 1.2 0 .6.47 1.02.46.4 1.2.4z"/><path d="M2.42 87.72l.12.63.17-.67 1.78-5.66h.7l1.76 5.62.2.78.15-.72 1.5-5.68h.85l-2.15 7.4h-.7l-1.9-5.86-.1-.4-.08.4-1.86 5.86h-.7L0 82.02h.85l1.57 5.7z"/><path d="M12.12 89.42h-.82v-7.4h.82v7.4zm-.96-9.54q0-.23.15-.4.16-.15.42-.15t.4.16q.16.15.16.38t-.15.4q-.15.15-.4.15t-.42-.16-.14-.4z"/><path d="M15.13 82.02l.03 1.27q.4-.7 1.03-1.05.62-.36 1.37-.36 1.2 0 1.77.66.58.67.6 2v4.86h-.83v-4.86q0-1-.4-1.48-.42-.48-1.33-.48-.76 0-1.35.48-.58.47-.86 1.27v5.07h-.8v-7.4h.77z"/><path d="M22.8 82.02l.04 1.27q.42-.7 1.04-1.05.62-.36 1.37-.36 1.2 0 1.77.66.58.67.6 2v4.86h-.82v-4.86q0-1-.43-1.48-.4-.48-1.32-.48-.75 0-1.34.48-.57.47-.85 1.27v5.07h-.82v-7.4h.78z"/><path d="M30.63 89.42h-.82v-7.4h.83v7.4zm-.96-9.54q0-.23.15-.4.15-.15.4-.15.27 0 .42.16.16.15.16.38t-.16.4q-.15.15-.4.15t-.42-.16-.15-.4z"/><path d="M33.64 82.02l.03 1.27q.4-.7 1.04-1.05.63-.36 1.38-.36 1.2 0 1.77.66.58.67.6 2v4.86h-.82v-4.86q0-1-.43-1.48-.4-.48-1.32-.48-.76 0-1.34.48-.6.47-.87 1.27v5.07h-.8v-7.4h.77z"/><path d="M40.22 85.65q0-1.73.76-2.75.77-1 2.1-1 1.5 0 2.3 1.2L45.4 82h.78v7.25q0 1.43-.8 2.26-.8.84-2.17.84-.76 0-1.47-.35-.7-.34-1.1-.92l.46-.5q.86 1.08 2.06 1.08 1.02 0 1.6-.6.57-.6.6-1.7v-.92q-.8 1.1-2.3 1.1-1.3 0-2.06-1.03t-.78-2.77v-.1zm.82.15q0 1.4.57 2.23.58.82 1.6.82 1.52 0 2.15-1.36v-3.45q-.3-.7-.83-1.08-.54-.37-1.3-.37-1.03 0-1.6.8-.58.82-.58 2.4z"/><path d="M57.67 85.8q0 1.73-.76 2.75-.76 1-2.04 1-1.52 0-2.33-1.06v3.76h-.8V82.02h.75l.04 1.05q.8-1.18 2.32-1.18 1.32 0 2.08 1 .75 1 .75 2.78v.12zm-.82-.15q0-1.4-.58-2.23-.58-.82-1.62-.82-.75 0-1.3.36-.53.36-.82 1.05v3.56q.3.64.85.97t1.3.34q1.02 0 1.6-.82.57-.83.57-2.4z"/><path d="M60.4 89.42h-.8v-7.4h.8v7.4zm-.95-9.54q0-.23.15-.4.15-.15.4-.15.27 0 .42.16.15.15.15.38t-.15.4q-.15.15-.4.15t-.42-.16-.15-.4z"/><path d="M65.5 89.56q-.94 0-1.7-.47-.77-.47-1.2-1.3-.4-.83-.4-1.87v-.3q0-1.06.4-1.9.4-.87 1.15-1.35.74-.5 1.6-.5 1.35 0 2.13.93.8.93.8 2.52v.46H63v.15q0 1.26.72 2.1.72.84 1.82.84.65 0 1.15-.24.5-.24.9-.77l.52.4q-.9 1.3-2.62 1.3zm-.15-6.98q-.92 0-1.56.68t-.77 1.82h4.43v-.1q-.03-1.06-.6-1.73-.58-.67-1.5-.67z"/><path d="M72.62 88.87q.85 0 1.43-.48.58-.5.63-1.26h.78q-.03.67-.42 1.23-.4.56-1.04.87-.64.32-1.38.32-1.46 0-2.3-1.02-.86-1-.86-2.72v-.24q0-1.1.38-1.94.4-.84 1.1-1.3.7-.45 1.67-.45 1.23 0 2 .7.8.74.86 1.92h-.78q-.06-.87-.63-1.4-.57-.54-1.44-.54-1.1 0-1.7.8-.62.8-.62 2.25v.23q0 1.42.6 2.2.62.8 1.74.8z"/><path d="M79.97 89.56q-.95 0-1.7-.47-.77-.47-1.2-1.3-.42-.83-.42-1.87v-.3q0-1.06.4-1.9.43-.87 1.17-1.35.74-.5 1.6-.5 1.34 0 2.13.93.8.93.8 2.52v.46h-5.28v.15q0 1.26.7 2.1.74.84 1.83.84.66 0 1.16-.24.5-.24.9-.77l.53.4q-.92 1.3-2.63 1.3zm-.15-6.98q-.93 0-1.56.68t-.77 1.82h4.43v-.1q-.04-1.06-.6-1.73-.58-.67-1.5-.67z"/><path d="M89.04 80.13v1.9h1.53v.66h-1.53v4.92q0 .62.22.92.22.3.74.3.2 0 .66-.07l.04.67q-.32.12-.88.12-.84 0-1.22-.5-.38-.48-.38-1.43V82.7h-1.36V82h1.36v-1.9h.82z"/><path d="M93.1 83.27q.4-.66 1.02-1.02.63-.36 1.38-.36 1.2 0 1.77.66.58.67.6 2v4.86h-.83v-4.86q0-1-.42-1.48-.4-.48-1.32-.48-.76 0-1.35.48-.58.47-.86 1.27v5.07h-.82v-10.5h.8v4.35z"/><path d="M104.63 89.42q-.12-.35-.15-1.03-.43.55-1.1.86-.67.3-1.4.3-1.08 0-1.74-.6-.66-.6-.66-1.5 0-1.08.9-1.7.9-.64 2.5-.64h1.5v-.84q0-.8-.5-1.24-.5-.46-1.43-.46-.85 0-1.4.43-.57.45-.57 1.07h-.82q0-.9.82-1.53.82-.65 2.02-.65 1.23 0 1.94.6.72.62.74 1.73v3.5q0 1.07.23 1.6v.1h-.87zm-2.57-.6q.82 0 1.47-.38.65-.4.94-1.06v-1.63H103q-1.22 0-1.9.45-.7.43-.7 1.2 0 .6.46 1.02.46.4 1.2.4z"/><path d="M108.72 80.13v1.9h1.53v.66h-1.53v4.92q0 .62.22.92.23.3.75.3.2 0 .65-.07l.03.67q-.32.12-.87.12-.83 0-1.2-.5-.4-.48-.4-1.43V82.7h-1.36V82h1.36v-1.9h.82z"/><path d="M116.13 82.02l.03 1.2q.4-.66 1.03-1 .6-.33 1.35-.33 1.75 0 2.22 1.42.4-.7 1.06-1.06.67-.37 1.47-.37 2.38 0 2.42 2.58v4.94h-.82v-4.87q0-1-.43-1.47-.4-.48-1.36-.48-.88 0-1.48.57-.6.56-.68 1.36v4.9h-.82v-4.95q0-.95-.45-1.4-.44-.48-1.36-.48-.76 0-1.3.44-.57.44-.83 1.3v5.08h-.82v-7.4h.78z"/><path d="M130.66 89.56q-.94 0-1.7-.47t-1.2-1.3q-.4-.83-.4-1.87v-.3q0-1.06.4-1.9.4-.87 1.15-1.35.75-.5 1.6-.5 1.36 0 2.15.93.8.93.8 2.52v.46h-5.3v.15q0 1.26.73 2.1.72.84 1.82.84.65 0 1.15-.24.5-.24.92-.77l.5.4q-.9 1.3-2.6 1.3zm-.15-6.98q-.9 0-1.55.68-.62.68-.76 1.82h4.42v-.1q-.03-1.06-.6-1.73-.58-.67-1.5-.67z"/><path d="M137.9 89.56q-.93 0-1.7-.47-.75-.47-1.18-1.3-.42-.83-.42-1.87v-.3q0-1.06.4-1.9.42-.87 1.16-1.35.74-.5 1.6-.5 1.35 0 2.14.93.8.93.8 2.52v.46h-5.3v.15q0 1.26.73 2.1.72.84 1.82.84.65 0 1.15-.24.5-.24.92-.77l.5.4q-.9 1.3-2.6 1.3zm-.14-6.98q-.92 0-1.56.68-.62.68-.76 1.82h4.43v-.1q-.03-1.06-.6-1.73-.58-.67-1.5-.67z"/><path d="M143.56 80.13v1.9h1.53v.66h-1.54v4.92q0 .62.22.92.23.3.75.3.2 0 .66-.07l.02.67q-.32.12-.87.12-.84 0-1.22-.5-.4-.48-.4-1.43V82.7h-1.35V82h1.36v-1.9h.82z"/><path d="M151.23 87.54q0-.6-.5-.98-.47-.37-1.46-.57-.98-.22-1.53-.5-.54-.26-.8-.65-.27-.4-.27-.95 0-.87.73-1.44.74-.57 1.88-.57 1.24 0 1.98.6.75.6.75 1.6h-.8q0-.65-.55-1.1-.54-.42-1.37-.42-.8 0-1.3.37-.5.35-.5.93 0 .55.42.86.4.3 1.48.55 1.08.24 1.6.53.55.3.8.7.27.4.27.97 0 .94-.76 1.5t-1.97.56q-1.3 0-2.1-.63-.8-.62-.8-1.58h.82q.05.72.6 1.12.56.4 1.48.4.85 0 1.38-.38.53-.4.53-.96z"/><path d="M161.97 89.42q-.12-.35-.15-1.03-.43.55-1.1.86-.67.3-1.4.3-1.08 0-1.74-.6-.66-.6-.66-1.5 0-1.08.9-1.7.9-.64 2.5-.64h1.5v-.84q0-.8-.5-1.24-.5-.46-1.43-.46-.86 0-1.42.43-.56.45-.56 1.07h-.82q0-.9.82-1.53.82-.65 2.02-.65 1.23 0 1.94.6.72.62.74 1.73v3.5q0 1.07.23 1.6v.1h-.88zm-2.57-.6q.82 0 1.47-.38.65-.4.94-1.06v-1.63h-1.45q-1.23 0-1.92.45-.7.43-.7 1.2 0 .6.47 1.02.46.4 1.2.4z"/><path d="M165.7 89.42h-.8v-10.5h.8v10.5z"/><path d="M168.85 89.42h-.82v-10.5h.82v10.5z"/><path d="M176.84 88.24l2.16-6.22h.9l-3.17 8.66-.17.38q-.6 1.35-1.88 1.35-.3 0-.63-.1v-.67l.42.05q.6 0 .97-.3.38-.3.64-1.02l.36-1-2.8-7.34h.9l2.3 6.22z"/><path d="M180.58 85.6q0-1.05.4-1.9.43-.86 1.18-1.34.76-.47 1.72-.47 1.47 0 2.4 1.03.9 1.03.9 2.74v.17q0 1.07-.4 1.93-.42.86-1.17 1.32-.74.46-1.7.46-1.48 0-2.4-1.04-.92-1.03-.92-2.74v-.17zm.82.24q0 1.32.7 2.18.68.85 1.8.85 1.1 0 1.78-.85.7-.86.7-2.25v-.16q0-.84-.32-1.54-.32-.7-.88-1.1-.57-.38-1.3-.38-1.1 0-1.8.87-.68.85-.68 2.24v.14z"/><path d="M193.64 88.48q-.74 1.08-2.36 1.08-1.18 0-1.8-.7-.6-.68-.62-2.02v-4.82h.8v4.7q0 2.13 1.72 2.13 1.78 0 2.25-1.47v-5.36h.82v7.4h-.8v-.94z"/><path d="M199.98 82.72q-.26-.05-.55-.05-.77 0-1.3.43t-.75 1.24v5.08h-.8v-7.4h.78l.02 1.18q.65-1.3 2.08-1.3.35 0 .54.08l-.02.74z"/><path d="M204.36 85.65q0-1.72.77-2.74.77-1 2.1-1 1.5 0 2.27 1.17v-4.15h.82v10.5h-.77l-.03-.98q-.8 1.12-2.3 1.12-1.3 0-2.08-1.03t-.78-2.78v-.1zm.83.15q0 1.4.56 2.23.56.82 1.6.82 1.5 0 2.14-1.34v-3.46q-.63-1.44-2.13-1.44-1.03 0-1.6.8-.58.82-.58 2.4z"/><path d="M215.34 89.56q-.94 0-1.7-.47t-1.2-1.3q-.4-.83-.4-1.87v-.3q0-1.06.4-1.9.4-.87 1.15-1.35.73-.5 1.6-.5 1.34 0 2.13.93.8.93.8 2.52v.46h-5.3v.15q0 1.26.73 2.1.72.84 1.82.84.65 0 1.15-.24.5-.24.92-.77l.5.4q-.9 1.3-2.6 1.3zm-.15-6.98q-.93 0-1.57.68-.62.68-.76 1.82h4.43v-.1q-.03-1.06-.6-1.73-.58-.67-1.5-.67z"/><path d="M220.47 82.02l.03 1.2q.4-.66 1.03-1 .6-.33 1.36-.33 1.74 0 2.2 1.42.4-.7 1.07-1.06.67-.37 1.47-.37 2.38 0 2.42 2.58v4.94h-.82v-4.87q0-1-.43-1.47-.4-.48-1.35-.48-.9 0-1.5.57-.6.56-.67 1.36v4.9h-.82v-4.95q0-.95-.45-1.4-.43-.48-1.35-.48-.77 0-1.32.44-.56.44-.82 1.3v5.08h-.8v-7.4h.77z"/><path d="M236.8 89.42q-.1-.35-.14-1.03-.43.55-1.1.86-.67.3-1.4.3-1.08 0-1.74-.6-.66-.6-.66-1.5 0-1.08.9-1.7.9-.64 2.5-.64h1.5v-.84q0-.8-.5-1.24-.5-.46-1.43-.46-.85 0-1.4.43-.57.45-.57 1.07h-.82q0-.9.82-1.53.82-.65 2.02-.65 1.23 0 1.94.6.72.62.74 1.73v3.5q0 1.07.23 1.6v.1h-.9zm-2.56-.6q.82 0 1.47-.38.66-.4.95-1.06v-1.63h-1.46q-1.24 0-1.93.45-.7.43-.7 1.2 0 .6.47 1.02.46.4 1.2.4z"/><path d="M240.4 82.02l.04 1.27q.42-.7 1.04-1.05.62-.36 1.37-.36 1.2 0 1.77.66.58.67.6 2v4.86h-.82v-4.86q0-1-.43-1.48-.4-.48-1.3-.48-.77 0-1.36.48-.57.47-.85 1.27v5.07h-.82v-7.4h.78z"/><path d="M247 85.65q0-1.72.76-2.74.77-1 2.1-1 1.5 0 2.27 1.17v-4.15h.82v10.5h-.77l-.03-.98q-.8 1.12-2.3 1.12-1.3 0-2.08-1.03t-.78-2.78v-.1zm.82.15q0 1.4.57 2.23.55.82 1.6.82 1.5 0 2.13-1.34v-3.46q-.63-1.44-2.13-1.44-1.03 0-1.6.8-.58.82-.58 2.4z"/><path d="M259.54 87.54q0-.6-.5-.98-.47-.37-1.46-.57-.98-.22-1.53-.5-.54-.26-.8-.65-.27-.4-.27-.95 0-.87.73-1.44.75-.57 1.9-.57 1.23 0 1.97.6.75.6.75 1.6h-.82q0-.65-.54-1.1-.54-.42-1.37-.42-.82 0-1.3.37-.5.35-.5.93 0 .55.4.86.42.3 1.5.55 1.07.24 1.6.53.54.3.8.7.26.4.26.97 0 .94-.76 1.5-.75.56-1.96.56-1.3 0-2.1-.63-.8-.62-.8-1.58h.82q.05.72.6 1.12.56.4 1.48.4.85 0 1.38-.38.52-.4.52-.96z"/><path d="M262.1 88.93q0-.24.16-.4.16-.18.43-.18t.42.17q.16.17.16.4t-.16.4q-.15.15-.43.15t-.44-.15q-.15-.15-.15-.4z"/></g></g></g></svg>