<svg xmlns="http://www.w3.org/2000/svg" width="320" height="120" viewBox="0 0 320.00001 120"><g><g fill="#666"><g><path d="M9.18 10.44H2.72l-1.46 3.98H0L5.38.2h1.14l5.38 14.22h-1.25l-1.47-3.98zM3.1 9.4h5.7L5.95 1.68 3.1 9.4z"/><path d="M19.32 8.5H15.2v5.92h-1.23V.2h4.62q2.27 0 3.55 1.1t1.28 3.1q0 1.36-.8 2.4t-2.15 1.45l3.55 6.04v.12h-1.28L19.32 8.5zM15.2 7.48h3.67q1.5 0 2.43-.86.92-.86.92-2.23 0-1.5-.96-2.34-.96-.83-2.7-.83H15.2v6.25z"/><path d="M36.96 12.73q-.62.9-1.96 1.4-1.33.5-2.98.5-1.67 0-2.97-.82-1.3-.8-2-2.25-.72-1.47-.73-3.36V6.4q0-2.97 1.5-4.67Q29.3 0 31.8 0q2.2 0 3.54 1.13 1.34 1.1 1.6 3.08h-1.2q-.27-1.56-1.3-2.36-1-.8-2.62-.8-2 0-3.16 1.4-1.16 1.42-1.16 4v1.68q0 1.62.55 2.87.55 1.23 1.58 1.92 1.03.68 2.37.68 1.55 0 2.67-.5.7-.3 1.06-.74V8.7h-3.82V7.66h5.02v5.06z"/><path d="M50.17.2v9.7q0 1.44-.64 2.5-.62 1.07-1.77 1.65-1.13.57-2.6.57-2.25 0-3.6-1.23-1.35-1.24-1.4-3.4V.2h1.2v9.62q0 1.8 1 2.8 1.04.98 2.8.98t2.77-1q1.03-1 1.03-2.77V.2h1.2z"/><path d="M55.13.2l5.24 12.55L65.63.2h1.6v14.22h-1.2v-6.2l.1-6.34-5.3 12.54h-.92l-5.26-12.5.1 6.27v6.22h-1.2V.2h1.6z"/><path d="M78.7 7.6h-6.66v5.8h7.65v1.02h-8.86V.2h8.8v1.03h-7.6V6.6h6.65v1z"/><path d="M92.8 14.42h-1.2L83.4 2.25v12.17h-1.2V.2h1.2l8.18 12.18V.2h1.2v14.22z"/><path d="M105.8 1.23h-4.88v13.2h-1.2V1.22h-4.86V.2h10.94v1.03z"/><path d="M115 10.44h-6.46l-1.46 3.98h-1.26L111.2.2h1.15l5.38 14.22h-1.25L115 10.44zm-6.1-1.03h5.72l-2.86-7.73-2.85 7.74z"/><path d="M128.23 1.23h-4.88v13.2h-1.2V1.22h-4.86V.2h10.93v1.03z"/><path d="M132 14.42h-1.2V.2h1.2v14.22z"/><path d="M140.13 12.66l.08.3.1-.3L144.76.2h1.3l-5.3 14.22h-1.14L134.33.2h1.32l4.47 12.46z"/><path d="M156.04 7.6h-6.65v5.8h7.63v1.02h-8.84V.2h8.78v1.03h-7.6V6.6h6.66v1z"/><path d="M172.3 7.6h-6.66v5.8h7.64v1.02h-8.84V.2h8.8v1.03h-7.6V6.6h6.65v1z"/><path d="M183.85 10.92q0-1.18-.83-1.86-.83-.7-3.04-1.3-2.2-.63-3.22-1.37-1.45-1.04-1.45-2.72 0-1.63 1.35-2.65T180.1 0q1.4 0 2.52.55t1.73 1.53q.62.97.62 2.17h-1.2q0-1.45-1-2.33-1-.9-2.68-.9-1.64 0-2.6.74-.98.73-.98 1.9 0 1.08.87 1.77.86.68 2.78 1.2 1.9.52 2.9 1.1.98.55 1.48 1.33t.5 1.84q0 1.68-1.35 2.7-1.33 1.02-3.52 1.02-1.5 0-2.77-.54-1.24-.54-1.9-1.5-.64-.97-.64-2.22h1.2q0 1.5 1.13 2.37 1.1.87 2.98.87 1.66 0 2.66-.73t1-1.95z"/><path d="M195.7 10.92q0-1.18-.84-1.86-.83-.7-3.04-1.3-2.2-.63-3.22-1.37-1.45-1.04-1.45-2.72 0-1.63 1.34-2.65T191.92 0q1.4 0 2.53.55 1.12.55 1.73 1.53.6.97.6 2.17h-1.2q0-1.45-1-2.33-1-.9-2.67-.9-1.63 0-2.6.74-.97.73-.97 1.9 0 1.08.87 1.77.87.68 2.8 1.2 1.9.52 2.9 1.1.97.55 1.47 1.33t.5 1.84q0 1.68-1.35 2.7-1.34 1.02-3.53 1.02-1.5 0-2.77-.54-1.25-.54-1.9-1.5-.65-.97-.65-2.22h1.2q0 1.5 1.13 2.37 1.12.87 3 .87 1.65 0 2.65-.73 1-.74 1-1.95z"/><path d="M207.15 10.44h-6.46l-1.47 3.98h-1.26L203.35.2h1.15l5.38 14.22h-1.25l-1.48-3.98zm-6.1-1.03h5.72l-2.86-7.73-2.84 7.74z"/><path d="M215.25 7.96L219.6.2h1.38l-5.14 8.87v5.35h-1.2V9.07L209.5.2h1.44l4.3 7.76z"/></g><g><path d="M2 49.42h-.85v-9.95H2v9.95z"/><path d="M5.08 49.42V42.7H3.86V42h1.22v-.9q0-1.13.57-1.74.6-.6 1.62-.6.46 0 .87.1l-.07.7q-.34-.1-.74-.1-.68 0-1.05.44-.38.4-.38 1.2v.9h1.76v.67H5.9v6.72h-.82z"/><path d="M14.9 48.24l2.16-6.22h.9l-3.17 8.66-.18.38q-.6 1.35-1.88 1.35-.3 0-.63-.1v-.67l.43.05q.6 0 .97-.3.38-.3.64-1.02l.36-1-2.8-7.34h.9l2.3 6.22z"/><path d="M18.64 45.6q0-1.05.4-1.9.43-.86 1.18-1.34.76-.47 1.72-.47 1.47 0 2.4 1.03.9 1.03.9 2.74v.17q0 1.07-.4 1.93-.42.86-1.17 1.32-.75.46-1.72.46-1.47 0-2.4-1.04-.9-1.03-.9-2.74v-.17zm.82.24q0 1.32.7 2.18.68.85 1.8.85 1.1 0 1.78-.85.7-.86.7-2.25v-.16q0-.84-.32-1.54-.32-.7-.88-1.1-.57-.38-1.3-.38-1.1 0-1.8.87-.68.85-.68 2.24v.14z"/><path d="M31.7 48.48q-.74 1.08-2.36 1.08-1.18 0-1.8-.7-.6-.68-.63-2.02v-4.82h.83v4.7q0 2.13 1.7 2.13 1.78 0 2.26-1.47v-5.36h.8v7.4h-.8v-.94z"/><path d="M41.46 42.72q-.26-.05-.55-.05-.76 0-1.3.43-.52.43-.74 1.24v5.08h-.82v-7.4h.8l.02 1.18q.65-1.3 2.08-1.3.34 0 .54.08l-.02.74z"/><path d="M45.47 49.56q-.94 0-1.7-.47t-1.2-1.3q-.4-.83-.4-1.87v-.3q0-1.06.4-1.9.42-.87 1.15-1.35.74-.5 1.6-.5 1.35 0 2.14.93.8.93.8 2.52v.46h-5.3v.15q0 1.26.73 2.1.7.84 1.8.84.66 0 1.16-.24.5-.24.92-.77l.5.4q-.9 1.3-2.6 1.3zm-.15-6.98q-.92 0-1.55.68T43 45.08h4.44v-.1q-.04-1.06-.6-1.73-.6-.67-1.52-.67z"/><path d="M49.53 45.65q0-1.73.76-2.75.77-1 2.1-1 1.5 0 2.27 1.13l.05-1h.76v10.23h-.82V48.5q-.8 1.06-2.28 1.06-1.3 0-2.07-1.03t-.77-2.77v-.1zm.82.15q0 1.43.58 2.25.58.82 1.6.82 1.47 0 2.13-1.28v-3.64q-.3-.66-.85-1-.53-.38-1.25-.38-1.03 0-1.6.82-.6.82-.6 2.4z"/><path d="M62.43 48.48q-.73 1.08-2.35 1.08-1.2 0-1.8-.7-.62-.68-.63-2.02v-4.82h.8v4.7q0 2.13 1.72 2.13 1.78 0 2.25-1.47v-5.36h.82v7.4h-.8v-.94z"/><path d="M66.27 49.42h-.82v-7.4h.82v7.4zm-.96-9.54q0-.23.16-.4.15-.15.4-.15t.42.16q.16.15.16.38t-.16.4q-.15.15-.4.15t-.42-.16-.15-.4z"/><path d="M71.92 42.72q-.26-.05-.55-.05-.77 0-1.3.43t-.75 1.24v5.08h-.82v-7.4h.8l.02 1.18q.65-1.3 2.08-1.3.34 0 .54.08l-.02.74z"/><path d="M75.93 49.56q-.94 0-1.7-.47t-1.2-1.3q-.4-.83-.4-1.87v-.3q0-1.06.4-1.9.42-.87 1.16-1.35.72-.5 1.58-.5 1.35 0 2.14.93.8.93.8 2.52v.46h-5.3v.15q0 1.26.73 2.1.73.84 1.82.84.66 0 1.15-.24.5-.24.92-.77l.5.4q-.9 1.3-2.6 1.3zm-.15-6.98q-.92 0-1.55.68t-.77 1.82h4.44v-.1q-.04-1.06-.6-1.73-.6-.67-1.52-.67z"/><path d="M88.4 49.42q-.12-.35-.15-1.03-.43.55-1.1.86-.67.3-1.4.3-1.08 0-1.74-.6-.65-.6-.65-1.5 0-1.08.9-1.7.9-.64 2.5-.64h1.5v-.84q0-.8-.5-1.24-.5-.46-1.43-.46-.85 0-1.4.43-.57.45-.57 1.07h-.82q0-.9.82-1.53.82-.65 2.02-.65 1.23 0 1.94.6.73.62.75 1.73v3.5q0 1.07.23 1.6v.1h-.88zm-2.57-.6q.82 0 1.47-.38.65-.4.94-1.06v-1.63h-1.46q-1.23 0-1.92.45-.7.43-.7 1.2 0 .6.47 1.02.46.4 1.2.4z"/><path d="M97.38 48.87q.85 0 1.43-.48.6-.5.64-1.26h.78q-.03.67-.42 1.23-.4.56-1.04.87-.64.32-1.38.32-1.46 0-2.3-1.02-.86-1-.86-2.72v-.24q0-1.1.38-1.94.4-.84 1.1-1.3.72-.45 1.67-.45 1.22 0 2 .7.8.74.85 1.92h-.78q-.06-.87-.63-1.4-.56-.54-1.43-.54-1.1 0-1.72.8-.6.8-.6 2.25v.23q0 1.42.6 2.2.6.8 1.73.8z"/><path d="M101.42 45.6q0-1.05.4-1.9.42-.86 1.18-1.34.75-.47 1.7-.47 1.5 0 2.4 1.03.92 1.03.92 2.74v.17q0 1.07-.42 1.93-.4.86-1.16 1.32-.75.46-1.7.46-1.48 0-2.4-1.04-.92-1.03-.92-2.74v-.17zm.82.24q0 1.32.68 2.18.7.85 1.8.85t1.8-.85q.7-.86.7-2.25v-.16q0-.84-.33-1.54-.32-.7-.9-1.1-.56-.38-1.3-.38-1.08 0-1.77.87-.7.85-.7 2.24v.14z"/><path d="M110.46 42.02l.02 1.2q.4-.66 1.03-1 .62-.33 1.38-.33 1.75 0 2.22 1.42.4-.7 1.06-1.06.66-.37 1.46-.37 2.38 0 2.43 2.58v4.94h-.82v-4.87q0-1-.43-1.47-.42-.48-1.37-.48-.88 0-1.5.57-.6.56-.67 1.36v4.9h-.82v-4.95q0-.95-.45-1.4-.45-.48-1.36-.48-.77 0-1.33.44-.54.44-.8 1.3v5.08h-.83v-7.4h.8z"/><path d="M128.08 45.8q0 1.73-.77 2.75-.75 1-2.04 1-1.52 0-2.32-1.06v3.76h-.82V42.02h.76l.04 1.05q.8-1.18 2.32-1.18 1.33 0 2.08 1 .76 1 .76 2.78v.12zm-.82-.15q0-1.4-.58-2.23-.6-.82-1.62-.82-.76 0-1.3.36t-.82 1.05v3.56q.3.64.84.97.54.34 1.3.34 1.02 0 1.6-.82.58-.83.58-2.4z"/><path d="M132.76 49.56q-.95 0-1.7-.47-.77-.47-1.2-1.3-.42-.83-.42-1.87v-.3q0-1.06.4-1.9.43-.87 1.17-1.35.75-.5 1.6-.5 1.35 0 2.14.93.8.93.8 2.52v.46h-5.28v.15q0 1.26.7 2.1.74.84 1.83.84.65 0 1.15-.24.5-.24.9-.77l.53.4q-.9 1.3-2.62 1.3zm-.15-6.98q-.92 0-1.55.68t-.77 1.82h4.44v-.1q-.04-1.06-.6-1.73-.58-.67-1.5-.67z"/><path d="M138.06 49.42h-.82v-10.5h.82v10.5z"/><path d="M141.2 49.42h-.82v-10.5h.82v10.5z"/><path d="M144.34 49.42h-.82v-7.4h.82v7.4zm-.97-9.54q0-.23.15-.4.15-.15.4-.15.27 0 .42.16.16.15.16.38t-.16.4q-.15.15-.4.15-.27 0-.42-.16t-.15-.4z"/><path d="M147.35 42.02l.02 1.27q.42-.7 1.04-1.05.64-.36 1.4-.36 1.18 0 1.76.66.58.67.6 2v4.86h-.83v-4.86q0-1-.42-1.48-.4-.48-1.3-.48-.77 0-1.36.48-.58.47-.86 1.27v5.07h-.8v-7.4h.77z"/><path d="M153.93 45.65q0-1.73.76-2.75.77-1 2.08-1 1.52 0 2.3 1.2l.04-1.08h.77v7.25q0 1.43-.8 2.26-.8.84-2.18.84-.77 0-1.48-.35-.7-.34-1.1-.92l.46-.5q.87 1.08 2.07 1.08 1.02 0 1.6-.6.57-.6.6-1.7v-.92q-.8 1.1-2.3 1.1-1.28 0-2.06-1.03-.77-1.02-.77-2.77v-.1zm.82.15q0 1.4.57 2.23.57.82 1.6.82 1.5 0 2.14-1.36v-3.45q-.3-.7-.83-1.08-.54-.37-1.3-.37-1.03 0-1.6.8-.58.82-.58 2.4z"/><path d="M170.1 49.42q-.12-.35-.15-1.03-.43.55-1.1.86-.66.3-1.4.3-1.08 0-1.74-.6-.64-.6-.64-1.5 0-1.08.9-1.7.9-.64 2.5-.64h1.48v-.84q0-.8-.5-1.24-.47-.46-1.4-.46-.87 0-1.43.43-.55.45-.55 1.07h-.82q0-.9.82-1.53.82-.65 2.02-.65 1.24 0 1.95.6.72.62.74 1.73v3.5q0 1.07.22 1.6v.1h-.87zm-2.56-.6q.82 0 1.46-.38.65-.4.94-1.06v-1.63h-1.46q-1.22 0-1.9.45-.7.43-.7 1.2 0 .6.45 1.02.47.4 1.2.4z"/><path d="M176.35 42.72q-.26-.05-.56-.05-.77 0-1.3.43t-.76 1.24v5.08h-.8v-7.4h.8v1.18q.65-1.3 2.1-1.3.33 0 .53.08l-.02.74z"/><path d="M177.17 45.65q0-1.73.76-2.75.78-1 2.1-1 1.5 0 2.3 1.2l.03-1.08h.77v7.25q0 1.43-.8 2.26-.8.84-2.17.84-.77 0-1.48-.35-.7-.34-1.1-.92l.46-.5q.87 1.08 2.07 1.08 1.03 0 1.6-.6.58-.6.6-1.7v-.92q-.8 1.1-2.3 1.1-1.27 0-2.05-1.03-.78-1.02-.78-2.77v-.1zm.82.15q0 1.4.56 2.23.57.82 1.6.82 1.5 0 2.14-1.36v-3.45q-.3-.7-.83-1.08-.54-.37-1.3-.37-1.03 0-1.6.8-.58.82-.58 2.4z"/><path d="M190.02 48.48q-.74 1.08-2.36 1.08-1.18 0-1.8-.7-.6-.68-.63-2.02v-4.82h.82v4.7q0 2.13 1.7 2.13 1.78 0 2.25-1.47v-5.36h.82v7.4h-.8v-.94z"/><path d="M193.7 42.02v1.2q.42-.66 1.04-1 .6-.33 1.37-.33 1.76 0 2.23 1.42.4-.7 1.06-1.06.65-.37 1.45-.37 2.38 0 2.43 2.58v4.94h-.82v-4.87q0-1-.43-1.47-.42-.48-1.37-.48-.88 0-1.5.57-.6.56-.67 1.36v4.9h-.83v-4.95q0-.95-.45-1.4-.44-.48-1.35-.48-.77 0-1.33.44-.55.44-.82 1.3v5.08h-.82v-7.4h.8z"/><path d="M208.23 49.56q-.95 0-1.7-.47-.77-.47-1.2-1.3-.42-.83-.42-1.87v-.3q0-1.06.42-1.9.42-.87 1.16-1.35.74-.5 1.6-.5 1.34 0 2.13.93.8.93.8 2.52v.46h-5.27v.15q0 1.26.7 2.1.74.84 1.83.84.66 0 1.16-.24.5-.24.9-.77l.53.4q-.9 1.3-2.62 1.3zm-.15-6.98q-.93 0-1.56.68t-.77 1.82h4.44v-.1q-.05-1.06-.62-1.73-.57-.67-1.5-.67z"/><path d="M213.4 42.02v1.27q.43-.7 1.05-1.05.63-.36 1.38-.36 1.2 0 1.77.66.58.67.6 2v4.86h-.83v-4.86q0-1-.42-1.48-.4-.48-1.32-.48-.76 0-1.35.48-.58.47-.86 1.27v5.07h-.8v-7.4h.77z"/><path d="M221.56 40.13v1.9h1.53v.66h-1.54v4.92q0 .62.22.92.22.3.74.3.2 0 .66-.07l.04.67q-.32.12-.88.12-.84 0-1.22-.5-.38-.48-.38-1.43V42.7h-1.36V42h1.36v-1.9h.82z"/><path d="M229.47 49.42q-.13-.35-.16-1.03-.42.55-1.1.86-.65.3-1.4.3-1.07 0-1.73-.6-.65-.6-.65-1.5 0-1.08.9-1.7.9-.64 2.5-.64h1.48v-.84q0-.8-.5-1.24-.47-.46-1.4-.46-.87 0-1.43.43-.56.45-.56 1.07h-.8q0-.9.8-1.53.83-.65 2.03-.65 1.24 0 1.95.6.72.62.74 1.73v3.5q0 1.07.22 1.6v.1h-.87zm-2.57-.6q.82 0 1.46-.38.65-.4.94-1.06v-1.63h-1.46q-1.22 0-1.9.45-.7.43-.7 1.2 0 .6.45 1.02.46.4 1.2.4z"/><path d="M233.57 40.13v1.9h1.53v.66h-1.53v4.92q0 .62.22.92.2.3.73.3.2 0 .66-.07l.03.67q-.32.12-.88.12-.84 0-1.22-.5-.38-.48-.38-1.43V42.7h-1.36V42h1.35v-1.9h.82z"/><path d="M237.72 49.42h-.82v-7.4h.82v7.4zm-.97-9.54q0-.23.15-.4.15-.15.4-.15.27 0 .42.16.16.15.16.38t-.16.4q-.15.15-.4.15-.27 0-.42-.16-.15-.15-.15-.4z"/><path d="M242.26 48.3L244.5 42h.85l-2.77 7.4h-.67l-2.76-7.4h.84l2.27 6.27z"/><path d="M249.46 49.56q-.95 0-1.7-.47-.77-.47-1.2-1.3-.42-.83-.42-1.87v-.3q0-1.06.4-1.9.43-.87 1.17-1.35.75-.5 1.6-.5 1.35 0 2.14.93.8.93.8 2.52v.46h-5.3v.15q0 1.26.73 2.1.73.84 1.82.84.65 0 1.15-.24.5-.24.9-.77l.53.4q-.9 1.3-2.62 1.3zm-.15-6.98q-.92 0-1.55.68t-.77 1.82h4.44v-.1q-.04-1.06-.6-1.73-.58-.67-1.5-.67z"/><path d="M260.13 49.56q-.95 0-1.7-.47-.77-.47-1.2-1.3-.42-.83-.42-1.87v-.3q0-1.06.42-1.9.42-.87 1.16-1.35.74-.5 1.6-.5 1.34 0 2.13.93.8.93.8 2.52v.46h-5.27v.15q0 1.26.7 2.1.74.84 1.83.84.66 0 1.16-.24.5-.24.9-.77l.53.4q-.9 1.3-2.62 1.3zm-.15-6.98q-.93 0-1.56.68t-.77 1.82h4.44v-.1q-.05-1.06-.62-1.73-.57-.67-1.5-.67z"/><path d="M268.94 47.54q0-.6-.5-.98-.48-.37-1.46-.57-1-.22-1.54-.5-.54-.26-.8-.65-.26-.4-.26-.95 0-.87.73-1.44.74-.57 1.88-.57 1.24 0 1.98.6.76.6.76 1.6h-.82q0-.65-.55-1.1-.54-.42-1.37-.42-.8 0-1.3.37-.48.35-.48.93 0 .55.4.86.4.3 1.48.55 1.08.24 1.62.53.54.3.8.7.26.4.26.97 0 .94-.76 1.5-.75.56-1.97.56-1.3 0-2.1-.63-.8-.62-.8-1.58h.82q.05.72.6 1.12.56.4 1.48.4.85 0 1.38-.38.54-.4.54-.96z"/><path d="M276.02 47.54q0-.6-.5-.98-.48-.37-1.46-.57-1-.22-1.54-.5-.54-.26-.8-.65-.26-.4-.26-.95 0-.87.73-1.44.72-.57 1.86-.57 1.24 0 1.98.6.76.6.76 1.6h-.82q0-.65-.55-1.1-.54-.42-1.37-.42-.8 0-1.3.37-.48.35-.48.93 0 .55.4.86.4.3 1.48.55 1.08.24 1.62.53.54.3.8.7t.26.97q0 .94-.76 1.5-.75.56-1.97.56-1.28 0-2.1-.63-.8-.62-.8-1.58h.83q.05.72.6 1.12.56.4 1.48.4.86 0 1.4-.38.52-.4.52-.96z"/><path d="M283.34 49.42q-.13-.35-.16-1.03-.43.55-1.1.86-.66.3-1.4.3-1.08 0-1.74-.6-.65-.6-.65-1.5 0-1.08.88-1.7.9-.64 2.5-.64h1.5v-.84q0-.8-.5-1.24-.48-.46-1.42-.46-.86 0-1.42.43-.56.45-.56 1.07h-.82q0-.9.82-1.53.82-.65 2.02-.65 1.24 0 1.95.6.72.62.74 1.73v3.5q0 1.07.2 1.6v.1h-.86zm-2.57-.6q.82 0 1.46-.38.65-.4.94-1.06v-1.63h-1.46q-1.2 0-1.9.45-.7.43-.7 1.2 0 .6.46 1.02.47.4 1.2.4z"/><path d="M288.4 48.24l2.16-6.22h.88l-3.16 8.66-.16.38q-.6 1.35-1.88 1.35-.3 0-.63-.1v-.67l.42.05q.6 0 .98-.3.37-.3.63-1.02l.36-1-2.8-7.34h.9l2.3 6.22z"/><path d="M297.4 40.13v1.9h1.52v.66h-1.53v4.92q0 .62.2.92.23.3.75.3.2 0 .66-.07l.05.67q-.32.12-.88.12-.84 0-1.22-.5-.38-.48-.38-1.43V42.7h-1.36V42h1.37v-1.9h.82z"/><path d="M300.04 45.6q0-1.05.4-1.9.42-.86 1.18-1.34.75-.47 1.7-.47 1.5 0 2.4 1.03.92 1.03.92 2.74v.17q0 1.07-.42 1.93-.4.86-1.16 1.32-.75.46-1.7.46-1.48 0-2.4-1.04-.92-1.03-.92-2.74v-.17zm.82.24q0 1.32.68 2.18.7.85 1.8.85t1.8-.85q.7-.86.7-2.25v-.16q0-.84-.33-1.54-.3-.7-.87-1.1-.57-.38-1.3-.38-1.1 0-1.78.87-.7.85-.7 2.24v.14z"/><path d="M1.52 62.02l.03 1.2q.4-.66 1.02-1 .62-.33 1.37-.33 1.75 0 2.22 1.42.4-.7 1.06-1.06.66-.37 1.46-.37 2.38 0 2.43 2.58v4.94h-.8v-4.87q-.02-1-.44-1.47-.42-.48-1.37-.48-.9 0-1.5.57-.6.56-.68 1.36v4.9H5.5v-4.95q0-.95-.45-1.4-.43-.48-1.35-.48-.77 0-1.33.44-.55.44-.82 1.3v5.08H.73v-7.4h.8z"/><path d="M17.86 69.42q-.13-.35-.16-1.03-.43.55-1.1.86-.66.3-1.4.3-1.08 0-1.74-.6-.66-.6-.66-1.5 0-1.08.9-1.7.9-.64 2.5-.64h1.5v-.84q0-.8-.5-1.24-.5-.46-1.42-.46-.86 0-1.42.43-.56.45-.56 1.07h-.82q0-.9.82-1.53.82-.65 2.02-.65 1.24 0 1.95.6.7.62.74 1.73v3.5q0 1.07.23 1.6v.1h-.87zm-2.57-.6q.8 0 1.45-.38.65-.4.94-1.06v-1.63h-1.47q-1.22 0-1.92.45-.68.43-.68 1.2 0 .6.46 1.02.47.4 1.2.4z"/><path d="M21.95 60.13v1.9h1.53v.66h-1.53v4.92q0 .62.22.92.23.3.74.3.22 0 .68-.07l.03.67q-.3.12-.86.12-.84 0-1.23-.5-.37-.48-.37-1.43V62.7h-1.36V62h1.36v-1.9h.82z"/><path d="M27.93 68.87q.85 0 1.42-.48.6-.5.63-1.26h.8q-.04.67-.43 1.23-.4.56-1.04.87-.64.32-1.37.32-1.46 0-2.3-1.02-.86-1-.86-2.72v-.24q0-1.1.38-1.94.38-.84 1.1-1.3.7-.45 1.67-.45 1.22 0 2 .7.8.74.85 1.92h-.8q-.04-.87-.62-1.4-.56-.54-1.43-.54-1.1 0-1.72.8-.6.8-.6 2.25v.23q0 1.42.6 2.2.6.8 1.73.8z"/><path d="M33.22 63.27q.4-.66 1.04-1.02.63-.36 1.37-.36 1.2 0 1.77.66.58.67.6 2v4.86h-.82v-4.86q0-1-.43-1.48-.4-.48-1.32-.48-.76 0-1.34.48-.6.47-.88 1.27v5.07h-.8v-10.5h.8v4.35z"/><path d="M45.86 68.24l2.16-6.22h.88l-3.16 8.66-.16.38q-.6 1.35-1.88 1.35-.3 0-.63-.1v-.67l.4.05q.62 0 .98-.3.38-.3.64-1.02l.35-1-2.8-7.34h.9l2.3 6.22z"/><path d="M49.6 65.6q0-1.05.4-1.9.42-.86 1.18-1.34.75-.47 1.7-.47 1.5 0 2.4 1.03.92 1.03.92 2.74v.17q0 1.07-.42 1.93-.4.86-1.16 1.32-.75.46-1.72.46-1.47 0-2.4-1.04-.9-1.03-.9-2.74v-.17zm.82.24q0 1.32.68 2.18.7.85 1.8.85t1.8-.85q.7-.86.7-2.25v-.16q0-.84-.33-1.54-.3-.7-.88-1.1-.58-.38-1.3-.38-1.1 0-1.8.87-.68.85-.68 2.24v.14z"/><path d="M62.65 68.48q-.74 1.08-2.36 1.08-1.2 0-1.8-.7-.62-.68-.63-2.02v-4.82h.8v4.7q0 2.13 1.72 2.13 1.77 0 2.24-1.47v-5.36h.82v7.4h-.8v-.94z"/><path d="M69 62.72q-.26-.05-.56-.05-.76 0-1.3.43-.52.43-.75 1.24v5.08h-.82v-7.4h.8v1.18q.66-1.3 2.1-1.3.34 0 .54.08l-.02.74z"/><path d="M75.47 67.72l.12.63.16-.67 1.77-5.66h.7L80 67.64l.18.78.16-.72 1.5-5.68h.86l-2.15 7.4h-.7l-1.9-5.86-.1-.4-.08.4-1.86 5.86h-.7l-2.14-7.4h.85l1.57 5.7z"/><path d="M87.67 62.72q-.26-.05-.55-.05-.77 0-1.3.43t-.75 1.24v5.08h-.82v-7.4h.8l.02 1.18q.65-1.3 2.08-1.3.34 0 .54.08l-.03.74z"/><path d="M89.87 69.42h-.82v-7.4h.82v7.4zm-.96-9.54q0-.23.16-.4.15-.15.4-.15t.42.16q.16.15.16.38t-.16.4q-.15.15-.4.15-.27 0-.42-.16-.15-.15-.15-.4z"/><path d="M93.37 60.13v1.9h1.53v.66h-1.53v4.92q0 .62.22.92.22.3.74.3.2 0 .66-.07l.03.67q-.32.12-.87.12-.84 0-1.22-.5-.4-.48-.4-1.43V62.7H91.2V62h1.35v-1.9h.82z"/><path d="M97.53 69.42h-.82v-7.4h.83v7.4zm-.96-9.54q0-.23.15-.4.15-.15.4-.15t.42.16q.15.15.15.38t-.16.4q-.15.15-.4.15-.27 0-.42-.16-.15-.15-.15-.4z"/><path d="M100.54 62.02l.02 1.27q.42-.7 1.04-1.05.63-.36 1.38-.36 1.2 0 1.77.66.58.67.6 2v4.86h-.83v-4.86q0-1-.42-1.48-.4-.48-1.32-.48-.76 0-1.35.48-.58.47-.86 1.27v5.07h-.8v-7.4h.77z"/><path d="M107.12 65.65q0-1.73.76-2.75.78-1 2.1-1 1.5 0 2.3 1.2l.03-1.08h.78v7.25q0 1.43-.8 2.26-.8.84-2.17.84-.76 0-1.47-.35-.7-.34-1.1-.92l.46-.5q.86 1.08 2.06 1.08 1.02 0 1.6-.6.57-.6.6-1.7v-.92q-.8 1.1-2.3 1.1-1.28 0-2.06-1.03-.78-1.02-.78-2.77v-.1zm.82.15q0 1.4.57 2.23.58.82 1.6.82 1.52 0 2.15-1.36v-3.45q-.3-.7-.83-1.08-.54-.37-1.3-.37-1.03 0-1.6.8-.58.82-.58 2.4z"/><path d="M118.3 65.65q0-1.72.76-2.74.78-1 2.1-1 1.5 0 2.28 1.17v-4.15h.8v10.5h-.75l-.05-.98q-.78 1.12-2.3 1.12-1.3 0-2.07-1.03-.78-1.03-.78-2.78v-.1zm.82.15q0 1.4.57 2.23.56.82 1.6.82 1.5 0 2.14-1.34v-3.46q-.64-1.44-2.14-1.44-1.03 0-1.6.8-.58.82-.58 2.4z"/><path d="M129.3 69.56q-.96 0-1.72-.47t-1.18-1.3q-.43-.83-.43-1.87v-.3q0-1.06.4-1.9.43-.87 1.17-1.35.74-.5 1.6-.5 1.34 0 2.13.93.8.93.8 2.52v.46h-5.28l-.02.15q0 1.26.72 2.1.73.84 1.82.84.66 0 1.16-.24.5-.24.9-.77l.53.4q-.9 1.3-2.6 1.3zm-.16-6.98q-.93 0-1.56.68t-.77 1.82h4.45v-.1q-.04-1.06-.6-1.73-.58-.67-1.5-.67z"/><path d="M134.4 62.02l.03 1.2q.4-.66 1.03-1 .6-.33 1.37-.33 1.75 0 2.22 1.42.4-.7 1.06-1.06.67-.37 1.47-.37 2.38 0 2.43 2.58v4.94h-.82v-4.87q0-1-.43-1.47-.42-.48-1.37-.48-.88 0-1.5.57-.6.56-.67 1.36v4.9h-.8v-4.95q0-.95-.46-1.4-.44-.48-1.35-.48-.78 0-1.34.44-.55.44-.82 1.3v5.08h-.82v-7.4h.8z"/><path d="M150.75 69.42q-.13-.35-.16-1.03-.44.55-1.1.86-.67.3-1.42.3-1.07 0-1.73-.6-.65-.6-.65-1.5 0-1.08.9-1.7.9-.64 2.5-.64h1.48v-.84q0-.8-.5-1.24-.47-.46-1.4-.46-.87 0-1.43.43-.56.45-.56 1.07h-.83q0-.9.82-1.53.8-.65 2-.65 1.25 0 1.96.6.72.62.74 1.73v3.5q0 1.07.22 1.6v.1h-.87zm-2.57-.6q.82 0 1.46-.38.65-.4.94-1.06v-1.63h-1.46q-1.22 0-1.9.45-.7.43-.7 1.2 0 .6.45 1.02.47.4 1.2.4z"/><path d="M154.35 62.02l.02 1.27q.42-.7 1.04-1.05.64-.36 1.4-.36 1.18 0 1.76.66.58.67.6 2v4.86h-.83v-4.86q0-1-.42-1.48-.4-.48-1.3-.48-.77 0-1.36.48-.58.47-.86 1.27v5.07h-.8v-7.4h.77z"/><path d="M160.93 65.65q0-1.72.76-2.74.77-1 2.08-1 1.5 0 2.3 1.17v-4.15h.8v10.5h-.76l-.04-.98q-.78 1.12-2.3 1.12-1.3 0-2.07-1.03-.77-1.03-.77-2.78v-.1zm.82.15q0 1.4.57 2.23.57.82 1.6.82 1.5 0 2.15-1.34v-3.46q-.64-1.44-2.14-1.44-1.03 0-1.6.8-.58.82-.58 2.4z"/><path d="M173.48 67.54q0-.6-.5-.98-.48-.37-1.46-.57-1-.22-1.54-.5-.54-.26-.8-.65-.26-.4-.26-.95 0-.87.73-1.44t1.87-.57q1.24 0 1.98.6.76.6.76 1.6h-.82q0-.65-.55-1.1-.55-.42-1.38-.42-.8 0-1.3.37-.48.35-.48.93 0 .55.4.86.4.3 1.48.55 1.08.24 1.62.53.54.3.8.7.26.4.26.97 0 .94-.76 1.5-.75.56-1.97.56-1.3 0-2.1-.63-.8-.62-.8-1.58h.82q.04.72.6 1.12.55.4 1.47.4.85 0 1.38-.38.53-.4.53-.96z"/><path d="M175.96 71.28l-.5-.36q.63-.83.65-1.73v-1.07h.8V69q0 1.4-.94 2.28z"/><path d="M184 67.72l.12.63.16-.67 1.78-5.66h.7l1.76 5.62.2.78.14-.72 1.52-5.68h.85l-2.16 7.4h-.7l-1.9-5.86-.1-.4-.08.4-1.87 5.86h-.7l-2.14-7.4h.83l1.57 5.7z"/><path d="M195.65 69.56q-.95 0-1.7-.47-.77-.47-1.2-1.3-.42-.83-.42-1.87v-.3q0-1.06.4-1.9.43-.87 1.17-1.35.74-.5 1.6-.5 1.34 0 2.13.93.8.93.8 2.52v.46h-5.3v.15q0 1.26.73 2.1.73.84 1.82.84.66 0 1.16-.24.5-.24.9-.77l.53.4q-.9 1.3-2.62 1.3zm-.15-6.98q-.93 0-1.56.68t-.77 1.82h4.44v-.1q-.03-1.06-.6-1.73-.57-.67-1.5-.67z"/><path d="M206.18 68.87q.85 0 1.43-.48.6-.5.63-1.26h.8q-.04.67-.43 1.23-.4.56-1.04.87-.64.32-1.38.32-1.46 0-2.3-1.02-.86-1-.86-2.72v-.24q0-1.1.38-1.94.38-.84 1.1-1.3.7-.45 1.67-.45 1.22 0 2 .7.8.74.85 1.92h-.8q-.04-.87-.6-1.4-.58-.54-1.45-.54-1.1 0-1.72.8-.6.8-.6 2.25v.23q0 1.42.6 2.2.6.8 1.73.8z"/><path d="M215.34 69.42q-.13-.35-.16-1.03-.43.55-1.1.86-.66.3-1.4.3-1.08 0-1.74-.6-.65-.6-.65-1.5 0-1.08.88-1.7.9-.64 2.5-.64h1.5v-.84q0-.8-.5-1.24-.48-.46-1.42-.46-.86 0-1.42.43-.56.45-.56 1.07h-.82q0-.9.82-1.53.82-.65 2.02-.65 1.24 0 1.95.6.72.62.74 1.73v3.5q0 1.07.2 1.6v.1h-.86zm-2.57-.6q.82 0 1.46-.38.65-.4.94-1.06v-1.63h-1.46q-1.2 0-1.9.45-.7.43-.7 1.2 0 .6.46 1.02.47.4 1.2.4z"/><path d="M218.94 62.02l.02 1.27q.42-.7 1.04-1.05.63-.36 1.38-.36 1.2 0 1.77.66.58.67.6 2v4.86h-.83v-4.86q0-1-.42-1.48-.4-.48-1.32-.48-.76 0-1.35.48-.58.47-.86 1.27v5.07h-.8v-7.4h.77z"/><path d="M235.2 65.8q0 1.73-.76 2.75-.76 1-2.05 1-1.53 0-2.33-1.06v3.76h-.82V62.02h.76l.05 1.05q.8-1.18 2.32-1.18 1.33 0 2.08 1 .76 1 .76 2.78v.12zm-.8-.15q0-1.4-.6-2.23-.58-.82-1.6-.82-.77 0-1.3.36-.55.36-.83 1.05v3.56q.3.64.84.97.55.34 1.3.34 1.03 0 1.6-.82.6-.83.6-2.4z"/><path d="M240.44 62.72q-.26-.05-.56-.05-.76 0-1.3.43-.52.43-.75 1.24v5.08h-.8v-7.4h.8v1.18q.65-1.3 2.1-1.3.33 0 .53.08l-.02.74z"/><path d="M241.14 65.6q0-1.05.4-1.9.42-.86 1.18-1.34.75-.47 1.7-.47 1.5 0 2.4 1.03.92 1.03.92 2.74v.17q0 1.07-.42 1.93-.4.86-1.16 1.32-.75.46-1.7.46-1.48 0-2.4-1.04-.92-1.03-.92-2.74v-.17zm.82.24q0 1.32.68 2.18.7.85 1.8.85t1.8-.85q.7-.86.7-2.25v-.16q0-.84-.33-1.54-.3-.7-.87-1.1-.57-.38-1.3-.38-1.1 0-1.78.87-.7.85-.7 2.24v.14z"/><path d="M251.63 68.3l2.25-6.28h.84l-2.76 7.4h-.67l-2.78-7.4h.84l2.27 6.27z"/><path d="M256.97 69.42h-.82v-7.4h.82v7.4zm-.97-9.54q0-.23.15-.4.15-.15.4-.15.27 0 .42.16.16.15.16.38t-.16.4q-.15.15-.4.15-.27 0-.42-.16-.15-.15-.15-.4z"/><path d="M258.87 65.65q0-1.72.76-2.74.78-1 2.1-1 1.5 0 2.28 1.17v-4.15h.82v10.5h-.76l-.04-.98q-.78 1.12-2.3 1.12-1.3 0-2.07-1.03-.78-1.03-.78-2.78v-.1zm.82.15q0 1.4.56 2.23.57.82 1.6.82 1.5 0 2.15-1.34v-3.46q-.63-1.44-2.13-1.44-1.03 0-1.6.8-.58.82-.58 2.4z"/><path d="M269.86 69.56q-.95 0-1.7-.47-.77-.47-1.2-1.3-.42-.83-.42-1.87v-.3q0-1.06.4-1.9.43-.87 1.17-1.35.75-.5 1.6-.5 1.35 0 2.14.93.8.93.8 2.52v.46h-5.28v.15q0 1.26.7 2.1.74.84 1.83.84.65 0 1.15-.24.5-.24.9-.77l.53.4q-.9 1.3-2.62 1.3zm-.15-6.98q-.92 0-1.55.68t-.77 1.82h4.44v-.1q-.04-1.06-.6-1.73-.58-.67-1.5-.67z"/><path d="M280 68.24l2.16-6.22h.88l-3.16 8.66-.16.38q-.6 1.35-1.88 1.35-.3 0-.63-.1v-.67l.42.05q.6 0 .98-.3.37-.3.63-1.02l.36-1-2.8-7.34h.9l2.3 6.22z"/><path d="M283.74 65.6q0-1.05.4-1.9.42-.86 1.18-1.34.75-.47 1.7-.47 1.5 0 2.4 1.03.92 1.03.92 2.74v.17q0 1.07-.42 1.93-.4.86-1.16 1.32-.75.46-1.7.46-1.48 0-2.4-1.04-.92-1.03-.92-2.74v-.17zm.82.24q0 1.32.68 2.18.7.85 1.8.85t1.8-.85q.7-.86.7-2.25v-.16q0-.84-.33-1.54-.3-.7-.87-1.1-.57-.38-1.3-.38-1.1 0-1.78.87-.7.85-.7 2.24v.14z"/><path d="M296.8 68.48q-.74 1.08-2.36 1.08-1.18 0-1.8-.7-.6-.68-.63-2.02v-4.82h.83v4.7q0 2.13 1.7 2.13 1.78 0 2.25-1.47v-5.36h.82v7.4h-.8v-.94z"/><path d="M2.54 87.72l.13.63.16-.67 1.78-5.66h.7l1.76 5.62.2.78.15-.72 1.53-5.68h.85l-2.16 7.4h-.7l-1.9-5.86-.08-.4-.1.4L3 89.42h-.7l-2.14-7.4h.84l1.56 5.7z"/><path d="M12.24 89.42h-.82v-7.4h.82v7.4zm-.96-9.54q0-.23.15-.4.15-.15.4-.15t.42.16q.16.15.16.38t-.15.4q-.15.15-.4.15t-.42-.16-.15-.4z"/><path d="M15.74 80.13v1.9h1.54v.66h-1.54v4.92q0 .62.22.92.23.3.75.3.2 0 .67-.07l.04.67q-.32.12-.87.12-.84 0-1.22-.5-.38-.48-.38-1.43V82.7h-1.36V82h1.36v-1.9h.82z"/><path d="M19.8 83.27q.4-.66 1.03-1.02t1.37-.36q1.2 0 1.77.66.6.67.6 2v4.86h-.82v-4.86q0-1-.42-1.48-.4-.48-1.32-.48-.75 0-1.34.48-.58.47-.86 1.27v5.07h-.82v-10.5h.82v4.35z"/><path d="M34.76 89.42q-.13-.35-.16-1.03-.43.55-1.1.86-.67.3-1.4.3-1.08 0-1.74-.6-.66-.6-.66-1.5 0-1.08.9-1.7.9-.64 2.5-.64h1.5v-.84q0-.8-.5-1.24-.5-.46-1.42-.46-.86 0-1.42.43-.56.45-.56 1.07h-.82q0-.9.82-1.53.82-.65 2.02-.65 1.24 0 1.95.6.7.62.73 1.73v3.5q0 1.07.23 1.6v.1h-.88zm-2.58-.6q.83 0 1.47-.38.65-.4.94-1.06v-1.63h-1.47q-1.23 0-1.92.45-.68.43-.68 1.2 0 .6.46 1.02.47.4 1.2.4z"/><path d="M46.94 85.8q0 1.73-.76 2.75-.77 1-2.05 1-1.52 0-2.33-1.06v3.76H41V82.02h.75l.04 1.05q.8-1.18 2.3-1.18 1.33 0 2.08 1 .76 1 .76 2.78v.12zm-.82-.15q0-1.4-.58-2.23-.58-.82-1.62-.82-.75 0-1.3.36-.53.36-.82 1.05v3.56q.3.64.84.97t1.3.34q1.03 0 1.6-.82.58-.83.58-2.4z"/><path d="M51.63 89.56q-.95 0-1.7-.47-.77-.47-1.2-1.3-.42-.83-.42-1.87v-.3q0-1.06.42-1.9.42-.87 1.16-1.35.73-.5 1.6-.5 1.34 0 2.13.93.8.93.8 2.52v.46h-5.28v.15q0 1.26.72 2.1.73.84 1.82.84.66 0 1.16-.24.5-.24.9-.77l.52.4q-.9 1.3-2.6 1.3zm-.15-6.98q-.93 0-1.56.68t-.77 1.82h4.44v-.1q-.05-1.06-.62-1.73-.57-.67-1.5-.67z"/><path d="M59.43 82.72q-.26-.05-.56-.05-.76 0-1.3.43-.52.43-.75 1.24v5.08h-.8v-7.4h.8v1.18q.65-1.3 2.1-1.3.33 0 .53.08l-.02.74z"/><path d="M61.4 89.42V82.7H60.2V82h1.23v-.9q0-1.13.58-1.74.58-.6 1.62-.6.46 0 .86.1l-.06.7q-.34-.1-.74-.1-.68 0-1.06.44-.37.4-.37 1.2v.9H64v.67h-1.77v6.72h-.82z"/><path d="M68.17 89.56q-.94 0-1.7-.47-.77-.47-1.2-1.3-.42-.83-.42-1.87v-.3q0-1.06.4-1.9.43-.87 1.17-1.35.74-.5 1.6-.5 1.35 0 2.13.93.8.93.8 2.52v.46h-5.28v.15q0 1.26.7 2.1.74.84 1.83.84.66 0 1.16-.24.5-.24.9-.77l.53.4q-.92 1.3-2.63 1.3zm-.15-6.98q-.92 0-1.56.68-.63.68-.77 1.82h4.43v-.1q-.03-1.06-.6-1.73-.58-.67-1.5-.67z"/><path d="M75.28 88.87q.86 0 1.43-.48.6-.5.64-1.26h.8q-.05.67-.44 1.23-.38.56-1.03.87-.65.32-1.4.32-1.44 0-2.3-1.02-.84-1-.84-2.72v-.24q0-1.1.38-1.94.4-.84 1.1-1.3.72-.45 1.68-.45 1.2 0 2 .7.8.74.85 1.92h-.8q-.04-.87-.62-1.4-.55-.54-1.42-.54-1.1 0-1.72.8-.6.8-.6 2.25v.23q0 1.42.6 2.2.6.8 1.72.8z"/><path d="M81.04 80.13v1.9h1.53v.66h-1.53v4.92q0 .62.22.92.23.3.74.3.2 0 .67-.07l.03.67q-.32.12-.87.12-.84 0-1.23-.5-.38-.48-.38-1.43V82.7h-1.36V82h1.36v-1.9h.82z"/><path d="M92.13 87.54q0-.6-.5-.98-.48-.37-1.46-.57-1-.22-1.53-.5-.54-.26-.8-.65-.27-.4-.27-.95 0-.87.73-1.44t1.87-.57q1.24 0 2 .6.74.6.74 1.6h-.8q0-.65-.56-1.1-.54-.42-1.37-.42-.8 0-1.3.37-.48.35-.48.93 0 .55.4.86.4.3 1.48.55 1.08.24 1.6.53.55.3.8.7t.27.97q0 .94-.76 1.5t-1.98.56q-1.3 0-2.1-.63-.8-.62-.8-1.58h.82q.05.72.6 1.12.57.4 1.48.4.86 0 1.38-.38.53-.4.53-.96z"/><path d="M94.33 85.6q0-1.05.4-1.9.43-.86 1.18-1.34.77-.47 1.72-.47 1.48 0 2.4 1.03.9 1.03.9 2.74v.17q0 1.07-.4 1.93-.4.86-1.17 1.32-.75.46-1.7.46-1.48 0-2.4-1.04-.92-1.03-.92-2.74v-.17zm.82.24q0 1.32.68 2.18.7.85 1.8.85 1.12 0 1.8-.85.7-.86.7-2.25v-.16q0-.84-.32-1.54-.3-.7-.88-1.1-.56-.38-1.3-.38-1.1 0-1.78.87-.7.85-.7 2.24v.14z"/><path d="M103.55 89.42h-.82v-10.5h.82v10.5z"/><path d="M110.53 88.48q-.74 1.08-2.36 1.08-1.18 0-1.8-.7-.6-.68-.63-2.02v-4.82h.82v4.7q0 2.13 1.7 2.13 1.78 0 2.25-1.47v-5.36h.83v7.4h-.8v-.94z"/><path d="M114.73 80.13v1.9h1.53v.66h-1.53v4.92q0 .62.22.92.22.3.74.3.2 0 .65-.07l.04.67q-.33.12-.9.12-.83 0-1.2-.5-.4-.48-.4-1.43V82.7h-1.35V82h1.36v-1.9h.83z"/><path d="M118.9 89.42h-.83v-7.4h.82v7.4zm-.98-9.54q0-.23.15-.4.15-.15.4-.15.27 0 .42.16.15.15.15.38t-.16.4q-.16.15-.42.15t-.4-.16-.16-.4z"/><path d="M120.67 85.6q0-1.05.4-1.9.42-.86 1.18-1.34.75-.47 1.7-.47 1.5 0 2.4 1.03.92 1.03.92 2.74v.17q0 1.07-.42 1.93-.4.86-1.16 1.32-.76.46-1.72.46-1.47 0-2.4-1.04-.9-1.03-.9-2.74v-.17zm.82.24q0 1.32.67 2.18.7.85 1.8.85t1.8-.85q.7-.86.7-2.25v-.16q0-.84-.33-1.54-.3-.7-.88-1.1-.57-.38-1.3-.38-1.1 0-1.78.87-.7.85-.7 2.24v.14z"/><path d="M129.74 82.02l.02 1.27q.42-.7 1.04-1.05.63-.36 1.38-.36 1.2 0 1.77.66.58.67.6 2v4.86h-.83v-4.86q0-1-.42-1.48-.4-.48-1.32-.48-.76 0-1.35.48-.58.47-.86 1.27v5.07h-.8v-7.4h.77z"/><path d="M136.57 88.93q0-.24.15-.4.15-.18.43-.18t.43.17q.16.17.16.4t-.16.4q-.16.15-.43.15t-.43-.15q-.15-.15-.15-.4z"/><path d="M150.95 84.98q0 1.38-.48 2.42-.47 1.04-1.36 1.6-.87.56-2.02.56-1.75 0-2.82-1.25-1.07-1.24-1.07-3.36v-1.02q0-1.36.47-2.4.48-1.06 1.36-1.62.9-.57 2.03-.57 1.15 0 2.03.55.87.56 1.35 1.57.48 1 .5 2.34v1.18zm-.84-1.08q0-1.8-.8-2.8-.82-1.03-2.24-1.03-1.38 0-2.2 1.02-.83 1-.83 2.84v1.04q0 1.77.82 2.8.82 1.04 2.23 1.04 1.43 0 2.23-1 .8-1.04.8-2.86V83.9z"/><path d="M156.3 82.72q-.25-.05-.55-.05-.76 0-1.3.43-.52.43-.75 1.24v5.08h-.8v-7.4h.8v1.18q.65-1.3 2.1-1.3.33 0 .53.08l-.02.74z"/><path d="M157.13 85.65q0-1.72.76-2.74.77-1 2.08-1 1.5 0 2.3 1.17v-4.15h.8v10.5h-.76l-.04-.98q-.78 1.12-2.3 1.12-1.3 0-2.07-1.03-.77-1.03-.77-2.78v-.1zm.82.15q0 1.4.57 2.23.57.82 1.6.82 1.5 0 2.15-1.34v-3.46q-.64-1.44-2.14-1.44-1.03 0-1.6.8-.58.82-.58 2.4z"/><path d="M168.1 89.56q-.94 0-1.7-.47t-1.18-1.3q-.43-.83-.43-1.87v-.3q0-1.06.4-1.9.42-.87 1.16-1.35.74-.5 1.6-.5 1.34 0 2.13.93.78.93.78 2.52v.46h-5.27v.15q0 1.26.72 2.1.73.84 1.82.84.66 0 1.16-.24.5-.24.9-.77l.53.4q-.9 1.3-2.62 1.3zm-.14-6.98q-.93 0-1.56.68t-.77 1.82h4.44v-.1q-.04-1.06-.6-1.73-.58-.67-1.5-.67z"/><path d="M175.9 82.72q-.25-.05-.55-.05-.76 0-1.3.43-.52.43-.75 1.24v5.08h-.8v-7.4h.8v1.18q.65-1.3 2.1-1.3.33 0 .53.08l-.02.74z"/><path d="M181.4 82.02l.02 1.27q.42-.7 1.04-1.05.63-.36 1.38-.36 1.2 0 1.77.66.6.67.6 2v4.86h-.82v-4.86q0-1-.42-1.48-.4-.48-1.32-.48-.76 0-1.35.48-.6.47-.87 1.27v5.07h-.8v-7.4h.77z"/><path d="M187.85 85.6q0-1.05.4-1.9.42-.86 1.18-1.34.75-.47 1.7-.47 1.5 0 2.4 1.03.92 1.03.92 2.74v.17q0 1.07-.42 1.93-.4.86-1.16 1.32-.75.46-1.7.46-1.48 0-2.4-1.04-.92-1.03-.92-2.74v-.17zm.82.24q0 1.32.68 2.18.7.85 1.8.85t1.8-.85q.7-.86.7-2.25v-.16q0-.84-.33-1.54-.3-.7-.88-1.1-.57-.38-1.3-.38-1.1 0-1.78.87-.7.85-.7 2.24v.14z"/><path d="M197.92 87.72l.12.63.16-.67 1.78-5.66h.7l1.76 5.62.2.78.14-.72 1.52-5.68h.85l-2.16 7.4h-.7l-1.9-5.86-.1-.4-.1.4-1.85 5.86h-.7l-2.14-7.4h.85l1.57 5.7z"/><path d="M214.8 89.42q-.14-.35-.17-1.03-.43.55-1.1.86-.66.3-1.4.3-1.08 0-1.74-.6-.66-.6-.66-1.5 0-1.08.9-1.7.9-.64 2.5-.64h1.48v-.84q0-.8-.5-1.24-.47-.46-1.4-.46-.87 0-1.43.43-.57.45-.57 1.07h-.82q0-.9.83-1.53.82-.65 2.02-.65 1.24 0 1.95.6.72.62.74 1.73v3.5q0 1.07.22 1.6v.1h-.87zm-2.58-.6q.82 0 1.46-.38.65-.4.94-1.06v-1.63h-1.46q-1.22 0-1.9.45-.7.43-.7 1.2 0 .6.45 1.02.48.4 1.22.4z"/><path d="M218.4 82.02v1.27q.43-.7 1.05-1.05.63-.36 1.38-.36 1.2 0 1.77.66.58.67.6 2v4.86h-.83v-4.86q0-1-.42-1.48-.4-.48-1.32-.48-.76 0-1.35.48-.58.47-.86 1.27v5.07h-.8v-7.4h.77z"/><path d="M224.97 85.65q0-1.72.76-2.74.78-1 2.1-1 1.5 0 2.28 1.17v-4.15h.82v10.5h-.76l-.04-.98q-.78 1.12-2.3 1.12-1.3 0-2.07-1.03-.78-1.03-.78-2.78v-.1zm.82.15q0 1.4.56 2.23.57.82 1.6.82 1.5 0 2.15-1.34v-3.46q-.63-1.44-2.13-1.44-1.03 0-1.6.8-.58.82-.58 2.4z"/><path d="M236.18 85.65q0-1.73.76-2.75.78-1 2.1-1 1.5 0 2.3 1.2l.03-1.08h.77v7.25q0 1.43-.8 2.26-.8.84-2.17.84-.77 0-1.48-.35-.7-.34-1.1-.92l.45-.5q.87 1.08 2.07 1.08 1.02 0 1.6-.6.57-.6.6-1.7v-.92q-.8 1.1-2.3 1.1-1.28 0-2.06-1.03-.78-1.02-.78-2.77v-.1zm.82.15q0 1.4.57 2.23.57.82 1.6.82 1.5 0 2.14-1.36v-3.45q-.28-.7-.82-1.08-.54-.37-1.3-.37-1.03 0-1.6.8-.58.82-.58 2.4z"/><path d="M247.14 89.56q-.95 0-1.7-.47-.77-.47-1.2-1.3-.42-.83-.42-1.87v-.3q0-1.06.4-1.9.43-.87 1.17-1.35.73-.5 1.6-.5 1.33 0 2.12.93.8.93.8 2.52v.46h-5.3v.15q0 1.26.73 2.1.73.84 1.82.84.66 0 1.16-.24.5-.24.9-.77l.53.4q-.9 1.3-2.62 1.3zm-.15-6.98q-.94 0-1.57.68-.63.68-.77 1.82h4.44v-.1q-.04-1.06-.6-1.73-.58-.67-1.5-.67z"/><path d="M252.8 80.13v1.9h1.52v.66h-1.53v4.92q0 .62.2.92.23.3.75.3.2 0 .66-.07l.05.67q-.32.12-.88.12-.84 0-1.22-.5-.38-.48-.38-1.43V82.7h-1.36V82h1.37v-1.9h.82z"/><path d="M263.13 89.42h-.82v-8.97l-2.7 1v-.76l3.4-1.27h.13v10z"/><path d="M273.1 85.27q0 2.1-.8 3.2-.76 1.1-2.26 1.1-1.48 0-2.26-1.08-.8-1.08-.8-3.13V83.6q0-2.1.77-3.2t2.27-1.07q1.48 0 2.26 1.05.78 1.04.8 3.07v1.82zm-.83-1.78q0-1.72-.56-2.6-.55-.87-1.68-.87-1.1 0-1.66.85-.56.86-.58 2.52v1.96q0 1.7.58 2.6.58.9 1.68.9t1.65-.88q.56-.88.57-2.58v-1.9z"/><path d="M280.85 85.27q0 2.1-.78 3.2-.77 1.1-2.27 1.1-1.48 0-2.26-1.08-.8-1.08-.8-3.13V83.6q0-2.1.77-3.2.8-1.07 2.28-1.07 1.48 0 2.26 1.05.78 1.04.8 3.07v1.82zm-.82-1.78q0-1.72-.56-2.6-.56-.87-1.7-.87-1.1 0-1.65.85-.56.86-.58 2.52v1.96q0 1.7.58 2.6.58.9 1.68.9t1.65-.88q.57-.88.58-2.58v-1.9z"/><path d="M282.42 81.38q0-.9.54-1.47.56-.58 1.4-.58.85 0 1.4.6.55.57.55 1.5v.5q0 .86-.53 1.45-.54.58-1.4.58-.83 0-1.4-.57-.55-.58-.55-1.52v-.48zm.66.53q0 .64.35 1.05.35.4.95.4.58 0 .92-.4.35-.4.35-1.07v-.5q0-.63-.36-1.04-.36-.42-.93-.42-.57 0-.93.4-.36.42-.36 1.1v.5zm4.35 5.08q0-.9.54-1.47.56-.57 1.4-.57.84 0 1.4.58.55.58.55 1.53v.48q0 .9-.55 1.48t-1.4.58q-.83 0-1.4-.57-.54-.6-.54-1.52v-.5zm.65.53q0 .66.35 1.07.36.4.95.4.6 0 .93-.4.36-.42.36-1.1v-.5q0-.65-.35-1.04-.34-.4-.93-.4-.58 0-.93.4t-.36 1.08v.5zm-3.44 1.1l-.5-.34 4.85-7.77.5.3-4.86 7.8z"/><path d="M6.72 105.8q0 1.73-.76 2.75-.77 1-2.06 1-1.5 0-2.32-1.06v3.77h-.8v-10.24h.75l.04 1.04q.8-1.18 2.3-1.18 1.34 0 2.1 1 .75 1 .75 2.78v.12zm-.82-.15q0-1.42-.58-2.24-.58-.8-1.62-.8-.75 0-1.3.36-.53.36-.82 1.05v3.56q.3.63.84.97.55.33 1.3.33 1.03 0 1.6-.82.58-.82.58-2.4z"/><path d="M9.46 109.42h-.83v-10.5h.83v10.5z"/><path d="M16.35 109.42q-.12-.35-.15-1.03-.43.55-1.1.86-.67.3-1.4.3-1.08 0-1.74-.6-.66-.6-.66-1.5 0-1.08.9-1.7.9-.64 2.5-.64h1.5v-.84q0-.8-.5-1.24-.5-.46-1.43-.46-.85 0-1.4.43-.57.45-.57 1.07h-.82q0-.9.82-1.53.82-.65 2.02-.65 1.23 0 1.94.6.72.62.74 1.73v3.5q0 1.07.23 1.6v.1h-.88zm-2.57-.6q.82 0 1.47-.38.65-.4.94-1.06v-1.63h-1.47q-1.23 0-1.92.45-.68.43-.68 1.2 0 .6.46 1.02.46.4 1.2.4z"/><path d="M18.85 105.65q0-1.74.76-2.75.8-1.02 2.1-1.02 1.52 0 2.3 1.2l.04-1.06h.77v7.25q0 1.42-.8 2.26-.8.83-2.16.83-.77 0-1.47-.35-.7-.33-1.1-.9l.45-.5q.87 1.07 2.07 1.07 1 0 1.6-.6.56-.6.58-1.68v-.94q-.78 1.1-2.3 1.1-1.27 0-2.05-1.03t-.78-2.77v-.1zm.83.14q0 1.4.56 2.23.57.8 1.6.8 1.5 0 2.14-1.34v-3.45q-.3-.7-.83-1.08-.54-.38-1.3-.38-1.03 0-1.6.8-.57.8-.57 2.4z"/><path d="M27.86 109.42h-.82v-7.4h.82v7.4zm-.97-9.54q0-.23.14-.4.15-.15.4-.15t.42.16q.16.15.16.38t-.16.4q-.15.15-.4.15-.27 0-.42-.16-.15-.15-.15-.4z"/><path d="M34.76 109.42q-.13-.35-.16-1.03-.43.55-1.1.86-.67.3-1.4.3-1.08 0-1.74-.6-.66-.6-.66-1.5 0-1.08.9-1.7.9-.64 2.5-.64h1.5v-.84q0-.8-.5-1.24-.5-.46-1.42-.46-.86 0-1.42.43-.56.45-.56 1.07h-.82q0-.9.82-1.53.82-.65 2.02-.65 1.24 0 1.95.6.7.62.73 1.73v3.5q0 1.07.23 1.6v.1h-.88zm-2.58-.6q.83 0 1.47-.38.65-.4.94-1.06v-1.63h-1.47q-1.23 0-1.92.45-.68.43-.68 1.2 0 .6.46 1.02.47.4 1.2.4z"/><path d="M41 102.72q-.26-.05-.56-.05-.76 0-1.3.43-.52.43-.75 1.24v5.08h-.82v-7.4h.8v1.18q.66-1.3 2.1-1.3.34 0 .54.07l-.02.75z"/><path d="M43.2 109.42h-.82v-7.4h.82v7.4zm-.97-9.54q0-.23.15-.4.15-.15.4-.15t.42.16q.16.15.16.38t-.16.4q-.15.15-.4.15t-.42-.16q-.15-.15-.15-.4z"/><path d="M49.86 107.54q0-.6-.5-.98-.48-.37-1.47-.57-1-.22-1.54-.5-.54-.26-.8-.65-.26-.4-.26-.95 0-.87.73-1.44t1.87-.57q1.24 0 1.98.6.75.6.75 1.6h-.82q0-.65-.53-1.1-.54-.42-1.37-.42-.8 0-1.3.37-.48.35-.48.93 0 .55.4.86.4.3 1.48.55 1.08.24 1.62.53.54.3.8.7.26.4.26.97 0 .94-.76 1.5t-1.97.56q-1.3 0-2.1-.63-.8-.62-.8-1.58h.82q.05.72.6 1.12.56.4 1.48.4.85 0 1.38-.38.53-.4.53-.96z"/><path d="M53.25 102.02l.03 1.2q.4-.67 1.03-1 .62-.34 1.37-.34 1.75 0 2.22 1.44.4-.7 1.05-1.06.67-.38 1.47-.38 2.38 0 2.42 2.6v4.94h-.82v-4.88q0-1-.43-1.47-.42-.48-1.37-.48-.9 0-1.5.57-.6.55-.67 1.35v4.9h-.82v-4.94q0-.95-.45-1.4-.45-.5-1.37-.5-.77 0-1.32.46-.55.44-.8 1.3v5.08h-.83v-7.4h.78z"/><path d="M67.46 105.37H64.2v-.7h3.26v.7z"/><path d="M69.53 109.42v-6.73H68.3V102h1.23v-.9q0-1.13.57-1.74.58-.6 1.62-.6.46 0 .86.1l-.06.7q-.34-.1-.74-.1-.68 0-1.05.44-.38.4-.38 1.2v.9h1.76v.67h-1.75v6.72h-.82z"/><path d="M77 102.72q-.25-.05-.55-.05-.76 0-1.3.43-.52.43-.75 1.24v5.08h-.8v-7.4h.8v1.18q.65-1.3 2.1-1.3.33 0 .53.07l-.02.75z"/><path d="M81.02 109.56q-.94 0-1.7-.46-.77-.47-1.2-1.3-.42-.83-.42-1.86v-.3q0-1.06.4-1.92.43-.85 1.17-1.34.74-.5 1.6-.5 1.35 0 2.13.93.8.93.8 2.52v.46h-5.28v.16q0 1.25.72 2.1.72.83 1.8.83.67 0 1.17-.24.52-.24.93-.77l.5.4q-.9 1.3-2.6 1.3zm-.15-6.97q-.92 0-1.56.66-.62.68-.75 1.82h4.43v-.1q-.03-1.05-.6-1.72-.58-.67-1.5-.67z"/><path d="M88.27 109.56q-.95 0-1.7-.46-.77-.47-1.2-1.3-.42-.83-.42-1.86v-.3q0-1.06.4-1.92.43-.85 1.17-1.34.74-.5 1.6-.5 1.34 0 2.13.93.8.93.8 2.52v.46h-5.28v.16q0 1.25.7 2.1.74.83 1.83.83.66 0 1.16-.24.5-.24.9-.77l.53.4q-.92 1.3-2.63 1.3zm-.15-6.97q-.93 0-1.56.66-.63.68-.77 1.82h4.43v-.1q-.04-1.05-.6-1.72-.58-.67-1.5-.67z"/><path d="M102.02 105.8q0 1.73-.77 2.75-.76 1-2.05 1-1.52 0-2.32-1.06v3.77h-.82v-10.24h.76l.04 1.04q.8-1.18 2.32-1.18 1.33 0 2.08 1 .76 1 .76 2.78v.12zm-.82-.14q0-1.42-.58-2.24-.6-.82-1.62-.82-.76 0-1.3.36-.54.37-.82 1.06v3.54q.3.64.84.97t1.3.34q1.02 0 1.6-.82.58-.83.58-2.4z"/><path d="M104.75 109.42h-.82v-7.4h.82v7.4zm-.97-9.54q0-.23.15-.4.15-.15.4-.15.27 0 .42.16.16.15.16.38t-.15.4q-.15.15-.4.15-.27 0-.42-.16-.15-.15-.15-.4z"/><path d="M109.84 109.56q-.95 0-1.7-.46-.77-.47-1.2-1.3-.42-.83-.42-1.86v-.3q0-1.06.4-1.92.43-.85 1.17-1.34.73-.5 1.6-.5 1.33 0 2.12.93.8.93.8 2.52v.46h-5.28v.16q0 1.25.7 2.1.74.83 1.83.83.66 0 1.16-.24.5-.24.9-.77l.53.4q-.9 1.3-2.62 1.3zm-.15-6.97q-.94 0-1.57.66-.63.68-.77 1.82h4.44v-.1q-.04-1.05-.6-1.72-.58-.67-1.5-.67z"/><path d="M116.96 108.87q.85 0 1.43-.48.57-.5.6-1.26h.8q-.03.68-.42 1.24-.4.55-1.04.87-.64.3-1.38.3-1.46 0-2.3-1-.86-1-.86-2.72v-.25q0-1.1.38-1.93.38-.84 1.1-1.3.7-.46 1.67-.46 1.22 0 2 .72.8.72.85 1.9h-.8q-.04-.87-.6-1.4-.58-.53-1.45-.53-1.1 0-1.72.8-.6.8-.6 2.23v.24q0 1.4.6 2.2.6.8 1.73.8z"/><path d="M124.3 109.56q-.94 0-1.7-.46-.76-.47-1.18-1.3-.43-.83-.43-1.86v-.3q0-1.06.4-1.92.42-.85 1.16-1.34.74-.5 1.6-.5 1.34 0 2.13.93.78.93.78 2.52v.46h-5.27v.16q0 1.25.72 2.1.73.83 1.82.83.66 0 1.16-.24.5-.24.9-.77l.53.4q-.9 1.3-2.62 1.3zm-.14-6.97q-.93 0-1.56.66-.63.68-.77 1.82h4.44v-.1q-.04-1.05-.6-1.72-.58-.67-1.5-.67z"/><path d="M131.66 105.6q0-1.06.4-1.9.42-.87 1.18-1.34.75-.48 1.7-.48 1.5 0 2.4 1.04.92 1.04.92 2.74v.18q0 1.07-.42 1.93-.4.85-1.16 1.32-.75.45-1.7.45-1.48 0-2.4-1.03-.92-1.04-.92-2.75v-.16zm.82.24q0 1.32.68 2.18.7.84 1.8.84t1.8-.84q.7-.86.7-2.25v-.16q0-.84-.33-1.54-.3-.7-.88-1.1-.57-.38-1.3-.38-1.1 0-1.78.86-.7.86-.7 2.25v.14z"/><path d="M140.54 109.42v-6.73h-1.23V102h1.24v-.9q0-1.13.57-1.74.6-.6 1.62-.6.47 0 .87.1l-.07.7q-.34-.1-.74-.1-.7 0-1.07.44-.37.4-.37 1.2v.9h1.76v.67h-1.76v6.72h-.82z"/><path d="M149.8 107.72l.1.64.17-.67 1.78-5.67h.7l1.76 5.6.2.8.15-.73 1.52-5.67h.85l-2.15 7.4h-.7l-1.9-5.87-.1-.4-.08.4-1.88 5.86h-.7l-2.14-7.4h.84l1.57 5.7z"/><path d="M162 102.72q-.26-.05-.56-.05-.76 0-1.3.43-.52.43-.75 1.24v5.08h-.82v-7.4h.8v1.18q.66-1.3 2.1-1.3.34 0 .54.07l-.02.75z"/><path d="M164.2 109.42h-.82v-7.4h.82v7.4zm-.97-9.54q0-.23.15-.4.15-.15.4-.15.27 0 .42.16.16.15.16.38t-.16.4q-.15.15-.4.15-.27 0-.42-.16-.15-.15-.15-.4z"/><path d="M167.7 100.13v1.9h1.53v.66h-1.53v4.92q0 .62.22.92.22.3.74.3.2 0 .66-.07l.04.67q-.32.12-.88.12-.84 0-1.22-.5-.38-.48-.38-1.43v-4.94h-1.36V102h1.36v-1.9h.82z"/><path d="M171.85 109.42h-.82v-7.4h.82v7.4zm-.97-9.54q0-.23.15-.4.15-.15.4-.15.27 0 .42.16.16.15.16.38t-.15.4q-.15.15-.4.15-.27 0-.42-.16-.15-.15-.15-.4z"/><path d="M174.86 102.02l.02 1.26q.42-.68 1.04-1.03.63-.37 1.38-.37 1.2 0 1.77.67.58.67.6 2v4.87h-.83v-4.86q0-1-.42-1.48-.4-.5-1.32-.5-.76 0-1.35.5-.58.46-.86 1.27v5.07h-.82v-7.4h.78z"/><path d="M181.44 105.65q0-1.74.76-2.75.78-1.02 2.1-1.02 1.5 0 2.3 1.2l.03-1.06h.77v7.25q0 1.42-.8 2.26-.8.83-2.17.83-.77 0-1.48-.35-.7-.33-1.1-.9l.46-.5q.88 1.07 2.08 1.07 1.02 0 1.6-.6.57-.6.6-1.68v-.94q-.8 1.1-2.3 1.1-1.28 0-2.06-1.03t-.78-2.77v-.1zm.82.14q0 1.4.57 2.23.57.8 1.6.8 1.5 0 2.14-1.34v-3.45q-.3-.7-.83-1.08-.54-.38-1.3-.38-1.03 0-1.6.8-.58.8-.58 2.4z"/><path d="M189.46 108.93q0-.24.15-.4.16-.17.44-.17t.43.17q.16.16.16.4t-.16.4q-.16.15-.43.15t-.43-.15q-.14-.16-.14-.4z"/></g></g></g></svg>