<svg xmlns="http://www.w3.org/2000/svg" width="320" height="120" viewBox="0 0 320.00001 120"><g><g fill="#666"><g><path d="M11.28 1.23H6.4v13.2H5.2V1.22H.35V.2h10.94v1.03z"/><path d="M24.12 14.42h-1.2V7.6h-8.13v6.82h-1.2V.2h1.2v6.4h8.1V.2h1.22v14.22z"/><path d="M35.58 7.6h-6.65v5.8h7.64v1.02h-8.84V.2h8.8v1.03h-7.6V6.6h6.65v1z"/><path d="M47.14 10.92q0-1.18-.83-1.86-.82-.7-3.03-1.3-2.2-.63-3.22-1.37-1.44-1.04-1.44-2.72 0-1.63 1.34-2.65Q41.3 0 43.38 0q1.42 0 2.53.55 1.13.55 1.75 1.53.6.97.6 2.17h-1.2q0-1.45-1-2.33-1-.9-2.67-.9-1.63 0-2.6.74-.96.73-.96 1.9 0 1.08.87 1.77.86.68 2.77 1.2 1.9.52 2.9 1.1 1 .55 1.48 1.33.5.78.5 1.84 0 1.68-1.35 2.7-1.33 1.02-3.53 1.02-1.5 0-2.76-.54-1.24-.54-1.9-1.5-.64-.97-.64-2.22h1.2q0 1.5 1.12 2.37 1.12.87 3 .87 1.65 0 2.65-.73t1-1.95z"/><path d="M52.4 14.42h-1.2V.2h1.2v14.22z"/><path d="M64.3 10.92q0-1.18-.84-1.86-.83-.7-3.04-1.3-2.2-.63-3.22-1.37-1.45-1.04-1.45-2.72 0-1.63 1.34-2.65T60.52 0q1.42 0 2.53.55 1.12.55 1.74 1.53.6.97.6 2.17h-1.2q0-1.45-1-2.33-1-.9-2.67-.9-1.63 0-2.6.74-.96.73-.96 1.9 0 1.08.86 1.77.87.68 2.8 1.2 1.9.52 2.9 1.1.97.55 1.47 1.33t.5 1.84q0 1.68-1.35 2.7-1.34 1.02-3.53 1.02-1.5 0-2.77-.54-1.25-.54-1.9-1.5-.64-.97-.64-2.22h1.2q0 1.5 1.13 2.37 1.12.87 3 .87 1.65 0 2.65-.73t1-1.95z"/><path d="M74.16 8.63v5.8h-1.2V.2h4.84q2.22 0 3.5 1.13 1.3 1.14 1.3 3.12 0 2-1.25 3.1-1.23 1.08-3.57 1.08h-3.62zm0-1.02h3.64q1.75 0 2.67-.82.92-.83.92-2.3 0-1.5-.93-2.35-.9-.88-2.6-.9h-3.7V7.6z"/><path d="M91.6 10.44h-6.44l-1.47 3.98h-1.27L87.8.2h1.16l5.38 14.22H93.1l-1.5-3.98zM85.54 9.4h5.7l-2.85-7.73-2.85 7.74z"/><path d="M97.64 8.63v5.8h-1.2V.2h4.84q2.22 0 3.5 1.13 1.3 1.14 1.3 3.12 0 2-1.25 3.1-1.23 1.08-3.58 1.08h-3.6zm0-1.02h3.64q1.75 0 2.67-.82.92-.83.92-2.3 0-1.5-.92-2.35-.9-.88-2.6-.9h-3.7V7.6z"/><path d="M116.6 7.6h-6.65v5.8h7.64v1.02h-8.86V.2h8.8v1.03h-7.6V6.6h6.66v1z"/><path d="M125.43 8.5h-4.13v5.92h-1.22V.2h4.62q2.28 0 3.56 1.1t1.28 3.1q0 1.36-.8 2.4-.8 1.05-2.15 1.45l3.54 6.04v.12h-1.28l-3.43-5.92zm-4.13-1.02h3.68q1.5 0 2.43-.86.93-.86.93-2.23 0-1.5-.96-2.34-.96-.83-2.7-.83h-3.38v6.25z"/><path d="M140.86 10.92q0-1.18-.83-1.86-.83-.7-3.04-1.3-2.22-.63-3.23-1.37-1.45-1.04-1.45-2.72 0-1.63 1.34-2.65Q135 0 137.1 0q1.4 0 2.53.55 1.12.55 1.73 1.53.62.97.62 2.17h-1.2q0-1.45-1-2.33-1-.9-2.68-.9-1.63 0-2.6.74-.97.73-.97 1.9 0 1.08.87 1.77.87.68 2.78 1.2 1.92.52 2.9 1.1 1 .55 1.5 1.33t.5 1.84q0 1.68-1.36 2.7-1.34 1.02-3.54 1.02-1.5 0-2.76-.54-1.25-.54-1.9-1.5-.65-.97-.65-2.22h1.2q0 1.5 1.13 2.37 1.12.87 2.98.87 1.66 0 2.67-.73t1-1.95z"/></g><g><path d="M4 44.9l3.05-5.43h.98l-3.6 6.2v3.75H3.6v-3.75L0 39.47h1l3 5.43z"/><path d="M8.4 45.6q0-1.05.42-1.9.42-.86 1.17-1.34.75-.47 1.7-.47 1.48 0 2.4 1.03.9 1.03.9 2.74v.17q0 1.07-.4 1.93-.42.86-1.17 1.32-.75.46-1.7.46-1.48 0-2.4-1.04-.92-1.03-.92-2.74v-.17zm.83.24q0 1.32.68 2.18.7.85 1.82.85 1.1 0 1.8-.85.68-.86.68-2.25v-.16q0-.84-.32-1.54-.3-.7-.88-1.1-.57-.38-1.3-.38-1.1 0-1.78.87-.7.85-.7 2.24v.14z"/><path d="M21.46 48.48q-.73 1.08-2.35 1.08-1.18 0-1.8-.7-.6-.68-.62-2.02v-4.82h.8v4.7q0 2.13 1.72 2.13 1.78 0 2.25-1.47v-5.36h.82v7.4h-.8v-.94z"/><path d="M30.54 48.87q.86 0 1.43-.48.58-.5.63-1.26h.8q-.05.67-.44 1.23-.4.56-1.04.87-.64.32-1.38.32-1.45 0-2.3-1.02-.86-1-.86-2.72v-.24q0-1.1.4-1.94.37-.84 1.08-1.3.72-.45 1.68-.45 1.2 0 2 .7.8.74.85 1.92h-.8q-.05-.87-.63-1.4-.57-.54-1.43-.54-1.1 0-1.73.8-.6.8-.6 2.25v.23q0 1.42.6 2.2.63.8 1.74.8z"/><path d="M39.7 49.42q-.13-.35-.16-1.03-.43.55-1.1.86-.66.3-1.4.3-1.08 0-1.74-.6-.66-.6-.66-1.5 0-1.08.9-1.7.9-.64 2.5-.64h1.5v-.84q0-.8-.5-1.24-.5-.46-1.42-.46-.86 0-1.42.43-.56.45-.56 1.07h-.82q0-.9.82-1.53.82-.65 2.02-.65 1.24 0 1.95.6.72.62.75 1.73v3.5q0 1.07.22 1.6v.1h-.87zm-2.57-.6q.82 0 1.46-.38.64-.4.93-1.06v-1.63h-1.46q-1.22 0-1.92.45-.7.43-.7 1.2 0 .6.47 1.02.47.4 1.2.4z"/><path d="M43.3 42.02l.03 1.27q.4-.7 1.04-1.05.62-.36 1.37-.36 1.2 0 1.77.66.6.67.6 2v4.86h-.82v-4.86q0-1-.42-1.48-.4-.48-1.32-.48-.76 0-1.35.48-.6.47-.87 1.27v5.07h-.8v-7.4h.77z"/><path d="M57.04 42.72q-.26-.05-.55-.05-.78 0-1.3.43-.54.43-.77 1.24v5.08h-.8v-7.4h.8v1.18q.65-1.3 2.1-1.3.33 0 .53.08l-.02.74z"/><path d="M61.05 49.56q-.94 0-1.7-.47-.77-.47-1.2-1.3-.4-.83-.4-1.87v-.3q0-1.06.4-1.9.4-.87 1.15-1.35.74-.5 1.6-.5 1.35 0 2.13.93.8.93.8 2.52v.46h-5.28v.15q0 1.26.72 2.1.72.84 1.82.84.64 0 1.14-.24.5-.24.92-.77l.5.4q-.9 1.3-2.6 1.3zm-.15-6.98q-.92 0-1.56.68-.63.68-.76 1.82H63v-.1q-.02-1.06-.6-1.73-.57-.67-1.5-.67z"/><path d="M66.35 49.42h-.82v-10.5h.82v10.5z"/><path d="M70.92 48.24l2.16-6.22h.9l-3.17 8.66-.16.38q-.6 1.35-1.88 1.35-.3 0-.63-.1v-.67l.42.05q.6 0 .97-.3.38-.3.64-1.02l.36-1-2.8-7.34h.9l2.3 6.22z"/><path d="M78.2 45.6q0-1.05.4-1.9.42-.86 1.17-1.34.76-.47 1.7-.47 1.5 0 2.4 1.03.92 1.03.92 2.74v.17q0 1.07-.42 1.93-.4.86-1.17 1.32-.74.46-1.7.46-1.47 0-2.4-1.04-.9-1.03-.9-2.74v-.17zm.8.24q0 1.32.7 2.18.68.85 1.8.85 1.1 0 1.8-.85.68-.86.68-2.25v-.16q0-.84-.3-1.54-.33-.7-.9-1.1-.56-.38-1.3-.38-1.1 0-1.78.87-.7.85-.7 2.24v.14z"/><path d="M87.27 42.02l.03 1.27q.4-.7 1.03-1.05.63-.36 1.38-.36 1.2 0 1.78.66.58.67.6 2v4.86h-.83v-4.86q0-1-.42-1.48-.4-.48-1.32-.48-.75 0-1.34.48-.58.47-.86 1.27v5.07h-.8v-7.4h.77z"/><path d="M102.35 48.48q-.74 1.08-2.36 1.08-1.2 0-1.8-.7-.63-.68-.64-2.02v-4.82h.8v4.7q0 2.13 1.72 2.13 1.78 0 2.25-1.47v-5.36h.82v7.4h-.8v-.94z"/><path d="M109.7 47.54q0-.6-.5-.98-.47-.37-1.46-.57-.98-.22-1.53-.5-.53-.26-.8-.65-.25-.4-.25-.95 0-.87.73-1.44t1.87-.57q1.24 0 1.98.6.76.6.76 1.6h-.84q0-.65-.54-1.1-.54-.42-1.37-.42-.8 0-1.3.37-.48.35-.48.93 0 .55.4.86.4.3 1.48.55 1.08.24 1.62.53.54.3.8.7.26.4.26.97 0 .94-.76 1.5-.75.56-1.97.56-1.3 0-2.1-.63-.8-.62-.8-1.58h.82q.05.72.6 1.12.56.4 1.48.4.85 0 1.38-.38.53-.4.53-.96z"/><path d="M116.37 49.42V42.7h-1.23V42h1.23v-.9q0-1.13.57-1.74.58-.6 1.6-.6.48 0 .88.1l-.06.7q-.34-.1-.74-.1-.68 0-1.06.44-.37.4-.37 1.2v.9h1.75v.67h-1.76v6.72h-.83z"/><path d="M119.97 45.6q0-1.05.4-1.9.42-.86 1.18-1.34.75-.47 1.7-.47 1.5 0 2.4 1.03.92 1.03.92 2.74v.17q0 1.07-.42 1.93-.4.86-1.16 1.32-.76.46-1.73.46-1.47 0-2.4-1.04-.9-1.03-.9-2.74v-.17zm.82.24q0 1.32.67 2.18.7.85 1.8.85t1.8-.85q.7-.86.7-2.25v-.16q0-.84-.33-1.54-.3-.7-.88-1.1-.57-.38-1.3-.38-1.1 0-1.78.87-.7.85-.7 2.24v.14z"/><path d="M131.7 42.72q-.27-.05-.57-.05-.76 0-1.3.43-.52.43-.75 1.24v5.08h-.8v-7.4h.8v1.18q.65-1.3 2.1-1.3.33 0 .53.08v.74z"/><path d="M141.06 49.42q-.13-.35-.16-1.03-.43.55-1.1.86-.66.3-1.4.3-1.08 0-1.74-.6-.66-.6-.66-1.5 0-1.08.9-1.7.9-.64 2.5-.64h1.5v-.84q0-.8-.5-1.24-.5-.46-1.42-.46-.86 0-1.42.43-.56.45-.56 1.07h-.82q0-.9.82-1.53.82-.65 2.02-.65 1.24 0 1.95.6.7.62.74 1.73v3.5q0 1.07.23 1.6v.1h-.87zm-2.57-.6q.8 0 1.45-.38.65-.4.94-1.06v-1.63h-1.47q-1.22 0-1.92.45-.68.43-.68 1.2 0 .6.46 1.02.47.4 1.2.4z"/><path d="M144.63 42.02l.02 1.2q.4-.66 1.03-1 .6-.33 1.37-.33 1.75 0 2.22 1.42.4-.7 1.06-1.06.66-.37 1.46-.37 2.37 0 2.42 2.58v4.94h-.82v-4.87q0-1-.43-1.47-.42-.48-1.37-.48-.88 0-1.5.57-.6.56-.67 1.36v4.9h-.82v-4.95q0-.95-.44-1.4-.44-.48-1.35-.48-.77 0-1.32.44t-.82 1.3v5.08h-.82v-7.4h.8z"/><path d="M160.97 49.42q-.13-.35-.16-1.03-.42.55-1.1.86-.65.3-1.4.3-1.07 0-1.73-.6-.66-.6-.66-1.5 0-1.08.9-1.7.9-.64 2.52-.64h1.48v-.84q0-.8-.5-1.24-.48-.46-1.4-.46-.87 0-1.43.43-.56.45-.56 1.07h-.8q0-.9.8-1.53.83-.65 2.03-.65 1.24 0 1.95.6.7.62.74 1.73v3.5q0 1.07.22 1.6v.1h-.87zm-2.57-.6q.82 0 1.46-.38.65-.4.94-1.06v-1.63h-1.46q-1.22 0-1.92.45-.7.43-.7 1.2 0 .6.47 1.02.46.4 1.2.4z"/><path d="M164.33 48.73h4.8v.7h-5.82v-.6l4.5-6.1h-4.35v-.7h5.38v.6l-4.5 6.1z"/><path d="M171.52 49.42h-.82v-7.4h.82v7.4zm-.97-9.54q0-.23.15-.4.15-.15.4-.15.27 0 .42.16.16.15.16.38t-.16.4q-.15.15-.4.15-.27 0-.42-.16t-.15-.4z"/><path d="M174.53 42.02l.02 1.27q.42-.7 1.04-1.05.6-.36 1.37-.36 1.2 0 1.77.66.58.67.58 2v4.86h-.8v-4.86q-.02-1-.43-1.48-.42-.48-1.33-.48-.76 0-1.35.48-.58.47-.86 1.27v5.07h-.8v-7.4h.77z"/><path d="M181.1 45.65q0-1.73.76-2.75.77-1 2.1-1 1.5 0 2.3 1.2l.03-1.08h.76v7.25q0 1.43-.8 2.26-.8.84-2.17.84-.78 0-1.5-.35-.68-.34-1.1-.92l.47-.5q.87 1.08 2.07 1.08 1.02 0 1.6-.6.57-.6.6-1.7v-.92q-.8 1.1-2.3 1.1-1.3 0-2.06-1.03-.78-1.02-.78-2.77v-.1zm.82.15q0 1.4.57 2.23.56.82 1.6.82 1.5 0 2.13-1.36v-3.45q-.3-.7-.83-1.08-.54-.37-1.3-.37-1.03 0-1.6.8-.58.82-.58 2.4z"/><path d="M193.88 40.13v1.9h1.53v.66h-1.52v4.92q0 .62.2.92.24.3.76.3.2 0 .66-.07l.04.67q-.32.12-.88.12-.84 0-1.22-.5-.38-.48-.38-1.43V42.7h-1.36V42h1.36v-1.9h.82z"/><path d="M197.94 43.27q.4-.66 1.03-1.02t1.37-.36q1.2 0 1.77.66.6.67.6 2v4.86h-.8v-4.86q-.02-1-.44-1.48-.4-.48-1.32-.48-.75 0-1.34.48-.58.47-.86 1.27v5.07h-.82v-10.5h.82v4.35z"/><path d="M207.67 49.56q-.95 0-1.7-.47-.77-.47-1.2-1.3-.42-.83-.42-1.87v-.3q0-1.06.4-1.9.43-.87 1.17-1.35.73-.5 1.6-.5 1.34 0 2.13.93.8.93.8 2.52v.46h-5.3v.15q0 1.26.73 2.1.73.84 1.82.84.66 0 1.16-.24.5-.24.9-.77l.52.4q-.9 1.3-2.6 1.3zm-.15-6.98q-.93 0-1.56.68t-.77 1.82h4.43v-.1q-.04-1.06-.6-1.73-.58-.67-1.5-.67z"/><path d="M216.48 47.54q0-.6-.5-.98-.48-.37-1.47-.57-.97-.22-1.52-.5-.54-.26-.8-.65-.26-.4-.26-.95 0-.87.73-1.44t1.87-.57q1.24 0 1.98.6.76.6.76 1.6h-.82q0-.65-.55-1.1-.55-.42-1.38-.42-.8 0-1.3.37-.48.35-.48.93 0 .55.4.86.4.3 1.48.55 1.08.24 1.62.53.54.3.8.7.26.4.26.97 0 .94-.76 1.5-.75.56-1.97.56-1.3 0-2.1-.63-.8-.62-.8-1.58h.82q.04.72.6 1.12.55.4 1.47.4.85 0 1.38-.38.53-.4.53-.96z"/><path d="M220.05 49.42h-.82v-7.4h.82v7.4zm-.97-9.54q0-.23.15-.4.15-.15.4-.15t.42.16q.16.15.16.38t-.15.4q-.15.15-.4.15t-.42-.16-.15-.4z"/><path d="M226.7 47.54q0-.6-.5-.98-.47-.37-1.46-.57-.98-.22-1.53-.5-.53-.26-.8-.65-.25-.4-.25-.95 0-.87.73-1.44t1.87-.57q1.24 0 1.98.6.76.6.76 1.6h-.83q0-.65-.55-1.1-.54-.42-1.37-.42-.8 0-1.3.37-.48.35-.48.93 0 .55.4.86.4.3 1.48.55 1.08.24 1.62.53.54.3.8.7t.26.97q0 .94-.76 1.5-.75.56-1.97.56-1.3 0-2.1-.63-.8-.62-.8-1.58h.82q.05.72.6 1.12.56.4 1.48.4.85 0 1.38-.38.53-.4.53-.96z"/><path d="M238.73 45.8q0 1.73-.77 2.75-.77 1-2.05 1-1.5 0-2.3-1.06v3.76h-.83V42.02h.76l.04 1.05q.8-1.18 2.32-1.18 1.32 0 2.07 1 .76 1 .76 2.78v.12zm-.82-.15q0-1.4-.58-2.23-.58-.82-1.62-.82-.75 0-1.3.36t-.8 1.05v3.56q.28.64.83.97.54.34 1.3.34 1.02 0 1.6-.82.58-.83.58-2.4z"/><path d="M245.22 49.42q-.13-.35-.16-1.03-.43.55-1.1.86-.66.3-1.4.3-1.08 0-1.74-.6-.66-.6-.66-1.5 0-1.08.9-1.7.9-.64 2.5-.64h1.5v-.84q0-.8-.5-1.24-.5-.46-1.42-.46-.86 0-1.42.43-.56.45-.56 1.07h-.82q0-.9.82-1.53.82-.65 2.02-.65 1.24 0 1.95.6.7.62.74 1.73v3.5q0 1.07.22 1.6v.1h-.88zm-2.57-.6q.82 0 1.46-.38.66-.4.95-1.06v-1.63h-1.46q-1.23 0-1.93.45-.7.43-.7 1.2 0 .6.47 1.02.47.4 1.2.4z"/><path d="M254 45.8q0 1.73-.78 2.75-.77 1-2.05 1-1.52 0-2.32-1.06v3.76h-.82V42.02h.76l.03 1.05q.8-1.18 2.32-1.18 1.33 0 2.08 1 .76 1 .76 2.78v.12zm-.83-.15q0-1.4-.6-2.23-.57-.82-1.6-.82-.76 0-1.3.36t-.82 1.05v3.56q.3.64.84.97.53.34 1.28.34 1.03 0 1.6-.82.6-.83.6-2.4z"/><path d="M258.67 49.56q-.95 0-1.7-.47-.77-.47-1.2-1.3-.42-.83-.42-1.87v-.3q0-1.06.4-1.9.43-.87 1.17-1.35.73-.5 1.6-.5 1.34 0 2.13.93.8.93.8 2.52v.46h-5.3v.15q0 1.26.73 2.1.73.84 1.82.84.66 0 1.16-.24.5-.24.9-.77l.52.4q-.9 1.3-2.6 1.3zm-.15-6.98q-.93 0-1.56.68t-.77 1.82h4.43v-.1q-.04-1.06-.6-1.73-.58-.67-1.5-.67z"/><path d="M266.47 42.72q-.26-.05-.56-.05-.75 0-1.3.43-.5.43-.74 1.24v5.08h-.8v-7.4h.8v1.18q.65-1.3 2.1-1.3.33 0 .53.08l-.03.74z"/><path d="M272.18 47.54q0-.6-.5-.98-.48-.37-1.47-.57-.97-.22-1.52-.5-.54-.26-.8-.65-.26-.4-.26-.95 0-.87.73-1.44t1.87-.57q1.24 0 1.98.6.76.6.76 1.6h-.83q0-.65-.54-1.1-.55-.42-1.38-.42-.8 0-1.3.37-.48.35-.48.93 0 .55.4.86.4.3 1.48.55 1.08.24 1.62.53.54.3.8.7.26.4.26.97 0 .94-.76 1.5-.75.56-1.97.56-1.3 0-2.1-.63-.8-.62-.8-1.58h.82q.04.72.6 1.12.55.4 1.47.4.85 0 1.38-.38.53-.4.53-.96z"/><path d="M274.76 48.93q0-.24.15-.4.16-.18.44-.18.27 0 .43.17.15.17.15.4t-.15.4q-.16.15-.43.15-.28 0-.43-.15-.14-.15-.14-.4z"/><path d="M289.14 44.98q0 1.38-.48 2.42-.47 1.04-1.36 1.6-.88.56-2.03.56-1.75 0-2.82-1.25-1.07-1.24-1.07-3.36v-1.02q0-1.36.48-2.4.48-1.06 1.36-1.62.88-.57 2.03-.57t2.03.55q.88.56 1.36 1.57.48 1 .5 2.34v1.18zm-.84-1.08q0-1.8-.82-2.8-.8-1.03-2.23-1.03-1.38 0-2.2 1.02-.83 1-.83 2.84v1.04q0 1.77.82 2.8.82 1.04 2.23 1.04 1.43 0 2.23-1 .8-1.04.8-2.86V43.9z"/><path d="M295.84 48.48q-.74 1.08-2.36 1.08-1.2 0-1.8-.7-.62-.68-.63-2.02v-4.82h.8v4.7q0 2.13 1.72 2.13 1.78 0 2.25-1.47v-5.36h.82v7.4h-.8v-.94z"/><path d="M302.18 42.72q-.26-.05-.56-.05-.76 0-1.3.43-.52.43-.75 1.24v5.08h-.8v-7.4h.8v1.18q.65-1.3 2.1-1.3.33 0 .53.08l-.02.74z"/><path d="M2.67 67.72l.13.63.16-.67 1.78-5.66h.7l1.75 5.62.18.78.16-.72 1.52-5.68h.85l-2.15 7.4h-.7l-1.9-5.86-.08-.4-.1.4-1.86 5.86h-.7l-2.13-7.4h.84l1.57 5.7z"/><path d="M14.88 62.72q-.26-.05-.56-.05-.76 0-1.3.43-.52.43-.75 1.24v5.08h-.8v-7.4h.8v1.18q.65-1.3 2.1-1.3.33 0 .53.08l-.02.74z"/><path d="M17.08 69.42h-.82v-7.4h.82v7.4zm-.97-9.54q0-.23.16-.4.15-.15.4-.15t.42.16q.16.15.16.38t-.16.4q-.15.15-.4.15t-.42-.16-.15-.4z"/><path d="M20.58 60.13v1.9h1.53v.66H20.6v4.92q0 .62.2.92.24.3.76.3.2 0 .66-.07l.04.67q-.32.12-.88.12-.84 0-1.22-.5-.38-.48-.38-1.43V62.7H18.4V62h1.36v-1.9h.82z"/><path d="M26.68 69.56q-.94 0-1.7-.47-.77-.47-1.2-1.3-.4-.83-.4-1.87v-.3q0-1.06.4-1.9.4-.87 1.15-1.35.74-.5 1.6-.5 1.35 0 2.13.93.8.93.8 2.52v.46h-5.28v.15q0 1.26.72 2.1.72.84 1.82.84.65 0 1.15-.24.5-.24.92-.77l.5.4q-.9 1.3-2.62 1.3zm-.15-6.98q-.92 0-1.56.68-.63.68-.76 1.82h4.44v-.1q-.03-1.06-.6-1.73-.58-.67-1.5-.67z"/><path d="M34.48 62.72q-.26-.05-.55-.05-.77 0-1.3.43t-.75 1.24v5.08h-.82v-7.4h.8l.02 1.18q.65-1.3 2.08-1.3.34 0 .54.08l-.02.74z"/><path d="M40.2 67.54q0-.6-.5-.98-.48-.37-1.47-.57-.98-.22-1.53-.5-.54-.26-.8-.65-.26-.4-.26-.95 0-.87.73-1.44t1.87-.57q1.24 0 1.98.6.75.6.75 1.6h-.82q0-.65-.54-1.1-.53-.42-1.36-.42-.8 0-1.3.37-.48.35-.48.93 0 .55.4.86.4.3 1.48.55 1.08.24 1.62.53.54.3.8.7t.26.97q0 .94-.76 1.5t-1.97.56q-1.3 0-2.1-.63-.8-.62-.8-1.58h.8q.06.72.6 1.12.57.4 1.5.4.84 0 1.37-.38.53-.4.53-.96z"/><path d="M49 68.87q.85 0 1.43-.48.58-.5.63-1.26h.78q-.03.67-.42 1.23-.4.56-1.04.87-.64.32-1.38.32-1.46 0-2.3-1.02-.86-1-.86-2.72v-.24q0-1.1.38-1.94.4-.84 1.1-1.3.72-.45 1.67-.45 1.2 0 2 .7.8.74.84 1.92h-.78q-.06-.87-.63-1.4-.57-.54-1.44-.54-1.1 0-1.73.8-.6.8-.6 2.25v.23q0 1.42.6 2.2.62.8 1.73.8z"/><path d="M58.15 69.42q-.12-.35-.15-1.03-.43.55-1.1.86-.67.3-1.4.3-1.08 0-1.74-.6-.66-.6-.66-1.5 0-1.08.9-1.7.9-.64 2.5-.64H58v-.84q0-.8-.5-1.24-.5-.46-1.43-.46-.85 0-1.4.43-.57.45-.57 1.07h-.82q0-.9.82-1.53.82-.65 2.02-.65 1.23 0 1.94.6.72.62.74 1.73v3.5q0 1.07.23 1.6v.1h-.88zm-2.57-.6q.82 0 1.47-.38.65-.4.94-1.06v-1.63h-1.47q-1.23 0-1.92.45-.68.43-.68 1.2 0 .6.46 1.02.46.4 1.2.4z"/><path d="M61.76 62.02l.02 1.27q.42-.7 1.04-1.05.62-.36 1.38-.36 1.2 0 1.77.66.58.67.58 2v4.86h-.8v-4.86q-.02-1-.43-1.48-.4-.48-1.32-.48-.76 0-1.35.48-.58.47-.86 1.27v5.07h-.82v-7.4h.78z"/><path d="M72.9 63.27q.4-.66 1.02-1.02.63-.36 1.38-.36 1.2 0 1.77.66.58.67.6 2v4.86h-.83v-4.86q0-1-.42-1.48-.4-.48-1.32-.48-.76 0-1.35.48-.58.47-.86 1.27v5.07h-.82v-10.5h.8v4.35z"/><path d="M84.43 69.42q-.12-.35-.16-1.03-.43.55-1.1.86-.66.3-1.4.3-1.07 0-1.73-.6-.66-.6-.66-1.5 0-1.08.9-1.7.9-.64 2.5-.64h1.5v-.84q0-.8-.5-1.24-.5-.46-1.43-.46-.85 0-1.4.43-.57.45-.57 1.07h-.82q0-.9.82-1.53.82-.65 2-.65 1.25 0 1.96.6.72.62.74 1.73v3.5q0 1.08.23 1.6v.1h-.87zm-2.57-.6q.82 0 1.46-.38.65-.4.95-1.06v-1.63H82.8q-1.22 0-1.9.45-.7.43-.7 1.2 0 .6.46 1.02.46.4 1.2.4z"/><path d="M88.03 62.02l.03 1.27q.42-.7 1.04-1.05.62-.36 1.37-.36 1.2 0 1.77.66.6.67.6 2v4.86H92v-4.86q0-1-.43-1.48-.42-.48-1.32-.48-.76 0-1.35.48-.58.47-.86 1.27v5.07h-.82v-7.4h.78z"/><path d="M94.6 65.65q0-1.72.77-2.74.78-1 2.1-1 1.5 0 2.28 1.17v-4.15h.8v10.5h-.75l-.04-.98q-.78 1.12-2.3 1.12-1.3 0-2.07-1.03-.8-1.03-.8-2.78v-.1zm.84.15q0 1.4.56 2.23.57.82 1.6.82 1.5 0 2.15-1.34v-3.46q-.64-1.44-2.13-1.44-1.04 0-1.6.8-.58.82-.58 2.4z"/><path d="M103.65 69.42h-.82v-10.5h.82v10.5z"/><path d="M108.74 69.56q-.95 0-1.7-.47-.77-.47-1.2-1.3-.42-.83-.42-1.87v-.3q0-1.06.4-1.9.43-.87 1.17-1.35.72-.5 1.6-.5 1.33 0 2.12.93.8.93.8 2.52v.46h-5.3v.15q0 1.26.73 2.1.73.84 1.82.84.66 0 1.16-.24.5-.24.9-.77l.52.4q-.9 1.3-2.6 1.3zm-.15-6.98q-.94 0-1.57.68-.63.68-.77 1.82h4.44v-.1q-.04-1.06-.6-1.73-.58-.67-1.5-.67z"/><path d="M121.2 69.42q-.12-.35-.15-1.03-.43.55-1.1.86-.66.3-1.4.3-1.08 0-1.74-.6-.65-.6-.65-1.5 0-1.08.9-1.7.9-.64 2.5-.64h1.5v-.84q0-.8-.5-1.24-.5-.46-1.42-.46-.86 0-1.42.43-.55.45-.55 1.07h-.82q0-.9.82-1.53.82-.65 2.02-.65 1.24 0 1.95.6.7.62.74 1.73v3.5q0 1.07.22 1.6v.1h-.87zm-2.56-.6q.82 0 1.46-.38.65-.4.94-1.06v-1.63h-1.46q-1.22 0-1.92.45-.7.43-.7 1.2 0 .6.47 1.02.47.4 1.2.4z"/><path d="M129.22 67.72l.12.63.16-.67 1.78-5.66h.7l1.75 5.62.2.78.15-.72 1.52-5.68h.85l-2.16 7.4h-.7l-1.9-5.86-.1-.4-.1.4-1.85 5.86h-.7l-2.14-7.4h.85l1.57 5.7z"/><path d="M138.92 69.42h-.82v-7.4h.82v7.4zm-.97-9.54q0-.23.15-.4.15-.15.4-.15.27 0 .42.16.16.15.16.38t-.16.4q-.15.15-.4.15-.27 0-.42-.16t-.15-.4z"/><path d="M140.82 65.65q0-1.72.76-2.74.77-1 2.1-1 1.5 0 2.28 1.17v-4.15h.8v10.5H146l-.03-.98q-.8 1.12-2.3 1.12-1.3 0-2.07-1.03-.78-1.03-.78-2.78v-.1zm.82.15q0 1.4.57 2.23.58.82 1.6.82 1.52 0 2.16-1.34v-3.46q-.64-1.44-2.14-1.44-1.03 0-1.6.8-.58.82-.58 2.4z"/><path d="M151.8 69.56q-.94 0-1.7-.47t-1.2-1.3q-.4-.83-.4-1.87v-.3q0-1.06.4-1.9.42-.87 1.16-1.35.73-.5 1.6-.5 1.34 0 2.13.93.78.93.78 2.52v.46h-5.28v.15q0 1.26.72 2.1.73.84 1.82.84.66 0 1.16-.24.5-.24.9-.77l.52.4q-.9 1.3-2.6 1.3zm-.14-6.98q-.93 0-1.56.68t-.77 1.82h4.44v-.1q-.04-1.06-.6-1.73-.58-.67-1.5-.67z"/><path d="M163.03 62.72q-.26-.05-.56-.05-.76 0-1.3.43-.52.43-.75 1.24v5.08h-.8v-7.4h.8v1.18q.65-1.3 2.1-1.3.33 0 .53.08l-.02.74z"/><path d="M168.7 69.42q-.12-.35-.15-1.03-.43.55-1.1.86-.66.3-1.4.3-1.08 0-1.74-.6-.65-.6-.65-1.5 0-1.08.9-1.7.9-.64 2.5-.64h1.5v-.84q0-.8-.5-1.24-.5-.46-1.42-.46-.86 0-1.42.43-.55.45-.55 1.07h-.82q0-.9.82-1.53.82-.65 2.02-.65 1.24 0 1.95.6.7.62.74 1.73v3.5q0 1.07.22 1.6v.1h-.87zm-2.56-.6q.82 0 1.46-.38.65-.4.94-1.06v-1.63h-1.46q-1.22 0-1.92.45-.7.43-.7 1.2 0 .6.47 1.02.47.4 1.2.4z"/><path d="M172.3 62.02l.03 1.27q.42-.7 1.04-1.05.62-.36 1.38-.36 1.2 0 1.77.66.58.67.58 2v4.86h-.8v-4.86q-.02-1-.43-1.48-.4-.48-1.32-.48-.76 0-1.35.48-.58.47-.86 1.27v5.07h-.8v-7.4h.77z"/><path d="M178.9 65.65q0-1.73.75-2.75.77-1 2.1-1 1.5 0 2.3 1.2l.03-1.08h.77v7.25q0 1.43-.8 2.26-.8.84-2.17.84-.77 0-1.48-.35-.7-.34-1.1-.92l.46-.5q.87 1.08 2.07 1.08 1.02 0 1.6-.6.57-.6.6-1.7v-.92q-.8 1.1-2.3 1.1-1.3 0-2.06-1.03-.78-1.02-.78-2.77v-.1zm.8.15q0 1.4.58 2.23.57.82 1.6.82 1.5 0 2.14-1.36v-3.45q-.3-.7-.83-1.08-.55-.37-1.3-.37-1.04 0-1.6.8-.6.82-.6 2.4z"/><path d="M189.84 69.56q-.95 0-1.7-.47-.77-.47-1.2-1.3-.42-.83-.42-1.87v-.3q0-1.06.4-1.9.43-.87 1.17-1.35.72-.5 1.6-.5 1.33 0 2.12.93.8.93.8 2.52v.46h-5.3v.15q0 1.26.73 2.1.73.84 1.82.84.66 0 1.16-.24.5-.24.9-.77l.52.4q-.9 1.3-2.6 1.3zm-.15-6.98q-.94 0-1.57.68-.63.68-.77 1.82h4.44v-.1q-.04-1.06-.6-1.73-.58-.67-1.5-.67z"/><path d="M197.2 65.6q0-1.05.4-1.9.4-.86 1.17-1.34.75-.47 1.7-.47 1.5 0 2.4 1.03.92 1.03.92 2.74v.17q0 1.07-.43 1.93-.4.86-1.16 1.32-.74.46-1.7.46-1.48 0-2.4-1.04-.9-1.03-.9-2.74v-.17zm.8.24q0 1.32.7 2.18.68.85 1.8.85 1.1 0 1.8-.85.68-.86.68-2.25v-.16q0-.84-.32-1.54-.3-.7-.88-1.1-.57-.38-1.3-.38-1.1 0-1.78.87-.7.85-.7 2.24v.14z"/><path d="M206.08 69.42V62.7h-1.23V62h1.23v-.9q0-1.13.57-1.74.58-.6 1.6-.6.48 0 .88.1l-.06.7q-.34-.1-.74-.1-.68 0-1.06.44-.37.4-.37 1.2v.9h1.76v.67h-1.76v6.72h-.82z"/><path d="M213.23 65.65q0-1.72.76-2.74.76-1 2.08-1 1.5 0 2.3 1.17v-4.15h.8v10.5h-.77l-.02-.98q-.8 1.12-2.3 1.12-1.3 0-2.07-1.03-.77-1.03-.77-2.78v-.1zm.82.15q0 1.4.57 2.23.57.82 1.6.82 1.5 0 2.15-1.34v-3.46q-.64-1.44-2.14-1.44-1.03 0-1.6.8-.58.82-.58 2.4z"/><path d="M222.27 69.42h-.82v-7.4h.82v7.4zm-.97-9.54q0-.23.15-.4.15-.15.4-.15.27 0 .42.16.16.15.16.38t-.16.4q-.15.15-.4.15-.27 0-.42-.16t-.15-.4z"/><path d="M226.8 68.3l2.25-6.28h.84l-2.77 7.4h-.67l-2.77-7.4h.83l2.27 6.27z"/><path d="M234 69.56q-.94 0-1.7-.47t-1.2-1.3q-.4-.83-.4-1.87v-.3q0-1.06.4-1.9.42-.87 1.16-1.35.73-.5 1.6-.5 1.34 0 2.13.93.78.93.78 2.52v.46h-5.28v.15q0 1.26.72 2.1.73.84 1.82.84.66 0 1.16-.24.5-.24.9-.77l.52.4q-.9 1.3-2.6 1.3zm-.14-6.98q-.93 0-1.56.68t-.77 1.82h4.44v-.1q-.04-1.06-.6-1.73-.58-.67-1.5-.67z"/><path d="M241.8 62.72q-.26-.05-.56-.05-.76 0-1.3.43-.52.43-.75 1.24v5.08h-.82v-7.4h.8v1.18q.66-1.3 2.1-1.3.34 0 .54.08l-.02.74z"/><path d="M247.52 67.54q0-.6-.5-.98-.48-.37-1.47-.57-.98-.22-1.53-.5-.54-.26-.8-.65-.26-.4-.26-.95 0-.87.73-1.44.72-.57 1.86-.57 1.24 0 1.98.6.76.6.76 1.6h-.83q0-.65-.54-1.1-.54-.42-1.37-.42-.8 0-1.3.37-.48.35-.48.93 0 .55.4.86.4.3 1.48.55 1.08.24 1.62.53.54.3.8.7.26.4.26.97 0 .94-.76 1.5-.75.56-1.97.56-1.28 0-2.1-.63-.8-.62-.8-1.58h.83q.05.72.6 1.12.56.4 1.48.4.86 0 1.4-.38.52-.4.52-.96z"/><path d="M253.04 69.56q-.95 0-1.7-.47-.77-.47-1.2-1.3-.42-.83-.42-1.87v-.3q0-1.06.4-1.9.43-.87 1.17-1.35.72-.5 1.6-.5 1.33 0 2.12.93.8.93.8 2.52v.46h-5.3v.15q0 1.26.73 2.1.73.84 1.82.84.66 0 1.16-.24.5-.24.9-.77l.52.4q-.9 1.3-2.6 1.3zm-.15-6.98q-.94 0-1.57.68-.63.68-.77 1.82H255v-.1q-.04-1.06-.6-1.73-.58-.67-1.5-.67z"/><path d="M262.1 60.13v1.9h1.54v.66h-1.53v4.92q0 .62.22.92.23.3.75.3.2 0 .66-.07l.04.67q-.32.12-.88.12-.85 0-1.23-.5-.38-.48-.38-1.43V62.7h-1.37V62h1.36v-1.9h.8z"/><path d="M264.76 65.6q0-1.05.4-1.9.42-.86 1.18-1.34.75-.47 1.7-.47 1.5 0 2.4 1.03.92 1.03.92 2.74v.17q0 1.07-.42 1.93-.4.86-1.16 1.32-.75.46-1.72.46-1.47 0-2.4-1.04-.9-1.03-.9-2.74v-.17zm.82.24q0 1.32.68 2.18.7.85 1.8.85t1.8-.85q.7-.86.7-2.25v-.16q0-.84-.33-1.54-.3-.7-.88-1.1-.57-.38-1.3-.38-1.1 0-1.78.87-.7.85-.7 2.24v.14z"/><path d="M279 65.8q0 1.73-.76 2.75-.77 1-2.05 1-1.53 0-2.33-1.06v3.76h-.82V62.02h.76l.05 1.05q.8-1.18 2.32-1.18 1.33 0 2.08 1 .76 1 .76 2.78v.12zm-.8-.15q0-1.4-.6-2.23-.58-.82-1.62-.82-.75 0-1.3.36-.53.36-.8 1.05v3.56q.28.64.83.97.55.34 1.3.34 1.03 0 1.6-.82.6-.83.6-2.4z"/><path d="M281.74 69.42h-.82v-7.4h.82v7.4zm-.97-9.54q0-.23.15-.4.15-.15.4-.15t.42.16q.16.15.16.38t-.16.4q-.15.15-.4.15t-.42-.16-.15-.4z"/><path d="M286.7 68.87q.85 0 1.42-.48.6-.5.63-1.26h.8q-.04.67-.43 1.23-.4.56-1.04.87-.65.32-1.38.32-1.46 0-2.3-1.02-.86-1-.86-2.72v-.24q0-1.1.38-1.94.38-.84 1.1-1.3.7-.45 1.67-.45 1.2 0 2 .7.78.74.84 1.92h-.8q-.04-.87-.62-1.4-.56-.54-1.43-.54-1.12 0-1.73.8-.6.8-.6 2.25v.23q0 1.42.6 2.2.6.8 1.73.8z"/><path d="M295.62 67.54q0-.6-.5-.98-.48-.37-1.47-.57-.98-.22-1.53-.5-.54-.26-.8-.65-.26-.4-.26-.95 0-.87.73-1.44.72-.57 1.86-.57 1.24 0 1.98.6.76.6.76 1.6h-.83q0-.65-.54-1.1-.54-.42-1.37-.42-.8 0-1.3.37-.48.35-.48.93 0 .55.4.86.4.3 1.48.55 1.08.24 1.62.53.54.3.8.7t.26.97q0 .94-.76 1.5-.75.56-1.97.56-1.28 0-2.1-.63-.8-.62-.8-1.58h.83q.05.72.6 1.12.56.4 1.48.4.86 0 1.4-.38.52-.4.52-.96z"/><path d="M298.2 68.93q0-.24.14-.4.15-.18.43-.18.27 0 .43.17.15.17.15.4t-.15.4q-.16.15-.43.15-.28 0-.43-.15-.15-.15-.15-.4z"/><path d="M5.5 79.47h.84v7q0 1.4-.82 2.25-.82.84-2.2.84-1.44 0-2.22-.76t-.78-2.12h.84q0 1.08.57 1.63.57.55 1.6.55.95 0 1.54-.63.6-.63.62-1.7v-7.05z"/><path d="M13.37 88.48q-.74 1.08-2.36 1.08-1.17 0-1.8-.7-.6-.68-.6-2.02v-4.82h.8v4.7q0 2.13 1.7 2.13 1.8 0 2.26-1.47v-5.36h.82v7.4h-.8v-.94z"/><path d="M20.73 87.54q0-.6-.5-.98-.48-.37-1.46-.57-1-.22-1.54-.5-.54-.26-.8-.65-.26-.4-.26-.95 0-.87.73-1.44t1.87-.57q1.24 0 1.98.6.76.6.76 1.6h-.8q0-.65-.56-1.1-.54-.42-1.37-.42-.8 0-1.3.37-.48.35-.48.93 0 .55.4.86.4.3 1.47.55 1.08.24 1.62.53.53.3.8.7t.25.97q0 .94-.76 1.5t-1.98.56q-1.3 0-2.1-.63-.8-.62-.8-1.58h.82q.05.72.6 1.12.56.4 1.48.4.85 0 1.38-.38.53-.4.53-.96z"/><path d="M24.65 80.13v1.9h1.53v.66h-1.53v4.92q0 .62.22.92.22.3.74.3.22 0 .68-.07l.03.67q-.3.12-.86.12-.84 0-1.23-.5-.37-.48-.37-1.43V82.7h-1.36V82h1.36v-1.9h.82z"/><path d="M30.98 85.65q0-1.73.77-2.75.77-1 2.1-1 1.5 0 2.3 1.2l.03-1.08h.76v7.25q0 1.43-.8 2.26-.8.84-2.16.84-.78 0-1.48-.35-.7-.34-1.1-.92l.46-.5q.86 1.08 2.06 1.08 1.03 0 1.6-.6.57-.6.6-1.7v-.92q-.8 1.1-2.3 1.1-1.28 0-2.06-1.03t-.78-2.77v-.1zm.83.15q0 1.4.58 2.23.56.82 1.6.82 1.5 0 2.13-1.36v-3.45q-.27-.7-.8-1.08-.55-.37-1.3-.37-1.04 0-1.62.8-.57.82-.57 2.4z"/><path d="M40 89.42h-.83v-7.4H40v7.4zm-.97-9.54q0-.23.15-.4.15-.15.4-.15.27 0 .42.16.15.15.15.38t-.15.4q-.15.15-.4.15t-.42-.16-.15-.4z"/><path d="M44.52 88.3L46.77 82h.84l-2.75 7.4h-.66l-2.8-7.4h.85l2.27 6.27z"/><path d="M51.73 89.56q-.95 0-1.7-.47-.77-.47-1.2-1.3-.42-.83-.42-1.87v-.3q0-1.06.42-1.9.42-.87 1.16-1.35.74-.5 1.6-.5 1.34 0 2.13.93.8.93.8 2.52v.46h-5.27v.15q0 1.26.7 2.1.74.84 1.83.84.66 0 1.16-.24.5-.24.9-.77l.53.4q-.9 1.3-2.62 1.3zm-.15-6.98q-.93 0-1.56.68t-.77 1.82h4.44v-.1q-.04-1.06-.62-1.73-.57-.67-1.5-.67z"/><path d="M64.28 88.48q-.73 1.08-2.35 1.08-1.2 0-1.8-.7-.62-.68-.63-2.02v-4.82h.8v4.7q0 2.13 1.72 2.13 1.78 0 2.25-1.47v-5.36h.82v7.4h-.8l-.02-.94z"/><path d="M71.64 87.54q0-.6-.5-.98-.48-.37-1.46-.57-1-.22-1.53-.5-.54-.26-.8-.65-.27-.4-.27-.95 0-.87.73-1.44.74-.57 1.9-.57 1.22 0 1.97.6t.75 1.6h-.82q0-.65-.55-1.1-.54-.42-1.36-.42-.82 0-1.3.37-.5.35-.5.93 0 .55.4.86.42.3 1.5.55 1.07.24 1.6.53.54.3.8.7.26.4.26.97 0 .94-.76 1.5-.75.56-1.97.56-1.3 0-2.1-.63-.8-.62-.8-1.58h.83q.04.72.6 1.12.56.4 1.47.4.86 0 1.38-.38.54-.4.54-.96z"/><path d="M80.06 88.24l2.16-6.22h.88l-3.16 8.66-.16.38q-.6 1.35-1.88 1.35-.3 0-.63-.1v-.67l.4.05q.62 0 .98-.3.38-.3.64-1.02l.35-1-2.8-7.34h.9l2.3 6.22z"/><path d="M83.8 85.6q0-1.05.4-1.9.42-.86 1.17-1.34.76-.47 1.72-.47 1.47 0 2.38 1.03.92 1.03.92 2.74v.17q0 1.07-.42 1.93-.4.86-1.16 1.32-.75.46-1.72.46-1.47 0-2.4-1.04-.9-1.03-.9-2.74v-.17zm.82.24q0 1.32.68 2.18.7.85 1.8.85t1.8-.85q.7-.86.7-2.25v-.16q0-.84-.33-1.54-.3-.7-.88-1.1-.58-.38-1.3-.38-1.1 0-1.8.87-.68.85-.68 2.24v.14z"/><path d="M96.85 88.48q-.74 1.08-2.36 1.08-1.2 0-1.8-.7-.62-.68-.63-2.02v-4.82h.8v4.7q0 2.13 1.72 2.13 1.77 0 2.24-1.47v-5.36h.82v7.4h-.8v-.94z"/><path d="M103.2 82.72q-.26-.05-.56-.05-.76 0-1.3.43-.52.43-.75 1.24v5.08h-.82v-7.4h.8v1.18q.66-1.3 2.1-1.3.34 0 .54.08l-.02.74z"/><path d="M109.17 80.13v1.9h1.53v.66h-1.53v4.92q0 .62.2.92.24.3.76.3.2 0 .66-.07l.03.67q-.32.12-.88.12-.84 0-1.22-.5-.38-.48-.38-1.43V82.7H107V82h1.35v-1.9h.82z"/><path d="M117.08 89.42q-.13-.35-.16-1.03-.43.55-1.1.86-.66.3-1.4.3-1.08 0-1.74-.6-.66-.6-.66-1.5 0-1.08.9-1.7.9-.64 2.5-.64h1.5v-.84q0-.8-.5-1.24-.5-.46-1.42-.46-.86 0-1.42.43-.56.45-.56 1.07h-.82q0-.9.82-1.53.82-.65 2.02-.65 1.24 0 1.95.6.7.62.73 1.73v3.5q0 1.07.22 1.6v.1h-.87zm-2.57-.6q.83 0 1.47-.38.65-.4.94-1.06v-1.63h-1.45q-1.22 0-1.92.45-.7.43-.7 1.2 0 .6.47 1.02.47.4 1.2.4z"/><path d="M124.34 87.54q0-.6-.5-.98-.48-.37-1.47-.57-.98-.22-1.53-.5-.54-.26-.8-.65-.26-.4-.26-.95 0-.87.73-1.44.74-.57 1.88-.57 1.24 0 1.98.6.76.6.76 1.6h-.83q0-.65-.55-1.1-.54-.42-1.37-.42-.8 0-1.3.37-.48.35-.48.93 0 .55.4.86.4.3 1.48.55 1.08.24 1.62.53.54.3.8.7.26.4.26.97 0 .94-.76 1.5-.75.56-1.97.56-1.3 0-2.1-.63-.8-.62-.8-1.58h.82q.05.72.6 1.12.56.4 1.48.4.85 0 1.38-.38.54-.4.54-.96z"/><path d="M128.75 85.7l-.94.9v2.82h-.8v-10.5h.8v6.72l.78-.83 2.83-2.78h1.04l-3.13 3.12 3.42 4.28h-.98l-3-3.73z"/><path d="M133.78 88.93q0-.24.15-.4.15-.18.43-.18t.43.17q.14.17.14.4t-.15.4q-.17.15-.44.15t-.43-.15q-.15-.15-.15-.4z"/><path d="M142.64 86.73l.3 1.55.38-1.48 2.16-7.33h.76l2.13 7.33.37 1.5.33-1.57 1.8-7.26h.86l-2.56 9.95h-.8l-2.26-7.78-.25-1-.24 1-2.3 7.78h-.8l-2.55-9.95h.86l1.83 7.26z"/><path d="M155.8 89.56q-.95 0-1.7-.47-.77-.47-1.2-1.3-.42-.83-.42-1.87v-.3q0-1.06.4-1.9.43-.87 1.17-1.35.73-.5 1.6-.5 1.34 0 2.13.93.8.93.8 2.52v.46h-5.3v.15q0 1.26.73 2.1.74.84 1.83.84.66 0 1.16-.24.5-.24.9-.77l.5.4q-.9 1.3-2.6 1.3zm-.15-6.98q-.93 0-1.56.68-.64.68-.78 1.82h4.44v-.1q-.04-1.06-.6-1.73-.58-.67-1.5-.67z"/><path d="M168.27 89.42q-.13-.35-.16-1.03-.42.55-1.1.86-.65.3-1.4.3-1.07 0-1.73-.6-.66-.6-.66-1.5 0-1.08.9-1.7.9-.64 2.52-.64h1.48v-.84q0-.8-.5-1.24-.48-.46-1.4-.46-.87 0-1.43.43-.56.45-.56 1.07h-.8q0-.9.8-1.53.83-.65 2.03-.65 1.24 0 1.95.6.7.62.74 1.73v3.5q0 1.07.22 1.6v.1h-.87zm-2.57-.6q.82 0 1.46-.38.65-.4.94-1.06v-1.63h-1.46q-1.22 0-1.92.45-.7.43-.7 1.2 0 .6.47 1.02.46.4 1.2.4z"/><path d="M174.5 82.72q-.25-.05-.55-.05-.76 0-1.3.43-.52.43-.75 1.24v5.08h-.8v-7.4h.8v1.18q.65-1.3 2.1-1.3.33 0 .53.08l-.02.74z"/><path d="M178.52 89.56q-.95 0-1.7-.47-.77-.47-1.2-1.3-.42-.83-.42-1.87v-.3q0-1.06.4-1.9.43-.87 1.17-1.35.73-.5 1.6-.5 1.34 0 2.13.93.8.93.8 2.52v.46H176v.15q0 1.26.73 2.1.73.84 1.82.84.66 0 1.16-.24.5-.24.92-.77l.5.4q-.9 1.3-2.6 1.3zm-.15-6.98q-.93 0-1.56.68-.62.68-.76 1.82h4.44v-.1q-.04-1.06-.6-1.73-.58-.67-1.5-.67z"/><path d="M191 89.42q-.14-.35-.17-1.03-.43.55-1.1.86-.66.3-1.4.3-1.08 0-1.74-.6-.67-.6-.67-1.5 0-1.08.9-1.7.9-.64 2.5-.64h1.5v-.84q0-.8-.5-1.24-.5-.46-1.42-.46-.85 0-1.4.43-.57.45-.57 1.07h-.82q0-.9.83-1.53.82-.65 2.02-.65 1.24 0 1.95.6.7.62.74 1.73v3.5q0 1.07.22 1.6v.1H191zm-2.58-.6q.82 0 1.46-.38.65-.4.94-1.06v-1.63h-1.46q-1.22 0-1.92.45-.7.43-.7 1.2 0 .6.47 1.02.48.4 1.22.4z"/><path d="M196 88.3l2.26-6.28h.84l-2.76 7.4h-.67l-2.77-7.4h.84L196 88.3z"/><path d="M205 89.42q-.14-.35-.17-1.03-.43.55-1.1.86-.66.3-1.4.3-1.08 0-1.74-.6-.67-.6-.67-1.5 0-1.08.9-1.7.9-.64 2.5-.64h1.5v-.84q0-.8-.5-1.24-.5-.46-1.42-.46-.85 0-1.4.43-.57.45-.57 1.07h-.82q0-.9.83-1.53.82-.65 2.02-.65 1.24 0 1.95.6.7.62.74 1.73v3.5q0 1.07.22 1.6v.1H205zm-2.58-.6q.82 0 1.46-.38.65-.4.94-1.06v-1.63h-1.46q-1.22 0-1.92.45-.7.43-.7 1.2 0 .6.47 1.02.48.4 1.22.4z"/><path d="M208.73 89.42h-.82v-7.4h.83v7.4zm-.97-9.54q0-.23.15-.4.16-.15.42-.15t.4.16q.17.15.17.38t-.17.4q-.15.15-.4.15-.27 0-.42-.16t-.14-.4z"/><path d="M211.88 89.42h-.82v-10.5h.82v10.5z"/><path d="M218.77 89.42q-.13-.35-.16-1.03-.42.55-1.1.86-.65.3-1.4.3-1.07 0-1.73-.6-.66-.6-.66-1.5 0-1.08.9-1.7.9-.64 2.52-.64h1.48v-.84q0-.8-.5-1.24-.48-.46-1.4-.46-.87 0-1.43.43-.56.45-.56 1.07h-.8q0-.9.8-1.53.83-.65 2.03-.65 1.24 0 1.95.6.7.62.74 1.73v3.5q0 1.07.22 1.6v.1h-.87zm-2.57-.6q.82 0 1.46-.38.65-.4.94-1.06v-1.63h-1.46q-1.22 0-1.92.45-.7.43-.7 1.2 0 .6.47 1.02.46.4 1.2.4z"/><path d="M227.55 85.8q0 1.73-.77 2.75-.77 1-2.06 1-1.54 0-2.34-1.14l-.03 1.02h-.76v-10.5h.8v4.18q.78-1.2 2.3-1.2 1.33 0 2.08 1 .77 1 .77 2.77v.13zm-.82-.15q0-1.46-.57-2.25-.57-.8-1.6-.8-.8 0-1.33.4-.55.37-.83 1.12v3.33q.6 1.4 2.17 1.4 1 0 1.58-.8.58-.8.58-2.4z"/><path d="M230.28 89.42h-.82v-10.5h.82v10.5z"/><path d="M235.37 89.56q-.95 0-1.7-.47-.77-.47-1.2-1.3-.42-.83-.42-1.87v-.3q0-1.06.4-1.9.43-.87 1.17-1.35.73-.5 1.6-.5 1.34 0 2.13.93.8.93.8 2.52v.46h-5.3v.15q0 1.26.73 2.1.73.84 1.82.84.66 0 1.16-.24.5-.24.9-.77l.52.4q-.9 1.3-2.6 1.3zm-.15-6.98q-.93 0-1.56.68t-.77 1.82h4.43v-.1q-.04-1.06-.6-1.73-.58-.67-1.5-.67z"/><path d="M243.76 89.42V82.7h-1.23V82h1.23v-.9q0-1.13.57-1.74.58-.6 1.6-.6.48 0 .88.1l-.05.7q-.34-.1-.74-.1-.67 0-1.05.44-.37.4-.37 1.2v.9h1.76v.67h-1.76v6.72h-.82z"/><path d="M247.37 85.6q0-1.05.4-1.9.42-.86 1.18-1.34.75-.47 1.7-.47 1.5 0 2.4 1.03.92 1.03.92 2.74v.17q0 1.07-.42 1.93-.4.86-1.16 1.32-.76.46-1.73.46-1.47 0-2.4-1.04-.9-1.03-.9-2.74v-.17zm.82.24q0 1.32.67 2.18.7.85 1.8.85t1.8-.85q.7-.86.7-2.25v-.16q0-.84-.33-1.54-.3-.7-.88-1.1-.57-.38-1.3-.38-1.1 0-1.78.87-.7.85-.7 2.24v.14z"/><path d="M259.1 82.72q-.27-.05-.57-.05-.76 0-1.3.43-.52.43-.75 1.24v5.08h-.8v-7.4h.8v1.18q.65-1.3 2.1-1.3.33 0 .53.08v.74z"/><path d="M264.6 83.27q.4-.66 1.03-1.02t1.37-.36q1.2 0 1.77.66.58.67.6 2v4.86h-.82v-4.86q0-1-.43-1.48-.4-.48-1.32-.48-.75 0-1.34.48-.58.47-.86 1.27v5.07h-.82v-10.5h.82v4.35z"/><path d="M274.34 89.56q-.95 0-1.7-.47-.77-.47-1.2-1.3-.42-.83-.42-1.87v-.3q0-1.06.4-1.9.43-.87 1.17-1.35.72-.5 1.6-.5 1.33 0 2.12.93.8.93.8 2.52v.46h-5.3v.15q0 1.26.73 2.1.73.84 1.82.84.66 0 1.16-.24.5-.24.9-.77l.52.4q-.9 1.3-2.6 1.3zm-.15-6.98q-.94 0-1.57.68-.63.68-.77 1.82h4.44v-.1q-.04-1.06-.6-1.73-.58-.67-1.5-.67z"/><path d="M279.63 89.42h-.82v-10.5h.83v10.5z"/><path d="M287.8 85.8q0 1.73-.76 2.75-.77 1-2.05 1-1.53 0-2.33-1.06v3.76h-.82V82.02h.76l.05 1.05q.8-1.18 2.32-1.18 1.33 0 2.08 1 .76 1 .76 2.78v.12zm-.8-.15q0-1.4-.6-2.23-.58-.82-1.62-.82-.75 0-1.3.36-.53.36-.8 1.05v3.56q.28.64.83.97.55.34 1.3.34 1.03 0 1.6-.82.6-.83.6-2.4z"/><path d="M7 109.42H.78v-.63l3.4-3.88q.86-.98 1.2-1.6.32-.65.32-1.25 0-.94-.57-1.5-.55-.54-1.52-.54-1 0-1.62.64-.6.64-.6 1.67H.54q0-.84.38-1.53.38-.68 1.08-1.07.7-.4 1.6-.4 1.38 0 2.14.72.77.72.77 1.95 0 .7-.42 1.53-.43.82-1.53 2.06l-2.77 3.13H7v.7z"/><path d="M13.56 106.2h1.55v.7h-1.54v2.52h-.82v-2.52H8.06v-.46l4.6-6.98h.9v6.75zm-4.5 0h3.68v-5.68l-.36.63-3.3 5.06z"/><path d="M16.32 110.27h-.75l4.16-10.8h.74l-4.15 10.8z"/><path d="M28 99.94l-4.27 9.48h-.85l4.22-9.26h-5.66v-.7H28v.48z"/><path d="M29.67 108.93q0-.24.16-.4.15-.17.43-.17.27 0 .43.17.14.16.14.4t-.15.4q-.17.15-.44.15-.28 0-.43-.15-.15-.16-.15-.4z"/></g></g></g></svg>