<svg xmlns="http://www.w3.org/2000/svg" width="320" height="120" viewBox="0 0 320.00001 120"><g><g fill="#666"><g><path d="M6.95 8.5H2.82v5.92h-1.2V.2h4.6q2.3 0 3.56 1.1t1.28 3.1q0 1.36-.8 2.4-.8 1.05-2.15 1.45l3.57 6.04v.12H10.4L6.94 8.5zM2.82 7.48H6.5q1.52 0 2.43-.86.92-.86.92-2.23 0-1.5-.95-2.34-.96-.83-2.7-.83H2.83v6.25z"/><path d="M22.2 7.6h-6.66v5.8h7.64v1.02h-8.84V.2h8.8v1.03h-7.6V6.6h6.65v1z"/><path d="M33.75 10.92q0-1.18-.83-1.86-.83-.7-3.04-1.3-2.2-.63-3.22-1.37-1.45-1.04-1.45-2.72 0-1.63 1.35-2.65T30 0q1.4 0 2.52.55t1.74 1.53q.6.97.6 2.17h-1.2q0-1.45-1-2.33-1-.9-2.67-.9-1.64 0-2.6.74-.97.73-.97 1.9 0 1.08.86 1.77.86.68 2.78 1.2 1.9.52 2.9 1.1.98.55 1.48 1.33t.5 1.84q0 1.68-1.35 2.7-1.33 1.02-3.52 1.02-1.5 0-2.77-.54-1.24-.54-1.9-1.5-.63-.97-.63-2.22h1.2q0 1.5 1.12 2.37 1.1.87 2.98.87 1.66 0 2.66-.73 1-.73 1-1.95z"/><path d="M45.4 7.6h-6.66v5.8h7.65v1.02h-8.86V.2h8.8v1.03h-7.6V6.6h6.65v1z"/><path d="M56.58 10.44h-6.45l-1.47 3.98H47.4L52.78.2h1.14l5.4 14.22h-1.26l-1.48-3.98zM50.5 9.4h5.7l-2.85-7.73L50.5 9.4z"/><path d="M66.72 8.5H62.6v5.92h-1.22V.2H66q2.27 0 3.55 1.1t1.28 3.1q0 1.36-.8 2.4t-2.15 1.45l3.55 6.04v.12h-1.28L66.72 8.5zM62.6 7.48h3.67q1.5 0 2.43-.86.92-.86.92-2.23 0-1.5-.96-2.34-.96-.83-2.68-.83h-3.4v6.25z"/><path d="M84.17 10q-.25 2.23-1.6 3.42-1.37 1.2-3.64 1.2-1.58 0-2.8-.8-1.2-.8-1.87-2.23-.67-1.47-.68-3.33V6.42q0-1.9.67-3.36.66-1.46 1.9-2.25Q77.4 0 79.02 0q2.3 0 3.6 1.25 1.33 1.23 1.55 3.4h-1.2Q82.5 1.03 79 1.03q-1.93 0-3.08 1.45-1.15 1.44-1.15 4V8.2q0 2.47 1.1 3.93 1.13 1.47 3.03 1.47t2.85-.9q.95-.9 1.18-2.7h1.2z"/><path d="M97.65 14.42h-1.2V7.6H88.3v6.82h-1.2V.2h1.2v6.4h8.14V.2h1.2v14.22z"/><path d="M107.33 8.63v5.8h-1.2V.2h4.85q2.2 0 3.5 1.13 1.28 1.14 1.28 3.12 0 2-1.24 3.1-1.23 1.08-3.57 1.08h-3.62zm0-1.02h3.65q1.74 0 2.66-.82.92-.83.92-2.3 0-1.5-.92-2.35-.9-.88-2.6-.9h-3.7V7.6z"/><path d="M124.78 10.44h-6.45l-1.46 3.98h-1.26L121 .2h1.13l5.38 14.22h-1.24l-1.47-3.98zM118.7 9.4h5.7l-2.85-7.73-2.85 7.74z"/><path d="M130.8 8.63v5.8h-1.2V.2h4.86q2.2 0 3.5 1.13 1.28 1.14 1.28 3.12 0 2-1.24 3.1-1.23 1.08-3.57 1.08h-3.62zm0-1.02h3.66q1.74 0 2.66-.82.92-.83.92-2.3 0-1.5-.92-2.35-.9-.88-2.6-.9h-3.7V7.6z"/><path d="M149.76 7.6h-6.65v5.8h7.66v1.02h-8.85V.2h8.8v1.03h-7.6V6.6h6.66v1z"/><path d="M158.6 8.5h-4.14v5.92h-1.2V.2h4.6q2.3 0 3.56 1.1t1.28 3.1q0 1.36-.8 2.4t-2.14 1.45l3.55 6.04v.12h-1.27L158.6 8.5zm-4.14-1.02h3.68q1.52 0 2.44-.86.9-.86.9-2.23 0-1.5-.94-2.34-.96-.83-2.7-.83h-3.38v6.25z"/><path d="M174.02 10.92q0-1.18-.83-1.86-.84-.7-3.04-1.3-2.2-.63-3.23-1.37-1.44-1.04-1.44-2.72 0-1.63 1.33-2.65Q168.17 0 170.26 0q1.42 0 2.53.55 1.12.55 1.73 1.53.62.97.62 2.17h-1.2q0-1.45-1-2.33-1-.9-2.7-.9-1.62 0-2.58.74-.97.73-.97 1.9 0 1.08.87 1.77.87.68 2.78 1.2 1.92.52 2.9 1.1 1 .55 1.5 1.33.48.78.48 1.84 0 1.68-1.34 2.7-1.35 1.02-3.55 1.02-1.5 0-2.76-.54-1.26-.54-1.92-1.5-.64-.97-.64-2.22h1.2q0 1.5 1.12 2.37 1.13.87 3 .87 1.65 0 2.66-.73 1-.74 1-1.95z"/></g><g><path d="M4.02 44.9l3.04-5.43h.97l-3.6 6.2v3.75H3.6v-3.75L0 39.47h1l3.02 5.43z"/><path d="M8.42 45.6q0-1.05.4-1.9.42-.86 1.17-1.34.75-.47 1.7-.47 1.5 0 2.4 1.03.92 1.03.92 2.74v.17q0 1.07-.42 1.93-.4.86-1.16 1.32-.75.46-1.72.46-1.47 0-2.4-1.04-.9-1.03-.9-2.74v-.17zm.82.24q0 1.32.68 2.18.7.85 1.8.85t1.8-.85q.7-.86.7-2.25v-.16q0-.84-.33-1.54-.32-.7-.9-1.1-.56-.38-1.3-.38-1.08 0-1.77.87-.7.85-.7 2.24v.14z"/><path d="M21.47 48.48q-.74 1.08-2.36 1.08-1.17 0-1.78-.7-.62-.68-.63-2.02v-4.82h.8v4.7q0 2.13 1.7 2.13 1.8 0 2.26-1.47v-5.36h.82v7.4h-.8v-.94z"/><path d="M28.6 42.02l.02 1.27q.42-.7 1.04-1.05.62-.36 1.38-.36 1.18 0 1.77.66.6.67.6 2v4.86h-.82v-4.86q0-1-.42-1.48-.4-.48-1.32-.48-.76 0-1.35.48-.6.47-.87 1.27v5.07h-.8v-7.4h.77z"/><path d="M38.36 49.56q-.94 0-1.7-.47t-1.2-1.3q-.4-.83-.4-1.87v-.3q0-1.06.4-1.9.42-.87 1.15-1.35.75-.5 1.6-.5 1.36 0 2.15.93.8.93.8 2.52v.46h-5.3v.15q0 1.26.73 2.1.72.84 1.82.84.65 0 1.15-.24.5-.24.92-.77l.5.4q-.9 1.3-2.6 1.3zm-.15-6.98q-.9 0-1.54.68-.63.68-.77 1.82h4.43v-.1q-.04-1.06-.6-1.73-.6-.67-1.52-.67z"/><path d="M45.6 49.56q-.93 0-1.7-.47-.76-.47-1.18-1.3-.43-.83-.43-1.87v-.3q0-1.06.4-1.9.42-.87 1.16-1.35.74-.5 1.6-.5 1.35 0 2.13.93.78.93.78 2.52v.46H43.1v.15q0 1.26.73 2.1.72.84 1.8.84.67 0 1.17-.24.5-.24.92-.77l.5.4q-.9 1.3-2.6 1.3zm-.14-6.98q-.92 0-1.56.68-.63.68-.76 1.82h4.43v-.1q-.03-1.06-.6-1.73-.58-.67-1.5-.67z"/><path d="M49.66 45.65q0-1.72.77-2.74.77-1 2.1-1 1.5 0 2.27 1.17v-4.15h.82v10.5h-.77l-.03-.98q-.8 1.12-2.3 1.12-1.3 0-2.08-1.03t-.78-2.78v-.1zm.83.15q0 1.4.56 2.23.56.82 1.6.82 1.5 0 2.14-1.34v-3.46q-.63-1.44-2.13-1.44-1.03 0-1.6.8-.58.82-.58 2.4z"/><path d="M62.47 40.13v1.9H64v.66h-1.53v4.92q0 .62.22.92.22.3.74.3.2 0 .66-.07l.04.67q-.33.12-.88.12-.84 0-1.22-.5-.4-.48-.4-1.43V42.7H60.3V42h1.35v-1.9h.82z"/><path d="M65.13 45.6q0-1.05.4-1.9.42-.86 1.18-1.34.76-.47 1.72-.47 1.48 0 2.4 1.03.9 1.03.9 2.74v.17q0 1.07-.4 1.93-.42.86-1.17 1.32-.75.46-1.72.46-1.47 0-2.4-1.04-.9-1.03-.9-2.74v-.17zm.82.24q0 1.32.68 2.18.7.85 1.8.85t1.8-.85q.7-.86.7-2.25v-.16q0-.84-.33-1.54-.3-.7-.88-1.1-.57-.38-1.3-.38-1.1 0-1.78.87-.7.85-.7 2.24v.14z"/><path d="M79.58 48.87q.85 0 1.43-.48.6-.5.63-1.26h.8q-.04.67-.43 1.23-.4.56-1.04.87-.64.32-1.38.32-1.46 0-2.3-1.02-.86-1-.86-2.72v-.24q0-1.1.38-1.94.38-.84 1.1-1.3.7-.45 1.67-.45 1.22 0 2 .7.8.74.85 1.92h-.8q-.04-.87-.6-1.4-.58-.54-1.45-.54-1.1 0-1.72.8-.6.8-.6 2.25v.23q0 1.42.6 2.2.6.8 1.73.8z"/><path d="M83.6 45.6q0-1.05.42-1.9.42-.86 1.17-1.34.75-.47 1.7-.47 1.48 0 2.4 1.03.9 1.03.9 2.74v.17q0 1.07-.4 1.93-.4.86-1.16 1.32-.76.46-1.72.46-1.47 0-2.4-1.04-.9-1.03-.9-2.74v-.17zm.83.24q0 1.32.68 2.18.7.85 1.82.85 1.1 0 1.8-.85.68-.86.68-2.25v-.16q0-.84-.3-1.54-.33-.7-.9-1.1-.56-.38-1.3-.38-1.1 0-1.78.87-.7.85-.7 2.24v.14z"/><path d="M94.1 48.3L96.35 42h.84l-2.77 7.4h-.66L91 42.02h.83l2.27 6.27z"/><path d="M101.3 49.56q-.93 0-1.7-.47-.75-.47-1.18-1.3-.42-.83-.42-1.87v-.3q0-1.06.4-1.9.42-.87 1.16-1.35.74-.5 1.6-.5 1.35 0 2.14.93.8.93.8 2.52v.46h-5.3v.15q0 1.26.73 2.1.72.84 1.82.84.65 0 1.15-.24.5-.24.92-.77l.5.4q-.9 1.3-2.6 1.3zm-.14-6.98q-.92 0-1.56.68-.62.68-.76 1.82h4.43v-.1q-.03-1.06-.6-1.73-.58-.67-1.5-.67z"/><path d="M109.1 42.72q-.25-.05-.54-.05-.77 0-1.3.43t-.75 1.24v5.08h-.8v-7.4h.8v1.18q.66-1.3 2.1-1.3.34 0 .53.08l-.02.74z"/><path d="M118.48 49.42q-.12-.35-.15-1.03-.43.55-1.1.86-.67.3-1.4.3-1.08 0-1.74-.6-.67-.6-.67-1.5 0-1.08.9-1.7.9-.64 2.5-.64h1.5v-.84q0-.8-.5-1.24-.5-.46-1.43-.46-.85 0-1.4.43-.57.45-.57 1.07h-.82q0-.9.83-1.53.82-.65 2.02-.65 1.23 0 1.94.6.7.62.73 1.73v3.5q0 1.07.23 1.6v.1h-.88zm-2.57-.6q.83 0 1.48-.38.65-.4.94-1.06v-1.63h-1.46q-1.23 0-1.92.45-.7.43-.7 1.2 0 .6.47 1.02.47.4 1.2.4z"/><path d="M125.63 49.42h-.82v-10.5h.83v10.5z"/><path d="M127.4 45.6q0-1.05.42-1.9.42-.86 1.17-1.34.75-.47 1.7-.47 1.48 0 2.4 1.03.92 1.03.92 2.74v.17q0 1.07-.42 1.93-.4.86-1.16 1.32-.75.46-1.72.46-1.47 0-2.4-1.04-.9-1.03-.9-2.74v-.17zm.83.24q0 1.32.7 2.18.68.85 1.8.85 1.1 0 1.78-.85.7-.86.7-2.25v-.16q0-.84-.3-1.54-.33-.7-.9-1.1-.56-.38-1.3-.38-1.1 0-1.78.87-.7.85-.7 2.24v.14z"/><path d="M136.98 40.13v1.9h1.53v.66H137v4.92q0 .62.22.92.23.3.75.3.2 0 .66-.07l.04.67q-.32.12-.87.12-.84 0-1.22-.5-.4-.48-.4-1.43V42.7h-1.35V42h1.36v-1.9h.82z"/><path d="M143.2 45.6q0-1.05.4-1.9.42-.86 1.17-1.34.76-.47 1.72-.47 1.46 0 2.38 1.03.92 1.03.92 2.74v.17q0 1.07-.42 1.93-.4.86-1.16 1.32-.75.46-1.72.46-1.47 0-2.4-1.04-.9-1.03-.9-2.74v-.17zm.8.24q0 1.32.7 2.18.7.85 1.8.85t1.8-.85q.68-.86.68-2.25v-.16q0-.84-.3-1.54-.33-.7-.9-1.1-.56-.38-1.3-.38-1.1 0-1.78.87-.7.85-.7 2.24v.14z"/><path d="M152.08 49.42V42.7h-1.22V42h1.22v-.9q0-1.13.58-1.74.58-.6 1.6-.6.48 0 .88.1l-.06.7q-.34-.1-.75-.1-.67 0-1.05.44-.38.4-.38 1.2v.9h1.77v.67h-1.77v6.72h-.82z"/><path d="M159.23 45.65q0-1.73.77-2.75.77-1 2.1-1 1.5 0 2.3 1.2l.03-1.08h.76v7.25q0 1.43-.8 2.26-.8.84-2.17.84-.78 0-1.48-.35-.7-.34-1.1-.92l.46-.5q.88 1.08 2.07 1.08 1.03 0 1.6-.6.58-.6.6-1.7v-.92q-.8 1.1-2.3 1.1-1.28 0-2.06-1.03-.77-1.02-.77-2.77v-.1zm.83.15q0 1.4.57 2.23.56.82 1.6.82 1.5 0 2.14-1.36v-3.45q-.3-.7-.83-1.08-.54-.37-1.3-.37-1.03 0-1.6.8-.58.82-.58 2.4z"/><path d="M170.74 42.72q-.26-.05-.55-.05-.78 0-1.3.43-.54.43-.76 1.24v5.08h-.8v-7.4h.78l.02 1.18q.65-1.3 2.08-1.3.35 0 .54.08l-.02.74z"/><path d="M171.44 45.6q0-1.05.4-1.9.43-.86 1.18-1.34.76-.47 1.72-.47 1.47 0 2.4 1.03.9 1.03.9 2.74v.17q0 1.07-.4 1.93-.42.86-1.17 1.32-.75.46-1.72.46-1.47 0-2.4-1.04-.9-1.03-.9-2.74v-.17zm.82.24q0 1.32.7 2.18.68.85 1.8.85 1.1 0 1.78-.85.7-.86.7-2.25v-.16q0-.84-.32-1.54-.32-.7-.88-1.1-.57-.38-1.3-.38-1.1 0-1.8.87-.68.85-.68 2.24v.14z"/><path d="M184.5 48.48q-.75 1.08-2.37 1.08-1.18 0-1.8-.7-.6-.68-.62-2.02v-4.82h.82v4.7q0 2.13 1.7 2.13 1.8 0 2.26-1.47v-5.36h.82v7.4h-.8v-.94z"/><path d="M188.2 42.02l.03 1.27q.42-.7 1.04-1.05.62-.36 1.37-.36 1.2 0 1.77.66.6.67.6 2v4.86h-.8v-4.86q-.02-1-.44-1.48-.4-.48-1.3-.48-.77 0-1.36.48-.58.47-.86 1.27v5.07h-.82v-7.4h.78z"/><path d="M194.77 45.65q0-1.72.77-2.74.77-1 2.1-1 1.5 0 2.27 1.17v-4.15h.83v10.5h-.77l-.03-.98q-.8 1.12-2.3 1.12-1.3 0-2.08-1.03t-.78-2.78v-.1zm.83.15q0 1.4.57 2.23.56.82 1.6.82 1.5 0 2.14-1.34v-3.46q-.62-1.44-2.12-1.44-1.03 0-1.6.8-.58.82-.58 2.4z"/><path d="M207.58 40.13v1.9h1.53v.66h-1.52v4.92q0 .62.22.92.23.3.75.3.2 0 .66-.07l.04.67q-.32.12-.87.12-.84 0-1.22-.5-.4-.48-.4-1.43V42.7h-1.35V42h1.36v-1.9h.82z"/><path d="M210.24 45.6q0-1.05.4-1.9.43-.86 1.18-1.34.76-.47 1.72-.47 1.47 0 2.4 1.03.9 1.03.9 2.74v.17q0 1.07-.42 1.93-.4.86-1.16 1.32-.75.46-1.7.46-1.48 0-2.4-1.04-.92-1.04-.92-2.74v-.17zm.82.24q0 1.32.7 2.18.68.85 1.8.85 1.1 0 1.78-.85.7-.86.7-2.25v-.16q0-.84-.32-1.54-.32-.7-.88-1.1-.57-.38-1.3-.38-1.1 0-1.8.87-.68.85-.68 2.24v.14z"/><path d="M223.72 47.72l.13.63.16-.67 1.8-5.66h.68l1.76 5.62.2.78.15-.72 1.5-5.68h.86l-2.16 7.4h-.7l-1.9-5.86-.1-.4-.08.4-1.86 5.86h-.7l-2.14-7.4h.84l1.56 5.7z"/><path d="M235.93 42.72q-.26-.05-.55-.05-.77 0-1.3.43t-.75 1.24v5.08h-.8v-7.4h.78l.03 1.18q.65-1.3 2.08-1.3.36 0 .55.08l-.02.74z"/><path d="M238.13 49.42h-.82v-7.4h.83v7.4zm-.96-9.54q0-.23.15-.4.15-.15.4-.15.27 0 .42.16.16.15.16.38t-.16.4q-.15.15-.4.15-.27 0-.42-.16t-.15-.4z"/><path d="M241.63 40.13v1.9h1.53v.66h-1.53v4.92q0 .62.22.92.23.3.75.3.2 0 .66-.07l.03.67q-.33.12-.88.12-.84 0-1.22-.5-.4-.48-.4-1.43V42.7h-1.35V42h1.36v-1.9h.83z"/><path d="M247.73 49.56q-.94 0-1.7-.47t-1.2-1.3q-.4-.83-.4-1.87v-.3q0-1.06.4-1.9.4-.87 1.15-1.35.74-.5 1.6-.5 1.35 0 2.14.93.8.93.8 2.52v.46h-5.3v.15q0 1.26.73 2.1.72.84 1.82.84.65 0 1.15-.24.5-.24.92-.77l.5.4q-.9 1.3-2.6 1.3zm-.15-6.98q-.92 0-1.56.68-.62.68-.76 1.82h4.43v-.1q-.04-1.06-.6-1.73-.6-.67-1.52-.67z"/><path d="M260.2 49.42q-.12-.35-.15-1.03-.43.55-1.1.86-.67.3-1.4.3-1.08 0-1.74-.6-.65-.6-.65-1.5 0-1.08.9-1.7.9-.64 2.5-.64h1.5v-.84q0-.8-.5-1.24-.5-.46-1.43-.46-.85 0-1.4.43-.57.45-.57 1.07h-.82q0-.9.82-1.53.82-.65 2.02-.65 1.23 0 1.94.6.73.62.75 1.73v3.5q0 1.07.23 1.6v.1h-.88zm-2.57-.6q.82 0 1.47-.38.65-.4.94-1.06v-1.63h-1.46q-1.23 0-1.92.45-.7.43-.7 1.2 0 .6.47 1.02.46.4 1.2.4z"/><path d="M266.1 45.65q0-1.73.78-2.75.77-1 2.1-1 1.5 0 2.3 1.2l.03-1.08h.77v7.25q0 1.43-.8 2.26-.8.84-2.16.84-.77 0-1.47-.35-.7-.34-1.1-.92l.46-.5q.86 1.08 2.05 1.08 1.03 0 1.6-.6.58-.6.6-1.7v-.92q-.8 1.1-2.3 1.1-1.28 0-2.06-1.03-.8-1.02-.8-2.77v-.1zm.84.15q0 1.4.57 2.23.57.82 1.6.82 1.52 0 2.15-1.36v-3.45q-.3-.7-.83-1.08-.54-.37-1.3-.37-1.03 0-1.6.8-.58.82-.58 2.4z"/><path d="M273.76 45.6q0-1.05.4-1.9.43-.86 1.18-1.34.76-.47 1.72-.47 1.47 0 2.4 1.03.9 1.03.9 2.74v.17q0 1.07-.4 1.93-.42.86-1.17 1.32-.76.46-1.73.46-1.47 0-2.4-1.04-.9-1.03-.9-2.74v-.17zm.82.24q0 1.32.7 2.18.68.85 1.8.85 1.1 0 1.78-.85.7-.86.7-2.25v-.16q0-.84-.32-1.54-.32-.7-.88-1.1-.57-.38-1.3-.38-1.1 0-1.8.87-.68.85-.68 2.24v.14z"/><path d="M281.6 45.6q0-1.05.4-1.9.43-.86 1.18-1.34.76-.47 1.72-.47 1.47 0 2.4 1.03.9 1.03.9 2.74v.17q0 1.07-.4 1.93-.42.86-1.17 1.32-.75.46-1.72.46-1.46 0-2.38-1.04-.92-1.03-.92-2.74v-.17zm.82.24q0 1.32.7 2.18.68.85 1.8.85 1.1 0 1.78-.85.7-.86.7-2.25v-.16q0-.84-.32-1.54-.32-.7-.88-1.1-.57-.38-1.3-.38-1.1 0-1.8.87-.68.85-.68 2.24v.14z"/><path d="M289.57 45.65q0-1.72.77-2.74.77-1 2.1-1 1.5 0 2.27 1.17v-4.15h.83v10.5h-.77l-.03-.98q-.8 1.12-2.3 1.12-1.3 0-2.08-1.03t-.78-2.78v-.1zm.83.15q0 1.4.57 2.23.56.82 1.6.82 1.5 0 2.14-1.34v-3.46q-.62-1.44-2.12-1.44-1.03 0-1.6.8-.58.82-.58 2.4z"/><path d="M4.33 62.72q-.26-.05-.56-.05-.76 0-1.3.43-.52.43-.75 1.24v5.08h-.8v-7.4h.8v1.18q.65-1.3 2.1-1.3.33 0 .53.08l-.02.74z"/><path d="M8.34 69.56q-.94 0-1.7-.47-.77-.47-1.2-1.3-.42-.83-.42-1.87v-.3q0-1.06.4-1.9.43-.87 1.17-1.35.73-.5 1.6-.5 1.34 0 2.12.93.8.93.8 2.52v.46H5.84v.15q0 1.26.72 2.1.72.84 1.8.84.67 0 1.17-.24.5-.24.92-.77l.5.4q-.9 1.3-2.6 1.3zm-.15-6.98q-.93 0-1.57.68-.63.68-.76 1.82h4.43v-.1q-.03-1.06-.6-1.73-.58-.67-1.5-.67z"/><path d="M17.15 67.54q0-.6-.5-.98-.48-.37-1.46-.57-1-.22-1.54-.5-.54-.26-.8-.65-.27-.4-.27-.95 0-.87.72-1.44.74-.57 1.88-.57 1.23 0 1.98.6t.75 1.6h-.82q0-.65-.54-1.1-.54-.42-1.36-.42-.8 0-1.3.37-.5.35-.5.93 0 .55.42.86.4.3 1.48.55 1.08.24 1.6.53.55.3.8.7t.27.97q0 .94-.76 1.5-.74.56-1.96.56-1.3 0-2.1-.63-.8-.62-.8-1.58h.83q.04.72.6 1.12.56.4 1.47.4.86 0 1.4-.38.5-.4.5-.96z"/><path d="M22.67 69.56q-.95 0-1.7-.47-.77-.47-1.2-1.3-.42-.83-.42-1.87v-.3q0-1.06.4-1.9.43-.87 1.17-1.35.74-.5 1.6-.5 1.34 0 2.13.93.8.93.8 2.52v.46h-5.28v.15q0 1.26.7 2.1.74.84 1.83.84.66 0 1.16-.24.5-.24.9-.77l.53.4q-.92 1.3-2.63 1.3zm-.15-6.98q-.93 0-1.56.68t-.77 1.82h4.43v-.1q-.03-1.06-.6-1.73-.58-.67-1.5-.67z"/><path d="M31.72 69.42q-.12-.35-.16-1.03-.43.55-1.1.86-.66.3-1.4.3-1.07 0-1.74-.6-.65-.6-.65-1.5 0-1.08.9-1.7.9-.64 2.5-.64h1.48v-.84q0-.8-.5-1.24-.47-.46-1.4-.46-.86 0-1.42.43-.56.45-.56 1.07h-.83q0-.9.83-1.53.82-.65 2-.65 1.25 0 1.96.6.72.62.74 1.73v3.5q0 1.07.22 1.6v.1h-.88zm-2.57-.6q.82 0 1.46-.38.66-.4.95-1.06v-1.63H30.1q-1.23 0-1.92.45-.7.43-.7 1.2 0 .6.47 1.02.46.4 1.2.4z"/><path d="M37.96 62.72q-.26-.05-.55-.05-.76 0-1.3.43-.52.43-.74 1.24v5.08h-.82v-7.4h.8l.02 1.18q.64-1.3 2.08-1.3.34 0 .54.08l-.02.74z"/><path d="M41.84 68.87q.86 0 1.43-.48.58-.5.63-1.26h.8q-.05.67-.44 1.23-.4.56-1.04.87-.64.32-1.38.32-1.45 0-2.3-1-.86-1.03-.86-2.74v-.24q0-1.1.4-1.94.37-.84 1.08-1.3.72-.45 1.68-.45 1.2 0 2 .7.8.74.85 1.92h-.8q-.05-.87-.63-1.4-.57-.54-1.43-.54-1.1 0-1.73.8-.6.8-.6 2.25v.24q0 1.4.6 2.2.63.8 1.74.8z"/><path d="M47.14 63.27q.4-.66 1.03-1.02t1.38-.36q1.2 0 1.77.66.58.67.6 2v4.86h-.83v-4.86q0-1-.43-1.48-.4-.48-1.32-.48-.76 0-1.35.48-.58.47-.86 1.27v5.07h-.8v-10.5h.8v4.35z"/><path d="M63.38 65.8q0 1.73-.77 2.75-.76 1-2.04 1-1.52 0-2.32-1.06v3.76h-.82V62.02h.76l.04 1.05q.8-1.18 2.32-1.18 1.33 0 2.08 1 .76 1 .76 2.78v.12zm-.82-.15q0-1.4-.6-2.23-.57-.82-1.6-.82-.76 0-1.3.36T58.24 64v3.56q.3.64.84.97t1.3.34q1.02 0 1.6-.82.58-.83.58-2.4z"/><path d="M69.86 69.42q-.12-.35-.15-1.03-.42.55-1.1.86-.66.3-1.4.3-1.07 0-1.73-.6-.66-.6-.66-1.5 0-1.08.9-1.7.9-.64 2.52-.64h1.48v-.84q0-.8-.5-1.24-.48-.46-1.4-.46-.87 0-1.43.43-.56.45-.56 1.07H65q0-.9.8-1.53.83-.65 2.03-.65 1.23 0 1.95.6.7.62.73 1.73v3.5q0 1.07.24 1.6v.1h-.88zm-2.57-.6q.8 0 1.46-.38.65-.4.94-1.06v-1.63h-1.46q-1.23 0-1.92.45-.7.43-.7 1.2 0 .6.47 1.02.46.4 1.2.4z"/><path d="M78.63 65.8q0 1.73-.76 2.75-.77 1-2.05 1-1.52 0-2.33-1.06v3.76h-.82V62.02h.76l.04 1.05q.8-1.18 2.32-1.18 1.32 0 2.08 1 .75 1 .75 2.78v.12zm-.82-.15q0-1.4-.57-2.23-.58-.82-1.62-.82-.74 0-1.28.36T73.5 64v3.56q.3.64.83.97t1.3.34q1.03 0 1.6-.82.58-.83.58-2.4z"/><path d="M83.32 69.56q-.95 0-1.7-.47-.77-.47-1.2-1.3-.42-.83-.42-1.87v-.3q0-1.06.4-1.9.43-.87 1.17-1.35.74-.5 1.6-.5 1.34 0 2.13.93.8.93.8 2.52v.46H80.8v.15q0 1.26.7 2.1.74.84 1.83.84.66 0 1.16-.24.5-.24.92-.77l.52.4q-.9 1.3-2.62 1.3zm-.15-6.98q-.93 0-1.56.68-.62.68-.76 1.82h4.44v-.1q-.04-1.06-.6-1.73-.58-.67-1.5-.67z"/><path d="M91.12 62.72q-.26-.05-.56-.05-.76 0-1.3.43-.52.43-.75 1.24v5.08h-.8v-7.4h.8v1.18q.66-1.3 2.1-1.3.34 0 .54.08l-.02.74z"/><path d="M91.48 68.93q0-.24.15-.4.16-.18.43-.18t.43.17q.15.17.15.4t-.16.4q-.17.15-.44.15t-.43-.15q-.15-.15-.15-.4z"/><path d="M98.5 69.42v-9.95h2.94q1.6 0 2.43.66.82.66.82 1.94 0 .77-.43 1.35-.42.57-1.15.8.87.2 1.4.87.53.65.53 1.52 0 1.32-.86 2.06-.87.74-2.38.74H98.5zm.84-4.8v4.1h2.52q1.08 0 1.7-.56.65-.55.65-1.53 0-.92-.6-1.46-.6-.54-1.67-.54h-2.6zm0-.7h2.3q1.05 0 1.62-.48.58-.48.58-1.4 0-.95-.6-1.4-.6-.46-1.8-.46h-2.1v3.75z"/><path d="M111.65 68.48q-.74 1.08-2.36 1.08-1.2 0-1.8-.7-.62-.68-.63-2.02v-4.82h.8v4.7q0 2.13 1.72 2.13 1.77 0 2.24-1.47v-5.36h.82v7.4h-.8v-.94z"/><path d="M115.85 60.13v1.9h1.53v.66h-1.53v4.92q0 .62.22.92.23.3.75.3.2 0 .66-.07l.03.67q-.3.12-.86.12-.84 0-1.22-.5-.4-.48-.4-1.43V62.7h-1.35V62h1.36v-1.9h.82z"/><path d="M123.42 69.42h-.82v-7.4h.82v7.4zm-.96-9.54q0-.23.15-.4.16-.15.42-.15t.4.16q.17.15.17.38t-.17.4q-.15.15-.4.15-.27 0-.42-.16t-.14-.4z"/><path d="M126.92 60.13v1.9h1.53v.66h-1.53v4.92q0 .62.22.92.23.3.75.3.2 0 .65-.07l.03.67q-.32.12-.87.12-.83 0-1.2-.5-.4-.48-.4-1.43V62.7h-1.36V62h1.36v-1.9h.82z"/><path d="M133.25 65.65q0-1.73.77-2.75.77-1 2.1-1 1.5 0 2.3 1.2l.03-1.08h.76v7.25q0 1.43-.8 2.26-.8.84-2.15.84-.78 0-1.48-.35-.7-.34-1.1-.92l.46-.5q.87 1.08 2.06 1.08 1.02 0 1.6-.6.57-.6.6-1.7v-.92q-.8 1.1-2.3 1.1-1.3 0-2.07-1.03-.78-1.02-.78-2.77v-.1zm.83.15q0 1.4.57 2.23.56.82 1.6.82 1.5 0 2.14-1.36v-3.45q-.3-.7-.84-1.08-.54-.37-1.3-.37-1.03 0-1.6.8-.58.82-.58 2.4z"/><path d="M144.2 69.56q-.93 0-1.7-.47-.75-.47-1.18-1.3-.42-.83-.42-1.87v-.3q0-1.06.4-1.9.42-.87 1.16-1.35.74-.5 1.6-.5 1.35 0 2.14.93.8.93.8 2.52v.46h-5.3v.15q0 1.26.73 2.1.72.84 1.82.84.65 0 1.15-.24.5-.24.92-.77l.5.4q-.9 1.3-2.6 1.3zm-.14-6.98q-.92 0-1.56.68-.62.68-.76 1.82h4.43v-.1q-.03-1.06-.6-1.73-.58-.67-1.5-.67z"/><path d="M149.86 60.13v1.9h1.53v.66h-1.54v4.92q0 .62.22.92.23.3.75.3.2 0 .66-.07l.02.67q-.32.12-.87.12-.84 0-1.22-.5-.4-.48-.4-1.43V62.7h-1.35V62h1.36v-1.9h.82z"/><path d="M157.53 67.54q0-.6-.5-.98-.47-.37-1.46-.57-.98-.22-1.53-.5-.54-.26-.8-.65-.27-.4-.27-.95 0-.87.73-1.44.74-.57 1.88-.57 1.24 0 1.98.6.75.6.75 1.6h-.8q0-.65-.55-1.1-.54-.42-1.37-.42-.8 0-1.3.37-.5.35-.5.93 0 .55.42.86.4.3 1.48.55 1.08.24 1.6.53.55.3.8.7.27.4.27.97 0 .94-.76 1.5t-1.97.56q-1.3 0-2.1-.63-.8-.62-.8-1.58h.82q.05.72.6 1.12.56.4 1.48.4.85 0 1.38-.38.53-.4.53-.96z"/><path d="M166.47 69.56q-.94 0-1.7-.47t-1.2-1.3q-.4-.83-.4-1.87v-.3q0-1.06.4-1.9.4-.87 1.15-1.35.74-.5 1.6-.5 1.35 0 2.14.93.8.93.8 2.52v.46h-5.3v.15q0 1.26.73 2.1.7.84 1.8.84.66 0 1.16-.24.5-.24.92-.77l.5.4q-.9 1.3-2.6 1.3zm-.15-6.98q-.92 0-1.56.68-.62.68-.76 1.82h4.43v-.1q-.03-1.06-.6-1.73-.58-.67-1.5-.67z"/><path d="M175.52 69.42q-.12-.35-.15-1.03-.43.55-1.1.86-.67.3-1.4.3-1.08 0-1.74-.6-.66-.6-.66-1.5 0-1.08.9-1.7.9-.64 2.5-.64h1.5v-.84q0-.8-.5-1.24-.5-.46-1.43-.46-.85 0-1.4.43-.57.45-.57 1.07h-.82q0-.9.82-1.53.82-.65 2.02-.65 1.22 0 1.93.6.72.62.74 1.73v3.5q0 1.07.23 1.6v.1h-.88zm-2.57-.6q.82 0 1.47-.38.65-.4.94-1.06v-1.63h-1.46q-1.23 0-1.92.45-.7.43-.7 1.2 0 .6.47 1.02.46.4 1.2.4z"/><path d="M182.77 67.54q0-.6-.5-.98-.47-.37-1.46-.57-.97-.22-1.52-.5-.54-.26-.8-.65-.27-.4-.27-.95 0-.87.74-1.44t1.88-.57q1.24 0 1.98.6.75.6.75 1.6h-.82q0-.65-.54-1.1-.55-.42-1.38-.42-.8 0-1.3.37-.5.35-.5.93 0 .55.42.86.4.3 1.48.55 1.08.24 1.6.53.55.3.8.7.27.4.27.97 0 .94-.77 1.5-.75.56-1.96.56-1.3 0-2.1-.63-.8-.62-.8-1.58h.82q.04.72.6 1.12.55.4 1.47.4.85 0 1.38-.38.52-.4.52-.96z"/><path d="M186.34 69.42h-.82v-7.4h.82v7.4zm-.96-9.54q0-.23.15-.4.15-.15.4-.15.27 0 .42.16.16.15.16.38t-.15.4q-.15.15-.4.15-.27 0-.42-.16t-.15-.4z"/><path d="M191.43 69.56q-.94 0-1.7-.47t-1.2-1.3q-.4-.83-.4-1.87v-.3q0-1.06.4-1.9.4-.87 1.15-1.35.74-.5 1.6-.5 1.35 0 2.14.93.8.93.8 2.52v.46h-5.3v.15q0 1.26.73 2.1.72.84 1.82.84.65 0 1.15-.24.5-.24.92-.77l.5.4q-.9 1.3-2.6 1.3zm-.15-6.98q-.92 0-1.56.68-.62.68-.76 1.82h4.43v-.1q-.04-1.06-.6-1.73-.6-.67-1.52-.67z"/><path d="M199.23 62.72q-.26-.05-.55-.05-.77 0-1.3.43t-.75 1.24v5.08h-.8v-7.4h.78l.03 1.18q.65-1.3 2.08-1.3.36 0 .55.08l-.02.74z"/><path d="M205.7 67.72l.13.63.16-.67 1.77-5.66h.7l1.75 5.62.2.78.15-.72 1.52-5.68h.84l-2.16 7.4h-.7l-1.9-5.86-.1-.4-.08.4-1.86 5.86h-.7l-2.14-7.4h.84l1.56 5.7z"/><path d="M215.4 69.42h-.82v-7.4h.82v7.4zm-.96-9.54q0-.23.15-.4.14-.15.4-.15t.4.16q.17.15.17.38t-.16.4q-.14.15-.4.15t-.4-.16-.16-.4z"/><path d="M218.9 60.13v1.9h1.53v.66h-1.53v4.92q0 .62.22.92.23.3.75.3.2 0 .66-.07l.03.67q-.32.12-.87.12-.85 0-1.23-.5-.4-.48-.4-1.43V62.7h-1.35V62h1.36v-1.9h.82z"/><path d="M222.96 63.27q.4-.66 1.04-1.02.62-.36 1.37-.36 1.2 0 1.77.66.58.67.6 2v4.86h-.83v-4.86q0-1-.4-1.48-.42-.48-1.33-.48-.76 0-1.35.48-.58.47-.86 1.27v5.07h-.8v-10.5h.8v4.35z"/><path d="M232.8 65.6q0-1.05.4-1.9.43-.86 1.18-1.34.76-.47 1.72-.47 1.47 0 2.4 1.03.9 1.03.9 2.74v.17q0 1.07-.4 1.93-.42.86-1.17 1.32-.75.46-1.72.46-1.46 0-2.38-1.04-.92-1.03-.92-2.74v-.17zm.82.24q0 1.32.7 2.18.68.85 1.8.85 1.1 0 1.78-.85.7-.86.7-2.25v-.16q0-.84-.32-1.54-.32-.7-.88-1.1-.57-.38-1.3-.38-1.1 0-1.8.87-.68.85-.68 2.24v.14z"/><path d="M245.85 68.48q-.74 1.08-2.36 1.08-1.2 0-1.8-.7-.62-.68-.63-2.02v-4.82h.8v4.7q0 2.13 1.72 2.13 1.77 0 2.24-1.47v-5.36h.82v7.4h-.8v-.94z"/><path d="M252.2 62.72q-.26-.05-.55-.05-.77 0-1.3.43t-.75 1.24v5.08h-.8v-7.4h.78l.02 1.18q.65-1.3 2.08-1.3.35 0 .54.08l-.02.74z"/><path d="M257.7 63.27q.42-.66 1.05-1.02.62-.36 1.37-.36 1.2 0 1.77.66.57.67.58 2v4.86h-.82v-4.86q0-1-.42-1.48-.4-.48-1.32-.48-.76 0-1.35.48-.58.47-.86 1.27v5.07h-.8v-10.5h.8v4.35z"/><path d="M267.45 69.56q-.94 0-1.7-.47t-1.2-1.3q-.4-.83-.4-1.87v-.3q0-1.06.4-1.9.4-.87 1.15-1.35.74-.5 1.6-.5 1.35 0 2.14.93.8.93.8 2.52v.46h-5.3v.15q0 1.26.73 2.1.72.84 1.82.84.64 0 1.14-.24.5-.24.92-.77l.5.4q-.9 1.3-2.6 1.3zm-.15-6.98q-.92 0-1.56.68-.62.68-.76 1.82h4.43v-.1q-.02-1.06-.6-1.73-.57-.67-1.5-.67z"/><path d="M272.74 69.42h-.82v-10.5h.82v10.5z"/><path d="M280.92 65.8q0 1.73-.76 2.75-.77 1-2.05 1-1.5 0-2.32-1.06v3.76h-.8V62.02h.75l.04 1.05q.8-1.18 2.32-1.18 1.3 0 2.06 1t.76 2.78v.12zm-.82-.15q0-1.4-.58-2.23-.58-.82-1.62-.82-.75 0-1.3.36-.53.36-.82 1.05v3.56q.3.64.84.97.55.34 1.3.34 1.03 0 1.6-.82.58-.83.58-2.4z"/><path d="M283.6 66.65h-.75l-.04-7.18h.86l-.05 7.18zm-.88 2.3q0-.24.15-.4.15-.16.4-.16.27 0 .42.15.15.16.15.4 0 .22-.16.37t-.42.15q-.26 0-.4-.15-.16-.15-.16-.38z"/><path d="M293.92 59.47h.85v7q0 1.4-.82 2.25-.8.84-2.2.84-1.44 0-2.22-.76-.77-.76-.77-2.12h.84q0 1.08.56 1.63.57.55 1.6.55.95 0 1.55-.63.6-.63.62-1.7v-7.05z"/><path d="M301.8 68.48q-.74 1.08-2.36 1.08-1.18 0-1.8-.7-.6-.68-.62-2.02v-4.82h.8v4.7q0 2.13 1.72 2.13 1.78 0 2.25-1.47v-5.36h.8v7.4h-.78l-.02-.94z"/><path d="M309.15 67.54q0-.6-.5-.98-.47-.37-1.46-.57-1-.22-1.54-.5-.54-.26-.8-.65-.27-.4-.27-.95 0-.87.72-1.44.74-.57 1.88-.57 1.24 0 1.98.6.75.6.75 1.6h-.82q0-.65-.53-1.1-.54-.42-1.37-.42-.8 0-1.3.37-.5.35-.5.93 0 .55.42.86.4.3 1.48.55 1.08.24 1.6.53.55.3.8.7.27.4.27.97 0 .94-.76 1.5-.74.56-1.95.56-1.3 0-2.1-.63-.8-.62-.8-1.58h.82q.05.72.6 1.12.56.4 1.48.4.85 0 1.38-.38.52-.4.52-.96z"/><path d="M313.08 60.13v1.9h1.53v.66h-1.52v4.92q0 .62.22.92.23.3.75.3.2 0 .66-.07l.04.67q-.32.12-.87.12-.84 0-1.22-.5-.4-.48-.4-1.43V62.7h-1.35V62h1.36v-1.9h.82z"/><path d="M2.18 80.13v1.9H3.7v.66H2.2v4.92q0 .62.22.92.23.3.74.3.2 0 .67-.07l.04.67q-.32.12-.87.12-.84 0-1.23-.5-.38-.48-.38-1.43V82.7H0V82h1.36v-1.9h.82z"/><path d="M8.3 89.56q-.96 0-1.72-.47t-1.2-1.3q-.4-.83-.4-1.87v-.3q0-1.06.4-1.9.42-.87 1.16-1.35.73-.5 1.6-.5 1.34 0 2.13.93.8.93.8 2.52v.46h-5.3v.15q0 1.26.73 2.1.73.84 1.82.84.66 0 1.16-.24.5-.24.9-.77l.52.4q-.9 1.3-2.6 1.3zm-.17-6.98q-.92 0-1.55.68t-.77 1.82h4.45v-.1q-.04-1.06-.6-1.73-.6-.67-1.5-.67z"/><path d="M13.58 89.42h-.82v-10.5h.82v10.5z"/><path d="M16.73 89.42h-.82v-10.5h.83v10.5z"/><path d="M27.13 88.48q-.74 1.08-2.36 1.08-1.18 0-1.8-.7-.6-.68-.62-2.02v-4.82h.8v4.7q0 2.13 1.72 2.13 1.78 0 2.25-1.47v-5.36h.82v7.4h-.8v-.94z"/><path d="M34.5 87.54q0-.6-.5-.98-.5-.37-1.47-.57-1-.22-1.54-.5-.55-.26-.8-.65-.27-.4-.27-.95 0-.87.73-1.44t1.87-.57q1.24 0 2 .6.74.6.74 1.6h-.82q0-.65-.55-1.1-.54-.42-1.37-.42-.8 0-1.3.37-.48.35-.48.93 0 .55.4.86.4.3 1.5.55 1.07.24 1.6.53.54.3.8.7.26.4.26.97 0 .94-.75 1.5t-1.97.56q-1.3 0-2.1-.63-.8-.62-.8-1.58h.82q.05.72.6 1.12.56.4 1.48.4.86 0 1.38-.38.53-.4.53-.96z"/><path d="M42.9 88.24l2.16-6.22h.9l-3.17 8.66-.18.38q-.6 1.35-1.88 1.35-.3 0-.63-.1v-.67l.43.05q.6 0 .97-.3.38-.3.64-1.02l.36-1-2.8-7.34h.9l2.3 6.22z"/><path d="M46.64 85.6q0-1.05.4-1.9.43-.86 1.18-1.34.76-.47 1.72-.47 1.47 0 2.4 1.03.9 1.03.9 2.74v.17q0 1.07-.4 1.93-.42.86-1.17 1.32-.76.46-1.72.46-1.47 0-2.4-1.04-.9-1.03-.9-2.74v-.17zm.82.24q0 1.32.7 2.18.68.85 1.8.85 1.1 0 1.78-.85.7-.86.7-2.25v-.16q0-.84-.32-1.54-.32-.7-.88-1.1-.57-.38-1.3-.38-1.1 0-1.8.87-.68.85-.68 2.24v.14z"/><path d="M59.7 88.48q-.74 1.08-2.36 1.08-1.18 0-1.8-.7-.6-.68-.63-2.02v-4.82h.83v4.7q0 2.13 1.7 2.13 1.78 0 2.25-1.47v-5.36h.82v7.4h-.8v-.94z"/><path d="M66.04 82.72q-.26-.05-.55-.05-.78 0-1.3.43-.54.43-.76 1.24v5.08h-.82v-7.4h.8l.02 1.18q.65-1.3 2.08-1.3.34 0 .54.08l-.02.74z"/><path d="M72.02 80.13v1.9h1.53v.66h-1.53v4.92q0 .62.22.92.22.3.74.3.2 0 .66-.07l.04.67q-.32.12-.88.12-.84 0-1.22-.5-.38-.48-.38-1.43V82.7h-1.36V82h1.36v-1.9h.82z"/><path d="M74.67 85.6q0-1.05.4-1.9.43-.86 1.18-1.34.76-.47 1.7-.47 1.5 0 2.4 1.03.92 1.03.92 2.74v.17q0 1.07-.4 1.93-.42.86-1.18 1.32-.76.46-1.72.46-1.47 0-2.4-1.04-.9-1.03-.9-2.74v-.17zm.82.24q0 1.32.67 2.18.7.85 1.8.85t1.8-.85q.7-.86.7-2.25v-.16q0-.84-.33-1.54-.3-.7-.88-1.1-.56-.38-1.3-.38-1.1 0-1.78.87-.7.85-.7 2.24v.14z"/><path d="M88.92 85.8q0 1.73-.77 2.75-.77 1-2.05 1-1.52 0-2.33-1.06v3.76h-.8V82.02h.75l.04 1.05q.8-1.18 2.32-1.18 1.32 0 2.08 1t.76 2.78v.12zm-.83-.15q0-1.4-.6-2.23-.57-.82-1.6-.82-.76 0-1.3.36T83.77 84v3.56q.3.64.85.97t1.3.34q1.02 0 1.6-.82.57-.83.57-2.4z"/><path d="M91.65 89.42h-.82v-7.4h.82v7.4zm-.96-9.54q0-.23.14-.4.15-.15.4-.15t.42.16q.15.15.15.38t-.14.4q-.15.15-.4.15-.27 0-.42-.16-.15-.15-.15-.4z"/><path d="M96.6 88.87q.87 0 1.44-.48.58-.5.63-1.26h.8q-.05.67-.44 1.23-.4.56-1.04.87-.65.32-1.4.32-1.44 0-2.3-1.02-.85-1-.85-2.72v-.24q0-1.1.4-1.94.37-.84 1.08-1.3.72-.45 1.68-.45 1.22 0 2 .7.8.74.86 1.92h-.8q-.04-.87-.62-1.4-.57-.54-1.43-.54-1.1 0-1.72.8-.6.8-.6 2.25v.23q0 1.42.6 2.2.62.8 1.73.8z"/><path d="M109.18 89.42q-.12-.35-.15-1.03-.43.55-1.1.86-.67.3-1.4.3-1.08 0-1.74-.6-.67-.6-.67-1.5 0-1.08.9-1.7.9-.64 2.5-.64h1.5v-.84q0-.8-.5-1.24-.5-.46-1.43-.46-.85 0-1.4.43-.57.45-.57 1.07h-.82q0-.9.83-1.53.82-.65 2.02-.65 1.23 0 1.94.6.7.62.73 1.73v3.5q0 1.07.23 1.6v.1h-.88zm-2.57-.6q.83 0 1.48-.38.65-.4.94-1.06v-1.63h-1.46q-1.23 0-1.92.45-.7.43-.7 1.2 0 .6.47 1.02.47.4 1.2.4z"/><path d="M112.78 82.02l.03 1.27q.43-.7 1.05-1.05.62-.36 1.37-.36 1.2 0 1.77.66.57.67.58 2v4.86h-.8v-4.86q-.02-1-.44-1.48-.4-.48-1.3-.48-.77 0-1.36.48-.58.47-.86 1.27v5.07H112v-7.4h.78z"/><path d="M119.36 85.65q0-1.72.77-2.74.77-1 2.1-1 1.5 0 2.27 1.17v-4.15h.82v10.5h-.77l-.03-.98q-.8 1.12-2.3 1.12-1.3 0-2.08-1.03t-.78-2.78v-.1zm.83.15q0 1.4.56 2.23.56.82 1.6.82 1.5 0 2.14-1.34v-3.46q-.63-1.44-2.13-1.44-1.03 0-1.6.8-.58.82-.58 2.4z"/><path d="M130.57 85.65q0-1.72.77-2.74.77-1 2.1-1 1.5 0 2.27 1.17v-4.15h.83v10.5h-.77l-.03-.98q-.8 1.12-2.3 1.12-1.3 0-2.08-1.03t-.78-2.78v-.1zm.83.15q0 1.4.57 2.23.56.82 1.6.82 1.5 0 2.14-1.34v-3.46q-.62-1.44-2.12-1.44-1.03 0-1.6.8-.58.82-.58 2.4z"/><path d="M138.24 85.6q0-1.05.4-1.9.43-.86 1.18-1.34.76-.47 1.72-.47 1.47 0 2.4 1.03.9 1.03.9 2.74v.17q0 1.07-.4 1.93-.42.86-1.17 1.32-.75.46-1.72.46-1.47 0-2.4-1.04-.9-1.03-.9-2.74v-.17zm.82.24q0 1.32.7 2.18.68.85 1.8.85 1.1 0 1.78-.85.7-.86.7-2.25v-.16q0-.84-.32-1.54-.32-.7-.88-1.1-.57-.38-1.3-.38-1.1 0-1.8.87-.68.85-.68 2.24v.14z"/><path d="M148.3 87.72l.14.63.16-.67 1.78-5.66h.7l1.75 5.62.2.78.15-.72 1.52-5.68h.85l-2.16 7.4h-.7l-1.9-5.86-.1-.4-.1.4-1.85 5.86h-.7l-2.14-7.4h.85l1.56 5.7z"/><path d="M157.87 82.02l.03 1.27q.42-.7 1.04-1.05.62-.36 1.37-.36 1.2 0 1.78.66.6.67.6 2v4.86h-.82v-4.86q0-1-.43-1.48-.4-.48-1.3-.48-.77 0-1.36.48-.58.47-.86 1.27v5.07h-.8v-7.4h.77z"/><path d="M165.7 89.42h-.83v-10.5h.82v10.5z"/><path d="M167.47 85.6q0-1.05.4-1.9.43-.86 1.18-1.34.76-.47 1.72-.47 1.47 0 2.4 1.03.9 1.03.9 2.74v.17q0 1.07-.4 1.93-.42.86-1.17 1.32-.75.46-1.72.46-1.47 0-2.4-1.04-.9-1.03-.9-2.74v-.17zm.82.24q0 1.32.68 2.18.7.85 1.8.85t1.8-.85q.68-.86.68-2.25v-.16q0-.84-.3-1.54-.33-.7-.9-1.1-.56-.38-1.3-.38-1.1 0-1.78.87-.7.85-.7 2.24v.14z"/><path d="M180.44 89.42q-.12-.35-.15-1.03-.44.55-1.1.86-.68.3-1.42.3-1.07 0-1.73-.6-.66-.6-.66-1.5 0-1.08.9-1.7.9-.64 2.5-.64h1.48v-.84q0-.8-.5-1.24-.48-.46-1.42-.46-.85 0-1.4.43-.57.45-.57 1.07h-.83q0-.9.82-1.53.8-.65 2-.65 1.24 0 1.95.6.72.62.74 1.73v3.5q0 1.07.22 1.6v.1h-.88zm-2.57-.6q.82 0 1.47-.38.65-.4.94-1.06v-1.63h-1.46q-1.23 0-1.92.45-.7.43-.7 1.2 0 .6.47 1.02.46.4 1.2.4z"/><path d="M182.93 85.65q0-1.72.77-2.74.77-1 2.1-1 1.5 0 2.27 1.17v-4.15h.82v10.5h-.78l-.03-.98q-.8 1.12-2.32 1.12-1.28 0-2.07-1.03-.77-1.03-.77-2.78v-.1zm.83.15q0 1.4.57 2.23.56.82 1.6.82 1.5 0 2.14-1.34v-3.46q-.63-1.44-2.13-1.44-1.03 0-1.6.8-.58.82-.58 2.4z"/><path d="M199.14 89.42q-.12-.35-.15-1.03-.44.55-1.1.86-.68.3-1.42.3-1.07 0-1.73-.6-.66-.6-.66-1.5 0-1.08.9-1.7.9-.64 2.5-.64h1.48v-.84q0-.8-.5-1.24-.48-.46-1.42-.46-.85 0-1.4.43-.57.45-.57 1.07h-.83q0-.9.82-1.53.8-.65 2-.65 1.24 0 1.95.6.72.62.74 1.73v3.5q0 1.07.22 1.6v.1h-.88zm-2.57-.6q.82 0 1.47-.38.65-.4.94-1.06v-1.63h-1.46q-1.23 0-1.92.45-.7.43-.7 1.2 0 .6.47 1.02.46.4 1.2.4z"/><path d="M208.12 88.87q.86 0 1.43-.48.58-.5.63-1.26h.8q-.05.67-.44 1.23-.4.56-1.04.87-.64.32-1.38.32-1.45 0-2.3-1.02-.86-1-.86-2.72v-.24q0-1.1.4-1.94.37-.84 1.08-1.3.72-.45 1.68-.45 1.2 0 2 .7.8.74.85 1.92h-.8q-.04-.87-.62-1.4-.57-.54-1.43-.54-1.1 0-1.73.8-.6.8-.6 2.25v.23q0 1.42.6 2.2.6.8 1.72.8z"/><path d="M217.36 88.48q-.74 1.08-2.36 1.08-1.18 0-1.8-.7-.6-.68-.62-2.02v-4.82h.8v4.7q0 2.13 1.72 2.13 1.78 0 2.25-1.47v-5.36h.82v7.4h-.8v-.94z"/><path d="M224.72 87.54q0-.6-.5-.98-.47-.37-1.46-.57-.98-.22-1.53-.5-.54-.26-.8-.65-.27-.4-.27-.95 0-.87.73-1.44t1.87-.57q1.24 0 1.98.6.75.6.75 1.6h-.82q0-.65-.54-1.1-.54-.42-1.37-.42-.8 0-1.3.37-.5.35-.5.93 0 .55.42.86.4.3 1.47.55 1.08.24 1.6.53.55.3.8.7.27.4.27.97 0 .94-.76 1.5-.75.56-1.96.56-1.3 0-2.1-.63-.8-.62-.8-1.58h.82q.05.72.6 1.12.56.4 1.48.4.85 0 1.38-.38.52-.4.52-.96z"/><path d="M228.64 80.13v1.9h1.53v.66h-1.53v4.92q0 .62.22.92.23.3.75.3.2 0 .67-.07l.03.67q-.32.12-.87.12-.84 0-1.22-.5-.38-.48-.38-1.43V82.7h-1.36V82h1.36v-1.9h.82z"/><path d="M231.3 85.6q0-1.05.4-1.9.42-.86 1.17-1.34.76-.47 1.72-.47 1.46 0 2.38 1.03.92 1.03.92 2.74v.17q0 1.07-.42 1.93-.4.86-1.16 1.32-.75.46-1.72.46-1.47 0-2.4-1.04-.9-1.03-.9-2.74v-.17zm.8.24q0 1.32.7 2.18.7.85 1.8.85t1.8-.85q.68-.86.68-2.25v-.16q0-.84-.3-1.54-.33-.7-.9-1.1-.56-.38-1.3-.38-1.1 0-1.78.87-.7.85-.7 2.24v.14z"/><path d="M240.34 82.02l.03 1.2q.4-.66 1.03-1 .6-.33 1.36-.33 1.75 0 2.22 1.42.4-.7 1.06-1.06.67-.37 1.47-.37 2.4 0 2.43 2.58v4.94h-.82v-4.87q0-1-.42-1.47-.4-.48-1.36-.48-.9 0-1.5.57-.6.56-.67 1.36v4.9h-.82v-4.95q0-.95-.45-1.4-.44-.48-1.36-.48-.77 0-1.32.44-.56.44-.82 1.3v5.08h-.82v-7.4h.78z"/><path d="M254.55 85.37h-3.27v-.7h3.27v.7z"/><path d="M256.77 82.02l.03 1.2q.4-.66 1.03-1 .6-.33 1.36-.33 1.74 0 2.2 1.42.4-.7 1.07-1.06.67-.37 1.47-.37 2.38 0 2.42 2.58v4.94h-.82v-4.87q0-1-.43-1.47-.4-.48-1.35-.48-.9 0-1.5.57-.6.56-.67 1.36v4.9h-.82v-4.95q0-.95-.45-1.4-.43-.48-1.35-.48-.77 0-1.32.44-.56.44-.82 1.3v5.08h-.8v-7.4h.77z"/><path d="M273.1 89.42q-.1-.35-.14-1.03-.43.55-1.1.86-.67.3-1.4.3-1.08 0-1.74-.6-.66-.6-.66-1.5 0-1.08.9-1.7.9-.64 2.5-.64h1.5v-.84q0-.8-.5-1.24-.5-.46-1.43-.46-.85 0-1.4.43-.57.45-.57 1.07h-.82q0-.9.82-1.53.82-.65 2.02-.65 1.23 0 1.94.6.72.62.74 1.73v3.5q0 1.07.23 1.6v.1h-.9zm-2.56-.6q.82 0 1.47-.38.66-.4.95-1.06v-1.63h-1.46q-1.24 0-1.93.45-.7.43-.7 1.2 0 .6.47 1.02.46.4 1.2.4z"/><path d="M275.6 85.65q0-1.72.77-2.74.77-1 2.1-1 1.5 0 2.27 1.17v-4.15h.82v10.5h-.77l-.04-.98q-.8 1.12-2.3 1.12-1.3 0-2.08-1.03t-.78-2.78v-.1zm.83.15q0 1.4.57 2.23.56.82 1.6.82 1.5 0 2.14-1.34v-3.46q-.63-1.44-2.13-1.44-1.02 0-1.6.8-.57.82-.57 2.4z"/><path d="M286.6 89.56q-.95 0-1.72-.47-.75-.47-1.18-1.3-.42-.83-.42-1.87v-.3q0-1.06.4-1.9.42-.87 1.16-1.35.74-.5 1.6-.5 1.35 0 2.14.93.8.93.8 2.52v.46h-5.3v.15q0 1.26.73 2.1.73.84 1.83.84.65 0 1.15-.24.5-.24.92-.77l.5.4q-.9 1.3-2.6 1.3zm-.16-6.98q-.92 0-1.56.68-.62.68-.76 1.82h4.43v-.1q-.03-1.06-.6-1.73-.58-.67-1.5-.67z"/><path d="M4.33 102.72q-.26-.05-.56-.05-.76 0-1.3.43-.52.43-.75 1.24v5.08h-.8v-7.4h.8v1.18q.65-1.3 2.1-1.3.33 0 .53.07l-.02.75z"/><path d="M8.34 109.56q-.94 0-1.7-.46-.77-.47-1.2-1.3-.42-.83-.42-1.86v-.3q0-1.06.4-1.92.43-.85 1.17-1.34.73-.5 1.6-.5 1.34 0 2.12.93.8.93.8 2.52v.46H5.84v.16q0 1.25.72 2.1.72.83 1.8.83.67 0 1.17-.24.5-.24.92-.77l.5.4q-.9 1.3-2.6 1.3zm-.15-6.97q-.93 0-1.57.66-.63.68-.76 1.82h4.43v-.1q-.03-1.05-.6-1.72-.58-.67-1.5-.67z"/><path d="M17.15 107.54q0-.6-.5-.98-.48-.37-1.46-.57-1-.22-1.54-.5-.54-.26-.8-.65-.27-.4-.27-.95 0-.87.72-1.44.74-.57 1.88-.57 1.23 0 1.98.6t.75 1.6h-.82q0-.65-.54-1.1-.54-.42-1.36-.42-.8 0-1.3.37-.5.35-.5.93 0 .55.42.86.4.3 1.48.55 1.08.24 1.6.53.55.3.8.7t.27.97q0 .94-.76 1.5-.74.56-1.96.56-1.3 0-2.1-.63-.8-.62-.8-1.58h.83q.04.72.6 1.12.56.4 1.47.4.86 0 1.4-.38.5-.4.5-.96z"/><path d="M22.67 109.56q-.95 0-1.7-.46-.77-.47-1.2-1.3-.42-.83-.42-1.86v-.3q0-1.06.4-1.92.43-.85 1.17-1.34.74-.5 1.6-.5 1.34 0 2.13.93.8.93.8 2.52v.46h-5.28v.16q0 1.25.7 2.1.74.83 1.83.83.66 0 1.16-.24.5-.24.9-.77l.53.4q-.92 1.3-2.63 1.3zm-.15-6.97q-.93 0-1.56.66-.63.68-.77 1.82h4.43v-.1q-.03-1.05-.6-1.72-.58-.67-1.5-.67z"/><path d="M31.72 109.42q-.12-.35-.16-1.03-.43.55-1.1.86-.66.3-1.4.3-1.07 0-1.74-.6-.65-.6-.65-1.5 0-1.08.9-1.7.9-.64 2.5-.64h1.48v-.84q0-.8-.5-1.24-.47-.46-1.4-.46-.86 0-1.42.43-.56.45-.56 1.07h-.83q0-.9.83-1.53.82-.65 2-.65 1.25 0 1.96.6.72.62.74 1.73v3.5q0 1.07.22 1.6v.1h-.88zm-2.57-.6q.82 0 1.46-.38.66-.4.95-1.06v-1.63H30.1q-1.23 0-1.92.45-.7.43-.7 1.2 0 .6.47 1.02.46.4 1.2.4z"/><path d="M37.96 102.72q-.26-.05-.55-.05-.76 0-1.3.43-.52.43-.74 1.24v5.08h-.82v-7.4h.8l.02 1.18q.64-1.3 2.08-1.3.34 0 .54.07l-.02.75z"/><path d="M41.84 108.87q.86 0 1.43-.48.58-.5.63-1.26h.8q-.05.68-.44 1.24-.4.55-1.04.87-.64.3-1.38.3-1.45 0-2.3-1-.86-1-.86-2.72v-.25q0-1.1.4-1.93.37-.84 1.08-1.3.72-.46 1.68-.46 1.2 0 2 .72t.85 1.9h-.8q-.05-.87-.63-1.4-.57-.53-1.43-.53-1.1 0-1.73.8-.6.8-.6 2.23v.24q0 1.4.6 2.2.63.8 1.74.8z"/><path d="M47.14 103.27q.4-.66 1.03-1.03.63-.36 1.38-.36 1.2 0 1.77.67.58.67.6 2v4.87h-.83v-4.86q0-1-.43-1.48-.4-.5-1.32-.5-.76 0-1.35.5-.58.46-.86 1.27v5.07h-.8v-10.5h.8v4.35z"/><path d="M63.38 105.8q0 1.73-.77 2.75-.76 1-2.04 1-1.52 0-2.32-1.06v3.77h-.82v-10.24h.76l.04 1.04q.8-1.18 2.32-1.18 1.33 0 2.08 1 .76 1 .76 2.78v.12zm-.82-.14q0-1.42-.6-2.24-.57-.82-1.6-.82-.76 0-1.3.36-.54.37-.82 1.06v3.54q.3.64.84.97t1.3.34q1.02 0 1.6-.82.58-.83.58-2.4z"/><path d="M69.86 109.42q-.12-.35-.15-1.03-.42.55-1.1.86-.66.3-1.4.3-1.07 0-1.73-.6-.66-.6-.66-1.5 0-1.08.9-1.7.9-.64 2.52-.64h1.48v-.84q0-.8-.5-1.24-.48-.46-1.4-.46-.87 0-1.43.43-.56.45-.56 1.07H65q0-.9.8-1.53.83-.65 2.03-.65 1.23 0 1.95.6.7.62.73 1.73v3.5q0 1.07.24 1.6v.1h-.88zm-2.57-.6q.8 0 1.46-.38.65-.4.94-1.06v-1.63h-1.46q-1.23 0-1.92.45-.7.43-.7 1.2 0 .6.47 1.02.46.4 1.2.4z"/><path d="M78.63 105.8q0 1.73-.76 2.75-.77 1-2.05 1-1.52 0-2.33-1.06v3.77h-.82v-10.24h.76l.04 1.04q.8-1.18 2.32-1.18 1.32 0 2.08 1 .75 1 .75 2.78v.12zm-.82-.14q0-1.42-.57-2.24-.58-.82-1.62-.82-.74 0-1.28.36-.54.37-.83 1.06v3.54q.3.64.83.97t1.3.34q1.03 0 1.6-.82.58-.83.58-2.4z"/><path d="M83.32 109.56q-.95 0-1.7-.46-.77-.47-1.2-1.3-.42-.83-.42-1.86v-.3q0-1.06.4-1.92.43-.85 1.17-1.34.74-.5 1.6-.5 1.34 0 2.13.93.8.93.8 2.52v.46H80.8v.16q0 1.25.7 2.1.74.83 1.83.83.66 0 1.16-.24.5-.24.92-.77l.52.4q-.9 1.3-2.62 1.3zm-.15-6.97q-.93 0-1.56.66-.62.68-.76 1.82h4.44v-.1q-.04-1.05-.6-1.72-.58-.67-1.5-.67z"/><path d="M91.12 102.72q-.26-.05-.56-.05-.76 0-1.3.43-.52.43-.75 1.24v5.08h-.8v-7.4h.8v1.18q.66-1.3 2.1-1.3.34 0 .54.07l-.02.75z"/><path d="M97.6 107.72l.1.64.18-.67 1.77-5.67h.7l1.76 5.6.2.8.16-.73 1.5-5.67h.86l-2.15 7.4h-.7l-1.9-5.87-.1-.4-.08.4-1.87 5.86h-.7l-2.15-7.4h.84l1.57 5.7z"/><path d="M107.18 103.27q.4-.66 1.04-1.03.62-.36 1.37-.36 1.18 0 1.76.67.58.67.6 2v4.87h-.83v-4.86q0-1-.42-1.48-.4-.5-1.3-.5-.77 0-1.36.5-.58.46-.86 1.27v5.07h-.8v-10.5h.8v4.35z"/><path d="M116.92 109.56q-.94 0-1.7-.46-.76-.47-1.2-1.3-.4-.83-.4-1.86v-.3q0-1.06.4-1.92.4-.85 1.15-1.34.74-.5 1.6-.5 1.35 0 2.14.93.8.93.8 2.52v.46h-5.28v.16q0 1.25.72 2.1.72.83 1.82.83.65 0 1.15-.24.52-.24.93-.77l.5.4q-.9 1.3-2.6 1.3zm-.15-6.97q-.92 0-1.56.66-.6.68-.75 1.82h4.43v-.1q-.03-1.05-.6-1.72-.58-.67-1.5-.67z"/><path d="M122.08 102.02l.03 1.26q.43-.68 1.05-1.03.62-.37 1.37-.37 1.2 0 1.77.67.57.67.58 2v4.87h-.8v-4.86q-.02-1-.44-1.48-.4-.5-1.3-.5-.77 0-1.36.5-.58.46-.86 1.27v5.07h-.82v-7.4h.78z"/><path d="M133.32 109.42h-.82v-7.4h.82v7.4zm-.96-9.54q0-.23.15-.4.16-.15.42-.15t.4.16q.17.15.17.38t-.17.4q-.15.15-.4.15-.27 0-.42-.16-.14-.15-.14-.4z"/><path d="M136.82 100.13v1.9h1.53v.66h-1.53v4.92q0 .62.22.92.23.3.75.3.2 0 .65-.07l.03.67q-.32.12-.87.12-.83 0-1.2-.5-.4-.48-.4-1.43v-4.94h-1.36V102H136v-1.9h.82z"/><path d="M139.9 101.9l-.48-.35q.6-.82.63-1.73v-.9h.8v.7q0 1.42-.95 2.3z"/><path d="M146.2 107.54q0-.6-.48-.98-.48-.37-1.47-.57-.98-.22-1.53-.5-.54-.26-.8-.65-.27-.4-.27-.95 0-.87.73-1.44.74-.57 1.88-.57 1.24 0 1.98.6.75.6.75 1.6h-.83q0-.65-.54-1.1-.54-.42-1.37-.42-.8 0-1.3.37-.5.35-.5.93 0 .55.42.86.4.3 1.48.55 1.08.24 1.6.53.55.3.8.7t.27.97q0 .94-.76 1.5-.75.56-1.96.56-1.3 0-2.1-.63-.8-.62-.8-1.58h.83q.05.72.6 1.12.56.4 1.48.4.86 0 1.4-.38.5-.4.5-.96z"/><path d="M151.95 105.65q0-1.72.77-2.74.77-1.02 2.1-1.02 1.5 0 2.27 1.2V98.9h.8v10.5h-.76l-.03-1q-.78 1.13-2.3 1.13-1.28 0-2.07-1.02-.78-1.03-.78-2.78v-.1zm.83.14q0 1.4.57 2.23.56.8 1.6.8 1.5 0 2.14-1.32v-3.46q-.64-1.45-2.14-1.45-1.03 0-1.6.8-.58.8-.58 2.4z"/><path d="M164.83 108.48q-.74 1.07-2.36 1.07-1.18 0-1.8-.68-.6-.7-.62-2.04v-4.8h.8v4.7q0 2.1 1.72 2.1 1.78 0 2.25-1.46v-5.35h.82v7.4h-.8v-.94z"/><path d="M170.62 109.56q-.94 0-1.7-.46-.76-.47-1.2-1.3-.4-.83-.4-1.86v-.3q0-1.06.4-1.92.4-.85 1.15-1.34.74-.5 1.6-.5 1.35 0 2.14.93.8.93.8 2.52v.46h-5.28v.16q0 1.25.72 2.1.72.83 1.82.83.65 0 1.15-.24.52-.24.93-.77l.5.4q-.9 1.3-2.6 1.3zm-.15-6.97q-.92 0-1.56.66-.6.68-.75 1.82h4.43v-.1q-.03-1.05-.6-1.72-.58-.67-1.5-.67z"/><path d="M174.93 108.93q0-.24.15-.4.16-.17.43-.17t.44.17q.16.16.16.4t-.16.4q-.15.15-.43.15t-.42-.15q-.15-.16-.15-.4z"/></g></g></g></svg>