<svg xmlns="http://www.w3.org/2000/svg" width="320" height="120" viewBox="0 0 320.00001 120"><g><g fill="#666"><g><path d="M1.63 14.42V.2H5.6q1.76 0 3.14.8 1.4.8 2.16 2.28.78 1.48.78 3.38v1.3q0 1.9-.77 3.38t-2.17 2.28q-1.4.8-3.2.8h-3.9zm1.2-13.2v12.2h2.7q2.25 0 3.6-1.5 1.36-1.5 1.36-4.03V6.63q0-2.45-1.35-3.93Q7.8 1.25 5.63 1.24h-2.8z"/><path d="M16.18 14.42h-1.2V.2h1.2v14.22z"/><path d="M28.08 10.92q0-1.18-.83-1.86-.83-.7-3.04-1.3Q22 7.12 21 6.38q-1.46-1.04-1.46-2.72 0-1.63 1.34-2.65Q22.23 0 24.32 0q1.4 0 2.53.55 1.12.55 1.74 1.53.6.97.6 2.17H28q0-1.45-1-2.33-1-.9-2.68-.9-1.63 0-2.6.74-.97.73-.97 1.9 0 1.08.87 1.77.87.68 2.8 1.2 1.9.52 2.9 1.1.97.55 1.47 1.33t.5 1.84q0 1.68-1.36 2.7-1.34 1.02-3.53 1.02-1.5 0-2.76-.54-1.25-.54-1.9-1.5-.65-.97-.65-2.22h1.2q0 1.5 1.12 2.37 1.12.87 3 .87 1.65 0 2.65-.73t1-1.95z"/><path d="M39.9 10.92q0-1.18-.82-1.86-.83-.7-3.03-1.3-2.2-.63-3.23-1.37-1.44-1.04-1.44-2.72 0-1.63 1.34-2.65T36.15 0q1.42 0 2.53.55 1.13.55 1.74 1.53.62.97.62 2.17h-1.2q0-1.45-1-2.33-1-.9-2.7-.9-1.62 0-2.58.74-.97.73-.97 1.9 0 1.08.86 1.77.87.68 2.78 1.2 1.92.52 2.9 1.1 1 .55 1.5 1.33t.5 1.84q0 1.68-1.36 2.7-1.34 1.02-3.54 1.02-1.5 0-2.76-.54-1.25-.54-1.9-1.5-.65-.97-.65-2.22h1.2q0 1.5 1.12 2.37 1.13.87 3 .87 1.65 0 2.66-.73 1-.73 1-1.95z"/><path d="M51.55 7.6H44.9v5.8h7.65v1.02H43.7V.2h8.8v1.03h-7.6V6.6h6.65v1z"/><path d="M60.38 8.5h-4.13v5.92h-1.2V.2h4.6q2.3 0 3.57 1.1t1.27 3.1q0 1.36-.8 2.4t-2.15 1.45l3.55 6.04v.12h-1.28L60.38 8.5zm-4.13-1.02h3.68q1.52 0 2.44-.86.9-.86.9-2.23 0-1.5-.94-2.34-.96-.83-2.7-.83h-3.38v6.25z"/><path d="M76.63 1.23h-4.87v13.2h-1.2V1.22H65.7V.2h10.93v1.03z"/><path d="M85.83 10.44h-6.45l-1.47 3.98h-1.25L82.03.2h1.15l5.38 14.22H87.3l-1.47-3.98zM79.75 9.4h5.7L82.6 1.68 79.75 9.4z"/><path d="M99.05 1.23h-4.87v13.2h-1.2V1.22h-4.86V.2h10.94v1.03z"/><path d="M102.83 14.42h-1.2V.2h1.2v14.22z"/><path d="M117.18 8.08q0 1.97-.7 3.45-.66 1.48-1.92 2.28-1.26.82-2.9.82-2.5 0-4.03-1.78-1.54-1.8-1.54-4.82V6.56q0-1.94.68-3.44.7-1.5 1.95-2.3 1.26-.8 2.9-.8t2.9.78q1.25.8 1.93 2.23.7 1.45.72 3.35v1.7zm-1.2-1.54q0-2.57-1.17-4.02-1.15-1.46-3.17-1.46-1.98 0-3.16 1.47-1.18 1.45-1.18 4.07v1.48q0 2.53 1.17 4.02 1.17 1.47 3.18 1.47 2.04 0 3.18-1.45 1.14-1.47 1.14-4.08v-1.5z"/><path d="M130.82 14.42h-1.2l-8.18-12.17v12.17h-1.2V.2h1.2l8.18 12.18V.2h1.2v14.22z"/><path d="M142.5 10.92q0-1.18-.83-1.86-.83-.7-3.04-1.3-2.2-.63-3.22-1.37-1.44-1.04-1.44-2.72 0-1.63 1.34-2.65Q136.65 0 138.74 0q1.4 0 2.53.55 1.12.55 1.73 1.53.62.97.62 2.17h-1.2q0-1.45-1-2.33-1-.9-2.68-.9-1.63 0-2.6.74-.97.73-.97 1.9 0 1.08.87 1.77.87.68 2.78 1.2 1.92.52 2.9 1.1 1 .55 1.5 1.33t.5 1.84q0 1.68-1.36 2.7-1.34 1.02-3.54 1.02-1.5 0-2.76-.54-1.25-.54-1.9-1.5-.65-.97-.65-2.22h1.2q0 1.5 1.14 2.37 1.12.87 2.98.87 1.66 0 2.67-.73 1-.74 1-1.95z"/></g><g><path d="M4 44.9l3.05-5.43h.98l-3.6 6.2v3.75H3.6v-3.75L0 39.47h1l3 5.43z"/><path d="M8.4 45.6q0-1.05.42-1.9.42-.86 1.17-1.34.75-.47 1.7-.47 1.48 0 2.4 1.03.9 1.03.9 2.74v.17q0 1.07-.4 1.93-.42.86-1.17 1.32-.75.46-1.7.46-1.48 0-2.4-1.04-.92-1.03-.92-2.74v-.17zm.83.24q0 1.32.68 2.18.7.85 1.82.85 1.1 0 1.8-.85.68-.86.68-2.25v-.16q0-.84-.32-1.54-.3-.7-.88-1.1-.57-.38-1.3-.38-1.1 0-1.78.87-.7.85-.7 2.24v.14z"/><path d="M21.46 48.48q-.73 1.08-2.35 1.08-1.18 0-1.8-.7-.6-.68-.62-2.02v-4.82h.8v4.7q0 2.13 1.72 2.13 1.78 0 2.25-1.47v-5.36h.82v7.4h-.8v-.94z"/><path d="M28.6 42.02l.02 1.27q.4-.7 1.03-1.05.63-.36 1.38-.36 1.2 0 1.77.66.58.67.6 2v4.86h-.83v-4.86q0-1-.42-1.48-.4-.48-1.32-.48-.76 0-1.35.48-.58.47-.86 1.27v5.07h-.8v-7.4h.77z"/><path d="M38.36 49.56q-.95 0-1.7-.47-.77-.47-1.2-1.3-.42-.83-.42-1.87v-.3q0-1.06.4-1.9.43-.87 1.17-1.35.75-.5 1.6-.5 1.35 0 2.14.93.8.93.8 2.52v.46h-5.28v.15q0 1.26.7 2.1.74.84 1.83.84.65 0 1.15-.24.5-.24.9-.77l.53.4q-.9 1.3-2.62 1.3zm-.15-6.98q-.92 0-1.55.68t-.77 1.82h4.44v-.1q-.04-1.06-.6-1.73-.58-.67-1.5-.67z"/><path d="M45.6 49.56q-.94 0-1.7-.47-.77-.47-1.2-1.3-.4-.83-.4-1.87v-.3q0-1.06.4-1.9.4-.87 1.15-1.35.74-.5 1.6-.5 1.35 0 2.13.93.8.93.8 2.52v.46H43.1v.15q0 1.26.72 2.1.72.84 1.82.84.65 0 1.15-.24.5-.24.9-.77l.52.4q-.9 1.3-2.62 1.3zm-.15-6.98q-.92 0-1.56.68-.63.68-.77 1.82h4.43v-.1q-.03-1.06-.6-1.73-.58-.67-1.5-.67z"/><path d="M49.66 45.65q0-1.72.76-2.74.77-1 2.1-1 1.5 0 2.28 1.17v-4.15h.8v10.5h-.76l-.03-.98q-.78 1.12-2.3 1.12-1.28 0-2.06-1.03t-.78-2.78v-.1zm.82.15q0 1.4.57 2.23.57.82 1.6.82 1.5 0 2.15-1.34v-3.46q-.64-1.44-2.14-1.44-1.03 0-1.6.8-.58.82-.58 2.4z"/><path d="M62.47 40.13v1.9H64v.66h-1.53v4.92q0 .62.22.92.2.3.73.3.2 0 .66-.07l.03.67q-.32.12-.88.12-.84 0-1.22-.5-.38-.48-.38-1.43V42.7H60.3V42h1.35v-1.9h.82z"/><path d="M65.12 45.6q0-1.05.4-1.9.43-.86 1.18-1.34.76-.47 1.7-.47 1.5 0 2.4 1.03.92 1.03.92 2.74v.17q0 1.07-.4 1.93-.42.86-1.18 1.32-.75.46-1.7.46-1.48 0-2.4-1.04-.92-1.03-.92-2.74v-.17zm.82.24q0 1.32.68 2.18.7.85 1.8.85t1.8-.85q.7-.86.7-2.25v-.16q0-.84-.33-1.54-.32-.7-.9-1.1-.55-.38-1.3-.38-1.08 0-1.77.87-.7.85-.7 2.24v.14z"/><path d="M82.78 45.8q0 1.73-.76 2.75-.77 1-2.05 1-1.52 0-2.33-1.06v3.76h-.8V42.02h.75l.03 1.05q.8-1.18 2.32-1.18 1.32 0 2.07 1 .76 1 .76 2.78v.12zm-.82-.15q0-1.4-.58-2.23-.58-.82-1.62-.82-.75 0-1.3.36-.53.36-.82 1.05v3.56q.3.64.84.97t1.3.34q1.03 0 1.6-.82.58-.83.58-2.4z"/><path d="M89.36 48.48q-.74 1.08-2.36 1.08-1.18 0-1.8-.7-.6-.68-.63-2.02v-4.82h.82v4.7q0 2.13 1.7 2.13 1.77 0 2.25-1.47v-5.36h.82v7.4h-.8v-.94z"/><path d="M93.56 40.13v1.9h1.53v.66h-1.54v4.92q0 .62.22.92.22.3.74.3.2 0 .66-.07l.04.67q-.32.12-.88.12-.84 0-1.22-.5-.38-.48-.38-1.43V42.7h-1.36V42h1.36v-1.9h.82z"/><path d="M101.13 49.42h-.82v-7.4h.83v7.4zm-.97-9.54q0-.23.15-.4.16-.15.42-.15t.4.16q.17.15.17.38t-.17.4q-.15.15-.4.15-.27 0-.42-.16-.14-.15-.14-.4z"/><path d="M104.14 42.02l.02 1.27q.42-.7 1.04-1.05.62-.36 1.38-.36 1.2 0 1.77.66.58.67.58 2v4.86h-.8v-4.86q-.02-1-.43-1.48-.4-.48-1.32-.48-.76 0-1.35.48-.58.47-.86 1.27v5.07h-.8v-7.4h.77z"/><path d="M119.13 49.42q-.13-.35-.16-1.03-.43.55-1.1.86-.66.3-1.4.3-1.08 0-1.74-.6-.66-.6-.66-1.5 0-1.08.9-1.7.9-.64 2.5-.64h1.5v-.84q0-.8-.5-1.24-.5-.46-1.42-.46-.86 0-1.42.43-.56.45-.56 1.07h-.82q0-.9.82-1.53.82-.65 2.02-.65 1.23 0 1.94.6.7.62.74 1.73v3.5q0 1.07.22 1.6v.1h-.87zm-2.57-.6q.82 0 1.46-.38.65-.4.94-1.06v-1.63h-1.46q-1.22 0-1.92.45-.7.43-.7 1.2 0 .6.47 1.02.47.4 1.2.4z"/><path d="M126.3 49.42h-.83v-10.5h.82v10.5z"/><path d="M128.07 45.6q0-1.05.4-1.9.42-.86 1.18-1.34.75-.47 1.7-.47 1.5 0 2.4 1.03.92 1.03.92 2.74v.17q0 1.07-.42 1.93-.4.86-1.16 1.32-.76.46-1.73.46-1.47 0-2.4-1.04-.9-1.03-.9-2.74v-.17zm.82.24q0 1.32.67 2.18.7.85 1.8.85t1.8-.85q.7-.86.7-2.25v-.16q0-.84-.33-1.54-.3-.7-.88-1.1-.57-.38-1.3-.38-1.1 0-1.78.87-.7.85-.7 2.24v.14z"/><path d="M137.64 40.13v1.9h1.53v.66h-1.53v4.92q0 .62.2.92.24.3.76.3.2 0 .66-.07l.04.67q-.32.12-.88.12-.84 0-1.22-.5-.38-.48-.38-1.43V42.7h-1.36V42h1.36v-1.9h.82z"/><path d="M143.85 45.6q0-1.05.4-1.9.42-.86 1.18-1.34.75-.47 1.7-.47 1.5 0 2.4 1.03.92 1.03.92 2.74v.17q0 1.07-.42 1.93-.4.86-1.16 1.32-.75.46-1.72.46-1.47 0-2.4-1.04-.9-1.03-.9-2.74v-.17zm.82.24q0 1.32.68 2.18.7.85 1.8.85t1.8-.85q.7-.86.7-2.25v-.16q0-.84-.33-1.54-.3-.7-.88-1.1-.57-.38-1.3-.38-1.1 0-1.78.87-.7.85-.7 2.24v.14z"/><path d="M152.73 49.42V42.7h-1.23V42h1.23v-.9q0-1.13.57-1.74.58-.6 1.6-.6.48 0 .88.1l-.06.7q-.34-.1-.74-.1-.68 0-1.06.44-.37.4-.37 1.2v.9h1.76v.67h-1.75v6.72h-.82z"/><path d="M160.96 42.02l.02 1.2q.4-.66 1.03-1 .62-.33 1.38-.33 1.75 0 2.22 1.42.4-.7 1.06-1.06.66-.37 1.46-.37 2.38 0 2.43 2.58v4.94h-.82v-4.87q0-1-.43-1.47-.42-.48-1.37-.48-.88 0-1.5.57-.6.56-.67 1.36v4.9h-.82v-4.95q0-.95-.45-1.4-.45-.48-1.36-.48-.78 0-1.33.44-.54.44-.8 1.3v5.08h-.83v-7.4h.8z"/><path d="M172.17 45.6q0-1.05.4-1.9.42-.86 1.18-1.34.75-.47 1.7-.47 1.5 0 2.4 1.03.92 1.03.92 2.74v.17q0 1.07-.42 1.93-.4.86-1.16 1.32-.76.46-1.73.46-1.47 0-2.4-1.04-.9-1.03-.9-2.74v-.17zm.82.24q0 1.32.67 2.18.7.85 1.8.85t1.8-.85q.7-.86.7-2.25v-.16q0-.84-.33-1.54-.3-.7-.88-1.1-.57-.38-1.3-.38-1.1 0-1.78.87-.7.85-.7 2.24v.14z"/><path d="M181.25 42.02l.02 1.27q.42-.7 1.04-1.05.63-.36 1.4-.36 1.18 0 1.76.66.58.67.58 2v4.86h-.8v-4.86q-.02-1-.43-1.48-.4-.48-1.3-.48-.77 0-1.36.48-.58.47-.86 1.27v5.07h-.8v-7.4h.77z"/><path d="M189.43 40.13v1.9h1.53v.66h-1.53v4.92q0 .62.2.92.24.3.76.3.2 0 .65-.07l.04.67q-.33.12-.9.12-.83 0-1.2-.5-.4-.48-.4-1.43V42.7h-1.35V42h1.36v-1.9h.83z"/><path d="M193.48 43.27q.4-.66 1.03-1.02.64-.36 1.38-.36 1.2 0 1.77.66.58.67.6 2v4.86h-.82v-4.86q0-1-.43-1.48-.4-.48-1.32-.48-.75 0-1.34.48-.58.47-.86 1.27v5.07h-.82v-10.5h.82v4.35z"/><path d="M204.78 47.54q0-.6-.5-.98-.48-.37-1.47-.57-.97-.22-1.52-.5-.54-.26-.8-.65-.26-.4-.26-.95 0-.87.73-1.44t1.87-.57q1.24 0 1.98.6.76.6.76 1.6h-.83q0-.65-.54-1.1-.55-.42-1.38-.42-.8 0-1.3.37-.48.35-.48.93 0 .55.4.86.4.3 1.48.55 1.08.24 1.62.53.54.3.8.7.26.4.26.97 0 .94-.76 1.5-.75.56-1.97.56-1.3 0-2.1-.63-.8-.62-.8-1.58h.82q.04.72.6 1.12.55.4 1.47.4.85 0 1.38-.38.53-.4.53-.96z"/><path d="M212.12 40.13v1.9h1.53v.66h-1.53v4.92q0 .62.2.92.24.3.76.3.2 0 .66-.07l.04.67q-.32.12-.88.12-.84 0-1.22-.5-.38-.48-.38-1.43V42.7h-1.36V42h1.36v-1.9h.82z"/><path d="M214.78 45.6q0-1.05.4-1.9.42-.86 1.18-1.34.75-.47 1.7-.47 1.5 0 2.4 1.03.92 1.03.92 2.74v.17q0 1.07-.42 1.93-.4.86-1.16 1.32-.75.46-1.72.46-1.47 0-2.4-1.04-.9-1.03-.9-2.74v-.17zm.82.24q0 1.32.68 2.18.7.85 1.8.85t1.8-.85q.7-.86.7-2.25v-.16q0-.84-.33-1.54-.3-.7-.88-1.1-.57-.38-1.3-.38-1.1 0-1.78.87-.7.85-.7 2.24v.14z"/><path d="M228.26 47.72l.12.63.16-.67 1.78-5.66h.7l1.75 5.62.2.78.15-.72 1.52-5.68h.85l-2.17 7.4h-.7l-1.9-5.86-.1-.4-.08.4-1.86 5.86h-.7l-2.15-7.4h.84l1.56 5.7z"/><path d="M240.46 42.72q-.26-.05-.56-.05-.76 0-1.3.43-.52.43-.75 1.24v5.08h-.8v-7.4h.8v1.18q.65-1.3 2.1-1.3.33 0 .53.08l-.02.74z"/><path d="M242.67 49.42h-.82v-7.4h.82v7.4zm-.97-9.54q0-.23.15-.4.15-.15.4-.15.27 0 .42.16.16.15.16.38t-.16.4q-.15.15-.4.15-.27 0-.42-.16-.15-.15-.15-.4z"/><path d="M246.17 40.13v1.9h1.53v.66h-1.53v4.92q0 .62.2.92.24.3.76.3.2 0 .66-.07l.03.67q-.32.12-.88.12-.84 0-1.22-.5-.38-.48-.38-1.43V42.7H244V42h1.35v-1.9h.82z"/><path d="M252.27 49.56q-.95 0-1.7-.47-.77-.47-1.2-1.3-.42-.83-.42-1.87v-.3q0-1.06.4-1.9.43-.87 1.17-1.35.73-.5 1.6-.5 1.34 0 2.13.93.8.93.8 2.52v.46h-5.3v.15q0 1.26.73 2.1.73.84 1.82.84.66 0 1.16-.24.5-.24.9-.77l.52.4q-.9 1.3-2.6 1.3zm-.15-6.98q-.93 0-1.56.68t-.77 1.82h4.43v-.1q-.04-1.06-.6-1.73-.58-.67-1.5-.67z"/><path d="M264.74 49.42q-.13-.35-.16-1.03-.43.55-1.1.86-.66.3-1.4.3-1.08 0-1.74-.6-.66-.6-.66-1.5 0-1.08.9-1.7.9-.64 2.5-.64h1.5v-.84q0-.8-.5-1.24-.5-.46-1.42-.46-.86 0-1.42.43-.56.45-.56 1.07h-.82q0-.9.82-1.53.82-.65 2.02-.65 1.24 0 1.95.6.7.62.74 1.73v3.5q0 1.07.2 1.6v.1h-.86zm-2.57-.6q.82 0 1.46-.38.65-.4.94-1.06v-1.63h-1.46q-1.2 0-1.9.45-.7.43-.7 1.2 0 .6.46 1.02.47.4 1.2.4z"/><path d="M270.65 45.65q0-1.72.76-2.74.78-1 2.1-1 1.5 0 2.3 1.17v-4.15h.8v10.5h-.77l-.03-.98q-.8 1.12-2.3 1.12-1.3 0-2.07-1.03-.78-1.03-.78-2.78v-.1zm.82.15q0 1.4.57 2.23.57.82 1.6.82 1.5 0 2.15-1.34v-3.46q-.65-1.44-2.15-1.44-1.03 0-1.6.8-.58.82-.58 2.4z"/><path d="M281.64 49.56q-.95 0-1.7-.47-.77-.47-1.2-1.3-.42-.83-.42-1.87v-.3q0-1.06.4-1.9.43-.87 1.17-1.35.72-.5 1.6-.5 1.33 0 2.12.93.8.93.8 2.52v.46h-5.3v.15q0 1.26.73 2.1.73.84 1.82.84.66 0 1.16-.24.5-.24.9-.77l.52.4q-.9 1.3-2.6 1.3zm-.15-6.98q-.94 0-1.57.68-.63.68-.77 1.82h4.44v-.1q-.04-1.06-.6-1.73-.58-.67-1.5-.67z"/><path d="M288.75 48.87q.85 0 1.42-.48.6-.5.63-1.26h.8q-.04.67-.43 1.23-.4.56-1.04.87-.65.32-1.38.32-1.46 0-2.3-1.02-.86-1-.86-2.72v-.24q0-1.1.37-1.94.38-.84 1.1-1.3.7-.45 1.67-.45 1.22 0 2 .7.8.74.85 1.92h-.8q-.05-.87-.63-1.4-.56-.54-1.43-.54-1.1 0-1.72.8-.6.8-.6 2.25v.23q0 1.42.6 2.2.6.8 1.73.8z"/><path d="M296.1 49.56q-.95 0-1.7-.47-.77-.47-1.2-1.3-.42-.83-.42-1.87v-.3q0-1.06.4-1.9.43-.87 1.17-1.35.73-.5 1.6-.5 1.34 0 2.13.93.8.93.8 2.52v.46h-5.3v.15q0 1.26.73 2.1.74.84 1.83.84.66 0 1.16-.24.5-.24.9-.77l.5.4q-.9 1.3-2.6 1.3zm-.15-6.98q-.93 0-1.56.68-.64.68-.78 1.82h4.44v-.1q-.04-1.06-.6-1.73-.58-.67-1.5-.67z"/><path d="M301.26 42.02l.02 1.27q.42-.7 1.04-1.05.62-.36 1.38-.36 1.2 0 1.77.66.58.67.58 2v4.86h-.8v-4.86q-.02-1-.43-1.48-.4-.48-1.32-.48-.76 0-1.35.48-.58.47-.86 1.27v5.07h-.82v-7.4h.78z"/><path d="M309.44 40.13v1.9h1.53v.66h-1.53v4.92q0 .62.2.92.24.3.76.3.2 0 .66-.07l.04.67q-.32.12-.88.12-.84 0-1.22-.5-.38-.48-.38-1.43V42.7h-1.36V42h1.36v-1.9h.82z"/><path d="M.57 65.65q0-1.72.77-2.74.77-1 2.1-1 1.5 0 2.27 1.17v-4.15h.83v10.5h-.77l-.03-.98q-.8 1.12-2.3 1.12-1.3 0-2.08-1.03t-.78-2.78v-.1zm.83.15q0 1.4.57 2.23.57.82 1.6.82 1.5 0 2.14-1.34v-3.46Q5.1 62.6 3.6 62.6q-1.03 0-1.6.8-.58.82-.58 2.4z"/><path d="M9.6 69.42h-.8v-7.4h.8v7.4zm-.95-9.54q0-.23.15-.4.15-.15.4-.15t.42.16q.16.15.16.38t-.16.4q-.15.15-.4.15t-.42-.16-.15-.4z"/><path d="M16.27 67.54q0-.6-.5-.98-.48-.37-1.46-.57-.98-.22-1.52-.5-.54-.26-.8-.65-.27-.4-.27-.95 0-.87.74-1.44.73-.57 1.87-.57 1.25 0 2 .6t.75 1.6h-.82q0-.65-.55-1.1-.54-.42-1.37-.42-.8 0-1.28.37-.5.35-.5.93 0 .55.4.86.42.3 1.5.55 1.08.24 1.6.53.55.3.8.7t.27.97q0 .94-.77 1.5-.75.56-1.97.56-1.3 0-2.1-.63-.8-.62-.8-1.58h.82q.05.72.6 1.12.57.4 1.48.4.86 0 1.38-.38.53-.4.53-.96z"/><path d="M23.35 67.54q0-.6-.5-.98-.48-.37-1.46-.57-1-.22-1.54-.5-.54-.26-.8-.65-.27-.4-.27-.95 0-.87.72-1.44.74-.57 1.88-.57 1.23 0 1.98.6t.75 1.6h-.82q0-.65-.54-1.1-.54-.42-1.36-.42-.8 0-1.3.37-.5.35-.5.93 0 .55.42.86.4.3 1.48.55 1.08.24 1.6.53.55.3.8.7t.27.97q0 .94-.76 1.5-.74.56-1.96.56-1.3 0-2.1-.63-.8-.62-.8-1.58h.83q.04.72.6 1.12.56.4 1.47.4.86 0 1.4-.38.5-.4.5-.96z"/><path d="M28.87 69.56q-.95 0-1.7-.47-.77-.47-1.2-1.3-.42-.83-.42-1.87v-.3q0-1.06.4-1.9.43-.87 1.17-1.35.74-.5 1.6-.5 1.34 0 2.13.93.8.93.8 2.52v.46h-5.28v.15q0 1.26.7 2.1.74.84 1.83.84.66 0 1.16-.24.5-.24.9-.77l.53.4q-.92 1.3-2.63 1.3zm-.15-6.98q-.93 0-1.56.68t-.77 1.82h4.43v-.1q-.03-1.06-.6-1.73-.58-.67-1.5-.67z"/><path d="M36.67 62.72q-.26-.05-.56-.05-.75 0-1.28.43t-.76 1.24v5.08h-.8v-7.4h.8v1.18q.65-1.3 2.1-1.3.33 0 .53.08l-.03.74z"/><path d="M39.58 60.13v1.9h1.53v.66H39.6v4.92q0 .62.22.92.22.3.74.3.2 0 .67-.07l.04.67q-.32.12-.87.12-.84 0-1.23-.5-.38-.48-.38-1.43V62.7H37.4V62h1.36v-1.9h.82z"/><path d="M47.5 69.42q-.13-.35-.17-1.03-.43.55-1.1.86-.66.3-1.4.3-1.07 0-1.74-.6-.66-.6-.66-1.5 0-1.08.9-1.7.9-.64 2.5-.64h1.48v-.84q0-.8-.5-1.24-.47-.46-1.4-.46-.86 0-1.42.43-.56.45-.56 1.07h-.83q0-.9.84-1.53.82-.65 2-.65 1.25 0 1.96.6.72.62.74 1.73v3.5q0 1.07.22 1.6v.1h-.87zm-2.58-.6q.82 0 1.46-.38.65-.4.94-1.06v-1.63h-1.46q-1.22 0-1.9.45-.7.43-.7 1.2 0 .6.46 1.02.46.4 1.2.4z"/><path d="M51.58 60.13v1.9h1.54v.66h-1.54v4.92q0 .62.22.92.23.3.75.3.2 0 .66-.07l.05.67q-.33.12-.88.12-.84 0-1.22-.5-.4-.48-.4-1.43V62.7H49.4V62h1.36v-1.9h.82z"/><path d="M55.74 69.42h-.82v-7.4h.82v7.4zm-.96-9.54q0-.23.15-.4.15-.15.4-.15.27 0 .42.16.15.15.15.38t-.15.4q-.15.15-.4.15t-.42-.16-.15-.4z"/><path d="M57.52 65.6q0-1.05.4-1.9.43-.86 1.18-1.34.76-.47 1.7-.47 1.5 0 2.4 1.03.92 1.03.92 2.74v.17q0 1.07-.42 1.93-.4.86-1.16 1.32-.75.46-1.7.46-1.48 0-2.4-1.04-.92-1.03-.92-2.74v-.17zm.82.24q0 1.32.68 2.18.7.85 1.8.85t1.8-.85q.7-.86.7-2.25v-.16q0-.84-.33-1.54-.32-.7-.9-1.1-.56-.38-1.3-.38-1.08 0-1.77.87-.7.85-.7 2.24v.14z"/><path d="M66.6 62.02l.02 1.27q.42-.7 1.04-1.05.62-.36 1.38-.36 1.2 0 1.77.66.6.67.6 2v4.86h-.82v-4.86q0-1-.42-1.48-.4-.48-1.32-.48-.76 0-1.35.48-.6.47-.87 1.27v5.07h-.8v-7.4h.77z"/><path d="M73.42 68.93q0-.24.16-.4.15-.18.43-.18t.44.17q.15.17.15.4t-.16.4q-.16.15-.43.15t-.42-.15q-.15-.15-.15-.4z"/><path d="M87.8 64.98q0 1.38-.48 2.42-.47 1.04-1.35 1.6-.88.56-2.04.56-1.74 0-2.8-1.25-1.1-1.24-1.1-3.36v-1.02q0-1.36.5-2.4.48-1.06 1.36-1.62.87-.57 2.02-.57t2.02.55q.88.56 1.36 1.57.48 1 .5 2.34v1.18zm-.84-1.08q0-1.8-.8-2.8-.83-1.03-2.24-1.03-1.4 0-2.22 1.02-.82 1-.82 2.84v1.04q0 1.77.82 2.8.82 1.04 2.23 1.04 1.43 0 2.23-1 .8-1.04.8-2.86V63.9z"/><path d="M94.5 68.48q-.74 1.08-2.36 1.08-1.18 0-1.8-.7-.6-.68-.63-2.02v-4.82h.83v4.7q0 2.13 1.7 2.13 1.78 0 2.26-1.47v-5.36h.8v7.4h-.8v-.94z"/><path d="M100.85 62.72q-.26-.05-.56-.05-.77 0-1.3.43t-.76 1.24v5.08h-.8v-7.4h.8v1.18q.65-1.3 2.1-1.3.33 0 .53.08l-.02.74z"/><path d="M107.32 67.72l.12.63.16-.67 1.78-5.66h.7l1.75 5.62.2.78.15-.72 1.52-5.68h.85l-2.16 7.4h-.7l-1.9-5.86-.1-.4-.1.4-1.85 5.86h-.7l-2.14-7.4h.85l1.57 5.7z"/><path d="M119.52 62.72q-.26-.05-.56-.05-.76 0-1.3.43-.52.43-.75 1.24v5.08h-.8v-7.4h.8v1.18q.66-1.3 2.1-1.3.34 0 .54.08l-.02.74z"/><path d="M121.72 69.42h-.82v-7.4h.82v7.4zm-.97-9.54q0-.23.15-.4.15-.15.4-.15.27 0 .42.16.16.15.16.38t-.16.4q-.15.15-.4.15-.27 0-.42-.16t-.15-.4z"/><path d="M125.22 60.13v1.9h1.53v.66h-1.53v4.92q0 .62.2.92.24.3.76.3.2 0 .66-.07l.04.67q-.32.12-.88.12-.84 0-1.22-.5-.38-.48-.38-1.43V62.7h-1.36V62h1.36v-1.9h.82z"/><path d="M131.33 69.56q-.95 0-1.7-.47-.77-.47-1.2-1.3-.42-.83-.42-1.87v-.3q0-1.06.42-1.9.42-.87 1.16-1.35.73-.5 1.6-.5 1.34 0 2.13.93.8.93.8 2.52v.46h-5.28v.15q0 1.26.72 2.1.73.84 1.82.84.66 0 1.16-.24.5-.24.9-.77l.52.4q-.9 1.3-2.6 1.3zm-.15-6.98q-.93 0-1.56.68t-.77 1.82h4.44v-.1q-.05-1.06-.62-1.73-.57-.67-1.5-.67z"/><path d="M139.13 62.72q-.26-.05-.56-.05-.76 0-1.3.43-.52.43-.75 1.24v5.08h-.8v-7.4h.8v1.18q.65-1.3 2.1-1.3.33 0 .53.08l-.02.74z"/><path d="M144.84 67.54q0-.6-.5-.98-.48-.37-1.47-.57-.98-.22-1.53-.5-.54-.26-.8-.65-.26-.4-.26-.95 0-.87.73-1.44.74-.57 1.88-.57 1.24 0 1.98.6.76.6.76 1.6h-.83q0-.65-.55-1.1-.54-.42-1.37-.42-.8 0-1.3.37-.48.35-.48.93 0 .55.4.86.4.3 1.48.55 1.08.24 1.62.53.54.3.8.7.26.4.26.97 0 .94-.76 1.5-.75.56-1.97.56-1.3 0-2.1-.63-.8-.62-.8-1.58h.82q.05.72.6 1.12.56.4 1.48.4.85 0 1.38-.38.54-.4.54-.96z"/><path d="M153.65 68.87q.85 0 1.42-.48.6-.5.63-1.26h.8q-.04.67-.43 1.23-.4.56-1.04.87-.65.32-1.38.32-1.46 0-2.3-1.02-.86-1-.86-2.72v-.24q0-1.1.37-1.94.38-.84 1.1-1.3.7-.45 1.67-.45 1.22 0 2 .7.8.74.85 1.92h-.8q-.05-.87-.63-1.4-.56-.54-1.43-.54-1.1 0-1.72.8-.6.8-.6 2.25v.23q0 1.42.6 2.2.6.8 1.73.8z"/><path d="M162.8 69.42q-.13-.35-.16-1.03-.43.55-1.1.86-.66.3-1.4.3-1.08 0-1.74-.6-.66-.6-.66-1.5 0-1.08.9-1.7.9-.64 2.5-.64h1.5v-.84q0-.8-.5-1.24-.5-.46-1.42-.46-.86 0-1.42.43-.56.45-.56 1.07h-.82q0-.9.82-1.53.82-.65 2.02-.65 1.24 0 1.95.6.72.62.75 1.73v3.5q0 1.07.22 1.6v.1h-.87zm-2.57-.6q.82 0 1.46-.38.64-.4.93-1.06v-1.63h-1.46q-1.22 0-1.92.45-.7.43-.7 1.2 0 .6.47 1.02.47.4 1.2.4z"/><path d="M166.4 62.02l.02 1.27q.42-.7 1.04-1.05.62-.36 1.38-.36 1.2 0 1.77.66.6.67.6 2v4.86h-.82v-4.86q0-1-.42-1.48-.4-.48-1.32-.48-.76 0-1.35.48-.6.47-.87 1.27v5.07h-.8v-7.4h.77z"/><path d="M176.4 65.65q0-1.72.76-2.74.77-1 2.1-1 1.5 0 2.28 1.17v-4.15h.8v10.5h-.76l-.03-.98q-.8 1.12-2.3 1.12-1.3 0-2.07-1.03-.78-1.03-.78-2.78v-.1zm.82.15q0 1.4.57 2.23.56.82 1.6.82 1.5 0 2.14-1.34v-3.46q-.64-1.44-2.14-1.44-1.03 0-1.6.8-.58.82-.58 2.4z"/><path d="M184.07 65.6q0-1.05.4-1.9.42-.86 1.18-1.34.75-.47 1.7-.47 1.5 0 2.4 1.03.92 1.03.92 2.74v.17q0 1.07-.42 1.93-.4.86-1.16 1.32-.76.46-1.73.46-1.47 0-2.4-1.04-.9-1.03-.9-2.74v-.17zm.82.24q0 1.32.67 2.18.7.85 1.8.85t1.8-.85q.7-.86.7-2.25v-.16q0-.84-.33-1.54-.3-.7-.88-1.1-.57-.38-1.3-.38-1.1 0-1.78.87-.7.85-.7 2.24v.14z"/><path d="M196.7 69.42h-.82v-7.4h.82v7.4zm-.97-9.54q0-.23.15-.4.15-.15.4-.15.27 0 .42.16.16.15.16.38t-.16.4q-.15.15-.4.15-.27 0-.42-.16t-.15-.4z"/><path d="M200.2 60.13v1.9h1.53v.66h-1.53v4.92q0 .62.2.92.24.3.76.3.2 0 .66-.07l.04.67q-.32.12-.88.12-.84 0-1.22-.5-.38-.48-.38-1.43V62.7h-1.36V62h1.36v-1.9h.82z"/><path d="M207.78 69.42h-.82v-7.4h.82v7.4zm-.97-9.54q0-.23.16-.4.15-.15.4-.15.27 0 .42.16.16.15.16.38t-.16.4q-.15.15-.4.15-.27 0-.42-.16t-.15-.4z"/><path d="M210.78 62.02l.02 1.27q.42-.7 1.04-1.05.62-.36 1.38-.36 1.2 0 1.77.66.57.67.57 2v4.86h-.8v-4.86q-.02-1-.43-1.48-.4-.48-1.32-.48-.76 0-1.35.48-.58.47-.86 1.27v5.07h-.8v-7.4h.78z"/><path d="M222 62.02v8.28q0 1.03-.5 1.57t-1.46.54q-.36 0-.7-.12v-.68q.3.1.62.1 1.2 0 1.2-1.4V62h.83zm-.42-2.7q.27 0 .42.17.15.15.15.38t-.15.4-.42.15q-.26 0-.4-.16-.15-.15-.15-.4t.14-.38q.15-.17.4-.17z"/><path d="M229.06 68.48q-.74 1.08-2.36 1.08-1.18 0-1.8-.7-.62-.68-.63-2.02v-4.82h.8v4.7q0 2.13 1.72 2.13 1.77 0 2.24-1.47v-5.36h.82v7.4h-.8v-.94z"/><path d="M236.42 67.54q0-.6-.5-.98-.48-.37-1.47-.57-.98-.22-1.53-.5-.54-.26-.8-.65-.26-.4-.26-.95 0-.87.73-1.44.72-.57 1.86-.57 1.24 0 1.98.6.76.6.76 1.6h-.82q0-.65-.55-1.1-.54-.42-1.37-.42-.8 0-1.3.37-.48.35-.48.93 0 .55.4.86.4.3 1.48.55 1.08.24 1.62.53.54.3.8.7.26.4.26.97 0 .94-.76 1.5-.75.56-1.97.56-1.28 0-2.1-.63-.8-.62-.8-1.58h.83q.05.72.6 1.12.56.4 1.48.4.86 0 1.4-.38.52-.4.52-.96z"/><path d="M240.34 60.13v1.9h1.53v.66h-1.53v4.92q0 .62.2.92.24.3.76.3.2 0 .66-.07l.04.67q-.32.12-.88.12-.84 0-1.22-.5-.38-.48-.38-1.43V62.7h-1.36V62h1.36v-1.9h.82z"/><path d="M251.67 69.42q-.13-.35-.16-1.03-.42.55-1.1.86-.65.3-1.4.3-1.07 0-1.73-.6-.66-.6-.66-1.5 0-1.08.9-1.7.9-.64 2.52-.64h1.48v-.84q0-.8-.5-1.24-.48-.46-1.4-.46-.87 0-1.43.43-.56.45-.56 1.07h-.8q0-.9.8-1.53.83-.65 2.03-.65 1.24 0 1.95.6.7.62.74 1.73v3.5q0 1.07.22 1.6v.1h-.87zm-2.57-.6q.82 0 1.46-.38.65-.4.94-1.06v-1.63h-1.46q-1.22 0-1.92.45-.7.43-.7 1.2 0 .6.47 1.02.46.4 1.2.4z"/><path d="M259.68 67.72l.12.63.16-.67 1.78-5.66h.7l1.75 5.62.2.78.14-.72 1.52-5.68h.85l-2.15 7.4h-.7l-1.9-5.86-.1-.4-.08.4-1.86 5.86h-.68l-2.15-7.4h.84l1.58 5.7z"/><path d="M271.33 69.56q-.95 0-1.7-.47-.77-.47-1.2-1.3-.42-.83-.42-1.87v-.3q0-1.06.42-1.9.42-.87 1.16-1.35.73-.5 1.6-.5 1.34 0 2.13.93.8.93.8 2.52v.46h-5.28v.15q0 1.26.72 2.1.73.84 1.82.84.66 0 1.16-.24.5-.24.9-.77l.52.4q-.9 1.3-2.6 1.3zm-.15-6.98q-.93 0-1.56.68t-.77 1.82h4.44v-.1q-.05-1.06-.62-1.73-.57-.67-1.5-.67z"/><path d="M278.58 69.56q-.95 0-1.7-.47-.77-.47-1.2-1.3-.42-.83-.42-1.87v-.3q0-1.06.4-1.9.43-.87 1.17-1.35.73-.5 1.6-.5 1.34 0 2.13.93.8.93.8 2.52v.46h-5.3v.15q0 1.26.73 2.1.72.84 1.8.84.67 0 1.17-.24.5-.24.9-.77l.52.4q-.9 1.3-2.62 1.3zm-.15-6.98q-.93 0-1.56.68t-.77 1.82h4.44v-.1q-.04-1.06-.6-1.73-.58-.67-1.5-.67z"/><path d="M284.7 65.7l-.93.9v2.82h-.82v-10.5h.82v6.72l.77-.83 2.83-2.78h1.03l-3.13 3.12 3.43 4.28h-.98l-3-3.73z"/><path d="M289.75 68.93q0-.24.15-.4.15-.18.43-.18t.43.17q.15.17.15.4t-.14.4q-.16.15-.43.15t-.43-.15q-.15-.15-.15-.4z"/><path d="M8.14 86.32Q7.97 87.9 7 88.72q-.94.84-2.52.84-1.1 0-1.96-.56-.85-.55-1.32-1.56-.46-1.02-.47-2.33v-1.28q0-1.33.47-2.35t1.33-1.58q.87-.57 2-.57 1.6 0 2.53.87.93.86 1.08 2.38H7.3q-.32-2.53-2.76-2.53-1.35 0-2.16 1-.8 1.02-.8 2.8v1.22q0 1.72.78 2.75t2.12 1.03q1.32 0 2-.63.66-.64.8-1.9h.86z"/><path d="M10.82 83.27q.4-.66 1.03-1.02t1.38-.36q1.2 0 1.77.66.58.67.6 2v4.86h-.83v-4.86q0-1-.42-1.48-.4-.48-1.32-.48-.76 0-1.35.48-.58.47-.86 1.27v5.07h-.8v-10.5h.8v4.35z"/><path d="M17.24 85.6q0-1.05.4-1.9.43-.86 1.18-1.34.76-.47 1.7-.47 1.5 0 2.4 1.03.92 1.03.92 2.74v.17q0 1.07-.4 1.93-.42.86-1.18 1.32-.75.46-1.7.46-1.48 0-2.4-1.04-.92-1.03-.92-2.74v-.17zm.82.24q0 1.32.68 2.18.7.85 1.8.85 1.12 0 1.8-.85.7-.86.7-2.25v-.16q0-.84-.32-1.54-.32-.7-.9-1.1-.55-.38-1.3-.38-1.08 0-1.77.87-.7.85-.7 2.24v.14z"/><path d="M25.1 85.6q0-1.05.4-1.9.42-.86 1.17-1.34.76-.47 1.7-.47 1.5 0 2.4 1.03.92 1.03.92 2.74v.17q0 1.07-.43 1.93-.4.86-1.16 1.32-.74.46-1.7.46-1.47 0-2.4-1.04-.9-1.03-.9-2.74v-.17zm.8.24q0 1.32.7 2.18.68.85 1.8.85 1.1 0 1.8-.85.68-.86.68-2.25v-.16q0-.84-.32-1.54-.3-.7-.88-1.1-.57-.38-1.3-.38-1.1 0-1.78.87-.7.85-.7 2.24v.14z"/><path d="M37.82 87.54q0-.6-.5-.98-.48-.37-1.47-.57-.98-.22-1.53-.5-.54-.26-.8-.65-.26-.4-.26-.95 0-.87.73-1.44.72-.57 1.86-.57 1.24 0 1.98.6.76.6.76 1.6h-.83q0-.65-.54-1.1-.54-.42-1.37-.42-.8 0-1.3.37-.48.35-.48.93 0 .55.4.86.4.3 1.48.55 1.08.24 1.62.53.54.3.8.7t.26.97q0 .94-.76 1.5-.75.56-1.97.56-1.28 0-2.1-.63-.8-.62-.8-1.58h.83q.05.72.6 1.12.56.4 1.48.4.86 0 1.4-.38.52-.4.52-.96z"/><path d="M43.33 89.56q-.94 0-1.7-.47t-1.2-1.3q-.4-.83-.4-1.87v-.3q0-1.06.4-1.9.4-.87 1.15-1.35.74-.5 1.6-.5 1.35 0 2.14.93.8.93.8 2.52v.46h-5.3v.15q0 1.26.73 2.1.72.84 1.82.84.65 0 1.15-.24.5-.24.92-.77l.5.4q-.9 1.3-2.6 1.3zm-.15-6.98q-.92 0-1.56.68-.62.68-.76 1.82h4.43v-.1q-.04-1.06-.6-1.73-.6-.67-1.52-.67z"/><path d="M53.48 88.24l2.16-6.22h.88l-3.16 8.66-.16.38q-.6 1.35-1.88 1.35-.3 0-.63-.1l-.02-.67.43.05q.6 0 .98-.3.37-.3.63-1.02l.37-1-2.78-7.34h.88l2.3 6.22z"/><path d="M57.22 85.6q0-1.05.4-1.9.42-.86 1.18-1.34.75-.47 1.7-.47 1.5 0 2.4 1.03.92 1.03.92 2.74v.17q0 1.07-.42 1.93-.4.86-1.16 1.32-.75.46-1.7.46-1.48 0-2.4-1.04-.92-1.03-.92-2.74v-.17zm.82.24q0 1.32.68 2.18.7.85 1.8.85t1.8-.85q.7-.86.7-2.25v-.16q0-.84-.33-1.54-.32-.7-.9-1.1-.56-.38-1.3-.38-1.08 0-1.77.87-.7.85-.7 2.24v.14z"/><path d="M70.27 88.48q-.73 1.08-2.35 1.08-1.2 0-1.8-.7-.62-.68-.63-2.02v-4.82h.8v4.7q0 2.13 1.7 2.13 1.8 0 2.26-1.47v-5.36h.82v7.4h-.8v-.94z"/><path d="M76.62 82.72q-.26-.05-.56-.05-.76 0-1.3.43-.52.43-.75 1.24v5.08h-.8v-7.4h.8v1.18q.66-1.3 2.1-1.3.34 0 .54.08l-.02.74z"/><path d="M82.33 87.54q0-.6-.5-.98-.48-.37-1.46-.57-.98-.22-1.53-.5-.54-.26-.8-.65-.27-.4-.27-.95 0-.87.73-1.44.74-.57 1.88-.57 1.23 0 1.98.6t.75 1.6h-.8q0-.65-.56-1.1-.54-.42-1.36-.42-.8 0-1.3.37-.5.35-.5.93 0 .55.42.86.4.3 1.48.55 1.08.24 1.6.53.55.3.8.7t.27.97q0 .94-.76 1.5t-1.98.56q-1.3 0-2.1-.63-.8-.62-.8-1.58h.83q.04.72.6 1.12.56.4 1.47.4.86 0 1.4-.38.5-.4.5-.96z"/><path d="M93.07 89.42q-.12-.35-.16-1.03-.42.55-1.1.86-.65.3-1.4.3-1.06 0-1.72-.6-.66-.6-.66-1.5 0-1.08.9-1.7.9-.64 2.5-.64h1.5v-.84q0-.8-.5-1.24-.5-.46-1.43-.46-.86 0-1.42.43-.56.45-.56 1.07h-.82q0-.9.82-1.53.82-.65 2-.65 1.25 0 1.96.6.72.62.74 1.73v3.5q0 1.07.23 1.6v.1h-.88zm-2.57-.6q.82 0 1.46-.38.65-.4.95-1.06v-1.63h-1.46q-1.22 0-1.9.45-.7.43-.7 1.2 0 .6.46 1.02.46.4 1.2.4z"/><path d="M96.64 82.02l.03 1.2q.4-.66 1.02-1 .6-.33 1.36-.33 1.75 0 2.22 1.42.4-.7 1.06-1.06.66-.37 1.46-.37 2.38 0 2.43 2.58v4.94h-.82v-4.87q0-1-.42-1.47-.42-.48-1.37-.48-.87 0-1.48.57-.6.56-.67 1.36v4.9h-.82v-4.95q0-.95-.46-1.4-.43-.48-1.35-.48-.77 0-1.33.44t-.83 1.3v5.08h-.82v-7.4h.8z"/><path d="M107.86 85.6q0-1.05.4-1.9.42-.86 1.18-1.34.75-.47 1.7-.47 1.5 0 2.4 1.03.92 1.03.92 2.74v.17q0 1.07-.42 1.93-.4.86-1.16 1.32-.75.46-1.72.46-1.47 0-2.4-1.04-.9-1.03-.9-2.74v-.17zm.82.24q0 1.32.68 2.18.7.85 1.8.85t1.8-.85q.7-.86.7-2.25v-.16q0-.84-.33-1.54-.3-.7-.88-1.1-.57-.38-1.3-.38-1.1 0-1.78.87-.7.85-.7 2.24v.14z"/><path d="M116.94 82.02l.02 1.27q.42-.7 1.04-1.05.62-.36 1.38-.36 1.2 0 1.77.66.58.67.58 2v4.86h-.8v-4.86q-.02-1-.43-1.48-.4-.48-1.32-.48-.76 0-1.35.48-.58.47-.86 1.27v5.07h-.8v-7.4h.77z"/><path d="M123.52 85.65q0-1.73.76-2.75.77-1 2.1-1 1.5 0 2.3 1.2l.03-1.08h.78v7.25q0 1.43-.8 2.26-.8.84-2.17.84-.76 0-1.47-.35-.7-.34-1.1-.92l.46-.5q.86 1.08 2.06 1.08 1.02 0 1.6-.6.57-.6.6-1.7v-.92q-.8 1.1-2.3 1.1-1.3 0-2.06-1.03-.78-1.02-.78-2.77v-.1zm.82.15q0 1.4.57 2.23.58.82 1.6.82 1.52 0 2.15-1.36v-3.45q-.3-.7-.83-1.08-.54-.37-1.3-.37-1.03 0-1.6.8-.58.82-.58 2.4z"/><path d="M139.7 89.42q-.13-.35-.16-1.03-.43.55-1.1.86-.66.3-1.4.3-1.08 0-1.74-.6-.66-.6-.66-1.5 0-1.08.9-1.7.9-.64 2.5-.64h1.5v-.84q0-.8-.5-1.24-.5-.46-1.42-.46-.86 0-1.42.43-.56.45-.56 1.07h-.82q0-.9.82-1.53.82-.65 2.02-.65 1.24 0 1.95.6.72.62.75 1.73v3.5q0 1.07.22 1.6v.1h-.87zm-2.57-.6q.82 0 1.46-.38.64-.4.93-1.06v-1.63h-1.46q-1.22 0-1.92.45-.7.43-.7 1.2 0 .6.47 1.02.47.4 1.2.4z"/><path d="M147.7 87.72l.13.63.16-.67 1.77-5.66h.7l1.75 5.62.2.78.15-.72 1.52-5.68h.84l-2.16 7.4h-.7l-1.9-5.86-.1-.4-.08.4-1.86 5.86h-.7l-2.14-7.4h.84l1.56 5.7z"/><path d="M157.4 89.42h-.8v-7.4h.8v7.4zm-.96-9.54q0-.23.15-.4.14-.15.4-.15t.4.16q.17.15.17.38t-.16.4q-.14.15-.4.15t-.4-.16-.16-.4z"/><path d="M159.3 85.65q0-1.72.77-2.74.77-1 2.1-1 1.5 0 2.28 1.17v-4.15h.8v10.5h-.76l-.04-.98q-.8 1.12-2.3 1.12-1.3 0-2.07-1.03-.8-1.03-.8-2.78v-.1zm.83.15q0 1.4.57 2.23.57.82 1.6.82 1.5 0 2.15-1.34v-3.46q-.64-1.44-2.14-1.44-1.02 0-1.6.8-.57.82-.57 2.4z"/><path d="M170.3 89.56q-.96 0-1.72-.47t-1.2-1.3q-.4-.83-.4-1.87v-.3q0-1.06.4-1.9.42-.87 1.16-1.35.73-.5 1.6-.5 1.34 0 2.13.93.8.93.8 2.52v.46h-5.3v.15q0 1.26.73 2.1.73.84 1.82.84.66 0 1.16-.24.5-.24.9-.77l.52.4q-.9 1.3-2.6 1.3zm-.16-6.98q-.93 0-1.56.68t-.77 1.82h4.45v-.1q-.04-1.06-.6-1.73-.58-.67-1.5-.67z"/><path d="M181.5 82.72q-.25-.05-.55-.05-.76 0-1.3.43-.52.43-.75 1.24v5.08h-.8v-7.4h.8v1.18q.65-1.3 2.1-1.3.33 0 .53.08l-.02.74z"/><path d="M187.2 89.42q-.14-.35-.17-1.03-.43.55-1.1.86-.66.3-1.4.3-1.08 0-1.74-.6-.67-.6-.67-1.5 0-1.08.9-1.7.9-.64 2.5-.64h1.5v-.84q0-.8-.5-1.24-.5-.46-1.42-.46-.85 0-1.4.43-.57.45-.57 1.07h-.82q0-.9.83-1.53.82-.65 2.02-.65 1.24 0 1.95.6.7.62.74 1.73v3.5q0 1.07.22 1.6v.1h-.87zm-2.58-.6q.82 0 1.46-.38.65-.4.94-1.06v-1.63h-1.46q-1.22 0-1.92.45-.7.43-.7 1.2 0 .6.47 1.02.48.4 1.22.4z"/><path d="M190.8 82.02l.02 1.27q.42-.7 1.04-1.05.62-.36 1.38-.36 1.2 0 1.77.66.6.67.6 2v4.86h-.82v-4.86q0-1-.42-1.48-.4-.48-1.32-.48-.76 0-1.35.48-.6.47-.87 1.27v5.07h-.8v-7.4h.77z"/><path d="M197.37 85.65q0-1.73.76-2.75.77-1 2.1-1 1.5 0 2.3 1.2l.03-1.08h.77v7.25q0 1.43-.8 2.26-.8.84-2.17.84-.77 0-1.48-.35-.7-.34-1.1-.92l.46-.5q.87 1.08 2.07 1.08 1.03 0 1.6-.6.58-.6.6-1.7v-.92q-.8 1.1-2.3 1.1-1.28 0-2.05-1.03-.78-1.02-.78-2.77v-.1zm.82.15q0 1.4.56 2.23.57.82 1.6.82 1.5 0 2.14-1.36v-3.45q-.3-.7-.83-1.08-.54-.37-1.3-.37-1.03 0-1.6.8-.58.82-.58 2.4z"/><path d="M208.33 89.56q-.95 0-1.7-.47-.77-.47-1.2-1.3-.42-.83-.42-1.87v-.3q0-1.06.42-1.9.42-.87 1.16-1.35.73-.5 1.6-.5 1.34 0 2.13.93.8.93.8 2.52v.46h-5.28v.15q0 1.26.72 2.1.73.84 1.82.84.66 0 1.16-.24.5-.24.9-.77l.52.4q-.9 1.3-2.6 1.3zm-.15-6.98q-.93 0-1.56.68t-.77 1.82h4.44v-.1q-.05-1.06-.62-1.73-.57-.67-1.5-.67z"/><path d="M215.68 85.6q0-1.05.4-1.9.42-.86 1.18-1.34.75-.47 1.7-.47 1.5 0 2.4 1.03.92 1.03.92 2.74v.17q0 1.07-.42 1.93-.4.86-1.16 1.32-.75.46-1.72.46-1.47 0-2.4-1.04-.9-1.03-.9-2.74v-.17zm.82.24q0 1.32.68 2.18.7.85 1.8.85t1.8-.85q.7-.86.7-2.25v-.16q0-.84-.33-1.54-.3-.7-.88-1.1-.57-.38-1.3-.38-1.1 0-1.78.87-.7.85-.7 2.24v.14z"/><path d="M224.56 89.42V82.7h-1.23V82h1.23v-.9q0-1.13.57-1.74.58-.6 1.6-.6.48 0 .88.1l-.05.7q-.34-.1-.74-.1-.67 0-1.05.44-.37.4-.37 1.2v.9h1.76v.67h-1.76v6.72h-.82z"/><path d="M233.3 80.13v1.9h1.54v.66h-1.53v4.92q0 .62.22.92.23.3.75.3.2 0 .66-.07l.04.67q-.32.12-.88.12-.85 0-1.23-.5-.38-.48-.38-1.43V82.7h-1.37V82h1.36v-1.9h.8z"/><path d="M235.97 85.6q0-1.05.4-1.9.42-.86 1.18-1.34.75-.47 1.7-.47 1.5 0 2.4 1.03.92 1.03.92 2.74v.17q0 1.07-.42 1.93-.4.86-1.16 1.32-.76.46-1.73.46-1.47 0-2.4-1.04-.9-1.03-.9-2.74v-.17zm.82.24q0 1.32.67 2.18.7.85 1.8.85t1.8-.85q.7-.86.7-2.25v-.16q0-.84-.33-1.54-.3-.7-.88-1.1-.57-.38-1.3-.38-1.1 0-1.78.87-.7.85-.7 2.24v.14z"/><path d="M250.2 85.8q0 1.73-.76 2.75-.77 1-2.05 1-1.53 0-2.33-1.06v3.76h-.82V82.02h.76l.05 1.05q.8-1.18 2.32-1.18 1.33 0 2.08 1 .76 1 .76 2.78v.12zm-.8-.15q0-1.4-.6-2.23-.58-.82-1.62-.82-.75 0-1.3.36-.53.36-.8 1.05v3.56q.28.64.83.97.55.34 1.3.34 1.03 0 1.6-.82.6-.83.6-2.4z"/><path d="M252.95 89.42h-.82v-7.4h.82v7.4zm-.97-9.54q0-.23.15-.4.15-.15.4-.15.27 0 .42.16.16.15.16.38t-.15.4q-.15.15-.4.15-.27 0-.42-.16-.15-.15-.15-.4z"/><path d="M257.9 88.87q.86 0 1.43-.48.6-.5.63-1.26h.8q-.04.67-.43 1.23-.4.56-1.04.87-.66.32-1.4.32-1.45 0-2.3-1.02-.85-1-.85-2.72v-.24q0-1.1.38-1.94.38-.84 1.1-1.3.7-.45 1.67-.45 1.22 0 2 .7.8.74.85 1.92h-.8q-.04-.87-.62-1.4-.56-.54-1.43-.54-1.1 0-1.72.8-.6.8-.6 2.25v.23q0 1.42.6 2.2.6.8 1.73.8z"/><path d="M266.82 87.54q0-.6-.5-.98-.48-.37-1.47-.57-.98-.22-1.53-.5-.54-.26-.8-.65-.26-.4-.26-.95 0-.87.73-1.44.72-.57 1.86-.57 1.24 0 1.98.6.76.6.76 1.6h-.83q0-.65-.54-1.1-.54-.42-1.37-.42-.8 0-1.3.37-.48.35-.48.93 0 .55.4.86.4.3 1.48.55 1.08.24 1.62.53.54.3.8.7.26.4.26.97 0 .94-.76 1.5-.75.56-1.97.56-1.28 0-2.1-.63-.8-.62-.8-1.58h.83q.05.72.6 1.12.56.4 1.48.4.86 0 1.4-.38.52-.4.52-.96z"/><path d="M277.56 89.42q-.13-.35-.16-1.03-.43.55-1.1.86-.66.3-1.4.3-1.08 0-1.74-.6-.66-.6-.66-1.5 0-1.08.9-1.7.9-.64 2.5-.64h1.5v-.84q0-.8-.5-1.24-.5-.46-1.42-.46-.86 0-1.42.43-.56.45-.56 1.07h-.82q0-.9.82-1.53.82-.65 2.02-.65 1.24 0 1.95.6.7.62.74 1.73v3.5q0 1.07.23 1.6v.1h-.87zm-2.57-.6q.8 0 1.45-.38.65-.4.94-1.06v-1.63h-1.47q-1.22 0-1.92.45-.68.43-.68 1.2 0 .6.46 1.02.47.4 1.2.4z"/><path d="M281.17 82.02l.02 1.27q.4-.7 1.03-1.05.62-.36 1.38-.36 1.2 0 1.78.66.58.67.58 2v4.86h-.8v-4.86q-.02-1-.43-1.48-.4-.48-1.32-.48-.75 0-1.34.48-.58.47-.86 1.27v5.07h-.8v-7.4h.77z"/><path d="M287.74 85.65q0-1.72.76-2.74.77-1 2.1-1 1.5 0 2.28 1.17v-4.15h.8v10.5h-.76l-.03-.98q-.8 1.12-2.32 1.12-1.28 0-2.06-1.03t-.78-2.78v-.1zm.82.15q0 1.4.57 2.23.57.82 1.6.82 1.5 0 2.15-1.34v-3.46q-.64-1.44-2.14-1.44-1.03 0-1.6.8-.58.82-.58 2.4z"/><path d="M5.33 107.54q0-.6-.5-.98-.48-.37-1.46-.57-.98-.22-1.53-.5-.54-.26-.8-.65-.27-.4-.27-.95 0-.87.73-1.44.74-.57 1.88-.57 1.23 0 1.98.6t.75 1.6h-.8q0-.65-.56-1.1-.54-.42-1.36-.42-.8 0-1.3.37-.5.35-.5.93 0 .55.42.86.4.3 1.48.55 1.08.24 1.6.53.55.3.8.7.27.4.27.97 0 .94-.76 1.5t-1.98.56q-1.3 0-2.1-.63-.8-.62-.8-1.58h.83q.04.72.6 1.12.56.4 1.47.4.86 0 1.4-.38.5-.4.5-.96z"/><path d="M12.74 108.48q-.74 1.07-2.36 1.07-1.18 0-1.8-.68-.6-.7-.62-2.04v-4.8h.8v4.7q0 2.1 1.72 2.1 1.78 0 2.25-1.46v-5.35h.82v7.4h-.8v-.94z"/><path d="M21.62 105.8q0 1.73-.76 2.75-.77 1-2.06 1-1.55 0-2.34-1.14l-.03 1.02h-.77v-10.5h.8v4.18q.8-1.2 2.33-1.2 1.3 0 2.06 1t.76 2.78v.12zm-.82-.15q0-1.46-.57-2.26-.56-.8-1.6-.8-.78 0-1.33.38-.54.4-.83 1.13v3.35q.62 1.4 2.18 1.4 1 0 1.58-.8.57-.8.57-2.4z"/><path d="M24.3 102.02v8.28q0 1.02-.48 1.56-.5.54-1.45.54-.37 0-.7-.13v-.67q.3.1.6.1 1.23 0 1.23-1.42v-8.26h.82zm-.4-2.7q.28 0 .43.17.15.15.15.38t-.15.4q-.15.15-.42.15-.25 0-.4-.16-.14-.16-.14-.4t.14-.38q.15-.17.4-.17z"/><path d="M29.5 109.56q-.95 0-1.7-.46-.77-.47-1.2-1.3-.42-.83-.42-1.86v-.3q0-1.06.4-1.92.43-.85 1.17-1.34.74-.5 1.6-.5 1.34 0 2.13.93.8.93.8 2.52v.46H27v.16q0 1.25.7 2.1.74.83 1.83.83.66 0 1.16-.24.5-.24.9-.77l.52.4q-.9 1.3-2.62 1.3zm-.15-6.97q-.93 0-1.56.66-.64.68-.78 1.82h4.44v-.1q-.04-1.05-.6-1.72-.58-.67-1.5-.67z"/><path d="M36.6 108.87q.87 0 1.44-.48.58-.5.63-1.26h.8q-.05.68-.44 1.24-.4.55-1.04.87-.65.3-1.4.3-1.44 0-2.3-1-.85-1-.85-2.72v-.25q0-1.1.4-1.93.37-.84 1.08-1.3.72-.46 1.68-.46 1.22 0 2 .72.8.72.86 1.9h-.8q-.04-.87-.62-1.4-.57-.53-1.43-.53-1.1 0-1.72.8-.6.8-.6 2.23v.24q0 1.4.6 2.2.62.8 1.73.8z"/><path d="M42.37 100.13v1.9h1.53v.66h-1.53v4.92q0 .62.22.92.2.3.73.3.2 0 .67-.07l.03.67q-.32.12-.87.12-.85 0-1.23-.5-.38-.48-.38-1.43v-4.94H40.2V102h1.35v-1.9h.82z"/><path d="M50.04 107.54q0-.6-.5-.98-.48-.37-1.46-.57-1-.22-1.53-.5-.54-.26-.8-.65-.27-.4-.27-.95 0-.87.73-1.44.74-.57 1.88-.57 1.24 0 2 .6.74.6.74 1.6H50q0-.65-.55-1.1-.54-.42-1.37-.42-.8 0-1.3.37-.48.35-.48.93 0 .55.4.86.4.3 1.5.55 1.07.24 1.6.53.54.3.8.7t.26.97q0 .94-.76 1.5-.75.56-1.97.56-1.3 0-2.1-.63-.8-.62-.8-1.58h.82q.05.72.6 1.12.57.4 1.48.4.86 0 1.38-.38.54-.4.54-.96z"/><path d="M52.62 108.93q0-.24.15-.4.15-.17.43-.17.27 0 .43.17.15.16.15.4t-.15.4q-.16.15-.43.15-.28 0-.43-.15-.15-.16-.15-.4z"/><path d="M65.27 106.97q0-.83-.58-1.3-.6-.5-2.14-.92-1.54-.44-2.25-.95-1-.73-1-1.9 0-1.14.93-1.85.95-.72 2.4-.72 1 0 1.78.38.8.4 1.23 1.08.43.68.43 1.52h-.85q0-1.02-.7-1.63-.7-.62-1.86-.62-1.14 0-1.82.5-.68.5-.68 1.33 0 .76.6 1.24.62.48 1.96.85 1.34.36 2.03.76.7.4 1.04.93.35.55.35 1.3 0 1.17-.95 1.88-.93.7-2.47.7-1.05 0-1.93-.36-.88-.38-1.34-1.05-.45-.68-.45-1.56h.84q0 1.06.8 1.66t2.08.6q1.16 0 1.87-.5.7-.5.7-1.36z"/><path d="M72.5 108.48q-.75 1.07-2.37 1.07-1.18 0-1.8-.68-.6-.7-.63-2.04v-4.8h.82v4.7q0 2.1 1.7 2.1 1.78 0 2.25-1.46v-5.35h.82v7.4h-.8v-.94z"/><path d="M78.15 108.87q.85 0 1.43-.48.58-.5.63-1.26h.8q-.04.68-.43 1.24-.4.55-1.04.87-.64.3-1.38.3-1.46 0-2.3-1-.86-1-.86-2.72v-.25q0-1.1.37-1.93.4-.84 1.1-1.3.7-.46 1.67-.46 1.22 0 2 .72.8.72.85 1.9h-.8q-.05-.87-.62-1.4-.57-.53-1.44-.53-1.1 0-1.72.8-.6.8-.6 2.23v.24q0 1.4.6 2.2.6.8 1.73.8z"/><path d="M85.37 108.87q.85 0 1.43-.48.58-.5.62-1.26h.8q-.04.68-.43 1.24-.4.55-1.05.87-.64.3-1.38.3-1.46 0-2.3-1-.86-1-.86-2.72v-.25q0-1.1.4-1.93.37-.84 1.1-1.3.7-.46 1.66-.46 1.22 0 2 .72.8.72.85 1.9h-.78q-.05-.87-.62-1.4-.57-.53-1.44-.53-1.1 0-1.72.8-.6.8-.6 2.23v.24q0 1.4.6 2.2.6.8 1.73.8z"/><path d="M92.72 109.56q-.95 0-1.7-.46-.77-.47-1.2-1.3-.42-.83-.42-1.86v-.3q0-1.06.4-1.92.43-.85 1.17-1.34.73-.5 1.6-.5 1.34 0 2.13.93.8.93.8 2.52v.46h-5.3v.16q0 1.25.73 2.1.73.83 1.82.83.66 0 1.16-.24.5-.24.92-.77l.5.4q-.9 1.3-2.6 1.3zm-.15-6.97q-.93 0-1.56.66-.62.68-.76 1.82h4.44v-.1q-.04-1.05-.6-1.72-.58-.67-1.5-.67z"/><path d="M101.53 107.54q0-.6-.5-.98-.48-.37-1.47-.57-.98-.22-1.53-.5-.54-.26-.8-.65-.26-.4-.26-.95 0-.87.73-1.44t1.87-.57q1.24 0 1.98.6.76.6.76 1.6h-.82q0-.65-.54-1.1-.54-.42-1.37-.42-.8 0-1.3.37-.48.35-.48.93 0 .55.4.86.4.3 1.47.55 1.08.24 1.62.53.53.3.8.7.25.4.25.97 0 .94-.76 1.5t-1.98.56q-1.3 0-2.1-.63-.8-.62-.8-1.58h.82q.05.72.6 1.12.56.4 1.48.4.85 0 1.38-.38.53-.4.53-.96z"/><path d="M108.6 107.54q0-.6-.5-.98-.47-.37-1.46-.57-.98-.22-1.53-.5-.53-.26-.8-.65-.25-.4-.25-.95 0-.87.73-1.44t1.87-.57q1.24 0 1.98.6.76.6.76 1.6h-.84q0-.65-.54-1.1-.54-.42-1.37-.42-.8 0-1.3.37-.48.35-.48.93 0 .55.4.86.4.3 1.48.55 1.08.24 1.62.53.54.3.8.7.26.4.26.97 0 .94-.76 1.5-.75.56-1.97.56-1.3 0-2.1-.63-.8-.62-.8-1.58h.82q.05.72.6 1.12.56.4 1.48.4.85 0 1.38-.38.53-.4.53-.96z"/><path d="M114.36 105.65q0-1.74.76-2.75.77-1.02 2.1-1.02 1.5 0 2.3 1.2l.03-1.06h.77v7.25q0 1.42-.8 2.26-.8.83-2.17.83-.77 0-1.48-.35-.7-.33-1.1-.9l.46-.5q.87 1.07 2.07 1.07 1.02 0 1.6-.6.57-.6.6-1.68v-.94q-.8 1.1-2.3 1.1-1.3 0-2.06-1.03-.78-1.03-.78-2.77v-.1zm.82.14q0 1.4.57 2.23.57.8 1.6.8 1.5 0 2.14-1.34v-3.45q-.3-.7-.84-1.08-.54-.38-1.3-.38-1.03 0-1.6.8-.58.8-.58 2.4z"/><path d="M127.2 108.48q-.73 1.07-2.35 1.07-1.18 0-1.8-.68-.62-.7-.63-2.04v-4.8h.8v4.7q0 2.1 1.72 2.1 1.78 0 2.25-1.46v-5.35h.8v7.4h-.78v-.94z"/><path d="M134.8 109.42q-.13-.35-.16-1.03-.43.55-1.1.86-.66.3-1.4.3-1.08 0-1.74-.6-.66-.6-.66-1.5 0-1.08.9-1.7.9-.64 2.5-.64h1.5v-.84q0-.8-.5-1.24-.5-.46-1.42-.46-.86 0-1.42.43-.56.45-.56 1.07h-.82q0-.9.82-1.53.82-.65 2.02-.65 1.24 0 1.95.6.72.62.75 1.73v3.5q0 1.07.22 1.6v.1h-.87zm-2.57-.6q.82 0 1.46-.38.64-.4.93-1.06v-1.63h-1.46q-1.22 0-1.92.45-.7.43-.7 1.2 0 .6.47 1.02.47.4 1.2.4z"/><path d="M141.04 102.72q-.26-.05-.56-.05-.76 0-1.3.43-.52.43-.75 1.24v5.08h-.8v-7.4h.8v1.18q.65-1.3 2.1-1.3.33 0 .53.07l-.02.75z"/><path d="M146.72 109.42q-.13-.35-.16-1.03-.43.55-1.1.86-.66.3-1.4.3-1.08 0-1.74-.6-.66-.6-.66-1.5 0-1.08.9-1.7.9-.64 2.5-.64h1.5v-.84q0-.8-.5-1.24-.5-.46-1.42-.46-.86 0-1.42.43-.56.45-.56 1.07h-.82q0-.9.82-1.53.82-.65 2.02-.65 1.24 0 1.95.6.7.62.74 1.73v3.5q0 1.07.22 1.6v.1h-.88zm-2.57-.6q.82 0 1.46-.38.66-.4.95-1.06v-1.63h-1.46q-1.23 0-1.93.45-.7.43-.7 1.2 0 .6.47 1.02.47.4 1.2.4z"/><path d="M150.33 102.02l.02 1.26q.42-.68 1.04-1.03.6-.37 1.37-.37 1.2 0 1.77.67.58.67.58 2v4.87h-.8v-4.86q-.02-1-.43-1.48-.42-.5-1.33-.5-.76 0-1.35.5-.58.46-.86 1.27v5.07h-.8v-7.4h.77z"/><path d="M158.5 100.13v1.9h1.53v.66h-1.53v4.92q0 .62.2.92.24.3.76.3.2 0 .66-.07l.04.67q-.32.12-.88.12-.84 0-1.22-.5-.38-.48-.38-1.43v-4.94h-1.36V102h1.36v-1.9h.82z"/><path d="M164.6 109.56q-.94 0-1.7-.46-.76-.47-1.2-1.3-.4-.83-.4-1.86v-.3q0-1.06.4-1.92.42-.85 1.16-1.34.73-.5 1.6-.5 1.34 0 2.13.93.78.93.78 2.52v.46h-5.28v.16q0 1.25.72 2.1.73.83 1.82.83.66 0 1.16-.24.5-.24.9-.77l.52.4q-.9 1.3-2.6 1.3zm-.14-6.97q-.93 0-1.56.66-.63.68-.77 1.82h4.44v-.1q-.04-1.05-.6-1.72-.58-.67-1.5-.67z"/><path d="M171.85 109.56q-.95 0-1.7-.46-.77-.47-1.2-1.3-.42-.83-.42-1.86v-.3q0-1.06.4-1.92.43-.85 1.17-1.34.73-.5 1.6-.5 1.34 0 2.13.93.8.93.8 2.52v.46h-5.3v.16q0 1.25.73 2.1.73.83 1.82.83.66 0 1.16-.24.5-.24.9-.77l.52.4q-.9 1.3-2.6 1.3zm-.15-6.97q-.93 0-1.56.66-.63.68-.77 1.82h4.44v-.1q-.03-1.05-.6-1.72-.57-.67-1.5-.67z"/><path d="M175.9 105.65q0-1.72.77-2.74.77-1.02 2.1-1.02 1.5 0 2.28 1.2V98.9h.8v10.5h-.76l-.04-1q-.8 1.13-2.3 1.13-1.3 0-2.07-1.02-.8-1.03-.8-2.78v-.1zm.83.14q0 1.4.57 2.23.57.8 1.6.8 1.5 0 2.15-1.32v-3.46q-.64-1.45-2.14-1.45-1.02 0-1.6.8-.57.8-.57 2.4z"/><path d="M184.9 106.65h-.76l-.04-7.18h.84l-.04 7.18zm-.9 2.3q0-.24.15-.4.15-.16.4-.16.27 0 .42.15.16.16.16.4 0 .22-.16.37-.15.15-.4.15-.27 0-.42-.15-.15-.15-.15-.38z"/></g></g></g></svg>