<svg xmlns="http://www.w3.org/2000/svg" width="320" height="120" viewBox="0 0 320.00001 120"><g><g fill="#666"><g><path d="M1.64 14.42V.2h4.2q2.28 0 3.47.95 1.2.94 1.2 2.77 0 1.1-.62 1.93-.6.8-1.64 1.16 1.24.28 2 1.23t.76 2.2q0 1.87-1.23 2.93-1.2 1.06-3.37 1.06H1.64zm1.2-6.84v5.82h3.6q1.55 0 2.45-.78.9-.8.9-2.18 0-1.32-.87-2.08-.86-.78-2.4-.78h-3.7zm0-1h3.28q1.5-.03 2.33-.7.83-.7.83-2 0-1.35-.86-2-.85-.65-2.58-.65h-3v5.35z"/><path d="M24.4 8.08q0 1.97-.67 3.45-.67 1.48-1.93 2.28-1.26.82-2.9.82-2.5 0-4.04-1.78-1.53-1.8-1.53-4.82V6.56q0-1.94.68-3.44.7-1.5 1.97-2.3 1.26-.8 2.9-.8t2.9.78q1.25.8 1.93 2.23.68 1.45.7 3.35v1.7zm-1.2-1.54q0-2.57-1.15-4.02-1.16-1.46-3.18-1.46-2 0-3.17 1.47-1.17 1.45-1.17 4.07v1.48q0 2.53 1.17 4.02 1.18 1.47 3.2 1.47 2.03 0 3.17-1.45 1.14-1.47 1.14-4.08v-1.5z"/><path d="M37.97 8.08q0 1.97-.7 3.45-.66 1.48-1.92 2.28-1.26.82-2.9.82-2.5 0-4.03-1.78-1.54-1.8-1.54-4.82V6.56q0-1.94.7-3.44.68-1.5 1.94-2.3 1.26-.8 2.9-.8t2.9.78q1.25.8 1.94 2.23.68 1.45.7 3.35v1.7zm-1.2-1.54q0-2.57-1.17-4.02-1.16-1.46-3.18-1.46-1.98 0-3.16 1.47Q28.1 3.98 28.1 6.6v1.48q0 2.53 1.16 4.02 1.17 1.47 3.18 1.47 2.04 0 3.18-1.45 1.15-1.47 1.15-4.08v-1.5z"/><path d="M44.22 7.36l-2 1.97v5.1h-1.2V.2h1.2v7.67L49.5.2H51l-5.94 6.33 6.4 7.9h-1.45l-5.78-7.07z"/><path d="M63.83 8.5H59.7v5.92h-1.2V.2h4.6q2.28 0 3.56 1.1t1.28 3.1q0 1.36-.8 2.4T65 8.25l3.54 6.04v.12h-1.28L63.83 8.5zM59.7 7.48h3.68q1.5 0 2.43-.86.93-.86.93-2.23 0-1.5-.96-2.34-.96-.83-2.7-.83H59.7v6.25z"/><path d="M79.06 7.6H72.4v5.8h7.66v1.02H71.2V.2H80v1.03h-7.6V6.6h6.66v1z"/><path d="M86.86 12.66l.08.3.1-.3L91.5.2h1.32l-5.3 14.22H86.4L81.08.2h1.3l4.48 12.46z"/><path d="M96.4 14.42h-1.22V.2h1.2v14.22z"/><path d="M108.08 7.6h-6.65v5.8h7.65v1.02h-8.85V.2h8.8v1.03h-7.6V6.6h6.65v1z"/><path d="M114.22 10.58l.44 2.2.54-2.1L118.3.2h1.07l3.05 10.48.52 2.13.47-2.22L126 .2h1.23l-3.64 14.22h-1.15L119.2 3.3l-.37-1.4-.36 1.4-3.3 11.12h-1.15L110.4.2h1.22l2.6 10.38z"/><path d="M137.57 10.92q0-1.18-.83-1.86-.83-.7-3.03-1.3-2.2-.63-3.22-1.37-1.44-1.04-1.44-2.72 0-1.63 1.34-2.65T133.8 0q1.43 0 2.54.55 1.13.55 1.74 1.53.62.97.62 2.17h-1.2q0-1.45-1-2.33-1-.9-2.7-.9-1.62 0-2.58.74-.97.73-.97 1.9 0 1.08.87 1.77.87.68 2.78 1.2 1.92.52 2.9 1.1 1 .55 1.5 1.33.48.78.48 1.84 0 1.68-1.34 2.7-1.34 1.02-3.54 1.02-1.5 0-2.76-.54-1.25-.54-1.9-1.5-.65-.97-.65-2.22h1.2q0 1.5 1.12 2.37 1.12.87 3 .87 1.65 0 2.65-.73t1-1.95z"/></g><g><path d="M6.58 44.77H1.94v4.65H1.1v-9.95h6.17v.72H1.94v3.85h4.64v.72z"/><path d="M8.2 45.6q0-1.05.4-1.9.42-.86 1.18-1.34.75-.47 1.7-.47 1.5 0 2.4 1.03.92 1.03.92 2.74v.17q0 1.07-.42 1.93-.4.86-1.16 1.32-.75.46-1.7.46-1.48 0-2.4-1.04-.92-1.03-.92-2.74v-.17zm.82.24q0 1.32.68 2.18.7.85 1.8.85t1.8-.85q.7-.86.7-2.25v-.16q0-.84-.33-1.54-.3-.7-.88-1.1-.58-.38-1.3-.38-1.1 0-1.8.87-.68.85-.68 2.24v.14z"/><path d="M19.9 42.72q-.25-.05-.54-.05-.77 0-1.3.43t-.75 1.24v5.08h-.8v-7.4h.8v1.18q.66-1.3 2.1-1.3.34 0 .53.08l-.02.74z"/><path d="M25.9 40.13v1.9h1.52v.66H25.9v4.92q0 .62.2.92.23.3.75.3.2 0 .66-.07l.05.67q-.32.12-.88.12-.84 0-1.22-.5-.38-.48-.38-1.43V42.7H23.7V42h1.37v-1.9h.82z"/><path d="M29.94 43.27q.4-.66 1.03-1.02t1.38-.36q1.2 0 1.77.66.58.67.6 2v4.86h-.83v-4.86q0-1-.43-1.48-.4-.48-1.32-.48-.76 0-1.35.48-.58.47-.86 1.27v5.07h-.8v-10.5h.8v4.35z"/><path d="M36.36 45.6q0-1.05.4-1.9.43-.86 1.18-1.34.76-.47 1.72-.47 1.47 0 2.4 1.03.9 1.03.9 2.74v.17q0 1.07-.4 1.93-.42.86-1.17 1.32-.77.46-1.73.46-1.47 0-2.4-1.04-.9-1.03-.9-2.74v-.17zm.82.24q0 1.32.68 2.18.7.85 1.8.85 1.12 0 1.8-.85.7-.86.7-2.25v-.16q0-.84-.32-1.54-.32-.7-.9-1.1-.55-.38-1.28-.38-1.1 0-1.8.87-.68.85-.68 2.24v.14z"/><path d="M49.1 47.54q0-.6-.5-.98-.5-.37-1.47-.57-1-.22-1.53-.5-.54-.26-.8-.65-.27-.4-.27-.95 0-.87.73-1.44t1.87-.57q1.24 0 2 .6.74.6.74 1.6h-.82q0-.65-.55-1.1-.54-.42-1.37-.42-.8 0-1.3.37-.48.35-.48.93 0 .55.4.86.4.3 1.5.55 1.07.24 1.6.53.54.3.8.7t.26.97q0 .94-.75 1.5t-1.97.56q-1.3 0-2.1-.63-.8-.62-.8-1.58h.82q.05.72.6 1.12.57.4 1.48.4.86 0 1.38-.38.53-.4.53-.96z"/><path d="M54.6 49.56q-.94 0-1.7-.47t-1.2-1.3q-.4-.83-.4-1.87v-.3q0-1.06.4-1.9.42-.87 1.16-1.35.73-.5 1.6-.5 1.34 0 2.13.93.78.93.78 2.52v.46H52.1v.15q0 1.26.72 2.1.73.84 1.82.84.66 0 1.16-.24.5-.24.9-.77l.52.4q-.9 1.3-2.6 1.3zm-.14-6.98q-.93 0-1.56.68t-.77 1.82h4.44v-.1q-.04-1.06-.6-1.73-.58-.67-1.5-.67z"/><path d="M64.18 47.72l.12.63.16-.67 1.78-5.66h.7l1.75 5.62.2.78.14-.72 1.52-5.68h.85l-2.14 7.4h-.7l-1.9-5.86-.1-.4-.08.4-1.87 5.86h-.68l-2.15-7.4h.84l1.58 5.7z"/><path d="M73.77 43.27q.4-.66 1.04-1.02t1.38-.36q1.2 0 1.77.66.58.67.6 2v4.86h-.82v-4.86q0-1-.43-1.48-.4-.48-1.32-.48-.76 0-1.34.48-.6.47-.87 1.27v5.07h-.8v-10.5h.8v4.35z"/><path d="M80.2 45.6q0-1.05.4-1.9.42-.86 1.17-1.34.76-.47 1.72-.47 1.46 0 2.38 1.03.92 1.03.92 2.74v.17q0 1.07-.42 1.93-.4.86-1.16 1.32-.75.46-1.72.46-1.47 0-2.4-1.04-.9-1.03-.9-2.74v-.17zm.8.24q0 1.32.7 2.18.7.85 1.8.85t1.8-.85q.68-.86.68-2.25v-.16q0-.84-.3-1.54-.33-.7-.9-1.1-.56-.38-1.3-.38-1.1 0-1.78.87-.7.85-.7 2.24v.14z"/><path d="M96.34 47.54q0-.6-.5-.98-.48-.37-1.46-.57-1-.22-1.53-.5-.54-.26-.8-.65-.27-.4-.27-.95 0-.87.73-1.44.74-.57 1.88-.57 1.24 0 2 .6.74.6.74 1.6h-.82q0-.65-.55-1.1-.54-.42-1.37-.42-.8 0-1.3.37-.48.35-.48.93 0 .55.4.86.4.3 1.5.55 1.07.24 1.6.53.54.3.8.7t.26.97q0 .94-.76 1.5-.75.56-1.97.56-1.3 0-2.1-.63-.8-.62-.8-1.58h.82q.05.72.6 1.12.57.4 1.48.4.86 0 1.38-.38.54-.4.54-.96z"/><path d="M101.85 49.56q-.94 0-1.7-.47t-1.2-1.3q-.4-.83-.4-1.87v-.3q0-1.06.4-1.9.4-.87 1.15-1.35.74-.5 1.6-.5 1.35 0 2.14.93.8.93.8 2.52v.46h-5.3v.15q0 1.26.73 2.1.72.84 1.82.84.64 0 1.14-.24.5-.24.92-.77l.5.4q-.9 1.3-2.6 1.3zm-.15-6.98q-.92 0-1.56.68-.62.68-.76 1.82h4.43v-.1q-.02-1.06-.6-1.73-.57-.67-1.5-.67z"/><path d="M109.1 49.56q-.94 0-1.7-.47t-1.2-1.3q-.4-.83-.4-1.87v-.3q0-1.06.4-1.9.4-.87 1.15-1.35.74-.5 1.6-.5 1.35 0 2.14.93.78.93.78 2.52v.46h-5.28v.15q0 1.26.72 2.1.72.84 1.82.84.65 0 1.15-.24.5-.24.9-.77l.52.4q-.9 1.3-2.62 1.3zm-.15-6.98q-.92 0-1.56.68-.63.68-.77 1.82h4.43v-.1q-.03-1.06-.6-1.73-.58-.67-1.5-.67z"/><path d="M115.24 45.7l-.93.9v2.82h-.8v-10.5h.8v6.72l.78-.83 2.83-2.78h1.04l-3.14 3.12 3.4 4.28h-.96l-3-3.73z"/><path d="M123.43 45.65q0-1.73.77-2.75.77-1 2.1-1 1.5 0 2.3 1.2l.03-1.08h.76v7.25q0 1.43-.8 2.26-.8.84-2.17.84-.78 0-1.48-.35-.7-.34-1.1-.92l.46-.5q.88 1.08 2.07 1.08 1.03 0 1.6-.6.58-.6.6-1.7v-.92q-.8 1.1-2.3 1.1-1.28 0-2.06-1.03-.77-1.02-.77-2.77v-.1zm.83.15q0 1.4.57 2.23.56.82 1.6.82 1.5 0 2.14-1.36v-3.45q-.3-.7-.83-1.08-.54-.37-1.3-.37-1.03 0-1.6.8-.58.82-.58 2.4z"/><path d="M131.08 45.6q0-1.05.4-1.9.43-.86 1.18-1.34.76-.47 1.72-.47 1.47 0 2.4 1.03.9 1.03.9 2.74v.17q0 1.07-.4 1.93-.42.86-1.17 1.32-.74.46-1.7.46-1.48 0-2.4-1.04-.92-1.03-.92-2.74v-.17zm.82.24q0 1.32.7 2.18.68.85 1.8.85 1.1 0 1.78-.85.7-.86.7-2.25v-.16q0-.84-.32-1.54-.32-.7-.88-1.1-.57-.38-1.3-.38-1.1 0-1.8.87-.68.85-.68 2.24v.14z"/><path d="M138.92 45.6q0-1.05.4-1.9.43-.86 1.18-1.34.76-.47 1.72-.47 1.47 0 2.4 1.03.9 1.03.9 2.74v.17q0 1.07-.4 1.93-.42.86-1.17 1.32-.75.46-1.72.46-1.47 0-2.4-1.04-.9-1.03-.9-2.74v-.17zm.82.24q0 1.32.7 2.18.68.85 1.8.85 1.1 0 1.78-.85.7-.86.7-2.25v-.16q0-.84-.32-1.54-.32-.7-.88-1.1-.57-.38-1.3-.38-1.1 0-1.8.87-.68.85-.68 2.24v.14z"/><path d="M146.9 45.65q0-1.72.76-2.74.77-1 2.1-1 1.5 0 2.27 1.17v-4.15h.82v10.5h-.77l-.03-.98q-.8 1.12-2.3 1.12-1.3 0-2.08-1.03t-.78-2.78v-.1zm.82.15q0 1.4.57 2.23.55.82 1.6.82 1.5 0 2.13-1.34v-3.46q-.63-1.44-2.13-1.44-1.03 0-1.6.8-.58.82-.58 2.4z"/><path d="M164.4 45.8q0 1.73-.77 2.75-.77 1-2.06 1-1.55 0-2.34-1.14l-.04 1.02h-.77v-10.5h.8v4.18q.8-1.2 2.32-1.2 1.3 0 2.07 1 .77 1 .77 2.77v.13zm-.83-.15q0-1.46-.56-2.25-.56-.8-1.6-.8-.78 0-1.33.4-.54.37-.82 1.12v3.33q.6 1.4 2.17 1.4 1 0 1.58-.8.57-.8.57-2.4z"/><path d="M165.75 45.6q0-1.05.4-1.9.43-.86 1.18-1.34.76-.47 1.72-.47 1.47 0 2.4 1.03.9 1.03.9 2.74v.17q0 1.07-.4 1.93-.42.86-1.17 1.32-.75.46-1.72.46-1.47 0-2.4-1.04-.9-1.03-.9-2.74v-.17zm.82.24q0 1.32.7 2.18.68.85 1.8.85 1.1 0 1.78-.85.7-.86.7-2.25v-.16q0-.84-.32-1.54-.32-.7-.88-1.1-.57-.38-1.3-.38-1.1 0-1.8.87-.68.85-.68 2.24v.14z"/><path d="M173.6 45.6q0-1.05.4-1.9.43-.86 1.18-1.34.76-.47 1.72-.47 1.47 0 2.4 1.03.9 1.03.9 2.74v.17q0 1.07-.4 1.93-.42.86-1.17 1.32-.75.46-1.72.46-1.46 0-2.38-1.04-.92-1.03-.92-2.74v-.17zm.82.24q0 1.32.7 2.18.68.85 1.8.85 1.1 0 1.78-.85.7-.86.7-2.25v-.16q0-.84-.32-1.54-.32-.7-.88-1.1-.57-.38-1.3-.38-1.1 0-1.8.87-.68.85-.68 2.24v.14z"/><path d="M183.65 45.7l-.93.9v2.82h-.82v-10.5h.82v6.72l.77-.83 2.82-2.78h1.03l-3.14 3.12 3.43 4.28h-.97l-3-3.73z"/><path d="M195.6 42.72q-.27-.05-.56-.05-.77 0-1.3.43t-.75 1.24v5.08h-.82v-7.4h.8v1.18q.66-1.3 2.1-1.3.34 0 .53.08v.74z"/><path d="M199.6 49.56q-.93 0-1.7-.47-.75-.47-1.18-1.3-.42-.83-.42-1.87v-.3q0-1.06.4-1.9.42-.87 1.16-1.35.74-.5 1.6-.5 1.35 0 2.14.93.8.93.8 2.52v.46h-5.3v.15q0 1.26.73 2.1.72.84 1.82.84.65 0 1.15-.24.5-.24.92-.77l.5.4q-.9 1.3-2.6 1.3zm-.14-6.98q-.92 0-1.56.68-.62.68-.76 1.82h4.43v-.1q-.03-1.06-.6-1.73-.58-.67-1.5-.67z"/><path d="M206.2 48.3l2.26-6.28h.84l-2.76 7.4h-.66l-2.78-7.4h.85l2.26 6.27z"/><path d="M211.55 49.42h-.82v-7.4h.82v7.4zm-.96-9.54q0-.23.14-.4.15-.15.4-.15.27 0 .42.16.16.15.16.38t-.16.4q-.15.15-.4.15-.27 0-.42-.16t-.15-.4z"/><path d="M216.64 49.56q-.94 0-1.7-.47t-1.2-1.3q-.4-.83-.4-1.87v-.3q0-1.06.4-1.9.4-.87 1.15-1.35.73-.5 1.6-.5 1.34 0 2.13.93.8.93.8 2.52v.46h-5.3v.15q0 1.26.73 2.1.72.84 1.82.84.65 0 1.15-.24.5-.24.92-.77l.5.4q-.9 1.3-2.6 1.3zm-.15-6.98q-.93 0-1.57.68-.62.68-.76 1.82h4.43v-.1q-.03-1.06-.6-1.73-.58-.67-1.5-.67z"/><path d="M222.8 47.72l.12.63.16-.67 1.78-5.66h.7l1.75 5.62.2.78.16-.72 1.52-5.68h.85l-2.16 7.4h-.7l-1.9-5.86-.1-.4-.08.4-1.87 5.86h-.7l-2.14-7.4h.83l1.56 5.7z"/><path d="M239.67 49.42q-.12-.35-.15-1.03-.43.55-1.1.86-.67.3-1.4.3-1.08 0-1.74-.6-.66-.6-.66-1.5 0-1.08.9-1.7.9-.64 2.5-.64h1.5v-.84q0-.8-.5-1.24-.5-.46-1.43-.46-.86 0-1.42.43-.56.45-.56 1.07h-.82q0-.9.82-1.53.82-.65 2.02-.65 1.23 0 1.94.6.72.62.74 1.73v3.5q0 1.07.23 1.6v.1h-.88zm-2.57-.6q.82 0 1.47-.38.65-.4.94-1.06v-1.63h-1.45q-1.23 0-1.92.45-.7.43-.7 1.2 0 .6.47 1.02.46.4 1.2.4z"/><path d="M247.25 48.48q-.74 1.08-2.36 1.08-1.2 0-1.8-.7-.62-.68-.63-2.02v-4.82h.8v4.7q0 2.13 1.72 2.13 1.77 0 2.24-1.47v-5.36h.82v7.4h-.8v-.94z"/><path d="M251.44 40.13v1.9h1.53v.66h-1.53v4.92q0 .62.22.92.23.3.75.3.2 0 .67-.07l.03.67q-.32.12-.87.12-.84 0-1.22-.5-.38-.48-.38-1.43V42.7h-1.36V42h1.36v-1.9h.82z"/><path d="M255.5 43.27q.4-.66 1.04-1.02.62-.36 1.37-.36 1.2 0 1.78.66.58.67.6 2v4.86h-.83v-4.86q0-1-.42-1.48-.4-.48-1.32-.48-.75 0-1.34.48-.58.47-.86 1.27v5.07h-.8v-10.5h.8v4.35z"/><path d="M261.92 45.6q0-1.05.4-1.9.43-.86 1.18-1.34.76-.47 1.72-.47 1.47 0 2.4 1.03.9 1.03.9 2.74v.17q0 1.07-.4 1.93-.42.86-1.17 1.32-.75.46-1.72.46-1.47 0-2.4-1.04-.9-1.03-.9-2.74v-.17zm.82.24q0 1.32.7 2.18.68.85 1.8.85 1.1 0 1.78-.85.7-.86.7-2.25v-.16q0-.84-.32-1.54-.32-.7-.88-1.1-.57-.38-1.3-.38-1.1 0-1.8.87-.68.85-.68 2.24v.14z"/><path d="M273.63 42.72q-.26-.05-.55-.05-.77 0-1.3.43t-.75 1.24v5.08h-.8v-7.4h.78l.03 1.18q.65-1.3 2.08-1.3.36 0 .55.08l-.02.74z"/><path d="M279.35 47.54q0-.6-.5-.98-.47-.37-1.46-.57-1-.22-1.54-.5-.54-.26-.8-.65-.27-.4-.27-.95 0-.87.72-1.44.74-.57 1.88-.57 1.24 0 1.98.6.75.6.75 1.6h-.82q0-.65-.53-1.1-.54-.42-1.37-.42-.8 0-1.3.37-.5.35-.5.93 0 .55.42.86.4.3 1.48.55 1.08.24 1.6.53.55.3.8.7.27.4.27.97 0 .94-.76 1.5-.74.56-1.95.56-1.3 0-2.1-.63-.8-.62-.8-1.58h.82q.05.72.6 1.12.56.4 1.48.4.85 0 1.38-.38.52-.4.52-.96z"/><path d="M281.83 51.28l-.48-.36q.62-.83.64-1.73v-1.07h.8V49q0 1.4-.97 2.28z"/><path d="M287.65 45.6q0-1.05.4-1.9.43-.86 1.18-1.34.76-.47 1.72-.47 1.47 0 2.4 1.03.9 1.03.9 2.74v.17q0 1.07-.4 1.93-.42.86-1.17 1.32-.75.46-1.72.46-1.47 0-2.4-1.04-.9-1.03-.9-2.74v-.17zm.82.24q0 1.32.7 2.18.68.85 1.8.85 1.1 0 1.78-.85.7-.86.7-2.25v-.16q0-.84-.32-1.54-.32-.7-.88-1.1-.57-.38-1.3-.38-1.1 0-1.8.87-.68.85-.68 2.24v.14z"/><path d="M300.7 48.48q-.74 1.08-2.36 1.08-1.18 0-1.8-.7-.6-.68-.62-2.02v-4.82h.8v4.7q0 2.13 1.72 2.13 1.78 0 2.25-1.47v-5.36h.8v7.4h-.78l-.02-.94z"/><path d="M307.05 42.72q-.26-.05-.55-.05-.77 0-1.3.43t-.75 1.24v5.08h-.8v-7.4h.78l.02 1.18q.65-1.3 2.08-1.3.35 0 .54.08l-.02.74z"/><path d="M3.64 68.87q.86 0 1.43-.48.58-.5.63-1.26h.8q-.05.67-.44 1.23-.4.56-1.04.87-.64.32-1.38.32-1.45 0-2.3-1.02-.85-1-.85-2.72v-.24q0-1.1.37-1.94.38-.84 1.1-1.3.7-.45 1.67-.45 1.2 0 2 .7.8.74.85 1.92h-.8q-.05-.87-.63-1.4-.56-.54-1.43-.54-1.1 0-1.73.8-.6.8-.6 2.25v.24q0 1.4.6 2.2.63.8 1.74.8z"/><path d="M7.68 65.6q0-1.05.4-1.9.42-.86 1.18-1.34.75-.47 1.7-.47 1.5 0 2.4 1.03.92 1.03.92 2.74v.17q0 1.07-.42 1.93-.4.86-1.16 1.32-.75.46-1.7.46-1.48 0-2.4-1.04-.92-1.03-.92-2.74v-.17zm.82.24q0 1.32.68 2.18.7.85 1.8.85t1.8-.85q.7-.86.7-2.25v-.16q0-.84-.33-1.54-.3-.7-.88-1.1-.57-.38-1.3-.38-1.1 0-1.78.87-.7.85-.7 2.24v.14z"/><path d="M16.72 62.02l.03 1.2q.4-.66 1.02-1 .62-.33 1.37-.33 1.75 0 2.22 1.42.4-.7 1.06-1.06.67-.37 1.47-.37 2.36 0 2.4 2.58v4.94h-.8v-4.87q-.02-1-.44-1.47-.42-.48-1.37-.48-.9 0-1.5.57-.6.56-.67 1.36v4.9h-.82v-4.95q0-.95-.44-1.4-.44-.48-1.36-.48-.77 0-1.32.44-.56.44-.82 1.3v5.08h-.82v-7.4h.78z"/><path d="M34.34 65.8q0 1.73-.77 2.75-.76 1-2.05 1-1.52 0-2.32-1.06v3.76h-.82V62.02h.76l.04 1.05q.8-1.18 2.32-1.18 1.33 0 2.08 1 .76 1 .76 2.78v.12zm-.82-.15q0-1.4-.58-2.23-.6-.82-1.62-.82-.76 0-1.3.36T29.2 64v3.56q.3.64.84.97t1.3.34q1.02 0 1.6-.82.58-.83.58-2.4z"/><path d="M40.82 69.42q-.12-.35-.15-1.03-.43.55-1.1.86-.67.3-1.4.3-1.08 0-1.74-.6-.66-.6-.66-1.5 0-1.08.9-1.7.9-.64 2.5-.64h1.5v-.84q0-.8-.5-1.24-.5-.46-1.42-.46-.86 0-1.42.43-.56.45-.56 1.07h-.82q0-.9.82-1.53.82-.65 2.02-.65 1.22 0 1.94.6.7.62.73 1.73v3.5q0 1.07.23 1.6v.1h-.88zm-2.57-.6q.82 0 1.47-.38.65-.4.94-1.06v-1.63H39.2q-1.23 0-1.92.45-.7.43-.7 1.2 0 .6.47 1.02.47.4 1.2.4z"/><path d="M44.43 62.02l.02 1.27q.42-.7 1.04-1.05.62-.36 1.37-.36 1.2 0 1.77.66.58.67.6 2v4.86h-.83v-4.86q0-1-.4-1.48-.42-.48-1.33-.48-.76 0-1.35.48-.58.47-.86 1.27v5.07h-.8v-7.4h.77z"/><path d="M53.68 68.24l2.16-6.22h.88l-3.16 8.66-.16.38q-.6 1.35-1.88 1.35-.3 0-.63-.1l-.02-.67.42.05q.6 0 .97-.3.38-.3.64-1.02l.37-1-2.8-7.34h.9l2.3 6.22z"/><path d="M62.3 69.42h-.8v-7.4h.8v7.4zm-.95-9.54q0-.23.15-.4.15-.15.4-.15.27 0 .42.16.15.15.15.38t-.15.4q-.15.15-.4.15t-.42-.16-.15-.4z"/><path d="M68.97 67.54q0-.6-.5-.98-.48-.37-1.46-.57-.98-.22-1.53-.5-.54-.26-.8-.65-.26-.4-.26-.95 0-.87.74-1.44.73-.57 1.87-.57 1.25 0 2 .6t.75 1.6h-.82q0-.65-.55-1.1-.54-.42-1.37-.42-.8 0-1.3.37-.47.35-.47.93 0 .55.4.86.4.3 1.5.55 1.07.24 1.6.53.54.3.8.7t.26.97q0 .94-.77 1.5-.75.56-1.97.56-1.3 0-2.1-.63-.8-.62-.8-1.58h.82q.05.72.6 1.12.56.4 1.48.4.86 0 1.38-.38.53-.4.53-.96z"/><path d="M76.3 60.13v1.9h1.54v.66H76.3v4.92q0 .62.23.92.22.3.74.3.2 0 .67-.07l.03.67q-.32.12-.87.12-.84 0-1.23-.5-.38-.48-.38-1.43V62.7h-1.37V62h1.36v-1.9h.8z"/><path d="M80.36 63.27q.4-.66 1.04-1.02.63-.36 1.37-.36 1.2 0 1.77.66.58.67.6 2v4.86h-.82v-4.86q0-1-.43-1.48-.42-.48-1.33-.48-.76 0-1.34.48-.6.47-.87 1.27v5.07h-.8v-10.5h.8v4.35z"/><path d="M90.1 69.56q-.95 0-1.7-.47-.77-.47-1.2-1.3-.42-.83-.42-1.87v-.3q0-1.06.4-1.9.43-.87 1.17-1.35.74-.5 1.6-.5 1.34 0 2.13.93.8.93.8 2.52v.46H87.6v.15q0 1.26.7 2.1.74.84 1.83.84.66 0 1.16-.24.5-.24.9-.77l.52.4q-.9 1.3-2.62 1.3zm-.15-6.98q-.93 0-1.56.68-.64.68-.78 1.82h4.44v-.1q-.03-1.06-.6-1.73-.58-.67-1.5-.67z"/><path d="M98.64 62.02l.03 1.2q.4-.66 1.03-1 .6-.33 1.36-.33 1.75 0 2.22 1.42.4-.7 1.06-1.06.67-.37 1.47-.37 2.4 0 2.43 2.58v4.94h-.82v-4.87q0-1-.42-1.47-.4-.48-1.36-.48-.9 0-1.5.57-.6.56-.67 1.36v4.9h-.82v-4.95q0-.95-.45-1.4-.44-.48-1.36-.48-.77 0-1.32.44-.56.44-.82 1.3v5.08h-.82v-7.4h.78z"/><path d="M109.86 65.6q0-1.05.4-1.9.43-.86 1.18-1.34.76-.47 1.72-.47 1.47 0 2.4 1.03.9 1.03.9 2.74v.17q0 1.07-.4 1.93-.42.86-1.17 1.32-.76.46-1.73.46-1.47 0-2.4-1.04-.9-1.03-.9-2.74v-.17zm.82.24q0 1.32.7 2.18.68.85 1.8.85 1.1 0 1.78-.85.7-.86.7-2.25v-.16q0-.84-.32-1.54-.32-.7-.88-1.1-.57-.38-1.3-.38-1.1 0-1.8.87-.68.85-.68 2.24v.14z"/><path d="M122.6 67.54q0-.6-.5-.98-.48-.37-1.47-.57-.98-.22-1.53-.5-.54-.26-.8-.65-.27-.4-.27-.95 0-.87.73-1.44.74-.57 1.88-.57 1.24 0 1.98.6.75.6.75 1.6h-.82q0-.65-.54-1.1-.53-.42-1.36-.42-.8 0-1.3.37-.5.35-.5.93 0 .55.42.86.4.3 1.48.55 1.08.24 1.6.53.55.3.8.7.27.4.27.97 0 .94-.75 1.5t-1.96.56q-1.3 0-2.1-.63-.8-.62-.8-1.58h.8q.06.72.6 1.12.57.4 1.5.4.84 0 1.37-.38.52-.4.52-.96z"/><path d="M126.5 60.13v1.9h1.54v.66h-1.53v4.92q0 .62.23.92.23.3.75.3.2 0 .66-.07l.03.67q-.32.12-.87.12-.84 0-1.22-.5-.4-.48-.4-1.43V62.7h-1.35V62h1.36v-1.9h.8z"/><path d="M135.9 68.87q.86 0 1.43-.48.58-.5.63-1.26h.8q-.05.67-.44 1.23-.4.56-1.04.87-.64.32-1.38.32-1.45 0-2.3-1.02-.86-1-.86-2.72v-.24q0-1.1.4-1.94.37-.84 1.08-1.3.72-.45 1.68-.45 1.2 0 2 .7.8.74.85 1.92h-.8q-.04-.87-.62-1.4-.57-.54-1.43-.54-1.1 0-1.73.8-.6.8-.6 2.25v.23q0 1.42.6 2.2.62.8 1.73.8z"/><path d="M139.94 65.6q0-1.05.4-1.9.43-.86 1.18-1.34.76-.47 1.72-.47 1.47 0 2.4 1.03.9 1.03.9 2.74v.17q0 1.07-.4 1.93-.42.86-1.17 1.32-.75.46-1.72.46-1.47 0-2.4-1.04-.9-1.03-.9-2.74v-.17zm.82.24q0 1.32.7 2.18.68.85 1.8.85 1.1 0 1.78-.85.7-.86.7-2.25v-.16q0-.84-.32-1.54-.32-.7-.88-1.1-.57-.38-1.3-.38-1.1 0-1.8.87-.68.85-.68 2.24v.14z"/><path d="M148.98 62.02l.03 1.2q.42-.66 1.04-1 .6-.33 1.36-.33 1.75 0 2.22 1.42.4-.7 1.06-1.06.67-.37 1.47-.37 2.38 0 2.42 2.58v4.94h-.82v-4.87q0-1-.43-1.47-.4-.48-1.36-.48-.9 0-1.5.57-.6.56-.67 1.36v4.9h-.83v-4.95q0-.95-.45-1.4-.44-.48-1.36-.48-.77 0-1.32.44-.56.44-.82 1.3v5.08h-.82v-7.4h.78z"/><path d="M166.6 65.8q0 1.73-.76 2.75-.77 1-2.05 1-1.53 0-2.34-1.06v3.76h-.8V62.02h.75l.05 1.05q.8-1.18 2.32-1.18 1.32 0 2.07 1 .76 1 .76 2.78v.12zm-.82-.15q0-1.4-.58-2.23-.58-.82-1.62-.82-.75 0-1.3.36-.53.36-.82 1.05v3.56q.3.64.84.97.55.34 1.3.34 1.03 0 1.6-.82.58-.83.58-2.4z"/><path d="M171.83 62.72q-.26-.05-.55-.05-.77 0-1.3.43t-.75 1.24v5.08h-.8v-7.4h.78l.03 1.18q.65-1.3 2.08-1.3.36 0 .55.08l-.02.74z"/><path d="M175.84 69.56q-.94 0-1.7-.47t-1.2-1.3q-.4-.83-.4-1.87v-.3q0-1.06.4-1.9.4-.87 1.15-1.35.73-.5 1.6-.5 1.34 0 2.13.93.8.93.8 2.52v.46h-5.3v.15q0 1.26.73 2.1.72.84 1.82.84.65 0 1.15-.24.5-.24.92-.77l.5.4q-.9 1.3-2.6 1.3zm-.15-6.98q-.93 0-1.57.68-.62.68-.76 1.82h4.43v-.1q-.03-1.06-.6-1.73-.58-.67-1.5-.67z"/><path d="M181.04 63.27q.4-.66 1.04-1.02.62-.36 1.37-.36 1.2 0 1.77.66.58.67.6 2v4.86h-.83v-4.86q0-1-.43-1.48-.4-.48-1.32-.48-.76 0-1.35.48-.58.47-.86 1.27v5.07h-.8v-10.5h.8v4.35z"/><path d="M190.77 69.56q-.94 0-1.7-.47t-1.2-1.3q-.4-.83-.4-1.87v-.3q0-1.06.4-1.9.4-.87 1.15-1.35.74-.5 1.6-.5 1.35 0 2.14.93.8.93.8 2.52v.46h-5.3v.15q0 1.26.73 2.1.7.84 1.8.84.66 0 1.16-.24.5-.24.92-.77l.5.4q-.9 1.3-2.6 1.3zm-.15-6.98q-.92 0-1.56.68-.62.68-.76 1.82h4.43v-.1q-.03-1.06-.6-1.73-.58-.67-1.5-.67z"/><path d="M195.94 62.02l.03 1.27q.42-.7 1.04-1.05.63-.36 1.38-.36 1.2 0 1.77.66.6.67.6 2v4.86h-.82v-4.86q0-1-.43-1.48-.4-.48-1.3-.48-.77 0-1.36.48-.58.47-.86 1.27v5.07h-.82v-7.4h.78z"/><path d="M207.27 67.54q0-.6-.5-.98-.47-.37-1.46-.57-.97-.22-1.52-.5-.54-.26-.8-.65-.27-.4-.27-.95 0-.87.74-1.44t1.88-.57q1.24 0 1.98.6.75.6.75 1.6h-.82q0-.65-.54-1.1-.55-.42-1.38-.42-.8 0-1.3.37-.5.35-.5.93 0 .55.42.86.4.3 1.48.55 1.08.24 1.6.53.55.3.8.7.27.4.27.97 0 .94-.77 1.5-.75.56-1.96.56-1.3 0-2.1-.63-.8-.62-.8-1.58h.82q.04.72.6 1.12.55.4 1.47.4.85 0 1.38-.38.52-.4.52-.96z"/><path d="M210.84 69.42h-.82v-7.4h.82v7.4zm-.96-9.54q0-.23.15-.4.15-.15.4-.15.27 0 .42.16.16.15.16.38t-.15.4q-.15.15-.4.15-.27 0-.42-.16t-.15-.4z"/><path d="M215.37 68.3l2.25-6.28h.84l-2.76 7.4h-.66l-2.78-7.4h.85l2.27 6.27z"/><path d="M222.58 69.56q-.94 0-1.7-.47t-1.2-1.3q-.4-.83-.4-1.87v-.3q0-1.06.4-1.9.4-.87 1.15-1.35.74-.5 1.6-.5 1.35 0 2.14.93.8.93.8 2.52v.46h-5.3v.15q0 1.26.73 2.1.72.84 1.82.84.65 0 1.15-.24.5-.24.92-.77l.5.4q-.9 1.3-2.62 1.3zm-.15-6.98q-.92 0-1.56.68-.62.68-.76 1.82h4.44v-.1q-.03-1.06-.6-1.73-.58-.67-1.5-.67z"/><path d="M233.1 68.87q.87 0 1.44-.48.58-.5.63-1.26h.8q-.05.67-.44 1.23-.4.56-1.04.87-.65.32-1.4.32-1.44 0-2.3-1.02-.85-1-.85-2.72v-.24q0-1.1.4-1.94.37-.84 1.08-1.3.72-.45 1.68-.45 1.22 0 2 .7.8.74.86 1.92h-.8q-.04-.87-.62-1.4-.57-.54-1.43-.54-1.1 0-1.72.8-.6.8-.6 2.25v.23q0 1.42.6 2.2.62.8 1.73.8z"/><path d="M238.4 63.27q.42-.66 1.05-1.02.62-.36 1.37-.36 1.2 0 1.77.66.57.67.58 2v4.86h-.82v-4.86q0-1-.42-1.48-.4-.48-1.32-.48-.76 0-1.35.48-.58.47-.86 1.27v5.07h-.8v-10.5h.8v4.35z"/><path d="M244.83 65.6q0-1.05.4-1.9.43-.86 1.18-1.34.77-.47 1.73-.47 1.47 0 2.4 1.03.9 1.03.9 2.74v.17q0 1.07-.4 1.93-.42.86-1.17 1.32-.75.46-1.72.46-1.47 0-2.4-1.04-.9-1.03-.9-2.74v-.17zm.82.24q0 1.32.7 2.18.68.85 1.8.85 1.1 0 1.78-.85.7-.86.7-2.25v-.16q0-.84-.32-1.54-.3-.7-.87-1.1-.57-.38-1.3-.38-1.1 0-1.8.87-.68.85-.68 2.24v.14z"/><path d="M254.04 69.42h-.82v-7.4h.82v7.4zm-.96-9.54q0-.23.15-.4.15-.15.4-.15.27 0 .42.16.16.15.16.38t-.15.4q-.15.15-.4.15-.27 0-.42-.16-.15-.15-.15-.4z"/><path d="M259 68.87q.86 0 1.43-.48.58-.5.63-1.26h.8q-.05.67-.44 1.23-.4.56-1.04.87-.64.32-1.38.32-1.45 0-2.3-1.02-.86-1-.86-2.72v-.24q0-1.1.4-1.94.37-.84 1.08-1.3.72-.45 1.68-.45 1.2 0 2 .7.8.74.85 1.92h-.8q-.04-.87-.62-1.4-.57-.54-1.43-.54-1.1 0-1.73.8-.6.8-.6 2.25v.23q0 1.42.6 2.2.62.8 1.73.8z"/><path d="M266.35 69.56q-.94 0-1.7-.47t-1.2-1.3q-.4-.83-.4-1.87v-.3q0-1.06.4-1.9.4-.87 1.15-1.35.74-.5 1.6-.5 1.35 0 2.14.93.8.93.8 2.52v.46h-5.3v.15q0 1.26.73 2.1.72.84 1.82.84.64 0 1.14-.24.5-.24.92-.77l.5.4q-.9 1.3-2.6 1.3zm-.15-6.98q-.92 0-1.56.68-.62.68-.76 1.82h4.43v-.1q-.02-1.06-.6-1.73-.57-.67-1.5-.67z"/><path d="M270.66 68.93q0-.24.15-.4.17-.18.44-.18t.43.17q.16.17.16.4t-.16.4q-.15.15-.43.15t-.43-.15q-.14-.15-.14-.4z"/><path d="M283.3 66.97q0-.82-.57-1.3-.58-.5-2.12-.92-1.54-.44-2.25-.95-1-.72-1-1.9 0-1.14.92-1.85.95-.72 2.4-.72 1 0 1.78.38.8.4 1.22 1.08t.43 1.52h-.85q0-1-.7-1.63-.7-.62-1.87-.62-1.14 0-1.82.5-.67.52-.67 1.34 0 .75.6 1.22.6.48 1.94.85 1.34.36 2.03.76.7.4 1.04.94.36.54.36 1.3 0 1.17-.94 1.88-.94.7-2.48.7-1.05 0-1.93-.37-.87-.38-1.32-1.05-.46-.68-.46-1.55h.84q0 1.05.8 1.66.78.6 2.08.6 1.16 0 1.87-.5.7-.52.7-1.37z"/><path d="M286.7 69.42h-.83v-7.4h.82v7.4zm-.97-9.54q0-.23.15-.4.15-.15.4-.15.27 0 .42.16.16.15.16.38t-.16.4q-.15.15-.4.15-.27 0-.42-.16t-.15-.4z"/><path d="M289.66 62.02l.03 1.2q.4-.66 1.02-1 .6-.33 1.36-.33 1.75 0 2.22 1.42.4-.7 1.06-1.06.67-.37 1.47-.37 2.38 0 2.42 2.58v4.94h-.82v-4.87q0-1-.43-1.47-.4-.48-1.36-.48-.9 0-1.5.57-.6.56-.67 1.36v4.9h-.82v-4.95q0-.95-.45-1.4-.44-.48-1.36-.48-.77 0-1.32.44-.56.44-.82 1.3v5.08h-.82v-7.4h.78z"/><path d="M307.28 65.8q0 1.73-.76 2.75-.77 1-2.05 1-1.52 0-2.33-1.06v3.76h-.8V62.02h.75l.03 1.05q.8-1.18 2.32-1.18 1.32 0 2.07 1 .76 1 .76 2.78v.12zm-.82-.15q0-1.4-.58-2.23-.58-.82-1.62-.82-.75 0-1.3.36-.53.36-.82 1.05v3.56q.3.64.84.97.55.34 1.3.34 1.03 0 1.6-.82.58-.83.58-2.4z"/><path d="M310 69.42h-.8v-10.5h.8v10.5z"/><path d="M314.6 68.24l2.15-6.22h.9l-3.17 8.66-.17.38q-.6 1.35-1.87 1.35-.3 0-.63-.1v-.67l.42.05q.6 0 .97-.3t.63-1.02l.36-1-2.8-7.34h.9l2.3 6.22z"/><path d="M2.18 80.13v1.9H3.7v.66H2.2v4.92q0 .62.22.92.23.3.74.3.2 0 .67-.07l.04.67q-.32.12-.87.12-.84 0-1.23-.5-.38-.48-.38-1.43V82.7H0V82h1.36v-1.9h.82z"/><path d="M8.3 89.56q-.96 0-1.72-.47t-1.2-1.3q-.4-.83-.4-1.87v-.3q0-1.06.4-1.9.42-.87 1.16-1.35.73-.5 1.6-.5 1.34 0 2.13.93.8.93.8 2.52v.46h-5.3v.15q0 1.26.73 2.1.73.84 1.82.84.66 0 1.16-.24.5-.24.9-.77l.52.4q-.9 1.3-2.6 1.3zm-.17-6.98q-.92 0-1.55.68t-.77 1.82h4.45v-.1q-.04-1.06-.6-1.73-.6-.67-1.5-.67z"/><path d="M13.58 89.42h-.82v-10.5h.82v10.5z"/><path d="M16.73 89.42h-.82v-10.5h.83v10.5z"/><path d="M27.13 88.48q-.74 1.08-2.36 1.08-1.18 0-1.8-.7-.6-.68-.62-2.02v-4.82h.8v4.7q0 2.13 1.72 2.13 1.78 0 2.25-1.47v-5.36h.82v7.4h-.8v-.94z"/><path d="M34.5 87.54q0-.6-.5-.98-.5-.37-1.47-.57-1-.22-1.54-.5-.55-.26-.8-.65-.27-.4-.27-.95 0-.87.73-1.44t1.87-.57q1.24 0 2 .6.74.6.74 1.6h-.82q0-.65-.55-1.1-.54-.42-1.37-.42-.8 0-1.3.37-.48.35-.48.93 0 .55.4.86.4.3 1.5.55 1.07.24 1.6.53.54.3.8.7.26.4.26.97 0 .94-.75 1.5t-1.97.56q-1.3 0-2.1-.63-.8-.62-.8-1.58h.82q.05.72.6 1.12.56.4 1.48.4.86 0 1.38-.38.53-.4.53-.96z"/><path d="M45.23 89.42q-.13-.35-.16-1.03-.43.55-1.1.86-.66.3-1.4.3-1.08 0-1.74-.6-.65-.6-.65-1.5 0-1.08.9-1.7.9-.64 2.5-.64h1.48v-.84q0-.8-.5-1.24-.47-.46-1.4-.46-.87 0-1.43.43-.56.45-.56 1.07h-.82q0-.9.82-1.53.82-.65 2.02-.65 1.23 0 1.94.6.72.62.74 1.73v3.5q0 1.07.22 1.6v.1h-.87zm-2.57-.6q.82 0 1.46-.38.65-.4.94-1.06v-1.63H43.6q-1.22 0-1.9.45-.7.43-.7 1.2 0 .6.45 1.02.47.4 1.2.4z"/><path d="M57.42 85.8q0 1.73-.76 2.75-.77 1-2.06 1-1.55 0-2.34-1.14l-.03 1.02h-.77v-10.5h.8v4.18q.8-1.2 2.33-1.2 1.3 0 2.06 1t.76 2.77v.13zm-.82-.15q0-1.46-.57-2.25-.56-.8-1.6-.8-.78 0-1.33.4-.55.37-.83 1.12v3.33q.62 1.4 2.18 1.4 1 0 1.58-.8.57-.8.57-2.4z"/><path d="M58.78 85.6q0-1.05.4-1.9.43-.86 1.18-1.34.76-.47 1.72-.47 1.47 0 2.4 1.03.9 1.03.9 2.74v.17q0 1.07-.4 1.93-.42.86-1.17 1.32-.75.46-1.7.46-1.48 0-2.4-1.04-.92-1.03-.92-2.74v-.17zm.82.24q0 1.32.7 2.18.68.85 1.8.85 1.1 0 1.78-.85.7-.86.7-2.25v-.16q0-.84-.32-1.54-.32-.7-.88-1.1-.57-.38-1.3-.38-1.1 0-1.8.87-.68.85-.68 2.24v.14z"/><path d="M66.63 85.6q0-1.05.4-1.9.43-.86 1.18-1.34.77-.47 1.72-.47 1.48 0 2.4 1.03.9 1.03.9 2.74v.17q0 1.07-.4 1.93-.4.86-1.17 1.32-.75.46-1.7.46-1.48 0-2.4-1.04-.92-1.03-.92-2.74v-.17zm.82.24q0 1.32.68 2.18.7.85 1.8.85 1.12 0 1.8-.85.7-.86.7-2.25v-.16q0-.84-.32-1.54-.3-.7-.88-1.1-.56-.38-1.3-.38-1.1 0-1.78.87-.7.85-.7 2.24v.14z"/><path d="M76.7 85.7l-.95.9v2.82h-.82v-10.5h.82v6.72l.77-.83 2.83-2.78h1.03l-3.13 3.12 3.4 4.28h-.97l-3-3.73z"/><path d="M86.48 80.13v1.9H88v.66H86.5v4.92q0 .62.22.92.23.3.75.3.2 0 .66-.07l.04.67q-.32.12-.87.12-.84 0-1.23-.5-.38-.48-.38-1.43V82.7H84.3V82h1.36v-1.9h.82z"/><path d="M90.64 89.42h-.82v-7.4h.82v7.4zm-.97-9.54q0-.23.15-.4.15-.15.4-.15.27 0 .42.16.16.15.16.38t-.16.4q-.15.15-.4.15t-.42-.16-.15-.4z"/><path d="M94.14 80.13v1.9h1.53v.66h-1.53v4.92q0 .62.22.92.22.3.74.3.2 0 .66-.07l.04.67q-.32.12-.88.12-.84 0-1.22-.5-.38-.48-.38-1.43V82.7h-1.36V82h1.36v-1.9h.82z"/><path d="M98.3 89.42h-.83v-10.5h.82v10.5z"/><path d="M103.38 89.56q-.94 0-1.7-.47t-1.2-1.3q-.4-.83-.4-1.87v-.3q0-1.06.4-1.9.4-.87 1.15-1.35.74-.5 1.6-.5 1.35 0 2.14.93.8.93.8 2.52v.46h-5.3v.15q0 1.26.73 2.1.72.84 1.82.84.65 0 1.15-.24.5-.24.92-.77l.5.4q-.9 1.3-2.62 1.3zm-.15-6.98q-.92 0-1.56.68-.62.68-.76 1.82h4.44v-.1q-.03-1.06-.6-1.73-.58-.67-1.5-.67z"/><path d="M115.85 89.42q-.12-.35-.15-1.03-.43.55-1.1.86-.67.3-1.4.3-1.08 0-1.74-.6-.66-.6-.66-1.5 0-1.08.9-1.7.9-.64 2.5-.64h1.5v-.84q0-.8-.5-1.24-.5-.46-1.43-.46-.85 0-1.4.43-.57.45-.57 1.07h-.82q0-.9.82-1.53.82-.65 2.02-.65 1.23 0 1.94.6.72.62.74 1.73v3.5q0 1.07.23 1.6v.1h-.88zm-2.57-.6q.82 0 1.47-.38.65-.4.94-1.06v-1.63h-1.47q-1.23 0-1.92.45-.68.43-.68 1.2 0 .6.46 1.02.46.4 1.2.4z"/><path d="M119.46 82.02l.03 1.27q.4-.7 1.03-1.05.62-.36 1.37-.36 1.2 0 1.77.66.58.67.6 2v4.86h-.82v-4.86q0-1-.43-1.48-.4-.48-1.3-.48-.77 0-1.36.48-.58.47-.86 1.27v5.07h-.82v-7.4h.78z"/><path d="M126.03 85.65q0-1.72.77-2.74.77-1 2.1-1 1.5 0 2.27 1.17v-4.15h.82v10.5h-.78l-.03-.98q-.8 1.12-2.32 1.12-1.28 0-2.07-1.03-.77-1.03-.77-2.78v-.1zm.83.15q0 1.4.57 2.23.56.82 1.6.82 1.5 0 2.14-1.34v-3.46q-.63-1.44-2.13-1.44-1.03 0-1.6.8-.58.82-.58 2.4z"/><path d="M142 87.54q0-.6-.5-.98-.47-.37-1.46-.57-.98-.22-1.53-.5-.53-.26-.8-.65-.26-.4-.26-.95 0-.87.73-1.44.74-.57 1.88-.57 1.24 0 1.98.6.75.6.75 1.6h-.82q0-.65-.54-1.1-.54-.42-1.37-.42-.8 0-1.3.37-.5.35-.5.93 0 .55.42.86.4.3 1.48.55 1.08.24 1.6.53.55.3.8.7.27.4.27.97 0 .94-.76 1.5-.75.56-1.96.56-1.3 0-2.1-.63-.8-.62-.8-1.58h.82q.05.72.6 1.12.56.4 1.48.4.85 0 1.38-.38.52-.4.52-.96z"/><path d="M147.52 89.56q-.94 0-1.7-.47t-1.2-1.3q-.4-.83-.4-1.87v-.3q0-1.06.4-1.9.4-.87 1.15-1.35.74-.5 1.6-.5 1.35 0 2.14.93.8.93.8 2.52v.46h-5.28v.15q0 1.26.72 2.1.72.84 1.82.84.65 0 1.15-.24.52-.24.93-.77l.5.4q-.9 1.3-2.6 1.3zm-.15-6.98q-.92 0-1.56.68-.6.68-.75 1.82h4.43v-.1q-.03-1.06-.6-1.73-.58-.67-1.5-.67z"/><path d="M153.17 80.13v1.9h1.53v.66h-1.53v4.92q0 .62.22.92.22.3.74.3.2 0 .66-.07l.03.67q-.32.12-.87.12-.84 0-1.22-.5-.4-.48-.4-1.43V82.7H151V82h1.35v-1.9h.82z"/><path d="M164.5 89.42q-.12-.35-.15-1.03-.43.55-1.1.86-.67.3-1.4.3-1.08 0-1.74-.6-.65-.6-.65-1.5 0-1.08.9-1.7.9-.64 2.5-.64h1.5v-.84q0-.8-.5-1.24-.5-.46-1.43-.46-.85 0-1.4.43-.57.45-.57 1.07h-.82q0-.9.82-1.53.82-.65 2.02-.65 1.23 0 1.94.6.73.62.75 1.73v3.5q0 1.07.23 1.6v.1h-.88zm-2.57-.6q.82 0 1.47-.38.65-.4.94-1.06v-1.63h-1.46q-1.23 0-1.92.45-.7.43-.7 1.2 0 .6.47 1.02.46.4 1.2.4z"/><path d="M170.4 85.65q0-1.72.78-2.74.77-1 2.1-1 1.5 0 2.27 1.17v-4.15h.82v10.5h-.77l-.03-.98q-.8 1.12-2.3 1.12-1.3 0-2.08-1.03-.8-1.03-.8-2.78v-.1zm.84.15q0 1.4.57 2.23.57.82 1.6.82 1.52 0 2.15-1.34v-3.46q-.63-1.44-2.13-1.44-1.03 0-1.6.8-.58.82-.58 2.4z"/><path d="M181.4 89.56q-.94 0-1.7-.47t-1.2-1.3q-.4-.83-.4-1.87v-.3q0-1.06.4-1.9.4-.87 1.15-1.35.74-.5 1.6-.5 1.35 0 2.14.93.78.93.78 2.52v.46h-5.28v.15q0 1.26.72 2.1.72.84 1.82.84.65 0 1.15-.24.5-.24.9-.77l.52.4q-.9 1.3-2.62 1.3zm-.15-6.98q-.92 0-1.56.68-.63.68-.77 1.82h4.43v-.1q-.03-1.06-.6-1.73-.58-.67-1.5-.67z"/><path d="M190.45 89.42q-.12-.35-.15-1.03-.43.55-1.1.86-.67.3-1.4.3-1.08 0-1.74-.6-.66-.6-.66-1.5 0-1.08.9-1.7.9-.64 2.5-.64h1.5v-.84q0-.8-.5-1.24-.5-.46-1.43-.46-.85 0-1.4.43-.57.45-.57 1.07h-.82q0-.9.82-1.53.82-.65 2.02-.65 1.23 0 1.94.6.72.62.74 1.73v3.5q0 1.07.23 1.6v.1h-.88zm-2.57-.6q.82 0 1.47-.38.65-.4.94-1.06v-1.63h-1.47q-1.23 0-1.92.45-.68.43-.68 1.2 0 .6.46 1.02.46.4 1.2.4z"/><path d="M192.94 85.65q0-1.72.77-2.74.78-1 2.1-1 1.5 0 2.28 1.17v-4.15h.82v10.5h-.77l-.03-.98q-.8 1.12-2.3 1.12-1.3 0-2.08-1.03t-.78-2.78v-.1zm.83.15q0 1.4.57 2.23.56.82 1.6.82 1.5 0 2.14-1.34v-3.46q-.63-1.44-2.13-1.44-1.03 0-1.6.8-.58.82-.58 2.4z"/><path d="M201.98 89.42h-.82v-10.5h.82v10.5z"/><path d="M205.12 89.42h-.82v-7.4h.82v7.4zm-.96-9.54q0-.23.15-.4.16-.15.42-.15t.4.16q.17.15.17.38t-.17.4q-.15.15-.4.15-.27 0-.42-.16t-.14-.4z"/><path d="M208.13 82.02l.03 1.27q.42-.7 1.04-1.05.62-.36 1.37-.36 1.2 0 1.77.66.58.67.6 2v4.86h-.82v-4.86q0-1-.43-1.48-.42-.48-1.32-.48-.76 0-1.35.48-.58.47-.86 1.27v5.07h-.82v-7.4h.78z"/><path d="M217.9 89.56q-.94 0-1.7-.47t-1.2-1.3q-.4-.83-.4-1.87v-.3q0-1.06.4-1.9.4-.87 1.15-1.35.74-.5 1.6-.5 1.35 0 2.14.93.78.93.78 2.52v.46h-5.28v.15q0 1.26.72 2.1.72.84 1.82.84.65 0 1.15-.24.5-.24.9-.77l.52.4q-.9 1.3-2.62 1.3zm-.15-6.98q-.92 0-1.56.68-.63.68-.77 1.82h4.43v-.1q-.03-1.06-.6-1.73-.58-.67-1.5-.67z"/><path d="M222.2 88.93q0-.24.16-.4.16-.18.43-.18t.42.17q.16.17.16.4t-.16.4q-.15.15-.43.15t-.44-.15q-.15-.15-.15-.4z"/><path d="M235.7 80.19l-3.4-.02v9.24h-.84v-9.24h-3.4v-.7h7.65v.7z"/><path d="M237.94 83.27q.4-.66 1.04-1.02.62-.36 1.37-.36 1.2 0 1.77.66.58.67.6 2v4.86h-.83v-4.86q0-1-.43-1.48-.4-.48-1.32-.48-.76 0-1.35.48-.58.47-.86 1.27v5.07h-.8v-10.5h.8v4.35z"/><path d="M247.68 89.56q-.94 0-1.7-.47t-1.2-1.3q-.4-.83-.4-1.87v-.3q0-1.06.4-1.9.4-.87 1.15-1.35.74-.5 1.6-.5 1.35 0 2.14.93.8.93.8 2.52v.46h-5.3v.15q0 1.26.73 2.1.72.84 1.82.84.65 0 1.15-.24.5-.24.92-.77l.5.4q-.9 1.3-2.62 1.3zm-.15-6.98q-.92 0-1.56.68-.62.68-.76 1.82h4.44v-.1q-.03-1.06-.6-1.73-.58-.67-1.5-.67z"/><path d="M258.9 82.72q-.27-.05-.56-.05-.77 0-1.3.43t-.75 1.24v5.08h-.82v-7.4h.8v1.18q.66-1.3 2.1-1.3.34 0 .53.08v.74z"/><path d="M262.9 89.56q-.93 0-1.7-.47-.75-.47-1.18-1.3-.42-.83-.42-1.87v-.3q0-1.06.4-1.9.42-.87 1.16-1.35.74-.5 1.6-.5 1.35 0 2.14.93.8.93.8 2.52v.46h-5.3v.15q0 1.26.73 2.1.72.84 1.82.84.65 0 1.15-.24.5-.24.92-.77l.5.4q-.9 1.3-2.6 1.3zm-.14-6.98q-.92 0-1.56.68-.62.68-.76 1.82h4.43v-.1q-.03-1.06-.6-1.73-.58-.67-1.5-.67z"/><path d="M271.72 87.54q0-.6-.5-.98-.47-.37-1.46-.57-.98-.22-1.53-.5-.54-.26-.8-.65-.27-.4-.27-.95 0-.87.73-1.44t1.87-.57q1.24 0 1.98.6.75.6.75 1.6h-.82q0-.65-.54-1.1-.54-.42-1.37-.42-.8 0-1.3.37-.5.35-.5.93 0 .55.42.86.4.3 1.47.55 1.08.24 1.6.53.55.3.8.7.27.4.27.97 0 .94-.76 1.5-.75.56-1.96.56-1.3 0-2.1-.63-.8-.62-.8-1.58h.82q.05.72.6 1.12.56.4 1.48.4.85 0 1.38-.38.52-.4.52-.96z"/><path d="M275.64 80.13v1.9h1.53v.66h-1.53v4.92q0 .62.22.92.23.3.75.3.2 0 .67-.07l.03.67q-.32.12-.87.12-.84 0-1.22-.5-.38-.48-.38-1.43V82.7h-1.36V82h1.36v-1.9h.82z"/><path d="M284.07 87.72l.13.63.16-.67 1.78-5.66h.7l1.75 5.62.18.78.16-.72 1.52-5.68h.85l-2.15 7.4h-.7l-1.9-5.86-.1-.4-.08.4-1.86 5.86h-.7l-2.13-7.4h.84l1.57 5.7z"/><path d="M293.77 89.42h-.82v-7.4h.82v7.4zm-.96-9.54q0-.23.16-.4.15-.15.4-.15t.42.16q.16.15.16.38t-.16.4q-.15.15-.4.15t-.42-.16-.15-.4z"/><path d="M296.92 89.42h-.82v-10.5h.82v10.5z"/><path d="M300.06 89.42h-.82v-10.5h.82v10.5z"/><path d="M311.66 85.8q0 1.73-.76 2.75-.77 1-2.06 1-1.55 0-2.34-1.14l-.03 1.02h-.76v-10.5h.82v4.18q.78-1.2 2.3-1.2 1.32 0 2.08 1 .77 1 .77 2.77v.13zm-.82-.15q0-1.46-.56-2.25-.57-.8-1.6-.8-.8 0-1.34.4-.54.37-.82 1.12v3.33q.6 1.4 2.17 1.4 1 0 1.57-.8.57-.8.57-2.4z"/><path d="M316.34 89.56q-.94 0-1.7-.47t-1.2-1.3q-.4-.83-.4-1.87v-.3q0-1.06.4-1.9.4-.87 1.15-1.35.73-.5 1.6-.5 1.34 0 2.13.93.8.93.8 2.52v.46h-5.3v.15q0 1.26.73 2.1.72.84 1.82.84.65 0 1.15-.24.5-.24.92-.77l.5.4q-.9 1.3-2.6 1.3zm-.15-6.98q-.93 0-1.57.68-.62.68-.76 1.82h4.43v-.1q-.03-1.06-.6-1.73-.58-.67-1.5-.67z"/><path d="M2.18 100.13v1.9H3.7v.66H2.2v4.92q0 .62.22.92.23.3.74.3.2 0 .67-.07l.04.67q-.32.12-.87.12-.84 0-1.23-.5-.38-.48-.38-1.43v-4.94H0V102h1.36v-1.9h.82z"/><path d="M10.1 109.42q-.13-.35-.17-1.03-.43.55-1.1.86-.66.3-1.4.3-1.07 0-1.74-.6-.66-.6-.66-1.5 0-1.08.9-1.7.9-.64 2.5-.64h1.5v-.84q0-.8-.5-1.24-.5-.46-1.43-.46-.84 0-1.4.43-.56.45-.56 1.07h-.82q0-.9.82-1.53.82-.65 2-.65 1.25 0 1.96.6.72.62.74 1.73v3.5q0 1.07.22 1.6v.1h-.87zm-2.58-.6q.82 0 1.46-.38.65-.4.95-1.06v-1.63H8.46q-1.22 0-1.9.45-.7.43-.7 1.2 0 .6.46 1.02.46.4 1.2.4z"/><path d="M14.67 105.7l-.94.9v2.82h-.82v-10.5h.83v6.72l.78-.84 2.84-2.78h1.03l-3.14 3.12 3.4 4.28h-.97l-3-3.73z"/><path d="M22.5 109.56q-.94 0-1.7-.46-.76-.47-1.2-1.3-.4-.83-.4-1.86v-.3q0-1.06.4-1.92.42-.85 1.15-1.34.74-.5 1.6-.5 1.35 0 2.14.93.78.93.78 2.52v.46H20v.16q0 1.25.72 2.1.72.83 1.82.83.65 0 1.15-.24.5-.24.9-.77l.52.4q-.9 1.3-2.62 1.3zm-.15-6.97q-.92 0-1.55.66-.63.68-.77 1.82h4.44v-.1q-.04-1.05-.6-1.72-.6-.67-1.52-.67z"/><path d="M27.66 102.02l.03 1.26q.4-.68 1.03-1.03.62-.37 1.38-.37 1.2 0 1.78.67.58.67.58 2v4.87h-.8v-4.86q-.02-1-.43-1.48-.4-.5-1.32-.5-.75 0-1.34.5-.58.46-.86 1.27v5.07h-.8v-7.4h.77z"/><path d="M40.72 108.87q.86 0 1.43-.48.58-.5.63-1.26h.8q-.05.68-.44 1.24-.4.55-1.04.87-.64.3-1.38.3-1.45 0-2.3-1-.86-1-.86-2.72v-.25q0-1.1.4-1.93.37-.84 1.08-1.3.72-.46 1.68-.46 1.2 0 2 .72t.85 1.9h-.8q-.05-.87-.62-1.4-.57-.53-1.43-.53-1.1 0-1.73.8-.62.8-.62 2.23v.24q0 1.4.6 2.2.63.8 1.74.8z"/><path d="M49.88 109.42q-.13-.35-.16-1.03-.43.55-1.1.86-.67.3-1.4.3-1.08 0-1.74-.6-.66-.6-.66-1.5 0-1.08.9-1.7.9-.64 2.5-.64h1.5v-.84q0-.8-.5-1.24-.5-.46-1.42-.46-.86 0-1.42.43-.56.45-.56 1.07H45q0-.9.82-1.53.82-.65 2.02-.65 1.24 0 1.95.6.7.62.72 1.73v3.5q0 1.07.23 1.6v.1h-.88zm-2.58-.6q.83 0 1.47-.38.65-.4.94-1.06v-1.63h-1.45q-1.23 0-1.92.45-.7.43-.7 1.2 0 .6.47 1.02.47.4 1.2.4z"/><path d="M56.12 102.72q-.26-.05-.56-.05-.76 0-1.3.43-.52.43-.75 1.24v5.08h-.8v-7.4h.8v1.18q.66-1.3 2.1-1.3.34 0 .54.07l-.02.75z"/><path d="M60.13 109.56q-.94 0-1.7-.46-.77-.47-1.2-1.3-.42-.83-.42-1.86v-.3q0-1.06.42-1.92.42-.85 1.16-1.34.74-.5 1.6-.5 1.35 0 2.13.93.8.93.8 2.52v.46h-5.27v.16q0 1.25.7 2.1.74.83 1.83.83.66 0 1.16-.24.5-.24.9-.77l.53.4q-.9 1.3-2.62 1.3zm-.15-6.97q-.92 0-1.56.66-.63.68-.77 1.82h4.44v-.1q-.04-1.05-.62-1.72-.57-.67-1.5-.67z"/><path d="M67.48 105.6q0-1.06.4-1.9.43-.87 1.18-1.34.76-.48 1.7-.48 1.5 0 2.4 1.04.92 1.04.92 2.74v.18q0 1.07-.42 1.93-.4.85-1.16 1.32-.75.45-1.7.45-1.48 0-2.4-1.03-.92-1.04-.92-2.75v-.16zm.82.24q0 1.32.68 2.18.7.84 1.8.84t1.8-.84q.7-.86.7-2.25v-.16q0-.84-.33-1.54-.3-.7-.88-1.1-.57-.38-1.3-.38-1.1 0-1.78.86-.7.86-.7 2.25v.14z"/><path d="M76.36 109.42v-6.73h-1.22V102h1.22v-.9q0-1.13.58-1.74.58-.6 1.6-.6.48 0 .88.1l-.06.7q-.34-.1-.75-.1-.66 0-1.04.44-.38.4-.38 1.2v.9h1.77v.67h-1.77v6.72h-.82z"/><path d="M80.35 108.93q0-.24.15-.4.16-.17.43-.17t.43.17q.16.16.16.4t-.16.4q-.16.15-.43.15t-.43-.15q-.15-.16-.15-.4z"/></g></g></g></svg>